<svg width="1440" height="224" viewBox="0 0 1440 224" fill="none" xmlns="http://www.w3.org/2000/svg">
<path d="M-330.933 355.811C-145.638 365.45 25.8614 457.83 209.385 479.095C374.5 498.354 527.522 450.773 682.085 386.947C755.514 356.748 829.309 325.172 905.822 307.794C983.063 290.235 1062.07 292.598 1140.38 289.877C1323.94 283.525 1507.56 280.831 1691.08 274.147M-278.973 319.553C-95.6857 406.435 48.9929 591.521 239.035 658.135C411.535 718.564 557.079 565.965 683.752 446.344C748.615 385.155 813.525 321.999 886.453 274.791C960.351 227.059 1031.25 216.624 1113.92 214.543C1288 210.209 1462.26 212.733 1636.37 209.728M-231.39 315.053C-138.061 398.05 -57.509 497.202 26.7513 592.635C98.524 673.934 176.85 763.891 272.148 803.493C439.961 873.247 591.454 613.693 684.832 484.29C792.668 334.732 905.42 152.367 1083.58 147.807C1251.34 143.547 1419.21 150.142 1587 150.509M-188.363 309.895C-100.046 408.672 -22.1863 518.974 62.3657 622.138C124.258 697.698 197.711 787.61 285.984 816.124C456.669 871.212 598.608 592.294 684.1 458.946C782.512 305.505 890.936 97.4544 1068.97 91.992C1226.74 87.1389 1384.62 94.8042 1542.31 97.002M-149.771 285.976C-64.3244 373.255 15.1598 469.426 103.038 553.399C159.246 607.109 226.924 668.338 300.277 681.517C455.063 709.724 592.177 481.274 681.379 361.417C777.979 231.672 891.849 47.7798 1049.15 35.9587C1199.18 24.7049 1351.62 40.5153 1501.61 46.1107M-115.638 223.735C7.32836 320.23 155.461 478.045 311.137 482.987C453.549 487.528 579.005 334.291 677.733 231.017C778.032 126.137 890.888 -7.3223 1030.79 -21.1603C1173.64 -35.2992 1321.75 -13.9593 1464.33 -4.25239M-85.0653 139.889C43.8888 204.927 176.933 283.53 320.379 276.294C452.655 269.601 565.131 181.256 673.931 99.6547C778.335 21.4979 887.466 -65.4711 1013.7 -76.0933C1151.67 -87.7356 1292.6 -66.7399 1429.93 -53.2512M-57.2284 52.5265C76.8705 85.7467 206.148 110.844 343.447 100.469C459.331 91.6882 564.951 39.8881 670.993 -13.0483C776.063 -65.5218 883.239 -120.349 998.539 -126.566C1131.99 -133.76 1266.12 -115.665 1398.63 -99.3794M-31.3757 -22.1751C95.2567 -14.9372 219.501 -19.0662 345.945 -23.1029C455.969 -26.595 562.976 -62.1478 668.592 -96.011C774.208 -129.874 881.24 -165.459 991.264 -168.951C1118.11 -172.974 1243.5 -158.91 1369.35 -141.477M-6.83672 -70.9629C221.731 -80.2283 442.257 -91.769 667.261 -143.66C767.973 -166.889 869 -190.585 971.413 -199.939C1095.56 -211.293 1219.23 -196.282 1342.44 -178.682M16.3646 -101.545C236.636 -110.474 449.33 -124.056 666.487 -171.243C763.724 -192.365 861.081 -213.704 959.606 -223.959C1079.15 -236.397 1198.56 -223.875 1317.53 -208.825M37.8702 -130.032C250.047 -138.633 456.053 -153.033 665.754 -194.201C878.137 -236.083 1079.24 -255.124 1294.37 -232.962M58.1314 -156.625C262.592 -164.913 462.702 -178.893 665.302 -213.996C869.431 -249.493 1066.68 -268.408 1273 -252.513M77.0298 -181.402C274.404 -189.403 468.763 -202.303 664.811 -231.574C861.588 -260.936 1054.55 -278.739 1252.98 -268.665M94.6948 -204.838C285.487 -212.572 474.457 -224.104 664.345 -247.953C854.232 -271.803 1042.9 -287.799 1234.23 -282.73M111.33 -226.747C480.054 -241.694 847.644 -297.247 1216.64 -295.388M126.982 -247.37C484.888 -261.878 841.98 -302.82 1200.09 -307.355M141.736 -266.844C489.429 -280.939 836.625 -310.137 1184.43 -319.215M155.692 -285.225C493.6 -298.923 831.545 -319.457 1169.65 -331.439M168.884 -302.608C497.816 -315.942 826.671 -331.088 1155.61 -344.331M1096.5 -356.241C1141.93 -307.297 1197.89 -277.685 1243.59 -229.448C1294.92 -175.268 1332.33 -101.197 1372.51 -35.6461C1456.02 100.591 1553.54 226.217 1650.3 348.85M1050.75 -354.357C1091.89 -304.997 1145.42 -278.19 1186.96 -229.996C1232.93 -176.658 1264.1 -105.721 1298.43 -41.8693C1372.86 96.5805 1460.16 226.826 1548.41 352.979M1005 -352.502C1039.44 -305.351 1084.52 -281.166 1121.46 -238.321C1166.39 -186.211 1194.2 -111.69 1224.36 -47.0032C1289.7 93.146 1367.45 227.559 1446.48 357.111M959.227 -350.676C988.018 -305.989 1024.22 -283.56 1056.83 -244.805C1100.55 -192.706 1124.06 -115.5 1150.34 -50.4751C1207.46 90.8242 1275.02 228.191 1344.57 361.213M913.488 -348.822C938.272 -303.912 971.647 -278.586 999.683 -238.344C1036.5 -185.633 1054.88 -114.118 1076.4 -51.3496C1125 90.4462 1183.04 229.742 1242.65 365.374M867.709 -346.967C888.234 -301.762 918.064 -269.608 941.731 -227.616C971.771 -174.389 985.472 -107.795 1002.57 -47.7822C1042.77 93.2653 1091.2 232.739 1140.74 369.475M822.044 -345.116C837.554 -301.432 859.893 -265.405 878.295 -223.896C905.513 -162.357 915.725 -92.3245 929.286 -25.3016C956.881 110.298 1001.67 241.329 1038.89 373.604M776.226 -343.258C787.572 -298.589 804.171 -257.49 817.584 -213.843C840.107 -140.498 846.535 -61.3595 856.505 15.3974C873.104 143.246 911.781 253.502 936.903 377.375M730.458 -341.373C752.75 -203.139 773.32 -72.3061 784.085 69.0572C789.822 144.262 783.681 242.542 809.448 312.7C819.749 340.745 827.97 336.782 834.976 381.537M684.714 -339.519C690.834 -253.29 698.863 -167.41 702.944 -80.9777C710.858 85.6972 704.223 261.159 726.973 425.75C728.914 404.861 728.327 383.833 730.878 363.101L733.08 385.909M638.942 -337.634C634.882 -43.828 651.264 250.661 643.986 544.054C637.761 518.233 639.21 486.989 637.625 460.072C637.662 461.372 636.708 374.842 631.183 390.341M593.202 -335.78C584.793 -246.391 571.523 -157.531 569.469 -67.4916C566.521 61.9354 567.668 191.529 567.575 321.022C567.48 431.489 576.512 550.54 562.263 660.401C550.274 618.027 550.376 569.264 546.436 524.929C545.66 516.129 544.307 409.864 529.267 394.745M547.433 -333.895C531.026 -237.104 507.93 -142.098 502.539 -43.1826C493.886 119.657 495.719 283.765 493.079 446.785C492.123 524.035 490.411 601.286 487.941 678.537C499.492 712.49 496.193 737.759 478.042 754.345C465.527 691.332 460.155 627.396 453.394 563.394C450.917 539.811 449.529 425.078 427.238 398.88M501.791 -332.045C477.43 -231.725 444.579 -133.451 436.214 -28.9396C422.258 145.609 423.701 322.861 418.523 498.082C417.725 525.518 426.07 807.932 394.361 817.868C377.755 743.074 370.19 666.583 360.984 590.098C358.982 573.543 353.182 421.966 325.454 402.703M455.918 -330.185C427.124 -238.518 387.001 -145.696 372.285 -48.9429C347.844 111.784 352.894 284.383 346.177 446.993C340.887 575.698 344.993 714.518 316.76 839.828C278.695 793.943 281.307 686.822 272.583 625.774C265.207 574.108 266.235 432.024 223.552 406.955M410.177 -328.331C373.827 -234.24 318.932 -133.409 304.888 -30.6636C280.734 145.75 278.832 327.947 267.303 506.238C262.608 578.569 258.616 651.627 249.944 723.483C246.787 749.624 247.47 785.802 228.107 803.011C200.085 734.366 190.717 657.495 176.956 583.311C169.914 545.424 162.08 412.321 121.656 411.207M364.407 -326.476C323.515 -237.706 267.093 -145.493 242.714 -48.4997C179.821 201.594 226.275 483.552 151.178 730.542C101.948 716.052 69.6251 374.206 19.6999 415.249M318.661 -324.651C280.449 -253.805 238.547 -184.05 203.454 -110.911C143.071 14.8553 142.952 180.464 125.906 322.169C115.93 405.148 107.658 490.388 88.8169 571.428C75.5426 628.529 64.663 649.357 36.1164 600.787C26.5723 584.478 -45.9196 341.898 -82.2123 419.079M272.896 -322.796C230.643 -253.843 186.747 -185.852 145.969 -115.598C79.802 -1.66596 73.3849 145.445 50.7791 278.784C43.4091 322.216 20.924 573.727 -49.0912 505.635C-93.5702 462.399 -120.849 332.716 -184.146 422.848M227.151 -320.941C181.174 -253.925 135.198 -186.898 89.2218 -119.861C20.1218 -18.7564 6.01356 108.794 -24.4612 231.563C-41.2781 299.213 -61.8714 441.333 -143.281 400.048C-163.537 389.769 -179.522 367.913 -202.201 363.115C-242.829 354.69 -264.19 392.518 -286.049 427.009M181.381 -319.086C501.688 -332.07 821.945 -345.052 1142.15 -358.033C1191.68 -309.285 1250.44 -277.125 1299.46 -227.842C1356.03 -171.093 1399.33 -96.7156 1446.51 -29.3916C1539.98 104.051 1647.3 224.32 1752.11 344.782C1038.74 373.699 325.203 399.176 -388.067 431.538C-341.706 366.834 -309.662 322.826 -237.648 315.158C-211.446 312.372 -184.644 314.733 -161.176 298.114C-129.666 275.664 -113.839 219.548 -99.8631 182.14C-61.3224 78.7957 -41.1484 -25.9215 23.5506 -111.059L181.381 -319.086Z" stroke="white" stroke-opacity="0.13" stroke-miterlimit="10"/>
</svg>
