<svg width="1440" height="910" viewBox="0 0 1440 910" fill="none" xmlns="http://www.w3.org/2000/svg">
<path d="M-567.597 499.322C-332.129 510.059 -117.159 588.816 115.642 609.113C325.086 627.48 521.518 590.549 720.488 540.246C815.009 516.45 910.044 491.525 1008.04 478.347C1106.96 465.031 1207.42 468.169 1307.18 467.105C1541.01 464.63 1774.78 465.173 2008.57 462.425M-500.182 470.207C-270.016 544.606 -92.475 699.402 147.009 757.192C364.388 809.617 555.037 685.978 720.497 589.248C805.22 539.771 890.07 488.671 984.559 450.842C1080.3 412.596 1170.9 405.059 1276.19 404.587C1497.87 403.634 1719.56 408.339 1941.24 408.483M-439.468 467.213C-323.645 537.055 -224.658 620.026 -120.82 699.986C-32.3709 768.103 64.1101 843.459 183.981 877.548C395.063 937.592 597.086 725.851 720.522 620.555C863.075 498.856 1013.05 350.18 1239.94 349.102C1453.59 348.115 1666.99 356.08 1880.51 358.909M-384.526 463.607C-275.644 546.386 -180.48 638.51 -76.545 724.849C-0.465378 788.086 89.815 863.331 201.139 888.172C416.398 936.166 606.951 708.314 720.492 599.646C851.189 474.603 996.57 304.682 1223.33 302.858C1424.29 301.232 1624.93 309.929 1825.54 314.116M-334.562 444.465C-228.925 517.719 -131.191 598.216 -22.3401 668.781C47.2818 713.915 131.233 765.422 224.115 777.393C420.098 802.983 602.714 616.672 720.496 519.184C848.045 413.654 999.498 263.736 1200.11 256.356C1391.43 249.335 1584.87 264.667 1775.56 271.539M-288.911 393.656C-135.852 475.075 47.0537 607.436 244.996 613.854C426.07 619.743 591.177 495.276 720.493 411.605C851.866 326.633 1000.23 218.285 1178.77 208.981C1361.07 199.473 1548.79 219.299 1729.9 229.45M-247.022 324.98C-85.2246 380.549 81.2958 447.367 264.105 443.559C432.682 440.032 578.962 368.878 720.326 303.23C855.972 240.355 997.946 170.286 1158.97 163.427C1334.97 155.905 1513.57 175.339 1687.87 188.529M-208.49 253.362C-39.0137 282.773 124.615 305.414 299.714 298.926C447.504 293.43 583.76 252.307 720.594 210.253C856.175 168.567 994.519 124.971 1141.47 121.581C1311.56 117.658 1481.62 134.598 1649.68 150.021M-172.933 192.154C-12.035 200.028 146.229 198.494 307.287 197.069C447.431 195.846 584.875 168.141 720.488 141.808C856.102 115.475 993.578 87.7448 1133.72 86.5217C1295.29 85.1142 1454.36 98.5986 1613.91 114.868M-139.97 152.294C151.241 148.095 432.298 141.899 720.488 102.498C849.483 84.8603 978.896 66.8424 1109.56 60.671C1267.95 53.1777 1424.8 67.4169 1580.98 83.7845M-109.355 127.426C171.285 123.38 442.447 115.382 720.484 79.7423C844.981 63.7893 969.639 47.6596 1095.39 40.6868C1247.97 32.2304 1399.48 44.3531 1550.36 58.5539M-80.9742 104.26C189.353 100.362 452.033 91.5893 720.368 60.8004C992.141 29.4634 1248.75 16.7901 1521.74 38.3029M-54.2436 82.637C206.252 78.8809 461.414 70.3662 720.496 44.4715C981.538 18.2743 1233.23 5.64706 1495.24 21.8596M-29.312 62.491C222.156 58.8651 469.961 51.1544 720.496 29.9692C971.964 8.72082 1218.16 -3.05464 1470.34 8.23973M-5.99804 43.4324C237.084 39.9274 477.982 33.2634 720.485 16.4564C962.989 -0.350648 1203.66 -10.7004 1446.97 -3.64016M15.9515 25.617C485.73 18.8432 955.509 -21.4307 1425.03 -14.3421M36.604 8.84779C492.6 2.27273 948.499 -26.1108 1404.4 -24.459M56.0726 -6.9884C499.057 -13.3758 941.944 -32.2247 1384.9 -34.474M74.4864 -21.9343C505.005 -28.142 935.812 -39.9869 1366.52 -44.7766M91.8938 -36.0698C510.974 -42.1125 930.023 -49.6506 1349.1 -55.6186M1274.31 -66.329C1330.38 -25.2871 1400.54 -0.0271527 1456.99 40.4359C1520.38 85.8837 1565.36 147.525 1614.17 202.181C1715.59 315.776 1835.24 420.832 1954.02 523.409M1216.01 -65.464C1266.61 -24.144 1333.79 -1.23368 1384.94 39.1313C1441.55 83.8045 1478.69 142.766 1520.11 195.934C1609.9 311.217 1716.38 419.928 1824.2 525.28M1157.73 -64.6236C1199.88 -25.2256 1256.39 -4.60423 1301.88 31.2809C1357.21 74.9257 1389.95 136.793 1426.03 190.586C1504.2 307.133 1598.36 419.137 1694.33 527.152M1099.41 -63.8071C1134.46 -26.5251 1179.73 -7.48642 1219.86 24.9615C1273.64 68.5787 1300.82 132.595 1331.96 186.609C1399.62 303.98 1480.71 418.267 1564.5 529M1041.14 -62.9669C1071.08 -25.5614 1112.66 -4.17622 1146.9 29.4283C1191.88 73.4466 1212.74 132.693 1237.89 184.774C1294.69 302.427 1363.61 418.161 1434.64 530.897M982.812 -62.1258C1007.33 -24.5424 1044.15 2.41998 1072.77 37.4017C1109.11 81.7441 1124.18 136.862 1143.81 186.604C1189.94 303.514 1246.62 419.249 1304.8 532.745M924.632 -61.2869C942.817 -25.033 969.965 5.00976 991.909 39.5146C1024.36 90.6678 1034.86 148.569 1049.74 204.038C1080.04 316.266 1132.37 424.985 1175.04 534.616M866.257 -60.4452C879.108 -23.4414 898.771 10.6975 914.289 46.8902C940.345 107.707 945.71 173.06 955.67 236.502C972.248 342.172 1017.55 433.669 1045.12 536.19M807.945 -59.5801C831.398 54.74 852.924 162.931 861.599 279.658C866.225 341.756 854.916 422.703 885.213 480.942C897.326 504.222 907.928 501.078 915.253 538.087M749.664 -58.7397C754.386 12.4548 761.551 83.3897 763.672 154.721C767.816 292.277 753.133 436.858 776.234 572.918C779.446 555.723 779.446 538.375 783.43 521.318L785.422 540.158M691.347 -57.8745C675.733 184.33 686.11 427.405 666.415 669.219C659.411 647.834 662.367 622.093 661.307 599.875C661.307 600.946 663.17 529.582 655.588 542.279M633.071 -57.0342C619.191 16.5472 599.143 89.6194 593.328 163.832C584.975 270.51 581.826 377.387 577.103 484.162C573.055 575.25 580.316 673.552 558.276 763.926C544.525 728.805 546.389 688.597 542.951 651.981C542.276 644.713 544.332 557.069 525.73 544.376M574.757 -56.169C550.435 23.3956 517.665 101.387 507.287 182.869C490.484 317.013 486.982 452.36 477.826 586.742C473.863 650.426 468.937 714.099 463.047 777.761C476.541 805.932 471.443 826.719 447.754 840.121C434.067 787.975 429.505 735.173 423.175 682.297C420.862 662.814 423.176 568.187 395.738 546.25M516.606 -55.3305C482.036 27.024 436.735 107.564 422.374 193.615C398.406 337.334 393.94 483.512 381.121 627.918C379.129 650.529 379.707 883.526 339.001 891.242C320.527 829.319 313.62 766.132 304.624 702.925C302.664 689.244 300.672 564.171 266.07 547.87M458.16 -54.4878C418.257 20.6653 363.896 96.6001 341.727 176.159C304.908 308.322 305.197 450.719 290.868 584.702C279.559 690.749 279.848 805.279 239.463 908.181C192.652 869.772 199.785 781.482 190.853 731.012C183.303 688.298 189.664 571.156 136.235 549.842M399.884 -53.6475C350.278 23.3903 276.833 105.707 255.307 190.217C218.295 335.319 209.396 485.525 188.384 632.367C179.838 691.938 172.159 752.119 158.569 811.24C153.621 832.747 153.203 862.589 127.951 876.488C94.7299 819.464 85.5412 755.936 70.6658 694.559C63.0514 663.212 57.8145 553.341 6.40938 551.814M341.57 -52.8067C286.373 19.7753 211.29 94.9621 176.816 174.573C87.8851 379.848 136.977 613.043 32.6246 815.573C-29.5114 802.885 -58.4911 520.52 -123.486 553.612M283.287 -51.9906C232.139 5.8517 176.332 62.7392 129.072 122.52C47.755 225.314 41.715 361.87 14.9843 478.459C-0.662146 546.732 -14.2205 616.894 -41.0797 683.434C-60.0032 730.318 -74.5894 747.328 -109.191 706.849C-120.758 693.257 -204.387 492.141 -253.319 555.235M224.979 -51.1499C168.755 5.07069 110.474 60.4736 56.0813 117.789C-32.175 210.739 -45.5722 331.946 -79.082 441.554C-90.0056 477.256 -127.564 684.307 -214.246 627.106C-269.313 590.785 -299.417 483.441 -383.176 556.808M166.697 -50.3095C105.803 4.25853 44.9092 58.8349 -15.9845 113.42C-107.518 195.748 -130.008 300.71 -173.156 401.484C-196.963 457.013 -228.223 573.892 -330.359 538.624C-355.772 529.843 -375.339 511.58 -404.029 507.283C-455.434 499.724 -483.964 530.594 -513.008 558.706M108.383 -49.4687C516.476 -55.353 924.504 -61.2364 1332.47 -67.1189C1393.77 -26.1774 1467.41 1.22599 1528.03 42.6009C1598.01 90.2469 1650.47 152.228 1708.11 208.452C1822.33 319.893 1954.63 420.68 2083.72 521.587C1174.85 534.692 265.876 544.957 -643 560.904C-581.699 508.249 -539.354 472.443 -447.435 467.205C-413.99 465.302 -379.966 467.653 -349.509 454.302C-308.609 436.264 -286.473 390.231 -267.357 359.596C-214.634 274.961 -185.237 188.917 -99.8722 119.689L108.383 -49.4687Z" stroke="url(#paint0_linear_2172_1239)" stroke-opacity="0.13" stroke-miterlimit="10"/>
<defs>
<linearGradient id="paint0_linear_2172_1239" x1="813" y1="-254.559" x2="803.744" y2="570.731" gradientUnits="userSpaceOnUse">
<stop stop-color="#12E582" stop-opacity="0"/>
<stop offset="0.503655" stop-color="#12E582"/>
<stop offset="1" stop-color="#12E582" stop-opacity="0"/>
</linearGradient>
</defs>
</svg>
