<svg width="2731" height="751" viewBox="0 0 2731 751" fill="none" xmlns="http://www.w3.org/2000/svg">
<path d="M77.4029 436.064C312.871 444.304 527.841 504.746 760.642 520.323C970.086 534.418 1166.52 506.076 1365.49 467.471C1460.01 449.209 1555.04 430.08 1653.04 419.967C1751.96 409.748 1852.42 412.156 1952.18 411.339C2186.01 409.44 2419.78 409.856 2653.57 407.747M144.818 413.72C374.984 470.817 552.525 589.615 792.009 633.965C1009.39 674.199 1200.04 579.313 1365.5 505.078C1450.22 467.106 1535.07 427.89 1629.56 398.858C1725.3 369.507 1815.9 363.722 1921.19 363.36C2142.87 362.629 2364.56 366.239 2586.24 366.35M205.532 411.422C321.354 465.022 420.342 528.698 524.18 590.063C612.629 642.34 709.11 700.171 828.98 726.333C1040.06 772.413 1242.09 609.913 1365.52 529.104C1508.08 435.706 1658.05 321.605 1884.94 320.778C2098.59 320.021 2311.99 326.133 2525.51 328.304M260.474 408.655C369.356 472.183 464.52 542.883 568.455 609.144C644.534 657.675 734.815 715.422 846.139 734.486C1061.4 771.318 1251.95 596.454 1365.49 513.057C1496.19 417.094 1641.57 286.688 1868.33 285.289C2069.29 284.04 2269.93 290.715 2470.54 293.928M310.438 393.964C416.075 450.183 513.809 511.96 622.66 566.115C692.282 600.753 776.233 640.282 869.115 649.469C1065.1 669.108 1247.71 526.124 1365.5 451.307C1493.05 370.319 1644.5 255.264 1845.11 249.601C2036.43 244.213 2229.87 255.979 2420.56 261.253M356.089 354.971C509.148 417.456 692.054 519.036 889.996 523.961C1071.07 528.48 1236.18 432.959 1365.49 368.746C1496.87 303.535 1645.23 220.383 1823.77 213.243C2006.07 205.946 2193.79 221.161 2374.9 228.951M397.977 302.266C559.775 344.912 726.296 396.191 909.105 393.269C1077.68 390.562 1223.96 335.956 1365.33 285.574C1500.97 237.321 1642.95 183.546 1803.97 178.283C1979.97 172.509 2158.57 187.424 2332.87 197.547M436.51 247.302C605.986 269.874 769.615 287.25 944.714 282.271C1092.5 278.053 1228.76 246.493 1365.59 214.219C1501.17 182.227 1639.52 148.769 1786.47 146.168C1956.56 143.157 2126.62 156.158 2294.68 167.994M472.067 200.329C632.965 206.372 791.228 205.195 952.287 204.101C1092.43 203.162 1229.88 181.9 1365.49 161.691C1501.1 141.482 1638.58 120.2 1778.72 119.262C1940.29 118.182 2099.36 128.53 2258.91 141.016M505.03 169.738C796.241 166.516 1077.3 161.761 1365.49 131.523C1494.48 117.987 1623.9 104.159 1754.56 99.4227C1912.95 93.6719 2069.8 104.6 2225.98 117.161M535.644 150.654C816.284 147.548 1087.45 141.41 1365.48 114.059C1489.98 101.816 1614.64 89.4371 1740.39 84.0858C1892.97 77.596 2044.48 86.8996 2195.36 97.7979M564.026 132.875C834.353 129.883 1097.03 123.151 1365.37 99.522C1637.14 75.4725 1893.75 65.7463 2166.74 82.2563M590.756 116.28C851.252 113.398 1106.41 106.863 1365.5 86.9904C1626.54 66.8855 1878.23 57.1947 2140.24 69.637M615.688 100.819C867.155 98.0367 1114.96 92.1191 1365.5 75.8607C1616.96 59.5536 1863.16 50.5166 2115.34 59.1844M639.002 86.193C882.084 83.503 1122.98 78.3888 1365.49 65.4903C1607.99 52.5918 1848.66 44.6489 2091.97 50.0672M660.951 72.5206C1130.73 67.3221 1600.51 36.4139 2070.03 41.854M681.604 59.6511C1137.6 54.6051 1593.5 32.8222 2049.4 34.0899M701.072 47.4976C1144.06 42.5956 1586.94 28.1301 2029.9 26.4039M719.486 36.0274C1150 31.2634 1580.81 22.173 2011.52 18.4972M736.894 25.1792C1155.97 20.5417 1575.02 14.7567 1994.1 10.1766M1919.31 1.95686C1975.38 33.4543 2045.54 52.84 2101.99 83.8933C2165.38 118.772 2210.36 166.078 2259.17 208.024C2360.59 295.202 2480.24 375.827 2599.02 454.549M1861.01 2.62069C1911.61 34.3316 1978.79 51.9141 2029.94 82.8921C2086.55 117.176 2123.69 162.427 2165.11 203.23C2254.9 291.703 2361.38 375.133 2469.2 455.985M1802.73 3.26568C1844.88 33.5015 1901.39 49.3274 1946.88 76.8673C2002.21 110.362 2034.95 157.842 2071.03 199.125C2149.2 288.569 2243.36 374.526 2339.33 457.422M1744.41 3.89229C1779.46 32.5042 1824.73 47.1154 1864.86 72.0175C1918.64 105.491 1945.82 154.62 1976.96 196.073C2044.62 286.15 2125.71 373.859 2209.5 458.84M1686.14 4.53714C1716.08 33.2439 1757.66 49.6558 1791.9 75.4456C1836.88 109.227 1857.73 154.696 1882.89 194.665C1939.69 284.958 2008.61 373.777 2079.64 460.297M1627.81 5.18257C1652.33 34.0259 1689.14 54.7181 1717.77 81.5647C1754.11 115.595 1769.18 157.895 1788.81 196.07C1834.94 285.792 1891.62 374.613 1949.8 461.714M1569.63 5.82639C1587.82 33.6494 1614.97 56.7056 1636.91 83.1862C1669.36 122.444 1679.86 166.879 1694.74 209.449C1725.04 295.578 1777.37 379.014 1820.04 463.15M1511.26 6.47236C1524.11 34.8709 1543.77 61.0706 1559.29 88.8466C1585.34 135.52 1590.71 185.675 1600.67 234.363C1617.25 315.46 1662.55 385.679 1690.12 464.358M1452.94 7.13632C1476.4 94.871 1497.92 177.902 1506.6 267.484C1511.23 315.141 1499.92 377.263 1530.21 421.958C1542.33 439.825 1552.93 437.412 1560.25 465.814M1394.66 7.78126C1399.39 62.4193 1406.55 116.858 1408.67 171.601C1412.82 277.168 1398.13 388.126 1421.23 492.545C1424.45 479.349 1424.45 466.035 1428.43 452.945L1430.42 467.404M1336.35 8.44526C1320.73 194.324 1331.11 380.871 1311.42 566.451C1304.41 550.039 1307.37 530.284 1306.31 513.233C1306.31 514.055 1308.17 459.287 1300.59 469.031M1278.07 9.09014C1264.19 65.56 1244.14 121.639 1238.33 178.594C1229.97 260.463 1226.83 342.486 1222.1 424.43C1218.05 494.334 1225.32 569.776 1203.28 639.134C1189.53 612.18 1191.39 581.323 1187.95 553.222C1187.28 547.644 1189.33 480.382 1170.73 470.641M1219.76 9.75412C1195.44 70.8157 1162.66 130.67 1152.29 193.203C1135.48 296.151 1131.98 400.023 1122.83 503.154C1118.86 552.028 1113.94 600.894 1108.05 649.752C1121.54 671.371 1116.44 687.324 1092.75 697.61C1079.07 657.59 1074.5 617.067 1068.18 576.488C1065.86 561.535 1068.18 488.915 1040.74 472.079M1161.61 10.3976C1127.04 73.6003 1081.73 135.411 1067.37 201.45C1043.41 311.746 1038.94 423.931 1026.12 534.754C1024.13 552.107 1024.71 730.92 984.001 736.842C965.527 689.319 958.62 640.826 949.624 592.319C947.664 581.819 945.672 485.832 911.07 473.322M1103.16 11.0444C1063.26 68.7204 1008.9 126.996 986.727 188.053C949.908 289.482 950.197 398.764 935.868 501.588C924.559 582.974 924.848 670.869 884.463 749.842C837.652 720.365 844.785 652.607 835.853 613.874C828.303 581.093 834.664 491.193 781.235 474.835M1044.88 11.6892C995.278 70.8117 921.832 133.986 900.307 198.842C863.295 310.201 854.395 425.476 833.384 538.169C824.837 583.886 817.159 630.073 803.569 675.444C798.621 691.95 798.203 714.852 772.95 725.519C739.73 681.756 730.541 633.002 715.666 585.898C708.051 561.841 702.814 477.52 651.409 476.349M986.57 12.3345C931.373 68.0373 856.29 125.739 821.816 186.837C732.885 344.374 781.977 523.339 677.624 678.77C615.488 669.032 586.509 452.333 521.513 477.729M928.287 12.9608C877.139 57.3517 821.332 101.01 774.071 146.888C692.755 225.778 686.715 330.577 659.984 420.053C644.338 472.448 630.779 526.294 603.92 577.36C584.997 613.341 570.411 626.396 535.808 595.33C524.242 584.899 440.613 430.553 391.681 478.974M869.979 13.606C813.755 56.7524 755.474 99.2711 701.081 143.258C612.825 214.592 599.428 307.612 565.918 391.73C554.994 419.129 517.436 578.03 430.754 534.131C375.687 506.257 345.582 423.876 261.824 480.182M811.697 14.251C750.803 56.1291 689.909 98.0135 629.015 139.904C537.482 203.087 514.992 283.64 471.844 360.979C448.037 403.594 416.776 493.292 314.641 466.226C289.227 459.487 269.661 445.471 240.971 442.173C189.566 436.372 161.036 460.064 131.992 481.638M753.383 14.8963C1161.48 10.3804 1569.5 5.86517 1977.47 1.35067C2038.77 32.7711 2112.41 53.8018 2173.03 85.5548C2243.01 122.121 2295.47 169.688 2353.11 212.837C2467.33 298.362 2599.63 375.71 2728.72 453.151C1819.85 463.209 910.875 471.087 1.99999 483.325C63.3007 442.915 105.646 415.436 197.564 411.416C231.01 409.955 265.034 411.759 295.491 401.514C336.391 387.671 358.527 352.343 377.643 328.832C430.366 263.879 459.763 197.845 545.128 144.716L753.383 14.8963Z" stroke="url(#paint0_linear_1602_842)" stroke-opacity="0.13" stroke-miterlimit="10"/>
<defs>
<linearGradient id="paint0_linear_1602_842" x1="1458" y1="-142.5" x2="1452.55" y2="490.9" gradientUnits="userSpaceOnUse">
<stop offset="0.264909" stop-color="white" stop-opacity="0"/>
<stop offset="0.503655" stop-color="white"/>
<stop offset="1" stop-color="white" stop-opacity="0"/>
</linearGradient>
</defs>
</svg>
