<svg xmlns="http://www.w3.org/2000/svg" width="1514" height="516" fill="none"><g clip-path="url(#a)"><path stroke="#fff" stroke-miterlimit="10" stroke-opacity=".13" d="M-426.566 553.687c210.384 10.944 405.106 115.833 613.48 139.978 187.471 21.866 361.213-32.158 536.704-104.626 83.372-34.288 167.158-70.139 254.032-89.871 87.7-19.936 177.41-17.253 266.32-20.342 208.42-7.213 416.89-10.272 625.27-17.86M-367.57 512.52c208.105 98.645 372.373 308.793 588.148 384.427 195.857 68.611 361.108-104.651 504.933-240.469 73.646-69.473 147.344-141.181 230.147-194.781 83.902-54.195 164.402-66.044 258.272-68.406 197.64-4.921 395.51-2.055 593.19-5.467M-313.545 507.411c105.967 94.234 197.426 206.812 293.095 315.167 81.491 92.307 170.423 194.442 278.624 239.412 190.535 79.2 362.541-215.503 468.563-362.427 122.438-169.809 250.456-376.867 452.733-382.044 190.48-4.837 381.08 2.651 571.59 3.067M-264.691 501.554C-164.416 613.706-76.014 738.943 19.987 856.076c70.273 85.79 153.671 187.874 253.896 220.254 193.797 62.55 354.955-254.139 452.023-405.542 111.738-174.218 234.842-410.44 436.984-416.642 179.13-5.51 358.38 3.193 537.43 5.689M-220.873 474.397c97.016 99.096 187.262 208.289 287.04 303.633 63.818 60.981 140.659 130.502 223.945 145.465 175.745 32.027 331.424-227.357 432.704-363.443 109.68-147.313 238.969-356.104 417.574-369.526 170.33-12.778 343.42 5.173 513.72 11.527M-182.119 403.728c139.616 109.561 307.807 288.744 484.562 294.355 161.694 5.156 304.137-168.83 416.234-286.087 113.88-119.082 242.016-270.611 400.863-286.323 162.19-16.054 330.35 8.176 492.24 19.197M-147.407 308.529c146.415 73.844 297.474 163.09 460.342 154.874 150.188-7.599 277.893-107.906 401.426-200.556 118.54-88.74 242.447-187.485 385.769-199.545 156.66-13.219 316.67 10.62 472.6 25.935m-1688.531 120.1c152.257 37.718 299.038 66.214 454.928 54.434 131.576-9.97 251.496-68.784 371.897-128.888C830.321 75.305 952.009 13.053 1082.92 5.995c151.52-8.168 303.81 12.377 454.27 30.868M-86.447 124.52c143.778 8.218 284.846 3.529 428.411-1.054 124.921-3.965 246.418-44.331 366.334-82.78C828.215 2.24 949.739-38.163 1074.66-42.129c144.02-4.567 286.39 11.4 429.28 31.194M-58.586 69.127c259.517-10.52 509.903-23.623 765.373-82.54 114.349-26.375 229.056-53.279 345.333-63.9 140.96-12.891 281.37 4.152 421.26 24.135M-32.243 34.404c250.097-10.138 491.59-25.56 738.151-79.135 110.403-23.982 220.942-48.21 332.812-59.854 135.73-14.122 271.3.095 406.39 17.182M-7.825 2.06C233.08-7.706 466.98-24.056 705.076-70.798c241.14-47.553 469.474-69.172 713.734-44.009M15.18-28.134c232.144-9.41 459.35-25.283 689.383-65.14 231.768-40.303 455.717-61.779 689.977-43.732M36.637-56.266c224.099-9.084 444.775-23.73 667.368-56.966 223.421-33.337 442.505-53.551 667.815-42.113M56.693-82.875c216.627-8.782 431.183-21.875 646.783-48.954 215.599-27.079 429.814-45.241 647.044-39.485M75.581-107.751c418.651-16.971 836.013-80.046 1254.969-77.935M93.352-131.166c406.368-16.473 811.811-62.958 1218.408-68.107M110.104-153.278c394.772-16.002 788.979-49.154 1183.886-59.461M125.949-174.147c383.663-15.552 767.367-38.868 1151.261-52.472M140.928-193.884c373.47-15.14 746.854-32.336 1120.322-47.372m-67.1-13.523c51.57 55.571 115.11 89.193 167.01 143.961 58.27 61.516 100.75 145.617 146.37 220.044 94.81 154.683 205.54 297.32 315.4 436.557M1142.2-252.64c46.71 56.044 107.49 86.48 154.66 141.2 52.19 60.56 87.58 141.102 126.55 213.6 84.51 157.196 183.64 305.077 283.83 448.312m-616.99-801.006c39.11 53.535 90.29 80.996 132.24 129.642 51.01 59.166 82.59 143.778 116.83 217.223 74.18 159.126 162.46 311.739 252.19 458.833m-553.22-803.625c32.69 50.739 73.78 76.204 110.82 120.207 49.63 59.153 76.33 146.813 106.17 220.643 64.85 160.431 141.55 316.398 220.53 467.431M986.354-246.356c28.136 50.992 66.036 79.747 97.866 125.438 41.8 59.848 62.67 141.047 87.11 212.314 55.17 160.995 121.08 319.152 188.76 473.15M934.376-244.249c23.304 51.326 57.173 87.833 84.044 135.511 34.11 60.435 49.66 136.045 69.08 204.184 45.64 160.146 100.63 318.505 156.87 473.756M882.528-242.147c17.61 49.599 42.973 90.503 63.868 137.633 30.903 69.872 42.497 149.387 57.894 225.485 31.33 153.96 82.18 302.733 124.44 452.919M830.506-240.038c12.883 50.717 31.729 97.381 46.958 146.939 25.573 83.275 32.871 173.13 44.191 260.28 18.847 145.159 62.761 270.345 91.285 410.99M778.541-237.898c25.31 156.951 48.665 305.5 60.889 466.004 6.513 85.387-.459 196.976 28.797 276.633 11.696 31.843 21.029 27.343 28.984 78.157M726.603-235.793c6.949 97.905 16.065 195.413 20.699 293.549 8.985 189.243 1.452 388.463 27.282 575.34 2.204-23.717 1.537-47.592 4.434-71.131l2.5 25.896M674.634-233.653c-4.61 333.589 13.99 667.953 5.726 1001.071-7.068-29.317-5.422-64.791-7.222-95.352.042 1.475-1.041-96.771-7.314-79.173M622.7-231.547c-9.547 101.492-24.615 202.385-26.946 304.615-3.347 146.952-2.045 294.093-2.151 441.12-.107 125.425 10.147 260.595-6.031 385.332-13.613-48.112-13.497-103.478-17.97-153.815-.881-9.992-2.418-130.646-19.494-147.812m20.626-827.3C552.105-119.51 525.882-11.64 519.761 100.669c-9.825 184.888-7.744 371.217-10.741 556.31-1.085 87.71-3.03 175.421-5.834 263.132 13.116 38.551 9.37 67.241-11.239 86.069-14.21-71.541-20.309-144.135-27.986-216.802-2.812-26.777-4.387-157.044-29.697-186.79m84.648-829.894c-27.66 113.903-64.959 225.484-74.457 344.146-15.846 198.183-14.207 399.435-20.086 598.382-.906 31.151 8.568 351.808-27.434 363.088-18.854-84.923-27.443-171.771-37.895-258.613-2.274-18.796-8.86-190.897-40.342-212.768m148.129-832.124c-32.693 104.079-78.248 209.47-94.957 319.323-27.75 182.491-22.017 378.459-29.642 563.087-6.007 146.133-1.346 303.749-33.401 446.025-43.219-52.1-40.254-173.722-50.159-243.036-8.375-58.662-7.207-219.984-55.67-248.447M414.893-223.09c-41.272 106.831-103.6 221.316-119.545 337.973-27.425 200.301-29.585 407.167-42.675 609.6-5.33 82.124-9.863 165.074-19.709 246.66-3.585 29.677-2.81 70.757-24.794 90.297-31.816-77.94-42.452-165.22-58.077-249.448-7.995-43.017-16.89-194.143-62.788-195.408m275.621-837.567C316.497-120.194 252.434-15.495 224.755 94.632c-71.408 283.957-18.665 604.093-103.931 884.526-55.896-16.452-92.595-404.585-149.28-357.984m339.441-840.085C267.6-138.473 220.023-59.273 180.179 23.769 111.62 166.566 111.484 354.599 92.131 515.49 80.804 609.705 71.411 706.487 50.02 798.5c-15.072 64.832-27.425 88.48-59.837 33.334-10.836-18.518-93.144-293.943-134.351-206.312m403.191-842.327C211.049-138.516 161.209-61.319 114.91 18.448 39.784 147.807 32.498 314.837 6.831 466.231c-8.368 49.312-33.897 334.878-113.393 257.567-50.501-49.09-81.473-196.333-153.341-93.997M207.084-214.7A1836475.965 1836475.965 0 0 0 50.479 13.607C-27.977 128.402-43.996 273.223-78.597 412.616c-19.094 76.809-42.475 238.173-134.908 191.298-22.999-11.671-41.149-36.486-66.898-41.934-46.13-9.566-70.383 33.384-95.201 72.546m530.721-847.119 1090.863-44.22c56.24 55.348 122.95 91.863 178.61 147.818 64.23 64.434 113.39 148.882 166.95 225.322 106.14 151.512 227.99 288.065 346.98 424.838-809.95 32.833-1620.107 61.759-2429.956 98.502 52.638-73.464 89.021-123.431 170.786-132.137 29.751-3.164 60.181-.482 86.827-19.352 35.777-25.49 53.746-89.204 69.615-131.677 43.759-117.338 66.665-236.234 140.124-332.9l179.201-236.194Z"/></g><defs><clipPath id="a"><path fill="#fff" d="M0 0h1514v516H0z"/></clipPath></defs></svg>