<svg width="158" height="18" viewBox="0 0 158 18" fill="none" xmlns="http://www.w3.org/2000/svg">
<path d="M123.509 12.9341C122.899 11.9215 122.084 11.0477 121.117 10.3686C120.955 10.2669 120.746 10.225 120.638 10.0038L121.284 9.85427C121.926 9.74475 122.537 9.50121 123.078 9.13952C123.619 8.77784 124.077 8.30613 124.424 7.75521C124.781 7.14002 125.001 6.45536 125.07 5.74757C125.139 5.03978 125.055 4.3254 124.824 3.6528C124.664 3.05322 124.368 2.49841 123.959 2.03091C123.551 1.56341 123.041 1.19562 122.468 0.955723C121.543 0.601919 120.558 0.431312 119.568 0.453388C116.817 0.411526 114.066 0.453383 111.315 0.411522C111.052 0.411522 110.992 0.489257 110.992 0.740426C110.992 6.23823 110.992 11.736 110.992 17.2338C110.992 17.5448 111.094 17.5926 111.369 17.5867C112.254 17.5867 113.163 17.5867 114.03 17.5867C114.359 17.5867 114.467 17.5328 114.467 17.168C114.467 15.1049 114.467 13.0357 114.467 10.9726C114.467 10.4164 114.467 10.4164 115.023 10.4164C115.687 10.3698 116.353 10.4448 116.99 10.6377C117.67 10.9453 118.236 11.4602 118.605 12.1088C119.801 13.8431 120.985 15.5853 122.157 17.3355C122.204 17.4191 122.274 17.4873 122.359 17.5319C122.444 17.5765 122.54 17.5955 122.636 17.5867C123.778 17.5867 124.926 17.5867 126.074 17.5867H126.397C126.403 17.5273 126.395 17.4676 126.374 17.4117C126.353 17.3558 126.32 17.3053 126.278 17.2637C125.345 15.8165 124.466 14.3693 123.509 12.9341ZM118.055 7.66551C116.96 7.66551 115.866 7.66551 114.772 7.66551C114.556 7.66551 114.437 7.66551 114.437 7.37846C114.437 6.10667 114.437 4.83487 114.437 3.56308C114.437 3.35378 114.509 3.29995 114.712 3.29995C115.453 3.29995 116.195 3.29995 117.104 3.29995C117.828 3.29995 118.713 3.29996 119.598 3.35976C120.111 3.4021 120.591 3.63042 120.947 4.00178C121.303 4.37314 121.512 4.86193 121.533 5.37623C121.555 5.89054 121.387 6.3949 121.063 6.79447C120.738 7.19404 120.279 7.46127 119.771 7.5459C119.202 7.62468 118.629 7.66465 118.055 7.66551Z" fill="white"/>
<path d="M28.3275 0.674655C27.0221 0.223904 25.6375 0.0487739 24.261 0.160348C21.3247 0.339754 19.106 1.64345 17.7246 4.26278C17.0056 5.75223 16.6588 7.39394 16.7139 9.04694C16.6987 9.99681 16.8011 10.9449 17.0189 11.8696C17.2438 12.9743 17.7208 14.012 18.4126 14.9021C19.1045 15.7921 19.9926 16.5103 21.0077 17.0006C23.0172 17.9446 25.2935 18.1561 27.4424 17.5986C28.5072 17.3737 29.5068 16.9095 30.3657 16.2413C31.2246 15.573 31.9202 14.7182 32.4 13.7414C33.1039 12.3025 33.4467 10.7138 33.3987 9.11271C33.3987 6.72063 32.9203 4.47208 31.2458 2.63616C30.4518 1.74928 29.4486 1.075 28.3275 0.674655ZM29.38 11.7739C29.0394 12.8976 28.2695 13.8418 27.2373 14.4015C26.2051 14.9613 24.9939 15.0915 23.8663 14.764C21.8988 14.2557 20.8762 12.8563 20.4575 10.9546C20.32 10.2941 20.2598 9.61974 20.2781 8.94527C20.2296 7.80284 20.4466 6.66472 20.912 5.62028C21.3409 4.78086 22.016 4.0926 22.8471 3.64775C23.6781 3.2029 24.6253 3.02272 25.5616 3.13138C26.4979 3.24004 27.3786 3.63234 28.0857 4.2557C28.7928 4.87905 29.2924 5.70366 29.5176 6.61898C29.955 8.31631 29.9074 10.1023 29.38 11.7739Z" fill="white"/>
<path d="M70.8912 0.608851C69.3145 0.0889336 67.6323 -0.0262251 65.9994 0.273961C64.7013 0.438213 63.4737 0.957167 62.4514 1.77376C61.429 2.59035 60.6517 3.67297 60.2046 4.90265C59.2477 7.34558 59.1695 10.0451 59.9833 12.5394C60.2519 13.4931 60.7196 14.379 61.3556 15.1387C61.9916 15.8984 62.7815 16.5147 63.6731 16.9468C65.7766 17.9739 68.1857 18.1869 70.4368 17.5448C71.5344 17.281 72.5536 16.7601 73.4104 16.025C74.2672 15.2899 74.9369 14.3616 75.3644 13.3168C75.9524 11.8826 76.2237 10.3385 76.1598 8.78978C76.1704 7.6984 76.0069 6.6123 75.6754 5.57243C75.3455 4.4165 74.7367 3.35931 73.9025 2.49382C73.0683 1.62832 72.0342 0.981031 70.8912 0.608851ZM71.9437 12.3181C71.4976 13.2987 70.7117 14.0847 69.7312 14.5309C68.7507 14.9772 67.6419 15.0536 66.6094 14.7461C65.8329 14.5605 65.1227 14.1641 64.5571 13.6006C63.9915 13.0372 63.5925 12.3285 63.404 11.5526C62.8787 9.79389 62.8995 7.91709 63.4638 6.17045C63.7496 5.37577 64.2458 4.67357 64.8994 4.13879C65.553 3.60401 66.3395 3.2567 67.175 3.13392C68.0105 3.01114 68.8637 3.1175 69.6436 3.44164C70.4234 3.76578 71.1005 4.29554 71.6029 4.97441C72.2375 5.993 72.5694 7.17108 72.5597 8.37116C72.5597 8.57449 72.5597 8.7838 72.5597 8.96918C72.6101 10.1177 72.3995 11.2627 71.9437 12.3181Z" fill="white"/>
<path d="M107.582 14.6864C104.645 14.6864 101.709 14.6864 98.7788 14.6864C98.4678 14.6864 98.3782 14.6147 98.3841 14.3037C98.3841 13.012 98.3841 11.7242 98.3841 10.4405C98.3841 10.0876 98.4679 9.99195 98.8327 9.99195C101.44 9.99195 104.047 9.99195 106.655 9.99195C106.942 9.99195 107.079 9.95607 107.067 9.62118C107.067 8.9215 107.031 8.21584 107.067 7.51616C107.067 7.15734 106.96 7.09155 106.631 7.09753C104.017 7.09753 101.41 7.09753 98.8028 7.09753C98.4858 7.09753 98.3782 7.03176 98.3841 6.69687C98.3841 5.69818 98.3841 4.6935 98.3841 3.70677C98.3841 3.34796 98.4798 3.28216 98.8147 3.28216C101.631 3.28216 104.454 3.28216 107.271 3.28216C107.588 3.28216 107.725 3.2403 107.707 2.86953C107.671 2.15788 107.677 1.44026 107.707 0.72862C107.707 0.42363 107.624 0.369804 107.336 0.369804C103.35 0.369804 99.345 0.369804 95.3223 0.369804C94.9934 0.369804 94.9156 0.459503 94.9216 0.776454C94.9216 3.50941 94.9216 6.23638 94.9216 8.96336C94.9216 11.6903 94.9216 14.4233 94.9216 17.1562C94.9216 17.4074 94.9216 17.5509 95.2625 17.545C99.4127 17.545 103.563 17.545 107.713 17.545C107.946 17.545 108.024 17.4911 108.018 17.2459C108.018 16.5164 108.018 15.7868 108.018 15.0572C108.036 14.7642 107.911 14.6864 107.582 14.6864Z" fill="white"/>
<path d="M137.683 7.58771C136.397 7.12126 135.058 6.88804 133.754 6.49334C133.036 6.36174 132.365 6.04653 131.805 5.57837C131.662 5.44419 131.552 5.27882 131.485 5.09524C131.417 4.91165 131.392 4.71485 131.413 4.52021C131.434 4.32558 131.499 4.13841 131.605 3.97338C131.71 3.80836 131.852 3.66995 132.02 3.56901C132.383 3.33323 132.79 3.17259 133.216 3.09657C133.969 2.94106 134.747 2.94106 135.5 3.09657C135.982 3.18994 136.424 3.42941 136.765 3.78247C137.107 4.13552 137.331 4.58507 137.408 5.07005C137.45 5.24946 137.408 5.48268 137.761 5.45876C138.748 5.387 139.734 5.35709 140.751 5.32121C140.918 5.32121 140.996 5.27936 140.984 5.07005C140.949 4.07808 140.612 3.12051 140.017 2.32541C139.423 1.53031 138.601 0.93559 137.659 0.620777C135.548 -0.0971448 133.256 -0.0845092 131.153 0.656657C130.079 1.03876 129.187 1.8096 128.653 2.81705C128.119 3.82451 127.983 4.99541 128.27 6.09865C128.494 6.8491 128.894 7.53506 129.437 8.09903C129.98 8.66299 130.65 9.0885 131.392 9.33991C132.929 9.93793 134.561 10.225 136.134 10.7094C136.74 10.8233 137.289 11.137 137.695 11.6004C137.973 12.0366 138.065 12.5652 137.953 13.0698C137.841 13.5745 137.533 14.0139 137.097 14.2915C136.147 14.882 135.009 15.0953 133.91 14.8895C133.481 14.8543 133.064 14.7297 132.686 14.5237C132.308 14.3177 131.977 14.0349 131.715 13.6935C131.332 13.1599 131.074 12.5466 130.961 11.8994C130.925 11.714 130.866 11.6363 130.656 11.6602C129.711 11.7679 128.767 11.8636 127.816 11.9473C127.594 11.9473 127.517 12.031 127.565 12.2523C127.612 12.4735 127.666 12.8503 127.744 13.1672C127.921 14.0424 128.304 14.863 128.86 15.5616C129.416 16.2602 130.13 16.8169 130.943 17.1859C132.125 17.6677 133.394 17.8978 134.669 17.8617C134.914 17.8617 135.267 17.8617 135.566 17.8198C136.91 17.7892 138.221 17.3989 139.364 16.6896C140.406 15.9316 141.133 14.8163 141.405 13.5567C141.677 12.297 141.477 10.9812 140.841 9.86018C140.105 8.73872 138.98 7.92924 137.683 7.58771Z" fill="white"/>
<path d="M11.4412 7.89858C10.4109 7.47069 9.3441 7.13646 8.25379 6.8999C7.1946 6.69363 6.16577 6.35404 5.19191 5.88924C4.96295 5.78654 4.76796 5.62077 4.62974 5.41132C4.49152 5.20188 4.41578 4.95739 4.41139 4.70649C4.407 4.45558 4.47413 4.20861 4.60494 3.99446C4.73574 3.7803 4.92483 3.60781 5.15007 3.49716C5.9599 3.07215 6.87841 2.89926 7.78734 3.00079C8.412 2.9626 9.02826 3.16012 9.51435 3.5543C10.0004 3.94849 10.321 4.51068 10.4126 5.12976C10.4724 5.38093 10.5681 5.48259 10.8313 5.45867C11.2858 5.42278 11.7403 5.41083 12.1947 5.38691V5.33309C12.6612 5.33309 13.1336 5.33309 13.6001 5.33309C13.929 5.33309 13.9888 5.2075 13.9529 4.92045C13.8898 3.93454 13.5282 2.99118 12.9161 2.21569C12.304 1.4402 11.4705 0.869292 10.5263 0.578817C9.03476 0.0986637 7.45129 -0.0242482 5.90356 0.220001C4.6394 0.333873 3.44489 0.849416 2.49485 1.69114C2.02868 2.13059 1.66261 2.66527 1.42156 3.25885C1.18052 3.85243 1.07013 4.49097 1.09793 5.13102C1.12574 5.77107 1.29108 6.39762 1.58269 6.96806C1.87431 7.5385 2.28535 8.03945 2.78788 8.43681C3.94206 9.36375 5.35338 9.70462 6.74677 10.0814C7.77494 10.2974 8.78622 10.5872 9.77275 10.9485C10.0733 11.0494 10.3418 11.2281 10.5508 11.4664C10.7598 11.7048 10.9019 11.9943 10.9627 12.3054C11.0235 12.6165 11.0007 12.9382 10.8967 13.2377C10.7928 13.5372 10.6113 13.8038 10.3708 14.0104C9.34218 15.015 8.05046 15.021 6.74677 14.8476C6.25262 14.7945 5.77951 14.619 5.3702 14.3371C4.9609 14.0552 4.62832 13.6757 4.40254 13.2329C4.17939 12.8235 4.02199 12.3816 3.93609 11.9233C3.93609 11.7797 3.89422 11.6242 3.64903 11.6541C2.68024 11.7678 1.71145 11.8694 0.736673 11.9472C0.491485 11.9472 0.491481 12.0668 0.527363 12.2402C0.599125 12.599 0.652944 12.9578 0.748627 13.3107C0.981722 14.3635 1.51459 15.3263 2.28288 16.0829C3.05117 16.8395 4.02203 17.3576 5.07829 17.5746C6.69639 17.9421 8.37426 17.9604 10 17.6284C11.0592 17.4614 12.0477 16.9921 12.8466 16.2769C13.4203 15.7511 13.8642 15.0994 14.1433 14.373C14.4225 13.6466 14.5293 12.8654 14.4553 12.0907C14.4191 11.1734 14.1141 10.287 13.5783 9.5417C13.0424 8.79636 12.2992 8.22497 11.4412 7.89858Z" fill="white"/>
<path d="M157.488 15.1109C157.488 14.7521 157.387 14.6863 157.052 14.6863C154.115 14.6863 151.185 14.6863 148.249 14.6863C147.95 14.6863 147.848 14.6325 147.854 14.3095C147.854 13.0118 147.854 11.7082 147.854 10.4105C147.854 10.0576 147.95 9.99184 148.285 9.99184C150.88 9.99184 153.476 9.99184 156.059 9.99184C156.418 9.99184 156.495 9.89018 156.484 9.56126C156.484 8.87354 156.484 8.17984 156.484 7.49212C156.484 7.16321 156.394 7.08547 156.071 7.09145C153.452 7.09145 150.826 7.09145 148.207 7.09145C147.908 7.09145 147.836 7.0137 147.842 6.72665C147.842 5.71002 147.842 4.69339 147.842 3.68273C147.842 3.32392 147.95 3.26411 148.279 3.26411C151.107 3.26411 153.942 3.26411 156.771 3.26411C157.064 3.26411 157.147 3.19236 157.135 2.89933C157.135 2.16974 157.135 1.44016 157.135 0.716555C157.135 0.417545 157.052 0.351753 156.765 0.351753C152.778 0.351753 148.773 0.351753 144.75 0.351753C144.421 0.351753 144.368 0.459399 144.368 0.746449C144.368 3.4794 144.368 6.20638 144.368 8.93934C144.368 11.6723 144.368 14.3694 144.368 17.0904C144.368 17.4552 144.475 17.5389 144.822 17.5269C145.863 17.5269 146.909 17.5269 147.95 17.5269C150.994 17.5269 154.032 17.5269 157.076 17.5269C157.405 17.5269 157.494 17.4372 157.482 17.1143C157.464 16.4863 157.458 15.7986 157.488 15.1109Z" fill="white"/>
<path d="M50.2292 12.2463L47.6039 11.409C47.1374 11.2595 47.1434 11.2595 47.0058 11.7379C46.893 12.2863 46.6714 12.8065 46.354 13.2677C46.0366 13.729 45.6299 14.1218 45.158 14.4231C44.6803 14.6895 44.1519 14.8522 43.6071 14.9004C43.0623 14.9487 42.5135 14.8815 41.9964 14.7031C41.4794 14.5247 41.0059 14.2393 40.6067 13.8654C40.2076 13.4915 39.8918 13.0376 39.6801 12.5333C39.2498 11.3874 39.0467 10.1687 39.0821 8.94518C39.0712 8.37329 39.1052 7.80143 39.1837 7.23485C39.2831 5.95515 39.8774 4.76456 40.8402 3.91583C41.4938 3.44127 42.2694 3.16327 43.0756 3.11454C43.8818 3.0658 44.6852 3.24837 45.3912 3.64074C46.1368 4.10567 46.681 4.83334 46.9161 5.68C46.964 5.85342 46.9939 5.98498 47.245 5.9192C48.2138 5.66803 49.1946 5.44079 50.1694 5.21953C50.3548 5.17168 50.4385 5.12383 50.3667 4.90854C50.1317 4.00821 49.6975 3.17217 49.0961 2.46211C48.4947 1.75206 47.7416 1.18614 46.8922 0.806132C45.6287 0.276541 44.2574 0.0551471 42.8914 0.16026C41.3867 0.215775 39.9344 0.72695 38.7266 1.62611C37.5188 2.52527 36.6126 3.77003 36.1278 5.1956C35.3826 7.3987 35.2891 9.7701 35.8587 12.025C36.0993 13.1419 36.5977 14.187 37.3142 15.0768C38.0306 15.9667 38.9453 16.6767 39.9851 17.15C41.5048 17.8326 43.195 18.041 44.835 17.748C46.0666 17.5936 47.2273 17.0869 48.1779 16.2889C49.2776 15.2862 50.0663 13.9889 50.4504 12.5512C50.5222 12.3718 50.4026 12.3001 50.2292 12.2463Z" fill="white"/>
<path d="M90.912 0.41157C90.4455 0.41157 89.8714 0.262068 89.5305 0.471376C89.1897 0.680683 89.1717 1.32055 89.0222 1.76907C88.1491 4.37644 87.28 6.9858 86.4148 9.59716C86.0381 10.7394 85.6613 11.8756 85.2607 13.0776C85.2222 12.9999 85.1882 12.9201 85.159 12.8384C84.3058 10.3626 83.4526 7.88484 82.5995 5.40504C82.0672 3.86215 81.541 2.31328 81.0087 0.770386C80.9609 0.626861 80.9788 0.41157 80.7336 0.41157H77.1455C77.1814 0.543134 77.1993 0.644791 77.2292 0.740474L80.4765 9.78256C81.3775 12.2823 82.2765 14.784 83.1736 17.2877C83.1911 17.3804 83.2439 17.4628 83.3208 17.5174C83.3978 17.5721 83.4929 17.5948 83.5862 17.5807C84.6208 17.5807 85.6494 17.5807 86.678 17.5807C86.7727 17.5951 86.8694 17.5727 86.9483 17.5183C87.0272 17.4639 87.0823 17.3814 87.1026 17.2877C87.8262 15.2425 88.5617 13.1972 89.2913 11.152L92.2814 2.91129C92.5804 2.092 92.8794 1.26674 93.1784 0.41157H90.912Z" fill="white"/>
<path d="M56.8884 0.782478C56.8884 0.531309 56.8884 0.411714 56.5655 0.417694C55.5967 0.417694 54.6339 0.417694 53.6651 0.417694C53.4319 0.417694 53.39 0.501411 53.39 0.710718C53.39 6.23643 53.39 11.7621 53.39 17.2878C53.39 17.533 53.4618 17.5869 53.701 17.5869C54.6399 17.5869 55.5788 17.5869 56.5177 17.5869C56.8406 17.5869 56.8944 17.4912 56.8944 17.1981C56.8944 14.4831 56.8944 11.7621 56.8944 9.04712C56.8944 6.33211 56.8884 3.53337 56.8884 0.782478Z" fill="white"/>
</svg>
