<svg width="84" height="72" viewBox="0 0 84 72" fill="none" xmlns="http://www.w3.org/2000/svg">
<path d="M28.408 1.89435L14.7539 45.1299H27.6157L34.8424 22.2541L28.408 1.89435Z" fill="#4D9F39"/>
<path d="M46.4553 15.9838L41.6803 0.870071H28.8185L40.0244 36.3436L46.4553 15.9838Z" fill="#4D9F39"/>
<path d="M50.8411 45.1299L53.2465 37.5141L46.8156 17.1579L37.9829 45.1299H50.8411Z" fill="#4D9F39"/>
<path d="M69.2461 45.1299L60.0887 16.1302H47.2268L56.3843 45.1299H69.2461Z" fill="#4D9F39"/>
<path d="M8.907 57.4489L7.654 67.1299H5.547L4.7 60.0739L3.804 67.1299H1.655L0.493 57.4489H2.32L2.894 65.3869L3.818 58.5689H5.624L6.499 65.3869L7.213 57.4489H8.907ZM14.5225 64.9109H11.3375L10.7355 67.1299H8.75453L11.7855 57.4489H14.1375L17.1615 67.1299H15.1245L14.5225 64.9109ZM11.6805 63.4759H14.1655L12.9265 58.8839L11.6805 63.4759ZM24.8071 64.3509C24.8071 64.9389 24.6554 65.4569 24.3521 65.9049C24.0534 66.3529 23.6217 66.7053 23.0571 66.9619C22.4924 67.2139 21.8087 67.3399 21.0061 67.3399C20.1661 67.3399 19.4451 67.2163 18.8431 66.9689C18.2411 66.7169 17.7371 66.3949 17.3311 66.0029L18.3391 64.8759C18.6891 65.1886 19.0811 65.4336 19.5151 65.6109C19.9491 65.7883 20.4367 65.8769 20.9781 65.8769C21.3234 65.8769 21.6337 65.8233 21.9091 65.7159C22.1891 65.6086 22.4084 65.4523 22.5671 65.2469C22.7304 65.0369 22.8121 64.7803 22.8121 64.4769C22.8121 64.2109 22.7561 63.9869 22.6441 63.8049C22.5321 63.6229 22.3384 63.4596 22.0631 63.3149C21.7924 63.1703 21.4144 63.0256 20.9291 62.8809C20.2151 62.6616 19.6271 62.4213 19.1651 62.1599C18.7031 61.8939 18.3601 61.5813 18.1361 61.2219C17.9121 60.8579 17.8001 60.4286 17.8001 59.9339C17.8001 59.3786 17.9541 58.9003 18.2621 58.4989C18.5701 58.0929 18.9854 57.7826 19.5081 57.5679C20.0354 57.3486 20.6234 57.2389 21.2721 57.2389C21.9907 57.2389 22.6231 57.3439 23.1691 57.5539C23.7151 57.7593 24.1957 58.0533 24.6111 58.4359L23.6521 59.5209C23.3207 59.2363 22.9614 59.0263 22.5741 58.8909C22.1914 58.7556 21.8017 58.6879 21.4051 58.6879C21.0924 58.6879 20.8124 58.7299 20.5651 58.8139C20.3224 58.8979 20.1311 59.0216 19.9911 59.1849C19.8511 59.3483 19.7811 59.5559 19.7811 59.8079C19.7811 60.0366 19.8441 60.2326 19.9701 60.3959C20.1007 60.5546 20.3224 60.7039 20.6351 60.8439C20.9477 60.9793 21.3771 61.1333 21.9231 61.3059C22.4971 61.4786 22.9987 61.6863 23.4281 61.9289C23.8621 62.1716 24.2004 62.4866 24.4431 62.8739C24.6857 63.2566 24.8071 63.7489 24.8071 64.3509ZM30.4016 58.9539V67.1299H28.4906V58.9539H25.6626V57.4489H33.3136L33.1176 58.9539H30.4016ZM36.8991 58.8629V61.5159H40.3291V62.9089H36.8991V65.7229H41.0641V67.1299H34.9811V57.4489H41.0151L40.8191 58.8629H36.8991ZM46.7847 57.2389C47.4567 57.2389 48.026 57.3276 48.4927 57.5049C48.9593 57.6776 49.391 57.9273 49.7877 58.2539L48.8147 59.4089C48.5393 59.1756 48.236 58.9983 47.9047 58.8769C47.578 58.7556 47.228 58.6949 46.8547 58.6949C46.4067 58.6949 45.9937 58.8139 45.6157 59.0519C45.2423 59.2899 44.9413 59.6726 44.7127 60.1999C44.4887 60.7226 44.3767 61.4133 44.3767 62.2719C44.3767 63.1166 44.484 63.8003 44.6987 64.3229C44.918 64.8456 45.2143 65.2283 45.5877 65.4709C45.9657 65.7089 46.3927 65.8279 46.8687 65.8279C47.3727 65.8279 47.7903 65.7393 48.1217 65.5619C48.453 65.3846 48.7517 65.1909 49.0177 64.9809L49.9207 66.1219C49.58 66.4579 49.153 66.7449 48.6397 66.9829C48.131 67.2209 47.5127 67.3399 46.7847 67.3399C45.94 67.3399 45.1863 67.1463 44.5237 66.7589C43.861 66.3716 43.3407 65.8023 42.9627 65.0509C42.5847 64.2996 42.3957 63.3733 42.3957 62.2719C42.3957 61.1893 42.5893 60.2746 42.9767 59.5279C43.3687 58.7766 43.896 58.2073 44.5587 57.8199C45.226 57.4326 45.968 57.2389 46.7847 57.2389ZM55.6272 67.1299V62.8739H52.8272V67.1299H50.9092V57.4489H52.8272V61.2989H55.6272V57.4489H57.5452V67.1299H55.6272ZM64.0497 64.9109H60.8647L60.2627 67.1299H58.2817L61.3127 57.4489H63.6647L66.6887 67.1299H64.6517L64.0497 64.9109ZM61.2077 63.4759H63.6927L62.4537 58.8839L61.2077 63.4759ZM73.7462 57.4489V58.8839H71.6952V65.6949H73.7462V67.1299H67.7262V65.6949H69.7772V58.8839H67.7262V57.4489H73.7462ZM79.9008 67.1299L77.0518 59.0869C77.0751 59.2643 77.1031 59.4929 77.1358 59.7729C77.1684 60.0529 77.1988 60.3703 77.2268 60.7249C77.2594 61.0796 77.2851 61.4553 77.3038 61.8519C77.3271 62.2486 77.3388 62.6499 77.3388 63.0559V67.1299H75.6728V57.4489H78.1088L80.9298 65.4779C80.8924 65.2399 80.8504 64.9249 80.8038 64.5329C80.7618 64.1409 80.7244 63.6906 80.6918 63.1819C80.6591 62.6733 80.6428 62.1319 80.6428 61.5579V57.4489H82.3088V67.1299H79.9008Z" fill="white"/>
</svg>
