<svg xmlns="http://www.w3.org/2000/svg" width="217" height="72" fill="none"><g style="mix-blend-mode:luminosity"><path fill="#875F27" d="M29.896 21h-3.497c-2.853 0-5.522 1.564-7.454 4.51C17.012 28.27 16 32.042 16 36c0 4.141 1.104 7.914 3.129 10.767C21.06 49.527 23.638 51 26.307 51h3.497c2.576-.184 4.969-1.748 6.718-4.51 1.932-2.852 2.944-6.533 2.944-10.49 0-3.773-1.012-7.546-2.852-10.307-1.657-2.76-4.142-4.325-6.718-4.693Z"/><path fill="#F8B828" d="M35.957 36.084c0-3.957-1.105-7.27-2.761-9.939-1.196-1.748-2.577-3.129-4.233-3.773v-.736H26.11c-5.337 0-9.755 6.442-9.755 14.356 0 4.14 1.197 7.822 3.037 10.49 1.749 2.393 4.141 3.958 6.718 3.958h2.853v-.645c4.14-1.932 6.994-7.27 6.994-13.711Z"/><path fill="#B28445" d="M29.15 50.533h-3.038c-2.576 0-4.97-1.473-6.81-4.141-1.932-2.761-3.036-6.442-3.036-10.491 0-8.006 4.509-14.54 9.938-14.54h3.037v.644c1.564.829 3.037 2.025 4.141 3.773 1.749 2.761 2.76 6.258 2.76 10.031 0 6.35-2.76 11.871-6.809 13.804l-.184.92Zm-2.946-28.804c-5.245 0-9.57 6.35-9.57 14.264 0 3.957 1.104 7.638 2.944 10.307 1.749 2.576 4.142 3.957 6.626 3.957h2.761v-.644h.092c1.933-.92 3.589-2.67 4.877-5.062 1.289-2.392 1.933-5.521 1.933-8.558 0-3.681-1.012-7.178-2.669-9.847-1.288-1.748-2.76-3.036-4.233-3.68h-.092v-.737h-2.669Z"/><path fill="#F6E245" d="M36.223 26.052c-1.748-2.761-4.233-4.51-6.994-4.51-5.429.093-9.846 6.534-9.846 14.356 0 4.141 1.196 7.822 3.037 10.491 1.748 2.393 4.14 3.957 6.717 3.957 5.338 0 9.755-6.441 9.755-14.356-.092-3.773-1.012-7.27-2.669-9.938ZM29.69 46.849h-.46c-1.933 0-3.681-1.196-5.062-2.944-1.38-1.841-2.3-4.51-2.3-7.455v-.46c0-5.89 3.312-10.859 7.27-10.859h.46c3.773.369 6.81 5.062 6.81 10.86v.46c-.093 5.613-3.038 10.03-6.718 10.398Z"/><path fill="#B28445" d="M29.143 50.533c-2.576 0-4.969-1.472-6.81-4.14-1.932-2.761-3.036-6.442-3.036-10.491 0-8.007 4.417-14.54 9.846-14.54 2.761 0 5.246 1.564 7.086 4.509 1.749 2.76 2.761 6.258 2.761 10.03-.092 8.099-4.51 14.632-9.847 14.632Zm0-28.803c-5.245 0-9.57 6.35-9.57 14.264 0 3.957 1.104 7.638 2.945 10.306 1.748 2.577 4.14 3.958 6.625 3.958 5.246 0 9.571-6.35 9.571-14.264 0-3.681-1.012-7.178-2.669-9.847-1.84-2.853-4.233-4.417-6.902-4.417Zm0 25.307c-1.932 0-3.773-1.105-5.153-3.037-1.472-1.933-2.3-4.693-2.3-7.546v-.46c0-6.074 3.312-11.043 7.545-11.043h.46c3.958.368 6.995 5.153 6.995 11.043v.46c-.184 5.613-3.13 10.215-6.994 10.49-.276.093-.369.093-.553.093Zm0-21.718c-3.957 0-7.177 4.785-7.177 10.767v.46c.092 2.853.92 5.521 2.3 7.27 1.38 1.84 3.129 2.944 4.878 2.944h.46c3.68-.368 6.533-4.785 6.717-10.214v-.46c0-5.614-2.944-10.307-6.717-10.767h-.46Z"/><path fill="#F8B218" d="M29.692 25.228h-.829.092c3.773.368 6.81 5.062 6.81 10.86v.46c-.184 5.613-3.129 10.03-6.81 10.306h-.092H29.691c3.682-.368 6.718-4.877 6.81-10.307v-.46c0-5.797-3.036-10.49-6.81-10.859Z"/><path fill="#B28445" d="M29.142 47.041h-.369v-.276h.093c3.68-.368 6.533-4.785 6.717-10.215v-.46c0-5.613-2.944-10.306-6.717-10.766h-.093v-.277h1.013c3.957.369 6.994 5.154 6.994 11.043v.46c-.184 5.614-3.13 10.215-6.994 10.491h-.645ZM30.614 25.6c3.037 1.472 5.153 5.613 5.153 10.49v.46c-.092 4.694-2.3 8.559-5.153 10.031 3.129-1.012 5.613-5.061 5.613-10.03v-.46c.092-5.062-2.3-9.48-5.613-10.491Z"/><path fill="#875F27" d="M33.302 21h-3.497c-2.853 0-5.521 1.564-7.454 4.51-1.932 2.76-2.945 6.533-2.945 10.49 0 4.141 1.105 7.914 3.13 10.767C24.467 49.527 27.043 51 29.712 51h3.497c2.577-.184 4.97-1.748 6.718-4.51 1.932-2.852 2.945-6.533 2.945-10.49 0-3.773-1.013-7.546-2.853-10.307-1.657-2.76-4.05-4.325-6.718-4.693Z"/><path fill="#F8B828" d="M39.375 36.084c0-3.957-1.105-7.27-2.761-9.939-1.196-1.748-2.577-3.129-4.233-3.773v-.736h-2.853c-5.337 0-9.755 6.442-9.755 14.356 0 4.14 1.197 7.822 3.037 10.49 1.749 2.393 4.141 3.958 6.718 3.958h2.853v-.645c4.14-1.932 6.994-7.27 6.994-13.711Z"/><path fill="#B28445" d="M32.747 50.533H29.71c-2.577 0-4.97-1.473-6.81-4.141-1.932-2.76-3.037-6.534-3.037-10.491 0-8.006 4.418-14.54 9.847-14.54h3.037v.644c1.564.829 3.036 2.025 4.14 3.773 1.75 2.761 2.761 6.258 2.761 10.031 0 3.129-.644 6.166-1.932 8.65-1.288 2.393-2.945 4.233-4.877 5.154l-.092.92ZM29.71 21.729c-5.245 0-9.57 6.35-9.57 14.264 0 3.957 1.104 7.638 2.944 10.307 1.749 2.576 4.141 3.957 6.626 3.957h2.76v-.644h.093c1.932-.92 3.589-2.67 4.877-5.062 1.288-2.392 1.933-5.521 1.933-8.558 0-3.681-1.013-7.178-2.67-9.847-1.288-1.748-2.76-3.036-4.232-3.68h-.092v-.737h-2.67Z"/><path fill="#F6E245" d="M39.573 26.052c-1.749-2.761-4.233-4.51-6.994-4.51-5.338 0-9.755 6.442-9.755 14.356 0 4.141 1.196 7.822 3.037 10.491 1.748 2.393 4.141 3.957 6.718 3.957 5.337 0 9.754-6.441 9.754-14.356.092-3.773-1.104-7.27-2.76-9.938ZM33.13 46.849h-.46c-1.933 0-3.681-1.196-5.061-2.944-1.38-1.841-2.301-4.51-2.301-7.455v-.46c0-5.89 3.313-10.859 7.27-10.859h.46c3.773.369 6.81 5.062 6.81 10.86v.46c0 5.613-3.037 10.03-6.718 10.398Z"/><path fill="#B28445" d="M32.581 50.533c-2.577 0-4.97-1.472-6.81-4.14-1.932-2.761-3.037-6.534-3.037-10.491 0-8.007 4.417-14.54 9.847-14.54 2.76 0 5.245 1.564 7.086 4.509 1.748 2.76 2.76 6.258 2.76 10.03 0 8.099-4.417 14.632-9.846 14.632Zm0-28.803c-5.245 0-9.57 6.35-9.57 14.264 0 3.957 1.104 7.638 2.944 10.306 1.749 2.577 4.141 3.958 6.626 3.958 5.245 0 9.57-6.35 9.57-14.264 0-3.681-1.012-7.178-2.668-9.847-1.84-2.853-4.233-4.417-6.902-4.417Zm0 25.307c-1.933 0-3.773-1.105-5.153-3.037-1.473-1.933-2.301-4.694-2.301-7.546v-.46c0-6.074 3.313-11.043 7.546-11.043h.46c3.957.368 6.994 5.153 6.994 11.043v.46c-.184 5.613-3.129 10.215-6.994 10.49-.092.093-.368.093-.552.093Zm0-21.718c-3.957 0-7.178 4.785-7.178 10.767v.46c.092 2.853.92 5.521 2.3 7.27 1.381 1.84 3.13 2.944 4.878 2.944h.46c3.681-.368 6.534-4.785 6.718-10.214v-.46c0-5.614-2.945-10.307-6.718-10.767h-.46Z"/><path fill="#F8B218" d="M33.121 25.228H32.293h.092c3.773.368 6.81 5.062 6.81 10.86v.46c-.184 5.613-3.129 10.03-6.81 10.306h-.092H33.121c3.681-.368 6.718-4.877 6.81-10.307v-.46c0-5.797-3.037-10.49-6.81-10.859Z"/><path fill="#B28445" d="M32.57 47.041H32.2v-.276h.092c3.59-.368 6.534-4.785 6.626-10.215v-.46c0-5.613-2.945-10.306-6.718-10.766h-.092v-.277h1.013c3.957.369 6.993 5.154 6.993 11.043v.46c-.184 5.614-3.128 10.215-6.993 10.491h-.553ZM34.041 25.6c3.037 1.472 5.153 5.613 5.153 10.49v.46c-.092 4.694-2.3 8.559-5.153 10.031 3.129-1.012 5.613-5.061 5.613-10.03v-.46c.184-5.062-2.3-9.48-5.613-10.491Z"/><path fill="#875F27" d="M36.517 21H33.02c-2.853 0-5.522 1.564-7.454 4.51-1.933 2.852-2.945 6.533-2.945 10.49 0 4.141 1.104 7.914 3.129 10.767C27.682 49.527 30.26 51 32.928 51h3.497c2.576-.184 4.97-1.748 6.718-4.51 1.932-2.852 2.944-6.533 2.944-10.49 0-3.773-1.012-7.546-2.852-10.307-1.565-2.76-4.05-4.325-6.718-4.693Z"/><path fill="#F8B828" d="M42.691 36.09c0-3.958-1.104-7.27-2.76-9.94-1.197-1.748-2.577-3.128-4.234-3.773v-.736h-2.853c-5.337 0-9.754 6.442-9.754 14.356 0 4.141 1.196 7.822 3.037 10.49 1.748 2.393 4.14 3.958 6.717 3.958h2.945V49.8c4.05-1.933 6.902-7.27 6.902-13.712Z"/><path fill="#B28445" d="M35.973 50.538h-3.036c-2.577 0-4.97-1.472-6.81-4.14-1.933-2.762-3.037-6.535-3.037-10.492 0-8.006 4.509-14.54 9.847-14.54h3.036v.645c1.565.828 3.037 2.024 4.141 3.773 1.749 2.76 2.761 6.257 2.761 10.03 0 6.35-2.76 11.871-6.81 13.804l-.092.92ZM33.03 21.735c-5.246 0-9.571 6.35-9.571 14.263 0 3.958 1.104 7.639 2.945 10.307 1.748 2.577 4.14 3.957 6.626 3.957h2.76v-.644h.092c1.933-.92 3.59-2.669 4.877-5.061 1.289-2.393 1.933-5.522 1.933-8.559 0-3.68-1.012-7.177-2.669-9.846-1.196-1.749-2.668-3.037-4.233-3.681h-.092v-.736h-2.669Z"/><path fill="#F6E245" d="M42.885 26.062c-1.748-2.76-4.233-4.51-6.994-4.51-5.337 0-9.754 6.443-9.754 14.357 0 4.14 1.196 7.822 3.037 10.49 1.748 2.393 4.14 3.957 6.717 3.957 5.338 0 9.755-6.441 9.755-14.355 0-3.773-1.012-7.27-2.76-9.939ZM36.351 46.86h-.46c-1.932 0-3.68-1.197-5.061-2.945-1.38-1.84-2.3-4.51-2.3-7.454V36c0-5.89 3.312-10.86 7.27-10.86h.46c3.772.369 6.81 5.062 6.81 10.86v.46c0 5.613-2.946 10.03-6.719 10.399Z"/><path fill="#B28445" d="M35.983 50.539c-2.576 0-4.969-1.473-6.81-4.141-1.932-2.761-3.036-6.534-3.036-10.491 0-7.914 4.325-14.448 9.846-14.448 2.761 0 5.246 1.564 7.086 4.51 1.749 2.76 2.761 6.257 2.761 10.03-.092 8.006-4.417 14.54-9.847 14.54Zm0-28.804c-5.245 0-9.57 6.35-9.57 14.264 0 3.957 1.104 7.638 2.945 10.306 1.748 2.577 4.14 3.958 6.625 3.958 5.246 0 9.57-6.35 9.57-14.264 0-3.681-1.011-7.178-2.668-9.847-1.932-2.853-4.417-4.417-6.902-4.417Zm0 25.307c-1.932 0-3.773-1.105-5.153-3.037-1.472-1.933-2.3-4.693-2.3-7.546v-.46c0-6.074 3.312-11.043 7.545-11.043h.46c3.958.368 6.994 5.153 6.994 11.043v.46c-.184 5.613-3.129 10.215-6.994 10.49-.276.093-.552.093-.552.093Zm0-21.718c-3.957 0-7.178 4.785-7.178 10.767v.46c.093 2.853.92 5.521 2.301 7.27 1.38 1.84 3.129 2.945 4.877 2.945h.46c3.681-.368 6.534-4.786 6.718-10.215v-.46c0-5.614-2.944-10.307-6.718-10.767h-.46Z"/><path fill="#F8B218" d="M36.352 25.221h-.829.092c3.773.368 6.81 5.061 6.81 10.859v.46c-.184 5.614-3.129 10.03-6.81 10.307h-.092H36.351c3.682-.368 6.718-4.878 6.81-10.307v-.46c.093-5.798-2.944-10.49-6.81-10.859Z"/><path fill="#B28445" d="M35.981 47.034h-.368v-.276h.092c3.681-.368 6.534-4.785 6.718-10.215v-.46c0-5.613-2.945-10.307-6.718-10.767h-.092v-.276h1.013c3.957.368 6.993 5.154 6.993 11.043v.46c-.276 5.614-3.22 10.123-7.086 10.491h-.552Zm1.38-21.442c3.038 1.473 5.154 5.614 5.154 10.491v.46c-.092 4.694-2.3 8.559-5.153 10.03 3.129-1.011 5.613-5.06 5.613-10.03v-.46c.092-5.061-2.3-9.478-5.613-10.49Z"/><path fill="#F6E245" d="M33.739 39.131v3.497h-1.012v-1.472l1.012-2.025ZM34.947 36.828l.46.828V42.625h-1.012V37.84l.552-1.012ZM36.981 37.191v5.43h-1.012v-3.313l.276-.184.644-1.472.092-.46ZM38.723 33.886v8.743h-1.012V35.91l1.012-2.025Z"/><path fill="#875F27" d="M35.977 37.56h-.276l-.736-1.473h.46l.552 1.472ZM32.737 41.145h-.46v1.564h.46v-1.565Z"/><path fill="#875F27" d="M32.737 41.155h-.46l1.013-2.024h.46l-1.013 2.024ZM34.484 37.833h-.46v4.785h.46v-4.785Z"/><path fill="#875F27" d="M34.392 37.84h-.369l.46-1.013h.46l-.551 1.012ZM36.884 37.654h-.552l.276-.46h.368l-.092.46ZM36.24 39.13h-.553l.645-1.473h.552l-.644 1.472ZM35.964 39.315h-.276v-.184h.552l-.276.184Z"/><path fill="#875F27" d="M36.148 39.31h-.46v3.498h.46V39.31ZM37.816 35.905h-.46v6.718h.46v-6.718Z"/><path fill="#875F27" d="M37.724 35.906h-.368l1.012-2.024h.368l-1.012 2.024ZM39.39 31.851h-.46l-.184-.736h.46l.184.736ZM38.451 29.65h-.46l-.276-.553h.46l.276.552ZM35.964 34.529h-.276l2.3-4.877h.46l-2.484 4.877ZM35.412 36.093h-.46l-.46-.92h.552l.368.92ZM34.32 33.693h-.46l.644-1.38h.552l-.736 1.38ZM31.931 38.854h-.552l2.485-5.154h.46l-2.393 5.154Z"/><path fill="#875F27" d="M32.575 40.14h-.46l-.736-1.288h.552l.644 1.288Z"/><path fill="#F6E245" d="M38.168 29.098h1.196v2.76l-.184-.736-2.392 4.97-.829 1.472-.552-1.472-.368-.92-2.485 4.969-.644-1.289 2.393-5.153.736-1.38.644 1.38.276.828 2.485-4.877-.276-.552Z"/><path fill="#fff" d="M50.762 36.942c0-1.725.385-3.265 1.155-4.62.787-1.373 1.85-2.436 3.189-3.19 1.356-.77 2.87-1.155 4.545-1.155 1.958 0 3.674.503 5.147 1.507 1.473 1.004 2.503 2.394 3.089 4.168h-4.043c-.402-.837-.97-1.465-1.708-1.883-.72-.418-1.556-.628-2.51-.628-1.022 0-1.934.243-2.737.728-.787.47-1.407 1.139-1.859 2.01-.435.87-.653 1.89-.653 3.063 0 1.155.218 2.176.653 3.063.452.87 1.072 1.548 1.858 2.034.804.469 1.716.703 2.738.703.954 0 1.79-.21 2.51-.628.737-.435 1.306-1.071 1.708-1.908h4.043c-.586 1.791-1.616 3.189-3.089 4.193-1.456.988-3.172 1.482-5.147 1.482-1.674 0-3.19-.377-4.545-1.13a8.573 8.573 0 0 1-3.19-3.19c-.77-1.355-1.154-2.895-1.154-4.62ZM77.066 45.956c-1.339 0-2.544-.293-3.615-.879a6.592 6.592 0 0 1-2.537-2.536c-.602-1.088-.904-2.343-.904-3.766s.31-2.679.93-3.767a6.542 6.542 0 0 1 2.586-2.51c1.088-.603 2.302-.905 3.64-.905 1.34 0 2.554.302 3.642.904a6.373 6.373 0 0 1 2.56 2.511c.637 1.088.955 2.344.955 3.767 0 1.422-.326 2.678-.98 3.766a6.672 6.672 0 0 1-2.61 2.536c-1.089.586-2.31.88-3.667.88Zm0-3.063c.636 0 1.23-.151 1.783-.452.57-.318 1.021-.787 1.356-1.407.335-.619.502-1.372.502-2.26 0-1.322-.351-2.335-1.054-3.038-.687-.72-1.532-1.08-2.537-1.08-1.004 0-1.85.36-2.536 1.08-.67.703-1.004 1.716-1.004 3.039 0 1.322.326 2.343.98 3.063.669.703 1.506 1.055 2.51 1.055ZM88.684 30.162c-.619 0-1.138-.193-1.556-.578a2.014 2.014 0 0 1-.603-1.481c0-.586.201-1.071.603-1.456.418-.402.937-.603 1.556-.603.62 0 1.13.2 1.532.603.419.385.628.87.628 1.456s-.21 1.08-.628 1.481c-.401.385-.912.578-1.531.578Zm1.733 1.657V45.73h-3.515V31.82h3.515ZM101.599 31.618c1.657 0 2.996.528 4.018 1.582 1.021 1.038 1.531 2.494 1.531 4.37v8.16h-3.515v-7.683c0-1.105-.276-1.95-.829-2.537-.552-.602-1.305-.904-2.26-.904-.97 0-1.74.302-2.31.904-.552.586-.828 1.432-.828 2.537v7.683H93.89V31.82h3.516v1.732a4.767 4.767 0 0 1 1.782-1.406 5.526 5.526 0 0 1 2.411-.528ZM116.292 42.49l3.515-10.67h3.741l-5.147 13.91h-4.269l-5.122-13.91h3.766l3.516 10.67ZM138.454 38.473c0 .502-.033.955-.1 1.356h-10.169c.083 1.005.435 1.791 1.054 2.36.62.57 1.381.854 2.285.854 1.306 0 2.235-.56 2.787-1.682h3.792c-.402 1.34-1.172 2.444-2.31 3.315-1.138.853-2.536 1.28-4.194 1.28-1.339 0-2.544-.293-3.615-.879a6.462 6.462 0 0 1-2.486-2.536c-.586-1.088-.879-2.343-.879-3.766 0-1.44.293-2.704.879-3.792a6.131 6.131 0 0 1 2.461-2.51c1.054-.587 2.268-.88 3.64-.88 1.323 0 2.503.285 3.541.854a5.893 5.893 0 0 1 2.436 2.436c.586 1.037.878 2.234.878 3.59Zm-3.64-1.004c-.017-.904-.344-1.624-.98-2.16-.636-.552-1.414-.828-2.335-.828-.87 0-1.607.268-2.21.803-.586.52-.945 1.248-1.079 2.185h6.604ZM146.344 45.956c-1.139 0-2.16-.2-3.064-.603-.904-.418-1.623-.979-2.159-1.682a4.28 4.28 0 0 1-.854-2.335h3.541c.067.535.326.98.778 1.33.469.352 1.046.528 1.733.528.669 0 1.188-.134 1.556-.402.385-.268.578-.61.578-1.03 0-.451-.234-.786-.703-1.004-.452-.234-1.18-.485-2.185-.753-1.038-.251-1.891-.51-2.561-.778a4.545 4.545 0 0 1-1.707-1.23c-.469-.553-.703-1.298-.703-2.236 0-.77.217-1.473.652-2.109.452-.636 1.089-1.138 1.909-1.506.837-.369 1.816-.553 2.938-.553 1.657 0 2.979.419 3.967 1.256.988.82 1.532 1.933 1.632 3.34h-3.365c-.05-.553-.284-.988-.703-1.306-.401-.335-.945-.503-1.632-.503-.636 0-1.13.118-1.481.352-.335.234-.503.56-.503.98 0 .468.235.828.704 1.079.468.234 1.196.477 2.184.728 1.005.251 1.833.51 2.486.779a4.235 4.235 0 0 1 1.682 1.255c.486.553.737 1.289.754 2.21 0 .803-.226 1.523-.678 2.16-.436.635-1.072 1.137-1.909 1.506-.82.351-1.782.527-2.887.527ZM158.796 34.707v6.73c0 .468.109.811.327 1.029.234.2.619.301 1.155.301h1.632v2.963h-2.21c-2.963 0-4.444-1.44-4.444-4.319v-6.704h-1.657v-2.888h1.657v-3.44h3.54v3.44h3.114v2.888h-3.114ZM163.534 38.724c0-1.406.277-2.653.829-3.74.569-1.089 1.331-1.926 2.285-2.512.971-.586 2.051-.879 3.239-.879 1.038 0 1.942.21 2.712.628.787.419 1.415.946 1.883 1.582v-1.984h3.541V45.73h-3.541v-2.034c-.452.653-1.079 1.197-1.883 1.632-.787.419-1.699.628-2.737.628a5.974 5.974 0 0 1-3.214-.904c-.954-.602-1.716-1.448-2.285-2.536-.552-1.105-.829-2.369-.829-3.792Zm10.948.05c0-.853-.167-1.581-.502-2.184-.335-.62-.787-1.088-1.356-1.406a3.554 3.554 0 0 0-1.833-.502c-.653 0-1.255.159-1.808.477-.552.318-1.004.787-1.356 1.406-.335.603-.502 1.322-.502 2.16 0 .836.167 1.573.502 2.21.352.618.804 1.096 1.356 1.43a3.51 3.51 0 0 0 1.808.503c.653 0 1.264-.16 1.833-.477a3.655 3.655 0 0 0 1.356-1.407c.335-.62.502-1.356.502-2.21ZM186.779 45.956c-1.138 0-2.159-.2-3.063-.603-.904-.418-1.624-.979-2.159-1.682a4.28 4.28 0 0 1-.854-2.335h3.54c.067.535.327.98.779 1.33.468.352 1.046.528 1.732.528.67 0 1.189-.134 1.557-.402.385-.268.578-.61.578-1.03 0-.451-.235-.786-.703-1.004-.452-.234-1.181-.485-2.185-.753-1.038-.251-1.892-.51-2.561-.778a4.556 4.556 0 0 1-1.708-1.23c-.468-.553-.703-1.298-.703-2.236 0-.77.218-1.473.653-2.109.452-.636 1.088-1.138 1.909-1.506.837-.369 1.816-.553 2.937-.553 1.658 0 2.98.419 3.968 1.256.987.82 1.531 1.933 1.632 3.34h-3.365c-.05-.553-.284-.988-.703-1.306-.402-.335-.946-.503-1.632-.503-.636 0-1.13.118-1.482.352a1.13 1.13 0 0 0-.502.98c0 .468.235.828.703 1.079.469.234 1.197.477 2.185.728 1.004.251 1.833.51 2.486.779a4.242 4.242 0 0 1 1.682 1.255c.486.553.737 1.289.753 2.21 0 .803-.226 1.523-.678 2.16-.435.635-1.071 1.137-1.908 1.506-.82.351-1.783.527-2.888.527ZM196.922 30.162c-.619 0-1.138-.193-1.557-.578a2.013 2.013 0 0 1-.603-1.481c0-.586.201-1.071.603-1.456.419-.402.938-.603 1.557-.603s1.13.2 1.532.603c.418.385.627.87.627 1.456s-.209 1.08-.627 1.481c-.402.385-.913.578-1.532.578Zm1.732 1.657V45.73h-3.515V31.82h3.515Z"/></g></svg>