<svg width="240" height="224" viewBox="0 0 240 224" fill="none" xmlns="http://www.w3.org/2000/svg">
<path d="M73.2948 61.7424C73.4828 61.6624 73.5195 61.3256 73.3768 60.9902C73.2341 60.6548 72.966 60.4477 72.778 60.5277C72.5899 60.6077 72.5532 60.9445 72.6959 61.2799C72.8386 61.6153 73.1068 61.8224 73.2948 61.7424Z" fill="#F1F2F2" stroke="black" stroke-width="0.56" stroke-miterlimit="10"/>
<path d="M91.8143 72.0296C92.0023 71.9496 92.0391 71.6128 91.8964 71.2774C91.7536 70.942 91.4855 70.735 91.2975 70.815C91.1095 70.895 91.0727 71.2317 91.2154 71.5672C91.3582 71.9026 91.6263 72.1096 91.8143 72.0296Z" fill="#F1F2F2" stroke="black" stroke-width="0.56" stroke-miterlimit="10"/>
<path d="M91.8143 47.6276C92.0023 47.5476 92.0391 47.2108 91.8964 46.8754C91.7536 46.54 91.4855 46.333 91.2975 46.413C91.1095 46.493 91.0727 46.8298 91.2154 47.1652C91.3582 47.5006 91.6263 47.7076 91.8143 47.6276Z" fill="#F1F2F2" stroke="black" stroke-width="0.56" stroke-miterlimit="10"/>
<g opacity="0.3">
<path d="M204.272 160.13V61.55L119.722 13L35.1719 60.63V161.56C35.7319 163.03 37.2419 164.39 38.7919 165.28L115.922 209.95C118.162 211.25 120.932 211.25 123.172 209.95L200.652 166.4C203.052 165.02 204.252 162.6 204.272 160.18V160.13Z" fill="black"/>
</g>
<path d="M119.538 205.84C118.118 205.84 116.718 205.46 115.488 204.75L38.3581 160.08C35.8281 158.62 34.3281 156 34.3281 153.08C34.3281 150.16 35.8381 147.55 38.3681 146.09L115.858 102.54C117.078 101.84 118.468 101.46 119.888 101.46C121.308 101.46 122.708 101.84 123.938 102.55L201.068 147.22C203.598 148.68 205.098 151.3 205.098 154.22C205.098 157.14 203.588 159.75 201.058 161.21L123.568 204.76C122.348 205.46 120.958 205.84 119.538 205.84Z" fill="url(#paint0_linear_1596_6561)"/>
<path d="M119.89 102.29C121.14 102.29 122.4 102.61 123.52 103.26L200.65 147.93C205.48 150.72 205.47 157.69 200.65 160.48L123.17 204.03C122.05 204.68 120.8 205 119.55 205C118.3 205 117.04 204.68 115.92 204.03L38.79 159.36C33.96 156.57 33.97 149.6 38.79 146.81L116.27 103.26C117.39 102.61 118.64 102.29 119.89 102.29ZM119.89 100.62C118.33 100.62 116.79 101.03 115.43 101.81L37.97 145.35C35.16 146.97 33.5 149.85 33.5 153.08C33.5 156.3 35.16 159.19 37.95 160.8L115.08 205.47C116.44 206.25 117.98 206.67 119.55 206.67C121.12 206.67 122.65 206.26 124.01 205.48L201.47 161.94C204.28 160.32 205.94 157.44 205.94 154.22C205.94 151 204.28 148.11 201.49 146.5L124.36 101.83C123 101.05 121.46 100.63 119.89 100.63V100.62Z" fill="#F1F2F2"/>
<path d="M119.711 13V102.32" stroke="#F1F2F2" stroke-width="0.56" stroke-miterlimit="10"/>
<path d="M45.9102 118.79L110.16 81.5801" stroke="#F1F2F2" stroke-width="0.56" stroke-miterlimit="10"/>
<path d="M45.9102 89.62L110.16 52.41" stroke="#F1F2F2" stroke-width="0.56" stroke-miterlimit="10"/>
<path d="M194.891 120.42L130.641 83.21" stroke="#F1F2F2" stroke-width="0.56" stroke-miterlimit="10"/>
<path d="M194.891 91.25L130.641 54.04" stroke="#F1F2F2" stroke-width="0.56" stroke-miterlimit="10"/>
<path d="M157.842 110.32C158.03 110.24 158.066 109.904 157.924 109.568C157.781 109.233 157.513 109.026 157.325 109.106C157.137 109.186 157.1 109.523 157.243 109.858C157.386 110.193 157.654 110.4 157.842 110.32Z" fill="#F1F2F2" stroke="black" stroke-width="0.56" stroke-miterlimit="10"/>
<path d="M157.853 85.9276C158.041 85.8476 158.078 85.5109 157.935 85.1755C157.793 84.8401 157.525 84.633 157.337 84.713C157.149 84.793 157.112 85.1298 157.255 85.4652C157.397 85.8006 157.665 86.0076 157.853 85.9276Z" fill="#F1F2F2" stroke="black" stroke-width="0.56" stroke-miterlimit="10"/>
<path d="M140.201 100.611C140.389 100.531 140.426 100.195 140.283 99.8593C140.14 99.5239 139.872 99.3169 139.684 99.3969C139.496 99.4769 139.459 99.8136 139.602 100.149C139.745 100.484 140.013 100.691 140.201 100.611Z" fill="#F1F2F2" stroke="black" stroke-width="0.56" stroke-miterlimit="10"/>
<path d="M140.213 76.2287C140.401 76.1487 140.438 75.8119 140.295 75.4765C140.152 75.1411 139.884 74.9341 139.696 75.0141C139.508 75.0941 139.471 75.4308 139.614 75.7662C139.757 76.1017 140.025 76.3087 140.213 76.2287Z" fill="#F1F2F2" stroke="black" stroke-width="0.56" stroke-miterlimit="10"/>
<path d="M176.361 120.608C176.549 120.528 176.586 120.191 176.443 119.856C176.301 119.52 176.032 119.313 175.844 119.393C175.656 119.473 175.62 119.81 175.762 120.145C175.905 120.481 176.173 120.688 176.361 120.608Z" fill="#F1F2F2" stroke="black" stroke-width="0.56" stroke-miterlimit="10"/>
<path d="M176.369 96.2057C176.557 96.1257 176.594 95.789 176.451 95.4536C176.308 95.1182 176.04 94.9111 175.852 94.9911C175.664 95.0711 175.627 95.4079 175.77 95.7433C175.913 96.0787 176.181 96.2857 176.369 96.2057Z" fill="#F1F2F2" stroke="black" stroke-width="0.56" stroke-miterlimit="10"/>
<path d="M124.239 115.12L120.419 132.64L82.5792 154.32L64.1092 143.48L60.1992 128.96L124.239 115.12Z" fill="url(#paint1_linear_1596_6561)"/>
<path d="M58.8693 123.69L58.8993 124.1L61.8593 123.45L102.709 99.65C103.529 99.17 104.529 99.17 105.349 99.65L123.259 109.99L125.499 109.5L125.559 109.9C125.619 110.22 125.559 113 125.499 113.32V113.39C125.349 114.08 124.939 114.72 124.249 115.12L84.5493 137.87C81.6793 139.51 78.1593 139.49 75.3093 137.82L60.2093 128.96C59.7093 128.67 59.3693 128.24 59.1593 127.77H59.1493V127.73C58.9093 127.16 58.7193 124.28 58.8893 123.69H58.8693Z" fill="#B3B3B3"/>
<path d="M124.25 107.76L105.349 96.8501C104.529 96.3801 103.52 96.3801 102.71 96.8501L60.1995 121.62C58.4595 122.63 58.4595 125.15 60.1995 126.16L75.2995 135.02C78.1495 136.69 81.6795 136.71 84.5395 135.07L124.24 112.32C126 111.31 126.01 108.77 124.24 107.76H124.25Z" fill="url(#paint2_linear_1596_6561)"/>
<path d="M102.128 122.23L83.6484 111.39" stroke="white" stroke-width="0.56" stroke-miterlimit="10"/>
<path d="M104.588 110.42C105.322 110.42 105.918 110.21 105.918 109.95C105.918 109.691 105.322 109.48 104.588 109.48C103.853 109.48 103.258 109.691 103.258 109.95C103.258 110.21 103.853 110.42 104.588 110.42Z" fill="url(#paint3_linear_1596_6561)" stroke="black" stroke-width="0.56" stroke-miterlimit="10"/>
<path d="M112.141 109.09C112.141 109.09 109.161 108.59 106.641 109.49L112.141 109.09Z" fill="url(#paint4_linear_1596_6561)"/>
<path d="M112.141 109.09C112.141 109.09 109.161 108.59 106.641 109.49" stroke="white" stroke-width="0.56" stroke-miterlimit="10"/>
<path d="M102.559 110.02C102.559 110.02 99.5786 109.52 97.0586 110.42L102.559 110.02Z" fill="url(#paint5_linear_1596_6561)"/>
<path d="M102.559 110.02C102.559 110.02 99.5786 109.52 97.0586 110.42" stroke="black" stroke-width="0.56" stroke-miterlimit="10"/>
<path d="M102.898 115.37C102.898 115.37 103.018 112.97 104.148 111.16L102.898 115.37Z" fill="url(#paint6_linear_1596_6561)"/>
<path d="M102.898 115.37C102.898 115.37 103.018 112.97 104.148 111.16" stroke="black" stroke-width="0.56" stroke-miterlimit="10"/>
<path d="M104.969 108.72C104.969 108.72 105.089 106.32 106.219 104.51L104.969 108.72Z" fill="url(#paint7_linear_1596_6561)"/>
<path d="M104.969 108.72C104.969 108.72 105.089 106.32 106.219 104.51" stroke="white" stroke-width="0.56" stroke-miterlimit="10"/>
<path d="M80.9706 122.71C81.7051 122.71 82.3006 122.5 82.3006 122.24C82.3006 121.98 81.7051 121.77 80.9706 121.77C80.236 121.77 79.6406 121.98 79.6406 122.24C79.6406 122.5 80.236 122.71 80.9706 122.71Z" fill="url(#paint8_linear_1596_6561)" stroke="white" stroke-width="0.56" stroke-miterlimit="10"/>
<path d="M88.5273 121.38C88.5273 121.38 85.5473 120.88 83.0273 121.78L88.5273 121.38Z" fill="url(#paint9_linear_1596_6561)"/>
<path d="M88.5273 121.38C88.5273 121.38 85.5473 120.88 83.0273 121.78" stroke="white" stroke-width="0.56" stroke-miterlimit="10"/>
<path d="M78.9375 122.31C78.9375 122.31 75.9575 121.81 73.4375 122.71L78.9375 122.31Z" fill="url(#paint10_linear_1596_6561)"/>
<path d="M78.9375 122.31C78.9375 122.31 75.9575 121.81 73.4375 122.71" stroke="white" stroke-width="0.56" stroke-miterlimit="10"/>
<path d="M79.2891 127.66C79.2891 127.66 79.4091 125.26 80.5391 123.45L79.2891 127.66Z" fill="url(#paint11_linear_1596_6561)"/>
<path d="M79.2891 127.66C79.2891 127.66 79.4091 125.26 80.5391 123.45" stroke="white" stroke-width="0.56" stroke-miterlimit="10"/>
<path d="M81.3477 121.01C81.3477 121.01 81.4677 118.61 82.5977 116.8L81.3477 121.01Z" fill="url(#paint12_linear_1596_6561)"/>
<path d="M81.3477 121.01C81.3477 121.01 81.4677 118.61 82.5977 116.8" stroke="white" stroke-width="0.56" stroke-miterlimit="10"/>
<path d="M101.719 36.14L105.309 38.51L90.3594 68.73V72.92L101.719 66.36L105.309 68.73L60.4594 116.21L56.8594 113.84L75.3994 86.32L71.8094 83.95V75L60.4594 81.68L56.8594 79.31L101.719 36.14Z" fill="#231F20" stroke="white" stroke-width="0.56" stroke-miterlimit="10"/>
<path d="M86.7686 75V66.36L71.8086 75V83.95L86.7686 75Z" fill="#231F20" stroke="white" stroke-width="0.56" stroke-miterlimit="10"/>
<path d="M86.7694 62.04V66.36L101.719 57.72V36.14L56.8594 62.04V79.31L86.7694 62.04Z" fill="#231F20" stroke="white" stroke-width="0.56" stroke-miterlimit="10"/>
<path d="M101.719 66.36L86.7694 75V79.31L56.8594 96.57V113.84L101.719 87.95V66.36Z" fill="#231F20" stroke="white" stroke-width="0.56" stroke-miterlimit="10"/>
<path d="M90.3623 77.37V68.73L75.4023 77.37V86.32L90.3623 77.37Z" fill="#12E582" stroke="black" stroke-width="0.56" stroke-miterlimit="10"/>
<path d="M90.3609 64.42V68.73L105.311 60.09V38.51L60.4609 64.42V81.68L90.3609 64.42Z" fill="#12E582" stroke="black" stroke-width="0.56" stroke-miterlimit="10"/>
<path d="M105.311 68.73L90.3609 77.37V81.68L60.4609 98.95V116.21L105.311 90.32V68.73Z" fill="#12E582" stroke="black" stroke-width="0.56" stroke-miterlimit="10"/>
<path d="M140.213 46.2331C140.401 46.1531 140.438 45.8163 140.295 45.4809C140.152 45.1455 139.884 44.9385 139.696 45.0185C139.508 45.0985 139.471 45.4352 139.614 45.7706C139.757 46.106 140.025 46.3131 140.213 46.2331Z" fill="#F1F2F2" stroke="black" stroke-width="0.56" stroke-miterlimit="10"/>
<path d="M154.779 53.7V45.1799L156.049 45.92L157.56 52.83C157.7 53.47 157.8 53.9499 157.87 54.2699C157.94 53.9999 158.06 53.6099 158.21 53.0999L159.74 48.05L160.88 48.7099V57.2299L160.06 56.7599V49.6299L158.2 55.6899L157.44 55.2499L155.59 46.9299V54.1899L154.77 53.7199L154.779 53.7Z" fill="white"/>
<path d="M165.311 57.79L166.121 58.39C165.991 58.95 165.761 59.3 165.411 59.45C165.061 59.6 164.621 59.5199 164.081 59.2099C163.401 58.8199 162.871 58.23 162.471 57.45C162.071 56.67 161.871 55.7699 161.871 54.7699C161.871 53.7299 162.071 53.04 162.471 52.7C162.871 52.36 163.391 52.3699 164.031 52.7399C164.671 53.1099 165.151 53.6699 165.551 54.4599C165.941 55.2499 166.141 56.15 166.141 57.17C166.141 57.23 166.141 57.32 166.141 57.45L162.691 55.4599C162.721 56.1599 162.861 56.7599 163.121 57.2699C163.381 57.7799 163.701 58.1499 164.091 58.3699C164.381 58.5399 164.621 58.5799 164.831 58.4899C165.031 58.4099 165.191 58.18 165.311 57.8V57.79ZM162.731 54.61L165.321 56.1C165.291 55.56 165.191 55.11 165.021 54.76C164.771 54.21 164.451 53.8199 164.051 53.5899C163.691 53.3799 163.391 53.37 163.141 53.55C162.891 53.73 162.761 54.08 162.731 54.61Z" fill="white"/>
<path d="M167.109 60.8199V54.6499L167.819 55.0599V55.9399C168.159 55.4599 168.649 55.3999 169.289 55.7699C169.569 55.9299 169.829 56.1499 170.059 56.4099C170.289 56.6799 170.469 56.9599 170.589 57.2399C170.709 57.5199 170.789 57.8299 170.829 58.1499C170.859 58.3599 170.869 58.7099 170.869 59.1899V62.9899L170.079 62.5399V58.7799C170.079 58.3499 170.049 58.0199 169.989 57.7699C169.929 57.5199 169.819 57.2899 169.669 57.0799C169.509 56.8599 169.329 56.6999 169.119 56.5799C168.789 56.3899 168.499 56.3599 168.249 56.4999C168.009 56.6399 167.889 57.1099 167.889 57.8999V61.2699L167.109 60.8199Z" fill="white"/>
<path d="M173.791 63.7399L173.901 64.7299C173.681 64.6599 173.481 64.5799 173.311 64.4799C173.021 64.3199 172.801 64.1299 172.651 63.9199C172.491 63.7099 172.381 63.4899 172.321 63.2499C172.261 63.0199 172.221 62.5899 172.221 61.9599V58.4099L171.641 58.0799V57.2699L172.221 57.5999V56.0699L173.001 55.8899V58.0499L173.791 58.5099V59.3199L173.001 58.8599V62.4699C173.001 62.7699 173.011 62.9699 173.041 63.0699C173.071 63.1699 173.111 63.2699 173.181 63.3499C173.241 63.4399 173.331 63.5099 173.451 63.5799C173.541 63.6299 173.651 63.6799 173.791 63.7399Z" fill="white"/>
<path d="M174.258 61.86C174.258 60.72 174.498 60.01 174.968 59.73C175.368 59.5 175.848 59.5499 176.428 59.8799C177.068 60.2499 177.588 60.8299 177.988 61.6199C178.388 62.4099 178.598 63.2899 178.598 64.2699C178.598 65.0599 178.508 65.6399 178.328 65.9899C178.148 66.3399 177.888 66.55 177.548 66.6C177.208 66.65 176.838 66.57 176.428 66.33C175.778 65.96 175.258 65.3799 174.858 64.5899C174.458 63.8099 174.258 62.89 174.258 61.85V61.86ZM175.068 62.33C175.068 63.12 175.198 63.79 175.458 64.33C175.718 64.87 176.038 65.26 176.438 65.48C176.838 65.7 177.148 65.69 177.408 65.45C177.668 65.2 177.798 64.6799 177.798 63.8699C177.798 63.1099 177.668 62.4499 177.408 61.9099C177.148 61.3699 176.828 60.98 176.438 60.76C176.048 60.54 175.718 60.5399 175.458 60.7799C175.198 61.0199 175.068 61.54 175.068 62.33Z" fill="white"/>
<path d="M179.508 67.9799V61.8099L180.218 62.2199V63.1599C180.398 62.8299 180.568 62.63 180.718 62.58C180.868 62.53 181.038 62.5599 181.218 62.6599C181.478 62.8099 181.748 63.0799 182.028 63.4599L181.758 64.2699C181.568 64.0099 181.378 63.8199 181.178 63.7099C181.008 63.6099 180.848 63.5899 180.718 63.6499C180.578 63.7099 180.488 63.84 180.428 64.05C180.338 64.37 180.298 64.75 180.298 65.2V68.4299L179.518 67.9799H179.508Z" fill="white"/>
<path d="M182.5 62.3799V61.1799L183.29 61.6299V62.83L182.5 62.3799ZM182.5 69.7V63.5299L183.29 63.9799V70.1499L182.5 69.7Z" fill="white"/>
<path d="M184.48 70.8499V64.6799L185.19 65.0899V65.9699C185.53 65.4899 186.02 65.43 186.66 65.8C186.94 65.96 187.2 66.1799 187.43 66.4399C187.66 66.7099 187.841 66.9899 187.961 67.2699C188.081 67.5499 188.161 67.8599 188.201 68.1799C188.231 68.3899 188.24 68.7399 188.24 69.2199V73.0199L187.451 72.5699V68.8099C187.451 68.3799 187.42 68.05 187.36 67.8C187.3 67.55 187.19 67.32 187.04 67.11C186.88 66.89 186.7 66.73 186.49 66.61C186.16 66.42 185.87 66.3899 185.62 66.5299C185.38 66.6699 185.26 67.1399 185.26 67.9299V71.3L184.48 70.8499Z" fill="white"/>
<path d="M189.298 74.14L190.058 74.73C190.088 75.06 190.178 75.34 190.328 75.57C190.518 75.88 190.788 76.13 191.128 76.32C191.488 76.53 191.768 76.59 191.968 76.52C192.168 76.45 192.298 76.25 192.368 75.94C192.408 75.75 192.428 75.31 192.428 74.63C192.088 74.97 191.658 74.99 191.148 74.7C190.508 74.33 190.018 73.74 189.668 72.93C189.318 72.12 189.148 71.28 189.148 70.42C189.148 69.83 189.228 69.33 189.388 68.93C189.548 68.52 189.778 68.27 190.088 68.18C190.388 68.08 190.748 68.15 191.158 68.39C191.708 68.71 192.158 69.26 192.508 70.05V69.31L193.228 69.73V75.07C193.228 76.03 193.158 76.67 193.008 76.99C192.858 77.31 192.628 77.49 192.308 77.54C191.988 77.59 191.598 77.48 191.128 77.21C190.578 76.89 190.128 76.47 189.788 75.94C189.448 75.41 189.288 74.82 189.298 74.16V74.14ZM189.948 70.81C189.948 71.62 190.068 72.28 190.308 72.79C190.548 73.3 190.848 73.66 191.218 73.87C191.588 74.08 191.878 74.07 192.128 73.84C192.368 73.61 192.498 73.1 192.498 72.31C192.498 71.55 192.368 70.91 192.118 70.38C191.868 69.85 191.568 69.48 191.208 69.28C190.848 69.08 190.558 69.1 190.318 69.33C190.078 69.57 189.948 70.06 189.948 70.8V70.81Z" fill="white"/>
<path d="M171.141 74.01V65.49L173.541 66.87C174.031 67.15 174.421 67.46 174.721 67.81C175.011 68.15 175.251 68.55 175.411 69.01C175.581 69.47 175.661 69.89 175.661 70.28C175.661 70.67 175.591 70.94 175.441 71.18C175.291 71.42 175.071 71.55 174.771 71.57C175.161 71.94 175.451 72.37 175.661 72.86C175.871 73.35 175.971 73.83 175.971 74.33C175.971 74.73 175.911 75.06 175.781 75.33C175.651 75.6 175.501 75.77 175.311 75.85C175.121 75.93 174.891 75.93 174.611 75.87C174.331 75.8 173.991 75.65 173.581 75.42L171.141 74.01ZM171.991 69.56L173.371 70.36C173.741 70.58 174.011 70.7 174.181 70.73C174.401 70.77 174.561 70.73 174.671 70.59C174.781 70.46 174.831 70.24 174.831 69.94C174.831 69.66 174.781 69.38 174.681 69.1C174.581 68.82 174.431 68.6 174.241 68.41C174.051 68.22 173.731 67.99 173.271 67.73L171.991 66.99V69.57V69.56ZM171.991 73.5L173.581 74.42C173.851 74.58 174.041 74.67 174.161 74.71C174.351 74.78 174.521 74.79 174.651 74.76C174.781 74.73 174.891 74.63 174.971 74.47C175.051 74.31 175.101 74.1 175.101 73.83C175.101 73.51 175.041 73.2 174.921 72.9C174.801 72.6 174.631 72.33 174.411 72.11C174.191 71.89 173.881 71.66 173.471 71.43L171.991 70.58V73.51V73.5Z" fill="white"/>
<path d="M176.738 74.1499C176.738 73.0099 176.978 72.2999 177.448 72.0199C177.848 71.7899 178.328 71.8399 178.908 72.1699C179.548 72.5399 180.068 73.1199 180.468 73.9099C180.868 74.6999 181.078 75.5799 181.078 76.5599C181.078 77.3499 180.988 77.9299 180.808 78.2799C180.628 78.6299 180.368 78.8399 180.028 78.8899C179.688 78.9399 179.318 78.8599 178.908 78.6199C178.258 78.2499 177.738 77.6699 177.338 76.8799C176.938 76.0999 176.738 75.1799 176.738 74.1399V74.1499ZM177.548 74.6199C177.548 75.4099 177.678 76.0799 177.938 76.6199C178.198 77.1599 178.518 77.5499 178.918 77.7699C179.318 77.9899 179.628 77.9799 179.888 77.7399C180.148 77.4899 180.278 76.9699 180.278 76.1599C180.278 75.3999 180.148 74.7399 179.888 74.1999C179.628 73.6599 179.308 73.2699 178.918 73.0499C178.528 72.8299 178.198 72.8299 177.938 73.0699C177.678 73.3099 177.548 73.8299 177.548 74.6199Z" fill="white"/>
<path d="M181.711 77.02C181.711 75.88 181.951 75.17 182.421 74.89C182.821 74.66 183.301 74.71 183.881 75.04C184.521 75.41 185.041 75.99 185.441 76.78C185.841 77.57 186.051 78.45 186.051 79.43C186.051 80.22 185.961 80.8 185.781 81.15C185.601 81.5 185.341 81.71 185.001 81.76C184.661 81.81 184.291 81.73 183.881 81.49C183.231 81.12 182.711 80.54 182.311 79.75C181.911 78.97 181.711 78.05 181.711 77.01V77.02ZM182.521 77.49C182.521 78.28 182.651 78.95 182.911 79.49C183.171 80.03 183.491 80.42 183.891 80.64C184.291 80.86 184.601 80.85 184.861 80.61C185.121 80.36 185.251 79.84 185.251 79.03C185.251 78.27 185.121 77.61 184.861 77.07C184.601 76.53 184.281 76.14 183.891 75.92C183.501 75.7 183.171 75.7 182.911 75.94C182.651 76.18 182.521 76.7 182.521 77.49Z" fill="white"/>
<path d="M188.681 83.2L188.791 84.19C188.571 84.12 188.371 84.04 188.201 83.94C187.911 83.78 187.691 83.59 187.541 83.38C187.381 83.17 187.271 82.95 187.211 82.71C187.151 82.48 187.111 82.05 187.111 81.42V77.87L186.531 77.54V76.73L187.111 77.06V75.53L187.891 75.35V77.51L188.681 77.97V78.78L187.891 78.32V81.93C187.891 82.23 187.901 82.43 187.931 82.53C187.961 82.63 188.001 82.73 188.071 82.81C188.131 82.9 188.221 82.97 188.341 83.04C188.431 83.09 188.541 83.14 188.681 83.2Z" fill="white"/>
<path d="M189.451 84.58V76.0599L190.231 76.5099V79.5699C190.601 79.2199 191.061 79.1999 191.621 79.5199C191.961 79.7199 192.261 79.9799 192.511 80.3099C192.761 80.6399 192.941 80.9899 193.051 81.3699C193.161 81.7499 193.211 82.2399 193.211 82.8499V86.7599L192.431 86.3099V82.3999C192.431 81.8799 192.341 81.45 192.171 81.11C192.001 80.77 191.761 80.5199 191.451 80.3399C191.221 80.2099 191.001 80.16 190.791 80.2C190.591 80.24 190.441 80.3799 190.351 80.5999C190.261 80.8199 190.221 81.1799 190.221 81.6599V85.0399L189.441 84.5899L189.451 84.58Z" fill="white"/>
<path d="M102.222 101.18L97.1618 89.75C96.4918 88.33 96.5918 86.83 98.0118 86.16C99.4318 85.49 100.672 86.16 101.352 87.58L105.862 99.23L113.952 110.66L111.552 112.38L102.242 101.19L102.222 101.18Z" fill="url(#paint13_linear_1596_6561)"/>
<path d="M111.711 112.23C112.511 113.3 114.591 116.89 116.211 117.35C117.831 117.81 119.761 117.03 119.971 116.73C120.181 116.43 120.421 115.9 119.841 115.63C119.261 115.36 117.291 114.66 116.711 113.86C116.121 113.06 117.201 113.34 117.831 113.46C118.591 113.61 118.951 112.67 117.881 112.32C116.811 111.97 114.371 111.58 113.841 110.71L111.711 112.22V112.23Z" fill="white"/>
<path d="M102.351 142.75C101.901 142.87 101.671 143.12 101.671 143.98C101.671 144.84 101.551 145.8 101.511 146.18C101.471 146.57 101.831 147.41 102.721 147.85C103.601 148.29 104.791 148.31 105.411 148.81C106.031 149.31 106.531 150.32 107.481 150.86C108.431 151.41 111.781 151.51 112.881 150.3C113.971 149.09 110.491 148.04 108.471 146.17C106.451 144.3 105.961 143.61 105.861 143.19C105.761 142.77 105.321 142.74 105.321 142.74H102.361L102.351 142.75Z" fill="#394E5B"/>
<path d="M107.511 149.49C106.681 148.45 105.741 147.85 104.311 147.33C102.881 146.81 102.821 145.43 103.091 144.16L102.601 142.75H102.351C101.901 142.87 101.671 143.12 101.671 143.98C101.671 144.84 101.551 145.8 101.511 146.18C101.471 146.57 101.831 147.41 102.721 147.85C103.601 148.29 104.791 148.31 105.411 148.81C106.031 149.31 106.531 150.32 107.481 150.86C108.431 151.41 111.781 151.51 112.881 150.3C111.101 151.07 108.351 150.52 107.521 149.48L107.511 149.49Z" fill="#29404B"/>
<path d="M105.323 143.5C105.323 145.08 102.363 144.22 102.363 143.5V139.87H105.323V143.5Z" fill="#FCD2A0"/>
<path d="M112.441 135.13C111.991 135.25 111.761 135.5 111.761 136.36C111.761 137.22 111.641 138.18 111.601 138.56C111.561 138.94 111.921 139.79 112.811 140.23C113.701 140.67 114.881 140.69 115.501 141.19C116.121 141.69 116.621 142.7 117.571 143.24C118.521 143.79 121.871 143.89 122.971 142.68C124.061 141.47 120.581 140.42 118.561 138.55C116.541 136.68 116.051 135.99 115.951 135.57C115.851 135.14 115.411 135.12 115.411 135.12H112.451L112.441 135.13Z" fill="#394E5B"/>
<path d="M117.601 141.87C116.771 140.83 115.831 140.23 114.401 139.71C112.971 139.19 112.911 137.81 113.181 136.54L112.691 135.13H112.441C111.991 135.25 111.761 135.5 111.761 136.36C111.761 137.22 111.641 138.18 111.601 138.56C111.561 138.94 111.921 139.79 112.811 140.23C113.691 140.67 114.881 140.69 115.501 141.19C116.121 141.69 116.621 142.7 117.571 143.24C118.521 143.79 121.871 143.89 122.971 142.68C121.191 143.45 118.441 142.9 117.611 141.86L117.601 141.87Z" fill="#29404B"/>
<path d="M115.403 135.88C115.403 137.46 112.443 136.6 112.443 135.88L112.293 132.25H115.253L115.403 135.88Z" fill="#FCD2A0"/>
<path d="M114.522 113.12C113.192 112.44 99.3116 105.67 99.3116 105.67L86.3916 108.84C86.2616 114.12 87.0916 116.5 90.5416 118.06C93.6416 119.46 103.072 123.77 103.072 123.77C103.072 123.77 102.192 125.22 101.942 127.41C101.742 129.15 101.942 141.7 101.942 141.7C101.942 141.7 103.962 143.33 105.552 141.7C105.552 141.7 108.182 124.18 108.412 122.3C108.642 120.42 108.852 120.16 106.162 118.15C105.322 117.53 104.232 116.77 103.112 116.03L111.492 118.61C111.492 118.61 110.812 121.34 110.832 122.28C110.852 123.22 112.032 134.37 112.032 134.37C112.032 134.37 114.172 135.64 115.822 134.21C115.822 134.21 116.512 119.86 116.692 117.27C116.722 116.81 117.062 114.42 114.522 113.11V113.12Z" fill="#394E5B"/>
<path d="M105.322 122.89C105.322 122.89 96.9716 119.23 93.3716 117.24C89.7716 115.25 89.1016 112.63 89.0016 110.07L89.6216 108.05L86.3916 108.84C86.2616 114.12 87.0916 116.5 90.5416 118.06C93.6416 119.46 103.072 123.77 103.072 123.77C103.072 123.77 102.192 125.22 101.942 127.41C101.742 129.15 101.942 141.7 101.942 141.7C101.942 141.7 102.462 142.12 103.172 142.32C103.152 141.25 102.952 132.41 103.252 129.58C103.572 126.56 105.312 122.9 105.312 122.9L105.322 122.89Z" fill="#29404B"/>
<path d="M93.9315 85.4801L89.9915 87.6701C89.1215 88.1701 88.0215 89.7601 87.7515 90.7301C87.1215 92.9601 86.8415 98.4001 86.5315 103.49C86.4615 104.6 86.3816 107.81 86.4016 108.84C86.4016 109.29 89.7815 110.85 93.5115 110.34C97.4115 109.81 98.4915 106.92 99.3215 105.67C99.3515 104.03 99.4015 102.02 100.422 98.3201C101.612 94.0001 102.722 88.5201 100.592 86.3101C98.8016 84.4501 96.7315 84.6501 96.7315 84.6501L93.9415 85.4901L93.9315 85.4801Z" fill="url(#paint14_linear_1596_6561)"/>
<path d="M101.161 78.4701C101.661 77.5701 101.971 76.2801 101.631 74.9001C101.281 73.5201 100.031 74.52 100.031 74.52L101.161 78.4701Z" fill="#19313A"/>
<path d="M93.4333 81.79L92.8633 87.17C92.8633 87.17 93.5633 87.57 94.7133 88.09C96.0633 88.7 97.2733 88.08 97.3933 87.03C97.5733 85.45 97.8633 82.88 97.8633 82.88L93.4333 81.79Z" fill="white"/>
<path d="M99.5214 72.3C100.801 73.34 101.621 75.58 101.351 77.32L100.661 81.68C100.341 83.74 98.0414 84.84 96.2314 83.79L94.3314 82.68C93.6914 82.31 93.2414 81.67 93.1114 80.93L92.1814 75.7C91.8714 73.97 92.8713 72.09 94.4113 71.49C95.9513 70.9 98.2314 71.26 99.5214 72.29V72.3Z" fill="white"/>
<path d="M93.2933 83.07C92.8933 83.22 92.1134 83.04 91.7634 80.26C91.4034 77.48 91.1933 74.3 92.0433 72.64C92.9033 70.98 95.0734 70.46 96.6534 70.64C98.2334 70.82 102.353 72.57 102.323 74C102.293 75.43 100.383 75.62 99.0134 75.56C97.6434 75.49 95.2634 74.75 95.0234 74.83C94.7834 74.91 94.5033 75.37 94.4133 76.51C94.3533 77.26 94.3034 77.86 94.1434 78.66C94.0834 78.97 93.4834 78.97 93.3734 78.9C93.0734 78.7 93.1333 78.03 93.1033 77.1L92.6033 78.1L93.1033 80.95C93.1633 81.28 93.2733 81.56 93.4233 81.8L93.2833 83.08L93.2933 83.07Z" fill="#19313A"/>
<path d="M93.1035 77.08C92.9835 76.55 92.3436 76.44 91.8836 76.72C91.4136 77.01 91.0536 78.53 91.9036 79.44C92.7536 80.35 93.3635 79.78 93.3635 79.78L93.0936 77.09L93.1035 77.08Z" fill="white"/>
<path d="M113.093 117.88C112.423 117.48 98.3633 112.63 98.3633 112.63L103.113 116.03L111.493 118.61C111.493 118.61 110.813 121.34 110.833 122.28C110.853 123.22 112.033 134.37 112.033 134.37C112.033 134.37 112.563 134.68 113.293 134.82C113.293 134.82 112.003 125.04 112.293 122.41C112.583 119.79 113.753 118.27 113.093 117.88Z" fill="#29404B"/>
<path d="M104.983 96.52L94.6529 100.99L93.1629 90.39C92.8529 88.95 91.4429 88.04 90.0029 88.35C88.5629 88.66 87.6529 90.07 87.9629 91.51L90.4329 102.98C91.0429 105.81 91.7129 106.74 94.0329 105.74C96.3529 104.74 106.213 99 106.213 99L104.993 96.53L104.983 96.52Z" fill="url(#paint15_linear_1596_6561)"/>
<path d="M106.101 98.8101C107.161 98.2601 108.271 97.8301 109.311 97.2501C110.321 96.6901 111.761 95.8501 111.781 94.5201C111.781 94.1801 111.701 93.8501 111.611 93.5201C111.561 93.3501 111.491 93.1601 111.361 93.0401C111.181 92.8801 110.921 92.8601 110.691 92.9201C110.461 92.9801 110.261 93.1201 110.071 93.2501C109.711 93.5001 109.351 93.7401 108.981 93.9901C108.781 94.1201 108.271 94.6301 108.021 94.5501C107.631 94.4201 108.071 93.5901 108.161 93.3501C108.411 92.6801 107.601 92.2001 107.121 93.1301C106.641 94.0601 105.911 96.2601 105.031 96.6201L106.101 98.8101Z" fill="white"/>
<path d="M112.352 144.68L105.492 165.48L91.0825 157.16L86.0625 129.25L112.352 144.68Z" fill="url(#paint16_linear_1596_6561)"/>
<path d="M155.922 119.72L148.722 140.52L134.312 132.1V107.12L155.922 119.72Z" fill="#F1F2F2" stroke="black" stroke-width="0.56" stroke-miterlimit="10"/>
<path d="M155.922 119.72L148.722 140.52L105.492 165.48L112.352 144.68L155.922 119.72Z" fill="url(#paint17_linear_1596_6561)"/>
<path d="M148.722 140.52V143.84L105.492 168.8V165.48L148.722 140.52Z" fill="url(#paint18_linear_1596_6561)"/>
<path d="M91.082 157.16L105.492 165.48V168.8L91.082 160.48V157.16Z" fill="url(#paint19_linear_1596_6561)"/>
<path d="M93.602 129.22L135.382 104.88L156.552 117.1L159.802 116.48V118.98L111.022 146.92L85.332 131.86V129.36L93.602 129.22Z" fill="url(#paint20_linear_1596_6561)"/>
<path d="M159.802 116.48L133.502 101.29L85.332 129.36L111.022 144.42L159.802 116.48Z" fill="url(#paint21_linear_1596_6561)"/>
<path d="M140.439 115.39L139.969 115.47L130.039 96.6L130.129 96.62C130.319 96.11 130.639 95.71 131.159 95.89L142.719 102.58C143.139 102.72 143.469 103.02 143.379 103.53L141.139 114.91C140.959 115.34 140.849 115.5 140.439 115.41V115.39Z" fill="#616669"/>
<path d="M142.99 102.87L140.62 103.82L130.34 96.41L130.76 95.76C130.76 95.76 131.12 95.87 131.15 95.88L142.71 102.57C142.81 102.6 142.9 102.81 142.98 102.87H142.99Z" fill="#D0E6E6"/>
<path d="M141.502 106.47L143.372 103.44C143.372 103.44 143.372 103.5 143.372 103.54L141.132 114.92C141.122 114.98 141.012 115.02 140.982 115.07L140.582 114.98L141.482 106.47H141.502Z" fill="#616669"/>
<path d="M119.98 112.94L131.29 119.51L131.52 119.64C132.05 119.95 132.67 119.89 133.23 119.64C133.29 119.61 133.34 119.59 133.4 119.56L140.48 115.57C140.73 115.43 140.84 115.22 140.84 114.93V114.85L119.9 111.77L119.77 111.85C119.72 111.88 119.68 111.92 119.65 111.96C119.62 112.06 119.59 112.17 119.59 112.23V112.43C119.59 112.58 119.58 112.69 119.98 112.95V112.94Z" fill="#7C7C7C"/>
<path d="M131.691 117.98V119.73C132.181 119.94 132.731 119.87 133.231 119.65V117.98H131.691Z" fill="#898387"/>
<path d="M140.67 115.31C140.67 115.45 140.6 115.57 140.48 115.64L133.4 119.57C133.3 119.62 133.19 119.67 133.09 119.7V114.19H136.73L140.65 114.89L140.68 115.31H140.67Z" fill="#78777B"/>
<path d="M140.33 114.56L128.01 108.22C127.73 108.06 127.58 107.73 127.65 107.41L129.95 96.52C130.03 95.7 130.46 95.6701 130.94 95.8301L142.72 102.55C143.23 102.83 143.24 103.11 143.23 103.43L141.03 114.61C140.8 114.97 140.88 114.69 140.34 114.56H140.33Z" fill="#B3ADAB"/>
<path d="M140.93 102.12L142.72 102.72C143.03 102.82 143.3 102.9 143.23 103.45L141.03 114.63C140.94 115.1 140.88 115.04 140.54 114.86L130.57 109.54L140.94 102.11L140.93 102.12Z" fill="#B3ADAB"/>
<path d="M127.989 107.33L140.879 114.77C140.879 114.77 140.989 114.12 141.009 114.08L143.039 103.33C143.039 103.15 142.919 103 142.749 102.94L142.139 102.74L134.929 98.36L130.699 95.98C130.629 95.96 130.559 95.95 130.479 95.97C130.399 95.99 130.199 96.05 130.139 96.37V96.4L127.969 107.34L127.989 107.33Z" fill="#58525C"/>
<path d="M134.641 111.2L140.881 114.8L141.011 114.11L143.041 103.36C143.081 103.09 142.901 102.93 142.711 102.82L134.941 98.38L134.641 111.2Z" fill="#B2AEAD"/>
<path d="M134.641 111.2L140.881 114.8L141.011 114.11L143.041 103.36C143.081 103.09 142.901 102.93 142.711 102.82L134.941 98.38L134.641 111.2Z" fill="#605A64"/>
<path d="M128.391 107.16C132.411 109.4 136.421 111.63 140.441 113.87L140.941 111.21L141.201 109.85L141.571 107.87L141.681 107.3L142.421 103.4L130.581 96.55L128.901 104.78L128.621 106.17L128.391 107.16Z" fill="url(#paint22_linear_1596_6561)"/>
<path d="M119.59 112.24C119.61 112.34 119.67 112.44 119.77 112.5L126.55 116.41L131.81 119.45C132.14 119.58 132.61 119.59 133.13 119.31L140.56 115.01C140.69 114.94 140.69 114.76 140.56 114.68L139.96 114.33L139.67 114.16C139.56 114.1 139.43 114.1 139.33 114.16L138.85 114.44L128.42 108.41L128.94 108.13C129.01 108.09 129.02 107.99 128.94 107.94L127.96 107.36C127.8 107.27 127.6 107.26 127.44 107.36L122.06 110.47L119.91 111.76L119.78 111.83C119.78 111.83 119.69 111.9 119.66 111.94C119.6 112.03 119.58 112.13 119.6 112.22L119.59 112.24Z" fill="#EBE4E4"/>
<path d="M123.952 110.74L127.462 108.71C127.672 108.59 127.942 108.59 128.152 108.71L138.252 114.54C138.412 114.63 138.412 114.86 138.252 114.95L134.742 116.98C134.532 117.1 134.262 117.1 134.052 116.98L123.952 111.15C123.792 111.06 123.792 110.83 123.952 110.74Z" fill="#A7A7A7"/>
<path d="M123.952 110.85L127.462 108.82C127.672 108.7 127.942 108.7 128.152 108.82L138.252 114.65C138.412 114.74 138.412 114.97 138.252 115.06L134.742 117.09C134.532 117.21 134.262 117.21 134.052 117.09L123.952 111.26C123.792 111.17 123.792 110.94 123.952 110.85Z" fill="#DED9D9"/>
<path d="M128.41 108.42L138.84 114.45L139.66 114.17L130.89 109.12L128.93 107.96L128.41 108.42Z" fill="#EBE4E4"/>
<path d="M127.739 116.82L124.639 115.03C124.579 115 124.579 114.91 124.639 114.88L127.109 113.44C127.179 113.4 127.269 113.4 127.339 113.44L130.439 115.23C130.499 115.26 130.499 115.35 130.439 115.38L127.969 116.82C127.899 116.86 127.809 116.86 127.739 116.82Z" fill="#B2AEAD"/>
<path d="M137.019 100.1C137.089 100.1 137.149 100.01 137.149 99.91C137.149 99.81 137.079 99.73 137.009 99.74C136.939 99.74 136.879 99.83 136.879 99.93C136.879 100.03 136.949 100.11 137.019 100.1Z" fill="#161209"/>
<path d="M136.988 100.08C136.988 100.08 136.908 100 136.898 99.93C136.898 99.84 136.938 99.77 137.008 99.76C137.018 99.76 137.028 99.76 137.038 99.76C137.088 99.78 137.118 99.84 137.128 99.91C137.128 99.95 137.128 99.99 137.098 100.03C137.078 100.06 137.048 100.08 137.018 100.08C137.008 100.08 136.998 100.08 136.988 100.08Z" fill="#42485C"/>
<path d="M137.017 100.03C137.017 100.03 136.967 99.9801 136.957 99.9301C136.957 99.8701 136.987 99.8201 137.027 99.8201C137.027 99.8201 137.037 99.8201 137.047 99.8201C137.077 99.8301 137.097 99.8701 137.107 99.9201C137.107 99.9501 137.107 99.9801 137.087 100C137.077 100.02 137.057 100.03 137.037 100.03C137.037 100.03 137.027 100.03 137.017 100.03Z" fill="#727982"/>
<path d="M127.482 109.84L127.072 109.6C127.002 109.56 127.002 109.51 127.072 109.48L127.462 109.26C127.522 109.23 127.662 109.23 127.722 109.26L128.132 109.5C128.202 109.54 128.202 109.59 128.132 109.62L127.742 109.84C127.682 109.87 127.542 109.87 127.482 109.84Z" fill="#354747"/>
<path d="M128.193 110.25L127.783 110.01C127.713 109.97 127.713 109.92 127.783 109.89L128.173 109.67C128.233 109.64 128.373 109.64 128.433 109.67L128.843 109.91C128.913 109.95 128.913 110 128.843 110.03L128.453 110.25C128.393 110.28 128.253 110.28 128.193 110.25Z" fill="#354747"/>
<path d="M128.892 110.66L128.482 110.42C128.412 110.38 128.412 110.33 128.482 110.3L128.872 110.08C128.932 110.05 129.072 110.05 129.132 110.08L129.542 110.32C129.612 110.36 129.612 110.41 129.542 110.44L129.152 110.66C129.092 110.69 128.952 110.69 128.892 110.66Z" fill="#354747"/>
<path d="M129.591 111.07L129.181 110.83C129.111 110.79 129.111 110.74 129.181 110.71L129.571 110.49C129.631 110.46 129.771 110.46 129.831 110.49L130.241 110.73C130.311 110.77 130.311 110.82 130.241 110.85L129.851 111.07C129.791 111.1 129.651 111.1 129.591 111.07Z" fill="#354747"/>
<path d="M130.291 111.48L129.881 111.24C129.811 111.2 129.811 111.15 129.881 111.12L130.271 110.9C130.331 110.87 130.471 110.87 130.531 110.9L130.941 111.14C131.011 111.18 131.011 111.23 130.941 111.26L130.551 111.48C130.491 111.51 130.351 111.51 130.291 111.48Z" fill="#354747"/>
<path d="M131.002 111.89L130.592 111.65C130.522 111.61 130.522 111.56 130.592 111.53L130.982 111.31C131.042 111.28 131.182 111.28 131.242 111.31L131.652 111.55C131.722 111.59 131.722 111.64 131.652 111.67L131.262 111.89C131.202 111.92 131.062 111.92 131.002 111.89Z" fill="#354747"/>
<path d="M131.701 112.3L131.291 112.06C131.221 112.02 131.221 111.97 131.291 111.94L131.681 111.72C131.741 111.69 131.881 111.69 131.941 111.72L132.351 111.96C132.421 112 132.421 112.05 132.351 112.08L131.961 112.3C131.901 112.33 131.761 112.33 131.701 112.3Z" fill="#354747"/>
<path d="M132.4 112.71L131.99 112.47C131.92 112.43 131.92 112.38 131.99 112.35L132.38 112.13C132.44 112.1 132.58 112.1 132.64 112.13L133.05 112.37C133.12 112.41 133.12 112.46 133.05 112.49L132.66 112.71C132.6 112.74 132.46 112.74 132.4 112.71Z" fill="#354747"/>
<path d="M133.103 113.12L132.693 112.88C132.623 112.84 132.623 112.79 132.693 112.76L133.083 112.54C133.143 112.51 133.283 112.51 133.343 112.54L133.753 112.78C133.823 112.82 133.823 112.87 133.753 112.9L133.363 113.12C133.303 113.15 133.163 113.15 133.103 113.12Z" fill="#354747"/>
<path d="M133.81 113.53L133.4 113.29C133.33 113.25 133.33 113.2 133.4 113.17L133.79 112.95C133.85 112.92 133.99 112.92 134.05 112.95L134.46 113.19C134.53 113.23 134.53 113.28 134.46 113.31L134.07 113.53C134.01 113.56 133.87 113.56 133.81 113.53Z" fill="#354747"/>
<path d="M134.513 113.94L134.103 113.7C134.033 113.66 134.033 113.61 134.103 113.58L134.493 113.36C134.553 113.33 134.693 113.33 134.753 113.36L135.163 113.6C135.233 113.64 135.233 113.69 135.163 113.72L134.773 113.94C134.713 113.97 134.573 113.97 134.513 113.94Z" fill="#354747"/>
<path d="M135.213 114.34L134.803 114.1C134.733 114.06 134.733 114.01 134.803 113.98L135.193 113.76C135.253 113.73 135.393 113.73 135.453 113.76L135.862 114C135.932 114.04 135.932 114.09 135.862 114.12L135.472 114.34C135.412 114.37 135.273 114.37 135.213 114.34Z" fill="#354747"/>
<path d="M136.872 115.17L137.262 114.95C137.322 114.91 137.322 114.87 137.262 114.83L136.152 114.18C136.152 114.18 136.072 114.15 136.022 114.15C135.972 114.15 135.922 114.15 135.892 114.17L135.502 114.39C135.442 114.43 135.442 114.47 135.502 114.51L135.912 114.75L136.612 115.16C136.672 115.19 136.812 115.2 136.872 115.16V115.17Z" fill="#354747"/>
<path d="M127.763 110.64L128.153 110.42C128.213 110.38 128.213 110.34 128.153 110.3L127.743 110.06L127.043 109.65C126.983 109.62 126.843 109.61 126.783 109.65L126.393 109.87C126.333 109.91 126.333 109.95 126.393 109.99L127.503 110.64C127.503 110.64 127.583 110.67 127.633 110.67C127.683 110.67 127.733 110.67 127.763 110.65V110.64Z" fill="#354747"/>
<path d="M128.201 111.04L127.791 110.8C127.721 110.76 127.721 110.71 127.791 110.68L128.181 110.46C128.241 110.43 128.381 110.43 128.441 110.46L128.851 110.7C128.921 110.74 128.921 110.79 128.851 110.82L128.461 111.04C128.401 111.07 128.261 111.07 128.201 111.04Z" fill="#354747"/>
<path d="M128.912 111.45L128.502 111.21C128.432 111.17 128.432 111.12 128.502 111.09L128.892 110.87C128.952 110.84 129.092 110.84 129.152 110.87L129.562 111.11C129.632 111.15 129.632 111.2 129.562 111.23L129.172 111.45C129.112 111.48 128.972 111.48 128.912 111.45Z" fill="#354747"/>
<path d="M129.611 111.86L129.201 111.62C129.131 111.58 129.131 111.53 129.201 111.5L129.591 111.28C129.651 111.25 129.791 111.25 129.851 111.28L130.261 111.52C130.331 111.56 130.331 111.61 130.261 111.64L129.871 111.86C129.811 111.89 129.671 111.89 129.611 111.86Z" fill="#354747"/>
<path d="M130.31 112.27L129.9 112.03C129.83 111.99 129.83 111.94 129.9 111.91L130.29 111.69C130.35 111.66 130.49 111.66 130.55 111.69L130.96 111.93C131.03 111.97 131.03 112.02 130.96 112.05L130.57 112.27C130.51 112.3 130.37 112.3 130.31 112.27Z" fill="#354747"/>
<path d="M131.013 112.68L130.603 112.44C130.533 112.4 130.533 112.35 130.603 112.32L130.993 112.1C131.053 112.07 131.193 112.07 131.253 112.1L131.663 112.34C131.733 112.38 131.733 112.43 131.663 112.46L131.273 112.68C131.213 112.71 131.073 112.71 131.013 112.68Z" fill="#354747"/>
<path d="M131.72 113.09L131.31 112.85C131.24 112.81 131.24 112.76 131.31 112.73L131.7 112.51C131.76 112.48 131.9 112.48 131.96 112.51L132.37 112.75C132.44 112.79 132.44 112.84 132.37 112.87L131.98 113.09C131.92 113.12 131.78 113.12 131.72 113.09Z" fill="#354747"/>
<path d="M132.423 113.5L132.013 113.26C131.943 113.22 131.943 113.17 132.013 113.14L132.403 112.92C132.463 112.89 132.603 112.89 132.663 112.92L133.073 113.16C133.143 113.2 133.143 113.25 133.073 113.28L132.683 113.5C132.623 113.53 132.483 113.53 132.423 113.5Z" fill="#354747"/>
<path d="M133.123 113.91L132.713 113.67C132.643 113.63 132.643 113.58 132.713 113.55L133.103 113.33C133.163 113.3 133.303 113.3 133.363 113.33L133.773 113.57C133.843 113.61 133.843 113.66 133.773 113.69L133.383 113.91C133.323 113.94 133.183 113.94 133.123 113.91Z" fill="#354747"/>
<path d="M133.822 114.32L133.412 114.08C133.342 114.04 133.342 113.99 133.412 113.96L133.802 113.74C133.862 113.71 134.002 113.71 134.062 113.74L134.472 113.98C134.542 114.02 134.542 114.07 134.472 114.1L134.082 114.32C134.022 114.35 133.882 114.35 133.822 114.32Z" fill="#354747"/>
<path d="M134.521 114.73L134.111 114.49C134.041 114.45 134.041 114.4 134.111 114.37L134.501 114.15C134.561 114.12 134.701 114.12 134.761 114.15L135.171 114.39C135.241 114.43 135.241 114.48 135.171 114.51L134.781 114.73C134.721 114.76 134.581 114.76 134.521 114.73Z" fill="#354747"/>
<path d="M135.232 115.14L134.822 114.9C134.752 114.86 134.752 114.81 134.822 114.78L135.212 114.56C135.272 114.53 135.412 114.53 135.472 114.56L135.882 114.8C135.952 114.84 135.952 114.89 135.882 114.92L135.492 115.14C135.432 115.17 135.292 115.17 135.232 115.14Z" fill="#354747"/>
<path d="M127.071 111.02L127.461 110.8C127.521 110.76 127.521 110.72 127.461 110.68L127.051 110.44L126.351 110.03C126.291 110 126.151 109.99 126.091 110.03L125.701 110.25C125.641 110.29 125.641 110.33 125.701 110.37L126.811 111.02C126.811 111.02 126.891 111.05 126.941 111.05C126.991 111.05 127.041 111.05 127.071 111.03V111.02Z" fill="#354747"/>
<path d="M127.521 111.42L127.111 111.18C127.041 111.14 127.041 111.09 127.111 111.06L127.501 110.84C127.561 110.81 127.701 110.81 127.761 110.84L128.171 111.08C128.241 111.12 128.241 111.17 128.171 111.2L127.781 111.42C127.721 111.45 127.581 111.45 127.521 111.42Z" fill="#354747"/>
<path d="M128.22 111.83L127.81 111.59C127.74 111.55 127.74 111.5 127.81 111.47L128.2 111.25C128.26 111.22 128.4 111.22 128.46 111.25L128.87 111.49C128.94 111.53 128.94 111.58 128.87 111.61L128.48 111.83C128.42 111.86 128.28 111.86 128.22 111.83Z" fill="#354747"/>
<path d="M128.923 112.24L128.513 112C128.443 111.96 128.443 111.91 128.513 111.88L128.903 111.66C128.963 111.63 129.103 111.63 129.163 111.66L129.573 111.9C129.643 111.94 129.643 111.99 129.573 112.02L129.183 112.24C129.123 112.27 128.983 112.27 128.923 112.24Z" fill="#354747"/>
<path d="M129.631 112.65L129.22 112.41C129.15 112.37 129.15 112.32 129.22 112.29L129.61 112.07C129.67 112.04 129.81 112.04 129.87 112.07L130.28 112.31C130.35 112.35 130.35 112.4 130.28 112.43L129.891 112.65C129.831 112.68 129.691 112.68 129.631 112.65Z" fill="#354747"/>
<path d="M130.334 113.06L129.924 112.82C129.854 112.78 129.854 112.73 129.924 112.7L130.314 112.48C130.374 112.45 130.514 112.45 130.574 112.48L130.984 112.72C131.054 112.76 131.054 112.81 130.984 112.84L130.594 113.06C130.534 113.09 130.394 113.09 130.334 113.06Z" fill="#354747"/>
<path d="M131.033 113.47L130.623 113.23C130.553 113.19 130.553 113.14 130.623 113.11L131.013 112.89C131.073 112.86 131.213 112.86 131.273 112.89L131.683 113.13C131.753 113.17 131.753 113.22 131.683 113.25L131.293 113.47C131.233 113.5 131.093 113.5 131.033 113.47Z" fill="#354747"/>
<path d="M131.732 113.88L131.322 113.64C131.252 113.6 131.252 113.55 131.322 113.52L131.712 113.3C131.772 113.27 131.912 113.27 131.972 113.3L132.382 113.54C132.452 113.58 132.452 113.63 132.382 113.66L131.992 113.88C131.932 113.91 131.792 113.91 131.732 113.88Z" fill="#354747"/>
<path d="M132.443 114.29L132.033 114.05C131.963 114.01 131.963 113.96 132.033 113.93L132.423 113.71C132.483 113.68 132.623 113.68 132.683 113.71L133.093 113.95C133.163 113.99 133.163 114.04 133.093 114.07L132.703 114.29C132.643 114.32 132.503 114.32 132.443 114.29Z" fill="#354747"/>
<path d="M133.142 114.7L132.732 114.46C132.662 114.42 132.662 114.37 132.732 114.34L133.122 114.12C133.182 114.09 133.322 114.09 133.382 114.12L133.792 114.36C133.862 114.4 133.862 114.45 133.792 114.48L133.402 114.7C133.342 114.73 133.202 114.73 133.142 114.7Z" fill="#354747"/>
<path d="M133.841 115.11L133.431 114.87C133.361 114.83 133.361 114.78 133.431 114.75L133.821 114.53C133.881 114.5 134.021 114.5 134.081 114.53L134.491 114.77C134.561 114.81 134.561 114.86 134.491 114.89L134.101 115.11C134.041 115.14 133.901 115.14 133.841 115.11Z" fill="#354747"/>
<path d="M135.501 115.94L135.891 115.72L136.581 115.34C136.641 115.3 136.641 115.26 136.581 115.22L136.171 114.98C136.111 114.95 135.971 114.94 135.911 114.98L135.351 115.29L134.781 114.96C134.721 114.93 134.581 114.92 134.521 114.96L134.131 115.18C134.071 115.22 134.071 115.26 134.131 115.3L135.241 115.95C135.241 115.95 135.321 115.98 135.371 115.98C135.421 115.98 135.471 115.98 135.501 115.96V115.94Z" fill="#354747"/>
<path d="M127.003 111.83C127.003 111.83 127.033 111.83 127.043 111.83C127.043 111.83 127.043 111.83 127.053 111.83C127.073 111.83 127.083 111.83 127.103 111.82L127.493 111.6C127.493 111.6 127.543 111.56 127.543 111.54C127.543 111.52 127.523 111.5 127.493 111.48L127.083 111.24L126.383 110.83L125.683 110.42C125.623 110.39 125.483 110.38 125.423 110.42L125.033 110.64C124.973 110.68 124.973 110.72 125.033 110.76L126.843 111.82C126.843 111.82 126.923 111.85 126.973 111.85C126.973 111.85 126.993 111.85 127.013 111.85L127.003 111.83Z" fill="#354747"/>
<path d="M127.541 112.22L127.131 111.98C127.061 111.94 127.061 111.89 127.131 111.86L127.521 111.64C127.581 111.61 127.721 111.61 127.781 111.64L128.191 111.88C128.261 111.92 128.261 111.97 128.191 112L127.801 112.22C127.741 112.25 127.601 112.25 127.541 112.22Z" fill="#354747"/>
<path d="M128.244 112.63L127.834 112.39C127.764 112.35 127.764 112.3 127.834 112.27L128.224 112.05C128.284 112.02 128.424 112.02 128.484 112.05L128.894 112.29C128.964 112.33 128.964 112.38 128.894 112.41L128.504 112.63C128.444 112.66 128.304 112.66 128.244 112.63Z" fill="#354747"/>
<path d="M128.943 113.03L128.533 112.79C128.463 112.75 128.463 112.7 128.533 112.67L128.923 112.45C128.983 112.42 129.123 112.42 129.183 112.45L129.593 112.69C129.663 112.73 129.663 112.78 129.593 112.81L129.203 113.03C129.143 113.06 129.003 113.06 128.943 113.03Z" fill="#354747"/>
<path d="M129.642 113.44L129.232 113.2C129.162 113.16 129.162 113.11 129.232 113.08L129.622 112.86C129.682 112.83 129.822 112.83 129.882 112.86L130.292 113.1C130.362 113.14 130.362 113.19 130.292 113.22L129.902 113.44C129.842 113.47 129.702 113.47 129.642 113.44Z" fill="#354747"/>
<path d="M130.353 113.85L129.943 113.61C129.873 113.57 129.873 113.52 129.943 113.49L130.333 113.27C130.393 113.24 130.533 113.24 130.593 113.27L131.003 113.51C131.073 113.55 131.073 113.6 131.003 113.63L130.613 113.85C130.553 113.88 130.413 113.88 130.353 113.85Z" fill="#354747"/>
<path d="M131.052 114.26L130.642 114.02C130.572 113.98 130.572 113.93 130.642 113.9L131.032 113.68C131.092 113.65 131.232 113.65 131.292 113.68L131.702 113.92C131.772 113.96 131.772 114.01 131.702 114.04L131.312 114.26C131.252 114.29 131.112 114.29 131.052 114.26Z" fill="#354747"/>
<path d="M131.752 114.67L131.342 114.43C131.272 114.39 131.272 114.34 131.342 114.31L131.732 114.09C131.792 114.06 131.932 114.06 131.992 114.09L132.402 114.33C132.472 114.37 132.472 114.42 132.402 114.45L132.012 114.67C131.952 114.7 131.812 114.7 131.752 114.67Z" fill="#354747"/>
<path d="M132.451 115.08L132.041 114.84C131.971 114.8 131.971 114.75 132.041 114.72L132.431 114.5C132.491 114.47 132.631 114.47 132.691 114.5L133.101 114.74C133.171 114.78 133.171 114.83 133.101 114.86L132.711 115.08C132.651 115.11 132.511 115.11 132.451 115.08Z" fill="#354747"/>
<path d="M125.712 111.79L126.102 111.57C126.162 111.53 126.162 111.49 126.102 111.45L124.992 110.8C124.932 110.77 124.792 110.76 124.732 110.8L124.342 111.02C124.282 111.06 124.282 111.1 124.342 111.14L125.042 111.54L125.452 111.78C125.452 111.78 125.532 111.81 125.582 111.81C125.632 111.81 125.682 111.81 125.712 111.79Z" fill="#354747"/>
<path d="M126.15 112.19L125.74 111.95C125.67 111.91 125.67 111.86 125.74 111.83L126.13 111.61C126.19 111.58 126.33 111.58 126.39 111.61L126.8 111.85C126.87 111.89 126.87 111.94 126.8 111.97L126.41 112.19C126.35 112.22 126.21 112.22 126.15 112.19Z" fill="#354747"/>
<path d="M126.853 112.6L126.443 112.36C126.373 112.32 126.373 112.27 126.443 112.24L126.833 112.02C126.893 111.99 127.033 111.99 127.093 112.02L127.503 112.26C127.573 112.3 127.573 112.35 127.503 112.38L127.113 112.6C127.053 112.63 126.913 112.63 126.853 112.6Z" fill="#354747"/>
<path d="M131.072 115.06L130.662 114.82C130.592 114.78 130.592 114.73 130.662 114.7L131.052 114.48C131.112 114.45 131.252 114.45 131.312 114.48L131.722 114.72C131.792 114.76 131.792 114.81 131.722 114.84L131.332 115.06C131.272 115.09 131.132 115.09 131.072 115.06Z" fill="#354747"/>
<path d="M131.771 115.46L131.361 115.22C131.291 115.18 131.291 115.13 131.361 115.1L131.751 114.88C131.811 114.85 131.951 114.85 132.011 114.88L132.421 115.12C132.491 115.16 132.491 115.21 132.421 115.24L132.031 115.46C131.971 115.49 131.831 115.49 131.771 115.46Z" fill="#354747"/>
<path d="M132.47 115.87L132.06 115.63C131.99 115.59 131.99 115.54 132.06 115.51L132.45 115.29C132.51 115.26 132.65 115.26 132.71 115.29L133.12 115.53C133.19 115.57 133.19 115.62 133.12 115.65L132.73 115.87C132.67 115.9 132.53 115.9 132.47 115.87Z" fill="#354747"/>
<path d="M134.134 116.7L134.524 116.48C134.584 116.44 134.584 116.4 134.524 116.36L133.414 115.71C133.354 115.68 133.214 115.67 133.154 115.71L132.764 115.93C132.704 115.97 132.704 116.01 132.764 116.05L133.874 116.7C133.934 116.73 134.074 116.74 134.134 116.7Z" fill="#354747"/>
<path d="M130.623 114.65L131.013 114.43C131.073 114.39 131.073 114.35 131.013 114.31L127.793 112.43C127.733 112.4 127.593 112.39 127.533 112.43L127.143 112.65C127.083 112.69 127.083 112.73 127.143 112.77L129.953 114.41L130.363 114.65C130.423 114.68 130.563 114.69 130.623 114.65Z" fill="#354747"/>
<path d="M134.562 116.31L132.752 115.25C132.682 115.21 132.682 115.16 132.752 115.13L133.142 114.91C133.202 114.88 133.342 114.88 133.402 114.91L135.212 115.97C135.282 116.01 135.282 116.06 135.212 116.09L134.822 116.31C134.762 116.34 134.622 116.34 134.562 116.31Z" fill="#354747"/>
<path d="M180.8 149.16L176.97 166.68L139.14 188.36L120.66 177.52L116.75 163L180.8 149.16Z" fill="url(#paint23_linear_1596_6561)"/>
<path d="M115.42 157.73L115.45 158.14L118.41 157.49L159.26 133.69C160.08 133.21 161.08 133.21 161.9 133.69L179.81 144.03L182.05 143.54L182.11 143.94C182.17 144.26 182.11 147.04 182.05 147.36V147.43C181.9 148.12 181.49 148.76 180.8 149.16L141.1 171.91C138.23 173.55 134.71 173.53 131.86 171.86L116.76 163C116.26 162.71 115.92 162.28 115.71 161.81H115.7V161.77C115.46 161.2 115.27 158.32 115.44 157.73H115.42Z" fill="#B3B3B3"/>
<path d="M180.808 141.8L161.908 130.89C161.088 130.42 160.078 130.42 159.268 130.89L116.758 155.66C115.018 156.67 115.018 159.19 116.758 160.2L131.858 169.06C134.708 170.73 138.238 170.75 141.098 169.11L180.798 146.36C182.558 145.35 182.568 142.81 180.798 141.8H180.808Z" fill="url(#paint24_linear_1596_6561)"/>
<path d="M158.681 156.27L140.211 145.43" stroke="white" stroke-width="0.56" stroke-miterlimit="10"/>
<path d="M161.139 144.46C161.873 144.46 162.469 144.25 162.469 143.99C162.469 143.73 161.873 143.52 161.139 143.52C160.404 143.52 159.809 143.73 159.809 143.99C159.809 144.25 160.404 144.46 161.139 144.46Z" fill="url(#paint25_linear_1596_6561)" stroke="white" stroke-width="0.56" stroke-miterlimit="10"/>
<path d="M168.699 143.13C168.699 143.13 165.719 142.63 163.199 143.53L168.699 143.13Z" fill="url(#paint26_linear_1596_6561)"/>
<path d="M168.699 143.13C168.699 143.13 165.719 142.63 163.199 143.53" stroke="white" stroke-width="0.56" stroke-miterlimit="10"/>
<path d="M159.109 144.06C159.109 144.06 156.129 143.56 153.609 144.46L159.109 144.06Z" fill="url(#paint27_linear_1596_6561)"/>
<path d="M159.109 144.06C159.109 144.06 156.129 143.56 153.609 144.46" stroke="white" stroke-width="0.56" stroke-miterlimit="10"/>
<path d="M159.461 149.41C159.461 149.41 159.581 147.01 160.711 145.2L159.461 149.41Z" fill="url(#paint28_linear_1596_6561)"/>
<path d="M159.461 149.41C159.461 149.41 159.581 147.01 160.711 145.2" stroke="white" stroke-width="0.56" stroke-miterlimit="10"/>
<path d="M161.52 142.76C161.52 142.76 161.64 140.36 162.77 138.55L161.52 142.76Z" fill="url(#paint29_linear_1596_6561)"/>
<path d="M161.52 142.76C161.52 142.76 161.64 140.36 162.77 138.55" stroke="white" stroke-width="0.56" stroke-miterlimit="10"/>
<path d="M137.529 156.75C138.264 156.75 138.859 156.54 138.859 156.28C138.859 156.02 138.264 155.81 137.529 155.81C136.795 155.81 136.199 156.02 136.199 156.28C136.199 156.54 136.795 156.75 137.529 156.75Z" fill="url(#paint30_linear_1596_6561)" stroke="white" stroke-width="0.56" stroke-miterlimit="10"/>
<path d="M145.078 155.42C145.078 155.42 142.098 154.92 139.578 155.82L145.078 155.42Z" fill="url(#paint31_linear_1596_6561)"/>
<path d="M145.078 155.42C145.078 155.42 142.098 154.92 139.578 155.82" stroke="white" stroke-width="0.56" stroke-miterlimit="10"/>
<path d="M135.5 156.35C135.5 156.35 132.52 155.85 130 156.75L135.5 156.35Z" fill="url(#paint32_linear_1596_6561)"/>
<path d="M135.5 156.35C135.5 156.35 132.52 155.85 130 156.75" stroke="white" stroke-width="0.56" stroke-miterlimit="10"/>
<path d="M135.84 161.7C135.84 161.7 135.96 159.3 137.09 157.49L135.84 161.7Z" fill="url(#paint33_linear_1596_6561)"/>
<path d="M135.84 161.7C135.84 161.7 135.96 159.3 137.09 157.49" stroke="white" stroke-width="0.56" stroke-miterlimit="10"/>
<path d="M137.91 155.05C137.91 155.05 138.03 152.65 139.16 150.84L137.91 155.05Z" fill="url(#paint34_linear_1596_6561)"/>
<path d="M137.91 155.05C137.91 155.05 138.03 152.65 139.16 150.84" stroke="white" stroke-width="0.56" stroke-miterlimit="10"/>
<path d="M132.371 136.2C135.381 134.64 137.831 134.39 139.621 134.51C144.731 134.85 150.021 138.58 150.021 138.58C150.021 138.58 149.651 145.3 147.621 144.22C144.391 142.29 141.161 140.36 137.931 138.42" fill="#41556D"/>
<path d="M123.129 151.72C123.129 151.65 123.119 151.58 123.109 151.51L123.129 151.72Z" fill="#3A5066"/>
<path d="M123.149 151.9C123.149 151.84 123.139 151.78 123.129 151.71L123.149 151.9Z" fill="#3A5066"/>
<path d="M127.809 135.59C129.969 136.38 143.819 141.85 143.819 141.85L157.769 140.3C158.589 146.25 155.139 148.37 151.099 150.15C147.059 151.93 143.239 152.21 140.129 150.53L128.709 143.6C128.779 143.93 128.819 144.22 128.819 144.44C128.819 144.82 128.709 146.51 128.589 148.55C128.589 148.55 128.569 148.56 128.569 148.57C128.449 148.64 128.329 148.71 128.229 148.8C128.189 148.82 128.149 148.84 128.119 148.86C127.959 148.92 127.819 149 127.689 149.09C127.479 149.17 127.299 149.28 127.129 149.41C126.909 149.5 126.709 149.61 126.539 149.75C126.439 149.81 126.339 149.87 126.259 149.94C126.089 150.02 125.929 150.12 125.789 150.23C125.519 150.32 125.279 150.45 125.079 150.62C124.839 150.71 124.629 150.84 124.439 150.99C124.249 151.07 124.079 151.18 123.919 151.3C123.719 151.39 123.539 151.49 123.379 151.61C123.299 151.65 123.219 151.69 123.149 151.74L123.129 151.5C122.729 147.13 122.219 141.51 122.049 139.76C121.709 136.38 125.459 134.72 127.829 135.58L127.809 135.59Z" fill="#3A5066"/>
<path opacity="0.4" d="M128.612 148.44C128.612 148.5 128.612 148.56 128.602 148.62L128.612 148.44Z" fill="#080A1F"/>
<path opacity="0.4" d="M127.232 149.42C127.232 149.24 127.252 149.05 127.262 148.86C127.482 143.82 125.832 141.86 125.832 141.86L128.682 143.51L128.792 145.02C128.762 145.83 128.692 147.07 128.612 148.45" fill="#080A1F"/>
<path d="M146.468 118.37L145.118 119.15C142.958 120.43 143.088 121.76 142.048 125.56C141.438 127.8 141.168 130.78 144.038 131.86C143.248 136.94 143.808 142.27 143.888 142.78C143.968 143.29 146.508 145.43 150.858 144.84C155.388 144.22 157.838 140.99 157.768 140.3C157.468 137.79 156.068 136.68 155.498 134.85C154.728 132.36 156.148 130.19 156.468 127.58C157.068 122.57 156.398 120.56 154.368 118.45C152.288 116.29 149.688 116.51 149.688 116.51L146.468 118.37Z" fill="url(#paint35_linear_1596_6561)"/>
<path d="M141.77 129.27C142.98 130.7 145.07 130.19 145.93 129.06C145.93 129.06 146.299 130.98 144.039 131.84C142.659 131.32 142.01 130.37 141.77 129.27Z" fill="#D9E5EC"/>
<path d="M143.498 102.2C141.988 103.38 140.978 105.97 141.258 108L142.018 113.52C142.338 115.82 144.648 116.46 146.788 115.55L149.628 114.34C150.688 113.89 151.408 112.88 151.478 111.72L151.948 106.31C152.348 104.3 151.228 102.09 149.448 101.37C147.668 100.65 145.008 101.01 143.488 102.19L143.498 102.2Z" fill="white"/>
<path d="M150.392 112.3L151.041 117.77C151.141 118.62 150.491 119.38 149.631 119.42L146.511 119.58L145.821 115.25C145.771 114.04 147.311 112.3 149.621 112.3H150.392Z" fill="white"/>
<path d="M145.93 108.84C146.04 109.67 146.27 110.38 146.34 110.86C146.41 111.34 145.3 111.39 145.07 110.5C144.84 109.62 144.73 108 144.39 107.35C144.05 106.7 143.71 106.39 143.15 105.59C143.15 105.59 141.929 104.89 141.229 105.13C140.999 103.43 142.92 101.16 146.34 100.71C149.47 100.3 152.209 102.34 152.599 104.79C152.979 107.23 152.669 112.34 152.289 113.61C151.909 114.88 148.92 115.6 147.84 115.41C146.77 115.23 146.789 112.57 146.789 112.57L145.94 108.83L145.93 108.84Z" fill="#19313A"/>
<path d="M146.68 112.55C147.71 112.97 148.47 111.41 148.39 110.42C148.31 109.43 148.09 108.45 147.32 108.09C146.55 107.73 145.93 108.84 145.93 108.84L146.68 112.55Z" fill="white"/>
<path d="M141.95 102.96C141.27 103.15 139.969 104.28 140.349 107.75C140.349 107.75 140.54 108.21 141.56 108.3L141.82 106.03L142.09 108.46C142.09 108.46 142.86 108.73 143.56 108.66V106.51L144.99 110.16C144.99 110.16 145.9 107.14 145.2 105.81C144.5 104.48 141.95 102.94 141.95 102.94V102.96Z" fill="#19313A"/>
<path d="M116.45 126.04C116.7 125.73 117.18 125.29 117.66 125.82C118.14 126.34 119.52 128.21 120.56 128.57C121.6 128.93 120.95 127.88 120.62 127.25C120.22 126.5 121.09 125.8 121.81 126.82C122.52 127.84 123.73 130.31 124.83 130.59L136.82 134.37C138.74 131.84 140.66 129.32 142.58 126.79C143.36 127.1 144.36 127.61 145.36 128.46C145.8 128.84 146.17 129.22 146.47 129.57C144.2 132.54 141.93 135.52 139.66 138.49C139.06 139.28 137.99 139.56 137.08 139.16L123.91 133.34C122.52 132.84 118.03 131.8 117.01 130.23C115.99 128.66 116.19 126.35 116.44 126.04H116.45Z" fill="white"/>
<defs>
<linearGradient id="paint0_linear_1596_6561" x1="119.708" y1="206.97" x2="119.708" y2="87.07" gradientUnits="userSpaceOnUse">
<stop stop-color="#12E582"/>
<stop offset="0.14" stop-color="#2CE78F" stop-opacity="0.89"/>
<stop offset="0.43" stop-color="#6FEFB3" stop-opacity="0.6"/>
<stop offset="0.86" stop-color="#DAFBEB" stop-opacity="0.15"/>
<stop offset="1" stop-color="white" stop-opacity="0"/>
</linearGradient>
<linearGradient id="paint1_linear_1596_6561" x1="124.239" y1="134.72" x2="60.1992" y2="134.72" gradientUnits="userSpaceOnUse">
<stop stop-color="#ABABAB"/>
<stop offset="1" stop-color="#1A1A1A"/>
</linearGradient>
<linearGradient id="paint2_linear_1596_6561" x1="125.57" y1="116.39" x2="58.8995" y2="116.39" gradientUnits="userSpaceOnUse">
<stop stop-color="white"/>
<stop offset="1" stop-color="#ABABAB"/>
</linearGradient>
<linearGradient id="paint3_linear_1596_6561" x1="105.918" y1="109.95" x2="103.258" y2="109.95" gradientUnits="userSpaceOnUse">
<stop stop-color="white"/>
<stop offset="1" stop-color="#ABABAB"/>
</linearGradient>
<linearGradient id="paint4_linear_1596_6561" x1="112.141" y1="109.22" x2="106.641" y2="109.22" gradientUnits="userSpaceOnUse">
<stop stop-color="white"/>
<stop offset="1" stop-color="#ABABAB"/>
</linearGradient>
<linearGradient id="paint5_linear_1596_6561" x1="102.559" y1="110.15" x2="97.0486" y2="110.15" gradientUnits="userSpaceOnUse">
<stop stop-color="white"/>
<stop offset="1" stop-color="#ABABAB"/>
</linearGradient>
<linearGradient id="paint6_linear_1596_6561" x1="102.77" y1="115.504" x2="103.712" y2="111.226" gradientUnits="userSpaceOnUse">
<stop stop-color="white"/>
<stop offset="1" stop-color="#ABABAB"/>
</linearGradient>
<linearGradient id="paint7_linear_1596_6561" x1="104.838" y1="108.853" x2="105.779" y2="104.575" gradientUnits="userSpaceOnUse">
<stop stop-color="white"/>
<stop offset="1" stop-color="#ABABAB"/>
</linearGradient>
<linearGradient id="paint8_linear_1596_6561" x1="82.3006" y1="122.24" x2="79.6506" y2="122.24" gradientUnits="userSpaceOnUse">
<stop stop-color="white"/>
<stop offset="1" stop-color="#ABABAB"/>
</linearGradient>
<linearGradient id="paint9_linear_1596_6561" x1="88.5273" y1="121.51" x2="83.0273" y2="121.51" gradientUnits="userSpaceOnUse">
<stop stop-color="white"/>
<stop offset="1" stop-color="#ABABAB"/>
</linearGradient>
<linearGradient id="paint10_linear_1596_6561" x1="78.9375" y1="122.44" x2="73.4375" y2="122.44" gradientUnits="userSpaceOnUse">
<stop stop-color="white"/>
<stop offset="1" stop-color="#ABABAB"/>
</linearGradient>
<linearGradient id="paint11_linear_1596_6561" x1="79.1574" y1="127.796" x2="80.0987" y2="123.519" gradientUnits="userSpaceOnUse">
<stop stop-color="white"/>
<stop offset="1" stop-color="#ABABAB"/>
</linearGradient>
<linearGradient id="paint12_linear_1596_6561" x1="81.2236" y1="121.145" x2="82.1649" y2="116.868" gradientUnits="userSpaceOnUse">
<stop stop-color="white"/>
<stop offset="1" stop-color="#ABABAB"/>
</linearGradient>
<linearGradient id="paint13_linear_1596_6561" x1="113.942" y1="99.14" x2="96.7618" y2="99.14" gradientUnits="userSpaceOnUse">
<stop stop-color="#7F3FF0"/>
<stop offset="0.1" stop-color="#7A3DE6"/>
<stop offset="0.26" stop-color="#6F39CC"/>
<stop offset="0.47" stop-color="#5D33A3"/>
<stop offset="0.72" stop-color="#432A69"/>
<stop offset="1" stop-color="#231F20"/>
</linearGradient>
<linearGradient id="paint14_linear_1596_6561" x1="101.792" y1="97.5401" x2="86.3916" y2="97.5401" gradientUnits="userSpaceOnUse">
<stop stop-color="#7F3FF0"/>
<stop offset="0.1" stop-color="#7A3DE6"/>
<stop offset="0.26" stop-color="#6F39CC"/>
<stop offset="0.47" stop-color="#5D33A3"/>
<stop offset="0.72" stop-color="#432A69"/>
<stop offset="1" stop-color="#231F20"/>
</linearGradient>
<linearGradient id="paint15_linear_1596_6561" x1="99.2929" y1="102.99" x2="90.5729" y2="87.88" gradientUnits="userSpaceOnUse">
<stop stop-color="#7F3FF0"/>
<stop offset="0.1" stop-color="#7A3DE6"/>
<stop offset="0.26" stop-color="#6F39CC"/>
<stop offset="0.47" stop-color="#5D33A3"/>
<stop offset="0.72" stop-color="#432A69"/>
<stop offset="1" stop-color="#231F20"/>
</linearGradient>
<linearGradient id="paint16_linear_1596_6561" x1="112.352" y1="147.36" x2="86.0625" y2="147.36" gradientUnits="userSpaceOnUse">
<stop stop-color="white"/>
<stop offset="1" stop-color="#ABABAB"/>
</linearGradient>
<linearGradient id="paint17_linear_1596_6561" x1="155.922" y1="142.6" x2="105.492" y2="142.6" gradientUnits="userSpaceOnUse">
<stop stop-color="white"/>
<stop offset="1" stop-color="#ABABAB"/>
</linearGradient>
<linearGradient id="paint18_linear_1596_6561" x1="148.722" y1="154.66" x2="105.492" y2="154.66" gradientUnits="userSpaceOnUse">
<stop stop-color="#ABABAB"/>
<stop offset="1" stop-color="#1A1A1A"/>
</linearGradient>
<linearGradient id="paint19_linear_1596_6561" x1="105.492" y1="162.98" x2="91.082" y2="162.98" gradientUnits="userSpaceOnUse">
<stop stop-color="#ABABAB"/>
<stop offset="1" stop-color="#1A1A1A"/>
</linearGradient>
<linearGradient id="paint20_linear_1596_6561" x1="159.802" y1="125.9" x2="85.332" y2="125.9" gradientUnits="userSpaceOnUse">
<stop stop-color="#ABABAB"/>
<stop offset="1" stop-color="#1A1A1A"/>
</linearGradient>
<linearGradient id="paint21_linear_1596_6561" x1="159.802" y1="122.86" x2="85.332" y2="122.86" gradientUnits="userSpaceOnUse">
<stop stop-color="white"/>
<stop offset="1" stop-color="#ABABAB"/>
</linearGradient>
<linearGradient id="paint22_linear_1596_6561" x1="142.421" y1="105.21" x2="128.391" y2="105.21" gradientUnits="userSpaceOnUse">
<stop stop-color="#7F3FF0"/>
<stop offset="0.1" stop-color="#7A3DE6"/>
<stop offset="0.26" stop-color="#6F39CC"/>
<stop offset="0.47" stop-color="#5D33A3"/>
<stop offset="0.72" stop-color="#432A69"/>
<stop offset="1" stop-color="#231F20"/>
</linearGradient>
<linearGradient id="paint23_linear_1596_6561" x1="180.8" y1="168.76" x2="116.75" y2="168.76" gradientUnits="userSpaceOnUse">
<stop stop-color="#ABABAB"/>
<stop offset="1" stop-color="#1A1A1A"/>
</linearGradient>
<linearGradient id="paint24_linear_1596_6561" x1="182.118" y1="150.43" x2="115.448" y2="150.43" gradientUnits="userSpaceOnUse">
<stop stop-color="white"/>
<stop offset="1" stop-color="#ABABAB"/>
</linearGradient>
<linearGradient id="paint25_linear_1596_6561" x1="162.469" y1="143.99" x2="159.819" y2="143.99" gradientUnits="userSpaceOnUse">
<stop stop-color="white"/>
<stop offset="1" stop-color="#ABABAB"/>
</linearGradient>
<linearGradient id="paint26_linear_1596_6561" x1="168.699" y1="143.26" x2="163.189" y2="143.26" gradientUnits="userSpaceOnUse">
<stop stop-color="white"/>
<stop offset="1" stop-color="#ABABAB"/>
</linearGradient>
<linearGradient id="paint27_linear_1596_6561" x1="159.109" y1="144.19" x2="153.609" y2="144.19" gradientUnits="userSpaceOnUse">
<stop stop-color="white"/>
<stop offset="1" stop-color="#ABABAB"/>
</linearGradient>
<linearGradient id="paint28_linear_1596_6561" x1="159.329" y1="149.543" x2="160.27" y2="145.266" gradientUnits="userSpaceOnUse">
<stop stop-color="white"/>
<stop offset="1" stop-color="#ABABAB"/>
</linearGradient>
<linearGradient id="paint29_linear_1596_6561" x1="161.395" y1="142.892" x2="162.336" y2="138.615" gradientUnits="userSpaceOnUse">
<stop stop-color="white"/>
<stop offset="1" stop-color="#ABABAB"/>
</linearGradient>
<linearGradient id="paint30_linear_1596_6561" x1="138.859" y1="156.28" x2="136.199" y2="156.28" gradientUnits="userSpaceOnUse">
<stop stop-color="white"/>
<stop offset="1" stop-color="#ABABAB"/>
</linearGradient>
<linearGradient id="paint31_linear_1596_6561" x1="145.078" y1="155.55" x2="139.578" y2="155.55" gradientUnits="userSpaceOnUse">
<stop stop-color="white"/>
<stop offset="1" stop-color="#ABABAB"/>
</linearGradient>
<linearGradient id="paint32_linear_1596_6561" x1="135.5" y1="156.48" x2="129.99" y2="156.48" gradientUnits="userSpaceOnUse">
<stop stop-color="white"/>
<stop offset="1" stop-color="#ABABAB"/>
</linearGradient>
<linearGradient id="paint33_linear_1596_6561" x1="135.714" y1="161.836" x2="136.656" y2="157.558" gradientUnits="userSpaceOnUse">
<stop stop-color="white"/>
<stop offset="1" stop-color="#ABABAB"/>
</linearGradient>
<linearGradient id="paint34_linear_1596_6561" x1="137.772" y1="155.183" x2="138.714" y2="150.905" gradientUnits="userSpaceOnUse">
<stop stop-color="white"/>
<stop offset="1" stop-color="#ABABAB"/>
</linearGradient>
<linearGradient id="paint35_linear_1596_6561" x1="157.768" y1="130.72" x2="141.648" y2="130.72" gradientUnits="userSpaceOnUse">
<stop stop-color="#7F3FF0"/>
<stop offset="0.1" stop-color="#7A3DE6"/>
<stop offset="0.26" stop-color="#6F39CC"/>
<stop offset="0.47" stop-color="#5D33A3"/>
<stop offset="0.72" stop-color="#432A69"/>
<stop offset="1" stop-color="#231F20"/>
</linearGradient>
</defs>
</svg>
