<svg width="296" height="104" viewBox="0 0 296 104" fill="none" xmlns="http://www.w3.org/2000/svg">
<g clip-path="url(#clip0_1800_1111)">
<path d="M133.856 34.43H116.945C116.338 32.4816 115.733 30.4675 115.126 28.4517H106.907V29.3248H102.528V24.9595H106.907V25.8325H117.081L118.9 31.8782H124.695L125.369 30.5349L133.107 30.5695L133.196 23.407C136.966 17.6292 143.828 13.0703 150.97 13.0703C158.651 13.0703 165.59 17.3025 169.228 24.019L169.363 23.9516C170.104 23.8841 170.777 23.8841 171.451 23.8841C189.574 23.8841 199.074 45.982 186.072 59.0122C182.299 62.7067 177.111 65.0579 171.451 65.0579H134.598C129.477 65.0579 124.828 62.9764 121.46 59.6173C119.439 57.6015 118.025 55.252 117.081 52.6985H116.811L114.993 58.6768H104.819V59.5499H100.439V55.252H104.819V56.0576H113.039C113.646 54.0418 114.251 52.0951 114.858 50.0793H125.907L126.648 48.736H139.316L137.16 52.6311C130.894 52.6311 128.604 52.6985 122.269 52.6985C122.876 53.9744 123.751 55.1846 124.83 56.2582C127.323 58.7425 130.758 60.2881 134.599 60.2881H171.453C175.832 60.2881 179.806 58.5419 182.704 55.6531C193.618 44.7044 184.792 25.6285 166.399 29.323C163.502 22.4043 158.853 17.8367 150.971 17.8367C146.66 17.8367 142.016 19.5171 139.653 22.5391L137.606 24.9577L137.518 30.5678" fill="#547DBE"/>
<path d="M163.903 40.3398H160.131V44.0343H163.903V40.3398Z" fill="#34A751"/>
<path d="M158.581 30.9375H156.223V33.2887H158.581V30.9375Z" fill="#F8BB15"/>
<path d="M153.055 24.0879H150.562V26.5739H153.055V24.0879Z" fill="#34A751"/>
<path d="M146.523 49.0723H143.221V52.364H146.523V49.0723Z" fill="#F8BB15"/>
<path d="M151.944 35.1699H149.182V37.9239H151.944V35.1699Z" fill="#34A751"/>
<path d="M154.436 44.0332H151.674V46.7872H154.436V44.0332Z" fill="#34A751"/>
<path d="M125.262 22.1719H121.422V26.0012H125.262V22.1719Z" fill="#34A751"/>
<path d="M105.69 13.0703H99.3574V19.384H105.69V13.0703Z" fill="#F8BB15"/>
<path d="M115.122 19.1484H110.811V23.5137H115.122V19.1484Z" fill="#F8BB15"/>
<path d="M125.096 42.2227H138.168H147.734L145.578 46.1177H122.941H117.28V46.9908H112.969V42.6929H117.28V43.566H124.355L125.096 42.2227Z" fill="#EC1C24"/>
<path d="M120.649 35.7051H144.298L142.142 39.6001H110.409L108.591 45.6458H90.0627V46.4515H85.6836V42.1536H90.0627V43.0267H106.637C107.244 41.0109 107.851 38.9968 108.456 36.981H119.909L120.651 35.7051H120.649Z" fill="#EC1C24"/>
<path d="M100.435 34.6309H96.5957V38.4602H100.435V34.6309Z" fill="#34A751"/>
<path d="M97.3362 25.3262H92.957V29.6915H97.3362V25.3262Z" fill="#F8BB15"/>
<path d="M64.1119 86.4414L69.5131 74.5144H71.1999L76.6182 86.4414H74.8292L70.0072 75.4685H70.6888L65.8668 86.4414H64.1119ZM66.4121 83.4596L66.8721 82.0966H73.5854L74.0795 83.4596H66.4121ZM79.308 83.4061L79.2182 81.215L86.3484 73.8692H88.3959L82.8821 79.6883L81.8763 80.8019L79.308 83.4061ZM77.7275 86.4414V73.8692H79.5235V86.4414H77.7275ZM86.6358 86.4414L81.4812 80.4427L82.6845 79.1136L88.7371 86.4414H86.6358ZM94.8613 86.5851C93.209 86.5851 91.9099 86.1121 90.9639 85.1662C90.018 84.2203 89.5451 82.8374 89.5451 81.0174V73.8692H91.3411V80.9456C91.3411 82.3465 91.6464 83.3702 92.2571 84.0168C92.8797 84.6633 93.7538 84.9866 94.8793 84.9866C96.0168 84.9866 96.8908 84.6633 97.5015 84.0168C98.1241 83.3702 98.4354 82.3465 98.4354 80.9456V73.8692H100.178V81.0174C100.178 82.8374 99.7046 84.2203 98.7587 85.1662C97.8248 86.1121 96.5257 86.5851 94.8613 86.5851ZM107.067 86.4414V73.8692H108.539L114.179 83.3702H113.389L118.956 73.8692H120.429L120.447 86.4414H118.723L118.705 76.5812H119.118L114.161 84.9148H113.335L108.342 76.5812H108.791V86.4414H107.067ZM123.412 86.4414V73.8692H125.208V86.4414H123.412ZM130.66 86.4414V75.4317H126.35V73.8692H136.749V75.4317H132.438V86.4414H130.66ZM137.897 86.4414V73.8692H142.8C143.901 73.8692 144.841 74.0428 145.62 74.39C146.398 74.7373 146.997 75.2402 147.416 75.8987C147.835 76.5572 148.044 77.3415 148.044 78.2515C148.044 79.1615 147.835 79.9458 147.416 80.6043C146.997 81.2509 146.398 81.7478 145.62 82.095C144.841 82.4422 143.901 82.6159 142.8 82.6159H138.884L139.693 81.7897V86.4414H137.897ZM146.302 86.4414L143.105 81.8795H145.027L148.26 86.4414H146.302ZM139.693 81.9693L138.884 81.0892H142.746C143.895 81.0892 144.763 80.8438 145.35 80.3529C145.949 79.85 146.248 79.1495 146.248 78.2515C146.248 77.3535 145.949 76.659 145.35 76.1681C144.763 75.6772 143.895 75.4317 142.746 75.4317H138.884L139.693 74.5337V81.9693ZM148.234 86.4414L153.927 73.8692H155.705L161.417 86.4414H159.531L154.448 74.875H155.167L150.084 86.4414H148.234ZM150.659 83.2984L151.143 81.8615H158.22L158.741 83.2984H150.659Z" fill="white"/>
<path d="M164.316 73.834H169.683C170.924 73.834 172.027 74.0916 172.99 74.6085C173.951 75.1237 174.696 75.8567 175.225 76.8058C175.754 77.755 176.019 78.8649 176.019 80.139C176.019 81.4132 175.754 82.5231 175.225 83.4705C174.696 84.4196 173.951 85.1526 172.99 85.6678C172.027 86.1847 170.924 86.4423 169.683 86.4423H164.316V73.834ZM169.553 83.5967C170.526 83.5967 171.306 83.2907 171.896 82.6787C172.483 82.0667 172.779 81.2195 172.779 80.139C172.779 79.0585 172.483 78.2114 171.896 77.5994C171.306 76.9874 170.526 76.6814 169.553 76.6814H167.527V83.5967H169.553Z" fill="url(#paint0_linear_1800_1111)"/>
<path d="M177.707 73.834H180.917V86.4423H177.707V73.834Z" fill="url(#paint1_linear_1800_1111)"/>
<path d="M190.803 79.8678H193.638V85.0906C192.99 85.6075 192.245 86.0034 191.403 86.28C190.559 86.5567 189.716 86.695 188.874 86.695C187.684 86.695 186.614 86.4149 185.663 85.8565C184.712 85.2981 183.967 84.5201 183.426 83.5243C182.885 82.5285 182.615 81.3996 182.615 80.1375C182.615 78.8755 182.885 77.7483 183.426 76.7507C183.967 75.7532 184.717 74.977 185.679 74.4186C186.64 73.8601 187.727 73.5801 188.938 73.5801C189.996 73.5801 190.946 73.7789 191.79 74.1748C192.634 74.5707 193.336 75.1412 193.898 75.8863L191.854 77.9385C191.086 77.0014 190.168 76.5346 189.098 76.5346C188.125 76.5346 187.342 76.8614 186.747 77.5166C186.152 78.1718 185.855 79.0449 185.855 80.1375C185.855 80.8342 185.99 81.4549 186.261 82.0012C186.531 82.5475 186.91 82.9745 187.395 83.2805C187.881 83.5865 188.438 83.7404 189.065 83.7404C189.693 83.7404 190.26 83.6021 190.799 83.3255V79.8678H190.803Z" fill="url(#paint2_linear_1800_1111)"/>
<path d="M195.682 73.834H198.892V86.4423H195.682V73.834Z" fill="url(#paint3_linear_1800_1111)"/>
<path d="M203.591 76.6623H200.105V73.834H210.269V76.6623H206.799V86.4423H203.589V76.6623H203.591Z" fill="url(#paint4_linear_1800_1111)"/>
<path d="M218.509 83.9926H213.709L212.817 86.4423H209.543L214.551 73.834H217.712L222.737 86.4423H219.397L218.505 83.9926H218.509ZM217.568 81.363L216.109 77.3279L214.65 81.363H217.568Z" fill="url(#paint5_linear_1800_1111)"/>
<path d="M223.646 73.834H226.857V83.614H232.272V86.4423H223.648V73.834H223.646Z" fill="url(#paint6_linear_1800_1111)"/>
</g>
<defs>
<linearGradient id="paint0_linear_1800_1111" x1="169.619" y1="80.3447" x2="214.506" y2="84.1499" gradientUnits="userSpaceOnUse">
<stop stop-color="#34A751"/>
<stop offset="0.33" stop-color="#F8BB15"/>
<stop offset="0.68" stop-color="#E94435"/>
<stop offset="1" stop-color="#547DBE"/>
</linearGradient>
<linearGradient id="paint1_linear_1800_1111" x1="169.706" y1="79.3247" x2="214.593" y2="83.1282" gradientUnits="userSpaceOnUse">
<stop stop-color="#34A751"/>
<stop offset="0.33" stop-color="#F8BB15"/>
<stop offset="0.68" stop-color="#E94435"/>
<stop offset="1" stop-color="#547DBE"/>
</linearGradient>
<linearGradient id="paint2_linear_1800_1111" x1="169.772" y1="78.5159" x2="214.661" y2="82.3193" gradientUnits="userSpaceOnUse">
<stop stop-color="#34A751"/>
<stop offset="0.33" stop-color="#F8BB15"/>
<stop offset="0.68" stop-color="#E94435"/>
<stop offset="1" stop-color="#547DBE"/>
</linearGradient>
<linearGradient id="paint3_linear_1800_1111" x1="169.832" y1="77.812" x2="214.719" y2="81.6154" gradientUnits="userSpaceOnUse">
<stop stop-color="#34A751"/>
<stop offset="0.33" stop-color="#F8BB15"/>
<stop offset="0.68" stop-color="#E94435"/>
<stop offset="1" stop-color="#547DBE"/>
</linearGradient>
<linearGradient id="paint4_linear_1800_1111" x1="169.899" y1="77.0012" x2="214.788" y2="80.8046" gradientUnits="userSpaceOnUse">
<stop stop-color="#34A751"/>
<stop offset="0.33" stop-color="#F8BB15"/>
<stop offset="0.68" stop-color="#E94435"/>
<stop offset="1" stop-color="#547DBE"/>
</linearGradient>
<linearGradient id="paint5_linear_1800_1111" x1="169.949" y1="76.4376" x2="214.838" y2="80.241" gradientUnits="userSpaceOnUse">
<stop stop-color="#34A751"/>
<stop offset="0.33" stop-color="#F8BB15"/>
<stop offset="0.68" stop-color="#E94435"/>
<stop offset="1" stop-color="#547DBE"/>
</linearGradient>
<linearGradient id="paint6_linear_1800_1111" x1="170.032" y1="75.4591" x2="214.919" y2="79.2625" gradientUnits="userSpaceOnUse">
<stop stop-color="#34A751"/>
<stop offset="0.33" stop-color="#F8BB15"/>
<stop offset="0.68" stop-color="#E94435"/>
<stop offset="1" stop-color="#547DBE"/>
</linearGradient>
<clipPath id="clip0_1800_1111">
<rect width="168.547" height="77.8578" fill="white" transform="translate(63.7266 13.0703)"/>
</clipPath>
</defs>
</svg>
