<svg width="296" height="104" fill="none" xmlns="http://www.w3.org/2000/svg"><path d="M198.249 33.702c1.66-1.835 3.503-3.265 5.836-3.944 2.081-.606 4.193-.673 6.295-.162 3.216.785 5.29 3.28 5.318 6.768.017 2.099-.337 4.218-.673 6.303-.655 4.028-1.422 8.039-2.119 12.064-.074.42-.189.575-.638.571a241.691 241.691 0 0 0-6.372.004c-.578.01-.63-.2-.543-.687.813-4.512 1.608-9.027 2.403-13.543.081-.448.147-.904.161-1.36.081-2.37-1.289-3.79-3.667-3.797-2.057-.003-3.545 1.01-4.67 2.656-1.005 1.475-1.349 3.167-1.643 4.887-.637 3.734-1.31 7.458-1.944 11.192-.088.511-.287.655-.795.648a270.524 270.524 0 0 0-6.306 0c-.445.004-.578-.07-.487-.571.845-4.67 1.668-9.343 2.47-14.02a7.01 7.01 0 0 0 .053-1.772c-.155-1.632-1.216-2.708-2.841-2.942-2.456-.354-4.25.68-5.57 2.68-.971 1.467-1.282 3.149-1.573 4.844-.634 3.706-1.303 7.41-1.93 11.115-.091.54-.312.68-.848.67a150.528 150.528 0 0 0-6.029 0c-.704.017-.799-.155-.679-.827 1.436-8.015 2.84-16.037 4.228-24.06.08-.472.252-.58.697-.577 2.032.02 4.067.024 6.099 0 .501-.007.571.164.487.592-.158.802-.284 1.611-.456 2.599.319-.34.512-.547.708-.753 2.897-3.058 8.215-3.962 11.893-2.025 1.429.753 2.431 1.902 3.131 3.444l.004.003ZM128.747 32.581c1.443-1.478 3.005-2.466 4.865-2.943 1.941-.497 3.892-.521 5.826 0 3.328.894 5.363 3.553 5.283 7.248-.046 2.081-.442 4.165-.782 6.232-.637 3.871-1.362 7.728-2.021 11.596-.077.458-.224.595-.686.588a231.483 231.483 0 0 0-6.236.004c-.578.01-.739-.127-.63-.722.767-4.218 1.53-8.439 2.234-12.67.183-1.09.295-2.229.183-3.318-.151-1.457-1.24-2.375-2.698-2.596-2.634-.403-5.016.806-6.13 3.339-.554 1.254-.841 2.644-1.097 4-.704 3.72-1.338 7.455-1.982 11.189-.095.54-.252.799-.89.785a176.372 176.372 0 0 0-6.236-.011c-.476.007-.571-.116-.49-.581 2.014-11.343 4.022-22.686 6.004-34.036.105-.592.33-.75.911-.74 2.056.04 4.113.029 6.166.008.458-.004.63.042.532.585-.718 3.947-1.401 7.902-2.126 12.04v.003ZM70.203 51.806c-1.692 1.934-3.647 3.072-5.931 3.689-4.07 1.1-8.523-.158-10.867-3.903-1.142-1.821-1.653-3.839-1.64-5.948.046-5.52 2.096-10.155 6.506-13.564 3.037-2.347 6.509-3.36 10.359-2.529 1.884.406 3.37 1.436 4.375 3.303.147-.931.28-1.702.389-2.48.052-.374.185-.532.61-.529 2.168.025 4.336.021 6.508.004.445 0 .519.108.442.553-1.206 6.709-2.39 13.424-3.574 20.136a181.734 181.734 0 0 0-.714 4.316c-.053.35-.182.455-.522.452a442.3 442.3 0 0 0-6.096 0c-.402 0-.451-.158-.388-.498.178-.939.343-1.881.546-3.013l-.004.011Zm-10.71-8.005c-.041 2.743 1.314 4.74 3.637 5.287 1.506.353 2.963.112 4.305-.638 2.687-1.496 3.903-3.902 4.19-6.883.368-3.805-2.564-6.38-6.274-5.48-3.318.806-5.805 4.078-5.857 7.714ZM227.827 46.467c1.313-2.462 2.56-4.788 3.8-7.118 1.605-3.009 3.209-6.018 4.793-9.038.171-.33.36-.459.732-.455 2.214.017 4.431.017 6.645 0 .512-.004.526.126.294.525-5.125 8.849-10.25 17.698-15.361 26.553-1.261 2.183-2.63 4.281-4.526 5.977-3.292 2.942-7.086 3.51-11.241 2.315-.637-.182-.837-.462-.683-1.166.35-1.601.606-3.227.855-4.849.073-.48.168-.567.627-.34 1.226.617 2.55.698 3.878.512 1.436-.2 2.553-.984 3.352-2.161.575-.845 1.048-1.762 1.538-2.66.084-.153.067-.398.024-.588-1.467-6.35-2.946-12.698-4.424-19.05-.357-1.53-.701-3.061-1.079-4.588-.094-.379-.007-.477.368-.477 2.305.01 4.614.014 6.919 0 .399 0 .546.126.616.522.764 4.38 1.548 8.758 2.33 13.133.168.94.343 1.874.543 2.953ZM161.99 44.38c-2.627 0-5.251.017-7.878-.015-.55-.007-.645.176-.606.663.15 1.968 1.18 3.313 2.995 3.947 3.156 1.104 6.067.386 8.758-1.453.903-.62.889-.638 1.481.283.75 1.17 1.496 2.348 2.263 3.507.207.312.186.48-.122.715-4.537 3.457-9.585 4.704-15.155 3.349-5.517-1.342-8.214-5.826-7.924-10.902.407-7.115 5.427-13.161 12.356-14.804 3.251-.77 6.459-.61 9.409 1.15 2.239 1.334 3.517 3.344 3.937 5.944.4 2.466.022 4.802-.84 7.104-.154.41-.368.529-.795.525-2.628-.02-5.252-.01-7.879-.01v-.004Zm-7.749-4.663c3.269 0 6.481-.007 9.693.007.375 0 .456-.15.477-.477.094-1.422-.645-2.725-1.927-3.345-3.079-1.489-7.297.427-8.243 3.811v.004ZM113.321 39.416c-.066-.081-.084-.095-.094-.116-1.818-4.41-6.807-3.948-9.417-1.534-2.277 2.108-3.24 4.732-2.557 7.797.585 2.628 3.086 4.046 5.938 3.553 1.927-.333 3.468-1.339 4.817-2.687.29-.288.445-.33.739 0a176.592 176.592 0 0 0 3.38 3.681c.249.263.214.414-.014.663-4.34 4.746-11.147 6.498-16.766 4.007-3.615-1.604-5.629-4.508-5.969-8.407-.473-5.448 1.619-9.928 5.777-13.368 3.997-3.307 8.624-4.502 13.728-3.286 2.754.655 4.712 2.414 5.984 4.925.077.154.024.512-.098.606-1.801 1.402-3.623 2.771-5.455 4.162l.007.004Z" fill="#fff"/><path d="M90.59 19.963c1.071 0 2.147.014 3.218-.007.42-.007.53.06.438.533a654.5 654.5 0 0 0-1.695 9.353 7276.15 7276.15 0 0 0-2.957 17.035 5.009 5.009 0 0 0-.063 1.023c.028.823.484 1.342 1.303 1.387.564.032 1.135-.038 1.696-.122.354-.053.508-.039.43.378-.325 1.794-.626 3.594-.963 5.388-.031.172-.238.392-.406.445-2.683.82-5.353.837-7.798-.638-1.317-.791-1.93-2.193-2.074-3.752-.175-1.891.21-3.716.578-5.559.543-2.729.981-5.479 1.465-8.218l2.29-13.039c.204-1.166.438-2.33.596-3.503.077-.567.277-.75.858-.718 1.027.056 2.057.018 3.083.014Z" fill="#fff"/><path d="M112.326 64.463c.011 2.683-2.108 4.865-4.732 4.872-2.862.01-5.031-2.095-5.024-4.886.007-2.736 2.179-4.863 4.884-4.88 2.725-.018 4.858 2.126 4.872 4.894Z" fill="#F27627"/><path d="M71.357 70.565c.08-.284.126-.725.224-.74.487-.062.991-.027 1.485.022.056.007.112.315.116.487.01 1.594-.007 3.191.014 4.785.007.424-.133.585-.547.525a1.597 1.597 0 0 0-.41 0c-.585.084-.994-.02-.823-.693-.455.242-.893.578-1.383.71-1.093.299-2.33-.339-2.67-1.463-.22-.732-.332-1.587-.178-2.323.462-2.242 2.494-2.84 4.168-1.31h.004Zm.077 2.179c.007-.876-.505-1.461-1.275-1.457-.736 0-1.296.585-1.31 1.373-.018.925.472 1.468 1.32 1.464.778-.007 1.258-.532 1.265-1.38ZM101.793 70.435c.045-.133.098-.595.221-.616.462-.077.949-.021 1.425.028.053.007.116.27.116.413.007 1.643-.007 3.29.014 4.932.003.375-.126.49-.473.449a2.273 2.273 0 0 0-.41-.004c-.543.021-1.156.123-.816-.907-.75.88-1.569 1.166-2.56.91-1.367-.353-2.106-1.845-1.819-3.684.217-1.391 1.265-2.358 2.578-2.207.603.07 1.167.452 1.727.686h-.003Zm-1.272 3.685c.774-.003 1.335-.613 1.314-1.429-.018-.781-.582-1.39-1.296-1.405-.799-.014-1.303.568-1.293 1.493.01.868.463 1.345 1.272 1.341h.003ZM85.373 73.038c-.501 0-1.006.032-1.507-.007-.529-.042-.508.22-.378.575.249.683 1.306.963 1.748.385.57-.746 1.303-.277 1.944-.417.028.168.13.368.07.5-.448 1.03-1.268 1.539-2.371 1.654-1.43.148-2.747-.725-3.129-2.098-.43-1.555.28-3.146 1.657-3.71 1.367-.56 3.006-.052 3.724 1.156.06.098.112.197.154.302.536 1.355.33 1.667-1.1 1.66h-.82.008Zm-.81-.732c.203 0 .41.017.613-.004.165-.017.452-.06.466-.126a.878.878 0 0 0-.108-.57c-.379-.62-1.437-.624-1.868-.004-.122.175-.15.41-.22.62.189.031.382.073.57.087.183.014.365 0 .547 0v-.003ZM77.958 72.786c0-.319-.01-.638 0-.957.017-.34-.032-.584-.47-.546-.098.007-.315-.193-.3-.231.167-.442-.52-1.282.591-1.31.063 0 .161-.326.168-.505.035-.886.025-.886.922-.886.09 0 .185.01.273 0 .448-.07.627.109.557.557-.098.617.042 1.016.802.907.109-.014.35.235.368.379.108.96.08.966-.827 1.124-.133.025-.319.231-.333.368-.042.452.01.91-.017 1.366-.046.662.07 1.142.897 1.082.098-.007.287.18.304.298.179 1.118.056 1.25-1.043 1.209-1.157-.046-1.798-.662-1.878-1.825-.025-.34-.004-.683-.004-1.027h-.017l.007-.003ZM90.33 70.565c.543-.284 1.03-.557 1.534-.792.27-.126.428 0 .403.319a3.26 3.26 0 0 0 0 .613c.095.666-.042 1.016-.855.995-.732-.018-1.072.455-1.082 1.201-.014.729-.017 1.458.007 2.186.014.39-.06.56-.511.564-1.342.01-1.342.032-1.342-1.303 0-1.342.014-2.687-.007-4.028-.007-.407.105-.606.536-.547.133.018.277.021.41.004.648-.091 1.1.028.907.788ZM94.94 70.607c.48-.27.971-.575 1.49-.827.27-.13.493-.045.465.333a2.29 2.29 0 0 0 0 .41c.091.722.053 1.233-.949 1.198-.704-.025-1.044.511-1.054 1.25-.01.73-.014 1.461 0 2.19.007.322-.042.48-.435.49-1.352.043-1.352.06-1.352-1.285 0-1.32.028-2.645-.014-3.966-.017-.532.165-.704.659-.623.02.003.045 0 .07 0 .67 0 1.042.278 1.117.834l.004-.004ZM54.983 74.986c-.014.126.01.259-.045.326-.105.126-.245.266-.393.294-.07.014-.273-.21-.273-.326a396.594 396.594 0 0 1 0-6.768c0-.133.203-.266.309-.4.13.137.364.27.37.41.04.771.018 1.545.018 2.446.708-.75 1.517-1.062 2.39-.823a3.296 3.296 0 0 1 1.474.879c.957 1.037.869 2.939-.087 3.955-.985 1.047-2.316 1.054-3.76 0l-.003.007Zm3.745-2.074c-.007-1.223-.837-2.147-1.923-2.147-1.107 0-1.885.89-1.892 2.161-.007 1.275.764 2.172 1.871 2.172 1.145 0 1.955-.907 1.948-2.183l-.004-.003ZM76.29 71.77c0 1.138-.01 2.277.007 3.415.007.358-.105.456-.462.466-1.324.035-1.32.053-1.32-1.247 0-1.958.013-3.916-.015-5.87-.007-.512.137-.66.648-.649 1.135.025 1.139 0 1.146 1.156.007.91 0 1.822 0 2.732l-.004-.003Z" fill="#fff"/><path d="M59.731 77.4c.6-.218 1.17-.25 1.422-.55.417-.498.75-1.097.396-1.871-.697-1.528-1.303-3.097-1.947-4.649.57-.22.833-.024 1.019.484.455 1.233.963 2.448 1.517 3.832.532-1.338 1.002-2.526 1.471-3.71.067-.168.088-.41.214-.49.182-.123.438-.13.662-.186 0 .154.049.33 0 .459-.84 2.091-1.689 4.18-2.55 6.26-.28.68-.894 1.002-1.59.932-.484-.05-.715-.242-.614-.505V77.4ZM70.079 81.911c-.473.757-1.671.799-2.284.08-.56-.658-.554-1.82.014-2.462.546-.616 1.387-.672 2.21-.171.06.038.218-.06.32-.12.08-.045.143-.126.213-.189.052.088.15.179.15.267.011 1.033.008 2.066.008 3.142-.414-.046-.004-.89-.649-.53.095-.178.204-.35.28-.535.288-.697.06-1.51-.518-1.892-.508-.336-1.359-.255-1.776.172-.48.494-.553 1.363-.161 1.969.43.669 1.188.763 2.193.273v-.004ZM86.986 81.274c-.133.953-.641 1.285-1.605 1.208-.728-.056-1.278-.606-1.377-1.373-.171-1.342.59-2.238 1.83-2.06.381.056.801.333 1.06.63.204.239.186.67.267 1.017-.277.045-.554.122-.83.133a25.31 25.31 0 0 1-1.71 0c-.357-.01-.515.164-.308.434.27.354.592.757.98.904.523.2 1.087.046 1.444-.483.091-.134.165-.277.249-.417v.007Zm-1.42-.603c.295 0 .593-.017.884.004.49.038.522-.193.385-.575-.203-.567-.63-.802-1.198-.82-.603-.017-1.044.239-1.293.803-.185.42-.108.644.407.595.27-.024.543-.003.816 0v-.007ZM91.232 79.519c-.123.47-.298.935-.358 1.412-.063.49-.013.998-.013 1.496h-.28c0-.687.038-1.374-.011-2.053-.074-1.01-.946-1.479-1.727-.883-.294.224-.414.76-.48 1.177-.088.557-.046 1.135-.063 1.702 0 .025-.07.046-.179.112v-3.401c.22.522.49.277.781.109.589-.34 1.296-.267 1.64.273.305.48.417.105.61-.035.027.028.052.06.08.09ZM94.258 79c.417.97.838 1.944 1.314 3.055.449-1.114.834-2.077 1.22-3.037l.23.094-.451 1.156-1.272 3.234c-.05.126-.08.266-.161.368-.07.087-.196.126-.298.185-.007-.115-.07-.28-.014-.343.666-.781.582-1.563.12-2.42-.372-.687-.617-1.44-.919-2.166.077-.042.154-.08.228-.122l.004-.004ZM74.699 80.29c-.69-.933-1.275-1.199-1.986-.919-.63.25-.866.771-.855 1.416.01.648.277 1.156.914 1.373.74.252 1.296-.021 1.85-.851.101.56-.333 1.054-1.016 1.163-1.075.168-1.843-.4-1.99-1.461-.133-.98.466-1.864 1.349-1.98.96-.125 1.622.313 1.734 1.255v.003ZM82.391 79.603c-.585-.357-1.195-.462-1.8-.074-.536.344-.578.897-.536 1.461.06.788.553 1.237 1.352 1.237.22 0 .445-.025.735-.039-.662.477-1.527.361-2-.207-.564-.676-.518-1.93.091-2.525.624-.606 1.545-.578 2.256.07a.428.428 0 0 0-.098.08v-.003ZM78.153 82.055c-.43.595-1.054.515-1.608.34-.676-.214-.967-.795-.998-1.493-.035-.732.157-1.373.872-1.71.62-.29 1.23-.29 1.745.25l-.084.108c-.165-.073-.323-.189-.494-.217-.585-.098-1.135-.046-1.52.494-.337.47-.355 1.317-.036 1.808.361.553.89.655 1.493.553.213-.035.424-.084.637-.126l-.007-.007ZM82.54 79.729c.09-.109.255-.21.262-.322.028-.512.014-1.03.014-1.542h.168v4.554c-.154-.427-.378-.791-.224-1.324.115-.403-.126-.907-.21-1.366l-.004.003-.007-.003Z" fill="#fff"/><path d="M91.156 79.431c.393-.55 1.006-.553 1.461-.312.347.186.645.708.711 1.121.116.712.032 1.45.032 2.18h-.242c0-.59.007-1.181 0-1.77-.014-1.278-.7-1.688-1.881-1.128-.025-.031-.053-.06-.08-.09ZM78.29 79.592c.094 0 .269.021.272 0 .042-.164.05-.34.221-.504v3.36l-.137.02c-.024-.175-.035-.357-.084-.525-.01-.032-.175-.018-.27-.021l.011.01c.375-.78.347-1.562 0-2.343l-.007.01-.007-.007Z" fill="#fff"/><path d="M78.166 79.442c.042.049.084.098.126.15l.007-.01a5.264 5.264 0 0 0-.217-.028l.084-.109v-.003ZM82.541 79.725c-.049-.042-.098-.084-.15-.122a.547.547 0 0 1 .098-.08c.014.07.031.14.045.206l.004-.004h.003ZM78.293 81.915a4.77 4.77 0 0 0-.133.14l.007.007.137-.137-.01-.01Z" fill="#fff"/></svg>