<svg width="296" height="104" fill="none" xmlns="http://www.w3.org/2000/svg"><path d="m153.949 55.5-.001-.005.004.004-.013-.174c-.013-.18-.027-.36-.027-.538l.001-1.701c.001-1.703.003-3.407-.009-5.108 0-.412.088-.54.524-.536 1.438.01 2.877.01 4.316.01 1.582 0 3.165.001 4.749.014.457 0 .545-.136.541-.56a652.3 652.3 0 0 1 0-7.914c0-.392-.096-.512-.501-.508-1.47.008-2.94.008-4.411.008-1.47 0-2.942 0-4.414.008-.364 0-.488-.076-.488-.472.016-8.41.02-16.815.008-25.224 0-.388.112-.48.48-.468.432.014.864.012 1.296.01.431-.002.862-.004 1.292.01.193.004.445.104.561.252 2.132 2.732 4.252 5.477 6.357 8.233.148.196.228.492.228.744.016 2.605.02 5.21 0 7.818 0 .4.112.504.508.504 1.994-.005 3.987-.006 5.981-.007 2.658 0 5.316-.002 7.973-.013.432 0 .556.1.552.544-.02 2.524-.02 5.053 0 7.577 0 .404-.116.504-.508.496-.933-.01-1.867-.01-2.801-.01-.841.001-1.682.002-2.524-.006-.38-.004-.52.068-.52.488.02 2.605.02 5.21 0 7.818 0 .384.108.472.48.472 2.081-.006 4.162-.006 6.243-.007 2.428 0 4.855 0 7.283-.01.388 0 .516.08.512.493-.02 1.882-.023 3.764-.027 5.647-.001.704-.002 1.41-.005 2.114h.017l.005 2.354c.005 2.092.011 4.184-.001 6.275 0 .393.092.509.496.505 1.134-.01 2.269-.01 3.405-.01 1.135 0 2.27 0 3.404-.01.372 0 .48.088.476.472-.016 2.7-.016 5.4 0 8.105 0 .368-.104.44-.452.44a34461.05 34461.05 0 0 0-40.671 0c-.412 0-.452-.148-.452-.492.012-2.636.02-5.273 0-7.913 0-.448.144-.512.544-.512 3.412.005 6.824.005 10.236.006 4.549.001 9.099.002 13.648.014.484 0 .608-.116.604-.6-.017-1.747-.013-3.495-.01-5.242l.002-2.096c0-.378.022-.539-.047-.605-.069-.066-.225-.039-.577-.039h-23.595c-.129 0-.257-.003-.385-.007a24.6 24.6 0 0 0-.192-.005 1.54 1.54 0 0 1-.092-.076c0-.19 0-.379-.003-.564h-.013l.013-.003ZM108.085 51.379c.004 1.82.012 3.644.02 5.464l-.008.004h.017l-.004 1.053c-.007 2.096-.015 4.19-.004 6.285.004.352-.076.456-.444.456-1.151-.008-2.302-.008-3.453-.008-1.151 0-2.302 0-3.453-.008-.332 0-.428.084-.428.424.012 2.72.016 5.437-.004 8.153-.004.368.104.44.452.44 13.559-.012 27.113-.012 40.671 0 .408 0 .452-.148.452-.492a515.532 515.532 0 0 1 0-7.865c.004-.488-.152-.564-.592-.564-7.891.008-15.783.008-23.674.008h-.018c-.043 0-.085-.002-.128-.004a1.541 1.541 0 0 0-.256.004c-.272.028-.364-.08-.356-.352.008-.382.005-.765.003-1.148a55.347 55.347 0 0 1-.003-.577l-.016-2.894-.016-2.907h-.007c.081-.453.371-.68.871-.68h4.712c6.279 0 12.557-.001 18.836.008.408 0 .54-.08.536-.52a451.705 451.705 0 0 1-.008-7.721c.004-.408-.116-.5-.508-.5-1.512.008-3.024.008-4.534.008-1.511 0-3.021 0-4.532.008-.396 0-.54-.064-.54-.512.024-2.657.02-5.31 0-7.962 0-.396.104-.504.504-.504 1.457.01 2.912.01 4.367.01 1.454 0 2.908 0 4.363.01.456.004.584-.1.584-.572-.02-8.341-.02-16.686-.02-25.028l-.003-.08a.778.778 0 0 1 .003-.16c.032-.26-.088-.32-.332-.32-.332.003-.663.002-.994 0a44.452 44.452 0 0 0-1.739.016.882.882 0 0 0-.588.288c-2.104 2.697-4.196 5.401-6.273 8.117a1.521 1.521 0 0 0-.284.869c-.02 2.576-.024 5.148-.004 7.72.004.445-.12.553-.556.553-2.461-.01-4.923-.011-7.386-.012-2.189 0-4.379 0-6.568-.008-.396 0-.504.092-.504.496.02 2.544.02 5.085 0 7.625-.004.404.116.5.508.496.789-.009 1.578-.007 2.367-.006.971.002 1.941.004 2.91-.014.484-.012.568.14.568.589a440.49 440.49 0 0 0 0 7.625c.008.472-.12.572-.576.572a1885.41 1885.41 0 0 0-7.671-.014c-1.918 0-3.837-.001-5.756-.006-.388 0-.52.08-.512.492.02.858.016 1.715.012 2.572-.002.357-.004.715-.004 1.073ZM105.882 81.311c.548.264 1.008.716 1.048 1.472.04.729-.248 1.309-.92 1.585-.492.2-1.04.348-1.568.368-1.261.052-2.525.012-3.785.024-.26 0-.36-.056-.356-.34.012-2.013.004-4.025.016-6.037 0-.116.124-.328.188-.328 1.516.016 3.04-.032 4.541.12 1.168.12 1.776 1.02 1.504 2.012-.112.4-.436.744-.668 1.128v-.004Zm-2.493 1.824h.624c.317-.008.593-.104.605-.472.008-.372-.292-.464-.584-.496-.333-.032-.673.008-1.005-.028-.396-.044-.5.088-.508.492-.008.436.128.573.536.508.108-.015.224 0 .336 0l-.004-.004Zm-.18-2.508v.008c.208-.012.444.04.612-.048.196-.1.329-.316.493-.484-.176-.148-.333-.38-.533-.428-.32-.072-.664-.028-1-.02-.072 0-.204.036-.208.06-.02.268-.044.54-.008.804.008.052.264.076.408.104.076.012.16 0 .24 0l-.004.004ZM133.016 81.263c.68.324 1.136.796 1.16 1.577.02.688-.256 1.252-.884 1.512-.52.212-1.096.36-1.656.388-1.229.056-2.461.008-3.689.024-.312.004-.4-.08-.4-.396.016-1.98.004-3.96.02-5.941 0-.128.128-.368.196-.368 1.484.008 2.968.04 4.449.084.184.004.372.092.548.16 1.292.512 1.504 1.94.424 2.82-.048.04-.096.08-.164.14h-.004Zm-2.365 1.873h.624c.301-.008.557-.108.581-.444.028-.372-.264-.492-.561-.516a11.604 11.604 0 0 0-1.292-.017c-.076 0-.2.092-.22.164-.164.62-.008.817.624.817h.24l.004-.004Zm-.112-3.493v.012c-.176 0-.356-.028-.524.012-.096.024-.232.164-.228.244.016.24.068.676.144.684.42.048.86.028 1.276-.052.136-.024.325-.296.317-.44-.012-.148-.213-.34-.373-.408-.18-.076-.408-.036-.612-.048v-.004ZM193.472 81.051c0-.98.012-1.828-.009-2.672-.004-.276.077-.356.349-.348.512.02 1.024.024 1.532 0 .288-.012.336.1.336.36a760.288 760.288 0 0 0 0 6.04c0 .24-.048.369-.312.325h-.048c-1.076.188-1.877-.144-2.481-1.104-.412-.656-.988-1.209-1.576-1.913v.593c0 .688-.016 1.376.008 2.06.008.3-.076.384-.372.372a17.789 17.789 0 0 0-1.532 0c-.26.012-.316-.088-.316-.328.008-2.029.012-4.057 0-6.09 0-.267.1-.34.336-.307a.385.385 0 0 0 .096 0c1.056-.2 1.804.184 2.392 1.088.428.66 1.004 1.224 1.597 1.928v-.004ZM144.291 77.847c2.304 0 3.868 1.536 3.784 3.748-.048 1.28-.728 2.233-1.784 2.865-1.552.928-4.461.72-5.465-1.564-1.088-2.48.592-5.093 3.461-5.05h.004Zm1.488 3.532c-.004-1.04-.756-1.796-1.656-1.664-.896.132-1.409.904-1.301 1.96.084.837.753 1.457 1.521 1.42.844-.043 1.44-.751 1.432-1.712l.004-.004ZM176.828 81.411c0 .988-.008 1.98.008 2.969.004.288-.068.396-.372.38a15.055 15.055 0 0 0-1.532 0c-.317.016-.369-.104-.361-.384.02-.605 0-1.213.012-1.82.004-.22-.052-.313-.292-.305-.512.016-1.02.016-1.532 0-.24-.008-.296.084-.292.304.012.608-.008 1.212.012 1.82.008.28-.044.4-.36.385a17.345 17.345 0 0 0-1.58 0c-.256.008-.32-.088-.32-.332.008-2.029.008-4.057.004-6.081 0-.212.044-.32.288-.312.56.016 1.116.016 1.676 0 .244-.008.292.088.288.308-.012.56.012 1.116-.008 1.676-.012.284.056.404.368.388.46-.024.928-.024 1.388 0 .312.016.376-.104.364-.388-.02-.54.008-1.084-.012-1.628-.008-.26.052-.368.337-.356.524.02 1.056.02 1.58 0 .288-.012.34.108.336.364-.012 1.004-.004 2.012-.004 3.016l.004-.004ZM158.267 80.439c.696-.768 1.293-1.452 1.929-2.104.152-.16.42-.272.644-.284.664-.036 1.328-.012 2.112-.012-.596.66-1.128 1.24-1.652 1.832-.336.376-.888.752-.912 1.16-.024.376.512.796.808 1.192.592.793 1.188 1.585 1.78 2.377.02.024.028.056.076.156-.868 0-1.7.008-2.532-.012-.092 0-.2-.14-.272-.236-.416-.54-.824-1.093-1.241-1.637-.256-.332-.412-.328-.6.056-.088.176-.112.388-.128.588-.028.397.124.969-.076 1.14-.244.209-.78.085-1.188.097-.224.008-.448-.012-.672.004-.228.016-.3-.068-.3-.296.008-2.045.008-4.089 0-6.133 0-.236.08-.3.304-.296.528.012 1.056.02 1.58 0 .272-.012.356.072.348.344-.02.648-.008 1.3-.008 2.064ZM185.282 84.756c-.68 0-1.352.02-2.02-.016-.144-.008-.336-.192-.404-.344-.348-.784-.336-.792-1.172-.792-.208 0-.42.032-.62-.004-.76-.14-1.236.104-1.4.9-.02.108-.24.24-.369.244-.652.024-1.308.012-2.012.012.044-.136.072-.252.12-.356.872-2 1.756-4.001 2.613-6.01.124-.287.268-.371.564-.36.524.025 1.056-.007 1.58.017.124.004.312.104.356.208.94 2.128 1.864 4.264 2.788 6.4.004.013-.008.033-.024.097v.004Zm-3.384-2.825-.604-1.592c-.112.276-.18.432-.24.592-.288.758-.006 1.091.848 1h-.004ZM114.983 84.756c-.708 0-1.409.016-2.109-.016-.116-.004-.268-.184-.328-.316-.36-.817-.352-.82-1.248-.82-.368 0-.74.031-1.1-.009-.396-.048-.604.108-.668.48-.104.573-.432.765-1.004.693-.473-.056-.957-.012-1.437-.016-.032 0-.064-.012-.144-.024l.76-1.749c.669-1.532 1.349-3.064 2.005-4.604.112-.264.248-.353.528-.34.528.023 1.056-.008 1.58.016.14.007.344.111.392.228.932 2.096 1.848 4.204 2.765 6.309.016.04.008.092.012.172l-.004-.004Zm-3.393-2.8-.624-1.637c-.236.624-.42 1.112-.62 1.636h1.244ZM152.435 84.956c-1.492-.032-2.741-.544-3.409-1.957-.628-1.328-.52-2.648.384-3.836 1.277-1.676 4.345-1.796 5.781-.26.188.2.244.332-.008.528-.336.268-.656.56-.96.864-.18.18-.284.152-.46-.016-.7-.664-1.516-.768-2.16-.304-.616.444-.828 1.42-.484 2.22.412.957 1.692 1.213 2.488.445.348-.34.536-.293.82.023.224.249.476.477.744.673.28.208.212.36.004.564-.764.748-1.688 1.056-2.744 1.056h.004Z" fill="#fff"/><path d="M166.627 84.956c-1.493-.032-2.737-.548-3.405-1.96-.624-1.329-.516-2.649.392-3.837 1.28-1.672 4.357-1.788 5.785-.252.196.212.232.352-.02.528-.144.1-.264.232-.396.348-.236.212-.452.544-.72.6-.196.04-.46-.292-.704-.444-.528-.332-1.28-.316-1.761.048-.628.476-.728 1.148-.588 1.856.248 1.257 1.685 1.68 2.641.768.288-.276.452-.28.712 0 .236.257.5.496.78.704.316.237.232.409-.004.633-.764.72-1.676 1.02-2.712 1.016v-.008ZM115.442 81.4c0-1.005.008-2.013-.004-3.017 0-.272.076-.36.352-.352.512.02 1.025.024 1.533 0 .292-.012.38.068.376.368-.016 1.356.016 2.716-.02 4.072-.012.444.136.528.536.513.716-.032 1.436 0 2.156-.016.288-.008.4.08.38.38-.024.38.012.768-.02 1.148-.008.1-.172.264-.264.264-1.58.016-3.16.008-4.745.016-.288 0-.3-.144-.296-.36.004-1.004 0-2.013 0-3.017h.016ZM135.014 81.42c0-.989.016-1.981-.008-2.97-.008-.343.104-.435.432-.415.492.028.992.024 1.484 0 .28-.012.344.084.344.352-.012 1.388.004 2.776-.012 4.168 0 .325.072.445.416.433.749-.028 1.501.004 2.253-.016.316-.008.42.096.396.408-.036.44.136 1.044-.092 1.284-.22.232-.832.104-1.272.108-1.133.008-2.269-.024-3.401.016-.488.016-.58-.144-.564-.588.036-.924.012-1.853.012-2.777h.012v-.004ZM123.546 81.431c0 .972-.008 1.949.004 2.92.004.293-.044.433-.385.409-.508-.032-1.02-.016-1.532-.004-.224.004-.348-.024-.348-.304.012-2.045.012-4.089.004-6.133 0-.24.096-.292.312-.288.544.012 1.088.016 1.628 0 .269-.008.317.096.313.332-.012 1.02-.004 2.044-.004 3.064l.008.004ZM187.913 81.443c0 .988-.008 1.98.008 2.969.004.272-.076.356-.348.348a23.15 23.15 0 0 0-1.581 0c-.24.008-.336-.06-.332-.316.012-2.029.012-4.057 0-6.085 0-.252.076-.332.328-.324.528.016 1.057.02 1.581 0 .272-.013.352.072.348.348-.016 1.02-.008 2.044-.008 3.064l.004-.004ZM141.094 88.156c-.516.88-1.032 1.76-1.548 2.637-.248.42-.32.42-.568 0-.512-.86-1.02-1.72-1.636-2.565v1.829c0 .448.012.896-.012 1.34-.004.092-.144.176-.22.264-.08-.084-.228-.164-.228-.248a202.15 202.15 0 0 1 0-4.12c0-.08.12-.237.132-.229.132.052.304.1.372.208.532.868 1.044 1.752 1.564 2.633.088.152.18.3.312.528.116-.18.208-.312.292-.456.508-.868 1-1.745 1.524-2.6.088-.145.3-.217.452-.32.044.151.124.303.124.451.012 1.228.012 2.46 0 3.689 0 .168.152.452-.22.464-.42.012-.236-.308-.236-.48-.016-1-.008-2-.008-3.005l-.092-.024-.004.004ZM128.245 88.152c-.5.848-1 1.697-1.504 2.545-.316.536-.364.532-.692-.02-.484-.825-.968-1.645-1.516-2.569-.024.22-.048.332-.048.448 0 .928.008 1.853-.012 2.78 0 .109-.168.217-.256.325-.068-.112-.192-.22-.196-.332a209.158 209.158 0 0 1 0-3.88c0-.133.084-.265.128-.397.136.08.324.132.396.248.536.868 1.044 1.752 1.564 2.633.088.143.18.287.312.5.592-1.017 1.152-1.973 1.712-2.933.072-.124.128-.268.228-.364a.346.346 0 0 1 .296-.072c.064.02.136.156.14.24.008 1.356.012 2.716-.004 4.073 0 .096-.164.188-.252.28-.068-.092-.2-.184-.2-.276-.016-1.069-.008-2.137-.008-3.2l-.088-.029ZM164.883 90.749c0-1.204-.008-2.273.008-3.34 0-.12.12-.317.22-.345.316-.084.256.176.256.356 0 1.276.004 2.553 0 3.833 0 .136-.076.272-.116.404-.16-.08-.364-.116-.468-.244-.864-1.064-1.712-2.144-2.564-3.22-.04-.049-.084-.097-.204-.229v.672c0 .909.008 1.82-.012 2.729 0 .1-.153.192-.237.288-.08-.096-.228-.196-.232-.292a214.328 214.328 0 0 1-.004-3.929c0-.128.06-.252.088-.38.16.072.377.096.477.22.816 1 1.612 2.02 2.416 3.033.096.124.204.24.368.44l.004.004ZM113.862 87.052c1.38.004 2.4 1 2.388 2.328-.012 1.325-1.048 2.297-2.436 2.285-1.353-.012-2.369-1-2.369-2.305 0-1.32 1.036-2.312 2.413-2.308h.004Zm-.004.44c-1.12 0-1.933.8-1.921 1.884.008 1.08.837 1.86 1.961 1.845 1.088-.016 1.88-.812 1.872-1.885-.008-1.068-.816-1.848-1.908-1.844h-.004ZM153.46 88.648c0 .448.032.896-.008 1.34-.088 1.057-.768 1.66-1.845 1.673-1.132.016-1.864-.54-1.948-1.605-.072-.92-.032-1.852-.02-2.776 0-.076.164-.152.248-.228.076.088.212.172.216.264.016.816 0 1.628.012 2.444.02.92.472 1.417 1.3 1.465.985.056 1.541-.448 1.561-1.44.016-.785 0-1.565.008-2.349 0-.172-.084-.396.252-.384.34.008.224.244.228.404.012.4.004.8.004 1.196h-.012l.004-.004ZM102.7 86.948c.453.176.909.34 1.349.54.088.04.176.264.14.348-.104.24-.256.108-.408 0a2.018 2.018 0 0 0-2.369.06 1.86 1.86 0 0 0-.6 2.068c.388 1.157 1.88 1.637 2.937.94.148-.095.308-.32.44-.031.04.088-.092.32-.204.4-.84.572-2.113.504-2.917-.136-.736-.585-1.032-1.633-.716-2.553.32-.936 1.228-1.54 2.352-1.644l-.004.008ZM191.656 87.1c.368-.136.552.012.716.3.424.728.873 1.445 1.353 2.225.476-.776.92-1.504 1.368-2.233.144-.232.371-.334.68-.308-.464.76-.888 1.529-1.38 2.249-.34.5-.512 1.008-.444 1.604.02.188.02.384-.012.572-.012.06-.148.14-.228.144-.08 0-.164-.08-.24-.136-.016-.012-.012-.064-.004-.092.24-1.2-.421-2.096-1.017-3.016-.276-.425-.528-.865-.792-1.305V87.1ZM182.917 89.565c0-.576-.012-1.149.004-1.725.008-.264-.064-.376-.344-.356a7.01 7.01 0 0 1-1.004-.008c-.096-.008-.18-.144-.272-.224.096-.068.188-.196.284-.196 1.052-.016 2.108-.016 3.16 0 .092 0 .18.14.268.212-.096.072-.184.2-.288.208-.316.028-.64.028-.956.004-.292-.02-.38.076-.376.372.016 1.132.012 2.265 0 3.4 0 .157.12.397-.224.409-.376.012-.252-.252-.256-.424-.012-.56-.004-1.116 0-1.676l.004.004ZM173.517 89.312c0-.656-.008-1.308.012-1.964 0-.1.148-.196.232-.296.08.096.232.192.236.292.016 1.34.016 2.684 0 4.025 0 .1-.152.196-.232.296-.08-.096-.232-.192-.236-.292-.02-.688-.012-1.373-.012-2.06ZM153.957 56.071Z" fill="#fff"/></svg>