<svg width="296" height="104" fill="none" xmlns="http://www.w3.org/2000/svg"><g clip-path="url(#a)"><path d="m188.968 25.253-55.324 2.125a5.926 5.926 0 1 0 .455 11.843l55.324-2.126a5.926 5.926 0 1 0-.455-11.842Z" fill="#FFDA00"/><path d="M136.865 29.296c-.526 0-1.098-.01-1.75-.032h-.068c-.071 0-.122 0-.15-.006a1.386 1.386 0 0 1-.972-.444 1.426 1.426 0 0 1 .254-2.163c.232-.153.503-.235.781-.235h.059c.207.006.466.039.771.077.639.09 1.283.139 1.928.147 1.425 0 2.628-.31 3.676-.938.873-1.375 1.077-2.417 1.307-4.755a2.091 2.091 0 0 1-.815-.399l-.008-.007a1.849 1.849 0 0 1-.621-1.836c.094-.395.31-.678.511-.931l.048-.061c.071-.097.137-.188.207-.28l.019-.028.64-.643c.113-.278.269-.535.462-.764l.014-.015.039-.043a.72.72 0 0 1 .713-.2.797.797 0 0 1 .495.448l.018.043.01.045c.012.064.025.135.035.207l.019.01a.7.7 0 0 1 .376.62v.039a.7.7 0 0 1 .455.772 7.505 7.505 0 0 1-.959 2.519c-.07 3.415-.192 5.598-1.2 6.983-1.13 1.557-3.248 1.87-6.294 1.87Z" fill="#FFDA00"/><path d="M143.662 20.335c-.474 0-.884-.567-1.691-1.744-.151-.218-.304-.443-.451-.65a6.734 6.734 0 0 0-.621-.738c-.267-.283-.477-.507-.437-.834.035-.282.245-.445.402-.544a.675.675 0 0 1 .366-.104c.644 0 1.493.867 2.07 1.678.261.367 1.526 2.228.68 2.832a.546.546 0 0 1-.321.103l.003.002Z" fill="#FFDA00"/><path d="m142.362 17.695-.214.29c-.195.25-.401.492-.481.828a1.426 1.426 0 0 0 .484 1.396c.29.23.648.358 1.018.362-.278 2.926-.475 3.994-1.627 5.692l.332-.35c-2.723 1.817-5.81.976-6.878.94a.985.985 0 0 0-1.05.948.98.98 0 0 0 .27.718.99.99 0 0 0 .703.308c.065.004.129.004.194 0 8.26.273 8.661-1.081 8.811-8.474 0-.02 0-.04.009-.05.468-.75.791-1.582.954-2.451a.264.264 0 0 0-.396-.271c-.03.01-.049.032-.079.042.015-.165.02-.332.014-.498a.277.277 0 0 0-.151-.24.258.258 0 0 0-.213.001 4.737 4.737 0 0 0-.068-.517.368.368 0 0 0-.221-.207.276.276 0 0 0-.271.08l-.039.042c-.181.216-.324.46-.423.725" fill="#885F27"/><path d="M142.944 17.653c-.724-1.017-1.546-1.656-1.852-1.46-.529.336.049.479.777 1.497.727 1.019 1.561 2.4 1.863 2.189.301-.211-.06-1.208-.788-2.226Z" fill="#885F27"/><g filter="url(#b)"><path d="M134.095 20.439c-1.751-2.902-4.379-4.6-7.171-4.982H116.14c-3.01 0-5.802 1.642-7.829 4.707-2.025 3.012-3.12 6.899-3.12 11.113 0 4.325 1.15 8.376 3.285 11.333 2.025 2.898 4.708 4.543 7.609 4.543h10.785c2.682-.218 5.255-1.806 7.117-4.708 2.025-3.01 3.12-6.898 3.12-11.113 0-3.996-1.04-7.937-3.012-10.893Z" fill="#FFDA00"/><g filter="url(#c)"><path d="M120.027 17.532h-3.234c-2.617 0-5.043 1.427-6.803 4.09-1.76 2.617-2.713 5.995-2.713 9.659 0 3.758 1 7.279 2.855 9.847 1.76 2.522 4.091 3.949 6.613 3.949h3.231c2.331-.19 4.567-1.57 6.185-4.092 1.759-2.616 2.711-5.994 2.711-9.657 0-3.473-.903-6.898-2.616-9.468-1.567-2.521-3.797-3.996-6.229-4.328Z" fill="#875E27"/><path d="M125.64 31.424c0-3.616-.998-6.709-2.522-9.135-1.093-1.57-2.33-2.855-3.852-3.473v-.669h-2.617c-4.948 0-8.989 5.95-8.989 13.182 0 3.758 1.095 7.14 2.76 9.61 1.57 2.235 3.758 3.662 6.184 3.662h2.617v-.714c3.802-1.665 6.419-6.612 6.419-12.463Z" fill="#F9B82A"/><path d="M119.366 44.742h-2.76c-2.332 0-4.567-1.332-6.28-3.759-1.759-2.52-2.76-5.946-2.76-9.61 0-7.326 4.092-13.32 9.135-13.32h2.761v.62a10.005 10.005 0 0 1 3.756 3.473c1.57 2.52 2.522 5.757 2.522 9.23 0 5.803-2.522 10.94-6.28 12.701l-.094.667v-.002Zm-2.665-26.492c-4.805 0-8.796 5.804-8.796 13.083 0 3.616.999 6.994 2.712 9.467 1.57 2.331 3.758 3.616 6.089 3.616h2.522v-.57h.095c1.759-.81 3.33-2.427 4.472-4.664 1.141-2.236 1.759-5.042 1.759-7.896 0-3.426-.904-6.614-2.427-9.04-1.138-1.57-2.521-2.76-3.948-3.425h-.095v-.62l-2.38.047-.003.002Z" fill="#B28445"/><path d="M125.875 22.194c-1.569-2.522-3.948-4.092-6.469-4.092-4.949 0-8.992 5.947-8.992 13.179 0 3.758 1.094 7.14 2.759 9.61 1.57 2.235 3.758 3.662 6.185 3.662 4.948 0 8.991-5.946 8.991-13.177-.099-3.52-.999-6.757-2.474-9.182Zm-6.042 19.077h-.427c-1.76 0-3.427-1.094-4.663-2.711-1.237-1.714-2.094-4.092-2.141-6.804v-.428c0-5.47 3.045-9.991 6.709-9.991h.427c3.473.38 6.28 4.663 6.28 9.991v.428c-.044 5.233-2.807 9.182-6.185 9.515Z" fill="#F6E244"/><path d="M119.36 44.742c-2.332 0-4.568-1.332-6.281-3.759-1.759-2.52-2.759-5.946-2.759-9.61 0-7.326 4.043-13.32 9.04-13.32 2.52 0 4.804 1.426 6.519 4.091 1.57 2.52 2.521 5.757 2.521 9.23-.002 7.28-4.093 13.368-9.04 13.368Zm0-26.5c-4.806.008-8.804 5.803-8.804 13.086 0 3.616.999 6.994 2.712 9.467 1.569 2.331 3.758 3.615 6.089 3.615 4.805 0 8.802-5.804 8.802-13.082 0-3.425-.905-6.613-2.427-9.04-1.711-2.616-3.896-4.038-6.372-4.038v-.007Zm0 23.265c-1.76 0-3.473-1-4.761-2.76-1.331-1.76-2.093-4.281-2.141-6.898v-.426c0-5.566 3.046-10.134 6.899-10.134h.428c3.616.381 6.471 4.76 6.471 10.134v.428c-.191 5.185-2.855 9.325-6.471 9.658h-.428l.003-.002Zm0-20.03c-3.664 0-6.614 4.425-6.614 9.849v.427c.095 2.617.809 5.044 2.093 6.71 1.242 1.712 2.854 2.71 4.473 2.71h.427c3.426-.38 5.995-4.423 6.186-9.417v-.427c0-5.185-2.713-9.468-6.186-9.848l-.379-.004Z" fill="#B28445"/><path d="M119.838 21.432h-.713c3.473.38 6.279 4.663 6.279 9.991v.428c-.19 5.138-2.854 9.23-6.279 9.468h.713c3.425-.381 6.185-4.473 6.28-9.468v-.428c.048-5.375-2.76-9.655-6.28-9.99Z" fill="#FAB217"/><path d="M119.361 41.508h-.381v-.238h.096c3.425-.38 5.993-4.424 6.184-9.417v-.43c0-5.186-2.711-9.468-6.184-9.849h-.096v-.238h.904c3.616.381 6.471 4.76 6.471 10.135v.427c-.191 5.185-2.855 9.325-6.471 9.658a2.127 2.127 0 0 0-.523-.048Zm1.332-19.74c2.759 1.332 4.76 5.185 4.76 9.61v.428c-.095 4.282-2.093 7.898-4.76 9.23 2.854-.904 5.138-4.657 5.186-9.23v-.428c.142-4.618-2.094-8.661-5.186-9.61Z" fill="#B28445"/><path d="M123.163 17.532h-3.235c-2.616 0-5.042 1.427-6.803 4.09-1.759 2.617-2.711 5.995-2.711 9.659 0 3.758.999 7.279 2.854 9.847 1.759 2.522 4.092 3.949 6.613 3.949h3.235c2.331-.19 4.567-1.57 6.185-4.092 1.759-2.616 2.711-5.994 2.711-9.657 0-3.473-.903-6.898-2.616-9.468-1.57-2.521-3.806-3.996-6.233-4.328Z" fill="#875E27"/><path d="M128.784 31.424c0-3.616-.999-6.709-2.521-9.135-1.095-1.57-2.331-2.855-3.853-3.473v-.669h-2.618c-4.947 0-8.991 5.947-8.991 13.179 0 3.758 1.095 7.14 2.76 9.609 1.57 2.236 3.758 3.663 6.184 3.663h2.614v-.714c3.809-1.662 6.425-6.61 6.425-12.46Z" fill="#F9B82A"/><path d="M122.694 44.742h-2.76c-2.331 0-4.567-1.332-6.28-3.759-1.759-2.52-2.759-5.994-2.759-9.61 0-7.326 4.044-13.32 9.039-13.32h2.76v.62a10.01 10.01 0 0 1 3.757 3.473c1.571 2.52 2.522 5.757 2.522 9.23 0 2.854-.621 5.66-1.759 7.944-1.139 2.236-2.711 3.854-4.472 4.76l-.047.667-.001-.005Zm-2.855-26.492c-4.805 0-8.796 5.804-8.796 13.083 0 3.616.999 6.994 2.712 9.467 1.57 2.331 3.758 3.616 6.089 3.616h2.513v-.57h.104c1.759-.81 3.33-2.427 4.471-4.663 1.142-2.237 1.76-5.043 1.76-7.897 0-3.426-.904-6.614-2.426-9.04-1.138-1.57-2.522-2.76-3.854-3.425h-.095v-.62l-2.478.049Z" fill="#B28445"/><path d="M128.969 22.194c-1.57-2.522-3.949-4.092-6.47-4.092-4.947 0-8.991 5.947-8.991 13.179 0 3.758 1.094 7.14 2.759 9.61 1.57 2.235 3.758 3.662 6.185 3.662 4.947 0 8.991-5.946 8.991-13.177a16.625 16.625 0 0 0-2.474-9.182Zm-5.947 19.077h-.427c-1.76 0-3.426-1.094-4.663-2.711-1.242-1.714-2.093-4.092-2.14-6.804v-.428c0-5.47 3.044-9.991 6.707-9.991h.428c3.474.38 6.28 4.663 6.28 9.991v.428c-.047 5.233-2.854 9.182-6.185 9.515Z" fill="#F6E244"/><path d="M122.5 44.742c-2.331 0-4.568-1.332-6.28-3.759-1.759-2.52-2.759-5.994-2.759-9.61 0-7.326 4.044-13.32 9.039-13.32 2.521 0 4.805 1.426 6.52 4.091 1.569 2.52 2.521 5.757 2.521 9.23-.002 7.28-4.093 13.368-9.041 13.368Zm0-26.5c-4.802.008-8.801 5.803-8.801 13.086 0 3.616.999 6.994 2.711 9.467 1.57 2.331 3.759 3.615 6.09 3.615 4.805 0 8.796-5.804 8.796-13.082 0-3.425-.904-6.613-2.426-9.04-1.66-2.616-3.944-4.038-6.37-4.038v-.007Zm0 23.265c-1.759 0-3.473-1-4.76-2.76-1.332-1.76-2.092-4.281-2.14-6.898v-.426c0-5.566 3.044-10.134 6.898-10.134h.427c3.616.381 6.471 4.76 6.471 10.134v.428c-.19 5.185-2.855 9.325-6.471 9.658h-.427l.002-.002Zm0-20.03c-3.663 0-6.612 4.425-6.612 9.849v.427c.094 2.617.808 5.044 2.092 6.71 1.242 1.712 2.855 2.71 4.473 2.71h.428c3.425-.38 5.994-4.423 6.184-9.417v-.427c0-5.185-2.711-9.468-6.184-9.848l-.381-.004Z" fill="#B28445"/><path d="M123.025 21.432h-.713c3.473.38 6.28 4.663 6.28 9.991v.428c-.191 5.138-2.854 9.23-6.28 9.468h.713c3.426-.381 6.186-4.473 6.281-9.468v-.428c-.095-5.375-2.855-9.655-6.281-9.99Z" fill="#FAB217"/><path d="M122.499 41.508h-.38v-.238h.095c3.33-.38 5.994-4.424 6.089-9.417v-.43c0-5.186-2.711-9.468-6.184-9.849h-.096v-.238h.904c3.616.381 6.471 4.76 6.471 10.135v.427c-.191 5.185-2.855 9.325-6.471 9.658-.047-.048-.237-.048-.428-.048Zm1.332-19.74c2.759 1.332 4.761 5.185 4.761 9.61v.428c-.096 4.282-2.094 7.898-4.761 9.23 2.854-.904 5.138-4.657 5.186-9.23v-.428c.143-4.618-2.141-8.661-5.186-9.61Z" fill="#B28445"/><path d="M126.164 17.532h-3.236c-2.616 0-5.042 1.427-6.803 4.09-1.759 2.617-2.711 5.995-2.711 9.659 0 3.758.999 7.279 2.854 9.847 1.759 2.522 4.092 3.949 6.614 3.949h3.235c2.33-.19 4.566-1.57 6.184-4.092 1.759-2.616 2.712-5.994 2.712-9.657 0-3.473-.904-6.898-2.617-9.468-1.522-2.521-3.806-3.996-6.232-4.328Z" fill="#875E27"/><path d="M131.822 31.424c0-3.616-.999-6.709-2.521-9.135-1.095-1.57-2.331-2.855-3.853-3.473v-.669h-2.617c-4.948 0-8.991 5.947-8.991 13.179 0 3.758 1.094 7.14 2.759 9.609 1.57 2.236 3.758 3.663 6.185 3.663h2.711v-.714c3.663-1.662 6.327-6.61 6.327-12.46Z" fill="#F9B82A"/><path d="M125.638 44.742h-2.759c-2.331 0-4.568-1.332-6.28-3.759-1.76-2.52-2.759-5.994-2.759-9.61 0-7.326 4.091-13.32 9.039-13.32h2.759v.62a10.023 10.023 0 0 1 3.758 3.473c1.57 2.52 2.521 5.757 2.521 9.23 0 5.803-2.521 10.94-6.279 12.701v.665Zm-2.759-26.492c-4.806 0-8.805 5.795-8.805 13.078 0 3.616.998 6.994 2.711 9.467 1.57 2.331 3.758 3.615 6.09 3.615h2.521v-.57h.095c1.759-.809 3.33-2.427 4.472-4.663 1.141-2.236 1.759-5.042 1.759-7.896 0-3.426-.904-6.614-2.426-9.04-1.09-1.57-2.421-2.76-3.848-3.425h-.095v-.62l-2.473.047-.001.007Z" fill="#B28445"/><path d="M131.924 22.194c-1.569-2.522-3.947-4.092-6.469-4.092-4.948 0-8.994 5.943-8.994 13.179 0 3.758 1.095 7.14 2.76 9.61 1.57 2.235 3.757 3.662 6.184 3.662 4.948 0 8.992-5.946 8.992-13.177.097-3.52-.808-6.757-2.473-9.182Zm-5.898 19.077h-.429c-1.759 0-3.425-1.094-4.661-2.711-1.242-1.714-2.094-4.092-2.142-6.804v-.428c0-5.47 3.045-9.991 6.708-9.991h.429c3.473.38 6.279 4.663 6.279 9.991v.428c-.095 5.233-2.806 9.182-6.184 9.515Z" fill="#F6E244"/><path d="M125.594 44.741c-2.332 0-4.567-1.331-6.279-3.758-1.76-2.52-2.76-5.994-2.76-9.61 0-7.328 4.042-13.319 9.039-13.319 2.522 0 4.805 1.427 6.519 4.092 1.57 2.52 2.522 5.757 2.522 9.23-.049 7.277-4.046 13.365-9.041 13.365Zm0-26.498c-4.805.007-8.801 5.802-8.801 13.085 0 3.616.998 6.993 2.711 9.467 1.571 2.331 3.758 3.615 6.09 3.615 4.805 0 8.796-5.804 8.796-13.082 0-3.425-.904-6.614-2.427-9.04-1.802-2.616-4.085-4.038-6.369-4.038v-.008Zm0 23.264c-1.759 0-3.473-1-4.76-2.76-1.333-1.76-2.094-4.281-2.141-6.898v-.426c0-5.566 3.044-10.134 6.898-10.134h.428c3.616.38 6.47 4.76 6.47 10.134v.428c-.19 5.185-2.854 9.324-6.47 9.658h-.428l.003-.002Zm0-20.03c-3.663 0-6.613 4.425-6.613 9.849v.427c.096 2.617.809 5.044 2.094 6.71 1.236 1.712 2.854 2.71 4.471 2.71h.432c3.425-.38 5.994-4.424 6.184-9.417v-.427c0-5.186-2.711-9.468-6.184-9.849l-.384-.003Z" fill="#B28445"/><path d="M126.023 21.432h-.714c3.472.38 6.28 4.663 6.28 9.991v.428c-.19 5.138-2.855 9.23-6.28 9.468h.714c3.425-.381 6.184-4.473 6.279-9.468v-.428c0-5.375-2.759-9.655-6.279-9.99Z" fill="#FAB217"/><path d="M125.596 41.508h-.381v-.238h.095c3.425-.38 5.995-4.424 6.185-9.417v-.43c0-5.186-2.712-9.468-6.185-9.849h-.095v-.238h.904c3.616.381 6.47 4.76 6.47 10.135v.427c-.193 5.185-2.854 9.325-6.47 9.658a2.814 2.814 0 0 0-.523-.048Zm1.284-19.74c2.76 1.332 4.76 5.185 4.76 9.61v.428c-.095 4.282-2.093 7.898-4.76 9.23 2.855-.904 5.138-4.657 5.185-9.23v-.428c.048-4.618-2.093-8.661-5.185-9.61Z" fill="#B28445"/><path d="M123.595 34.277v3.188h-.904v-1.38l.904-1.808ZM124.691 32.136l.427.714v4.615h-.903v-4.377l.476-.952ZM126.544 32.47v4.994h-.903v-3.092l.238-.095.57-1.427.095-.38ZM128.209 29.377v8.088h-.951V31.28l.951-1.903Z" fill="#F6E244"/><path d="M125.642 32.755h-.238l-.713-1.332h.428l.523 1.332ZM122.69 36.085h-.428v1.427h.428v-1.427ZM122.69 36.085h-.428l.903-1.808h.429l-.904 1.808ZM124.26 33.088h-.428v4.424h.428v-4.424ZM124.213 33.088h-.381l.476-.952h.381l-.476.952ZM126.447 32.85h-.427l.238-.38h.284l-.095.38ZM125.882 34.278h-.476l.619-1.427h.427l-.57 1.427Z" fill="#875E27"/><path d="M125.644 34.373h-.238v-.096h.476l-.238.096ZM125.835 34.373h-.429v3.234h.429v-3.234ZM127.303 31.28h-.428v6.184h.428V31.28Z" fill="#875E27"/><path d="M127.256 31.28h-.381l.952-1.903h.38l-.951 1.904ZM128.782 27.474h-.381l-.19-.571h.333l.238.571ZM127.877 25.571h-.429l-.19-.571h.381l.238.571Z" fill="#875E27"/><path d="M125.644 29.995h-.238l2.046-4.424h.429l-2.237 4.424ZM125.117 31.423h-.428l-.38-.857h.427l.381.857ZM124.167 29.282h-.476l.619-1.332h.428l-.571 1.332ZM121.885 33.944h-.428l2.236-4.662h.476l-2.284 4.662ZM122.504 35.134h-.428l-.619-1.19h.428l.619 1.19Z" fill="#875E27"/><path d="M127.64 25h1.141v2.474l-.238-.57-2.189 4.52-.713 1.331-.523-1.332-.381-.857-2.235 4.568-.619-1.19 2.284-4.662.57-1.332.666 1.332.238.713 2.237-4.424-.238-.571Z" fill="#F6E244"/></g></g><path d="M113.228 31.101s-1.25-1.627-2.165-.138c-.24.401-.593 1.226-3.226 3.104-2.495 1.791-4.198 2.937-3.538 4.177.451.852 2.528 1.913 6.456 1.171 3.929-.742 5.704-1.333 6.106-.85.387.485.26.844.26.844s.905-1.297-.311-1.63c-1.223-.35-4.071.566-6.178.762-2.107.195-4.304-.005-4.365-.894-.06-.872 7.21-4.12 6.961-6.546Z" fill="#875E27"/><path d="M115.673 41.291a.26.26 0 0 1-.311-.155.26.26 0 0 1-.007-.213.258.258 0 0 1 .152-.15 2.212 2.212 0 0 0 1.267-2.367.27.27 0 0 1 .225-.31.27.27 0 0 1 .311.224c.101.601-.005 1.218-.301 1.751-.29.538-.749.965-1.307 1.213l-.029.007Z" fill="#875E27"/><path d="M115.392 40.73a2.31 2.31 0 0 1-1.815-.355.276.276 0 0 1 .114-.478.276.276 0 0 1 .196.025c.538.382 1.346.413 1.885.046a1.71 1.71 0 0 0 .724-1.74.272.272 0 0 1 .109-.283.272.272 0 0 1 .098-.041.281.281 0 0 1 .327.221 2.292 2.292 0 0 1-.967 2.334 2.327 2.327 0 0 1-.671.272Z" fill="#875E27"/><path d="M115.569 40.447a1.507 1.507 0 0 1-.268.042c-.621.019-1.189-.426-1.262-.983a.283.283 0 0 1 .24-.325.28.28 0 0 1 .284.145c.018.034.029.07.032.108.047.285.357.509.686.505.329-.004.662-.218.917-.553.231-.348.403-.733.508-1.138a.285.285 0 1 1 .542.173c-.155.469-.31.92-.591 1.312a2.009 2.009 0 0 1-1.088.714Z" fill="#875E27"/><path d="M115.532 40.352a.844.844 0 0 1-.663-.094.784.784 0 0 1-.334-.637c.011-.2.054-.398.13-.584a.277.277 0 0 1 .365-.152.279.279 0 0 1 .152.366c-.05.111-.082.23-.095.35a.231.231 0 0 0 .018.104.239.239 0 0 0 .059.087c.061.04.197.026.358-.028a2.595 2.595 0 0 0 1.04-.702.281.281 0 0 1 .395-.019c.055.05.088.12.092.194a.282.282 0 0 1-.073.201 2.96 2.96 0 0 1-1.267.855c-.049.012-.112.044-.177.059Z" fill="#875E27"/><path d="M137.839 33.195a3.887 3.887 0 0 1 .621-1.68 3.715 3.715 0 0 1 1.275-1.187 3.608 3.608 0 0 1 1.679-.479c.744-.03 1.353.142 1.827.516.48.374.764.9.851 1.575l-1.678.068a1.003 1.003 0 0 0-.452-.563c-.208-.128-.461-.187-.758-.175-.47.02-.871.2-1.203.54-.332.336-.535.777-.608 1.322a2.54 2.54 0 0 0-.027.44c.017.416.146.741.388.976.242.234.565.343.97.327a1.67 1.67 0 0 0 .804-.238c.25-.147.456-.352.619-.615l1.678-.068a3.605 3.605 0 0 1-1.283 1.661 3.65 3.65 0 0 1-1.994.662c-.535.022-1.007-.063-1.414-.256a2.2 2.2 0 0 1-.955-.846c-.23-.372-.355-.811-.375-1.317-.01-.226.002-.447.035-.663Zm8.903 2.858a2.45 2.45 0 0 1-1.153-.213 1.885 1.885 0 0 1-.807-.7 2.197 2.197 0 0 1-.312-1.087 3.036 3.036 0 0 1 .339-1.56 2.863 2.863 0 0 1 1.063-1.135 3.118 3.118 0 0 1 1.555-.465c.428-.017.813.056 1.153.221.346.16.618.393.815.7.198.309.305.67.322 1.087a3.004 3.004 0 0 1-.348 1.57 2.87 2.87 0 0 1-1.072 1.126c-.46.28-.978.432-1.555.456Zm.161-1.321c.25-.01.47-.093.66-.25.196-.163.343-.366.44-.608.104-.249.15-.504.139-.766-.012-.297-.101-.523-.269-.677a.821.821 0 0 0-.616-.217c-.256.01-.479.097-.669.26a1.487 1.487 0 0 0-.423.607c-.097.248-.14.506-.129.774.011.292.098.515.259.67a.811.811 0 0 0 .608.207Zm4.761-4.458c-.238.01-.431-.045-.579-.164a.652.652 0 0 1-.225-.483.9.9 0 0 1 .284-.7c.201-.198.45-.304.748-.316.238-.01.428.048.57.174.142.119.217.28.225.482a.887.887 0 0 1-.285.691c-.2.2-.446.304-.738.316Zm.682.491-.673 5.017-1.527.061.673-5.016 1.527-.062Zm4.147-.221c.5-.02.899.103 1.196.371.297.268.455.652.476 1.152.006.167-.004.346-.032.538l-.4 2.931-1.518.061.373-2.724c.014-.102.019-.191.016-.269-.01-.25-.09-.44-.238-.571-.142-.131-.339-.192-.589-.182a1.072 1.072 0 0 0-.738.307c-.195.193-.315.457-.361.793l-.002-.045-.371 2.769-1.526.062.673-5.017 1.526-.061-.089.674a2.18 2.18 0 0 1 1.604-.79Zm4.733 3.42 1.57-3.622 1.634-.066-2.45 5.088-1.892.077-1.086-4.946 1.625-.065.599 3.534Zm6.057-3.875c.643-.026 1.159.128 1.548.464.395.33.604.795.628 1.396.008.197.001.373-.023.529a3.595 3.595 0 0 1-.089.442l-3.455.14a1.246 1.246 0 0 0-.002.17c.011.261.09.458.239.589.148.131.341.192.579.182a.976.976 0 0 0 .856-.517l1.624-.066a2.772 2.772 0 0 1-.994 1.283 2.866 2.866 0 0 1-1.605.548c-.643.026-1.165-.132-1.566-.473-.395-.342-.605-.82-.63-1.432a3.122 3.122 0 0 1 .03-.574 3.21 3.21 0 0 1 .499-1.379c.264-.398.6-.71 1.008-.935a3.012 3.012 0 0 1 1.353-.367Zm.64 2.11c.008-.083.012-.14.011-.17-.01-.238-.092-.416-.245-.535-.155-.125-.354-.183-.598-.173-.261.01-.49.1-.686.27-.19.162-.324.391-.401.686l1.919-.078Zm4.033 2.832a2.864 2.864 0 0 1-1.07-.144 1.769 1.769 0 0 1-.753-.488 1.213 1.213 0 0 1-.299-.766 2.398 2.398 0 0 1 .008-.224l1.473-.06a.537.537 0 0 0 .179.44c.129.102.307.149.533.14a.943.943 0 0 0 .469-.127c.122-.076.18-.18.175-.31-.005-.126-.077-.221-.217-.287a3.98 3.98 0 0 0-.672-.25 8.101 8.101 0 0 1-.825-.28 1.633 1.633 0 0 1-.572-.432c-.162-.19-.25-.434-.262-.732a1.284 1.284 0 0 1 .227-.796c.163-.245.397-.439.701-.582.31-.144.67-.224 1.081-.24.41-.018.77.036 1.079.161.309.119.552.294.728.525.176.231.27.496.282.793l-.003.134-1.384.056a.498.498 0 0 0-.178-.422c-.123-.102-.295-.149-.515-.14a.787.787 0 0 0-.424.125.337.337 0 0 0-.149.301c.005.13.081.238.228.322.152.077.385.163.699.257.325.094.594.19.807.29.218.092.406.23.562.415.163.178.249.407.261.687.013.321-.074.602-.261.842-.181.24-.439.429-.773.568a3.392 3.392 0 0 1-1.135.224Zm4.905-1.987a.589.589 0 0 0-.004.117c.004.107.037.183.098.228.068.045.173.065.315.06l.545-.023-.18 1.304-.776.031c-1 .04-1.517-.359-1.551-1.198a3.202 3.202 0 0 1 .026-.475l.276-1.996-.607.025.172-1.277.607-.024.165-1.223 1.527-.062-.165 1.223.999-.04-.171 1.276-1 .04-.276 2.014Zm1.666-.854c.069-.515.226-.972.472-1.37.246-.396.55-.707.91-.93a2.348 2.348 0 0 1 1.157-.36c.351-.014.649.045.892.179.244.133.424.313.541.54l.096-.71 1.527-.061-.682 5.017-1.527.061.106-.71c-.181.24-.415.437-.701.592a2.16 2.16 0 0 1-.955.253 1.817 1.817 0 0 1-.947-.203 1.64 1.64 0 0 1-.652-.653 2.305 2.305 0 0 1-.266-1.036c-.008-.19.002-.393.029-.609Zm3.732-.142c.013-.108.018-.207.015-.296-.012-.291-.108-.517-.287-.677a.87.87 0 0 0-.653-.223 1.23 1.23 0 0 0-.817.363c-.241.225-.387.529-.437.912a1.812 1.812 0 0 0-.014.296c.011.291.104.52.278.686a.89.89 0 0 0 .652.224c.304-.012.576-.134.817-.364.241-.23.39-.537.446-.921Zm4.359 2.39a2.862 2.862 0 0 1-1.07-.145 1.774 1.774 0 0 1-.753-.488 1.219 1.219 0 0 1-.299-.766 2.168 2.168 0 0 1 .009-.224l1.472-.06a.54.54 0 0 0 .179.44c.13.102.307.149.533.14a.943.943 0 0 0 .469-.127c.122-.076.181-.18.175-.31-.005-.126-.077-.221-.217-.287a3.98 3.98 0 0 0-.672-.25 8.3 8.3 0 0 1-.825-.28 1.633 1.633 0 0 1-.572-.432c-.162-.19-.25-.434-.262-.732a1.29 1.29 0 0 1 .227-.796c.163-.245.397-.439.701-.582.31-.144.67-.224 1.081-.24.411-.018.771.036 1.08.161.308.119.551.293.727.525.176.231.271.495.283.793l-.004.134-1.383.056a.503.503 0 0 0-.178-.422c-.124-.102-.296-.148-.516-.14a.791.791 0 0 0-.424.125.337.337 0 0 0-.149.3c.006.132.082.239.228.323.152.077.385.163.699.257.326.094.595.19.807.29.219.092.406.23.563.415.162.178.249.407.26.687.013.321-.074.602-.261.842-.181.24-.439.429-.773.567a3.386 3.386 0 0 1-1.135.225Zm4.421-5.759c-.238.01-.431-.045-.578-.164a.65.65 0 0 1-.226-.483.898.898 0 0 1 .285-.7c.2-.199.45-.304.747-.316.238-.01.428.048.57.173.142.12.217.28.226.483a.894.894 0 0 1-.285.691 1.075 1.075 0 0 1-.739.316Zm.682.491-.673 5.016-1.526.062.673-5.016 1.526-.062ZM125.154 88.107a.438.438 0 0 1-.436-.438.44.44 0 0 1 .06-.218l4.959-8.485-1.972-6.77h-.006l-.902 6.487a.436.436 0 0 1-.282.35.463.463 0 0 1-.097.049l.001-.001-.192.098h.001a.495.495 0 0 1-.095.048.487.487 0 0 1-.096.05h-.001l-.189.096h-.001a.384.384 0 0 1-.095.049.429.429 0 0 1-.096.05.458.458 0 0 1-.095.048.476.476 0 0 1-.096.049.46.46 0 0 1-.096.049l-.19.097a.469.469 0 0 1-.097.048l-.19.098a.507.507 0 0 1-.095.048.481.481 0 0 1-.096.049l-.191.097a.5.5 0 0 1-.095.049.421.421 0 0 1-.096.049.422.422 0 0 1-.095.048.446.446 0 0 1-.096.05.456.456 0 0 1-.096.048.459.459 0 0 1-.095.05.458.458 0 0 1-.095.048.476.476 0 0 1-.096.048.46.46 0 0 1-.096.05.413.413 0 0 1-.095.048.453.453 0 0 1-.095.048.487.487 0 0 1-.096.049l-.191.097a.484.484 0 0 1-.095.049.456.456 0 0 1-.096.049.459.459 0 0 1-.095.048.425.425 0 0 1-.096.049.41.41 0 0 1-.095.048.421.421 0 0 1-.096.05.418.418 0 0 1-.095.048.446.446 0 0 1-.096.05.41.41 0 0 1-.095.047.429.429 0 0 1-.096.05.458.458 0 0 1-.095.048.495.495 0 0 1-.095.049.495.495 0 0 1-.097.049.413.413 0 0 1-.095.048.473.473 0 0 1-.095.049.433.433 0 0 1-.228.074l-6.942.26h-.017a.44.44 0 0 1-.329-.15.44.44 0 0 1-.102-.347l.443-3.171-3.687 2.353c-1.744 1.111-3.742 1.717-5.934 1.798a12.577 12.577 0 0 1-1.158-.009 9.228 9.228 0 0 1-3.487-.859 7.445 7.445 0 0 1-3.25-2.931c-.744-1.248-1.153-2.71-1.214-4.347-.027-.733.012-1.467.118-2.193a12.624 12.624 0 0 1 1.948-5.29c.266-.405.556-.793.868-1.163l3.037-3.622a12.481 12.481 0 0 1 3.462-2.886 12.67 12.67 0 0 1 5.827-1.617 14.213 14.213 0 0 1 1.251.011c1.227.057 2.433.338 3.56.828a7.983 7.983 0 0 1 3.46 2.898c.207.317.392.649.554.992h.007a.4.4 0 0 1 .088-.074l.176-.147a.442.442 0 0 1 .089-.073.433.433 0 0 1 .088-.073.41.41 0 0 1 .088-.073.403.403 0 0 1 .089-.073.42.42 0 0 1 .088-.074l.001-.002.175-.146v.001c.059-.048.118-.096.177-.146a.424.424 0 0 1 .303-.14l7.462-.278h.015a.437.437 0 0 1 .432.496l-.017.125a7.218 7.218 0 0 1 3.179-.89l1.268-.049h.017c.113 0 .223.045.304.125l5.43-.207h.016a.434.434 0 0 1 .424.337l.414 1.799a.423.423 0 0 1 .082-.045.439.439 0 0 1 .121-.074.418.418 0 0 1 .121-.075.427.427 0 0 1 .12-.074l.241-.149h.002l.241-.149h.001a.454.454 0 0 1 .121-.075h-.001l.364-.223.242-.15a.427.427 0 0 1 .12-.074h.002l.361-.223a.441.441 0 0 1 .121-.075l.242-.149h.001l.241-.15h.001a.432.432 0 0 1 .121-.074l.361-.223h.002a.42.42 0 0 1 .121-.075.427.427 0 0 1 .12-.074.444.444 0 0 1 .121-.075.44.44 0 0 1 .27-.103l14.426-.542h.016a.44.44 0 0 1 .324.144.436.436 0 0 1 .082.132 7.862 7.862 0 0 1 2.751-.584c.103 0 .207-.006.317-.006a7.742 7.742 0 0 1 1.041.07.438.438 0 0 1 .131-.059l.319-.162a.447.447 0 0 1 .159-.082.426.426 0 0 1 .159-.08.436.436 0 0 1 .16-.082.416.416 0 0 1 .159-.08.451.451 0 0 1 .158-.083.428.428 0 0 1 .16-.08.447.447 0 0 1 .159-.082.432.432 0 0 1 .159-.08.45.45 0 0 1 .16-.083.431.431 0 0 1 .159-.08.447.447 0 0 1 .159-.082.434.434 0 0 1 .16-.08.447.447 0 0 1 .159-.083.43.43 0 0 1 .16-.08.446.446 0 0 1 .159-.082.431.431 0 0 1 .159-.08.45.45 0 0 1 .16-.083.416.416 0 0 1 .159-.08.451.451 0 0 1 .158-.082.437.437 0 0 1 .16-.08.446.446 0 0 1 .159-.082.431.431 0 0 1 .159-.081.458.458 0 0 1 .16-.082.43.43 0 0 1 .159-.08.444.444 0 0 1 .16-.082.425.425 0 0 1 .159-.081.446.446 0 0 1 .159-.082.428.428 0 0 1 .16-.08.446.446 0 0 1 .159-.082.43.43 0 0 1 .159-.081.444.444 0 0 1 .16-.082.432.432 0 0 1 .159-.08l.318-.163a.432.432 0 0 1 .159-.08.42.42 0 0 1 .159-.082.435.435 0 0 1 .16-.081.413.413 0 0 1 .159-.082.426.426 0 0 1 .16-.08.405.405 0 0 1 .159-.082.432.432 0 0 1 .159-.081.45.45 0 0 1 .16-.082.431.431 0 0 1 .159-.08.446.446 0 0 1 .159-.082.439.439 0 0 1 .257-.097l7.49-.279h.017a.439.439 0 0 1 .417.312c.018.06.023.122.014.184l-.441 3.182 2.211-.083h.016a.435.435 0 0 1 .432.496l-.217 1.561.026-.011.179-.076c.055-.025.118-.05.181-.076l.177-.075c.062-.026.115-.05.177-.075l.183-.078.18-.075.179-.077.175-.074.169-.072.014-.005.174-.074.168-.071.016-.007.17-.072h.01l.168-.071h.011a6.01 6.01 0 0 1 .18-.077l.152-.064.026-.011.166-.07.014-.006.158-.067.021-.01.167-.07.013-.005.158-.067.02-.008c.053-.024.113-.049.174-.074l.172-.072.013-.007a11.694 11.694 0 0 1 4.283-.95 10.244 10.244 0 0 1 1.012.01c1.11.053 2.199.32 3.208.783a7.237 7.237 0 0 1 3.09 2.69c.748 1.168 1.156 2.542 1.213 4.086.076 2.012-.344 3.875-1.248 5.535a10.267 10.267 0 0 1-3.835 3.97c-.85.503-1.765.888-2.718 1.146a5.7 5.7 0 0 1-.186.053l-.186.051-.186.053-.186.052-.187.053-.185.051a6.613 6.613 0 0 1-.187.053l-.185.052-.187.053-.187.052-.186.052-.186.053-.186.052-.186.052-.186.052-.187.053-.186.052-.186.052-.185.052-.187.053-.187.052-.186.053-.185.051-.187.053-.186.052-.186.053-.187.051-.186.053-.186.053-.186.052-.187.052-.186.052-.186.053-.185.052-.187.052-.187.052-.185.053-.186.052-.187.052c-.056.017-.121.035-.186.052l-.186.053a7.809 7.809 0 0 1-.187.052l-.185.052-.187.052-.185.053-.187.052-.186.053-.186.051-.186.053-.187.052c-.9.26-1.829.407-2.765.439-.129 0-.261.007-.389.007-.187 0-.374 0-.555-.016a8.1 8.1 0 0 1-2.981-.724 6.022 6.022 0 0 1-.428-.22.423.423 0 0 1-.165.048.429.429 0 0 1-.17.052.452.452 0 0 1-.169.052.439.439 0 0 1-.171.05h-.001l-.339.103h.001a.453.453 0 0 1-.17.053c-.113.033-.227.068-.34.103a.45.45 0 0 1-.169.052.457.457 0 0 1-.17.052.439.439 0 0 1-.171.05l-.001-.001-.339.103.001.002a.434.434 0 0 1-.17.05.413.413 0 0 1-.17.052.436.436 0 0 1-.169.052.456.456 0 0 1-.171.052.423.423 0 0 1-.17.05.414.414 0 0 1-.169.052.422.422 0 0 1-.193.053l-2.98.11c-.146.007-.292.009-.435.009-.199 0-.394 0-.582-.016-1.906-.11-3.363-.807-4.243-2.024h-.016a4.247 4.247 0 0 1-.147.05c-.052.017-.092.034-.143.05l-.149.052a2.978 2.978 0 0 1-.147.051l-.146.052-.146.05-.147.051-.147.05-.147.052-.146.05-.147.051-.146.052-.144.048c-.05.019-.103.036-.15.053l-.146.05-.147.052-.146.05-.147.051-.147.05-.146.052-.146.05c-.052.017-.096.034-.147.052l-.146.05-.147.051-.147.051-.146.05-.147.051-.146.051-.143.05-.147.05-.151.053-.146.05-.142.05-.11.039-.733 5.306a1.038 1.038 0 0 1-.653.453.41.41 0 0 1-.136.04l-.275.08a.462.462 0 0 1-.136.04.407.407 0 0 1-.137.038.435.435 0 0 1-.136.04.419.419 0 0 1-.137.04.44.44 0 0 1-.138.04.397.397 0 0 1-.136.04.43.43 0 0 1-.137.04.409.409 0 0 1-.136.04.45.45 0 0 1-.137.04.413.413 0 0 1-.138.04.433.433 0 0 1-.136.04.407.407 0 0 1-.137.039.435.435 0 0 1-.136.04.419.419 0 0 1-.137.04.44.44 0 0 1-.138.04.408.408 0 0 1-.136.04l-.273.079a65.816 65.816 0 0 0-.688.2 31.409 31.409 0 0 0-.547.159.432.432 0 0 1-.137.04 14.95 14.95 0 0 1-.274.079.435.435 0 0 1-.136.04.47.47 0 0 1-.137.04.43.43 0 0 1-.137.04 31.409 31.409 0 0 0-.547.16.46.46 0 0 1-.137.039.413.413 0 0 1-.136.039.439.439 0 0 1-.137.04.413.413 0 0 1-.138.04.435.435 0 0 1-.136.04.407.407 0 0 1-.137.04.443.443 0 0 1-.136.04.422.422 0 0 1-.138.04.439.439 0 0 1-.172.042l-6.916.258h-.016a.44.44 0 0 1-.329-.149.437.437 0 0 1-.103-.345l.881-6.394-2.755 4.957a.433.433 0 0 1-.297.216.422.422 0 0 1-.112.039.418.418 0 0 1-.113.04.447.447 0 0 1-.114.038.472.472 0 0 1-.113.04c-.075.025-.15.05-.225.077a.429.429 0 0 1-.114.039.391.391 0 0 1-.112.039.449.449 0 0 1-.114.04.476.476 0 0 1-.113.039c-.075.025-.15.05-.225.077a.44.44 0 0 1-.114.038.375.375 0 0 1-.113.04.415.415 0 0 1-.113.04.451.451 0 0 1-.113.038.418.418 0 0 1-.112.039.447.447 0 0 1-.114.04.433.433 0 0 1-.113.037.387.387 0 0 1-.113.04.415.415 0 0 1-.113.039.454.454 0 0 1-.112.04.444.444 0 0 1-.114.038l-.226.077a.387.387 0 0 1-.113.04.42.42 0 0 1-.112.039.49.49 0 0 1-.113.04.439.439 0 0 1-.114.037c-.075.027-.15.053-.226.078a.391.391 0 0 1-.112.04.44.44 0 0 1-.113.039.489.489 0 0 1-.114.04 16.77 16.77 0 0 0-.226.077.415.415 0 0 1-.112.038.408.408 0 0 1-.113.04.495.495 0 0 1-.113.039.473.473 0 0 1-.114.039l-.225.078a.44.44 0 0 1-.113.038.403.403 0 0 1-.114.04.454.454 0 0 1-.112.038.465.465 0 0 1-.114.04l-.225.078a.444.444 0 0 1-.113.038.4.4 0 0 1-.114.04.428.428 0 0 1-.181.046l-7.691.287h-.011Zm-17.877-19.291-.021.143a5.08 5.08 0 0 0-.05.962c.028.734.207 1.257.543 1.6.257.26.588.393 1.04.42H109.075c.087 0 .172-.01.258-.02l.038-.027.151-.123a.433.433 0 0 1 .074-.06.52.52 0 0 1 .076-.062.395.395 0 0 1 .075-.06.4.4 0 0 1 .076-.062.397.397 0 0 1 .074-.06.395.395 0 0 1 .076-.06.445.445 0 0 1 .075-.062.374.374 0 0 1 .076-.06.402.402 0 0 1 .074-.062.457.457 0 0 1 .076-.061.378.378 0 0 1 .075-.061.506.506 0 0 1 .075-.061.442.442 0 0 1 .076-.061.428.428 0 0 1 .074-.061.45.45 0 0 1 .077-.061.41.41 0 0 1 .074-.061.49.49 0 0 1 .076-.061.433.433 0 0 1 .074-.061l.006-.007-1.832.069h-.017a.435.435 0 0 1-.414-.293l-.241-.69a1.346 1.346 0 0 0-.535-.734 1.423 1.423 0 0 0-.565-.203Z" fill="#243B7F"/><path d="m178.331 55.705-.512 3.697 2.729-.103-.324 2.322.016-.006.179-.076c.059-.027.119-.052.179-.076l.18-.076.179-.075c.059-.027.119-.052.179-.077l.179-.075.179-.076.18-.077.179-.075.179-.076c.06-.027.12-.052.18-.076l.179-.076.179-.075c.06-.027.119-.052.179-.077l.18-.075.179-.076.179-.077.179-.075.18-.076.18-.076.179-.076.179-.075c.06-.027.12-.052.18-.077l.179-.075.179-.076a11.24 11.24 0 0 1 4.131-.918 10.445 10.445 0 0 1 .971.008 8.291 8.291 0 0 1 3.048.744 6.83 6.83 0 0 1 2.908 2.532c.705 1.1 1.09 2.401 1.144 3.867.072 1.932-.331 3.719-1.196 5.31a9.827 9.827 0 0 1-3.674 3.802 10.52 10.52 0 0 1-2.61 1.102l-.187.052-.186.052-.186.053-.186.052-.187.052-.186.052c-.061.019-.123.035-.186.053l-.185.052-.187.052-.186.052-.186.053-.187.052-.186.052-.186.052-.186.053-.187.052c-.06.018-.122.036-.186.052l-.185.052-.186.053-.187.053-.186.051-.186.053-.186.052-.187.053-.186.052-.186.052-.187.052c-.061.019-.123.035-.185.053l-.186.051c-.062.02-.124.036-.186.053l-.187.052-.186.053-.186.052-.186.052-.187.052c-.061.019-.124.035-.186.053l-.186.052-.186.052-.186.052-.186.053-.186.052-.187.052-.186.052-.186.053-.186.052-.187.052-.185.052a5.73 5.73 0 0 1-.187.053l-.185.053-.187.051c-.868.252-1.763.394-2.666.425-.126 0-.251.007-.374.007-.18 0-.357-.005-.53-.014a7.681 7.681 0 0 1-2.822-.69 6.018 6.018 0 0 1-.58-.31h-.059l-.008.045-.163.007-.006.045-.164.006-.006.045-.163.006-.007.046-.163.006-.006.045-.164.007-.006.045-.164.006-.006.045-.163.006-.008.046-.163.006-.006.045-.164.006-.006.046h-.164l-.006.046-.163.006-.006.045-.164.006-.006.046-.164.006-.006.046h-.163l-.008.045-.162.007-.007.045-.164.006-.006.046-.164.006-.006.045h-.163l-.006.046-.164.006-.006.046-.164.006-.006.046-.163.006-.007.044-2.98.13c-.141 0-.28.007-.414.007-.191 0-.378-.005-.558-.016-1.93-.11-3.32-.842-4.088-2.11l-.039.013-.146.05-.147.051-.146.05-.147.052-.147.05-.146.052-.147.05-.146.051-.147.051-.147.05-.146.051-.147.051-.146.05c-.049.018-.098.036-.147.052l-.147.051-.145.051-.147.05-.147.052-.146.05-.147.05-.147.052-.146.05-.147.052-.146.05-.147.051-.147.051-.146.05-.147.052-.147.05-.146.051-.146.05-.146.053-.147.05-.147.05-.146.052-.147.05-.147.051-.068.025-.769 5.57-.132.005v.035l-.131.005-.005.035-.133.005v.034l-.132.005-.005.036-.132.005v.034l-.131.005v.035h-.132l-.005.035h-.132v.035h-.133l-.005.034h-.131v.035h-.132l-.005.034h-.131v.035h-.133v.035l-.132.005-.005.035-.132.005v.034l-.131.005-.005.036h-.132v.035l-.132.005v.035h-.133l-.005.035h-.131v.035h-.132l-.005.036h-.131v.035h-.133v.035h-.132v.035h-.132v.035h-.131l-.005.036h-.132v.035l-.132.005v.035h-.133v.035l-.131.005-.005.036h-.132v.035h-.132v.035h-.133v.035h-.132v.035h-.131l-.006.036h-.131v.034h-.132l-.005.035h-.132v.034h-.133v.035l-.131.005-.005.035-.132.005v.035l-.131.005-.005.034-.133.005v.036h-.132v.034h-.132v.035h-.131v.034h-.131l-.006.035h-.132v.034h-.133l-.005.036h-.131l-.005.034h-.132l-.005.035-6.916.258 1.2-8.693-4.042 7.166h-.093l-.02.035h-.093l-.02.036h-.093l-.02.036h-.093l-.02.035h-.093l-.02.035h-.093l-.02.036h-.093l-.02.036h-.093l-.02.035h-.093l-.02.036h-.093l-.019.035h-.094l-.019.074h-.093l-.02.036h-.093l-.02.035h-.093l-.02.035h-.093l-.019.037h-.094l-.02.035h-.093l-.02.035h-.093l-.02.036h-.093l-.02.035h-.093l-.019.035h-.093l-.021.037h-.093l-.02.035h-.093l-.02.035h-.093l-.02.036h-.093l-.019.035h-.093l-.02.036h-.094l-.02.036h-.093l-.02.035h-.093l-.02.035h-.093l-.019.036h-.093l-.02.036h-.094l-.02.035h-.093l-.02.036h-.093l-.02.035h-.093l-.019.035h-.094l-.019.037h-.093l-.021.035h-.093l-.02.035h-.093l-.02.036h-.093l-.019.035h-.094l-.019.035h-.093l-.02.037h-.094l-.02.035h-.093l-.02.035h-.093l-.019.036h-.094l-.019.035h-.093l-.02.036h-.094l-.02.036h-.093l-.02.035h-.093l-.019.035h-.094l-.019.037-7.692.424 5.054-8.645-2.19-7.514h-.05l-.009.059h-.096l-.008.06h-.096l-.009.059h-.096l-.007.059h-.097l-.008.059h-.097l-.007.059h-.077l-.931 6.739h-.089l-.006.045h-.089l-.007.046h-.09l-.006.045h-.089l-.006.046h-.089l-.006.044h-.089l-.007.045h-.089l-.007.044h-.089l-.006.046h-.089l-.006.045h-.09l-.006.046h-.089l-.007.045h-.089l-.006.046h-.089l-.007.045h-.089l-.006.046h-.089l-.006.046h-.089l-.007.045h-.09l-.006.046h-.089l-.006.045h-.089l-.006.046h-.089l-.006.045h-.09l-.007.046h-.089l-.006.045h-.089l-.006.045h-.09l-.006.044h-.089l-.007.046h-.089l-.006.045h-.089l-.006.046h-.09l-.006.045h-.089l-.006.046h-.089l-.007.046h-.089l-.007.045h-.089l-.006.046h-.089l-.006.045h-.089l-.006.046h-.09l-.007.045h-.089l-.006.046h-.089l-.006.045h-.089l-.007.046h-.089l-.007.045h-.089l-.006.045h-.089l-.006.044h-.09l-.006.046h-.089l-.006.045h-.089l-.007.046h-.089l-.006.045h-.09l-.006.046h-.089l-.006.046h-.089l-.006.045h-.09l-.007.046h-.089l-.006.045h-.089l-.006.046-6.952.454.577-4.127c-.181.127-.365.252-.552.368l-.079.051-.079.05-.077.05-.079.05-.078.05-.079.05-.079.051-.078.05-.079.05-.079.05-.076.049-.079.05-.079.05-.078.05-.079.05-.078.05-.079.051-.079.05-.078.05-.079.05-.079.05-.078.05-.079.051-.079.05-.077.05-.08.05-.078.05-.078.05-.079.05-.079.051-.078.05-.079.05-.078.05-.079.05-.079.05-.078.051-.079.05-.079.05-.078.05-.079.05-.079.05-.078.051-.079.05-.079.05-.078.05-.079.051-.079.05-.077.05-.079.05-.078.05c-1.683 1.072-3.604 1.657-5.722 1.733a11.67 11.67 0 0 1-1.117-.01 8.792 8.792 0 0 1-3.322-.816 7.01 7.01 0 0 1-3.055-2.768c-.71-1.185-1.098-2.579-1.156-4.141-.026-.707.011-1.415.113-2.114a12.223 12.223 0 0 1 1.881-5.115c.256-.39.535-.764.837-1.12l.061-.073.06-.072.061-.073.061-.072.06-.073.061-.072.062-.071.06-.074.06-.072.062-.073.06-.072c.02-.024.041-.048.06-.073l.062-.072.061-.071c.019-.025.04-.049.061-.074l.06-.071.061-.073.06-.072.061-.073.061-.072c.02-.025.04-.049.061-.072l.06-.073.061-.072.061-.073.061-.073.06-.072.061-.072.061-.072.06-.073.061-.072.062-.073c.019-.025.04-.048.06-.072l.061-.073.061-.072c.019-.025.04-.049.061-.073l.061-.075.061-.073.061-.072.06-.072.061-.073.061-.072.061-.073.06-.072.061-.073.061-.072.06-.073.061-.072.061-.072.061-.073.06-.072a12.044 12.044 0 0 1 3.343-2.787 12.234 12.234 0 0 1 5.625-1.56 13.41 13.41 0 0 1 1.207.01 9.68 9.68 0 0 1 3.405.798 7.546 7.546 0 0 1 4.038 4.218h.035l.01-.07h.078l.01-.071h.079l.009-.07h.078l.011-.07h.077l.011-.071h.078l.01-.07h.078l.01-.071h.078l.011-.07h.077l.011-.07h.078l.01-.071h.078l.01-.07h.078l.011-.07h.077l.011-.071h.078l.009-.07h.079l.009-.07h.079l.01-.071h.078l.01-.07h.079l.009-.071 7.461-.278-.142 1.034c.13-.126.264-.23.402-.312a6.901 6.901 0 0 1 3.349-1.045l1.268-.048-.019.137 5.769-.215.562 2.432h.007l.034-.071h.087l.035-.071h.086l.035-.072h.087l.034-.071h.086l.035-.072h.086l.035-.071h.086l.032-.09h.086l.035-.07h.086l.035-.072h.086l.035-.071h.086l.035-.072h.086l.035-.071h.086l.034-.072h.087l.034-.07h.087l.034-.072h.087l.034-.072h.086l.036-.071h.085l.036-.071h.086l.035-.072h.086l.035-.071h.086l.035-.072h.086l.035-.071h.086l.035-.072h.086l.034-.07h.087l.034-.072h.087l.034-.072h.087l.034-.071h.087l.034-.072h.086l.035-.07h.086l.035-.072h.086l.036-.072h.085l.036-.071h.086l.035-.072h.086l.035-.07h.086l.035-.072 8.341-.31 6.079-.227-.078.557.018-.009a7.191 7.191 0 0 1 3.232-.856c.103 0 .207-.006.302-.006a6.825 6.825 0 0 1 1.125.088v-.01l.149-.007.01-.075h.149l.011-.076.149-.006.01-.075.149-.006.01-.075.149-.006.011-.076.149-.005.01-.076.149-.006.011-.075.149-.005.01-.076.148-.006.011-.076.148-.005.011-.075.149-.007.01-.075.149-.005.01-.076.149-.006.011-.076.149-.005.01-.076.149-.006.01-.075h.149l.011-.076.149-.006.01-.075h.149l.011-.076.149-.006.01-.076.149-.005.01-.075.149-.007.011-.075.149-.005.01-.076.148-.006.011-.076.148-.005.012-.076.148-.005.01-.076.149-.005.01-.076h.149l.011-.077.149-.005.01-.075.149-.005.01-.077.15-.005.01-.076.149-.005.01-.076.149-.006.011-.075.149-.005.01-.077h.149l.01-.076.149-.005.011-.076.149-.005.01-.076.148-.005.011-.076.148-.006.011-.075.149-.006.01-.075.149-.006.01-.076.149-.005.011-.076.149-.006.01-.075h.149l.011-.076.149-.006.01-.076h.149l.01-.075.149-.006.011-.076.149-.005.01-.076.149-.006.01-.075 7.49-.28.005-.13Zm-71.408 12.782h-.007a8.448 8.448 0 0 0-.095.543c-.05.343-.068.69-.054 1.035.032.848.25 1.466.669 1.89.333.336.765.517 1.325.548.062 0 .124.005.187.005h.14c.145-.005.289-.019.433-.041l.007-.012h.04l.035-.06h.04l.035-.058h.04l.035-.06h.041l.035-.058h.04l.034-.06h.041l.035-.06h.04l.036-.06h.04l.035-.06h.039l.036-.06h.05l.036-.06h.04l.028-.21h.039l.035-.06h.041l.035-.06h.04l.035-.06h.041l.035-.06h.039l.035-.059h.041l.035-.058h.04l.036-.06h.039l.035-.058h.04l.036-.06h.04l.035-.059h.04l.035-.059h.04l.035-.058h.041l.035-.06h.04l.035-.06h.04l.035-.06h.04l.035-.06h.041l.035-.06h.039l.035-.06h.041l.035-.06h.04l.035-.06h.048l.034-.06h.041l.035-.06h.04l.035-.059h.041l.035-.059h.039l-3.176.083-.241-.691a1.777 1.777 0 0 0-.709-.956 1.978 1.978 0 0 0-.991-.296h-.165l-.006.127Zm9.231 1.436h.056v-.011h-.059v.011h.003Zm62.169-15.09h-.033l-7.49.279a1.95 1.95 0 0 0-.599.22.841.841 0 0 0-.159.082l-.478.243c-.106.055-.213.11-.319.163-.106.054-.212.109-.319.162a.871.871 0 0 0-.159.082.867.867 0 0 0-.159.08.832.832 0 0 0-.16.082.893.893 0 0 0-.159.081.862.862 0 0 0-.16.082.891.891 0 0 0-.158.08.824.824 0 0 0-.159.082.851.851 0 0 0-.16.081l-.319.163a.854.854 0 0 0-.159.081.867.867 0 0 0-.159.081l-.319.163a.824.824 0 0 0-.159.081.937.937 0 0 0-.16.08l-.318.163a.867.867 0 0 0-.159.081l-.318.163a.88.88 0 0 0-.16.081.802.802 0 0 0-.159.082.828.828 0 0 0-.16.08l-.478.244a.905.905 0 0 0-.159.082.893.893 0 0 0-.159.08.88.88 0 0 0-.16.082l-.319.163a.891.891 0 0 0-.158.08c-.106.055-.212.11-.319.163a.878.878 0 0 0-.159.082.867.867 0 0 0-.159.08h-.008a7.912 7.912 0 0 0-.964-.057c-.112 0-.225 0-.335.007a8.37 8.37 0 0 0-2.588.5.867.867 0 0 0-.544-.19h-.032l-6.079.228-8.342.31a.87.87 0 0 0-.483.169h-.001l-.242.15-.241.148h-.001a.845.845 0 0 0-.12.074.97.97 0 0 0-.122.075.893.893 0 0 0-.12.074.855.855 0 0 0-.121.075l-.242.15v-.002l-.242.15-.002.001-.241.149v-.001l-.242.149.002-.001-.243.149-.001.001a1.035 1.035 0 0 0-.121.075.946.946 0 0 0-.12.074l-.242.149.001-.002-.243.15v.001a.893.893 0 0 0-.121.075l-.048.025-.278-1.204a.87.87 0 0 0-.849-.676h-.033l-5.278.198a.864.864 0 0 0-.438-.12h-.033l-1.268.048a7.516 7.516 0 0 0-2.839.68.868.868 0 0 0-.738-.41h-.033l-7.461.278a.871.871 0 0 0-.567.238.998.998 0 0 0-.089.073c-.03.023-.06.048-.088.074a.879.879 0 0 0-.088.073.815.815 0 0 0-.088.074.867.867 0 0 0-.089.072h.001l-.177.147-.031.024a8.41 8.41 0 0 0-3.977-3.6 10.561 10.561 0 0 0-3.716-.865 13.005 13.005 0 0 0-.759-.022c-.175 0-.353 0-.529.01-2.113.065-4.178.64-6.021 1.676a12.902 12.902 0 0 0-3.58 2.984l-.062.073-.061.074-.06.071-.061.073-.06.071-.061.073-.062.074-.06.072-.06.071-.062.072-.061.074-.061.072-.061.073-.061.072a1.916 1.916 0 0 1-.06.073l-.06.071-.061.074-.062.073-.059.07a2.066 2.066 0 0 0-.061.074l-.061.072-.06.072c-.021.023-.041.048-.061.073l-.061.072-.059.071-.062.073-.062.074-.06.071-.06.073-.063.073-.058.07-.063.075-.06.073-.06.071-.062.072-.06.074-.062.072-.06.072-.06.072-.06.072-.063.074-.06.072-.061.072-.061.073-.06.072-.06.071-.061.074-.061.072-.061.073-.06.07c-.323.383-.623.785-.899 1.203a13.069 13.069 0 0 0-2.014 5.468c-.11.751-.15 1.51-.122 2.269.064 1.711.493 3.244 1.277 4.553a7.874 7.874 0 0 0 3.426 3.105 9.667 9.667 0 0 0 3.65.91c.227.013.463.019.701.019.164 0 .331 0 .498-.01 2.269-.084 4.339-.711 6.153-1.862l.054-.034.026-.017.057-.036.021-.015.056-.035.023-.014.055-.035.023-.015.058-.037.021-.014.055-.035.024-.015.054-.034.024-.016.056-.035.023-.016.053-.033.025-.016.057-.037.022-.013.057-.036.022-.015.052-.033.025-.016.057-.036.023-.015.053-.034.026-.017.053-.034.026-.016.054-.035.024-.014.056-.036.023-.015.052-.034.026-.017.055-.034.024-.015.055-.036.024-.015.056-.035.023-.015.054-.035.023-.014.054-.034.026-.017.052-.033.026-.018.055-.034.023-.015.054-.035.025-.015.052-.033.027-.018.052-.034.025-.016.055-.035.025-.015.053-.034.025-.016.053-.034.025-.015.055-.036.025-.016.053-.033.024-.017.055-.034.024-.016.058-.036.021-.014.056-.035.022-.015.056-.035-.31 2.235a.867.867 0 0 0 .206.693.87.87 0 0 0 .657.3h.032l6.943-.26a.887.887 0 0 0 .414-.12c.032-.014.064-.03.095-.048a.841.841 0 0 0 .095-.05.625.625 0 0 0 .095-.048.665.665 0 0 0 .096-.049.72.72 0 0 0 .096-.049.852.852 0 0 0 .095-.048.708.708 0 0 0 .095-.049.847.847 0 0 0 .096-.048.831.831 0 0 0 .095-.049.786.786 0 0 0 .096-.049c.033-.014.065-.03.096-.048.032-.015.064-.031.095-.049a.8.8 0 0 0 .095-.049.919.919 0 0 0 .096-.048c.032-.015.065-.031.096-.049a1.12 1.12 0 0 0 .095-.048.903.903 0 0 0 .095-.05c.033-.014.065-.03.096-.048a.927.927 0 0 0 .096-.05.616.616 0 0 0 .095-.048.766.766 0 0 0 .095-.048.855.855 0 0 0 .096-.05.758.758 0 0 0 .095-.048.786.786 0 0 0 .096-.049.848.848 0 0 0 .096-.048.903.903 0 0 0 .095-.049.697.697 0 0 0 .095-.049.772.772 0 0 0 .096-.048c.032-.015.065-.031.096-.049a1.12 1.12 0 0 0 .095-.048.885.885 0 0 0 .095-.05c.033-.014.065-.03.096-.048.033-.014.065-.03.096-.048h-.001l.189-.096.002-.002c.033-.014.065-.03.096-.048a.821.821 0 0 0 .095-.05h.001l.19-.097a.721.721 0 0 0 .096-.049.758.758 0 0 0 .095-.049.786.786 0 0 0 .096-.048.848.848 0 0 0 .096-.049c.032-.014.064-.03.095-.048.095-.05.095-.05.191-.098h-.001c.033-.014.065-.03.097-.048l.007.022.172-.088.011-.032c.033-.014.065-.03.096-.048a.87.87 0 0 0 .518-.68l.621-4.486 1.354 4.646-4.864 8.321a.877.877 0 0 0 .322 1.183.872.872 0 0 0 .433.118h.033l7.691-.288a.853.853 0 0 0 .31-.068.857.857 0 0 0 .114-.04 12.245 12.245 0 0 0 .339-.116l.225-.078a.872.872 0 0 0 .114-.039.957.957 0 0 0 .113-.038.896.896 0 0 0 .113-.04.946.946 0 0 0 .113-.039.826.826 0 0 0 .112-.038 12.245 12.245 0 0 1 .34-.117.844.844 0 0 0 .112-.04.699.699 0 0 0 .113-.039.867.867 0 0 0 .114-.038 16.645 16.645 0 0 1 .451-.156.872.872 0 0 0 .114-.04c.075-.025.151-.05.226-.077a.826.826 0 0 0 .112-.039 1 1 0 0 0 .11-.042.804.804 0 0 0 .113-.04.853.853 0 0 0 .114-.038 12.93 12.93 0 0 1 .452-.156.898.898 0 0 0 .112-.04 16.645 16.645 0 0 1 1.582-.545.85.85 0 0 0 .113-.039.853.853 0 0 0 .114-.038.996.996 0 0 0 .112-.04.872.872 0 0 0 .535-.413l1.617-2.928-.562 4.081a.865.865 0 0 0 .206.692.875.875 0 0 0 .657.299h.032l6.916-.259c.186-.035.371-.08.552-.136a1 1 0 0 0 .138-.04.908.908 0 0 0 .137-.04c.046-.01.092-.023.136-.04a.874.874 0 0 0 .137-.039.961.961 0 0 0 .137-.04.875.875 0 0 0 .137-.04c.046-.01.092-.023.137-.04a.862.862 0 0 0 .136-.04.948.948 0 0 0 .137-.04.822.822 0 0 0 .136-.039 1 1 0 0 0 .138-.04.908.908 0 0 0 .137-.04.974.974 0 0 0 .136-.04.874.874 0 0 0 .137-.04.948.948 0 0 0 .137-.04l.414-.119a.741.741 0 0 0 .137-.04.833.833 0 0 0 .137-.04.765.765 0 0 0 .137-.04 23.405 23.405 0 0 1 .41-.12.792.792 0 0 0 .138-.04.895.895 0 0 0 .136-.038.79.79 0 0 0 .137-.04.895.895 0 0 0 .136-.04.741.741 0 0 0 .137-.04.833.833 0 0 0 .137-.04.757.757 0 0 0 .137-.04.896.896 0 0 0 .137-.04.771.771 0 0 0 .136-.04.844.844 0 0 0 .137-.04.8.8 0 0 0 .138-.04l.272-.077.001-.001c.046-.01.092-.024.137-.04a.755.755 0 0 0 .136-.04.843.843 0 0 0 .137-.04.844.844 0 0 0 .137-.04 1.03 1.03 0 0 0 .137-.04.906.906 0 0 0 .137-.04.988.988 0 0 0 .136-.04.886.886 0 0 0 .138-.039c.046-.01.092-.024.136-.04a.865.865 0 0 0 .137-.04c.046-.01.092-.023.137-.04a.872.872 0 0 0 .689-.735l.695-5.041.147-.051.147-.05.147-.051.146-.051.146-.05.147-.052.147-.051.146-.051.147-.05.145-.052.147-.05.147-.05.147-.052.146-.05.147-.052.147-.05.145-.051c.05-.016.098-.034.147-.051l.147-.05.147-.052.147-.05.145-.051.148-.052.147-.05.144-.051.147-.05.147-.052.147-.05.147-.051.146-.05h.008c.969 1.166 2.463 1.835 4.369 1.944.196.011.401.017.608.017.148 0 .3 0 .451-.009l2.98-.11a.862.862 0 0 0 .305-.068c.282-.087.565-.172.848-.257a.87.87 0 0 0 .171-.051.882.882 0 0 0 .17-.052l.339-.103a.861.861 0 0 0 .17-.052l.339-.104a.86.86 0 0 0 .17-.051.892.892 0 0 0 .17-.053.851.851 0 0 0 .169-.052c.17-.05.34-.102.51-.154a.817.817 0 0 0 .164-.049c.097.052.191.104.287.143a8.537 8.537 0 0 0 3.14.77c.189.01.383.015.58.015.133 0 .27 0 .406-.007a11.84 11.84 0 0 0 2.87-.455c.063-.018.125-.034.186-.053l.187-.052.186-.053.186-.051.187-.053.185-.052.187-.053.194-.051.186-.053.186-.052.186-.052.187-.053.185-.052c.063-.017.125-.034.187-.053l.186-.052.187-.052.185-.052c.063-.017.126-.034.186-.053l.187-.052.186-.052.186-.052c.062-.018.124-.034.186-.053l.187-.052.186-.052.186-.052.186-.053.187-.052c.062-.017.124-.034.185-.053l.186-.051.186-.053.187-.052.186-.052.186-.053.187-.052.186-.052.186-.052.186-.053.187-.052.186-.053.185-.052.186-.052.187-.052c.062-.018.124-.034.186-.053l.186-.052.186-.052.187-.052c.062-.018.124-.034.186-.053l.186-.052.187-.052.186-.052a11.46 11.46 0 0 0 2.818-1.19 10.704 10.704 0 0 0 3.995-4.14c.941-1.73 1.379-3.668 1.301-5.758-.065-1.618-.497-3.067-1.286-4.308a7.677 7.677 0 0 0-3.274-2.851 9.136 9.136 0 0 0-3.366-.828 11.292 11.292 0 0 0-.621-.018c-.142 0-.287 0-.43.008-1.531.05-3.039.389-4.444.998l-.175.073-.179.077-.179.076c-.06.024-.12.05-.18.076l-.178.076a7.49 7.49 0 0 0-.18.075l-.179.076-.174.074-.179.076-.179.076-.175.073-.176.074a4.396 4.396 0 0 0-.174.075l-.179.075-.175.075c-.06.025-.12.05-.18.077-.058.024-.117.048-.175.074l-.032.014.111-.801a.867.867 0 0 0-.863-.992h-.059l-1.692.064.37-2.667a.882.882 0 0 0-.206-.693.877.877 0 0 0-.657-.299l-.012.01ZM108.955 71.51h-.138c-.44-.026-.634-.169-.754-.291-.258-.262-.396-.69-.414-1.31-.007-.172 0-.334 0-.492a.94.94 0 0 1 .322.487l.242.69a.87.87 0 0 0 .827.585h.034l.524-.02-.042.036a.781.781 0 0 0-.076.061.885.885 0 0 0-.075.061c-.024.022-.051.04-.076.061-.025.022-.051.04-.074.061a.766.766 0 0 0-.076.061l-.008.007h-.207l-.009.003Z" fill="#FFDA00"/><path d="M102.194 64.071a10.969 10.969 0 0 1 3.82-3.577 11.14 11.14 0 0 1 5.139-1.422c1.567-.058 2.947.179 4.139.71a6.464 6.464 0 0 1 2.819 2.356c.69 1.04 1.088 2.277 1.193 3.715l-5.697.213a2.977 2.977 0 0 0-1.196-1.578c-.552-.358-1.225-.522-2.019-.492a4.363 4.363 0 0 0-3.111 1.413c-.854.898-1.379 2.08-1.577 3.549-.06.403-.082.811-.064 1.219.042 1.115.367 1.982.976 2.6.609.617 1.427.906 2.453.868a4.436 4.436 0 0 0 2.18-.651 4.756 4.756 0 0 0 1.628-1.684l5.725-.213c-.783 2.207-2.078 3.982-3.885 5.324-1.808 1.342-3.899 2.055-6.275 2.14-1.639.06-3.069-.202-4.29-.787a6.485 6.485 0 0 1-2.84-2.57c-.674-1.129-1.039-2.449-1.093-3.96-.026-.698.011-1.396.112-2.087a12.08 12.08 0 0 1 1.863-5.086ZM129.583 63.117a5.821 5.821 0 0 1 2.834-.89l-.762 5.68-1.485.056c-1.117.041-1.982.283-2.596.725-.614.441-1.011 1.177-1.189 2.207l-.959 6.904-5.321.199 2.135-15.25 5.293-.206-.382 2.772a8.939 8.939 0 0 1 2.432-2.197ZM138.552 62.133l1.966 8.527 4.273-8.76 5.805-.216-12.695 22.87-5.753.215 4.706-8.05-4.189-14.366 5.887-.22ZM158.982 61.803a6.125 6.125 0 0 1 2.759-.724c1.587-.06 2.88.416 3.88 1.424.999 1.009 1.534 2.423 1.605 4.243.018.633-.012 1.267-.091 1.896-.231 1.577-.712 2.97-1.441 4.177-.729 1.208-1.626 2.148-2.69 2.82a6.78 6.78 0 0 1-3.408 1.072c-1.027.038-1.885-.137-2.576-.525a3.637 3.637 0 0 1-1.542-1.623l-1.298 9.406-5.289.2 3.104-22.534 5.293-.199-.299 2.12a5.859 5.859 0 0 1 1.993-1.752Zm2.803 6.25c-.029-.738-.262-1.306-.699-1.703-.437-.398-.989-.585-1.656-.561-.772.029-1.468.334-2.089.916-.621.583-.993 1.363-1.118 2.34-.042.251-.059.506-.052.76.027.759.261 1.34.7 1.746.44.405.992.596 1.656.573a3.118 3.118 0 0 0 2.102-.931c.608-.592.976-1.376 1.102-2.355.044-.259.062-.521.054-.784ZM175.172 70.26c-.015.108-.02.216-.015.325.011.288.104.495.281.62.177.127.462.184.858.171l1.54-.058-.643 4.541-2.322.086c-3.295.124-4.994-1.2-5.098-3.973a9.019 9.019 0 0 1 .104-1.6l.704-5.03-1.862.07.621-4.432 1.862-.069.511-3.697 5.321-.198-.512 3.697 2.727-.104-.621 4.431-2.726.104-.73 5.116ZM183.122 75.047a5.666 5.666 0 0 1-2.445-2.127c-.594-.933-.915-2.04-.963-3.317-.064-1.729.287-3.31 1.054-4.745a8.714 8.714 0 0 1 3.268-3.421c1.41-.846 3.007-1.302 4.79-1.37 1.314-.048 2.49.17 3.527.654a5.758 5.758 0 0 1 2.46 2.139c.603.943.929 2.053.975 3.33.065 1.748-.29 3.334-1.066 4.76a8.745 8.745 0 0 1-3.281 3.395c-1.411.837-3.008 1.288-4.79 1.355-1.316.049-2.492-.169-3.529-.653Zm5.832-4.599c.489-.426.86-.97 1.078-1.581a5.057 5.057 0 0 0 .316-1.96c-.027-.756-.242-1.324-.645-1.707-.403-.382-.91-.561-1.521-.538a2.558 2.558 0 0 0-1.666.657 3.897 3.897 0 0 0-1.049 1.58 5.117 5.117 0 0 0-.319 1.987c.029.76.24 1.324.632 1.693.391.37.894.545 1.506.526a2.631 2.631 0 0 0 1.668-.657Z" fill="#fff"/><path d="M97.82 58.481a.436.436 0 0 1-.414-.577l.843-2.46-1.927.076a.437.437 0 0 1-.431-.495l.42-3.086a.437.437 0 0 1 .265-.345l.055-.026a.376.376 0 0 1 .054-.027.566.566 0 0 1 .055-.028.532.532 0 0 1 .055-.028.536.536 0 0 1 .055-.027.47.47 0 0 1 .056-.028.43.43 0 0 1 .054-.027.381.381 0 0 1 .054-.027.534.534 0 0 1 .055-.028.533.533 0 0 1 .055-.028.35.35 0 0 1 .056-.027.448.448 0 0 1 .055-.028.45.45 0 0 1 .055-.026.429.429 0 0 1 .053-.028.399.399 0 0 1 .056-.027.462.462 0 0 1 .055-.028.382.382 0 0 1 .055-.027.533.533 0 0 1 .055-.028.34.34 0 0 1 .055-.027.472.472 0 0 1 .055-.028.34.34 0 0 1 .054-.027.544.544 0 0 1 .055-.028.376.376 0 0 1 .055-.027.566.566 0 0 1 .055-.028.386.386 0 0 1 .055-.027.544.544 0 0 1 .055-.027.381.381 0 0 1 .055-.027.545.545 0 0 1 .054-.028.381.381 0 0 1 .055-.027.544.544 0 0 1 .055-.028.381.381 0 0 1 .055-.027.543.543 0 0 1 .055-.028.47.47 0 0 1 .056-.028.435.435 0 0 1 .053-.027.545.545 0 0 1 .055-.028.463.463 0 0 1 .056-.027.326.326 0 0 1 .054-.027.347.347 0 0 1 .056-.028.449.449 0 0 1 .055-.028.34.34 0 0 1 .055-.026.472.472 0 0 1 .054-.028h.008l-.753.029a.438.438 0 0 1-.432-.495l.424-3.088a.439.439 0 0 1 .266-.345.375.375 0 0 1 .054-.026.47.47 0 0 1 .056-.029.45.45 0 0 1 .053-.026.477.477 0 0 1 .056-.028.34.34 0 0 1 .055-.027.544.544 0 0 1 .055-.028.51.51 0 0 1 .054-.027.477.477 0 0 1 .056-.028.381.381 0 0 1 .055-.027.455.455 0 0 1 .054-.028.377.377 0 0 1 .055-.027.533.533 0 0 1 .055-.028.387.387 0 0 1 .055-.027.448.448 0 0 1 .055-.028.387.387 0 0 1 .055-.026.533.533 0 0 1 .054-.028.387.387 0 0 1 .055-.027.448.448 0 0 1 .055-.028.545.545 0 0 1 .055-.028.545.545 0 0 1 .055-.027.566.566 0 0 1 .055-.028.462.462 0 0 1 .056-.027.443.443 0 0 1 .053-.028l.055-.027a.477.477 0 0 1 .056-.028.375.375 0 0 1 .054-.027.55.55 0 0 1 .056-.027.332.332 0 0 1 .055-.028.33.33 0 0 1 .053-.026.286.286 0 0 1 .056-.028.438.438 0 0 1 .055-.028.358.358 0 0 1 .055-.027.474.474 0 0 1 .055-.028.326.326 0 0 1 .055-.027.443.443 0 0 1 .054-.028.36.36 0 0 1 .055-.027.474.474 0 0 1 .055-.028.411.411 0 0 1 .055-.027.567.567 0 0 1 .055-.028.411.411 0 0 1 .055-.026.546.546 0 0 1 .055-.029.36.36 0 0 1 .055-.026.551.551 0 0 1 .054-.028.546.546 0 0 1 .055-.028l.055-.027a.411.411 0 0 1 .055-.027.567.567 0 0 1 .055-.028.36.36 0 0 1 .055-.027.552.552 0 0 1 .054-.028.503.503 0 0 1 .056-.028.438.438 0 0 1 .207-.06l.547-.02.486-1.4a.438.438 0 0 1 .245-.26.368.368 0 0 1 .055-.027.473.473 0 0 1 .055-.028.326.326 0 0 1 .055-.027.364.364 0 0 1 .055-.028.36.36 0 0 1 .055-.027.353.353 0 0 1 .054-.028.411.411 0 0 1 .055-.027.418.418 0 0 1 .055-.028.368.368 0 0 1 .055-.027.373.373 0 0 1 .055-.028.546.546 0 0 1 .055-.027.389.389 0 0 1 .054-.027.711.711 0 0 1 .055-.028.411.411 0 0 1 .055-.027.411.411 0 0 1 .055-.027.296.296 0 0 1 .055-.028.487.487 0 0 1 .056-.028.316.316 0 0 1 .054-.027.53.53 0 0 1 .054-.028.411.411 0 0 1 .055-.027.546.546 0 0 1 .055-.028.378.378 0 0 1 .056-.027.473.473 0 0 1 .055-.028.316.316 0 0 1 .054-.026.4.4 0 0 1 .056-.024.316.316 0 0 1 .054-.027.474.474 0 0 1 .055-.028.411.411 0 0 1 .055-.027.33.33 0 0 1 .055-.028.546.546 0 0 1 .055-.028.56.56 0 0 1 .055-.027.388.388 0 0 1 .053-.027l.056-.028a.546.546 0 0 1 .055-.028.56.56 0 0 1 .055-.027.411.411 0 0 1 .055-.027.373.373 0 0 1 .055-.027.457.457 0 0 1 .055-.028.34.34 0 0 1 .054-.027.567.567 0 0 1 .055-.028.538.538 0 0 1 .055-.027.546.546 0 0 1 .055-.028.35.35 0 0 1 .055-.027.418.418 0 0 1 .056-.028.347.347 0 0 1 .053-.027.677.677 0 0 1 .055-.028.411.411 0 0 1 .055-.027.546.546 0 0 1 .055-.028.411.411 0 0 1 .055-.027.562.562 0 0 1 .056-.027.433.433 0 0 1 .207-.06l3.284-.133a.436.436 0 0 1 .414.579l-.098.281.026-.011a.418.418 0 0 1 .056-.028.347.347 0 0 1 .053-.027.487.487 0 0 1 .056-.028.542.542 0 0 1 .054-.027.487.487 0 0 1 .056-.028.326.326 0 0 1 .055-.027.405.405 0 0 1 .055-.028.293.293 0 0 1 .055-.027.393.393 0 0 1 .054-.028.368.368 0 0 1 .055-.027.404.404 0 0 1 .054-.028.487.487 0 0 1 .056-.028.56.56 0 0 1 .055-.026.326.326 0 0 1 .055-.027l.109-.056a.388.388 0 0 1 .055-.027.546.546 0 0 1 .055-.028.538.538 0 0 1 .055-.027.36.36 0 0 1 .055-.027.364.364 0 0 1 .055-.028.531.531 0 0 1 .054-.028.411.411 0 0 1 .055-.027.546.546 0 0 1 .055-.028.411.411 0 0 1 .055-.026.546.546 0 0 1 .055-.028.538.538 0 0 1 .055-.027.473.473 0 0 1 .055-.028.468.468 0 0 1 .054-.027.546.546 0 0 1 .055-.028.411.411 0 0 1 .055-.027.487.487 0 0 1 .056-.028.43.43 0 0 1 .207-.06l3.282-.127a.437.437 0 0 1 .434.373c.01.07.003.14-.02.205l-.828 2.387 1.516-.06h.017a.427.427 0 0 1 .064 0l.008-.008.045-.048.017-.019.047-.05.017-.018.046-.05.018-.019.045-.05.018-.018.045-.05.018-.017a4.577 4.577 0 0 1 1.531-1.144 6.49 6.49 0 0 1 2.539-.581c.096 0 .192-.005.287-.005.137 0 .274 0 .404.011a5.832 5.832 0 0 1 1.656.328 4.182 4.182 0 0 1 1.881 1.313c.362.452.608.985.72 1.553.334-.3.702-.56 1.097-.773a6.067 6.067 0 0 1 2.703-.725c.084 0 .168-.005.252-.005.12 0 .241 0 .358.01a4.667 4.667 0 0 1 2.369.755l.012-.009a.426.426 0 0 1 .088-.068.407.407 0 0 1 .087-.068.504.504 0 0 1 .087-.069l.175-.136a.459.459 0 0 1 .088-.068.422.422 0 0 1 .087-.068.383.383 0 0 1 .087-.068.4.4 0 0 1 .087-.068.455.455 0 0 1 .088-.069.43.43 0 0 1 .292-.128l4.595-.172h.017c.044 0 .089.008.131.021a4.83 4.83 0 0 1 .962-.13h.193c.092 0 .184 0 .273.009a3.892 3.892 0 0 1 1.725.492c.112.062.22.131.324.206h.006a5.1 5.1 0 0 1 .407-.26 4.638 4.638 0 0 1 2.171-.638h.219c.104 0 .207 0 .311.008a3.95 3.95 0 0 1 1.977.621.625.625 0 0 1 .062-.034.437.437 0 0 1 .109-.068.432.432 0 0 1 .104-.07.387.387 0 0 1 .103-.068.429.429 0 0 1 .104-.069.426.426 0 0 1 .103-.07.446.446 0 0 1 .109-.068.403.403 0 0 1 .108-.069.409.409 0 0 1 .104-.068.424.424 0 0 1 .269-.104l4.599-.173h.016c.105 0 .206.036.286.104a.347.347 0 0 1 .057-.029.443.443 0 0 1 .263-.103l4.614-.172h.015a.432.432 0 0 1 .418.312c.018.06.023.123.014.184l-.037.27.124-.07.123-.068.124-.07.124-.069.125-.068a4.771 4.771 0 0 1 2.206-.636h.197a4.107 4.107 0 0 1 1.016.12.427.427 0 0 1 .226-.074l3.093-.115a.41.41 0 0 1 .128-.064.42.42 0 0 1 .139-.074c.094-.047.186-.096.279-.145a.442.442 0 0 1 .139-.073.46.46 0 0 1 .14-.073.434.434 0 0 1 .139-.073.455.455 0 0 1 .14-.073.429.429 0 0 1 .138-.073.438.438 0 0 1 .14-.072.416.416 0 0 1 .14-.074.428.428 0 0 1 .138-.072.425.425 0 0 1 .14-.074.428.428 0 0 1 .14-.072c.092-.05.185-.098.278-.146a.45.45 0 0 1 .14-.073.419.419 0 0 1 .138-.073.467.467 0 0 1 .14-.073.429.429 0 0 1 .14-.073.444.444 0 0 1 .154-.088.436.436 0 0 1 .14-.072.424.424 0 0 1 .139-.073.415.415 0 0 1 .139-.073.438.438 0 0 1 .14-.072.41.41 0 0 1 .14-.074.42.42 0 0 1 .138-.072.458.458 0 0 1 .14-.074.439.439 0 0 1 .251-.092l5.411-.202c.096 0 .19-.005.283-.005.13 0 .26 0 .384.011.314.017.626.062.931.135.048-.026.098-.05.146-.071.049-.022.104-.052.154-.076.051-.024.104-.052.155-.074.05-.023.103-.052.154-.076.05-.024.103-.052.154-.075.051-.024.103-.051.154-.076l.154-.075c.051-.023.104-.051.154-.075l.155-.076c.05-.023.103-.051.153-.074s.103-.052.154-.076l.154-.075c.051-.024.104-.052.154-.076.051-.023.104-.05.155-.074.05-.024.103-.052.154-.076l.154-.075c.051-.024.103-.052.154-.075.051-.023.104-.052.154-.075l.155-.076c.05-.024.103-.052.153-.074.444-.231.935-.359 1.435-.373h.138c.069 0 .138.002.207.006.58.02 1.139.23 1.591.594a2.41 2.41 0 0 1 .895 1.833 2.79 2.79 0 0 1-.252 1.288l.013-.005.03-.015a5.804 5.804 0 0 1 2.225-.498c.091 0 .183-.005.273-.005.131 0 .259 0 .384.01a5.317 5.317 0 0 1 1.734.38 4.09 4.09 0 0 1 1.289.834h.009c.059-.025.116-.049.173-.07.057-.022.115-.05.173-.072.058-.022.117-.05.172-.071.055-.022.115-.049.173-.072l.172-.07c.057-.025.114-.049.172-.072.058-.022.115-.048.173-.07.058-.024.118-.05.173-.071.055-.021.115-.05.173-.072.058-.021.116-.05.172-.071.057-.022.117-.05.172-.072.055-.021.116-.048.172-.07.056-.022.115-.05.174-.071.059-.022.116-.05.172-.072.056-.021.114-.048.172-.071.056-.024.113-.048.17-.07.536-.23 1.11-.359 1.693-.38h.196a4.098 4.098 0 0 1 1.016.119.441.441 0 0 1 .228-.074l4.595-.172h.017a.435.435 0 0 1 .431.496l-1.329 9.61a.442.442 0 0 1-.394.375.446.446 0 0 1-.181.058.45.45 0 0 1-.181.058.434.434 0 0 1-.181.057.423.423 0 0 1-.182.058.419.419 0 0 1-.181.058.418.418 0 0 1-.181.058.419.419 0 0 1-.181.058.427.427 0 0 1-.181.058l-.364.116a.433.433 0 0 1-.181.058.431.431 0 0 1-.181.058l-.363.116a.427.427 0 0 1-.181.057.428.428 0 0 1-.181.059.436.436 0 0 1-.181.057.447.447 0 0 1-.181.058c-.121.04-.243.078-.364.116a.431.431 0 0 1-.181.058.446.446 0 0 1-.181.058.444.444 0 0 1-.181.058.455.455 0 0 1-.182.058.446.446 0 0 1-.181.058.429.429 0 0 1-.181.057.418.418 0 0 1-.181.058.422.422 0 0 1-.181.058l-.364.116a.418.418 0 0 1-.181.058.417.417 0 0 1-.181.058.431.431 0 0 1-.181.058.431.431 0 0 1-.181.058.427.427 0 0 1-.182.058.432.432 0 0 1-.18.058.442.442 0 0 1-.182.057.44.44 0 0 1-.182.058.433.433 0 0 1-.181.058.431.431 0 0 1-.181.058.437.437 0 0 1-.182.058.428.428 0 0 1-.181.058.441.441 0 0 1-.181.058.45.45 0 0 1-.181.058.455.455 0 0 1-.181.058l-.363.116a.455.455 0 0 1-.182.058.431.431 0 0 1-.181.057.419.419 0 0 1-.181.058.433.433 0 0 1-.207.06l-4.264.158h-.017a.45.45 0 0 1-.083-.008c-.311.08-.63.125-.952.135h-.171c-.083 0-.166 0-.246-.006a3.52 3.52 0 0 1-2.165-.859l-.078.027-.119.041-.047.017-.121.043-.044.014a3.319 3.319 0 0 1-.121.042l-.046.016c-.039.016-.081.029-.121.042l-.044.016-.121.042-.045.015c-.039.015-.08.029-.12.042l-.045.016-.122.043-.044.015-.123.043-.043.015-.121.042-.044.015a2.37 2.37 0 0 1-.121.042l-.045.016c-.039.015-.08.028-.12.042l-.045.016a3.28 3.28 0 0 1-.122.042l-.043.014a6.341 6.341 0 0 1-2.048.398h-.263c-.125 0-.249 0-.37-.012a5.4 5.4 0 0 1-1.431-.27 4.484 4.484 0 0 1-.364-.142.288.288 0 0 1-.042.01.45.45 0 0 1-.156.057.46.46 0 0 1-.158.057.45.45 0 0 1-.156.057.455.455 0 0 1-.157.056.448.448 0 0 1-.156.057.456.456 0 0 1-.158.057.43.43 0 0 1-.156.057.439.439 0 0 1-.207.062l-4.276.16h-.022a.43.43 0 0 1-.329-.15.44.44 0 0 1-.102-.347v-.02l-.074.028-.103.043-.039.014-.111.044-.037.013c-.037.016-.074.03-.11.043l-.038.014a5.881 5.881 0 0 1-2.07.43l-5.465.207h-.017a.439.439 0 0 1-.417-.311.44.44 0 0 1-.014-.184l.019-.13a.509.509 0 0 1-.067.022v.001l-.402.168.002-.001a.448.448 0 0 1-.135.057.448.448 0 0 1-.133.056.423.423 0 0 1-.134.056.435.435 0 0 1-.133.055.416.416 0 0 1-.128.063.454.454 0 0 1-.134.057.443.443 0 0 1-.133.056.462.462 0 0 1-.134.056.435.435 0 0 1-.217.067l-4.265.16h-.016a.44.44 0 0 1-.083-.007 4.579 4.579 0 0 1-.952.135h-.172c-.083 0-.166 0-.246-.007a3.608 3.608 0 0 1-1.656-.49l-.036.01a.446.446 0 0 1-.12.057.465.465 0 0 1-.121.056.443.443 0 0 1-.12.054.425.425 0 0 1-.12.056.431.431 0 0 1-.12.056.482.482 0 0 1-.121.056.444.444 0 0 1-.121.055.4.4 0 0 1-.12.056.427.427 0 0 1-.224.072l-4.259.159h-.016a.432.432 0 0 1-.159-.03c-.31.078-.626.124-.945.135h-.181c-.087 0-.174 0-.26-.007a3.486 3.486 0 0 1-1.643-.49.404.404 0 0 1-.069.031.443.443 0 0 1-.103.055.454.454 0 0 1-.104.055.392.392 0 0 1-.103.056.453.453 0 0 1-.104.055.447.447 0 0 1-.103.055.435.435 0 0 1-.104.054.404.404 0 0 1-.103.056.457.457 0 0 1-.104.055.438.438 0 0 1-.234.08l-4.243.158h-.017a.437.437 0 0 1-.264-.089.357.357 0 0 1-.056.026.43.43 0 0 1-.242.085l-4.259.158h-.017a.442.442 0 0 1-.266-.09.533.533 0 0 1-.043.02.424.424 0 0 1-.249.091l-4.276.16h-.017a.437.437 0 0 1-.431-.497l.055-.397-.015.01-.084.056-.084.054-.084.056c-.24.16-.492.303-.754.424a5.493 5.493 0 0 1-2.147.518c-.077 0-.155.005-.232.005-.112 0-.223 0-.33-.01-1.017-.058-1.888-.39-2.587-.986a3.764 3.764 0 0 1-.381-.375l-.05.037-.059.045-.01.007-.064.049-.013.009-.065.05-.073.055-.065.05h-.007l-.064.049-.012.009-.07.053-.07.053-.074.056-.074.055c-.244.19-.507.356-.784.494a5.884 5.884 0 0 1-2.44.575c-.104 0-.207.006-.316.006-.147 0-.293 0-.433-.012-.968-.056-1.813-.304-2.508-.739a3.374 3.374 0 0 1-1.607-2.54.433.433 0 0 1-.049.026.336.336 0 0 1-.056.027.406.406 0 0 1-.055.028.349.349 0 0 1-.054.026.567.567 0 0 1-.055.028.411.411 0 0 1-.055.027.546.546 0 0 1-.055.028.349.349 0 0 1-.054.027l-.056.028a.349.349 0 0 1-.054.027.432.432 0 0 1-.207.061l-.15.005-.507 1.47a.422.422 0 0 1-.245.261.546.546 0 0 1-.055.028.349.349 0 0 1-.054.027.711.711 0 0 1-.055.028.411.411 0 0 1-.055.027.546.546 0 0 1-.055.028.4.4 0 0 1-.055.027.567.567 0 0 1-.055.028.36.36 0 0 1-.055.027.353.353 0 0 1-.054.028.388.388 0 0 1-.055.027.487.487 0 0 1-.056.028.393.393 0 0 1-.054.027.538.538 0 0 1-.055.027.418.418 0 0 1-.056.028.507.507 0 0 1-.053.027.411.411 0 0 1-.055.027.318.318 0 0 1-.056.028.662.662 0 0 1-.054.028.423.423 0 0 1-.056.027.349.349 0 0 1-.054.027.261.261 0 0 1-.056.028.531.531 0 0 1-.054.028.411.411 0 0 1-.055.027.567.567 0 0 1-.055.028.411.411 0 0 1-.055.026.568.568 0 0 1-.055.028.453.453 0 0 1-.054.027l-.055.028a.411.411 0 0 1-.055.027.546.546 0 0 1-.055.028.4.4 0 0 1-.055.027.474.474 0 0 1-.055.028.546.546 0 0 1-.055.028l-.055.027a.531.531 0 0 1-.054.028.538.538 0 0 1-.055.027.411.411 0 0 1-.055.027l-.11.056a.56.56 0 0 1-.055.026.417.417 0 0 1-.056.028.507.507 0 0 1-.053.027.411.411 0 0 1-.055.027.385.385 0 0 1-.056.028.49.49 0 0 1-.055.028.326.326 0 0 1-.055.027.394.394 0 0 1-.055.028.31.31 0 0 1-.054.027.49.49 0 0 1-.055.028.368.368 0 0 1-.055.027.422.422 0 0 1-.207.06l-3.262.127h-.016a.437.437 0 0 1-.434-.373.432.432 0 0 1 .02-.205l.097-.283-.026.011a.471.471 0 0 1-.056.028.406.406 0 0 1-.055.028.293.293 0 0 1-.055.027.46.46 0 0 1-.054.028.358.358 0 0 1-.055.027.349.349 0 0 1-.054.027.282.282 0 0 1-.056.028.546.546 0 0 1-.055.028.326.326 0 0 1-.055.027.531.531 0 0 1-.054.028.646.646 0 0 1-.054.026.487.487 0 0 1-.056.028.411.411 0 0 1-.055.027.546.546 0 0 1-.055.028.36.36 0 0 1-.055.027.472.472 0 0 1-.055.028.349.349 0 0 1-.054.027.546.546 0 0 1-.055.028.411.411 0 0 1-.055.027.567.567 0 0 1-.055.028.471.471 0 0 1-.056.028.4.4 0 0 1-.054.027.349.349 0 0 1-.054.027.503.503 0 0 1-.056.027.66.66 0 0 1-.054.028.36.36 0 0 1-.056.027.443.443 0 0 1-.054.028l-.055.027a.417.417 0 0 1-.056.028.316.316 0 0 1-.054.027.474.474 0 0 1-.055.028.368.368 0 0 1-.055.027.424.424 0 0 1-.207.06l-3.265.128-.015.001Z" fill="#243B7F"/><path d="M180.783 39.332h.176c.488.016.958.19 1.339.496a1.992 1.992 0 0 1 .738 1.509 2.395 2.395 0 0 1-.402 1.43l-.085.613.063-.026.03-.015c.043-.02.086-.037.13-.055l.03-.015c.042-.02.087-.038.13-.056l.03-.015c.042-.02.086-.037.129-.055l.03-.015c.043-.02.087-.037.131-.056l.03-.015c.042-.02.086-.037.129-.055l.03-.015a5.351 5.351 0 0 1 2.057-.457h.258c.122 0 .242 0 .359.01a4.866 4.866 0 0 1 1.592.348c.516.206.977.53 1.345.947l.112-.046c.057-.024.114-.049.172-.07.058-.022.114-.05.172-.072.058-.021.115-.048.173-.071.058-.023.115-.049.172-.07.057-.022.115-.05.173-.072.058-.021.115-.05.173-.071.058-.022.114-.049.172-.072.058-.022.114-.048.172-.07.058-.022.115-.05.173-.071.058-.022.115-.05.173-.072.058-.022.115-.048.173-.071.058-.023.113-.049.171-.07.058-.022.115-.05.173-.072.058-.022.115-.049.173-.071.058-.023.114-.049.172-.07.058-.022.115-.05.173-.072.058-.022.115-.05.172-.072a4.297 4.297 0 0 1 1.545-.35h.18c.084 0 .166 0 .247.008.281.015.559.064.828.146v-.036l.166-.007.01-.065 4.596-.172-1.329 9.624-.175.007-.008.051-.173.006-.008.052-.173.006-.008.052-.174.006-.007.052-.174.006-.007.052-.175.006-.007.052-.174.006-.007.052-.174.006-.007.052-.174.006-.007.052-.174.006-.007.052-.175.006-.007.052-.174.006-.008.052-.174.006-.007.052-.174.006-.007.052-.174.006-.007.052-.175.006-.006.05-.175.008-.007.05-.174.008-.007.05-.174.008.003.036-.174.007-.007.05-.174.008-.007.05-.175.008-.006.05-.175.007-.007.052-.174.006-.008.052-.173.006-.008.052-.173.006-.008.052-.175.006-.006.052-.175.006-.007.052-.174.006-.007.051-.174.007-.007.051-.174.007-.007.051-.175.007-.006.051-.175.007-.007.051-.174.006-.008.052-.173.006-.008.052-.173.006-.008.052-.174.006-.007.052-.175.006-.006.052-.175.006-.007.05-.174.008-.007.05-.174.008-.007.05-.174.008-.007.05-.177.014-.007.05-.174.008-.008.05-.173.008-.008.05-.174.007-.007.052-.174.006-.007.052-.174.006-.007.052-.175.006-.007.052-.174.006-.007.051-.174.007-.007.051-4.265.16.007-.052a3.966 3.966 0 0 1-1.058.18h-.155a3.83 3.83 0 0 1-.221-.007 3.086 3.086 0 0 1-2.084-.922c-.054.02-.111.038-.166.057l-.165.058-.166.058-.165.057c-.055.018-.111.039-.166.058a7.996 7.996 0 0 0-.165.057c-.055.02-.111.039-.166.057a16.641 16.641 0 0 0-.331.116l-.166.058-.165.057-.167.058-.165.058c-.054.02-.11.038-.165.057a5.869 5.869 0 0 1-1.918.368h-.246c-.117 0-.233 0-.346-.009a4.986 4.986 0 0 1-1.316-.248 3.994 3.994 0 0 1-.496-.207h-.11l-.008.052-.15.005-.007.051h-.149l-.007.052-.15.005-.007.052-.149.005-.008.052-.15.005-.007.052-.149.005-.007.052h-.15l-.007.052-.149.005-.008.052-4.28.182.104-.755-.027.01c-.049.021-.104.039-.148.057-.045.02-.104.039-.149.059l-.148.056c-.049.021-.104.039-.149.057a5.837 5.837 0 0 1-.148.057c-.05.019-.104.038-.149.057-.046.019-.104.038-.148.058-.045.02-.104.038-.149.057a5.405 5.405 0 0 1-1.922.4l-5.465.206.13-.925h-.034l-.006.051-.127.005-.007.052h-.127l-.007.052h-.126l-.007.051-.127.005-.007.051h-.126l-.007.052h-.127l-.007.052h-.127l-.006.051-.128.006-.007.05-.126.005-.007.052h-.127l-.007.052h-.126l-.007.052-.127.005-.007.05-.126.006-.007.051h-.128l-.006.052h-.127l-.007.052-.127.005-.007.05-.126.006-.007.05-4.265.16.007-.05a3.966 3.966 0 0 1-1.058.178h-.155c-.075 0-.148-.002-.221-.006a3.12 3.12 0 0 1-1.673-.571h-.036l-.008.052h-.112l-.008.05h-.113l-.008.052h-.113l-.007.052h-.113l-.007.052h-.113l-.007.05h-.114l-.007.052h-.113l-.007.052h-.113l-.007.052h-.113l-.007.05h-.114l-.007.052-4.258.158.013-.103a3.966 3.966 0 0 1-1.133.207h-.166c-.079 0-.158 0-.235-.006a2.974 2.974 0 0 1-1.662-.579l-.005.033h-.103l-.007.052h-.104l-.007.05h-.104l-.007.053h-.103l-.008.051h-.103l-.006.052h-.104l-.007.05h-.104l-.007.053h-.103l-.008.051h-.103l-.007.05h-.104l-.007.053h-.103l-.007.051-4.248.159.05-.36h-.024l-.007.051h-.092l-.007.052h-.092l-.008.052h-.092l-.007.052h-.092l-.007.051h-.092l-.008.052h-.092l-.007.052-4.26.158.049-.359h-.066l-.007.052h-.085l-.007.052h-.085l-.007.05h-.085l-.008.052h-.084l-.007.052h-.084l-.008.05h-.085l-.007.051-4.276.16.19-1.351-.061.04-.084.055-.084.055-.084.055-.084.056-.084.055-.083.056-.084.054-.084.056-.084.055-.084.055-.084.056a5.275 5.275 0 0 1-.787.452 5.1 5.1 0 0 1-1.979.473h-.216a4.88 4.88 0 0 1-.304-.01c-.922-.052-1.704-.35-2.326-.882a3.294 3.294 0 0 1-.585-.65c-.008.006-.019.012-.027.02l-.072.055-.074.054c-.024.02-.047.038-.072.055l-.073.056-.073.055-.073.055-.072.055-.073.054-.073.055-.072.056-.073.055-.072.055-.074.055-.072.055-.073.054a4.145 4.145 0 0 1-.715.45 5.448 5.448 0 0 1-2.232.523c-.103 0-.2.005-.299.005-.139 0-.275 0-.408-.011-.895-.05-1.669-.277-2.302-.673-.89-.556-1.383-1.436-1.424-2.543 0-.082 0-.188.006-.332h-.023v.026h-.051v.025h-.052v.026h-.051v.026h-.051v.026h-.05v.026h-.051v.025h-.051v.026h-.05v.024h-.051v.026h-.051v.025h-.05v.026h-.052v.025h-.052v.026h-.052v.025h-.051v.025h-.052v.025h-.052v.026h-.052v.025h-.051v.026h-.052v.025h-.052v.026l-.448.017-.603 1.752h-.047l-.008.026h-.047l-.008.026h-.047l-.008.026h-.046l-.009.024h-.046l-.009.026h-.046l-.008.025h-.047l-.008.026h-.047l-.008.025h-.047l-.008.026h-.046l-.009.025h-.046l-.01.026h-.045l-.009.024h-.046l-.009.026h-.046l-.009.025h-.046l-.009.026h-.046l-.009.026h-.045l-.01.026h-.045l-.01.025h-.045l-.009.026h-.046l-.009.026h-.046l-.009.026h-.046l-.009.026h-.045l-.01.026h-.045l-.01.026h-.045l-.009.026h-.047l-.008.026h-.047l-.008.025h-.047l-.008.026h-.047l-.008.026h-.046l-.009.026h-.046l-.009.025h-.046l-.008.026h-.047l-.008.025h-.047l-.008.025h-.047l-.008.025h-.047l-.008.026h-.046l-.009.025h-.046l-.01.026h-.045l-.009.025h-.046l-.009.025h-.046l-.009.025h-.046l-.009.026h-.045l-.01.026h-.045l-.01.026h-.045l-.009.026h-.046l-.009.026h-.046l-.009.025h-.046l-.009.026h-.046l-.009.026h-.082v.337h-.045l-.009.026-3.268.127.45-1.31h-.025l-.008.027h-.044l-.008.025h-.047l-.008.026h-.047l-.008.026h-.046l-.009.026h-.046l-.009.025h-.046l-.008.026h-.047l-.008.025h-.047l-.008.026h-.047l-.008.024h-.046l-.009.026h-.046l-.009.025h-.046l-.009.026h-.046l-.009.025h-.046l-.009.026h-.046l-.008.048h-.045l-.01.026h-.045l-.01.026h-.045l-.009.026h-.046l-.009.026h-.046l-.009.026h-.046l-.009.025h-.046l-.009.026h-.045l-.01.026h-.045l-.01.026h-.045l-.009.026h-.047l-.008.026h-.047l-.008.026h-.047l-.008.025h-.047l-.008.026h-.046l-.014.052h-.046l-.009.026h-.046l-.009.025h-.046l-.008.026h-.047l-.008.025h-.047l-.008.025h-.047l-.008.025h-.046l-.009.026h-.046l-.01.025h-.045l-.009.026h-.046l-.009.025h-.046l-.009.026h-.046l-.009.025h-.046l-.009.026h-.045l-.01.026h-.045l-.01.026h-.045l-.009.026h-.046l-.009.026h-.046l-.009.026h-.046l-.009.025h-.045l-.01.026-3.268.127 1.055-3.019-2.547.098.42-3.084h.052v-.026h.052v-.025h.051v-.026h.052v-.025h.052v-.026h.052v-.025h.05v-.026h.051v-.024h.05v-.026h.051v-.025h.051v-.026h.05v-.026h.052v-.026h.05v-.025h.052v-.026h.052v-.026h.052v-.025h.051v-.026h.052v-.025h.052v-.026h.051v-.025h.052v-.025h.052v-.025h.052v-.026h.051v-.025h.052v-.026h.052v-.025h.052v-.026h.051v-.024h.052v-.026h.052v-.025h.052v-.026h.05v-.025h.051v-.026h.05v-.024h.051v-.026h.051v-.025h.05v-.026h.052v-.026h.05v-.026h.052v-.026h.052v-.026h.052v-.025h.051v-.025h.052v-.026h.052v-.025h.051v-.026h.052v-.025h.052v-.026h.052v-.024h.051v-.026l.859-.033.207-.605-2.527.099.42-3.085h.051v-.026h.05v-.026h.238V47h.05v-.026h.051v-.024h.052v-.026h.052v-.025h.051v-.026h.052v-.025h.052v-.026h.052v-.025h.051v-.025h.052v-.025h.052v-.026h.052v-.025h.051v-.026h.052v-.025h.052v-.026h.052v-.024h.051v-.026h.052v-.025h.052v-.026h.052v-.025h.05v-.026h.05v-.025h.052v-.025h.05v-.026h.051v-.026h.051v-.026h.05v-.026h.051v-.026h.052v-.026h.052v-.026h.051v-.024h.052v-.026h.052v-.025h.052v-.026h.051v-.025h.052v-.026h.052v-.024h.052v-.026h.051v-.025h.052v-.026h.052v-.025h.052v-.026h.051v-.025h.052v-.026h.052v-.024h.052v-.026h.051v-.025h.051v-.026l.843-.033.584-1.68h.046l.009-.025h.045l.01-.026h.045l.01-.025h.045l.009-.026h.046l.009-.025h.047l.008-.026h.047l.008-.024h.046l.009-.026h.046l.009-.026h.046l.008-.026h.047l.008-.026h.047l.008-.026h.047l.008-.026h.047l.008-.026h.046l.009-.026h.046l.01-.025h.045l.009-.026h.046l.009-.026h.046l.009-.026h.046l.009-.026h.045l.01-.026h.045l.01-.026h.045l.009-.025h.22l.009-.026h.046l.009-.026h.046l.009-.025h.045l.01-.026h.045l.01-.025h.045l.009-.026h.046l.009-.024h.046l.009-.026h.046l.009-.025h.047l.008-.026h.046l.009-.025h.046l.008-.026h.047l.008-.026h.047l.008-.026h.047l.008-.025h.047l.008-.026h.046l.009-.026h.044l.008-.026h.047l.008-.026h.041l.009-.026h.046l.009-.026h.045l.01-.025h.045l.01-.026h.045l.009-.026h.046l.009-.026h.046l.009-.026h.046l.009-.026h.045l.01-.025 3.277-.423-.454 1.308h.018l.01-.026h.045l.01-.026h.045l.009-.024h.046l.009-.026h.046l.009-.025h.046l.009-.026h.047l.008-.025h.046l.009-.026h.046l.009-.024h.046l.008-.026h.047l.008-.025h.047l.008-.026h.047l.008-.026h.046l.009-.026h.046l.009-.026h.046l.008-.026h.047l.009-.026h.046l.009-.025h.046l.009-.026h.046l.009-.026h.045l.01-.026h.045l.01-.026h.045l.009-.026h.047v-.068h.045l.01-.026h.045l.01-.025h.045l.009-.026h.046l.009-.024h.046l.009-.026h.046l.009-.025h.046l.009-.026h.045l.01-.025h.045l.01-.026h.046l.008-.024h.047l.008-.026h.047l.008-.025h.047l.008-.026h.047l.008-.026h.046l.014-.058h.046l.009-.026h.048l.009-.026h.046l.008-.026h.041l.009-.025h.046l.009-.026h.045l.01-.026h.045l.01-.026h.045l.009-.026h.046l.009-.026h.046l.009-.026h.046l.009-.026h.046l.009-.025 3.277-.143-1.035 2.988 2.154-.083-.045.328.06-.066.065-.068.063-.068.063-.069.063-.068.063-.068.064-.068.063-.069.063-.068.064-.068.063-.069.064-.068c.385-.439.859-.792 1.391-1.035a6.043 6.043 0 0 1 2.369-.54h.272c.129 0 .255 0 .379.01a5.422 5.422 0 0 1 1.536.304 3.75 3.75 0 0 1 1.688 1.175c.437.558.682 1.243.695 1.952v.2c.024-.022.049-.042.073-.062l.075-.067.077-.066.076-.066.076-.066.076-.066.077-.066.076-.066a5.366 5.366 0 0 1 1.053-.75 5.662 5.662 0 0 1 2.511-.67h.237c.113 0 .223.002.332.008.958.055 1.774.355 2.429.887h.016l.009-.065h.078l.009-.065h.079l.008-.065h.079l.009-.065h.078l.009-.066h.079l.008-.065h.079l.009-.065h.078l.009-.065h.077l.01-.065h.078l.01-.066h.077l.01-.065h.077l.01-.065h.078l.01-.065h.077l.009-.065 4.599-.173-.01.074c.364-.11.74-.171 1.12-.183h.176c.084 0 .167 0 .249.007a3.463 3.463 0 0 1 1.534.436c.184.105.358.23.517.37l.073-.048.104-.067c.033-.024.066-.046.103-.069.123-.084.249-.167.379-.243a4.228 4.228 0 0 1 1.966-.572h.202c.097 0 .193 0 .286.008.805.046 1.482.295 2.019.736l.007-.052h.103l.009-.065h.103l.009-.065h.104l.008-.065h.104l.009-.066h.104l.009-.065h.103l.01-.066h.098l.009-.065h.104l.009-.065h.104l.009-.066h.103l.009-.065h.103l.009-.065 4.599-.172-.054.392h.089l.009-.065h.103l.009-.065h.104l.009-.065h.104l.008-.065h.104l.009-.066h.103l.01-.065 4.613-.172-.158 1.138.02-.01.124-.07.125-.068c.041-.024.082-.048.124-.07l.124-.069.124-.07c.042-.022.083-.046.124-.067l.096-.185a3.91 3.91 0 0 1 .124-.068 3.67 3.67 0 0 1 .124-.07c.041-.021.083-.047.124-.069.041-.021.082-.046.124-.068a4.347 4.347 0 0 1 2.012-.583h.179c.085 0 .167 0 .247.008a3.5 3.5 0 0 1 .877.16l.008-.053h.119l.009-.065 3.193-.13v-.008h.13l.01-.068.129-.005.01-.068h.13l.009-.069.13-.005.01-.067.129-.005.01-.069h.13l.009-.067.13-.005.01-.068h.129l.009-.069.131-.005.009-.068h.13l.01-.068.129-.006.009-.068h.131l.009-.068.131-.005.009-.069h.129l.01-.068.13-.005.009-.068h.131l.009-.069h.129l.01-.067.13-.005.009-.068.13-.006.01-.067.129-.005.01-.068.13-.005.009-.068h.13l.01-.068h.129l.01-.068h.13l.009-.069h.13l.009-.068.131-.005.009-.068h.13l.01-.069.129-.005.009-.067h.131l.009-.068 5.411-.207h.266c.122 0 .242 0 .359.01.339.018.675.072 1.003.161.044-.023.09-.045.136-.066.047-.02.104-.052.155-.074.05-.023.103-.052.154-.076.05-.024.103-.052.154-.075.051-.024.103-.052.154-.076l.153-.075c.05-.022.104-.051.155-.075.05-.024.103-.052.154-.076.05-.023.103-.051.154-.074.051-.023.103-.053.154-.076.051-.022.104-.051.154-.075.051-.024.104-.052.154-.076.051-.023.104-.051.155-.074.05-.023.103-.052.154-.076l.154-.075c.051-.024.103-.052.154-.076.051-.024.104-.052.154-.074.051-.023.104-.052.155-.076.05-.024.103-.052.154-.075.05-.024.103-.052.154-.075.051-.023.103-.052.154-.075.389-.204.82-.316 1.259-.328h.123l.001-.07ZM111.608 50.13l.544-.021c.011-.202.039-.402.084-.6l-.414.016-.207.605h-.007Zm69.181-11.67h-.157a3.768 3.768 0 0 0-1.607.415 2.706 2.706 0 0 0-.155.075c-.05.027-.103.049-.154.075-.051.026-.103.05-.154.075-.051.026-.104.05-.154.076-.051.026-.104.049-.154.074l-.155.076c-.05.026-.103.05-.154.075l-.154.076c-.051.027-.103.049-.153.075l-.155.075c-.052.026-.104.049-.154.076-.049.026-.103.048-.154.074-.05.026-.103.05-.154.076-.051.026-.103.05-.154.075-.051.026-.104.049-.154.076-.051.027-.104.048-.154.074l-.155.076c-.05.026-.103.048-.154.075-.051.027-.103.049-.154.075h-.008a5.808 5.808 0 0 0-.853-.11 7.494 7.494 0 0 0-.414-.012c-.098 0-.199 0-.298.006l-5.412.209a.867.867 0 0 0-.44.139.866.866 0 0 0-.139.072.84.84 0 0 0-.139.074.866.866 0 0 0-.14.072.88.88 0 0 0-.139.073.791.791 0 0 0-.139.073.87.87 0 0 0-.14.073.866.866 0 0 0-.139.073.802.802 0 0 0-.139.073.867.867 0 0 0-.14.073.826.826 0 0 0-.139.072 1.05 1.05 0 0 0-.14.074 16.775 16.775 0 0 1-.418.218.914.914 0 0 0-.139.073.819.819 0 0 0-.139.073l-.279.146a.83.83 0 0 0-.139.073.91.91 0 0 0-.14.073.821.821 0 0 0-.138.073.807.807 0 0 0-.14.073.91.91 0 0 0-.14.072.995.995 0 0 0-.139.074.835.835 0 0 0-.139.072.88.88 0 0 0-.14.073.866.866 0 0 0-.139.073l-.049.023-2.984.11a.928.928 0 0 0-.263.051 4.554 4.554 0 0 0-.965-.096h-.213a5.212 5.212 0 0 0-2.399.689l-.025.014a.88.88 0 0 0-.782-.487h-.032l-4.618.176a.878.878 0 0 0-.31.07.877.877 0 0 0-.28-.047h-.03l-4.6.172a.868.868 0 0 0-.489.171.91.91 0 0 0-.103.07.903.903 0 0 0-.109.069.75.75 0 0 0-.103.068.935.935 0 0 0-.104.07.883.883 0 0 0-.109.068.91.91 0 0 0-.103.07c-.017.008-.033.018-.05.027a4.46 4.46 0 0 0-1.946-.539 5.935 5.935 0 0 0-.335-.01h-.234a5.07 5.07 0 0 0-2.566.808l-.103-.064a4.327 4.327 0 0 0-1.916-.549 5.648 5.648 0 0 0-.299-.008h-.207c-.319.011-.636.05-.948.118a.892.892 0 0 0-.129-.01h-.033l-4.599.172a.863.863 0 0 0-.545.22.828.828 0 0 0-.088.068.886.886 0 0 0-.087.068c-.03.021-.059.044-.087.068a.9.9 0 0 0-.088.068c-.03.021-.059.044-.087.068a.915.915 0 0 0-.087.069.815.815 0 0 0-.088.068l-.036.026a5.183 5.183 0 0 0-2.313-.657 6.566 6.566 0 0 0-.382-.012c-.09 0-.18 0-.27.005a6.5 6.5 0 0 0-2.897.778 6.25 6.25 0 0 0-.653.413 4.055 4.055 0 0 0-.63-1.065 4.614 4.614 0 0 0-2.07-1.45 6.294 6.294 0 0 0-1.783-.353 7.259 7.259 0 0 0-.43-.012c-.103 0-.207 0-.303.006a6.932 6.932 0 0 0-2.709.62 5.026 5.026 0 0 0-1.669 1.248l-.008.008-.054.058-.01.01a1.39 1.39 0 0 0-.053.058l-.01.01a2.98 2.98 0 0 0-.054.057l-.786.031.621-1.782a.867.867 0 0 0-.115-.793.87.87 0 0 0-.713-.364h-.034l-3.273.126a.868.868 0 0 0-.383.103l-.055.027-.055.028a.567.567 0 0 0-.055.028l-.055.027a.53.53 0 0 0-.054.028l-.055.027-.056.028-.054.027-.056.028-.054.026a.551.551 0 0 0-.054.028l-.055.027-.056.028-.054.027-.056.028c-.019.008-.036.018-.054.027a.679.679 0 0 0-.055.028.473.473 0 0 0-.055.028.56.56 0 0 0-.055.027l-.045.022a.866.866 0 0 0-.813-.56h-.034l-3.27.13a.868.868 0 0 0-.383.104.546.546 0 0 0-.055.028l-.055.026-.055.027-.056.028a.644.644 0 0 0-.053.028l-.055.027-.056.028-.054.027a.546.546 0 0 0-.055.028l-.056.027c-.017.01-.036.017-.054.028l-.054.027a.562.562 0 0 0-.056.028l-.054.027-.056.027-.054.027a.546.546 0 0 0-.055.028.73.73 0 0 0-.056.028l-.054.027-.054.027-.056.028-.055.027-.055.028-.055.027-.054.028a.457.457 0 0 0-.055.028l-.055.027-.055.026-.055.028a.546.546 0 0 0-.055.028l-.055.027a.551.551 0 0 0-.054.028l-.055.027-.056.028-.054.027a.567.567 0 0 0-.055.028l-.056.027c-.018.01-.036.017-.053.028l-.055.027-.056.028-.054.026a.546.546 0 0 0-.055.028l-.056.027-.055.028a.531.531 0 0 0-.054.028.438.438 0 0 0-.054.027l-.056.027-.055.028-.055.027-.055.028a.868.868 0 0 0-.461.507l-.388 1.118-.25.01a.895.895 0 0 0-.383.103.53.53 0 0 0-.054.028l-.056.028a.616.616 0 0 0-.054.027l-.055.027-.056.028-.054.027a.531.531 0 0 0-.054.028l-.055.027-.056.028c-.019.008-.036.017-.055.027l-.054.027-.055.027-.056.028a.693.693 0 0 0-.054.028c-.019.01-.037.017-.054.027l-.056.027-.055.028-.055.027-.055.028a.545.545 0 0 0-.055.028l-.054.027a.566.566 0 0 0-.055.028l-.055.026a.533.533 0 0 0-.055.029l-.055.026a.532.532 0 0 0-.055.028l-.054.027c-.019.01-.038.018-.055.028l-.055.027-.055.028-.055.027c-.018.01-.037.017-.056.028l-.053.027a.543.543 0 0 0-.055.028l-.055.027-.056.027-.054.027-.056.028-.053.027c-.02.01-.038.018-.055.028l-.056.028-.054.027a.56.56 0 0 0-.056.028l-.055.027-.055.027-.055.028a.532.532 0 0 0-.054.028l-.055.027a.533.533 0 0 0-.055.028l-.055.026a.871.871 0 0 0-.502.676l-.42 3.086a.873.873 0 0 0 .223.704l.02.022-.033.017-.055.027-.053.027-.056.028-.054.027-.056.028a.553.553 0 0 0-.055.028l-.055.026a.675.675 0 0 0-.055.029l-.054.026c-.02.01-.038.018-.055.028l-.055.027-.055.028-.055.027a.544.544 0 0 0-.055.028l-.055.027c-.018.01-.037.017-.054.028l-.055.027c-.019.01-.037.017-.055.028l-.055.027a.87.87 0 0 0-.502.682l-.42 3.082a.871.871 0 0 0 .863.99h.034l1.274-.05-.638 1.855a.873.873 0 0 0 .828 1.156h.034l3.268-.127a.868.868 0 0 0 .383-.104l.054-.026a.567.567 0 0 0 .055-.028l.055-.027.055-.028.055-.027a.546.546 0 0 0 .055-.028l.054-.027a.457.457 0 0 0 .055-.028l.055-.027c.019-.01.037-.017.055-.028l.055-.027c.018-.009.037-.017.055-.028a.663.663 0 0 0 .056-.028l.053-.026.055-.027.055-.028.056-.028.054-.027.056-.028a.409.409 0 0 0 .044-.022.875.875 0 0 0 .815.559h.034l3.268-.127a.868.868 0 0 0 .383-.104l.054-.027.055-.026.055-.029a.546.546 0 0 0 .055-.027l.055-.027a.546.546 0 0 0 .055-.028l.055-.027a.53.53 0 0 0 .054-.028l.055-.027.055-.028c.018-.01.037-.017.056-.028.019-.01.036-.016.054-.027l.055-.027a.551.551 0 0 0 .054-.028.562.562 0 0 0 .056-.028c.018-.008.037-.016.054-.026l.056-.028.055-.027.054-.027.055-.028.054-.027.056-.028.054-.027.055-.028.056-.027.055-.028a.531.531 0 0 0 .054-.028l.055-.027a.546.546 0 0 0 .055-.027l.055-.027.055-.028.055-.027a.84.84 0 0 0 .055-.028l.054-.027.055-.028.055-.027a.546.546 0 0 0 .055-.028.73.73 0 0 0 .056-.028c.017-.008.036-.016.054-.027l.054-.027.056-.028.054-.026.055-.028.056-.028.054-.027.055-.027.055-.028.054-.027.056-.028.054-.027a.872.872 0 0 0 .462-.51l.414-1.201a.896.896 0 0 0 .23-.086l.033-.016a3.802 3.802 0 0 0 1.686 2.262c.759.474 1.671.744 2.714.804.148.009.303.014.458.014.109 0 .221 0 .332-.008a6.284 6.284 0 0 0 2.587-.612c.303-.15.589-.33.856-.537l.072-.054.072-.054.072-.055.068-.051.074-.056.071-.054.03-.022c.046.044.092.085.141.126.771.66 1.727 1.027 2.843 1.091.116.006.235.01.355.01.081 0 .165 0 .249-.005a5.97 5.97 0 0 0 2.72-.76.86.86 0 0 0 .453.466.87.87 0 0 0 .354.075h.039l4.276-.16a.89.89 0 0 0 .287-.06c.083.027.169.04.256.04h.033l4.255-.173a.887.887 0 0 0 .287-.06.899.899 0 0 0 .258.038h.032l4.248-.159a.859.859 0 0 0 .419-.125.862.862 0 0 0 .104-.055.849.849 0 0 0 .103-.055c.036-.017.07-.035.104-.056a.836.836 0 0 0 .103-.055.861.861 0 0 0 .104-.054c.035-.017.07-.035.103-.055a.692.692 0 0 0 .072-.037 4.001 4.001 0 0 0 1.628.43c.093.006.19.008.285.008h.198c.311-.012.619-.052.921-.12.055.01.111.015.166.015h.032l4.285-.162a.882.882 0 0 0 .393-.11l.24-.11v-.001a.835.835 0 0 0 .12-.056c.041-.016.082-.034.121-.055l.24-.112a.718.718 0 0 0 .075-.032c.513.26 1.075.41 1.649.438.089 0 .179.007.27.007h.188c.325-.01.647-.054.963-.128h.088l4.264-.16a.869.869 0 0 0 .371-.098.798.798 0 0 0 .125-.055.812.812 0 0 0 .133-.056.947.947 0 0 0 .134-.055.808.808 0 0 0 .133-.057.743.743 0 0 0 .134-.056.795.795 0 0 0 .133-.056c.046-.016.091-.034.135-.056a.879.879 0 0 0 .085-.033.866.866 0 0 0 .758.443h.033l5.464-.207a6.29 6.29 0 0 0 2.214-.46l.027-.011.042-.016a.879.879 0 0 0 .716.375h.032l4.276-.16a.886.886 0 0 0 .343-.083.917.917 0 0 0 .156-.057.873.873 0 0 0 .157-.057.987.987 0 0 0 .158-.058.833.833 0 0 0 .156-.064.83.83 0 0 0 .157-.057.827.827 0 0 0 .156-.057l.04-.01a5.816 5.816 0 0 0 1.779.379c.129.007.262.01.396.01.092 0 .186 0 .278-.004a6.79 6.79 0 0 0 2.184-.42l.032-.012c.039-.012.084-.028.132-.046l.033-.01.133-.047.032-.012.135-.046.033-.012.132-.046.033-.012c.04-.012.084-.027.133-.046l.033-.01.132-.047.034-.012a3.4 3.4 0 0 0 .132-.046l.033-.011c.039-.014.084-.028.132-.047l.032-.01c.041-.014.085-.028.134-.047l.034-.011c.039-.014.083-.028.132-.047l.034-.011c.039-.014.082-.028.131-.047h.008a3.957 3.957 0 0 0 2.227.802c.088 0 .179.007.27.007h.19c.324-.011.646-.055.962-.129h.088l4.264-.158a.896.896 0 0 0 .322-.075.94.94 0 0 0 .182-.059.904.904 0 0 0 .181-.057l-.001.001.363-.116a.995.995 0 0 0 .182-.059.969.969 0 0 0 .181-.057.9.9 0 0 0 .181-.058.818.818 0 0 0 .181-.058.818.818 0 0 0 .181-.058.827.827 0 0 0 .182-.058.873.873 0 0 0 .182-.058.847.847 0 0 0 .181-.058.835.835 0 0 0 .181-.058.836.836 0 0 0 .181-.058.835.835 0 0 0 .181-.058.837.837 0 0 0 .182-.058.829.829 0 0 0 .181-.058.83.83 0 0 0 .181-.058.829.829 0 0 0 .181-.058.827.827 0 0 0 .182-.058.835.835 0 0 0 .181-.058.874.874 0 0 0 .182-.058.846.846 0 0 0 .181-.058.904.904 0 0 0 .181-.056.947.947 0 0 0 .181-.059.947.947 0 0 0 .181-.057.947.947 0 0 0 .181-.058.955.955 0 0 0 .182-.058.88.88 0 0 0 .181-.058.826.826 0 0 0 .182-.058.888.888 0 0 0 .181-.058.873.873 0 0 0 .182-.058.847.847 0 0 0 .181-.058.846.846 0 0 0 .181-.058.836.836 0 0 0 .181-.058.835.835 0 0 0 .181-.058.818.818 0 0 0 .181-.058.837.837 0 0 0 .182-.058.837.837 0 0 0 .182-.058.846.846 0 0 0 .181-.058.836.836 0 0 0 .181-.058.835.835 0 0 0 .181-.058.836.836 0 0 0 .181-.058.832.832 0 0 0 .182-.058.846.846 0 0 0 .181-.057.897.897 0 0 0 .181-.057.94.94 0 0 0 .181-.058.948.948 0 0 0 .182-.058c.062-.014.123-.033.182-.058a.985.985 0 0 0 .181-.058.874.874 0 0 0 .69-.736l1.327-9.593a.873.873 0 0 0-.86-1.016h-.039l-4.59.172a.852.852 0 0 0-.263.05 4.448 4.448 0 0 0-.966-.096h-.207a5.163 5.163 0 0 0-1.838.414 3.727 3.727 0 0 0-.174.072l-.172.07c-.052.024-.12.05-.173.072l-.173.072c-.052.023-.12.048-.171.07-.052.022-.122.049-.173.072l-.173.07c-.053.024-.122.05-.173.071-.051.021-.12.049-.172.072-.051.022-.12.048-.173.071-.052.023-.121.049-.172.072l-.173.07c-.053.022-.12.048-.172.071-.052.023-.121.049-.173.072l-.103.041a4.6 4.6 0 0 0-1.21-.724 5.746 5.746 0 0 0-1.875-.414 7.58 7.58 0 0 0-.409-.012h-.291a6.793 6.793 0 0 0-1.589.242c.028-.197.038-.396.03-.595a2.889 2.889 0 0 0-1.055-2.149 3.11 3.11 0 0 0-1.844-.692 3.294 3.294 0 0 0-.225-.007l.005.005Z" fill="#FFDA00"/><path d="M116.87 53.217c-.695-.435-1.06-1.094-1.093-1.978 0-.072 0-.2.013-.383l2.828-.103c-.015.31.058.55.218.717.161.168.403.245.725.233.226.003.446-.068.629-.2a.594.594 0 0 0 .22-.518.746.746 0 0 0-.372-.616 6.325 6.325 0 0 0-1.149-.53 11.42 11.42 0 0 1-1.307-.575 2.804 2.804 0 0 1-.904-.774 2.128 2.128 0 0 1-.416-1.264 2.955 2.955 0 0 1 .428-1.732c.323-.502.786-.9 1.331-1.145a5.1 5.1 0 0 1 2.001-.45 4.825 4.825 0 0 1 1.828.253 2.81 2.81 0 0 1 1.271.876c.315.401.489.895.496 1.405.006.109.006.218 0 .328l-2.883.103a1.02 1.02 0 0 0 .006-.191.645.645 0 0 0-.223-.505.805.805 0 0 0-.567-.164.908.908 0 0 0-.588.207.628.628 0 0 0-.207.518c.008.236.132.434.37.595.353.217.724.402 1.109.553.456.186.901.4 1.331.642.357.208.668.487.913.82.272.38.419.835.42 1.302a2.711 2.711 0 0 1-.413 1.571 3.09 3.09 0 0 1-1.286 1.13 4.917 4.917 0 0 1-2.022.465c-1.106.041-2.009-.155-2.707-.59ZM131.178 46.314c.607.517.928 1.239.963 2.167.013.275 0 .55-.038.823a3.354 3.354 0 0 1-.14.634l-5.071.19a2.022 2.022 0 0 0 0 .246c.014.346.104.598.282.755a.93.93 0 0 0 .685.221c.447-.016.794-.23 1.044-.64l2.842-.104a4.158 4.158 0 0 1-.884 1.45 4.588 4.588 0 0 1-3.195 1.453c-1.002.037-1.81-.206-2.422-.73-.613-.525-.937-1.265-.972-2.222a4.805 4.805 0 0 1 .05-.864c.097-.757.367-1.481.789-2.116a4.431 4.431 0 0 1 1.562-1.42 4.669 4.669 0 0 1 2.093-.556c1-.04 1.804.198 2.412.713Zm-1.715 2.267a.804.804 0 0 0-.298-.653 1.089 1.089 0 0 0-.718-.198 1.378 1.378 0 0 0-.864.32c-.258.229-.439.531-.518.867l2.38-.088c.011-.082.017-.165.018-.248ZM145.672 45.65c.468.42.717 1.017.746 1.792.012.266-.001.532-.04.795l-.627 4.498-2.664.103.571-4.14c.011-.1.016-.2.016-.3a.96.96 0 0 0-.31-.725c-.193-.165-.458-.242-.795-.23a1.513 1.513 0 0 0-.925.329 1.453 1.453 0 0 0-.495.846l-.605 4.32-2.678.103.571-4.14c.018-.108.022-.219.014-.328a.907.907 0 0 0-.31-.707 1.112 1.112 0 0 0-.772-.236 1.482 1.482 0 0 0-.958.357 1.574 1.574 0 0 0-.499.931l-.585 4.207-2.69.103 1.079-7.72 2.678-.103-.141 1.004a3.053 3.053 0 0 1 1.017-.818c.424-.208.89-.321 1.363-.33a2.675 2.675 0 0 1 1.454.31c.402.226.716.58.894 1.006a4.078 4.078 0 0 1 1.219-1.065c.465-.273.99-.426 1.529-.447.829-.03 1.477.165 1.943.585ZM156.135 44.671l-1.08 7.716-2.678.104.15-1.1a3.506 3.506 0 0 1-1.068.881c-.437.233-.922.36-1.417.374-.755.028-1.35-.164-1.786-.577-.435-.412-.667-1.001-.695-1.766a4.646 4.646 0 0 1 .051-.85l.612-4.484 2.678-.103-.571 4.14a1.583 1.583 0 0 0-.028.356 1.023 1.023 0 0 0 .311.76 1.061 1.061 0 0 0 .789.252c.357-.004.7-.144.957-.39.268-.274.442-.626.496-1.005l.582-4.208 2.697-.1ZM157.417 46.375a4.246 4.246 0 0 1 1.363-1.419 3.428 3.428 0 0 1 1.724-.543c.528-.02.969.068 1.323.265.338.18.605.469.756.82l.152-1.073 2.676-.096-1.067 7.716-2.678.103.151-1.073a2.797 2.797 0 0 1-1.007.886c-.435.23-.917.356-1.409.367-.801.03-1.453-.212-1.956-.724-.503-.513-.771-1.23-.805-2.152a6.15 6.15 0 0 1 .045-.96 5.546 5.546 0 0 1 .732-2.117Zm4.817 1.517c-.013-.383-.132-.675-.354-.877a1.126 1.126 0 0 0-.838-.282 1.597 1.597 0 0 0-1.064.456c-.308.29-.494.687-.558 1.191-.022.132-.03.265-.025.398.014.383.132.675.353.875a1.136 1.136 0 0 0 .839.284c.4-.014.78-.18 1.063-.464.309-.294.495-.693.558-1.197.022-.127.03-.256.026-.384ZM176.753 45.852a2.83 2.83 0 0 1-1.291.82c.433.073.827.296 1.112.63.275.335.428.754.434 1.188a2.63 2.63 0 0 1-.024.452 2.857 2.857 0 0 1-1.104 1.966c-.629.489-1.457.752-2.483.79l-4.776.185 1.345-9.697 4.619-.171c.874-.033 1.559.116 2.055.449.496.332.756.822.78 1.47.005.16-.002.32-.023.48a2.64 2.64 0 0 1-.644 1.438Zm-2.44 2.616a.637.637 0 0 0-.246-.518c-.154-.117-.377-.17-.669-.16l-1.543.058-.233 1.773 1.552-.058c.665-.025 1.041-.327 1.129-.905.009-.063.012-.126.01-.19Zm.287-3.663c-.016-.438-.311-.645-.884-.621l-1.354.05-.237 1.72 1.354-.051c.664-.025 1.036-.322 1.115-.89.008-.07.01-.14.005-.21l.001.002ZM181.55 43.723l-1.066 7.715-2.691.104 1.08-7.717 2.677-.102Zm-2.231-.946a1.027 1.027 0 0 1-.392-.793c-.012-.288.06-.573.207-.82.153-.26.372-.476.633-.627.284-.164.604-.254.932-.26.419-.016.753.079 1.003.284a1.063 1.063 0 0 1 .393.814c.012.285-.06.569-.207.814a1.707 1.707 0 0 1-.641.613 1.997 1.997 0 0 1-.921.252c-.421.022-.757-.07-1.007-.277ZM183.632 51.13a2.706 2.706 0 0 1-1.206-.77 1.874 1.874 0 0 1-.469-1.194 3.795 3.795 0 0 1 .014-.37l2.587-.095a.69.69 0 0 0 .255.578c.201.14.446.203.691.18.198 0 .393-.055.562-.158a.411.411 0 0 0 .212-.363c-.007-.173-.104-.305-.302-.393-.316-.13-.64-.24-.97-.327-.443-.116-.878-.26-1.303-.43a2.495 2.495 0 0 1-.906-.65c-.262-.291-.402-.674-.419-1.148-.02-.441.106-.877.357-1.241a2.64 2.64 0 0 1 1.109-.897 4.404 4.404 0 0 1 1.696-.37 4.264 4.264 0 0 1 1.81.277c.474.182.882.503 1.17.921.265.401.398.874.382 1.354l-2.405.09a.703.703 0 0 0-.24-.572c-.16-.138-.385-.2-.677-.188a.92.92 0 0 0-.517.157.416.416 0 0 0-.191.363c.006.173.108.31.31.398.327.138.662.254 1.005.347.44.118.873.264 1.295.437.343.145.651.362.903.636.267.3.414.686.414 1.087.029.758-.277 1.365-.917 1.819-.64.454-1.484.702-2.531.745a4.752 4.752 0 0 1-1.719-.224ZM190.591 45.137a4.25 4.25 0 0 1 1.363-1.418 3.424 3.424 0 0 1 1.724-.544c.529-.019.97.07 1.323.265.338.18.605.47.756.82l.152-1.07 2.678-.103-1.067 7.716-2.678.104.151-1.073a2.794 2.794 0 0 1-1.007.885c-.435.23-.917.355-1.408.368-.802.03-1.454-.212-1.957-.725-.503-.513-.772-1.23-.805-2.152-.011-.32.005-.642.046-.96a5.542 5.542 0 0 1 .729-2.113Zm4.818 1.517c-.015-.382-.133-.675-.355-.876a1.147 1.147 0 0 0-.838-.284 1.604 1.604 0 0 0-1.064.458c-.308.29-.494.686-.558 1.19-.022.131-.03.265-.026.398.015.383.133.675.354.876a1.132 1.132 0 0 0 .838.283 1.58 1.58 0 0 0 1.064-.463c.322-.321.519-.745.558-1.198.021-.126.03-.255.027-.383ZM111.965 47.804l-.958 2.774 2.252-.088-.304 2.232-2.731.103-1.053 3.061-2.36.091 1.054-3.059-3.228.128-1.053 3.06-2.36.092 1.054-3.06-2.66.103.303-2.233 3.14-.122.957-2.772-2.642.103.304-2.232 3.122-.121 1.035-2.99 2.359-.09-1.035 2.988 3.229-.125 1.035-2.99 2.359-.091-1.035 2.988 2.268-.086-.305 2.232-2.747.104Zm-2.36.092-3.227.126-.959 2.773 3.229-.126.957-2.773Z" fill="#fff"/></g><defs><filter id="b" x="104.571" y="14.836" width="33.57" height="33.352" filterUnits="userSpaceOnUse" color-interpolation-filters="sRGB"><feFlood flood-opacity="0" result="BackgroundImageFix"/><feColorMatrix in="SourceAlpha" values="0 0 0 0 0 0 0 0 0 0 0 0 0 0 0 0 0 0 127 0" result="hardAlpha"/><feOffset dx=".207" dy=".207"/><feGaussianBlur stdDeviation=".414"/><feColorMatrix values="0 0 0 0 0 0 0 0 0 0 0 0 0 0 0 0 0 0 0.25 0"/><feBlend in2="BackgroundImageFix" result="effect1_dropShadow_1799_1165"/><feBlend in="SourceGraphic" in2="effect1_dropShadow_1799_1165" result="shape"/></filter><filter id="c" x="106.656" y="16.911" width="29.39" height="29.201" filterUnits="userSpaceOnUse" color-interpolation-filters="sRGB"><feFlood flood-opacity="0" result="BackgroundImageFix"/><feColorMatrix in="SourceAlpha" values="0 0 0 0 0 0 0 0 0 0 0 0 0 0 0 0 0 0 127 0" result="hardAlpha"/><feOffset dx=".207" dy=".207"/><feGaussianBlur stdDeviation=".414"/><feColorMatrix values="0 0 0 0 0 0 0 0 0 0 0 0 0 0 0 0 0 0 0.25 0"/><feBlend in2="BackgroundImageFix" result="effect1_dropShadow_1799_1165"/><feBlend in="SourceGraphic" in2="effect1_dropShadow_1799_1165" result="shape"/></filter><clipPath id="a"><path fill="#fff" transform="translate(95.453 15.457)" d="M0 0h105.093v73.086H0z"/></clipPath></defs></svg>