<svg width="296" height="104" fill="none" xmlns="http://www.w3.org/2000/svg"><path d="M171.103 40.25c-1.3-.893-2.706-1.609-4.059-2.402-3.42-1.992-6.855-3.953-10.276-5.942a7.15 7.15 0 0 1 7.279-12.302c8.284 4.78 16.566 9.564 24.847 14.351 4.112 2.385 4.915 7.606 1.74 11.146-.751.837-1.721 1.368-2.706 1.864a1.13 1.13 0 0 0-.277.018c-2.128.664-4.138.383-6.053-.735a756.92 756.92 0 0 0-6.281-3.627c-1.406-.796-2.757-1.676-4.214-2.371Z" fill="#169D5A"/><path d="M124.901 40.155c.465.474 1.08.717 1.638 1.04 4.172 2.419 8.351 4.814 12.515 7.235 2.518 1.466 3.97 4.275 3.591 6.936-.451 3.15-2.182 5.25-5.253 6.142a6.593 6.593 0 0 1-5.272-.633 8957.105 8957.105 0 0 1-25.14-14.52c-4.752-2.763-4.736-9.523 0-12.33.371-.225.751-.42 1.127-.632.11-.014.219-.035.327-.06 1.959-.546 3.854-.394 5.644.62 1.599.903 3.18 1.836 4.773 2.75l6.05 3.452Z" fill="#567DBE"/><path d="m124.901 40.154-6.049-3.454c-1.593-.917-3.175-1.845-4.774-2.747-1.79-1.014-3.684-1.161-5.649-.61a3.189 3.189 0 0 1-.327.06l8.26-4.8a8578.383 8578.383 0 0 1 15.584-9c3.596-2.063 8.03-.77 9.945 2.865 1.724 3.275.588 7.505-2.58 9.358-4.787 2.804-9.604 5.552-14.41 8.328Z" fill="#EB4434"/><path d="M171.101 40.249c1.458.691 2.808 1.578 4.208 2.368a664.739 664.739 0 0 1 6.281 3.627c1.917 1.118 3.925 1.399 6.054.735.091-.018.184-.024.277-.018a7946.081 7946.081 0 0 1-6.405 3.72c-5.644 3.27-11.3 6.51-16.928 9.803-1.791 1.048-3.648 1.596-5.694 1.107-2.959-.706-4.856-2.581-5.456-5.553-.589-2.92.371-5.392 2.79-7.166 1.478-1.085 3.146-1.885 4.735-2.804 3.342-1.934 6.686-3.861 10.034-5.782a.829.829 0 0 1 .104-.037Z" fill="#FABB13"/><path d="M148.091 77.491c.957 0 1.917.034 2.87-.014.488-.024.564.213.588.585.277 3.731-1.841 6.45-5.194 7.148-4.127.858-7.924-1.593-8.794-5.644-1.059-4.932 3.218-9.452 8.199-8.682 1.465.226 2.77.761 3.868 1.78.243.225.296.374.017.618-.395.339-.691.89-1.14 1.063-.495.19-.759-.504-1.192-.727-1.905-.975-3.78-.967-5.536.25-1.735 1.203-2.334 2.964-2.061 5.025.572 4.295 5.513 5.43 8.142 3.342.774-.613 1.207-1.408 1.452-2.339.089-.338-.039-.42-.361-.416-1.24.013-2.48-.01-3.715.015-.402.006-.55-.08-.546-.521.014-1.484-.005-1.484 1.489-1.484l1.914.001ZM118.167 77.494c.977 0 1.953.018 2.932-.008.394-.011.508.132.538.509.382 4.89-3.254 7.743-7.594 7.337-3.157-.294-5.781-2.646-6.371-5.648-.657-3.35.789-6.49 3.706-8.04 2.593-1.378 6.201-.966 8.23.909.366.338.398.55.007.872-.362.297-.622.812-1.021.94-.451.144-.725-.463-1.112-.694-3.019-1.804-7.319-.158-7.689 3.798-.276 2.966 1.34 5.155 4.149 5.71 2.367.468 4.706-.812 5.362-2.94.225-.738.22-.75-.54-.75-1.164 0-2.328-.013-3.495.009-.37 0-.523-.064-.522-.485 0-1.519-.014-1.519 1.508-1.519h1.912ZM166.13 77.877c.084.047.176.105.273.149 2.539 1.164 2.533 4.366.746 5.909-.781.676-1.691 1.065-2.713 1.085-1.819.034-3.639.008-5.459.025-.326 0-.408-.105-.407-.42.009-4.351.009-8.704 0-13.057 0-.372.144-.427.461-.425 1.67.012 3.341-.018 5.01.012 2.167.04 3.902 1.72 3.888 3.72-.008 1.18-.516 2.089-1.504 2.731a5.86 5.86 0 0 0-.274.19c-.014.005-.012.034-.021.08Zm-5.367 3.09v1.69c0 .219.04.352.306.349 1.087-.014 2.177.035 3.26-.03 1.084-.064 1.903-1.043 1.859-2.096a2.035 2.035 0 0 0-1.973-1.943c-1.014-.034-2.029 0-3.037-.02-.313-.007-.434.086-.42.412.021.544.005 1.088.005 1.637Zm0-5.928c0 .505.007 1.015 0 1.517 0 .24.039.387.338.382.973-.017 1.95.021 2.92-.03.971-.05 1.785-.977 1.75-1.93a1.878 1.878 0 0 0-1.827-1.791c-.917-.026-1.836.007-2.752-.018-.366-.01-.445.136-.43.46.021.469.006.938.006 1.406l-.005.004ZM124.123 78.082c0-2.142.013-4.279-.01-6.417 0-.43.12-.535.537-.528 1.406.027 2.819 0 4.221.014 4.342.051 7.216 3.223 6.765 7.709-.384 3.819-2.907 6.088-6.733 6.173-1.445.035-2.89-.008-4.334.015-.399.007-.451-.154-.451-.493.011-2.158.005-4.316.005-6.473Zm2.219-.048c0 1.481.009 2.962-.005 4.443 0 .338.089.466.44.45.657-.023 1.314.01 1.969-.008 1.25-.036 2.41-.338 3.347-1.23 1.204-1.151 1.454-2.622 1.345-4.185-.158-2.264-1.57-3.817-3.787-4.172-.928-.15-1.872-.044-2.808-.081-.395-.016-.513.113-.508.504.021 1.428.008 2.854.007 4.279ZM176.515 83.885c-.937 1.15-2.086 1.566-3.446 1.466-2.654-.204-4.155-2.925-2.76-5.054.676-1.033 1.735-1.458 2.916-1.573a6.826 6.826 0 0 1 3.252.418c.267-1.025-.326-2.03-1.402-2.322-1.172-.327-2.24-.104-3.103.779-.273.278-.442.298-.717.038a6.064 6.064 0 0 0-.845-.653c-.266-.174-.231-.314-.042-.525 1.156-1.292 2.635-1.722 4.308-1.628.563.02 1.119.13 1.647.326 1.561.614 2.313 1.812 2.349 3.44.043 2.006.007 4.014.019 6.022 0 .314-.088.451-.414.42-.186-.017-.375 0-.563 0-1.061 0-1.061-.001-1.199-1.154Zm-2.631-.329c1.311-.011 2.35-.888 2.63-2.17.08-.365.007-.54-.345-.675a4.887 4.887 0 0 0-2.693-.288c-.529.096-.995.324-1.27.828-.629 1.152.212 2.314 1.678 2.305ZM183.147 78.16c0 2.118-.011 4.235.009 6.353 0 .412-.097.572-.527.536-.52-.045-1.195.16-1.526-.098-.354-.277-.113-.982-.113-1.498-.011-3.917 0-7.834-.015-11.75 0-.432.095-.61.55-.564.375.035.752.035 1.127 0 .391-.034.51.095.505.495-.021 2.178-.011 4.352-.01 6.525ZM187.931 80.125c0 1.466-.013 2.922.008 4.384 0 .398-.07.597-.52.54-.53-.068-1.221.233-1.559-.127-.31-.328-.086-1.002-.088-1.522-.008-2.529.018-5.057-.021-7.586-.008-.594.175-.76.726-.69.317.034.637.034.954 0 .397-.036.513.113.508.506-.02 1.498-.008 2.997-.008 4.495ZM186.868 73.867a1.436 1.436 0 0 1-1.359-.89 1.442 1.442 0 0 1-.107-.56 1.454 1.454 0 1 1 1.466 1.451Z" fill="#fff"/></svg>