<svg width="296" height="104" viewBox="0 0 296 104" fill="none" xmlns="http://www.w3.org/2000/svg">
<g clip-path="url(#clip0_2052_871)">
<path d="M91.7812 38.6701C91.832 29.5021 99.2178 22.1909 108.293 22.2208C117.64 22.2536 124.722 29.9111 124.707 38.691C124.695 47.8411 117.163 55.1612 108.204 55.1432C99.5969 55.1283 91.835 48.1784 91.7812 38.6701ZM93.88 38.6969C93.8591 46.3753 100.084 53.0416 108.231 53.0535C116.297 53.0654 122.638 46.5007 122.62 38.6641C122.602 30.5111 115.894 24.3105 108.266 24.3046C100.495 24.2986 93.8561 30.6544 93.88 38.6969Z" fill="#F2F2F2"/>
<path d="M82.586 22.6977C82.6457 22.6738 82.7084 22.632 82.7711 22.632C84.5922 22.626 86.4162 22.623 88.2373 22.623C88.3239 22.623 88.4105 22.6559 88.5239 22.6768C88.5418 22.7992 88.5657 22.9066 88.5717 23.0141C88.6433 24.9755 88.5956 53.0497 88.5149 53.6617C88.4194 53.6826 88.3149 53.7244 88.2074 53.7244C86.2252 53.7244 84.2429 53.7244 82.2606 53.7214C82.2159 53.7214 82.1711 53.7035 82.0666 53.6796C81.9502 53.4856 81.8069 53.2587 81.6725 53.0258C78.4483 47.3925 75.2271 41.7591 72.003 36.1258C71.2447 34.8003 70.4864 33.4778 69.7281 32.1553C69.6416 32.006 69.5371 31.8657 69.4475 31.7283C69.3848 31.7492 69.3579 31.7522 69.343 31.7672C69.3281 31.7821 69.3251 31.806 69.3221 31.8298C69.3162 31.8746 69.3102 31.9194 69.3102 31.9642C69.3072 39.141 69.3042 46.3178 69.2982 53.4945C69.2982 53.5154 69.2863 53.5393 69.2803 53.5602C69.2744 53.5811 69.2684 53.602 69.2505 53.6617C69.14 53.6826 69.0116 53.7274 68.8833 53.7274C67.1518 53.7334 65.4203 53.7304 63.6888 53.7274C63.5783 53.7274 63.4679 53.7125 63.3156 53.7005C63.2917 53.5542 63.2589 53.4289 63.2529 53.3005C63.241 53.1184 63.2499 52.9363 63.2499 52.7542C63.2499 43.0249 63.2499 33.2957 63.2499 23.5694C63.2499 23.2798 63.1992 22.9813 63.3096 22.7036C63.835 22.5932 68.5877 22.5544 70.0177 22.6499C70.2476 22.8021 70.3342 23.0708 70.4685 23.3037C73.5374 28.6833 76.6064 34.0659 79.6723 39.4485C80.4605 40.8337 81.2486 42.2189 82.0397 43.6041C82.1382 43.7772 82.2547 43.9444 82.4069 44.1862C82.4607 44.034 82.5054 43.9593 82.5084 43.8847C82.5204 43.6578 82.5144 43.4279 82.5144 43.2011C82.5144 36.6392 82.5144 30.0774 82.5144 23.5156C82.5144 23.247 82.4666 22.9693 82.5771 22.6977H82.586Z" fill="#F2F2F2"/>
<path d="M269.787 53.7231C265.569 46.3671 261.384 39.0351 257.129 31.6076C257.067 31.7956 257.028 31.8643 257.025 31.9389C257.016 32.1449 257.019 32.3479 257.019 32.5539C257.019 39.3217 257.019 46.0865 257.019 52.8543C257.019 53.123 257.058 53.3947 256.956 53.6783C256.858 53.6962 256.771 53.726 256.685 53.726C254.819 53.726 252.953 53.726 251.054 53.726C251.021 53.5708 250.98 53.4484 250.968 53.32C250.953 53.1618 250.962 53.0006 250.962 52.8424C250.962 43.0683 250.962 33.2943 250.962 23.5203C250.962 23.2486 250.968 22.9799 250.974 22.6903C251.123 22.6605 251.23 22.6217 251.338 22.6217C253.41 22.6187 255.484 22.6217 257.556 22.6217C257.622 22.6217 257.688 22.6426 257.807 22.6635C257.941 22.8903 258.094 23.1411 258.24 23.3979C262.052 30.085 265.865 36.7722 269.677 43.4594C269.778 43.6385 269.877 43.8177 269.987 43.9878C270.017 44.0356 270.083 44.0595 270.122 44.0863C270.163 44.0625 270.19 44.0565 270.202 44.0416C270.214 44.0236 270.214 43.9968 270.217 43.9759C270.22 43.952 270.223 43.9311 270.223 43.9072C270.223 43.8833 270.223 43.8624 270.223 43.8386C270.223 43.8147 270.223 43.7938 270.223 43.7699C270.223 43.746 270.223 43.7251 270.223 43.7012C270.223 43.6773 270.223 43.6564 270.223 43.6326C270.223 43.5878 270.223 43.54 270.223 43.4952C270.223 36.7513 270.223 30.0074 270.223 23.2635C270.223 23.2396 270.223 23.2187 270.223 23.1949C270.223 23.171 270.223 23.1501 270.223 23.1262C270.223 23.1023 270.223 23.0814 270.223 23.0575C270.223 23.0336 270.223 23.0127 270.223 22.9889C270.223 22.965 270.223 22.9441 270.226 22.9202C270.226 22.8963 270.226 22.8754 270.232 22.8515C270.235 22.8306 270.241 22.8068 270.25 22.7859C270.256 22.765 270.265 22.7441 270.283 22.6903C270.346 22.6694 270.429 22.6187 270.51 22.6187C272.331 22.6127 274.155 22.6157 275.976 22.6187C276.042 22.6187 276.104 22.6485 276.215 22.6724C276.233 22.7948 276.257 22.9202 276.265 23.0486C276.274 23.1859 276.265 23.3232 276.265 23.4576C276.265 33.2555 276.265 43.0504 276.265 52.8483C276.265 53.114 276.301 53.3887 276.215 53.6514C276.125 53.6783 276.062 53.7141 276 53.7141C273.952 53.7141 271.901 53.7141 269.775 53.7141L269.787 53.7231Z" fill="#F2F2F2"/>
<path d="M31.9863 22.6968C32.6073 22.6042 37.8824 22.5833 38.8288 22.6609C38.9392 22.8401 39.0736 23.049 39.196 23.261C41.8022 27.8316 44.4054 32.4021 47.0086 36.9727C48.2595 39.1699 49.5103 41.3671 50.7672 43.5584C50.8746 43.7465 50.9403 43.9734 51.1314 44.0928C51.1791 44.0749 51.206 44.0719 51.2209 44.0569C51.2359 44.042 51.2389 44.0152 51.2418 43.9943C51.2478 43.9495 51.2538 43.9047 51.2568 43.8599C51.2657 36.8443 51.2717 29.8288 51.2806 22.8102C51.2806 22.7893 51.2926 22.7654 51.3135 22.7027C51.418 22.6789 51.5434 22.6251 51.6687 22.6221C53.4002 22.6162 55.1318 22.6162 56.8633 22.6221C56.9946 22.6221 57.126 22.6609 57.2454 22.6789C57.3409 23.264 57.3887 44.4779 57.314 53.0429C57.314 53.2429 57.2931 53.4429 57.2842 53.634C56.7289 53.7653 52.9763 53.8041 50.9105 53.7116C50.6776 53.5802 50.6 53.3265 50.4776 53.1145C47.6475 48.1737 44.8204 43.233 41.9932 38.2922C40.817 36.2353 39.6408 34.1814 38.4645 32.1245C38.3869 31.9902 38.3033 31.8558 38.1779 31.6498C38.1182 31.7901 38.0645 31.8558 38.0615 31.9245C38.0496 32.1514 38.0526 32.3812 38.0526 32.6081C38.0526 39.3282 38.0526 46.0482 38.0526 52.7712C38.0526 53.0637 38.1033 53.3623 37.969 53.6937C37.3271 53.7683 36.6703 53.7175 36.0166 53.7265C35.3568 53.7355 34.694 53.7325 34.0343 53.7265C33.3805 53.7205 32.7237 53.7563 32.0401 53.6966C32.0192 53.5474 31.9923 53.4369 31.9923 53.3294C31.9923 43.1255 31.9923 32.9216 31.9923 22.6908L31.9863 22.6968Z" fill="#F2F2F2"/>
<path d="M216.189 38.143C216.189 35.9458 216.431 33.7784 217.082 31.6707C217.778 29.4138 218.903 27.4077 220.62 25.7568C222.229 24.2104 224.127 23.1744 226.256 22.5386C229.77 21.4877 233.269 21.5534 236.723 22.7744C240.908 24.2521 243.676 27.1479 245.079 31.3483C245.535 32.7126 245.798 34.1187 245.941 35.5517C246.127 37.4175 246.115 39.2804 245.909 41.1433C245.727 42.7792 245.365 44.3734 244.75 45.9049C243.222 49.7023 240.505 52.2518 236.657 53.6041C234.728 54.2848 232.731 54.6042 230.686 54.5385C228.528 54.4729 226.441 54.037 224.462 53.1533C220.87 51.5502 218.494 48.8365 217.228 45.1317C216.658 43.4629 216.36 41.7403 216.255 39.982C216.219 39.37 216.21 38.752 216.189 38.14V38.143ZM239.565 38.1042C239.553 36.9817 239.481 35.7547 239.227 34.5456C238.95 33.2201 238.505 31.9603 237.756 30.8199C236.756 29.2974 235.391 28.2555 233.654 27.6972C232.734 27.4017 231.788 27.2883 230.824 27.33C227.886 27.4644 225.662 28.7869 224.19 31.3453C223.665 32.2618 223.318 33.25 223.098 34.277C222.575 36.6891 222.557 39.1132 222.984 41.5403C223.214 42.8479 223.635 44.0958 224.325 45.2451C225.172 46.6542 226.328 47.714 227.841 48.3678C229.188 48.947 230.594 49.144 232.051 48.9828C234.319 48.729 236.158 47.717 237.523 45.8721C238.096 45.0959 238.508 44.2361 238.818 43.3256C239.383 41.6657 239.556 39.9521 239.565 38.1042Z" fill="#F2F2F2"/>
<path d="M171.776 53.6879C171.068 51.5533 170.477 49.4308 169.767 47.338H158.354C158.279 47.5201 158.192 47.6993 158.13 47.8873C157.544 49.6099 156.962 51.3354 156.377 53.058C156.306 53.2699 156.219 53.4759 156.147 53.661C155.47 53.7535 149.965 53.7476 149.43 53.661C149.341 53.3953 149.505 53.1744 149.583 52.9475C150.263 51.016 150.953 49.0874 151.639 47.1589C154.452 39.2716 157.264 31.3843 160.076 23.497C160.175 23.2194 160.282 22.9477 160.378 22.691C160.942 22.5954 166.468 22.5626 167.79 22.6432C168.026 22.8193 168.047 23.1089 168.137 23.3597C169.208 26.3839 170.271 29.411 171.337 32.4381C173.749 39.2836 176.161 46.1319 178.57 52.9774C178.645 53.1893 178.708 53.4043 178.767 53.5894C178.681 53.7625 178.552 53.7267 178.451 53.7267C176.334 53.7297 174.215 53.7267 172.098 53.7267C172.009 53.7267 171.922 53.7058 171.773 53.6879H171.776ZM160.07 41.8868C160.255 41.9166 160.342 41.9435 160.431 41.9435C162.799 41.9435 165.169 41.9435 167.536 41.9435C167.641 41.9435 167.745 41.9077 167.895 41.8838C167.853 41.6868 167.829 41.5345 167.784 41.3882C166.315 36.4654 164.336 30.2827 164.067 29.7752C164.023 29.8319 163.963 29.8767 163.942 29.9334C162.655 33.892 161.375 37.8506 160.067 41.8838L160.07 41.8868Z" fill="#F2F2F2"/>
<path d="M130.808 22.6723C130.882 22.8932 130.972 23.123 131.038 23.3619C132.241 27.61 133.441 31.8582 134.644 36.1093C135.522 39.2201 136.399 42.3308 137.286 45.4385C137.343 45.6415 137.316 45.9043 137.587 46.0475C137.656 45.8386 137.725 45.6535 137.781 45.4624C139.889 38.1095 141.994 30.7596 144.107 23.4096C144.182 23.1529 144.191 22.8633 144.427 22.6424H150.959C151.099 22.9021 150.932 23.1051 150.863 23.3022C150.141 25.4606 149.403 27.613 148.669 29.7684C146.048 37.4826 143.424 45.1997 140.803 52.9139C140.716 53.1706 140.621 53.4243 140.537 53.6572C139.97 53.7468 135.569 53.7736 134.42 53.702C134.199 53.5438 134.181 53.2751 134.104 53.0452C133.196 50.3733 132.294 47.6984 131.393 45.0236C128.996 37.9065 126.598 30.7864 124.204 23.6664C124.103 23.3649 124.007 23.0663 123.891 22.717C124.019 22.6782 124.118 22.6185 124.219 22.6185C126.339 22.6155 128.455 22.6185 130.575 22.6185C130.641 22.6185 130.706 22.6454 130.811 22.6663L130.808 22.6723Z" fill="#F2F2F2"/>
<path d="M201.606 22.6584C201.642 22.754 201.684 22.8167 201.684 22.8793C201.69 24.5183 201.69 26.1602 201.69 27.7992C201.69 27.8858 201.66 27.9724 201.642 28.0828C201.394 28.1903 201.14 28.1485 200.899 28.1485C198.325 28.1515 195.752 28.1485 193.178 28.1485H192.399C192.366 28.3037 192.325 28.4291 192.319 28.5575C192.307 28.7844 192.313 29.0142 192.313 29.2411C192.313 37.0986 192.313 44.956 192.313 52.8135C192.313 53.0821 192.304 53.3538 192.301 53.6553C192.14 53.6852 192.011 53.727 191.883 53.727C189.993 53.73 188.103 53.73 186.214 53.727C186.103 53.727 185.996 53.7031 185.852 53.6852C185.834 53.5329 185.808 53.4046 185.802 53.2732C185.793 53.0672 185.802 52.8642 185.802 52.6582C185.802 44.8247 185.802 36.9881 185.802 29.1546V28.3037C185.605 28.0888 185.387 28.1545 185.19 28.1545C183.595 28.1485 182.001 28.1515 180.407 28.1515C179.335 28.1515 178.267 28.1515 177.195 28.1515C176.968 28.1515 176.744 28.1515 176.496 28.1515C176.46 27.9783 176.413 27.85 176.413 27.7216C176.407 26.1722 176.407 24.6228 176.413 23.0764C176.413 22.945 176.451 22.8167 176.469 22.6972C177.123 22.5838 194.128 22.536 201.084 22.6226C201.26 22.6226 201.436 22.6495 201.609 22.6614L201.606 22.6584Z" fill="#F2F2F2"/>
<path d="M19.8067 53.6841C19.7798 53.5886 19.744 53.502 19.735 53.4154C19.6843 52.7318 19.7291 23.1529 19.7858 22.7051C19.8754 22.6813 19.9769 22.6245 20.0813 22.6245C22.0158 22.6186 23.9533 22.6216 25.8878 22.6245C25.9744 22.6245 26.061 22.6514 26.1864 22.6723C26.2043 22.8156 26.2282 22.944 26.2341 23.0723C26.2431 23.2545 26.2341 23.4366 26.2341 23.6187C26.2341 33.3211 26.2341 43.0264 26.2341 52.7288V53.6364C26.0968 53.6722 25.9953 53.7259 25.8908 53.7259C23.9563 53.7319 22.0188 53.7319 20.0843 53.7259C19.9978 53.7259 19.9112 53.6991 19.8067 53.6841Z" fill="#F2F2F2"/>
<path d="M205.074 53.6571C205.059 53.5496 205.035 53.4421 205.029 53.3347C204.961 51.5435 205.008 23.2722 205.083 22.6871C205.182 22.6662 205.289 22.6214 205.396 22.6214C207.31 22.6184 209.224 22.6184 211.137 22.6214C211.227 22.6214 211.313 22.6423 211.442 22.6602C211.466 22.7975 211.496 22.9229 211.507 23.0513C211.519 23.1856 211.51 23.3259 211.51 23.4603C211.51 33.2821 211.51 43.1009 211.51 52.9227C211.51 53.1675 211.552 53.4212 211.445 53.6601C211.37 53.684 211.307 53.7198 211.245 53.7198C209.263 53.7228 207.28 53.7228 205.298 53.7198C205.235 53.7198 205.173 53.684 205.077 53.6541L205.074 53.6571Z" fill="#F2F2F2"/>
<path d="M235.192 62.9551C236.559 62.9819 237.879 63.2148 239.126 63.7581C242.106 65.0568 243.9 67.3376 244.539 70.502C244.945 72.5052 244.817 74.4994 244.025 76.4071C242.706 79.5954 240.288 81.4344 236.917 82.0345C235.254 82.33 233.598 82.2225 231.992 81.6762C228.615 80.5268 226.576 78.1595 225.848 74.6994C225.403 72.5798 225.573 70.4752 226.469 68.475C227.776 65.5613 230.045 63.8238 233.156 63.1909C233.822 63.0566 234.508 63.0297 235.186 62.9551H235.192ZM242.449 72.5679C242.378 71.9828 242.345 71.3887 242.222 70.8125C241.386 66.842 237.894 64.394 233.771 65.1523C231.305 65.6061 229.597 67.0808 228.6 69.3676C227.973 70.8036 227.857 72.3171 228.057 73.8546C228.155 74.6248 228.37 75.3741 228.72 76.0697C230.087 78.7983 232.308 80.1955 235.353 80.1358C238.314 80.0761 240.44 78.6371 241.706 75.9563C242.21 74.8905 242.416 73.7531 242.449 72.5709V72.5679Z" fill="#F2F2F2"/>
<path d="M260.757 81.6968C259.802 81.7655 258.987 81.7267 258.136 81.7297C258.001 81.5237 257.864 81.3177 257.736 81.1057C256.348 78.807 254.962 76.5053 253.574 74.2066C253.446 73.9946 253.308 73.7856 253.159 73.5468C252.273 73.517 251.389 73.5319 250.523 73.5379C250.32 73.7886 250.398 74.0484 250.398 74.2902C250.392 76.4993 250.395 78.7085 250.392 80.9147C250.392 81.1595 250.425 81.4102 250.341 81.6371C249.792 81.7655 248.866 81.7685 248.269 81.6491C248.254 81.5058 248.227 81.3535 248.224 81.1983C248.132 76.4635 248.18 64.2027 248.299 63.4802C248.418 63.4683 248.547 63.4414 248.678 63.4414C250.431 63.4414 252.183 63.4414 253.938 63.4563C254.876 63.4653 255.801 63.5817 256.706 63.8325C259.001 64.4684 260.133 65.9312 260.148 68.2986C260.148 68.7494 260.112 69.2091 260.025 69.6539C259.793 70.857 259.112 71.7705 258.091 72.4303C257.551 72.7796 256.96 73.0124 256.336 73.1677C256.121 73.2214 255.909 73.2841 255.643 73.3587C256.491 74.7887 257.354 76.15 258.198 77.5263C259.031 78.8816 259.864 80.237 260.763 81.6968H260.757ZM250.454 71.472C250.622 71.4869 250.777 71.5078 250.929 71.5108C251.568 71.5138 252.204 71.5257 252.843 71.5048C253.479 71.4839 254.114 71.4421 254.75 71.3914C255.276 71.3466 255.78 71.2153 256.264 71.0033C257.234 70.5764 257.736 69.8241 257.81 68.7762C257.819 68.6389 257.819 68.5016 257.816 68.3672C257.789 67.0776 257.168 66.2148 255.956 65.7968C255.437 65.6177 254.9 65.5103 254.35 65.5013C253.144 65.4864 251.938 65.4804 250.729 65.4774C250.625 65.4774 250.52 65.5282 250.392 65.564C250.392 67.4567 250.392 69.3225 250.392 71.1884C250.392 71.275 250.425 71.3586 250.451 71.478L250.454 71.472Z" fill="#F2F2F2"/>
<path d="M181.413 63.459H183.374C183.601 63.6351 183.646 63.8948 183.742 64.1187C185.509 68.2624 187.27 72.4091 189.035 76.5557C189.659 78.0215 190.279 79.4873 190.903 80.9531C190.99 81.1591 191.071 81.3711 191.148 81.5592C191.089 81.6278 191.062 81.6875 191.032 81.6905C190.262 81.7681 189.494 81.7293 188.694 81.7174C188.067 80.2217 187.455 78.7559 186.849 77.308C186.261 77.2334 178.344 77.2304 177.693 77.308C177.048 78.732 176.475 80.2158 175.845 81.6428C175.311 81.7592 174.153 81.7681 173.511 81.6726C173.391 81.4786 173.535 81.3263 173.603 81.1681C174.415 79.3142 175.233 77.4603 176.048 75.6064C177.735 71.7732 179.425 67.943 181.111 64.1098C181.204 63.9038 181.303 63.7008 181.413 63.459ZM185.915 75.1496C185.87 74.9914 185.837 74.8391 185.784 74.6958C184.24 70.6686 182.67 66.8503 182.371 66.3996C182.088 66.7877 180.237 71.0597 178.783 74.6988C178.726 74.8391 178.696 74.9914 178.649 75.1496C178.75 75.1795 178.81 75.2153 178.872 75.2153C181.147 75.2153 183.422 75.2153 185.7 75.2153C185.76 75.2153 185.822 75.1795 185.918 75.1496H185.915Z" fill="#F2F2F2"/>
<path d="M208.371 65.8642C207.735 66.3239 207.147 66.7478 206.535 67.1927C206.4 67.0643 206.287 66.9628 206.182 66.8523C204.878 65.4582 203.254 64.873 201.376 65.0462C198.617 65.2999 196.746 66.8374 195.647 69.3063C194.605 71.6438 194.686 74.0231 195.805 76.3159C197.474 79.7311 201.015 80.77 204.102 79.8177C205.123 79.5042 205.991 78.9281 206.729 78.1519C206.884 77.9877 207.03 77.8175 207.171 77.6623C207.711 77.9817 208.409 78.5639 208.801 79.0236C208.636 79.2266 208.475 79.4445 208.293 79.6416C207.362 80.6566 206.233 81.3641 204.917 81.7522C202.967 82.3254 201 82.3582 199.059 81.7403C196.411 80.8984 194.51 79.1818 193.438 76.6204C192.271 73.8321 192.286 71.002 193.572 68.2674C195.11 64.9984 197.761 63.261 201.37 63.0191C202.725 62.9296 204.054 63.0968 205.329 63.5953C206.385 64.0103 207.308 64.6193 208.066 65.4671C208.156 65.5686 208.233 65.6791 208.383 65.8642H208.371Z" fill="#F2F2F2"/>
<path d="M173.253 73.5156C172.916 73.5216 172.671 73.5306 172.423 73.5306C170.124 73.5306 167.823 73.5306 165.524 73.5306C165.279 73.5306 165.028 73.4947 164.751 73.6112C164.709 74.2948 164.736 74.9755 164.73 75.6531C164.727 76.3129 164.73 76.9727 164.73 77.6354C164.73 78.2982 164.739 79.0027 164.73 79.6864C164.721 80.3401 164.78 80.9999 164.688 81.6418C164.133 81.7612 163.21 81.7642 162.601 81.6418C162.589 81.5253 162.562 81.397 162.559 81.2686C162.553 80.7462 162.559 80.2207 162.559 79.6983C162.559 74.5725 162.559 69.4496 162.559 64.3237C162.559 64.0551 162.533 63.7834 162.607 63.4998C162.712 63.4759 162.795 63.446 162.882 63.4401C163.879 63.3834 173.328 63.4281 173.799 63.4908C173.922 63.9446 173.94 64.6551 173.841 65.3716C173.617 65.5238 173.357 65.4582 173.116 65.4582C170.587 65.4641 168.061 65.4582 165.533 65.4641C165.288 65.4641 165.037 65.4223 164.772 65.5418C164.76 65.6552 164.736 65.7657 164.736 65.8731C164.736 67.7151 164.736 69.5571 164.736 71.3841C165.004 71.5722 165.261 71.5035 165.503 71.5065C167.802 71.5125 170.103 71.5095 172.402 71.5095C172.65 71.5095 172.901 71.5095 173.151 71.5095C173.342 71.8379 173.25 72.1603 173.265 72.4678C173.28 72.7812 173.265 73.0977 173.259 73.5156H173.253Z" fill="#F2F2F2"/>
<path d="M260.523 63.4504C261.517 63.4444 262.376 63.4384 263.272 63.4534C264.977 66.167 266.651 68.8986 268.398 71.684C269.326 70.2599 270.186 68.8956 271.058 67.5403C271.93 66.182 272.801 64.8236 273.682 63.4474C274.413 63.4474 275.115 63.4474 275.819 63.4474C275.927 63.4474 276.037 63.4683 276.211 63.4832C276.106 63.6832 276.037 63.8444 275.945 63.9877C274.476 66.2357 273.004 68.4837 271.532 70.7286C270.947 71.6243 270.368 72.5258 269.768 73.4095C269.553 73.7259 269.464 74.0484 269.467 74.4275C269.479 76.5919 269.473 78.7533 269.467 80.9177C269.467 81.1625 269.52 81.4162 269.386 81.6759C269.311 81.6938 269.225 81.7267 269.138 81.7267C268.571 81.7327 268.004 81.7267 267.475 81.7267C267.254 81.5267 267.314 81.3087 267.311 81.1117C267.305 79.7444 267.311 78.3801 267.308 77.0128C267.308 76.2157 267.284 75.4186 267.317 74.6215C267.338 74.0961 267.198 73.6603 266.908 73.2214C264.923 70.2211 262.959 67.2089 260.991 64.1997C260.857 63.9937 260.729 63.7817 260.52 63.4414L260.523 63.4504Z" fill="#F2F2F2"/>
<path d="M224.032 63.4687C224.151 64.0897 224.145 64.8808 224.02 65.4212C223.378 65.5107 222.721 65.451 222.067 65.4629C221.428 65.4749 220.792 65.4629 220.154 65.4629H218.15C218.115 65.6331 218.073 65.7585 218.064 65.8839C218.052 66.0869 218.058 66.2929 218.058 66.4989C218.058 71.2844 218.058 76.0669 218.058 80.8524C218.058 81.1211 218.103 81.3958 217.986 81.6824C217.329 81.7809 216.676 81.7122 215.992 81.7242C215.953 81.5719 215.905 81.4465 215.894 81.3181C215.879 81.1151 215.888 80.9092 215.888 80.7032C215.888 75.9176 215.888 71.1351 215.888 66.3496C215.888 66.0809 215.873 65.8122 215.864 65.4988C215.598 65.4838 215.377 65.46 215.156 65.46C213.631 65.457 212.102 65.46 210.577 65.457C210.356 65.457 210.12 65.5107 209.881 65.3585C209.806 64.7674 209.842 64.1613 209.863 63.5165C210 63.4866 210.126 63.4538 210.251 63.4359C210.341 63.424 210.433 63.4329 210.523 63.4329C214.828 63.4329 219.136 63.4329 223.44 63.4329C223.64 63.4329 223.841 63.4538 224.029 63.4628L224.032 63.4687Z" fill="#F2F2F2"/>
<path d="M108.219 25.6818C115.474 25.6519 121.203 31.5838 121.253 38.5815C121.307 45.6508 115.584 51.6662 108.282 51.6842C100.983 51.7021 95.263 45.7224 95.2481 38.7128C95.2302 31.6823 100.95 25.6877 108.219 25.6818ZM108.261 49.6004C114.229 49.5705 119.176 44.7999 119.167 38.668C119.155 32.4018 114.059 27.7506 108.243 27.7596C102.326 27.7685 97.3349 32.5391 97.3378 38.6889C97.3378 44.7223 102.213 49.5795 108.264 49.6004H108.261Z" fill="#F2F2F2"/>
<path d="M99.0488 38.6873C99.0548 33.66 103.073 29.4656 108.262 29.4805C113.743 29.4954 117.474 34.0332 117.457 38.7082C117.436 43.6669 113.355 47.8643 108.277 47.8852C103.47 47.9061 99.0757 44.0281 99.0488 38.6873ZM101.136 38.6754C101.121 42.3653 104.061 45.7984 108.265 45.7955C112.363 45.7895 115.394 42.4668 115.367 38.6515C115.34 34.4959 111.916 31.5703 108.274 31.5613C104.494 31.5523 101.145 34.6273 101.136 38.6754Z" fill="#F2F2F2"/>
</g>
<defs>
<clipPath id="clip0_2052_871">
<rect width="256.57" height="60.3937" fill="white" transform="translate(19.7148 21.8027)"/>
</clipPath>
</defs>
</svg>
