<svg width="296" height="104" fill="none" xmlns="http://www.w3.org/2000/svg"><g clip-path="url(#a)" fill="#fff"><path d="M139.619 11.12a22.293 22.293 0 0 1 18.37 9.145c1.598 2.048 3.205 4.096 4.731 6.257a5.299 5.299 0 1 1-8.438 6.41c-1.689-2.15-3.256-4.403-4.976-6.533a11.514 11.514 0 0 0-11.367-4.496 11.344 11.344 0 0 0-9.216 7.506 11.507 11.507 0 0 0 1.465 11.408c1.71 2.396 3.563 4.69 5.294 7.055a5.294 5.294 0 0 1-4.618 8.63 5.294 5.294 0 0 1-3.574-1.913 98.331 98.331 0 0 1-6.523-8.734 22.646 22.646 0 0 1-1.526-21.463 22.642 22.642 0 0 1 17.111-13.046c1.127-.174 2.273-.164 3.267-.225Z"/><path d="M156.245 55.291c-4.413-.123-8.622-2.468-11.868-6.523-3.072-3.789-5.929-7.72-8.837-11.622a5.313 5.313 0 0 1-1.163-3.99 5.308 5.308 0 0 1 8.087-3.864c.605.38 1.127.878 1.534 1.464 2.786 3.625 5.52 7.301 8.315 10.926a10.436 10.436 0 0 0 1.905 1.895 4.678 4.678 0 0 0 5.284.532 19.324 19.324 0 0 0 2.867-1.853c1.669-1.25 3.267-2.591 4.925-3.85a5.276 5.276 0 0 1 7.65.963c.566.784.906 1.708.983 2.672a4.73 4.73 0 0 1-1.721 4.383c-2.498 2.047-5.017 4.095-7.659 5.918a16.845 16.845 0 0 1-10.302 2.95ZM125.991 70.172l4.322-7.24h3.788v13.661h-4.096v-5.847l-.225-.072-2.836 4.7h-2.048l-2.949-4.69v5.889h-4.158V62.892c1.106 0 2.232-.051 3.359 0 .266 0 .583.379.758.665 1.167 1.864 2.304 3.759 3.461 5.643.164.287.358.563.624.972ZM145.848 92.54V79.062c.082-.061.143-.153.194-.153 3.021 0 6.032 0 9.042.143a5.13 5.13 0 0 1 1.639.481 3.188 3.188 0 0 1 1.983 2.52 3.181 3.181 0 0 1-1.215 2.969c-.164.113-.308.236-.502.379.358.225.676.41 1.024.624a3.345 3.345 0 0 1 1.448 2.88 3.342 3.342 0 0 1-1.663 2.763 6.012 6.012 0 0 1-2.642.83c-3.103.102-6.175.04-9.308.04Zm4.536-3.186h3.307a1.025 1.025 0 0 0 1.024-1.023 1.008 1.008 0 0 0-.277-.765 1.02 1.02 0 0 0-.747-.321h-3.276l-.031 2.11Zm0-5.242h2.673c.563 0 1.024-.297 1.024-1.024 0-.727-.502-.922-1.024-.963-.871-.061-1.751 0-2.642 0l-.031 1.987ZM167.956 62.927h4.577l5.939 13.65h-4.751l-.932-2.334h-5.192l-.931 2.416h-4.67c2.007-4.649 3.963-9.165 5.96-13.732Zm3.553 7.905-1.311-3.389-1.3 3.38 2.611.01ZM134.017 90.226l-.922 2.355h-4.669l5.97-13.68h4.557l5.928 13.64h-4.73l-.922-2.315h-5.212Zm1.321-3.451h2.601l-1.311-3.349-1.29 3.349ZM151.294 75.635l.123.952h-4.629l-.942-2.376h-5.192l-.89 2.448h-4.721c2.048-4.619 3.994-9.155 5.96-13.691h4.567c1.106 2.56 2.212 5.12 3.348 7.69.686 1.546 1.444 3.072 2.171 4.577l.256.522-.051-.122Zm-7.936-7.947h-.225l-1.168 3.072h2.581l-1.188-3.072ZM159.996 91.31l1.413-3.185a9.576 9.576 0 0 0 4.782 1.168c.564 0 1.413.153 1.475-.676.061-.83-.737-.697-1.28-.891a34.2 34.2 0 0 1-3.984-1.137 3.787 3.787 0 0 1-2.292-3.032 3.781 3.781 0 0 1 1.504-3.49 6.366 6.366 0 0 1 3.256-1.363 11.266 11.266 0 0 1 6.841 1.024c-.461 1.117-.901 2.15-1.342 3.195-1.024-.256-1.904-.553-2.836-.737a4.751 4.751 0 0 0-1.7 0c-.379.072-.922.348-1.024.655-.174.574.45.676.86.81.41.132.952.194 1.423.327.957.194 1.898.458 2.816.788a3.769 3.769 0 0 1 1.086 6.42 6.144 6.144 0 0 1-3.533 1.527 13.088 13.088 0 0 1-6.82-.922 4.5 4.5 0 0 1-.399-.184c-.092-.041-.123-.123-.246-.297Z"/><path d="M151.085 75.184c0-.256 0-.573.153-.747.656-.83 1.362-1.618 2.048-2.417.438.376.903.719 1.393 1.024a1.446 1.446 0 0 0 2.152-.515c.126-.252.175-.536.142-.816v-5.284h-4.567v-3.461h9.144c0 3.133.113 6.236 0 9.318-.133 2.58-1.556 3.983-4.096 4.465a7.548 7.548 0 0 1-5.407-.901 3.063 3.063 0 0 0-.716-.185l-.308-.501.062.02ZM122.143 89h6.144v3.564h-10.701v-13.62h4.557V89ZM178.745 90.285a2.568 2.568 0 0 1-3.022 2.592 2.573 2.573 0 0 1-2.059-1.987 2.567 2.567 0 0 1 1.055-2.66 2.568 2.568 0 0 1 1.425-.453 2.52 2.52 0 0 1 2.601 2.508Z"/></g><defs><clipPath id="a"><path fill="#fff" transform="translate(117.242 11.122)" d="M0 0h61.512v81.756H0z"/></clipPath></defs></svg>