<svg width="296" height="104" fill="none" xmlns="http://www.w3.org/2000/svg"><g clip-path="url(#a)"><path d="M110.61 83.235H95.616c-.75 0-.656.064-.656-.66V75.88c0-.442 0-.45-.435-.45h-6.692c-.772 0-.67-.082-.67.698V82.77c0 .46 0 .464-.477.464H72.03c-.483 0-.487 0-.487-.51V75.716c0-.207-.082-.293-.285-.285h-6.92c-.686 0-.618.056-.618-.645v-6.639c0-.559.018-.525-.525-.525h-6.692c-.592-.019-.592-.019-.592-.57v-6.69c0-.62-.022-.567.596-.567h6.797c.404 0 .408 0 .412-.424v-22.48c0-.525 0-.528.52-.528h6.591c.125-.008.25-.008.375 0 .27.026.345-.113.326-.353V21.402c0-.731-.067-.656.663-.656h6.905c.184 0 .26.082.255.259-.003.176 0 .247 0 .374v6.909c0 .128.064.27.248.266h7.283c.21 0 .293.086.285.289v7.01c0 .502 0 .506.491.51h6.692c.682 0 .618.06.618-.645V29.075c0-.52 0-.525.525-.525h6.747c.551 0 .555 0 .555.552v14.402c0 .75-.082.674.697.674h22.057c.772 0 .679-.078.679.69v6.853c0 .123.06.27.247.266h14.717c.637 0 .596.06.596-.619v-6.905c0-.198.083-.3.289-.285.035.002.07.002.105 0h7.07c.375 0 .375 0 .401.375v14.56c0 .79 0 .667-.66.667h-6.695c-.454 0-.461 0-.461.487v14.886a.223.223 0 0 1-.01.106.219.219 0 0 1-.056.09.225.225 0 0 1-.196.063h-7.025a2.01 2.01 0 0 0-.214 0c-.251.022-.375-.086-.352-.341v-7.093c0-.236-.057-.374-.33-.352a2.064 2.064 0 0 1-.214 0h-6.946c-.176 0-.27.064-.262.247.007.184 0 .289 0 .431v14.294c0 .694.071.641-.627.641l-14.994-.004Z" fill="#2EC4B6"/><path d="M172.713 71.757c.036.04.076.076.12.108a3.302 3.302 0 0 1 1.657 3.528c-.3 2.088-1.612 3.212-3.831 3.238-1.766.027-3.531 0-5.297 0h-.161c-.206.02-.296-.078-.281-.28V66.211c0-.633-.057-.588.562-.588h4.547a5.32 5.32 0 0 1 1.065.097c2.624.525 3.306 3.288 2.507 4.978-.093.212-.22.407-.374.578-.169.165-.345.314-.514.48Zm-3.651 1.124h-1.657c-.165 0-.27.034-.266.233v3.208c0 .177.067.259.247.255 1.106-.019 2.212.068 3.314-.041a1.84 1.84 0 0 0 1.579-1.917 1.833 1.833 0 0 0-1.774-1.738c-.48-.03-.96-.03-1.443-.03v.03Zm-.296-2.047h1.499c.089-.008.177-.026.262-.052a1.39 1.39 0 0 0 1.125-1.192c.173-1.091-.465-1.852-1.616-1.874-.854-.03-1.709 0-2.564 0-.255 0-.344.074-.341.333v2.512c0 .273.109.33.349.322.431-.075.858-.064 1.286-.064v.015ZM237.914 78.29a.16.16 0 0 0-.198 0c-2.681 1.448-5.556.3-6.463-2.605a6.249 6.249 0 0 1 .146-4.295c1.027-2.53 3.434-3.187 5.477-2.59.437.138.844.358 1.199.648.049-.045.09-.064.094-.09.053-.476.053-.48.514-.48h.907c.566 0 .495-.052.502.529v9.682c.008.447-.031.893-.116 1.331a2.97 2.97 0 0 1-1.593 2.163 5.394 5.394 0 0 1-4.99.105 3.8 3.8 0 0 1-1.499-1.33c-.131-.192-.124-.297.105-.402.502-.229.993-.48 1.499-.75.165-.082.281-.108.401.08.641 1 2.25 1.011 3.097.52a1.755 1.755 0 0 0 .937-1.5c-.004-.34-.019-.682-.019-1.015Zm.27-4.58a5.206 5.206 0 0 0-.225-1.563c-.3-.881-.854-1.466-1.829-1.556-.975-.09-1.897.203-2.38 1.159a4.313 4.313 0 0 0 .018 4.055c.469.915 1.312 1.207 2.298 1.125a2.064 2.064 0 0 0 1.856-1.466 5.149 5.149 0 0 0 .262-1.754ZM170.166 44.257a5.837 5.837 0 0 1 2.384.438 4.582 4.582 0 0 1 2.673 3c.101.333.086.352-.259.415-.562.101-1.125.188-1.683.293-.206.04-.315.026-.375-.21-.585-1.927-2.92-2.28-4.236-1.582a1.508 1.508 0 0 0-.9 1.124 1.128 1.128 0 0 0 .443 1.125c.364.259.776.444 1.211.547 1.124.323 2.226.634 3.336.96.514.152.997.393 1.428.712a2.96 2.96 0 0 1 1.211 2.28 3.644 3.644 0 0 1-2.328 3.834 6.602 6.602 0 0 1-5.402.03 4.426 4.426 0 0 1-2.714-3.419c-.026-.13.034-.19.165-.213.619-.09 1.233-.177 1.848-.282.244-.04.251.124.304.27a2.948 2.948 0 0 0 1.556 1.755 3.686 3.686 0 0 0 3.205.022 1.702 1.702 0 0 0 1.023-1.098 1.323 1.323 0 0 0-.521-1.5 3.409 3.409 0 0 0-1.023-.446c-1.076-.318-2.152-.633-3.228-.96a8.497 8.497 0 0 1-.851-.307c-1.608-.678-2.182-1.956-1.975-3.572a3.332 3.332 0 0 1 1.983-2.67 5.843 5.843 0 0 1 2.725-.546ZM220.882 57.17v4.237c0 .412 0 .416-.405.42h-1.444c-.374 0-.374 0-.374-.375V48.343c0-.619-.072-.581.566-.581h.907c.416 0 .412 0 .472.404.02.063.047.123.079.18.423-.335.91-.578 1.432-.715 2.481-.548 4.476.562 5.308 2.751a6.187 6.187 0 0 1-.071 4.693 4.308 4.308 0 0 1-6.186 2.167c-.071-.06-.131-.135-.284-.071Zm4.618-4.543a4.012 4.012 0 0 0-.375-1.874 2.296 2.296 0 0 0-2.358-1.323 2.094 2.094 0 0 0-1.949 1.63 5.409 5.409 0 0 0 0 3.108 2.116 2.116 0 0 0 2.118 1.635 2.218 2.218 0 0 0 2.249-1.414 4.154 4.154 0 0 0 .315-1.762ZM204.536 78.601c0-.19-.026-.375-.041-.54-.132-.07-.199.042-.282.098a4.304 4.304 0 0 1-3.231.68 4.322 4.322 0 0 1-2.766-1.805 6.434 6.434 0 0 1-.33-6.035 4.364 4.364 0 0 1 2.631-2.244 4.369 4.369 0 0 1 3.438.37c.06.03.112.094.236.06a.725.725 0 0 0 .034-.375v-2.834c0-.27.075-.375.375-.375h1.551c.225 0 .338.067.315.304v12.138c0 .644.057.58-.566.573a8.429 8.429 0 0 1-1.364-.015Zm-.026-4.873a4.729 4.729 0 0 0-.233-1.597c-.289-.855-.821-1.447-1.777-1.548-1.023-.112-1.912.157-2.406 1.106a4.255 4.255 0 0 0 .018 4.146c.473.888 1.312 1.162 2.272 1.072a2.064 2.064 0 0 0 1.856-1.466c.187-.546.279-1.12.27-1.698v-.015ZM182.452 77.482a.568.568 0 0 0-.344.25 3.716 3.716 0 0 1-2.576 1.126 5.061 5.061 0 0 1-1.593-.11 2.813 2.813 0 0 1-2.133-2.346c-.172-1.432.338-2.5 1.5-3.1a9.464 9.464 0 0 1 2.826-.768c.682-.117 1.368-.214 2.051-.32-.068-1.019-.506-1.498-1.474-1.592a3.039 3.039 0 0 0-1.218.079 1.792 1.792 0 0 0-1.256.993c-.075.169-.153.258-.356.195a45.761 45.761 0 0 0-1.529-.484c-.233-.067-.203-.183-.135-.375a3.51 3.51 0 0 1 2.406-2.249 5.998 5.998 0 0 1 3.584.09 2.912 2.912 0 0 1 2.103 2.572c.043.318.066.638.068.96v5.723c0 .473 0 .477-.454.48h-1.125c-.243 0-.375-.056-.345-.326.03-.27 0-.49 0-.798Zm-.284-2.864c0-.116 0-.206.018-.293.019-.213-.063-.292-.277-.25-.859.168-1.724.27-2.568.502a2.584 2.584 0 0 0-1.005.483 1.123 1.123 0 0 0 .147 1.852c.248.143.527.224.813.236a2.572 2.572 0 0 0 2.872-2.53ZM190.394 56.358a.93.93 0 0 0-.165.068c-1.124 1.293-2.601 1.533-4.198 1.244a2.792 2.792 0 0 1-2.294-2.391 2.84 2.84 0 0 1 1.518-3.089 8.73 8.73 0 0 1 2.571-.705 42.767 42.767 0 0 1 2.062-.315c.251-.03.289-.135.244-.352a1.417 1.417 0 0 0-1.125-1.222 3.172 3.172 0 0 0-1.792.083 1.655 1.655 0 0 0-1.019.884c-.109.259-.233.292-.487.199-.451-.168-.91-.312-1.376-.431-.251-.068-.259-.184-.176-.375a3.513 3.513 0 0 1 2.515-2.272 6.077 6.077 0 0 1 3.479.124 2.965 2.965 0 0 1 2.129 2.785c.041.836.022 1.676.026 2.515v4.015c0 .375 0 .375-.375.375h-1.229c-.27 0-.341-.101-.323-.348.019-.248.015-.492.015-.791Zm-.255-3.426c-.952.114-1.896.286-2.826.518a2.932 2.932 0 0 0-.832.344 1.152 1.152 0 0 0-.592 1.215 1.155 1.155 0 0 0 .967.945 2.656 2.656 0 0 0 2.189-.409c.881-.622 1.117-1.518 1.094-2.617v.004ZM222.169 69.784c.157.03.199-.07.259-.123 1.282-1.159 2.777-1.309 4.352-.844 1.046.311 1.672 1.125 2.039 2.118.24.692.359 1.42.352 2.152v5.14c0 .404 0 .408-.408.412h-1.23c-.577 0-.555.086-.555-.533v-3.535a15.213 15.213 0 0 0-.082-1.653 3.384 3.384 0 0 0-.296-1.076 1.874 1.874 0 0 0-1.811-1.188 2.037 2.037 0 0 0-1.99 1.095 4.313 4.313 0 0 0-.375 2.028v4.28c0 .664.048.574-.563.582h-1.177c-.412 0-.457.093-.453-.477.004-.57 0-1.034 0-1.551v-7.276c0-.506-.03-.458.465-.458h1.124c.259 0 .409.045.375.353-.02.184-.028.37-.026.554ZM215.776 77.724c-1.147 1.072-2.47 1.3-3.891 1.124-1.421-.176-2.283-1.004-2.755-2.301a5.315 5.315 0 0 1-.334-1.777c0-1.855 0-3.711-.023-5.563 0-.251.06-.352.327-.345a19.47 19.47 0 0 0 1.551 0c.3 0 .353.116.349.375v4.281c-.02.57.042 1.141.184 1.694.487 1.623 1.747 1.822 2.837 1.5.848-.255 1.226-.93 1.406-1.736a5.8 5.8 0 0 0 .113-1.274V69.26c0-.375 0-.375.375-.375h1.338c.446 0 .472-.053.472.45v9.094c0 .123-.071.22-.229.217h-1.499c-.161 0-.221-.082-.217-.232 0-.237-.004-.461-.004-.69ZM188.655 68.878v.874c.177.041.222-.079.297-.143 1.323-1.124 2.834-1.27 4.415-.75.99.327 1.582 1.125 1.927 2.089.234.675.352 1.384.349 2.099v5.188c0 .375 0 .397-.42.401h-1.391c-.397 0-.405 0-.405-.424V74.04a6.43 6.43 0 0 0-.142-1.59 4.451 4.451 0 0 0-.124-.408 1.931 1.931 0 0 0-1.941-1.394 2.03 2.03 0 0 0-2.055 1.334 4.362 4.362 0 0 0-.273 1.623v4.814c0 .123-.079.217-.233.217h-1.709c-.18 0-.27-.06-.266-.244v-9.248c0-.168.041-.27.236-.266h1.735ZM215.128 56.608c-.188-.03-.236.086-.311.146-1.32 1.147-2.834 1.275-4.416.75-.994-.326-1.586-1.125-1.927-2.092a6.12 6.12 0 0 1-.341-2.047v-5.188c0-.43 0-.43.446-.435.446-.003.93 0 1.391 0 .288 0 .375.094.375.375v4.176a6.598 6.598 0 0 0 .195 1.803c.374 1.312 1.401 1.875 2.725 1.545.929-.244 1.346-.941 1.529-1.815.074-.37.108-.747.101-1.124V48.26c0-.581 0-.51.529-.51h1.338c.229 0 .326.071.315.303-.011.233 0 .574 0 .859V57.253c0 .127-.034.24-.206.24h-1.5c-.202 0-.232-.11-.228-.274.004-.165-.015-.416-.015-.611ZM179.335 49.46v4.881c.019.915.476 1.36 1.391 1.402.479.013.959-.008 1.436-.064v1.616a.24.24 0 0 1-.009.092.214.214 0 0 1-.045.081.226.226 0 0 1-.164.078 6.477 6.477 0 0 1-3.066-.127 2.398 2.398 0 0 1-1.683-2.077 9.3 9.3 0 0 1-.068-1.335v-8.715c0-.176.068-.259.251-.259h1.71c.24 0 .243.143.243.319v2.028c0 .27.064.375.356.375.675-.023 1.354 0 2.028 0 .45 0 .469 0 .454.42.042.421.022.847-.06 1.263a7.78 7.78 0 0 1-1.218.034c-.503-.004-1.001-.012-1.556-.012ZM206.181 55.672c.041.54.053 1.082.038 1.623a.221.221 0 0 1-.056.173.223.223 0 0 1-.165.075c-1 .201-2.034.165-3.018-.105a2.506 2.506 0 0 1-1.784-2.463c-.019-.874 0-1.747 0-2.624v-6.845c0-.499-.023-.473.457-.473h1.338c.375 0 .375 0 .375.375v1.98c0 .255.079.344.334.34h2.14c.375 0 .375 0 .398.376v1.338H203.707c-.318 0-.337.154-.337.397v4.495c.053.926.495 1.353 1.413 1.394a7.72 7.72 0 0 0 1.398-.056ZM194.27 57.482a1.376 1.376 0 0 1-.053-.577v-8.941c0-.187.086-.247.259-.243h1.391c.206 0 .288.079.281.285v1.15c.195-.22.3-.374.419-.48a3.533 3.533 0 0 1 2.883-.985c.225 0 .255.142.251.322v1.443c0 .26-.108.289-.322.26a2.624 2.624 0 0 0-1.563.22c-1.061.529-1.402 1.466-1.417 2.56v4.761c0 .128-.075.221-.229.218l-1.9.007Z" fill="#fff"/></g><defs><clipPath id="a"><path fill="#fff" transform="translate(55.906 20.748)" d="M0 0h184.188v62.504H0z"/></clipPath></defs></svg>