<svg width="296" height="104" fill="none" xmlns="http://www.w3.org/2000/svg"><g clip-path="url(#a)"><path d="m69.525 44.839-.677 5.133.677 2.389 8.996-10.786 14.208-11.702-5.611.479-10.03 4.298-7.563 10.189ZM117.873 45.974l.678 5.134-.678 2.388-8.995-10.786L94.669 31.01l5.612.478 10.029 4.298 7.563 10.189Z" fill="#D9D9D9"/><path d="M112.241 33.258 83.848 61.23l1.765 2.899 1.903-1.042 26.897-27.7-2.172-2.129Z" fill="#fff" stroke="#fff" stroke-width="1.335"/><path d="m75.141 33.169 36.929 35.324-1.935 2.982-10.268-8.478-26.898-27.7 2.172-2.128Z" fill="#fff" stroke="#fff" stroke-width="1.335"/><path d="M119.519 51.89c-.2-2.406-.501-3.695-1.446-6.057-.788-1.976-2.52-4.926-3.68-6.272-.587-.687-.53-1.131.258-1.89.802-.788 1.074-1.289 1.088-1.976 0-.745-.215-1.217-.916-1.99-.931-1.002-1.747-1.475-2.578-1.475-.873 0-1.288.215-2.19 1.131-.387.401-.802.73-.931.73s-.873-.415-1.647-.93c-3.193-2.105-6.801-3.551-9.822-3.938-2.205-.272-3.093-.172-3.508.401-.143.2-.186.186-.315-.072-.1-.171-.372-.372-.616-.458-.501-.172-2.491-.186-4.066-.014-1.103.115-3.25.673-4.854 1.246-1.189.43-3.838 1.732-4.926 2.42-.415.271-.902.486-1.074.486-.2 0-.615-.3-1.102-.801-.988-1.003-1.647-1.346-2.578-1.346-.93 0-1.374.243-2.477 1.202-1.818 1.59-1.832 2.764-.043 4.525.459.444.802.902.802 1.074 0 .172-.33.687-.73 1.145-1.647 1.948-3.35 4.84-4.324 7.389-.73 1.861-.888 2.577-1.103 4.696-.229 2.377-.286 2.205.802 2.806.83.444 1.06.516 1.761.473l.802-.043 1.36-2.005c1.647-2.448 3.394-4.725 4.94-6.443 1.962-2.176 1.833-2.076 2.449-1.976.315.043.687.2.844.344.244.229.258.315.1.558-.257.416-.214 1.303.101 1.79.143.23 1.919 2.291 3.938 4.568 2.018 2.262 3.665 4.195 3.665 4.295 0 .086-.974 1.074-2.148 2.205l-2.133 2.033-.53-.357c-.659-.444-1.718-.473-2.606-.072-.659.3-5.154 3.694-6.157 4.64-1.06 1.016-1.088 2.075-.071 3.178a735.756 735.756 0 0 0 5.168 5.527c.502.515 1.017 1.088 1.132 1.26.372.53 1.474 1.145 2.047 1.145.76 0 1.346-.458 2.578-2.019.587-.759 1.646-2.105 2.348-3.007.716-.902 1.374-1.89 1.489-2.205.272-.801.172-2.39-.172-2.777-.272-.301-.258-.315.573-1.189 2.377-2.52 2.978-3.121 3.107-3.121.086 0 .501.386.916.859 1.031 1.131 1.232 1.131 2.22-.057.415-.516.816-.931.887-.931.072 0 2.773 2.6 5.986 5.784 3.321 3.28 6.114 5.928 6.429 6.086 1.002.515 2.262.272 3.035-.616 1.503-1.704 1.761-2.248 1.604-3.307-.058-.358-.244-.83-.416-1.06-.157-.229-2.133-2.205-4.381-4.41-2.248-2.19-4.926-4.825-5.971-5.842-1.203-1.174-1.861-1.919-1.79-2.033.058-.086 1.633-1.99 3.523-4.21 1.875-2.22 3.508-4.224 3.622-4.439.158-.315.158-.544.043-1.073-.129-.587-.114-.716.086-.945.516-.573.917-.358 2.148 1.045 1.561 1.818 3.479 4.41 4.926 6.672l1.217 1.89h.93c.831 0 1.017-.057 1.704-.515l.773-.516-.1-1.217Zm-7.789-17.326c.258-.258.53-.473.601-.473.086 0 .458.287.845.645.372.343.673.687.673.759 0 .057-.229.329-.501.601l-.501.487-1.575-1.547.458-.472ZM98.858 31.37c.014 0 .358.086.744.2 2.248.616 4.296 1.547 6.429 2.907l.974.63-.687.63c-.387.358-.788.616-.874.573-.1-.029-.945-.673-1.861-1.403-.931-.745-2.377-1.819-3.222-2.377-1.332-.888-1.69-1.16-1.503-1.16Zm8.118 11.082c0 .186-.873 1.089-1.045 1.089-.115 0-1.346-.83-1.747-1.175-.129-.114 1.045-1.446 1.231-1.374.058.029.43.33.831.673.401.344.73.702.73.787Zm-13.159-10.08c.058 0 .845.444 1.762 1.003 4.166 2.505 7.961 5.412 7.961 6.085 0 .172-.301.601-.702.988l-.701.701-1.49-.801-1.474-.788-5.227-.1-5.226-.086-1.503.716-1.504.73-.973-.974-.974-.959.4-.33c1.003-.83 3.094-2.347 4.268-3.106 1.317-.845 5.212-3.079 5.383-3.079Zm5.37 11.326-2.534.143c-2.005.1-3.036.086-4.94-.086l-2.391-.214-1.704-.888c-.931-.487-1.69-.93-1.69-.974 0-.057.659-.4 1.475-.773l1.46-.673 5.083.057 5.083.043 1.547.773c.845.43 1.532.817 1.532.86 0 .057-.659.458-1.461.916l-1.46.816Zm.286 2.921c.344 1.017.616 1.947.63 2.062 0 .172-.902.186-5.885.129-3.221-.043-5.899-.115-5.942-.143-.028-.043 0-.258.072-.487.157-.487.644-2.305.873-3.179.086-.33.172-.601.2-.601.03 0 .946.1 2.048.229 1.318.143 2.878.2 4.682.172l2.72-.043.602 1.861ZM83.81 41.924l-.974.658-.973.645-.544-.444c-.301-.244-.545-.516-.545-.616 0-.172 1.418-1.618 1.575-1.632.043 0 .387.315.774.701l.687.688Zm-2.935-7.66c.558-.43 3.966-2.02 4.94-2.32 2.39-.745 3.636-1.017 3.336-.745-.086.072-.888.587-1.79 1.145a57.762 57.762 0 0 0-3.437 2.306l-1.79 1.303-.758-.76c-.688-.686-.73-.758-.501-.93Zm-6.258-1.175c.13 0 .473.244.76.544l.53.544-.874.76-.874.772-.558-.558c-.3-.3-.559-.616-.559-.702 0-.214 1.318-1.346 1.575-1.36Zm-.887 10.796c-.974 1.046-2.306 2.606-2.978 3.48-.674.873-1.246 1.532-1.275 1.446-.057-.186.63-2.09 1.275-3.508.429-.93 1.904-3.293 2.935-4.711.229-.315.372-.243 1.102.473.373.372.688.73.688.801 0 .072-.788.974-1.747 2.02Zm4.582-2.777c-.2 0-3.079-2.692-3.193-2.979-.115-.3 2.577-2.878 3.007-2.892.171 0 .859.573 1.746 1.46.817.816 1.475 1.547 1.475 1.633 0 .2-2.82 2.778-3.035 2.778Zm2.348 4.166c.043-.215 4.066-3.021 4.324-3.021.086 0 .873.4 1.733.873.873.473 1.632.931 1.703.988.072.072 0 .544-.157 1.103-.158.53-.43 1.489-.616 2.119-.172.63-.372 1.203-.43 1.26-.157.186-6.6-3.078-6.557-3.322Zm3.665 24.628-2.047 2.591-1.432-1.489a379.877 379.877 0 0 1-3.336-3.508l-1.905-2.018 1.976-1.547a153.189 153.189 0 0 0 2.478-1.947c.271-.215.558-.387.63-.401.057 0 1.36 1.231 2.892 2.749 1.532 1.503 2.778 2.792 2.778 2.864 0 .071-.917 1.288-2.034 2.706Zm1.833-6.458c-.186 0-1.66-1.446-1.66-1.646 0-.2 4.323-4.51 4.538-4.51.086 0 .473.343.845.773.358.43.644.83.644.902-.043.2-4.195 4.481-4.367 4.481Zm3.995-6.472c-1.189-1.346-3.608-4.11-5.398-6.142-1.804-2.033-3.265-3.723-3.265-3.766 0-.086 2.12.902 4.224 1.962l1.575.787.516.988c.286.53 1.432 2.678 2.548 4.754 1.117 2.076 2.02 3.794 1.99 3.823-.04 0-1.023-1.068-2.19-2.406Zm4.01 3.38c-.144.014-.731-1.017-4.01-7.117L88.248 49.7h5.927c3.265 0 5.928.028 5.928.043 0 .186-5.827 10.595-5.942 10.61Zm6.657-1.733c.902.873 3.594 3.522 5.971 5.87 2.391 2.334 4.339 4.325 4.339 4.41 0 .301-1.203 1.576-1.447 1.533-.272-.043-1.918-1.618-8.104-7.747-3.35-3.336-3.866-3.894-3.723-4.109.1-.129.43-.53.745-.902l.558-.673 1.661 1.618Zm5.198-11.183c-.115.2-8.42 10.038-9.45 11.212-.587.672-.616.687-.387.214.2-.43 1.117-2.105 3.107-5.727.23-.43.673-1.231.974-1.761.315-.544.558-1.031.558-1.088 0-.258.716-.716 2.835-1.819 2.349-1.231 2.549-1.317 2.363-1.03Zm-4.84 1.26c-.129 0-1.374-3.594-1.417-4.095 0-.129.63-.587 1.56-1.131.874-.501 1.59-.916 1.618-.916.015-.015.53.329 1.146.758.601.43 1.518 1.06 2.033 1.418.516.344.931.716.931.816 0 .158-5.556 3.136-5.871 3.15Zm8.004-7.159c-.258 0-2.778-2.434-2.778-2.692 0-.3 2.563-2.892 2.864-2.892.115 0 .788.558 1.475 1.26.687.687 1.246 1.346 1.246 1.46 0 .244-2.563 2.864-2.807 2.864Zm7.918 7.546c-.028.014-.601-.716-1.274-1.647a77.46 77.46 0 0 0-2.678-3.336c-.801-.916-1.446-1.718-1.446-1.79 0-.143 1.16-1.346 1.303-1.346.058 0 .33.301.587.688.888 1.23 2.091 3.393 2.606 4.667.53 1.318.974 2.678.902 2.764Z" fill="#000"/><path d="M83.585 64.332c-1.532-1.518-2.835-2.749-2.893-2.749-.071.014-.357.186-.63.4-.272.23-1.388 1.103-2.477 1.948l-1.976 1.547 1.905 2.019a381.341 381.341 0 0 0 3.336 3.508l1.432 1.489 2.047-2.592c1.117-1.418 2.034-2.635 2.034-2.706 0-.072-1.246-1.36-2.778-2.864Zm-1.647 4.697c-.2 0-3.05-2.993-3.007-3.136.029-.086.416-.444.845-.802.43-.344.816-.63.86-.644.114 0 2.72 2.634 2.72 2.763 0 .158-1.303 1.819-1.418 1.819Z" fill="#EAEAEA"/><path d="M106.013 47.436c-.115.2-8.42 10.037-9.45 11.212-.587.672-.616.687-.387.214.2-.43 1.117-2.105 3.107-5.727.23-.43.673-1.231.974-1.761.315-.544.558-1.031.558-1.088 0-.258.716-.716 2.835-1.819 2.349-1.231 2.549-1.317 2.363-1.03ZM92.342 59.377c-.042 0-1.024-1.068-2.191-2.405-1.188-1.346-3.608-4.11-5.398-6.143-1.804-2.033-3.265-3.723-3.265-3.766 0-.086 2.12.902 4.224 1.962l1.575.788.516.987c.286.53 1.432 2.678 2.548 4.754 1.117 2.076 2.02 3.795 1.99 3.823ZM88.26 45.216c-.158.53-.43 1.49-.616 2.12-.172.63-.372 1.202-.43 1.26-.157.186-6.6-3.079-6.558-3.322.043-.215 4.067-3.022 4.325-3.022.086 0 .873.401 1.732.874.874.472 1.633.93 1.704.988.072.071 0 .544-.157 1.102ZM107.042 45.547c0 .157-5.556 3.135-5.871 3.15-.128 0-1.374-3.594-1.417-4.095 0-.13.63-.587 1.561-1.131.873-.502 1.589-.917 1.618-.917.014-.014.529.33 1.145.759.601.43 1.518 1.06 2.033 1.418.516.343.931.715.931.816ZM102.106 41.966c0 .057-.659.458-1.461.916l-1.46.817-2.535.143c-2.004.1-3.035.086-4.94-.086l-2.39-.215-1.705-.888c-.93-.487-1.69-.93-1.69-.973 0-.058.66-.401 1.476-.774l1.46-.673 5.083.058 5.083.043 1.547.773c.844.43 1.532.816 1.532.859ZM100.1 48.682c0 .172-.902.186-5.885.129-3.222-.043-5.9-.115-5.942-.143-.029-.043 0-.258.071-.487.158-.487.645-2.305.874-3.179.086-.33.171-.601.2-.601.029 0 .945.1 2.048.229 1.317.143 2.878.2 4.682.172l2.72-.043.602 1.861c.343 1.017.615 1.948.63 2.062ZM100.11 49.742c0 .186-5.828 10.595-5.943 10.61-.143.014-.73-1.017-4.009-7.117L88.254 49.7h5.928c3.264 0 5.928.028 5.928.043Z" fill="#A2FFFF"/><path d="M83.35 67.21c0 .157-1.302 1.818-1.417 1.818-.2 0-3.05-2.992-3.007-3.136.029-.085.415-.443.845-.801.43-.344.816-.63.86-.645.114 0 2.72 2.635 2.72 2.764Z" fill="#000"/><path d="M124.582 48.753c0 15.564 0 15.721.773 17.683.201.501.573 1.217.816 1.604.602.945 2.205 2.405 3.236 2.964 1.948 1.03 5.083 1.746 7.689 1.746h1.232V64.59h-.401c-.544 0-1.604-.558-1.947-1.045-.301-.401-.301-.53-.344-14.791l-.029-14.376h-11.025v14.376ZM154.764 48.653l-.043 14.29-.315.5c-.172.273-.53.63-.788.788-.443.272-.773.286-6.514.33l-6.057.042v8.147h6.629c6.802 0 8.248-.085 10.123-.587 3.952-1.045 6.358-3.107 7.36-6.285.616-1.92.659-3.25.659-17.77V34.377h-11.025l-.029 14.276ZM181.576 34.592c-5.297.73-8.433 3.064-9.622 7.159l-.329 1.145v21.478l.329 1.074c1.074 3.38 3.122 5.37 6.701 6.486 2.349.745 3.48.816 12.214.816h8.033V64.59h-7.203c-7.187 0-7.202 0-7.832-.33-.859-.429-1.245-1.045-1.36-2.147-.043-.487-.072-4.697-.043-9.336.043-9.12.029-8.863.802-9.565.73-.672.573-.658 15.392-.672h13.989v-8.162l-14.848.014c-11.34.015-15.192.058-16.223.2ZM218.371 53.564V72.75h11.025V34.377h-11.025v19.187Z" fill="#fff"/><path d="M188.264 51.26c.143.229 1.36 2.061 2.692 4.066l2.434 3.665 4.153.043 4.152.043.043 6.83.029 6.844h10.882V50.844h-24.657l.272.416Z" fill="#fff"/></g><defs><clipPath id="a"><path fill="#fff" transform="translate(66.602 28.958)" d="M0 0h162.794v46.084H0z"/></clipPath></defs></svg>