<svg width="25" height="24" fill="none" xmlns="http://www.w3.org/2000/svg"><g clip-path="url(#a)"><path d="M15.329 6.302c-.738-.034-.96-.04-2.829-.04-1.869 0-2.09.007-2.828.04-1.899.087-2.783.986-2.87 2.87-.033.738-.041.959-.041 2.828 0 1.869.008 2.09.041 2.829.087 1.879.967 2.783 2.87 2.87.737.033.959.041 2.828.041 1.87 0 2.091-.007 2.829-.041 1.899-.086 2.782-.988 2.87-2.87.033-.738.04-.96.04-2.829 0-1.869-.007-2.09-.04-2.828-.088-1.883-.973-2.783-2.87-2.87ZM12.5 15.595a3.595 3.595 0 1 1 0-7.19 3.595 3.595 0 0 1 0 7.19Zm3.737-6.491a.84.84 0 1 1 0-1.68.84.84 0 0 1 0 1.68ZM14.833 12a2.333 2.333 0 1 1-4.666 0 2.333 2.333 0 0 1 4.666 0ZM12.5 0C5.873 0 .5 5.373.5 12s5.373 12 12 12 12-5.373 12-12-5.373-12-12-12Zm6.958 14.886c-.115 2.545-1.532 3.955-4.071 4.072-.747.034-.986.042-2.887.042s-2.139-.008-2.886-.042c-2.544-.117-3.955-1.529-4.072-4.072C5.508 14.14 5.5 13.901 5.5 12c0-1.901.008-2.139.042-2.886.117-2.544 1.529-3.955 4.072-4.071.747-.035.985-.043 2.886-.043 1.901 0 2.14.008 2.887.043 2.545.117 3.957 1.532 4.071 4.071.034.747.042.985.042 2.886 0 1.901-.008 2.14-.042 2.886Z" fill="#D2D2D2"/></g><defs><clipPath id="a"><path fill="#fff" transform="translate(.5)" d="M0 0h24v24H0z"/></clipPath></defs></svg>