<svg width="25" height="24" fill="none" xmlns="http://www.w3.org/2000/svg"><g clip-path="url(#a)"><path d="M12.5 0C5.873 0 .5 5.373.5 12s5.373 12 12 12 12-5.373 12-12-5.373-12-12-12Zm6.066 9.645c.183 4.04-2.83 8.544-8.164 8.544A8.127 8.127 0 0 1 6 16.898a5.778 5.778 0 0 0 4.252-1.189 2.879 2.879 0 0 1-2.684-1.995 2.88 2.88 0 0 0 1.298-.049c-1.381-.278-2.335-1.522-2.304-2.853.388.215.83.344 1.301.359a2.877 2.877 0 0 1-.889-3.835 8.153 8.153 0 0 0 5.92 3.001 2.876 2.876 0 0 1 4.895-2.62 5.73 5.73 0 0 0 1.824-.697 2.884 2.884 0 0 1-1.263 1.589 5.73 5.73 0 0 0 1.649-.453 5.765 5.765 0 0 1-1.433 1.489Z" fill="#D2D2D2"/></g><defs><clipPath id="a"><path fill="#fff" transform="translate(.5)" d="M0 0h24v24H0z"/></clipPath></defs></svg>