<svg width="145" height="30" viewBox="0 0 145 30" fill="none" xmlns="http://www.w3.org/2000/svg">
<g clip-path="url(#clip0_877_1200)">
<path fill-rule="evenodd" clip-rule="evenodd" d="M27.3038 0.242561C27.1209 0.19938 26.941 0.144376 26.7653 0.0778951H25.7271C24.7115 0.335597 23.9112 0.952271 23.0953 1.58129L23.0089 1.64798C22.3717 2.16369 21.5763 2.44396 20.7566 2.44157C19.9369 2.43917 19.1431 2.15424 18.509 1.63481C17.7461 0.93129 16.841 0.39991 15.855 0.0766602H14.8295C13.7398 0.331892 12.8947 0.982323 12.0347 1.64798C11.3897 2.16738 10.5842 2.44628 9.75617 2.43689C8.92813 2.4275 8.12913 2.13041 7.49611 1.59653C6.73656 0.890665 5.82376 0.370434 4.82934 0.0766602H3.80389C3.56018 0.165991 3.30371 0.255323 3.04766 0.344654C2.46805 0.550771 1.9471 0.894432 1.52951 1.34615C1.11192 1.79787 0.810163 2.34416 0.650123 2.93814C0.598665 3.09128 0.534857 3.24442 0.483398 3.39674V4.41849C0.764952 5.43562 1.3088 6.36091 2.06049 7.10172C2.61874 7.72884 2.92929 8.53794 2.93399 9.37753C2.93868 10.2171 2.63721 11.0296 2.08601 11.663C1.34878 12.4219 0.803677 13.3461 0.49616 14.3585V15.3803C0.801587 16.3936 1.34696 17.3183 2.08601 18.0759C2.62727 18.7017 2.9262 19.5008 2.92854 20.3282C2.93088 21.1556 2.63648 21.9564 2.09877 22.5853C1.3449 23.3581 0.794285 24.3057 0.49616 25.3434V26.3676C0.598665 26.6101 0.688408 26.8657 0.77815 27.121C0.983412 27.7008 1.32629 28.2223 1.77736 28.6405C2.22843 29.0587 2.77423 29.3613 3.36793 29.5222C3.52107 29.5733 3.67462 29.6367 3.82776 29.6869H4.85692C5.8725 29.3832 6.80023 28.8399 7.56197 28.1028C8.19769 27.5516 9.01145 27.2493 9.85281 27.2516C10.6942 27.254 11.5062 27.5609 12.1389 28.1156C12.9058 28.8492 13.8375 29.388 14.8559 29.6869H15.8797C15.9846 29.6519 16.09 29.6115 16.1966 29.5708C16.3234 29.5222 16.4523 29.4732 16.5848 29.4312C17.4308 29.1445 18.1493 28.5697 18.6148 27.8074C19.0803 27.045 19.2634 26.1434 19.1322 25.2598C19.0009 24.3763 18.5635 23.5668 17.8964 22.9728C17.2293 22.3787 16.3748 22.0377 15.482 22.0093C14.9576 21.9849 14.4337 22.0675 13.9421 22.252C13.4506 22.4365 13.0018 22.7191 12.623 23.0825C11.5333 24.0915 10.2765 24.5645 8.80273 24.1426C8.15077 23.9688 7.55508 23.6288 7.07396 23.1557C6.59283 22.6827 6.24273 22.0929 6.05793 21.444C5.87313 20.795 5.85995 20.1093 6.01968 19.4537C6.17941 18.7982 6.50658 18.1953 6.96918 17.7041C7.4095 17.2689 7.74464 16.7388 7.94903 16.1544C8.15343 15.57 8.22168 14.9466 8.1486 14.3318C8.03992 13.3561 7.464 12.644 6.88273 11.9211L6.77693 11.7902C4.64862 9.14563 6.6489 6.07997 8.94352 5.51763C10.3539 5.17266 11.5333 5.60696 12.5592 6.60361C14.1235 8.11071 16.4819 8.22598 17.9182 6.71846C18.2824 6.31383 18.7277 5.99051 19.2252 5.76958C19.7228 5.54866 20.2613 5.43509 20.8056 5.4363C21.35 5.4375 21.888 5.55345 22.3845 5.77657C22.881 5.99969 23.3249 6.32498 23.6873 6.73122C24.2418 7.2762 24.9539 7.63251 25.7226 7.7495C26.4912 7.86649 27.2771 7.73821 27.9686 7.38289C28.6646 7.03829 29.2398 6.49083 29.6183 5.8127C29.9968 5.13457 30.1609 4.35763 30.0889 3.58435C30.0169 2.81107 29.7122 2.07778 29.215 1.48119C28.7178 0.884597 28.0514 0.452736 27.3038 0.242561M26.3038 24.6164C26.126 24.6065 25.9481 24.6328 25.7807 24.6937C25.6134 24.7545 25.4601 24.8486 25.3302 24.9704C25.2002 25.0921 25.0963 25.2389 25.0247 25.402C24.9531 25.565 24.9153 25.7409 24.9136 25.9189C24.9118 26.097 24.9462 26.2736 25.0146 26.4379C25.0831 26.6023 25.1841 26.7512 25.3117 26.8754C25.4392 26.9996 25.5907 27.0967 25.7568 27.1608C25.923 27.2249 26.1004 27.2546 26.2783 27.2482C26.4561 27.258 26.6341 27.2318 26.8014 27.1709C26.9688 27.1101 27.122 27.016 27.252 26.8942C27.3819 26.7725 27.4859 26.6256 27.5575 26.4626C27.6291 26.2996 27.6669 26.1237 27.6686 25.9457C27.6703 25.7676 27.6359 25.591 27.5675 25.4266C27.4991 25.2622 27.398 25.1134 27.2705 24.9892C27.1429 24.8649 26.9915 24.7679 26.8253 24.7038C26.6592 24.6397 26.4818 24.61 26.3038 24.6164M24.9705 15.1761C24.9664 15.0008 24.9989 14.8265 25.0659 14.6644C25.1329 14.5024 25.2328 14.356 25.3595 14.2346C25.4861 14.1133 25.6366 14.0196 25.8013 13.9596C25.9661 13.8996 26.1416 13.8745 26.3166 13.886C26.6597 13.8916 26.9871 14.0309 27.229 14.2743C27.471 14.5176 27.6084 14.8457 27.6121 15.1889C27.6025 15.5423 27.4573 15.8786 27.2067 16.128C26.956 16.3774 26.6191 16.5209 26.2656 16.5288C25.9145 16.5202 25.5811 16.3729 25.3384 16.119C25.0957 15.8652 24.9634 15.5256 24.9705 15.1745M15.3033 16.6071C15.4778 16.6119 15.6514 16.5812 15.8136 16.5168C15.9758 16.4523 16.1232 16.3555 16.2468 16.2323C16.3704 16.109 16.4675 15.9619 16.5324 15.7998C16.5972 15.6378 16.6284 15.4642 16.624 15.2897C16.6321 15.1145 16.6034 14.9395 16.5398 14.776C16.4762 14.6125 16.3791 14.4641 16.2547 14.3404C16.1303 14.2167 15.9814 14.1205 15.8175 14.0578C15.6537 13.9951 15.4785 13.9674 15.3033 13.9765C14.9617 13.9799 14.6344 14.1141 14.3887 14.3515C14.1431 14.5888 13.9978 14.9114 13.9827 15.2527C13.9812 15.6065 14.1188 15.9468 14.3659 16.2001C14.6129 16.4535 14.9496 16.5996 15.3033 16.6071Z" fill="#F8BF1E"/>
<path d="M43.814 18.3601C46.3194 18.3601 48.1303 17.6764 49.495 16.3841C50.7391 15.2143 51.5002 13.621 51.6282 11.918H47.237C47.039 13.6021 45.7488 14.8227 43.7889 14.8227C41.1592 14.8227 39.522 12.5038 39.522 9.30639C39.522 6.13287 40.8866 3.76539 43.7642 3.76539C45.6496 3.76539 46.8899 4.96127 47.1131 6.52354H51.5043C51.4195 5.58173 51.1396 4.66786 50.6826 3.84001C50.2255 3.01217 49.6013 2.28846 48.8495 1.71489C47.3744 0.666188 45.5984 0.125526 43.7893 0.174436C38.5047 0.174436 35.0566 4.1046 35.0566 9.30392C35.0566 14.5275 38.604 18.3605 43.814 18.3605M59.3914 15.5283C57.6299 15.5283 56.7119 14.015 56.7119 11.7451C56.7119 9.47518 57.6299 7.93679 59.3914 7.93679C61.1529 7.93679 62.0956 9.47477 62.0956 11.7451C62.0956 14.0154 61.1525 15.5283 59.3914 15.5283M59.4161 18.3601C63.5093 18.3601 66.1888 15.504 66.1888 11.7451C66.1888 7.98619 63.508 5.12964 59.4161 5.12964C55.3476 5.12964 52.6187 7.98577 52.6187 11.7451C52.6187 15.5044 55.3476 18.3601 59.4161 18.3601M92.2925 14.3324V4.12889H94.9222C97.6758 4.12889 99.2385 6.17939 99.2385 9.35291C99.2385 12.5503 97.7499 14.3341 94.8724 14.3341L92.2925 14.3324ZM88.2672 17.9695H95.5607C97.7935 17.9695 99.5797 17.408 100.969 16.3829C102.953 14.8939 104.045 12.4285 104.045 9.35291C104.045 4.00703 100.746 0.516117 95.8336 0.516117H88.2672V17.9695ZM111.713 18.3354C113.123 18.3742 114.511 17.9729 115.682 17.1873C116.734 16.5 117.494 15.448 117.816 14.234H113.872C113.693 14.6348 113.394 14.97 113.016 15.1931C112.638 15.4162 112.2 15.5161 111.763 15.4789C110.101 15.4789 109.158 14.4292 108.91 12.745H118.039C118.064 10.2063 117.32 8.03394 115.806 6.6668C114.609 5.61691 113.059 5.05907 111.467 5.10536C107.597 5.10536 104.942 7.96149 104.942 11.6961C104.942 15.4797 107.523 18.3354 111.715 18.3354M108.57 10.378C108.843 8.88897 109.638 7.93679 111.176 7.93679C112.49 7.93679 113.433 8.88897 113.582 10.378H108.57ZM124.803 18.3601C128.127 18.3601 130.583 16.9444 130.583 14.2101C130.583 11.0127 127.954 10.4512 125.721 10.0849C124.108 9.79216 122.67 9.66989 122.67 8.7914C122.67 8.00924 123.439 7.64409 124.431 7.64409C125.548 7.64409 126.317 7.98577 126.465 9.1088H130.187C129.988 6.64334 128.053 5.10536 124.456 5.10536C121.454 5.10536 118.973 6.47249 118.973 9.1088C118.973 12.0378 121.33 12.6236 123.538 12.99C125.226 13.2827 126.763 13.4049 126.763 14.5275C126.763 15.3332 125.994 15.7724 124.779 15.7724C123.439 15.7724 122.597 15.1623 122.446 13.9175H118.626C118.749 16.6756 121.082 18.3601 124.803 18.3601M131.894 17.9695H135.887V14.1373L137.103 12.8677L140.155 17.9695H144.844L139.857 10.1581L144.323 5.47174H139.659L135.888 9.69501V0.514882H131.895L131.894 17.9695Z" fill="white"/>
<path d="M78.2811 17.9699H74.2373V5.47222H78.1325V7.18063H78.207C78.6233 6.52369 79.2039 5.98675 79.8913 5.62288C80.5787 5.259 81.3491 5.08079 82.1264 5.10584C84.9048 5.10584 86.5424 7.05877 86.5424 9.83998V17.9699H82.4986V10.6468C82.4986 9.32952 81.8288 8.42385 80.514 8.42385C79.1744 8.42385 78.2811 9.52259 78.2811 11.0585V17.9699Z" fill="white"/>
<path d="M66.5107 8.26639L66.5153 5.479H72.3663V17.9718H68.5184V8.26639H66.5107Z" fill="white"/>
<path d="M70.1561 0.0625689C70.7374 0.0579642 71.2967 0.284389 71.7111 0.692062C72.1255 1.09974 72.361 1.65529 72.3659 2.23657C72.3548 2.81526 72.117 3.36648 71.7038 3.77179C71.2906 4.1771 70.7349 4.40414 70.1561 4.40414C69.5773 4.40414 69.0216 4.1771 68.6084 3.77179C68.1952 3.36648 67.9575 2.81526 67.9463 2.23657C67.9512 1.65529 68.1867 1.09974 68.6011 0.692062C69.0155 0.284389 69.5748 0.0579642 70.1561 0.0625689" fill="white"/>
<path d="M36.1383 23.4146H35.2886V29.8275H36.1383V23.4146Z" fill="white"/>
<path d="M49.4888 23.4146V28.4496L46.1181 23.4146H45.2466V29.8262H46.0609V24.7879L49.432 29.8262H50.3031V23.4146H49.4888Z" fill="white"/>
<path d="M59.3506 29.8247V23.413H61.5612C61.9443 23.4029 62.3274 23.4337 62.704 23.5048C63.0504 23.5792 63.3734 23.7369 63.6451 23.9642C63.9887 24.2577 64.2504 24.6353 64.4046 25.0601C64.5797 25.5484 64.665 26.0645 64.6561 26.5832C64.6628 27.0209 64.6054 27.4573 64.4857 27.8783C64.3921 28.2117 64.2442 28.5273 64.0477 28.8124C63.8894 29.0397 63.6915 29.2367 63.4635 29.3941C63.2289 29.5453 62.9696 29.6541 62.6974 29.7156C62.3599 29.7926 62.0144 29.8294 61.6683 29.8251L59.3506 29.8247ZM60.1999 29.0676H61.5699C61.906 29.0789 62.2419 29.0391 62.5661 28.9495C62.7817 28.8857 62.9792 28.7718 63.1424 28.6173C63.3606 28.3874 63.5218 28.1094 63.613 27.8059C63.734 27.4057 63.7909 26.9889 63.7817 26.5709C63.813 26.0352 63.6992 25.5011 63.4524 25.0247C63.2719 24.7003 62.9882 24.4456 62.6464 24.301C62.29 24.1962 61.9186 24.1518 61.5476 24.1696H60.1994L60.1999 29.0676Z" fill="white"/>
<path d="M73.1847 26.7018C73.1312 25.7881 73.4394 24.8901 74.0426 24.2018C74.3271 23.9032 74.6717 23.6683 75.0535 23.5126C75.4354 23.3568 75.846 23.2838 76.2582 23.2982C76.8209 23.2903 77.3749 23.4371 77.8599 23.7226C78.3316 24.0008 78.7102 24.4125 78.948 24.9057C79.2044 25.4428 79.3327 26.0322 79.3226 26.6273C79.3329 27.2323 79.1976 27.8309 78.9282 28.3728C78.6845 28.8666 78.2949 29.2735 77.8122 29.5386C77.335 29.8016 76.7984 29.9379 76.2536 29.9346C75.6833 29.9438 75.1219 29.7923 74.6337 29.4974C74.1648 29.2131 73.789 28.7982 73.5523 28.3036C73.3086 27.8052 73.1829 27.2574 73.1847 26.7026M74.0603 26.7158C74.023 27.3826 74.2469 28.0378 74.6844 28.5424C74.888 28.7538 75.1324 28.9219 75.4027 29.0365C75.673 29.1511 75.9637 29.2099 76.2573 29.2092C76.5509 29.2086 76.8413 29.1486 77.1112 29.0329C77.381 28.9172 77.6246 28.7481 77.8274 28.5358C78.2701 28.0008 78.4918 27.317 78.447 26.624C78.4573 26.1545 78.3669 25.6881 78.1819 25.2565C78.0199 24.884 77.75 24.5685 77.4071 24.3508C77.0645 24.1355 76.6669 24.0239 76.2623 24.0293C75.9756 24.0247 75.6909 24.0769 75.4245 24.1828C75.1582 24.2888 74.9154 24.4465 74.7103 24.6468C74.2772 25.0584 74.0606 25.7474 74.0603 26.7138" fill="white"/>
<path d="M88.0308 29.8243V23.4126H88.9018L92.273 28.4481V23.4126H93.0868V29.8243H92.2157L88.845 24.7847V29.8243H88.0308Z" fill="white"/>
<path d="M102.152 29.8243V23.4126H106.793V24.1692H103.002V26.1337H106.552V26.8862H103.002V29.068H106.941V29.8243H102.152Z" fill="white"/>
<path d="M115.447 27.7659L116.248 27.6959C116.272 27.9764 116.363 28.2471 116.513 28.4855C116.676 28.7102 116.9 28.8832 117.158 28.984C117.47 29.1149 117.806 29.1797 118.144 29.1742C118.436 29.1797 118.727 29.1309 119.002 29.0301C119.221 28.9546 119.413 28.817 119.555 28.6341C119.673 28.4754 119.737 28.2828 119.737 28.0849C119.74 27.8945 119.678 27.7086 119.562 27.558C119.407 27.3823 119.208 27.2514 118.985 27.1793C118.61 27.0553 118.229 26.951 117.843 26.8668C117.416 26.7799 117.001 26.6457 116.604 26.4667C116.327 26.3318 116.09 26.1256 115.919 25.8693C115.768 25.6306 115.69 25.3534 115.693 25.0711C115.693 24.7478 115.789 24.4317 115.969 24.163C116.166 23.8717 116.447 23.648 116.775 23.522C117.149 23.3724 117.549 23.2983 117.953 23.3039C118.383 23.2953 118.811 23.3733 119.211 23.5332C119.552 23.6683 119.845 23.904 120.049 24.2091C120.246 24.5103 120.355 24.8602 120.365 25.2197L119.55 25.2811C119.541 25.106 119.497 24.9346 119.421 24.7768C119.345 24.619 119.238 24.478 119.106 24.3622C118.78 24.1332 118.385 24.0236 117.988 24.0518C117.592 24.0193 117.198 24.1185 116.865 24.3338C116.756 24.4115 116.668 24.5135 116.607 24.6317C116.546 24.7499 116.513 24.8808 116.512 25.0139C116.509 25.1213 116.529 25.2282 116.572 25.3267C116.615 25.4253 116.679 25.5132 116.76 25.5841C117.152 25.8216 117.587 25.9772 118.041 26.0414C118.525 26.136 119.001 26.2728 119.461 26.4502C119.792 26.5879 120.078 26.8143 120.288 27.1043C120.468 27.3741 120.561 27.6921 120.556 28.0162C120.555 28.3597 120.453 28.6954 120.262 28.9811C120.055 29.2925 119.763 29.5371 119.419 29.6851C119.031 29.8576 118.609 29.9436 118.184 29.937C117.685 29.9518 117.189 29.8654 116.724 29.683C116.347 29.5266 116.025 29.2608 115.8 28.9198C115.576 28.5767 115.454 28.177 115.448 27.7671" fill="white"/>
<path d="M130.329 23.4126H129.479V29.8259H130.329V23.4126Z" fill="white"/>
<path d="M138.742 29.8245L141.207 23.4111H142.122L144.748 29.8245H143.781L143.032 27.8822H140.349L139.644 29.8245H138.742ZM140.595 27.1898H142.77L142.101 25.4139C141.896 24.8741 141.744 24.4307 141.645 24.0838C141.562 24.5005 141.446 24.9099 141.299 25.3085L140.595 27.1898Z" fill="white"/>
</g>
<defs>
<clipPath id="clip0_877_1200">
<rect width="144.361" height="29.8745" fill="white" transform="translate(0.486328 0.0625)"/>
</clipPath>
</defs>
</svg>
