<svg width="181" height="30" viewBox="0 0 181 30" fill="none" xmlns="http://www.w3.org/2000/svg">
<path d="M13.9091 0.235352H10.4671C7.65906 0.235352 5.03222 1.77522 3.13003 4.6738C1.22783 7.39122 0.231445 11.105 0.231445 15C0.231445 19.0761 1.31841 22.7899 3.31119 25.5979C5.21338 28.3154 7.74964 29.7646 10.3765 29.7646H13.8185C16.3548 29.5835 18.7099 28.0436 20.4309 25.3262C22.3331 22.5182 23.3295 18.895 23.3295 15C23.3295 11.2862 22.3331 7.57239 20.5215 4.85497C18.8911 2.13755 16.4454 0.597674 13.9091 0.235352Z" fill="#875F27"/>
<path d="M19.8826 15.0825C19.8826 11.1875 18.7956 7.92662 17.1651 5.29978C15.9876 3.57875 14.6289 2.22004 12.9984 1.58597V0.861328H10.1904C4.93674 0.861328 0.588867 7.20197 0.588867 14.9919C0.588867 19.068 1.76642 22.6913 3.57803 25.3181C5.29906 27.6732 7.65416 29.2131 10.1904 29.2131H12.9984V28.579C17.0746 26.6768 19.8826 21.4231 19.8826 15.0825Z" fill="#F8B828"/>
<path d="M13.1793 29.3049H10.1902C7.65392 29.3049 5.29882 27.8556 3.48721 25.2288C1.58502 22.5113 0.498047 18.8881 0.498047 14.9026C0.498047 7.02205 4.9365 0.59082 10.2808 0.59082H13.2699V1.22488C14.8098 2.04011 16.2591 3.21766 17.3461 4.93869C19.0671 7.65611 20.0635 11.0982 20.0635 14.812C20.0635 21.0621 17.3461 26.4969 13.3605 28.3991L13.1793 29.3049ZM10.2808 0.953143C5.11766 0.953143 0.86037 7.20321 0.86037 14.9931C0.86037 18.8881 1.94734 22.5113 3.75895 25.1382C5.47998 27.6744 7.83508 29.0332 10.2808 29.0332H12.9982V28.3991H13.0888C14.991 27.4933 16.6214 25.7723 17.8895 23.4172C19.1577 21.0621 19.7917 17.9823 19.7917 14.9931C19.7917 11.3699 18.7953 7.92786 17.1649 5.30102C15.8968 3.57998 14.4475 2.31185 12.9982 1.67779H12.9076V0.953143H10.2808Z" fill="#B28445"/>
<path d="M20.1519 5.2075C18.4309 2.49008 15.9852 0.769043 13.2678 0.769043C7.92356 0.859624 3.57568 7.20027 3.57568 14.8996C3.57568 18.9758 4.75323 22.599 6.56485 25.2258C8.28588 27.5809 10.641 29.1208 13.1772 29.1208C18.4309 29.1208 22.7788 22.7802 22.7788 14.9902C22.6882 11.2764 21.7824 7.83434 20.1519 5.2075ZM13.7207 25.6787C13.5396 25.6787 13.449 25.6787 13.2678 25.6787C11.3656 25.6787 9.64459 24.5012 8.28588 22.7802C6.92717 20.9685 6.02136 18.3417 6.02136 15.4431C6.02136 15.262 6.02136 15.1714 6.02136 14.9902C6.02136 9.19305 9.28227 4.30169 13.1772 4.30169C13.3584 4.30169 13.449 4.30169 13.6301 4.30169C17.3439 4.66401 20.3331 9.28363 20.3331 14.9902C20.3331 15.1714 20.3331 15.262 20.3331 15.4431C20.2425 20.9685 17.3439 25.3164 13.7207 25.6787Z" fill="#F6E245"/>
<path d="M13.1804 29.3054C10.6442 29.3054 8.28906 27.8561 6.47744 25.2293C4.57525 22.5118 3.48828 18.8886 3.48828 14.9031C3.48828 7.02254 7.83615 0.591309 13.1804 0.591309C15.8978 0.591309 18.3435 2.13118 20.1551 5.02976C21.8762 7.74718 22.8725 11.1892 22.8725 14.9031C22.782 22.8742 18.4341 29.3054 13.1804 29.3054ZM13.1804 0.953631C8.01732 0.953631 3.76002 7.2037 3.76002 14.9936C3.76002 18.8886 4.84699 22.5118 6.6586 25.1387C8.37964 27.6749 10.7347 29.0336 13.1804 29.0336C18.3435 29.0336 22.6008 22.7836 22.6008 14.9936C22.6008 11.3704 21.6044 7.92834 19.974 5.3015C18.1624 2.4935 15.8073 0.953631 13.1804 0.953631ZM13.1804 25.8633C11.2782 25.8633 9.46661 24.7764 8.1079 22.8742C6.65861 20.972 5.84338 18.2545 5.84338 15.4465C5.84338 15.2654 5.84338 15.1748 5.84338 14.9936C5.84338 9.01531 9.10428 4.12396 13.271 4.12396C13.4522 4.12396 13.5427 4.12396 13.7239 4.12396C17.6189 4.48628 20.608 9.19647 20.608 14.9936C20.608 15.1748 20.608 15.2654 20.608 15.4465C20.4269 20.972 17.5283 25.501 13.7239 25.7727C13.4522 25.8633 13.3616 25.8633 13.1804 25.8633ZM13.1804 4.48628C9.28545 4.48628 6.11512 9.19647 6.11512 15.0842C6.11512 15.2654 6.11512 15.356 6.11512 15.5371C6.2057 18.3451 7.02093 20.972 8.37964 22.693C9.73835 24.5046 11.4594 25.5916 13.1804 25.5916C13.3616 25.5916 13.4522 25.5916 13.6333 25.5916C17.2565 25.2293 20.0645 20.8814 20.2457 15.5371C20.2457 15.356 20.2457 15.2654 20.2457 15.0842C20.2457 9.5588 17.3471 4.93918 13.6333 4.48628C13.4522 4.48628 13.1804 4.48628 13.1804 4.48628Z" fill="#B28445"/>
<path d="M13.719 4.39697C13.5379 4.39697 13.4473 4.39697 13.2661 4.39697C13.1756 4.39697 12.9944 4.39697 12.9038 4.39697H12.9944C16.7082 4.7593 19.6974 9.37891 19.6974 15.0855C19.6974 15.2667 19.6974 15.3572 19.6974 15.5384C19.5162 21.0638 16.6176 25.4117 12.9944 25.6834H12.9038C12.9944 25.6834 13.1756 25.6834 13.2661 25.6834C13.4473 25.6834 13.5379 25.6834 13.719 25.6834C17.3423 25.3211 20.3314 20.8827 20.422 15.5384C20.422 15.3572 20.422 15.2667 20.422 15.0855C20.422 9.37891 17.4328 4.7593 13.719 4.39697Z" fill="#F8B218"/>
<path d="M13.1753 25.868C13.0847 25.868 12.9036 25.868 12.813 25.868V25.5963H12.9036C16.5268 25.234 19.3348 20.8861 19.516 15.5418C19.516 15.3607 19.516 15.2701 19.516 15.0889C19.516 9.5635 16.6174 4.94388 12.9036 4.49098H12.813V4.21924C13.0847 4.21924 13.3565 4.21924 13.8094 4.21924C17.7043 4.58156 20.6935 9.29176 20.6935 15.0889C20.6935 15.2701 20.6935 15.3607 20.6935 15.5418C20.5123 21.0672 17.6138 25.5963 13.8094 25.868C13.4471 25.868 13.3565 25.868 13.1753 25.868ZM14.6246 4.76272C17.6138 6.21201 19.6971 10.2881 19.6971 15.0889C19.6971 15.2701 19.6971 15.3607 19.6971 15.5418C19.6065 20.1614 17.4326 23.9658 14.6246 25.4151C17.7043 24.4187 20.15 20.4332 20.15 15.5418C20.15 15.3607 20.15 15.2701 20.15 15.0889C20.2406 10.107 17.8855 5.75911 14.6246 4.76272Z" fill="#B28445"/>
<path d="M17.268 0.235352H13.8259C11.0179 0.235352 8.39111 1.77522 6.48891 4.6738C4.58672 7.39122 3.59033 11.105 3.59033 15C3.59033 19.0761 4.6773 22.7899 6.67007 25.5979C8.57227 28.3154 11.1085 29.7646 13.7354 29.7646H17.1774C19.7137 29.5835 22.0688 28.0436 23.7898 25.3262C25.692 22.5182 26.6884 18.895 26.6884 15C26.6884 11.2862 25.692 7.57239 23.8804 4.85497C22.2499 2.13755 19.8949 0.597674 17.268 0.235352Z" fill="#875F27"/>
<path d="M23.2439 15.0825C23.2439 11.1875 22.1569 7.92662 20.5265 5.29978C19.3489 3.57875 17.9902 2.22004 16.3598 1.58597V0.861328H13.5517C8.29807 0.861328 3.9502 7.20197 3.9502 14.9919C3.9502 19.068 5.12774 22.6913 6.93936 25.3181C8.66039 27.6732 11.0155 29.2131 13.5517 29.2131H16.3598V28.579C20.4359 26.6768 23.2439 21.4231 23.2439 15.0825Z" fill="#F8B828"/>
<path d="M16.7223 29.3049H13.7332C11.1969 29.3049 8.84179 27.8556 7.03018 25.2288C5.12798 22.5113 4.04102 18.7975 4.04102 14.9026C4.04102 7.02205 8.38889 0.59082 13.7332 0.59082H16.7223V1.22488C18.2622 2.04011 19.7115 3.21766 20.7984 4.93869C22.5195 7.65611 23.5159 11.0982 23.5159 14.812C23.5159 17.8917 22.8818 20.8809 21.6137 23.3266C20.3455 25.6817 18.7151 27.4933 16.8129 28.3991L16.7223 29.3049ZM13.7332 0.953143C8.57005 0.953143 4.31276 7.20321 4.31276 14.9931C4.31276 18.8881 5.39973 22.5113 7.21134 25.1382C8.93237 27.6744 11.2875 29.0332 13.7332 29.0332H16.4506V28.3991H16.5412C18.4433 27.4933 20.0738 25.7723 21.3419 23.4172C22.6101 21.0621 23.2441 17.9823 23.2441 14.9931C23.2441 11.3699 22.2477 7.92786 20.6173 5.30102C19.3492 3.57998 17.8999 2.31185 16.4506 1.67779H16.36V0.953143H13.7332Z" fill="#B28445"/>
<path d="M23.4398 5.2075C21.7188 2.49008 19.2731 0.769043 16.5557 0.769043C11.302 0.769043 6.9541 7.10969 6.9541 14.8996C6.9541 18.9758 8.13165 22.599 9.94326 25.2258C11.6643 27.5809 14.0194 29.1208 16.5557 29.1208C21.8093 29.1208 26.1572 22.7802 26.1572 14.9902C26.2478 11.2764 25.0702 7.83434 23.4398 5.2075ZM17.0991 25.6787C16.918 25.6787 16.8274 25.6787 16.6462 25.6787C14.744 25.6787 13.023 24.5012 11.6643 22.7802C10.3056 20.9685 9.39978 18.3417 9.39978 15.4431C9.39978 15.262 9.39978 15.1714 9.39978 14.9902C9.39978 9.19305 12.6607 4.30169 16.5557 4.30169C16.7368 4.30169 16.8274 4.30169 17.0086 4.30169C20.7224 4.66401 23.7115 9.28363 23.7115 14.9902C23.7115 15.1714 23.7115 15.262 23.7115 15.4431C23.7115 20.9685 20.7224 25.3164 17.0991 25.6787Z" fill="#F6E245"/>
<path d="M16.5554 29.3054C14.0192 29.3054 11.6641 27.8561 9.85244 25.2293C7.95025 22.5118 6.86328 18.798 6.86328 14.9031C6.86328 7.02254 11.2112 0.591309 16.5554 0.591309C19.2728 0.591309 21.7185 2.13118 23.5301 5.02976C25.2512 7.74718 26.2475 11.1892 26.2475 14.9031C26.2475 22.8742 21.8997 29.3054 16.5554 29.3054ZM16.5554 0.953631C11.3923 0.953631 7.13502 7.2037 7.13502 14.9936C7.13502 18.8886 8.22199 22.5118 10.0336 25.1387C11.7546 27.6749 14.1097 29.0336 16.5554 29.0336C21.7185 29.0336 25.9758 22.7836 25.9758 14.9936C25.9758 11.3704 24.9794 7.92834 23.349 5.3015C21.5374 2.4935 19.1823 0.953631 16.5554 0.953631ZM16.5554 25.8633C14.6532 25.8633 12.8416 24.7764 11.4829 22.8742C10.0336 20.972 9.21838 18.2545 9.21838 15.4465C9.21838 15.2654 9.21838 15.1748 9.21838 14.9936C9.21838 9.01531 12.4793 4.12396 16.646 4.12396C16.8272 4.12396 16.9177 4.12396 17.0989 4.12396C20.9939 4.48628 23.983 9.19647 23.983 14.9936C23.983 15.1748 23.983 15.2654 23.983 15.4465C23.8019 20.972 20.9033 25.501 17.0989 25.7727C17.0083 25.8633 16.7366 25.8633 16.5554 25.8633ZM16.5554 4.48628C12.6604 4.48628 9.49012 9.19647 9.49012 15.0842C9.49012 15.2654 9.49012 15.356 9.49012 15.5371C9.5807 18.3451 10.3959 20.972 11.7546 22.693C13.1133 24.5046 14.8344 25.5916 16.5554 25.5916C16.7366 25.5916 16.8272 25.5916 17.0083 25.5916C20.6315 25.2293 23.4395 20.8814 23.6207 15.5371C23.6207 15.356 23.6207 15.2654 23.6207 15.0842C23.6207 9.5588 20.7221 4.93918 17.0083 4.48628C16.9177 4.48628 16.7366 4.48628 16.5554 4.48628Z" fill="#B28445"/>
<path d="M17.0887 4.39697C16.9075 4.39697 16.8169 4.39697 16.6358 4.39697C16.5452 4.39697 16.364 4.39697 16.2734 4.39697H16.364C20.0778 4.7593 23.067 9.37891 23.067 15.0855C23.067 15.2667 23.067 15.3572 23.067 15.5384C22.8858 21.0638 19.9872 25.4117 16.364 25.6834H16.2734C16.364 25.6834 16.5452 25.6834 16.6358 25.6834C16.8169 25.6834 16.9075 25.6834 17.0887 25.6834C20.7119 25.3211 23.7011 20.8827 23.7916 15.5384C23.7916 15.3572 23.7916 15.2667 23.7916 15.0855C23.7916 9.37891 20.8025 4.7593 17.0887 4.39697Z" fill="#F8B218"/>
<path d="M16.5447 25.868C16.4541 25.868 16.273 25.868 16.1824 25.868V25.5963H16.273C19.8056 25.234 22.7042 20.8861 22.7948 15.5418C22.7948 15.3607 22.7948 15.2701 22.7948 15.0889C22.7948 9.5635 19.8962 4.94388 16.1824 4.49098H16.0918V4.21924C16.3635 4.21924 16.6353 4.21924 17.0882 4.21924C20.9832 4.58156 23.9723 9.29176 23.9723 15.0889C23.9723 15.2701 23.9723 15.3607 23.9723 15.5418C23.7912 21.0672 20.8926 25.5963 17.0882 25.868C16.9976 25.868 16.7259 25.868 16.5447 25.868ZM17.994 4.76272C20.9832 6.21201 23.0665 10.2881 23.0665 15.0889C23.0665 15.2701 23.0665 15.3607 23.0665 15.5418C22.9759 20.1614 20.802 23.9658 17.994 25.4151C21.0737 24.4187 23.5194 20.4332 23.5194 15.5418C23.5194 15.3607 23.5194 15.2701 23.5194 15.0889C23.7006 10.107 21.2549 5.75911 17.994 4.76272Z" fill="#B28445"/>
<path d="M20.4208 0.235352H16.9788C14.1708 0.235352 11.5439 1.77522 9.64174 4.6738C7.73955 7.48181 6.74316 11.105 6.74316 15C6.74316 19.0761 7.83013 22.7899 9.82291 25.5979C11.7251 28.3154 14.2614 29.7646 16.8882 29.7646H20.3303C22.8665 29.5835 25.2216 28.0436 26.9426 25.3262C28.8448 22.5182 29.8412 18.895 29.8412 15C29.8412 11.2862 28.8448 7.57239 27.0332 4.85497C25.4934 2.13755 23.0477 0.597674 20.4208 0.235352Z" fill="#875F27"/>
<path d="M26.508 15.0879C26.508 11.1929 25.4211 7.93199 23.7906 5.30515C22.6131 3.58412 21.2544 2.22541 19.6239 1.59134V0.866699H16.8159C11.5622 0.866699 7.21436 7.20734 7.21436 14.9973C7.21436 19.0734 8.3919 22.6966 10.2035 25.3235C11.9246 27.6786 14.2796 29.2184 16.8159 29.2184H19.7145V28.5844C23.7 26.6822 26.508 21.4285 26.508 15.0879Z" fill="#F8B828"/>
<path d="M19.8957 29.3103H16.9065C14.3702 29.3103 12.0151 27.861 10.2035 25.2341C8.30132 22.5167 7.21436 18.8029 7.21436 14.9079C7.21436 7.02742 11.6528 0.596191 16.9065 0.596191H19.8957V1.23026C21.4355 2.04548 22.8848 3.22303 23.9718 4.94406C25.6928 7.66148 26.6892 11.1036 26.6892 14.8174C26.6892 21.0674 23.9718 26.5023 19.9862 28.4045L19.8957 29.3103ZM16.9971 0.958514C11.834 0.958514 7.57668 7.20858 7.57668 14.9985C7.57668 18.8935 8.66365 22.5167 10.4753 25.1436C12.1963 27.6798 14.5514 29.0385 16.9971 29.0385H19.7145V28.4045H19.8051C21.7073 27.4987 23.3377 25.7776 24.6058 23.4225C25.874 21.0674 26.508 17.9877 26.508 14.9985C26.508 11.3753 25.5117 7.93323 23.8812 5.30639C22.7037 3.58535 21.2544 2.31722 19.7145 1.68316H19.6239V0.958514H16.9971Z" fill="#B28445"/>
<path d="M26.6927 5.21775C24.9717 2.50033 22.526 0.779297 19.8086 0.779297C14.5549 0.779297 10.207 7.11995 10.207 14.9099C10.207 18.986 11.3846 22.6092 13.1962 25.2361C14.9172 27.5912 17.2723 29.1311 19.8086 29.1311C25.0623 29.1311 29.4101 22.7904 29.4101 15.0005C29.4101 11.2867 28.4137 7.84459 26.6927 5.21775ZM20.2615 25.689C20.0803 25.689 19.9897 25.689 19.8086 25.689C17.9064 25.689 16.1854 24.5114 14.8266 22.7904C13.4679 20.9788 12.5621 18.352 12.5621 15.4534C12.5621 15.2722 12.5621 15.1816 12.5621 15.0005C12.5621 9.2033 15.823 4.31194 19.718 4.31194C19.8992 4.31194 19.9897 4.31194 20.1709 4.31194C23.8847 4.67427 26.8739 9.29388 26.8739 15.0005C26.8739 15.1816 26.8739 15.2722 26.8739 15.4534C26.8739 20.9788 23.9753 25.3267 20.2615 25.689Z" fill="#F6E245"/>
<path d="M19.8992 29.3105C17.3629 29.3105 15.0078 27.8612 13.1962 25.2344C11.294 22.517 10.207 18.8031 10.207 14.9082C10.207 7.11824 14.4643 0.687012 19.8992 0.687012C22.6166 0.687012 25.0623 2.22688 26.8739 5.12546C28.5949 7.84288 29.5913 11.2849 29.5913 14.9988C29.5007 22.8793 25.2434 29.3105 19.8992 29.3105ZM19.8992 0.958754C14.7361 0.958754 10.4788 7.20882 10.4788 14.9988C10.4788 18.8937 11.5657 22.517 13.3774 25.1438C15.0984 27.6801 17.4535 29.0388 19.8992 29.0388C25.0623 29.0388 29.3196 22.7887 29.3196 14.9988C29.3196 11.3755 28.3232 7.93347 26.6927 5.30663C24.7905 2.49863 22.3448 0.958754 19.8992 0.958754ZM19.8992 25.8684C17.997 25.8684 16.1854 24.7815 14.8266 22.8793C13.3774 20.9771 12.5621 18.2597 12.5621 15.4517C12.5621 15.2705 12.5621 15.1799 12.5621 14.9988C12.5621 9.02043 15.823 4.12908 19.9897 4.12908C20.1709 4.12908 20.2615 4.12908 20.4426 4.12908C24.3376 4.4914 27.3268 9.20159 27.3268 14.9988C27.3268 15.1799 27.3268 15.2705 27.3268 15.4517C27.1456 20.9771 24.247 25.5061 20.4426 25.7779C20.1709 25.8684 19.8992 25.8684 19.8992 25.8684ZM19.8992 4.4914C16.0042 4.4914 12.8339 9.20159 12.8339 15.0893C12.8339 15.2705 12.8339 15.3611 12.8339 15.5422C12.9245 18.3502 13.7397 20.9771 15.0984 22.6981C16.4571 24.5097 18.1781 25.5967 19.8992 25.5967C20.0803 25.5967 20.1709 25.5967 20.3521 25.5967C23.9753 25.2344 26.7833 20.8865 26.9645 15.5422C26.9645 15.3611 26.9645 15.2705 26.9645 15.0893C26.9645 9.56392 24.0659 4.9443 20.3521 4.4914C20.1709 4.4914 19.8992 4.4914 19.8992 4.4914Z" fill="#B28445"/>
<path d="M20.2649 4.38965C20.0838 4.38965 19.9932 4.38965 19.812 4.38965C19.7214 4.38965 19.5403 4.38965 19.4497 4.38965H19.5403C23.2541 4.75197 26.2433 9.37158 26.2433 15.0782C26.2433 15.2593 26.2433 15.3499 26.2433 15.5311C26.0621 21.0565 23.1635 25.4044 19.5403 25.6761H19.4497C19.5403 25.6761 19.7214 25.6761 19.812 25.6761C19.9932 25.6761 20.0838 25.6761 20.2649 25.6761C23.8882 25.3138 26.8773 20.8753 26.9679 15.5311C26.9679 15.3499 26.9679 15.2593 26.9679 15.0782C27.0585 9.37158 24.0693 4.75197 20.2649 4.38965Z" fill="#F8B218"/>
<path d="M19.9028 25.8607C19.8123 25.8607 19.6311 25.8607 19.5405 25.8607V25.589H19.6311C23.2543 25.2266 26.0623 20.8788 26.2435 15.5345C26.2435 15.3533 26.2435 15.2628 26.2435 15.0816C26.2435 9.55617 23.3449 4.93656 19.6311 4.48366H19.5405V4.21191C19.8123 4.21191 20.084 4.21191 20.5369 4.21191C24.4319 4.57424 27.421 9.28443 27.421 15.0816C27.421 15.2628 27.421 15.3533 27.421 15.5345C27.1493 21.0599 24.2507 25.4984 20.4463 25.8607C20.1746 25.8607 19.9028 25.8607 19.9028 25.8607ZM21.2616 4.7554C24.2507 6.20469 26.3341 10.2808 26.3341 15.0816C26.3341 15.2628 26.3341 15.3533 26.3341 15.5345C26.2435 20.1541 24.0696 23.9585 21.2616 25.4078C24.3413 24.4114 26.787 20.4259 26.787 15.5345C26.787 15.3533 26.787 15.2628 26.787 15.0816C26.8776 10.0997 24.5225 5.75179 21.2616 4.7554Z" fill="#B28445"/>
<path d="M17.7005 18.082V21.5241H16.7041V20.0748L17.7005 18.082Z" fill="#F6E245"/>
<path d="M18.8833 15.8145L19.3362 16.6297V16.7203V21.521H18.3398V16.8108L18.8833 15.8145Z" fill="#F6E245"/>
<path d="M20.8772 16.1729V21.5171H19.8809V18.2562L20.1526 18.075L20.7867 16.6258L20.8772 16.1729Z" fill="#F6E245"/>
<path d="M22.5999 12.9194V21.5246H21.6035V14.9122L22.5999 12.9194Z" fill="#F6E245"/>
<path d="M19.8919 16.5347H19.6202L18.8955 15.0854H19.3484L19.8919 16.5347Z" fill="#875F27"/>
<path d="M16.7024 20.064H16.2495V21.6038H16.7024V20.064Z" fill="#875F27"/>
<path d="M16.7024 20.0743H16.2495L17.2459 18.0815H17.6988L16.7024 20.0743Z" fill="#875F27"/>
<path d="M18.4334 16.8037H17.9805V21.5139H18.4334V16.8037Z" fill="#875F27"/>
<path d="M18.3428 16.8108H17.9805L18.4334 15.8145H18.8863L18.3428 16.8108Z" fill="#875F27"/>
<path d="M20.794 16.6277H20.2505L20.5222 16.1748H20.8846L20.794 16.6277Z" fill="#875F27"/>
<path d="M20.1573 18.0802H19.6138L20.2478 16.6309H20.7913L20.1573 18.0802Z" fill="#875F27"/>
<path d="M19.8855 18.2627H19.6138V18.0815H20.1573L19.8855 18.2627Z" fill="#875F27"/>
<path d="M20.0667 18.2588H19.6138V21.7009H20.0667V18.2588Z" fill="#875F27"/>
<path d="M21.697 14.9062H21.2441V21.5186H21.697V14.9062Z" fill="#875F27"/>
<path d="M21.6065 14.9078H21.2441L22.2405 12.915H22.6029L21.6065 14.9078Z" fill="#875F27"/>
<path d="M23.2498 10.9165H22.7969L22.6157 10.1919H23.0686L23.2498 10.9165Z" fill="#875F27"/>
<path d="M22.3335 8.74905H21.8806L21.6089 8.20557H22.0618L22.3335 8.74905Z" fill="#875F27"/>
<path d="M19.8855 13.5522H19.6138L21.8783 8.75146H22.3312L19.8855 13.5522Z" fill="#875F27"/>
<path d="M19.3487 15.0918H18.8958L18.4429 14.186H18.9864L19.3487 15.0918Z" fill="#875F27"/>
<path d="M18.2561 12.7293H17.8032L18.4373 11.3706H18.9808L18.2561 12.7293Z" fill="#875F27"/>
<path d="M15.9053 17.8088H15.3618L17.8075 12.7363H18.2604L15.9053 17.8088Z" fill="#875F27"/>
<path d="M16.5389 19.0753H16.086L15.3613 17.8071H15.9048L16.5389 19.0753Z" fill="#875F27"/>
<path d="M22.055 8.20605H23.2325V10.9235L23.0514 10.1988L20.6963 15.0902L19.8811 16.5395L19.3376 15.0902L18.9753 14.1844L16.5296 19.0757L15.8955 17.8076L18.2506 12.7351L18.9753 11.3764L19.6093 12.7351L19.8811 13.5503L22.3267 8.74954L22.055 8.20605Z" fill="#F6E245"/>
<path d="M34.4429 15.9269C34.4429 14.2297 34.8218 12.7138 35.5798 11.3792C36.3542 10.028 37.4005 8.98173 38.7187 8.24026C40.0534 7.4823 41.5446 7.10332 43.1923 7.10332C45.1202 7.10332 46.8091 7.59764 48.2591 8.58628C49.7091 9.57492 50.7224 10.9425 51.2991 12.6891H47.3199C46.9244 11.8653 46.3642 11.2474 45.6392 10.8354C44.9307 10.4235 44.1068 10.2175 43.1676 10.2175C42.1625 10.2175 41.2645 10.4565 40.4736 10.9343C39.6991 11.3957 39.0895 12.0547 38.6446 12.9116C38.2162 13.7684 38.002 14.7735 38.002 15.9269C38.002 17.0638 38.2162 18.069 38.6446 18.9423C39.0895 19.7991 39.6991 20.4664 40.4736 20.9442C41.2645 21.4056 42.1625 21.6363 43.1676 21.6363C44.1068 21.6363 44.9307 21.4303 45.6392 21.0184C46.3642 20.59 46.9244 19.9638 47.3199 19.14H51.2991C50.7224 20.9031 49.7091 22.2789 48.2591 23.2675C46.8256 24.2397 45.1366 24.7258 43.1923 24.7258C41.5446 24.7258 40.0534 24.355 38.7187 23.6136C37.4005 22.8556 36.3542 21.8093 35.5798 20.4746C34.8218 19.14 34.4429 17.6241 34.4429 15.9269Z" fill="white"/>
<path d="M60.3347 24.7999C59.0166 24.7999 57.8302 24.5116 56.7756 23.9349C55.7211 23.3417 54.889 22.5096 54.2793 21.4386C53.6862 20.3675 53.3896 19.1317 53.3896 17.7312C53.3896 16.3306 53.6944 15.0948 54.3041 14.0238C54.9302 12.9528 55.7788 12.1289 56.8498 11.5522C57.9208 10.959 59.1154 10.6624 60.4336 10.6624C61.7518 10.6624 62.9464 10.959 64.0174 11.5522C65.0884 12.1289 65.9288 12.9528 66.5384 14.0238C67.1646 15.0948 67.4776 16.3306 67.4776 17.7312C67.4776 19.1317 67.1563 20.3675 66.5137 21.4386C65.8876 22.5096 65.0308 23.3417 63.9433 23.9349C62.8722 24.5116 61.6694 24.7999 60.3347 24.7999ZM60.3347 21.7846C60.9609 21.7846 61.5458 21.6363 62.0896 21.3397C62.6498 21.0266 63.0947 20.5653 63.4242 19.9556C63.7538 19.3459 63.9186 18.6045 63.9186 17.7312C63.9186 16.4295 63.5725 15.4326 62.8805 14.7405C62.2049 14.032 61.3728 13.6778 60.3842 13.6778C59.3955 13.6778 58.5634 14.032 57.8879 14.7405C57.2288 15.4326 56.8992 16.4295 56.8992 17.7312C56.8992 19.0329 57.2205 20.038 57.8631 20.7465C58.5222 21.4386 59.3461 21.7846 60.3347 21.7846Z" fill="white"/>
<path d="M71.7707 9.25361C71.161 9.25361 70.6502 9.06412 70.2383 8.68514C69.8428 8.28969 69.6451 7.80361 69.6451 7.2269C69.6451 6.6502 69.8428 6.17236 70.2383 5.79338C70.6502 5.39792 71.161 5.2002 71.7707 5.2002C72.3803 5.2002 72.8829 5.39792 73.2784 5.79338C73.6903 6.17236 73.8963 6.6502 73.8963 7.2269C73.8963 7.80361 73.6903 8.28969 73.2784 8.68514C72.8829 9.06412 72.3803 9.25361 71.7707 9.25361ZM73.4761 10.8849V24.5775H70.0159V10.8849H73.4761Z" fill="white"/>
<path d="M84.4826 10.6871C86.1138 10.6871 87.432 11.2062 88.4371 12.2442C89.4423 13.2658 89.9448 14.6994 89.9448 16.5448V24.5775H86.4846V17.0144C86.4846 15.9269 86.2127 15.0948 85.669 14.5181C85.1252 13.9249 84.3837 13.6283 83.4445 13.6283C82.4888 13.6283 81.7309 13.9249 81.1707 14.5181C80.6269 15.0948 80.355 15.9269 80.355 17.0144V24.5775H76.8948V10.8849H80.355V12.5903C80.8164 11.9971 81.4013 11.5357 82.1099 11.2062C82.8349 10.8601 83.6258 10.6871 84.4826 10.6871Z" fill="white"/>
<path d="M98.9447 21.3891L102.405 10.8849H106.088L101.021 24.5775H96.8191L91.7771 10.8849H95.4845L98.9447 21.3891Z" fill="white"/>
<path d="M120.76 17.4346C120.76 17.9289 120.727 18.3738 120.661 18.7692H110.651C110.733 19.7579 111.079 20.5323 111.689 21.0925C112.299 21.6528 113.048 21.9329 113.938 21.9329C115.223 21.9329 116.138 21.3809 116.682 20.2769H120.414C120.018 21.5951 119.26 22.6826 118.14 23.5394C117.019 24.3798 115.644 24.7999 114.012 24.7999C112.694 24.7999 111.508 24.5116 110.453 23.9349C109.415 23.3417 108.6 22.5096 108.006 21.4386C107.43 20.3675 107.141 19.1317 107.141 17.7312C107.141 16.3141 107.43 15.0701 108.006 13.9991C108.583 12.928 109.39 12.1042 110.429 11.5275C111.467 10.9508 112.661 10.6624 114.012 10.6624C115.314 10.6624 116.476 10.9425 117.497 11.5028C118.535 12.063 119.335 12.8621 119.895 13.9002C120.471 14.9218 120.76 16.0999 120.76 17.4346ZM117.176 16.4459C117.159 15.5562 116.838 14.8476 116.212 14.3204C115.586 13.7766 114.82 13.5047 113.913 13.5047C113.057 13.5047 112.332 13.7684 111.738 14.2957C111.162 14.8065 110.808 15.5232 110.676 16.4459H117.176Z" fill="white"/>
<path d="M128.525 24.7999C127.405 24.7999 126.4 24.6022 125.51 24.2067C124.62 23.7948 123.912 23.2428 123.384 22.5508C122.874 21.8587 122.593 21.0925 122.544 20.2522H126.029C126.095 20.7795 126.35 21.2161 126.795 21.5621C127.256 21.9082 127.825 22.0812 128.501 22.0812C129.16 22.0812 129.67 21.9494 130.033 21.6857C130.412 21.4221 130.601 21.0843 130.601 20.6724C130.601 20.2275 130.371 19.8979 129.909 19.6837C129.464 19.453 128.748 19.2059 127.759 18.9423C126.737 18.6951 125.897 18.4397 125.238 18.1761C124.595 17.9124 124.035 17.5087 123.557 16.965C123.096 16.4212 122.865 15.688 122.865 14.7653C122.865 14.0073 123.079 13.3153 123.508 12.6891C123.953 12.063 124.579 11.5687 125.386 11.2062C126.21 10.8437 127.174 10.6624 128.278 10.6624C129.909 10.6624 131.211 11.0743 132.183 11.8982C133.155 12.7056 133.691 13.8013 133.79 15.1854H130.478C130.428 14.6417 130.198 14.2133 129.786 13.9002C129.39 13.5707 128.855 13.4059 128.179 13.4059C127.553 13.4059 127.067 13.5212 126.721 13.7519C126.391 13.9826 126.227 14.3039 126.227 14.7158C126.227 15.1772 126.457 15.5315 126.919 15.7786C127.38 16.0093 128.097 16.2482 129.069 16.4954C130.058 16.7425 130.873 16.9979 131.516 17.2616C132.158 17.5252 132.71 17.9371 133.172 18.4974C133.65 19.0411 133.897 19.7661 133.913 20.6724C133.913 21.4633 133.691 22.1718 133.246 22.7979C132.818 23.4241 132.191 23.9184 131.368 24.2809C130.56 24.6269 129.613 24.7999 128.525 24.7999Z" fill="white"/>
<path d="M140.782 13.7272V20.3511C140.782 20.8124 140.889 21.1502 141.104 21.3644C141.334 21.5621 141.713 21.661 142.241 21.661H143.847V24.5775H141.672C138.756 24.5775 137.297 23.1604 137.297 20.3263V13.7272H135.666V10.8849H137.297V7.49878H140.782V10.8849H143.847V13.7272H140.782Z" fill="white"/>
<path d="M145.446 17.6817C145.446 16.2976 145.718 15.0701 146.262 13.9991C146.822 12.928 147.572 12.1042 148.511 11.5275C149.467 10.9508 150.529 10.6624 151.699 10.6624C152.721 10.6624 153.611 10.8684 154.369 11.2803C155.143 11.6922 155.761 12.2113 156.222 12.8374V10.8849H159.707V24.5775H156.222V22.5755C155.777 23.2181 155.16 23.7536 154.369 24.182C153.594 24.594 152.696 24.7999 151.675 24.7999C150.521 24.7999 149.467 24.5033 148.511 23.9102C147.572 23.317 146.822 22.4849 146.262 21.4138C145.718 20.3263 145.446 19.0823 145.446 17.6817ZM156.222 17.7312C156.222 16.8908 156.058 16.1741 155.728 15.5809C155.398 14.9712 154.954 14.5099 154.393 14.1968C153.833 13.8672 153.232 13.7025 152.589 13.7025C151.946 13.7025 151.353 13.859 150.81 14.1721C150.266 14.4851 149.821 14.9465 149.475 15.5562C149.145 16.1494 148.981 16.8579 148.981 17.6817C148.981 18.5056 149.145 19.2306 149.475 19.8567C149.821 20.4664 150.266 20.936 150.81 21.2656C151.37 21.5951 151.963 21.7599 152.589 21.7599C153.232 21.7599 153.833 21.6033 154.393 21.2903C154.954 20.9607 155.398 20.4994 155.728 19.9062C156.058 19.2965 156.222 18.5715 156.222 17.7312Z" fill="white"/>
<path d="M168.327 24.7999C167.206 24.7999 166.201 24.6022 165.311 24.2067C164.421 23.7948 163.713 23.2428 163.186 22.5508C162.675 21.8587 162.395 21.0925 162.345 20.2522H165.83C165.896 20.7795 166.152 21.2161 166.596 21.5621C167.058 21.9082 167.626 22.0812 168.302 22.0812C168.961 22.0812 169.472 21.9494 169.834 21.6857C170.213 21.4221 170.403 21.0843 170.403 20.6724C170.403 20.2275 170.172 19.8979 169.711 19.6837C169.266 19.453 168.549 19.2059 167.56 18.9423C166.539 18.6951 165.698 18.4397 165.039 18.1761C164.397 17.9124 163.837 17.5087 163.359 16.965C162.897 16.4212 162.667 15.688 162.667 14.7653C162.667 14.0073 162.881 13.3153 163.309 12.6891C163.754 12.063 164.38 11.5687 165.188 11.2062C166.012 10.8437 166.975 10.6624 168.079 10.6624C169.711 10.6624 171.012 11.0743 171.985 11.8982C172.957 12.7056 173.492 13.8013 173.591 15.1854H170.279C170.23 14.6417 169.999 14.2133 169.587 13.9002C169.192 13.5707 168.656 13.4059 167.981 13.4059C167.354 13.4059 166.868 13.5212 166.522 13.7519C166.193 13.9826 166.028 14.3039 166.028 14.7158C166.028 15.1772 166.259 15.5315 166.72 15.7786C167.181 16.0093 167.898 16.2482 168.87 16.4954C169.859 16.7425 170.675 16.9979 171.317 17.2616C171.96 17.5252 172.512 17.9371 172.973 18.4974C173.451 19.0411 173.698 19.7661 173.715 20.6724C173.715 21.4633 173.492 22.1718 173.047 22.7979C172.619 23.4241 171.993 23.9184 171.169 24.2809C170.362 24.6269 169.414 24.7999 168.327 24.7999Z" fill="white"/>
<path d="M178.31 9.25361C177.7 9.25361 177.189 9.06412 176.777 8.68514C176.382 8.28969 176.184 7.80361 176.184 7.2269C176.184 6.6502 176.382 6.17236 176.777 5.79338C177.189 5.39792 177.7 5.2002 178.31 5.2002C178.92 5.2002 179.422 5.39792 179.818 5.79338C180.229 6.17236 180.435 6.6502 180.435 7.2269C180.435 7.80361 180.229 8.28969 179.818 8.68514C179.422 9.06412 178.92 9.25361 178.31 9.25361ZM180.015 10.8849V24.5775H176.555V10.8849H180.015Z" fill="white"/>
</svg>
