<svg width="126" height="34" viewBox="0 0 126 34" fill="none" xmlns="http://www.w3.org/2000/svg">
<g clip-path="url(#clip0_738_2104)">
<path d="M63.0753 7.52236V26.5171C63.0753 26.6618 62.9655 26.8066 62.7824 26.8066H60.7682C59.8528 26.8066 58.974 26.3362 58.4611 25.5765L49.3794 11.7193L49.6724 18.6298V26.5534C49.6724 26.6981 49.5625 26.8427 49.3794 26.8427H46.7428C46.5963 26.8427 46.4499 26.7343 46.4499 26.5534V7.52236C46.4499 7.37763 46.5597 7.23291 46.7428 7.23291H48.7202C49.6358 7.23291 50.5146 7.70326 51.0273 8.46306L60.109 22.2839L59.8162 15.3735V7.52236C59.8162 7.37763 59.926 7.23291 60.109 7.23291H62.7457C62.9655 7.23291 63.0753 7.34146 63.0753 7.52236Z" fill="white"/>
<path d="M90.1014 26.7704H87.3183C87.1352 26.7704 86.9887 26.5895 87.062 26.4086L94.4593 7.48618C94.5324 7.34146 94.6789 7.23291 94.8254 7.23291H98.3409C98.524 7.23291 98.6705 7.34146 98.7072 7.48618L106.141 26.4086C106.214 26.5895 106.068 26.7704 105.885 26.7704H103.102C102.992 26.7704 102.882 26.6981 102.845 26.5895L96.8761 11.0319C96.8029 10.8148 96.4367 10.8148 96.3634 11.0319L90.3944 26.5895C90.3212 26.6981 90.2113 26.7704 90.1014 26.7704Z" fill="white"/>
<path d="M125.553 26.3362L119.987 19.3172C123.136 18.7384 124.967 16.6399 124.967 13.4198C124.967 9.72936 122.55 7.23291 118.229 7.23291H110.466C110.246 7.23291 110.063 7.41381 110.063 7.63089C110.063 9.07811 111.235 10.2359 112.699 10.2359H117.936C120.536 10.2359 121.781 11.5384 121.781 13.456C121.781 15.3735 120.573 16.676 117.936 16.676H110.539C110.319 16.676 110.136 16.8569 110.136 17.0739V26.4809C110.136 26.6257 110.246 26.7704 110.429 26.7704H113.066C113.212 26.7704 113.359 26.6618 113.359 26.4809V19.4981H116.398L121.232 25.7212C121.744 26.4086 122.55 26.7704 123.429 26.7704H125.443C125.59 26.7704 125.699 26.5171 125.553 26.3362Z" fill="white"/>
<path d="M81.7526 7.23291H69.485C69.2651 7.23291 69.1186 7.37763 69.1186 7.59471C69.1186 9.04194 70.3272 10.2359 71.792 10.2359H81.7526C81.8991 10.2359 82.0456 10.1274 82.0456 9.94646V7.48618C82.009 7.34146 81.8991 7.23291 81.7526 7.23291ZM81.7526 23.7675H72.5977C72.4512 23.7675 72.3047 23.6589 72.3047 23.478V18.5936C72.3047 18.4489 72.4144 18.3042 72.5977 18.3042H81.0568C81.2033 18.3042 81.3498 18.1956 81.3498 18.0147V15.5544C81.3498 15.4097 81.2399 15.265 81.0568 15.265H69.5215C69.3019 15.265 69.1186 15.4459 69.1186 15.663V26.3362C69.1186 26.5534 69.3019 26.7343 69.5215 26.7343H81.7526C81.8991 26.7343 82.0456 26.6257 82.0456 26.4448V23.9845C82.009 23.8759 81.8991 23.7675 81.7526 23.7675Z" fill="white"/>
<path d="M26.8206 2.38305L19.9361 12.4774C19.4601 13.1649 20.3755 13.997 21.0346 13.4181L27.8093 7.59305C27.9926 7.44833 28.2488 7.55687 28.2488 7.81015V26.0089C28.2488 26.2622 27.9192 26.3708 27.7727 26.1898L7.26557 1.94889C6.60641 1.15292 5.65429 0.71875 4.59232 0.71875H3.85991C1.95567 0.71875 0.381012 2.27451 0.381012 4.19208V29.808C0.381012 31.7254 1.95567 33.2812 3.89653 33.2812C5.105 33.2812 6.24022 32.6661 6.89938 31.617L13.7839 21.5226C14.26 20.8352 13.3445 20.0029 12.6853 20.5819L5.91064 26.3708C5.72752 26.5154 5.47119 26.407 5.47119 26.1536V7.99105C5.47119 7.73778 5.80077 7.62923 5.94725 7.81015L26.4544 32.051C27.1136 32.847 28.1023 33.2812 29.1276 33.2812H29.8601C31.801 33.2812 33.3756 31.7254 33.3756 29.808V4.19208C33.339 2.27451 31.7643 0.71875 29.8235 0.71875C28.615 0.71875 27.4797 1.33382 26.8206 2.38305Z" fill="white"/>
</g>
<defs>
<clipPath id="clip0_738_2104">
<rect width="125.24" height="32.5625" fill="white" transform="translate(0.37981 0.71875)"/>
</clipPath>
</defs>
</svg>
