<svg width="177" height="26" viewBox="0 0 177 26" fill="none" xmlns="http://www.w3.org/2000/svg">
<path d="M29.7522 20.4273L24.9042 25.5236C24.7994 25.6343 24.6724 25.7227 24.5312 25.7831C24.39 25.8436 24.2375 25.8749 24.0835 25.875H1.10206C0.992454 25.8749 0.88524 25.8436 0.79355 25.7847C0.701862 25.7258 0.629679 25.642 0.585836 25.5435C0.541994 25.445 0.528397 25.3361 0.54671 25.2302C0.565024 25.1242 0.614451 25.0258 0.688943 24.9469L5.53145 19.8506C5.63632 19.7399 5.76329 19.6516 5.90452 19.5911C6.04572 19.5307 6.19813 19.4994 6.35222 19.4992H29.3336C29.4441 19.497 29.553 19.5269 29.6463 19.5851C29.7396 19.6434 29.8135 19.7274 29.8581 19.8266C29.903 19.9258 29.9166 20.0358 29.8978 20.1427C29.8789 20.2496 29.8283 20.3486 29.7522 20.4273ZM24.9042 10.1622C24.799 10.052 24.6719 9.96403 24.5308 9.9036C24.3897 9.84319 24.2374 9.81163 24.0835 9.81085H1.10206C0.992454 9.8109 0.88524 9.84228 0.79355 9.90119C0.701862 9.96006 0.629679 10.0439 0.585836 10.1424C0.541994 10.2409 0.528397 10.3497 0.54671 10.4557C0.565024 10.5616 0.614451 10.6601 0.688943 10.7389L5.53145 15.8379C5.6367 15.9481 5.76378 16.0361 5.9049 16.0965C6.04602 16.1569 6.19824 16.1885 6.35222 16.1893H29.3336C29.4431 16.1887 29.5498 16.1569 29.6411 16.0979C29.7325 16.0388 29.8042 15.9549 29.8477 15.8565C29.8912 15.7582 29.9046 15.6495 29.886 15.5438C29.8677 15.4381 29.8184 15.3399 29.744 15.2612L24.9042 10.1622ZM1.10206 6.50089H24.0835C24.2375 6.50075 24.39 6.46945 24.5312 6.40899C24.6724 6.34856 24.7994 6.2602 24.9042 6.14951L29.7522 1.05319C29.8283 0.974467 29.8789 0.875435 29.8978 0.768548C29.9166 0.661662 29.903 0.551697 29.8581 0.45249C29.8135 0.353283 29.7396 0.269268 29.6463 0.211016C29.553 0.152764 29.4441 0.122878 29.3336 0.125117H6.35222C6.19813 0.125276 6.04572 0.156558 5.90452 0.217013C5.76329 0.277468 5.63632 0.365798 5.53145 0.476496L0.688943 5.57282C0.614451 5.65165 0.565024 5.75009 0.54671 5.85604C0.528397 5.96199 0.541994 6.07086 0.585836 6.16936C0.629679 6.26785 0.701862 6.35167 0.79355 6.41055C0.88524 6.46945 0.992454 6.50083 1.10206 6.50089Z" fill="url(#paint0_linear_738_2111)"/>
<path d="M57.7687 11.0157H45.4737V7.04588H60.9643V3.07611H45.4327C44.9019 3.07329 44.3761 3.17296 43.8847 3.36944C43.3933 3.56595 42.946 3.85539 42.569 4.22128C42.1917 4.58717 41.8916 5.02234 41.6859 5.50191C41.4801 5.9815 41.3726 6.49612 41.3699 7.01638V11.0398C41.3721 11.5605 41.4788 12.0757 41.6842 12.5559C41.8897 13.0361 42.1895 13.4719 42.5668 13.8384C42.9444 14.2048 43.3917 14.4948 43.8833 14.6916C44.375 14.8884 44.9016 14.9882 45.4327 14.9854H57.7441V18.9552H41.6626V22.925H57.7687C58.2995 22.9278 58.8253 22.8281 59.3167 22.6316C59.8081 22.4351 60.2551 22.1457 60.6324 21.7798C61.0097 21.4139 61.3098 20.9788 61.5155 20.4992C61.7213 20.0196 61.8288 19.505 61.8315 18.9847V14.9613C61.8293 14.4406 61.7226 13.9254 61.5172 13.4452C61.3117 12.965 61.0119 12.5292 60.6346 12.1627C60.257 11.7963 59.8097 11.5064 59.3181 11.3095C58.8264 11.1127 58.2998 11.0128 57.7687 11.0157Z" fill="white"/>
<path d="M81.5882 3.07618H69.2466C68.7151 3.07194 68.1879 3.17057 67.6951 3.36643C67.2027 3.56229 66.7543 3.85149 66.3759 4.21754C65.9972 4.58357 65.6963 5.0192 65.49 5.49949C65.2834 5.97978 65.1756 6.49528 65.1729 7.01645V18.9848C65.1756 19.506 65.2834 20.0215 65.49 20.5018C65.6963 20.982 65.9972 21.4177 66.3759 21.7837C66.7543 22.1497 67.2027 22.4389 67.6951 22.6348C68.1879 22.8307 68.7151 22.9293 69.2466 22.9251H81.5882C82.119 22.9279 82.6448 22.8282 83.1362 22.6317C83.6275 22.4352 84.0748 22.1458 84.4518 21.7799C84.8291 21.414 85.1293 20.9788 85.335 20.4993C85.5407 20.0197 85.6482 19.505 85.651 18.9848V7.01645C85.6482 6.4962 85.5407 5.98157 85.335 5.50198C85.1293 5.02242 84.8291 4.58724 84.4518 4.22135C84.0748 3.85546 83.6275 3.56602 83.1362 3.36952C82.6448 3.17304 82.119 3.07336 81.5882 3.07618ZM81.5581 18.9553H69.2767V7.04596H81.5526L81.5581 18.9553Z" fill="white"/>
<path d="M124.815 3.07634H112.777C112.247 3.07353 111.721 3.1732 111.23 3.36968C110.738 3.56618 110.291 3.85563 109.914 4.22152C109.537 4.58741 109.236 5.02258 109.031 5.50214C108.825 5.98174 108.717 6.49636 108.715 7.01661V22.9252H112.819V16.4046H124.802V22.9252H128.906V7.01661C128.903 6.49408 128.794 5.97726 128.587 5.49589C128.379 5.01456 128.077 4.57821 127.697 4.21194C127.317 3.8457 126.866 3.55682 126.372 3.36193C125.877 3.16703 125.348 3.06999 124.815 3.07634ZM124.785 12.4348H112.802V7.04612H124.785V12.4348Z" fill="white"/>
<path d="M172.732 3.07611H160.694C160.163 3.07329 159.637 3.17296 159.146 3.36944C158.655 3.56595 158.208 3.85539 157.83 4.22128C157.453 4.58717 157.153 5.02234 156.947 5.50191C156.741 5.9815 156.634 6.49612 156.631 7.01638V22.925H160.735V16.4044H172.691V22.925H176.795V7.01638C176.792 6.49612 176.684 5.9815 176.479 5.50191C176.273 5.02234 175.973 4.58717 175.595 4.22128C175.218 3.85539 174.771 3.56595 174.28 3.36944C173.788 3.17296 173.263 3.07329 172.732 3.07611ZM172.691 12.4346H160.708V7.04588H172.691V12.4346Z" fill="white"/>
<path d="M148.894 18.9552H147.253L141.384 4.7391C141.183 4.24864 140.837 3.8283 140.39 3.53202C139.944 3.23571 139.417 3.07694 138.878 3.07608H135.237C134.883 3.07431 134.532 3.14091 134.204 3.27205C133.877 3.40321 133.579 3.59634 133.327 3.84043C133.075 4.08454 132.875 4.37479 132.738 4.69468C132.601 5.01454 132.53 5.35777 132.528 5.70472V22.925H136.632V7.04586H138.273L144.139 21.2619C144.343 21.7515 144.692 22.1701 145.141 22.4644C145.589 22.7587 146.117 22.9153 146.656 22.9142H150.298C150.652 22.916 151.002 22.8494 151.33 22.7183C151.658 22.5871 151.956 22.394 152.207 22.1499C152.459 21.9058 152.659 21.6155 152.796 21.2957C152.933 20.9758 153.004 20.6326 153.006 20.2856V3.07608H148.894V18.9552Z" fill="white"/>
<path d="M93.3833 3.07605H89.2794V18.9847C89.2822 19.5061 89.3903 20.0218 89.5968 20.5022C89.8034 20.9827 90.1046 21.4185 90.4832 21.7845C90.8619 22.1506 91.3108 22.4398 91.8036 22.6355C92.2966 22.8312 92.8241 22.9295 93.3559 22.9249H105.667V18.9552H93.3833V3.07605Z" fill="white"/>
<defs>
<linearGradient id="paint0_linear_738_2111" x1="3.01718" y1="26.4893" x2="26.5825" y2="-0.608756" gradientUnits="userSpaceOnUse">
<stop offset="0.08" stop-color="#9945FF"/>
<stop offset="0.3" stop-color="#8752F3"/>
<stop offset="0.5" stop-color="#5497D5"/>
<stop offset="0.6" stop-color="#43B4CA"/>
<stop offset="0.72" stop-color="#28E0B9"/>
<stop offset="0.97" stop-color="#19FB9B"/>
</linearGradient>
</defs>
</svg>
