<svg width="297" height="104" viewBox="0 0 297 104" fill="none" xmlns="http://www.w3.org/2000/svg">
<path d="M59.5154 34.8086H55.5076C52.2382 34.8086 49.1796 36.6015 46.9648 39.9765C44.75 43.1405 43.5898 47.4647 43.5898 51.9998C43.5898 56.7458 44.8555 61.0699 47.1757 64.3394C49.3905 67.5034 52.3436 69.1909 55.4022 69.1909H59.4099C62.363 68.98 65.1052 67.187 67.109 64.023C69.3239 60.7535 70.484 56.5348 70.484 51.9998C70.484 47.6756 69.3239 43.3514 67.2145 40.1874C65.3161 37.0234 62.4685 35.2305 59.5154 34.8086Z" fill="#875F27"/>
<path d="M66.4723 52.0955C66.4723 47.5604 65.2067 43.7636 63.3083 40.705C61.9372 38.7011 60.3552 37.1191 58.4568 36.3808V35.5371H55.1873C49.0702 35.5371 44.0078 42.9198 44.0078 51.99C44.0078 56.736 45.3789 60.9547 47.4882 64.0133C49.4921 66.7554 52.2343 68.5484 55.1873 68.5484H58.4568V67.8101C63.2029 65.5953 66.4723 59.4782 66.4723 52.0955Z" fill="#F8B828"/>
<path d="M58.6678 68.6553H55.1873C52.2343 68.6553 49.4921 66.9678 47.3828 63.9093C45.168 60.7452 43.9023 56.5266 43.9023 51.886C43.9023 42.7103 49.0702 35.2222 55.2928 35.2222H58.7732V35.9604C60.5662 36.9096 62.2537 38.2807 63.5193 40.2846C65.5231 43.4486 66.6833 47.4564 66.6833 51.7805C66.6833 59.0578 63.5193 65.3858 58.8787 67.6006L58.6678 68.6553ZM55.2928 35.644C49.2812 35.644 44.3242 42.9213 44.3242 51.9915C44.3242 56.5266 45.5898 60.7452 47.6992 63.8038C49.703 66.7569 52.4452 68.3389 55.2928 68.3389H58.4568V67.6006H58.5623C60.7771 66.5459 62.6755 64.5421 64.1521 61.7999C65.6286 59.0578 66.3669 55.4719 66.3669 51.9915C66.3669 47.7728 65.2067 43.765 63.3083 40.7065C61.8318 38.7026 60.1443 37.226 58.4568 36.4878H58.3514V35.644H55.2928Z" fill="#B28445"/>
<path d="M66.7771 40.5976C64.7732 37.4336 61.9256 35.4297 58.7616 35.4297C52.539 35.5352 47.4766 42.9179 47.4766 51.8826C47.4766 56.6286 48.8476 60.8473 50.957 63.9059C52.9609 66.648 55.703 68.441 58.6561 68.441C64.7732 68.441 69.8356 61.0582 69.8356 51.9881C69.7302 47.6639 68.6755 43.6561 66.7771 40.5976ZM59.2889 64.4332C59.078 64.4332 58.9725 64.4332 58.7616 64.4332C56.5467 64.4332 54.5429 63.0621 52.9609 61.0582C51.3789 58.9489 50.3242 55.8903 50.3242 52.5154C50.3242 52.3045 50.3242 52.199 50.3242 51.9881C50.3242 45.2381 54.121 39.5429 58.6561 39.5429C58.867 39.5429 58.9725 39.5429 59.1834 39.5429C63.5076 39.9648 66.988 45.3436 66.988 51.9881C66.988 52.199 66.988 52.3045 66.988 52.5154C66.8825 58.9489 63.5076 64.0113 59.2889 64.4332Z" fill="#F6E245"/>
<path d="M58.66 68.6558C55.7069 68.6558 52.9648 66.9683 50.8554 63.9098C48.6406 60.7457 47.375 56.527 47.375 51.8865C47.375 42.7108 52.4374 35.2227 58.66 35.2227C61.824 35.2227 64.6716 37.0156 66.781 40.3906C68.7849 43.5546 69.945 47.5623 69.945 51.8865C69.8395 61.1676 64.7771 68.6558 58.66 68.6558ZM58.66 35.6445C52.6484 35.6445 47.6914 42.9218 47.6914 51.992C47.6914 56.527 48.957 60.7457 51.0664 63.8043C53.0702 66.7574 55.8124 68.3394 58.66 68.3394C64.6716 68.3394 69.6286 61.0621 69.6286 51.992C69.6286 47.7733 68.4685 43.7655 66.57 40.707C64.4607 37.4375 61.7185 35.6445 58.66 35.6445ZM58.66 64.648C56.4452 64.648 54.3358 63.3824 52.7538 61.1676C51.0664 58.9528 50.1171 55.7888 50.1171 52.5193C50.1171 52.3084 50.1171 52.2029 50.1171 51.992C50.1171 45.0311 53.914 39.3359 58.7655 39.3359C58.9764 39.3359 59.0819 39.3359 59.2928 39.3359C63.8279 39.7577 67.3083 45.242 67.3083 51.992C67.3083 52.2029 67.3083 52.3084 67.3083 52.5193C67.0974 58.9528 63.7224 64.2262 59.2928 64.5426C58.9764 64.648 58.8709 64.648 58.66 64.648ZM58.66 39.7577C54.1249 39.7577 50.4336 45.242 50.4336 52.0974C50.4336 52.3084 50.4336 52.4138 50.4336 52.6248C50.539 55.8942 51.4882 58.9528 53.0702 60.9567C54.6522 63.066 56.6561 64.3316 58.66 64.3316C58.8709 64.3316 58.9764 64.3316 59.1873 64.3316C63.406 63.9098 66.6755 58.8473 66.8864 52.6248C66.8864 52.4138 66.8864 52.3084 66.8864 52.0974C66.8864 45.6639 63.5115 40.2851 59.1873 39.7577C58.9764 39.7577 58.66 39.7577 58.66 39.7577Z" fill="#B28445"/>
<path d="M59.293 39.6538C59.082 39.6538 58.9766 39.6538 58.7656 39.6538C58.6602 39.6538 58.4492 39.6538 58.3438 39.6538H58.4492C62.7734 40.0757 66.2538 45.4545 66.2538 52.0989C66.2538 52.3099 66.2538 52.4153 66.2538 52.6263C66.0429 59.0598 62.6679 64.1222 58.4492 64.4386H58.3438C58.4492 64.4386 58.6602 64.4386 58.7656 64.4386C58.9766 64.4386 59.082 64.4386 59.293 64.4386C63.5116 64.0167 66.9921 58.8488 67.0975 52.6263C67.0975 52.4153 67.0975 52.3099 67.0975 52.0989C67.0975 45.4545 63.6171 40.0757 59.293 39.6538Z" fill="#F8B218"/>
<path d="M58.6601 64.6535C58.5547 64.6535 58.3437 64.6535 58.2383 64.6535V64.337H58.3437C62.5624 63.9152 65.8319 58.8528 66.0429 52.6302C66.0429 52.4192 66.0429 52.3138 66.0429 52.1028C66.0429 45.6693 62.6679 40.2905 58.3437 39.7632H58.2383V39.4468C58.5547 39.4468 58.8711 39.4468 59.3984 39.4468C63.9335 39.8686 67.4139 45.3529 67.4139 52.1028C67.4139 52.3138 67.4139 52.4192 67.4139 52.6302C67.203 59.0637 63.828 64.337 59.3984 64.6535C58.9766 64.6535 58.8711 64.6535 58.6601 64.6535ZM60.3476 40.0796C63.828 41.7671 66.2538 46.5131 66.2538 52.1028C66.2538 52.3138 66.2538 52.4192 66.2538 52.6302C66.1483 58.009 63.6171 62.4386 60.3476 64.1261C63.9335 62.966 66.7811 58.3254 66.7811 52.6302C66.7811 52.4192 66.7811 52.3138 66.7811 52.1028C66.8866 46.3021 64.1444 41.2397 60.3476 40.0796Z" fill="#B28445"/>
<path d="M63.4216 34.8086H59.4139C56.1444 34.8086 53.0859 36.6015 50.871 39.9765C48.6562 43.1405 47.4961 47.4647 47.4961 51.9998C47.4961 56.7458 48.7617 61.0699 51.082 64.3394C53.2968 67.5034 56.2499 69.1909 59.3084 69.1909H63.3162C66.2693 68.98 69.0114 67.187 71.0153 64.023C73.2301 60.7535 74.3902 56.5348 74.3902 51.9998C74.3902 47.6756 73.2301 43.3514 71.1208 40.1874C69.2223 37.0234 66.4802 35.2305 63.4216 34.8086Z" fill="#875F27"/>
<path d="M70.3786 52.0955C70.3786 47.5604 69.113 43.7636 67.2146 40.705C65.8435 38.7011 64.2615 37.1191 62.3631 36.3808V35.5371H59.0936C52.9765 35.5371 47.9141 42.9198 47.9141 51.99C47.9141 56.736 49.2851 60.9547 51.3945 64.0133C53.3984 66.7554 56.1405 68.5484 59.0936 68.5484H62.3631V67.8101C67.1091 65.5953 70.3786 59.4782 70.3786 52.0955Z" fill="#F8B828"/>
<path d="M62.7849 68.6553H59.3045C56.3514 68.6553 53.6093 66.9678 51.5 63.9093C49.2851 60.7452 48.0195 56.4211 48.0195 51.886C48.0195 42.7103 53.082 35.2222 59.3045 35.2222H62.7849V35.9604C64.5779 36.9096 66.2654 38.2807 67.531 40.2846C69.5349 43.4486 70.695 47.4564 70.695 51.7805C70.695 55.3664 69.9567 58.8468 68.4802 61.6945C67.0036 64.4366 65.1052 66.5459 62.8904 67.6006L62.7849 68.6553ZM59.3045 35.644C53.2929 35.644 48.3359 42.9213 48.3359 51.9915C48.3359 56.5266 49.6015 60.7452 51.7109 63.8038C53.7148 66.7569 56.4569 68.3389 59.3045 68.3389H62.4685V67.6006H62.574C64.7888 66.5459 66.6872 64.5421 68.1638 61.7999C69.6403 59.0578 70.3786 55.4719 70.3786 51.9915C70.3786 47.7728 69.2185 43.765 67.32 40.7065C65.8435 38.7026 64.156 37.226 62.4685 36.4878H62.3631V35.644H59.3045Z" fill="#B28445"/>
<path d="M70.613 40.5976C68.6091 37.4336 65.7615 35.4297 62.5975 35.4297C56.4804 35.4297 51.418 42.8124 51.418 51.8826C51.418 56.6286 52.789 60.8473 54.8984 63.9059C56.9023 66.648 59.6444 68.441 62.5975 68.441C68.7146 68.441 73.777 61.0582 73.777 51.9881C73.8825 47.6639 72.5114 43.6561 70.613 40.5976ZM63.2303 64.4332C63.0194 64.4332 62.9139 64.4332 62.703 64.4332C60.4882 64.4332 58.4843 63.0621 56.9023 61.0582C55.3203 58.9489 54.2656 55.8903 54.2656 52.5154C54.2656 52.3045 54.2656 52.199 54.2656 51.9881C54.2656 45.2381 58.0624 39.5429 62.5975 39.5429C62.8084 39.5429 62.9139 39.5429 63.1248 39.5429C67.449 39.9648 70.9294 45.3436 70.9294 51.9881C70.9294 52.199 70.9294 52.3045 70.9294 52.5154C70.9294 58.9489 67.449 64.0113 63.2303 64.4332Z" fill="#F6E245"/>
<path d="M62.5975 68.6558C59.6444 68.6558 56.9023 66.9683 54.7929 63.9098C52.5781 60.7457 51.3125 56.4216 51.3125 51.8865C51.3125 42.7108 56.3749 35.2227 62.5975 35.2227C65.7615 35.2227 68.6091 37.0156 70.7185 40.3906C72.7224 43.5546 73.8825 47.5623 73.8825 51.8865C73.8825 61.1676 68.8201 68.6558 62.5975 68.6558ZM62.5975 35.6445C56.5859 35.6445 51.6289 42.9218 51.6289 51.992C51.6289 56.527 52.8945 60.7457 55.0039 63.8043C57.0077 66.7574 59.7499 68.3394 62.5975 68.3394C68.6091 68.3394 73.5661 61.0621 73.5661 51.992C73.5661 47.7733 72.406 43.7655 70.5075 40.707C68.3982 37.4375 65.656 35.6445 62.5975 35.6445ZM62.5975 64.648C60.3827 64.648 58.2733 63.3824 56.6913 61.1676C55.0039 58.9528 54.0546 55.7888 54.0546 52.5193C54.0546 52.3084 54.0546 52.2029 54.0546 51.992C54.0546 45.0311 57.8515 39.3359 62.703 39.3359C62.9139 39.3359 63.0194 39.3359 63.2303 39.3359C67.7654 39.7577 71.2458 45.242 71.2458 51.992C71.2458 52.2029 71.2458 52.3084 71.2458 52.5193C71.0349 58.9528 67.6599 64.2262 63.2303 64.5426C63.1248 64.648 62.8084 64.648 62.5975 64.648ZM62.5975 39.7577C58.0624 39.7577 54.3711 45.242 54.3711 52.0974C54.3711 52.3084 54.3711 52.4138 54.3711 52.6248C54.4765 55.8942 55.4257 58.9528 57.0077 60.9567C58.5897 63.066 60.5936 64.3316 62.5975 64.3316C62.8084 64.3316 62.9139 64.3316 63.1248 64.3316C67.3435 63.9098 70.613 58.8473 70.8239 52.6248C70.8239 52.4138 70.8239 52.3084 70.8239 52.0974C70.8239 45.6639 67.449 40.2851 63.1248 39.7577C63.0194 39.7577 62.8084 39.7577 62.5975 39.7577Z" fill="#B28445"/>
<path d="M63.2109 39.6538C63 39.6538 62.8945 39.6538 62.6836 39.6538C62.5781 39.6538 62.3672 39.6538 62.2617 39.6538H62.3672C66.6913 40.0757 70.1718 45.4545 70.1718 52.0989C70.1718 52.3099 70.1718 52.4153 70.1718 52.6263C69.9608 59.0598 66.5859 64.1222 62.3672 64.4386H62.2617C62.3672 64.4386 62.5781 64.4386 62.6836 64.4386C62.8945 64.4386 63 64.4386 63.2109 64.4386C67.4296 64.0167 70.91 58.8488 71.0155 52.6263C71.0155 52.4153 71.0155 52.3099 71.0155 52.0989C71.0155 45.4545 67.5351 40.0757 63.2109 39.6538Z" fill="#F8B218"/>
<path d="M62.582 64.6535C62.4766 64.6535 62.2656 64.6535 62.1602 64.6535V64.337H62.2656C66.3788 63.9152 69.7538 58.8528 69.8593 52.6302C69.8593 52.4192 69.8593 52.3138 69.8593 52.1028C69.8593 45.6693 66.4843 40.2905 62.1602 39.7632H62.0547V39.4468C62.3711 39.4468 62.6875 39.4468 63.2148 39.4468C67.7499 39.8686 71.2303 45.3529 71.2303 52.1028C71.2303 52.3138 71.2303 52.4192 71.2303 52.6302C71.0194 59.0637 67.6445 64.337 63.2148 64.6535C63.1094 64.6535 62.793 64.6535 62.582 64.6535ZM64.2695 40.0796C67.7499 41.7671 70.1757 46.5131 70.1757 52.1028C70.1757 52.3138 70.1757 52.4192 70.1757 52.6302C70.0702 58.009 67.539 62.4386 64.2695 64.1261C67.8554 62.966 70.703 58.3254 70.703 52.6302C70.703 52.4192 70.703 52.3138 70.703 52.1028C70.9139 46.3021 68.0663 41.2397 64.2695 40.0796Z" fill="#B28445"/>
<path d="M67.0974 34.8086H63.0897C59.8202 34.8086 56.7616 36.6015 54.5468 39.9765C52.332 43.246 51.1719 47.4647 51.1719 51.9998C51.1719 56.7458 52.4375 61.0699 54.7578 64.3394C56.9726 67.5034 59.9257 69.1909 62.9842 69.1909H66.992C69.945 68.98 72.6872 67.187 74.6911 64.023C76.9059 60.7535 78.066 56.5348 78.066 51.9998C78.066 47.6756 76.9059 43.3514 74.7965 40.1874C73.0036 37.0234 70.156 35.2305 67.0974 34.8086Z" fill="#875F27"/>
<path d="M74.1872 52.1023C74.1872 47.5672 72.9216 43.7704 71.0232 40.7118C69.6521 38.708 68.0701 37.126 66.1717 36.3877V35.5439H62.9022C56.7851 35.5439 51.7227 42.9267 51.7227 51.9968C51.7227 56.7429 53.0937 60.9616 55.2031 64.0201C57.207 66.7623 59.9491 68.5552 62.9022 68.5552H66.2771V67.8169C70.9177 65.6021 74.1872 59.485 74.1872 52.1023Z" fill="#F8B828"/>
<path d="M66.4881 68.6621H63.0077C60.0546 68.6621 57.3124 66.9747 55.2031 63.9161C52.9883 60.7521 51.7227 56.4279 51.7227 51.8928C51.7227 42.7172 56.8906 35.229 63.0077 35.229H66.4881V35.9673C68.281 36.9165 69.9685 38.2876 71.2341 40.2914C73.238 43.4555 74.3981 47.4632 74.3981 51.7874C74.3981 59.0646 71.2341 65.3926 66.5935 67.6075L66.4881 68.6621ZM63.1131 35.6509C57.1015 35.6509 52.1445 42.9281 52.1445 51.9983C52.1445 56.5334 53.4101 60.7521 55.5195 63.8106C57.5234 66.7637 60.2655 68.3457 63.1131 68.3457H66.2771V67.6075H66.3826C68.5974 66.5528 70.4958 64.5489 71.9724 61.8068C73.4489 59.0646 74.1872 55.4787 74.1872 51.9983C74.1872 47.7796 73.027 43.7719 71.1286 40.7133C69.7576 38.7094 68.0701 37.2329 66.2771 36.4946H66.1717V35.6509H63.1131Z" fill="#B28445"/>
<path d="M74.4021 40.6098C72.3982 37.4458 69.5506 35.4419 66.3866 35.4419C60.2695 35.4419 55.207 42.8246 55.207 51.8948C55.207 56.6408 56.5781 60.8595 58.6875 63.9181C60.6913 66.6602 63.4335 68.4532 66.3866 68.4532C72.5037 68.4532 77.5661 61.0704 77.5661 52.0003C77.5661 47.6761 76.4059 43.6683 74.4021 40.6098ZM66.9139 64.4454C66.703 64.4454 66.5975 64.4454 66.3866 64.4454C64.1717 64.4454 62.1679 63.0743 60.5859 61.0704C59.0039 58.9611 57.9492 55.9025 57.9492 52.5276C57.9492 52.3167 57.9492 52.2112 57.9492 52.0003C57.9492 45.2504 61.746 39.5551 66.2811 39.5551C66.492 39.5551 66.5975 39.5551 66.8084 39.5551C71.1326 39.977 74.613 45.3558 74.613 52.0003C74.613 52.2112 74.613 52.3167 74.613 52.5276C74.613 58.9611 71.2381 64.0235 66.9139 64.4454Z" fill="#F6E245"/>
<path d="M66.492 68.6621C63.5389 68.6621 60.7968 66.9746 58.6875 63.9161C56.4726 60.7521 55.207 56.4279 55.207 51.8928C55.207 42.8226 60.164 35.3345 66.492 35.3345C69.656 35.3345 72.5037 37.1274 74.613 40.5024C76.6169 43.6664 77.777 47.6741 77.777 51.9983C77.6716 61.1739 72.7146 68.6621 66.492 68.6621ZM66.492 35.6509C60.4804 35.6509 55.5234 42.9281 55.5234 51.9983C55.5234 56.5334 56.789 60.7521 58.8984 63.8106C60.9023 66.7637 63.6444 68.3457 66.492 68.3457C72.5037 68.3457 77.4606 61.0685 77.4606 51.9983C77.4606 47.7796 76.3005 43.7719 74.4021 40.7133C72.1873 37.4438 69.3396 35.6509 66.492 35.6509ZM66.492 64.6544C64.2772 64.6544 62.1679 63.3888 60.5859 61.1739C58.8984 58.9591 57.9492 55.7951 57.9492 52.5256C57.9492 52.3147 57.9492 52.2092 57.9492 51.9983C57.9492 45.0375 61.746 39.3422 66.5975 39.3422C66.8084 39.3422 66.9139 39.3422 67.1248 39.3422C71.6599 39.7641 75.1403 45.2484 75.1403 51.9983C75.1403 52.2092 75.1403 52.3147 75.1403 52.5256C74.9294 58.9591 71.5545 64.2325 67.1248 64.5489C66.8084 64.6544 66.492 64.6544 66.492 64.6544ZM66.492 39.7641C61.9569 39.7641 58.2656 45.2484 58.2656 52.1038C58.2656 52.3147 58.2656 52.4202 58.2656 52.6311C58.371 55.9006 59.3203 58.9591 60.9023 60.963C62.4843 63.0724 64.4881 64.338 66.492 64.338C66.703 64.338 66.8084 64.338 67.0194 64.338C71.2381 63.9161 74.5075 58.8537 74.7185 52.6311C74.7185 52.4202 74.7185 52.3147 74.7185 52.1038C74.7185 45.6703 71.3435 40.2914 67.0194 39.7641C66.8084 39.7641 66.492 39.7641 66.492 39.7641Z" fill="#B28445"/>
<path d="M66.918 39.6455C66.707 39.6455 66.6016 39.6455 66.3906 39.6455C66.2852 39.6455 66.0742 39.6455 65.9688 39.6455H66.0742C70.3984 40.0674 73.8788 45.4462 73.8788 52.0906C73.8788 52.3016 73.8788 52.407 73.8788 52.618C73.6679 59.0515 70.2929 64.1139 66.0742 64.4303H65.9688C66.0742 64.4303 66.2852 64.4303 66.3906 64.4303C66.6016 64.4303 66.707 64.4303 66.918 64.4303C71.1366 64.0084 74.6171 58.8405 74.7225 52.618C74.7225 52.407 74.7225 52.3016 74.7225 52.0906C74.828 45.4462 71.3476 40.0674 66.918 39.6455Z" fill="#F8B218"/>
<path d="M66.4961 64.6451C66.3906 64.6451 66.1797 64.6451 66.0742 64.6451V64.3287H66.1797C70.3984 63.9069 73.6679 58.8444 73.8788 52.6219C73.8788 52.4109 73.8788 52.3055 73.8788 52.0945C73.8788 45.661 70.5038 40.2822 66.1797 39.7549H66.0742V39.4385C66.3906 39.4385 66.707 39.4385 67.2344 39.4385C71.7695 39.8603 75.2499 45.3446 75.2499 52.0945C75.2499 52.3055 75.2499 52.4109 75.2499 52.6219C74.9335 59.0554 71.5585 64.2233 67.1289 64.6451C66.8125 64.6451 66.4961 64.6451 66.4961 64.6451ZM68.0781 40.0713C71.5585 41.7588 73.9843 46.5048 73.9843 52.0945C73.9843 52.3055 73.9843 52.4109 73.9843 52.6219C73.8788 58.0007 71.3476 62.4303 68.0781 64.1178C71.664 62.9577 74.5116 58.3171 74.5116 52.6219C74.5116 52.4109 74.5116 52.3055 74.5116 52.0945C74.6171 46.2938 71.8749 41.2314 68.0781 40.0713Z" fill="#B28445"/>
<path d="M63.9297 55.5879V59.5956H62.7695V57.9082L63.9297 55.5879Z" fill="#F6E245"/>
<path d="M65.3086 52.9482L65.8359 53.8974V54.0029V59.5927H64.6758V54.1084L65.3086 52.9482Z" fill="#F6E245"/>
<path d="M67.625 53.3657V59.5883H66.4648V55.7915L66.7812 55.5805L67.5195 53.8931L67.625 53.3657Z" fill="#F6E245"/>
<path d="M69.6328 49.5776V59.597H68.4727V51.8979L69.6328 49.5776Z" fill="#F6E245"/>
<path d="M66.4844 53.7861H66.168L65.3242 52.0986H65.8516L66.4844 53.7861Z" fill="#875F27"/>
<path d="M62.7656 57.8945H62.2383V59.6875H62.7656V57.8945Z" fill="#875F27"/>
<path d="M62.7656 57.9072H62.2383L63.3984 55.5869H63.9258L62.7656 57.9072Z" fill="#875F27"/>
<path d="M64.7812 54.1001H64.2539V59.5844H64.7812V54.1001Z" fill="#875F27"/>
<path d="M64.6758 54.1074H64.2539L64.7812 52.9473H65.3086L64.6758 54.1074Z" fill="#875F27"/>
<path d="M67.5312 53.8955H66.8984L67.2148 53.3682H67.6367L67.5312 53.8955Z" fill="#875F27"/>
<path d="M66.7891 55.5854H66.1562L66.8945 53.8979H67.5273L66.7891 55.5854Z" fill="#875F27"/>
<path d="M66.4727 55.7978H66.1562V55.5869H66.7891L66.4727 55.7978Z" fill="#875F27"/>
<path d="M66.6836 55.7939H66.1562V59.8017H66.6836V55.7939Z" fill="#875F27"/>
<path d="M68.5859 51.8901H68.0586V59.5892H68.5859V51.8901Z" fill="#875F27"/>
<path d="M68.4805 51.8921H68.0586L69.2187 49.5718H69.6406L68.4805 51.8921Z" fill="#875F27"/>
<path d="M70.3867 47.2451H69.8594L69.6484 46.4014H70.1758L70.3867 47.2451Z" fill="#875F27"/>
<path d="M69.3242 44.7212H68.7969L68.4805 44.0884H69.0078L69.3242 44.7212Z" fill="#875F27"/>
<path d="M66.4727 50.3134H66.1562L68.7929 44.7236H69.3203L66.4727 50.3134Z" fill="#875F27"/>
<path d="M65.8515 52.1059H65.3242L64.7969 51.0513H65.4297L65.8515 52.1059Z" fill="#875F27"/>
<path d="M64.5703 49.3554H64.043L64.7812 47.7734H65.414L64.5703 49.3554Z" fill="#875F27"/>
<path d="M61.8437 55.2694H61.2109L64.0586 49.3633H64.5859L61.8437 55.2694Z" fill="#875F27"/>
<path d="M62.582 56.7446H62.0547L61.2109 55.2681H61.8437L62.582 56.7446Z" fill="#875F27"/>
<path d="M68.9999 44.0898H70.371V47.2539L70.16 46.4101L67.4179 52.1054L66.4687 53.7928L65.8359 52.1054L65.414 51.0507L62.5664 56.7459L61.8281 55.2694L64.5703 49.3632L65.414 47.7812L66.1523 49.3632L66.4687 50.3124L69.3163 44.7226L68.9999 44.0898Z" fill="#F6E245"/>
<path d="M83.4219 53.079C83.4219 51.1029 83.8631 49.3378 84.7457 47.7838C85.6474 46.2106 86.8656 44.9924 88.4005 44.129C89.9545 43.2465 91.6907 42.8053 93.6093 42.8053C95.8539 42.8053 97.8204 43.3808 99.5087 44.5319C101.197 45.683 102.377 47.2754 103.048 49.3091H98.4152C97.9547 48.3498 97.3024 47.6303 96.4583 47.1507C95.6333 46.6711 94.674 46.4313 93.5805 46.4313C92.4102 46.4313 91.3646 46.7095 90.4437 47.2658C89.542 47.803 88.8321 48.5704 88.3141 49.5681C87.8153 50.5657 87.5659 51.736 87.5659 53.079C87.5659 54.4027 87.8153 55.573 88.3141 56.5899C88.8321 57.5875 89.542 58.3645 90.4437 58.9209C91.3646 59.4581 92.4102 59.7267 93.5805 59.7267C94.674 59.7267 95.6333 59.4868 96.4583 59.0072C97.3024 58.5084 97.9547 57.7794 98.4152 56.8201H103.048C102.377 58.8729 101.197 60.4749 99.5087 61.626C97.8396 62.7579 95.8731 63.3239 93.6093 63.3239C91.6907 63.3239 89.9545 62.8922 88.4005 62.0289C86.8656 61.1464 85.6474 59.9281 84.7457 58.3741C83.8631 56.8201 83.4219 55.055 83.4219 53.079Z" fill="white"/>
<path d="M113.569 63.4102C112.034 63.4102 110.653 63.0745 109.425 62.403C108.197 61.7123 107.228 60.7435 106.518 59.4964C105.828 58.2494 105.482 56.8105 105.482 55.1798C105.482 53.549 105.837 52.1101 106.547 50.8631C107.276 49.616 108.264 48.6568 109.511 47.9853C110.758 47.2946 112.149 46.9493 113.684 46.9493C115.219 46.9493 116.61 47.2946 117.857 47.9853C119.104 48.6568 120.082 49.616 120.792 50.8631C121.521 52.1101 121.886 53.549 121.886 55.1798C121.886 56.8105 121.512 58.2494 120.763 59.4964C120.034 60.7435 119.037 61.7123 117.771 62.403C116.524 63.0745 115.123 63.4102 113.569 63.4102ZM113.569 59.8993C114.298 59.8993 114.979 59.7267 115.612 59.3813C116.265 59.0168 116.783 58.4796 117.166 57.7698C117.55 57.0599 117.742 56.1966 117.742 55.1798C117.742 53.6641 117.339 52.5034 116.533 51.6976C115.747 50.8727 114.778 50.4602 113.627 50.4602C112.475 50.4602 111.507 50.8727 110.72 51.6976C109.953 52.5034 109.569 53.6641 109.569 55.1798C109.569 56.6954 109.943 57.8657 110.691 58.6907C111.459 59.4964 112.418 59.8993 113.569 59.8993Z" fill="white"/>
<path d="M126.884 45.3089C126.175 45.3089 125.58 45.0883 125.1 44.647C124.64 44.1866 124.409 43.6206 124.409 42.9491C124.409 42.2777 124.64 41.7213 125.1 41.28C125.58 40.8196 126.175 40.5894 126.884 40.5894C127.594 40.5894 128.179 40.8196 128.64 41.28C129.119 41.7213 129.359 42.2777 129.359 42.9491C129.359 43.6206 129.119 44.1866 128.64 44.647C128.179 45.0883 127.594 45.3089 126.884 45.3089ZM128.87 47.2083V63.1512H124.841V47.2083H128.87Z" fill="white"/>
<path d="M141.685 46.978C143.585 46.978 145.12 47.5824 146.29 48.7911C147.46 49.9805 148.045 51.6497 148.045 53.7984V63.1512H144.016V54.3452C144.016 53.079 143.7 52.1101 143.067 51.4386C142.434 50.748 141.57 50.4026 140.477 50.4026C139.364 50.4026 138.481 50.748 137.829 51.4386C137.196 52.1101 136.88 53.079 136.88 54.3452V63.1512H132.851V47.2083H136.88V49.1939C137.417 48.5033 138.098 47.9661 138.923 47.5824C139.767 47.1795 140.688 46.978 141.685 46.978Z" fill="white"/>
<path d="M158.524 59.4389L162.553 47.2083H166.841L160.942 63.1512H156.049L150.179 47.2083H154.495L158.524 59.4389Z" fill="white"/>
<path d="M183.925 54.8344C183.925 55.41 183.886 55.928 183.81 56.3884H172.154C172.25 57.5395 172.653 58.4412 173.363 59.0935C174.073 59.7458 174.946 60.072 175.982 60.072C177.478 60.072 178.543 59.4293 179.176 58.1439H183.522C183.061 59.6787 182.179 60.9449 180.874 61.9426C179.57 62.921 177.968 63.4102 176.068 63.4102C174.533 63.4102 173.152 63.0745 171.924 62.403C170.716 61.7123 169.766 60.7435 169.075 59.4964C168.404 58.2494 168.068 56.8105 168.068 55.1798C168.068 53.5298 168.404 52.0813 169.075 50.8343C169.747 49.5872 170.687 48.628 171.895 47.9565C173.104 47.285 174.495 46.9493 176.068 46.9493C177.584 46.9493 178.936 47.2754 180.126 47.9277C181.335 48.58 182.265 49.5105 182.917 50.7192C183.589 51.9087 183.925 53.2804 183.925 54.8344ZM179.752 53.6833C179.733 52.6473 179.359 51.8223 178.63 51.2084C177.9 50.5753 177.008 50.2587 175.953 50.2587C174.956 50.2587 174.111 50.5657 173.421 51.1796C172.749 51.7744 172.337 52.6089 172.183 53.6833H179.752Z" fill="white"/>
<path d="M192.966 63.4102C191.662 63.4102 190.491 63.18 189.455 62.7196C188.419 62.2399 187.594 61.5972 186.98 60.7914C186.386 59.9857 186.06 59.0935 186.002 58.1151H190.06C190.136 58.729 190.434 59.2374 190.952 59.6403C191.489 60.0432 192.151 60.2447 192.938 60.2447C193.705 60.2447 194.3 60.0912 194.722 59.7842C195.163 59.4773 195.384 59.084 195.384 58.6043C195.384 58.0863 195.115 57.7026 194.578 57.4532C194.06 57.1846 193.225 56.8968 192.074 56.5899C190.885 56.3021 189.906 56.0047 189.139 55.6978C188.391 55.3908 187.738 54.9208 187.182 54.2876C186.645 53.6545 186.376 52.8008 186.376 51.7264C186.376 50.8439 186.626 50.0381 187.124 49.3091C187.642 48.58 188.371 48.0045 189.312 47.5824C190.271 47.1603 191.393 46.9493 192.679 46.9493C194.578 46.9493 196.094 47.4289 197.225 48.3882C198.357 49.3282 198.981 50.6041 199.096 52.2156H195.24C195.182 51.5825 194.914 51.0837 194.434 50.7192C193.974 50.3355 193.35 50.1436 192.563 50.1436C191.834 50.1436 191.268 50.2779 190.866 50.5465C190.482 50.8151 190.29 51.1892 190.29 51.6688C190.29 52.206 190.559 52.6185 191.096 52.9063C191.633 53.1749 192.467 53.4531 193.599 53.7409C194.751 54.0286 195.7 54.326 196.448 54.633C197.197 54.9399 197.839 55.4196 198.377 56.0719C198.933 56.705 199.221 57.5491 199.24 58.6043C199.24 59.5252 198.981 60.3502 198.463 61.0792C197.964 61.8083 197.235 62.3838 196.276 62.8059C195.336 63.2088 194.233 63.4102 192.966 63.4102Z" fill="white"/>
<path d="M207.238 50.5177V58.2302C207.238 58.7674 207.363 59.1607 207.612 59.4101C207.881 59.6403 208.322 59.7554 208.936 59.7554H210.806V63.1512H208.274C204.878 63.1512 203.18 61.5013 203.18 58.2014V50.5177H201.281V47.2083H203.18V43.2657H207.238V47.2083H210.806V50.5177H207.238Z" fill="white"/>
<path d="M212.668 55.1222C212.668 53.5106 212.985 52.0813 213.618 50.8343C214.27 49.5872 215.143 48.628 216.237 47.9565C217.349 47.285 218.587 46.9493 219.949 46.9493C221.138 46.9493 222.174 47.1891 223.057 47.6687C223.959 48.1484 224.678 48.7527 225.215 49.4817V47.2083H229.273V63.1512H225.215V60.8202C224.697 61.5684 223.978 62.192 223.057 62.6908C222.155 63.1704 221.11 63.4102 219.92 63.4102C218.577 63.4102 217.349 63.0649 216.237 62.3742C215.143 61.6836 214.27 60.7147 213.618 59.4677C212.985 58.2014 212.668 56.7529 212.668 55.1222ZM225.215 55.1798C225.215 54.2013 225.023 53.3667 224.64 52.6761C224.256 51.9662 223.738 51.429 223.086 51.0645C222.433 50.6808 221.733 50.489 220.985 50.489C220.237 50.489 219.546 50.6712 218.913 51.0357C218.28 51.4003 217.762 51.9374 217.359 52.6473C216.975 53.338 216.783 54.1629 216.783 55.1222C216.783 56.0815 216.975 56.9256 217.359 57.6546C217.762 58.3645 218.28 58.9113 218.913 59.295C219.565 59.6787 220.256 59.8706 220.985 59.8706C221.733 59.8706 222.433 59.6883 223.086 59.3238C223.738 58.9401 224.256 58.4029 224.64 57.7122C225.023 57.0024 225.215 56.1582 225.215 55.1798Z" fill="white"/>
<path d="M239.309 63.4102C238.004 63.4102 236.834 63.18 235.798 62.7196C234.762 62.2399 233.937 61.5972 233.323 60.7914C232.728 59.9857 232.402 59.0935 232.345 58.1151H236.402C236.479 58.729 236.776 59.2374 237.294 59.6403C237.832 60.0432 238.493 60.2447 239.28 60.2447C240.047 60.2447 240.642 60.0912 241.064 59.7842C241.506 59.4773 241.726 59.084 241.726 58.6043C241.726 58.0863 241.458 57.7026 240.92 57.4532C240.402 57.1846 239.568 56.8968 238.417 56.5899C237.227 56.3021 236.249 56.0047 235.481 55.6978C234.733 55.3908 234.081 54.9208 233.524 54.2876C232.987 53.6545 232.719 52.8008 232.719 51.7264C232.719 50.8439 232.968 50.0381 233.467 49.3091C233.985 48.58 234.714 48.0045 235.654 47.5824C236.613 47.1603 237.736 46.9493 239.021 46.9493C240.92 46.9493 242.436 47.4289 243.568 48.3882C244.7 49.3282 245.323 50.6041 245.439 52.2156H241.582C241.525 51.5825 241.256 51.0837 240.777 50.7192C240.316 50.3355 239.693 50.1436 238.906 50.1436C238.177 50.1436 237.611 50.2779 237.208 50.5465C236.824 50.8151 236.632 51.1892 236.632 51.6688C236.632 52.206 236.901 52.6185 237.438 52.9063C237.975 53.1749 238.81 53.4531 239.942 53.7409C241.093 54.0286 242.043 54.326 242.791 54.633C243.539 54.9399 244.182 55.4196 244.719 56.0719C245.275 56.705 245.563 57.5491 245.582 58.6043C245.582 59.5252 245.323 60.3502 244.805 61.0792C244.307 61.8083 243.578 62.3838 242.618 62.8059C241.678 63.2088 240.575 63.4102 239.309 63.4102Z" fill="white"/>
<path d="M250.933 45.3089C250.223 45.3089 249.628 45.0883 249.149 44.647C248.688 44.1866 248.458 43.6206 248.458 42.9491C248.458 42.2777 248.688 41.7213 249.149 41.28C249.628 40.8196 250.223 40.5894 250.933 40.5894C251.643 40.5894 252.228 40.8196 252.688 41.28C253.168 41.7213 253.408 42.2777 253.408 42.9491C253.408 43.6206 253.168 44.1866 252.688 44.647C252.228 45.0883 251.643 45.3089 250.933 45.3089ZM252.919 47.2083V63.1512H248.89V47.2083H252.919Z" fill="white"/>
</svg>
