<svg width="297" height="104" viewBox="0 0 297 104" fill="none" xmlns="http://www.w3.org/2000/svg">
<g clip-path="url(#clip0_1284_1651)">
<path fill-rule="evenodd" clip-rule="evenodd" d="M92.4148 33.7539C92.1887 33.7006 91.9663 33.6326 91.749 33.5504H90.4654C89.2097 33.869 88.2202 34.6314 87.2114 35.4092L87.1045 35.4916C86.3168 36.1292 85.3333 36.4758 84.3198 36.4728C83.3063 36.4698 82.3248 36.1176 81.5408 35.4753C80.5977 34.6055 79.4786 33.9485 78.2594 33.5488H76.9915C75.6442 33.8644 74.5993 34.6686 73.536 35.4916C72.7386 36.1338 71.7426 36.4786 70.7188 36.467C69.695 36.4554 68.7071 36.0881 67.9245 35.428C66.9853 34.5553 65.8568 33.9121 64.6273 33.5488H63.3594C63.0581 33.6593 62.741 33.7697 62.4244 33.8802C61.7077 34.135 61.0636 34.5599 60.5473 35.1184C60.031 35.6769 59.6579 36.3524 59.46 37.0868C59.3964 37.2761 59.3175 37.4655 59.2539 37.6538V38.9171C59.602 40.1747 60.2744 41.3187 61.2038 42.2347C61.8941 43.01 62.278 44.0104 62.2838 45.0485C62.2896 46.0865 61.9169 47.0911 61.2354 47.8742C60.3239 48.8126 59.6499 49.9553 59.2697 51.207V52.4703C59.6473 53.7232 60.3216 54.8665 61.2354 55.8032C61.9046 56.5769 62.2742 57.565 62.2771 58.5879C62.28 59.6109 61.916 60.6011 61.2512 61.3786C60.3191 62.3342 59.6383 63.5058 59.2697 64.7888V66.0551C59.3964 66.3549 59.5074 66.671 59.6183 66.9866C59.8721 67.7035 60.2961 68.3482 60.8538 68.8653C61.4115 69.3824 62.0863 69.7565 62.8204 69.9555C63.0097 70.0186 63.1996 70.097 63.3889 70.1591H64.6614C65.917 69.7836 67.0641 69.1119 68.0059 68.2005C68.7919 67.5191 69.798 67.1452 70.8383 67.1481C71.8786 67.151 72.8826 67.5305 73.6648 68.2163C74.613 69.1233 75.765 69.7896 77.0241 70.1591H78.2899C78.4197 70.1158 78.55 70.0659 78.6818 70.0155C78.8386 69.9555 78.9979 69.8949 79.1618 69.843C80.2078 69.4884 81.0961 68.7778 81.6717 67.8352C82.2473 66.8927 82.4737 65.7779 82.3113 64.6854C82.149 63.593 81.6083 62.5922 80.7835 61.8577C79.9586 61.1232 78.9021 60.7016 77.7983 60.6665C77.1498 60.6363 76.5021 60.7384 75.8944 60.9665C75.2867 61.1946 74.7317 61.544 74.2634 61.9934C72.9161 63.241 71.3621 63.8258 69.54 63.3041C68.7339 63.0892 67.9974 62.6688 67.4025 62.0839C66.8076 61.4991 66.3748 60.7698 66.1463 59.9675C65.9178 59.1651 65.9015 58.3172 66.099 57.5067C66.2965 56.6962 66.701 55.9508 67.273 55.3435C67.8174 54.8054 68.2317 54.15 68.4845 53.4275C68.7372 52.7049 68.8216 51.9341 68.7312 51.1739C68.5968 49.9677 67.8848 49.0871 67.1661 48.1933L67.0353 48.0315C64.4038 44.7618 66.877 40.9714 69.714 40.2761C71.4578 39.8495 72.9161 40.3865 74.1845 41.6188C76.1186 43.4822 79.0346 43.6247 80.8104 41.7608C81.2607 41.2605 81.8113 40.8607 82.4264 40.5876C83.0416 40.3144 83.7074 40.174 84.3804 40.1755C85.0535 40.177 85.7186 40.3204 86.3325 40.5962C86.9465 40.8721 87.4953 41.2743 87.9433 41.7766C88.6289 42.4504 89.5094 42.8909 90.4597 43.0356C91.4101 43.1802 92.3818 43.0216 93.2368 42.5823C94.0973 42.1562 94.8085 41.4793 95.2765 40.6409C95.7445 39.8025 95.9474 38.8418 95.8584 37.8858C95.7693 36.9297 95.3926 36.023 94.7778 35.2854C94.1631 34.5478 93.3392 34.0138 92.4148 33.7539ZM91.1784 63.8899C90.9586 63.8777 90.7386 63.9102 90.5317 63.9854C90.3248 64.0606 90.1353 64.177 89.9746 64.3276C89.8139 64.4781 89.6854 64.6596 89.5969 64.8612C89.5084 65.0628 89.4616 65.2802 89.4595 65.5004C89.4574 65.7205 89.4999 65.9388 89.5845 66.1421C89.6691 66.3453 89.794 66.5293 89.9517 66.6829C90.1095 66.8366 90.2967 66.9566 90.5021 67.0358C90.7075 67.115 90.9269 67.1518 91.1469 67.1438C91.3667 67.1561 91.5867 67.1236 91.7936 67.0483C92.0006 66.9731 92.1901 66.8567 92.3507 66.7062C92.5114 66.5557 92.6399 66.3741 92.7284 66.1726C92.817 65.971 92.8637 65.7536 92.8658 65.5334C92.868 65.3132 92.8255 65.0949 92.7408 64.8917C92.6562 64.6884 92.5313 64.5044 92.3736 64.3508C92.2159 64.1972 92.0286 64.0772 91.8232 63.9979C91.6178 63.9187 91.3985 63.882 91.1784 63.8899ZM89.5298 52.2179C89.5249 52.0011 89.565 51.7857 89.6478 51.5852C89.7306 51.3848 89.8543 51.2039 90.0108 51.0538C90.1674 50.9038 90.3534 50.788 90.5572 50.7138C90.7609 50.6395 90.9778 50.6085 91.1942 50.6227C91.6184 50.6297 92.0232 50.802 92.3223 51.1028C92.6215 51.4037 92.7914 51.8094 92.796 52.2337C92.7841 52.6707 92.6046 53.0864 92.2947 53.3948C91.9848 53.7032 91.5682 53.8806 91.1311 53.8904C90.697 53.8797 90.2848 53.6975 89.9848 53.3837C89.6847 53.0699 89.5211 52.65 89.5298 52.2158M77.5774 53.9871C77.7931 53.9931 78.0077 53.9551 78.2083 53.8755C78.4089 53.7958 78.5911 53.6761 78.7439 53.5237C78.8966 53.3713 79.0168 53.1894 79.097 52.989C79.1771 52.7887 79.2157 52.5741 79.2102 52.3584C79.2202 52.1417 79.1848 51.9253 79.1061 51.7232C79.0275 51.521 78.9074 51.3376 78.7536 51.1847C78.5998 51.0317 78.4157 50.9127 78.2131 50.8352C78.0105 50.7577 77.794 50.7234 77.5774 50.7347C77.155 50.7388 76.7503 50.9048 76.4465 51.1983C76.1428 51.4918 75.9631 51.8906 75.9445 52.3125C75.9427 52.75 76.1128 53.1707 76.4183 53.484C76.7237 53.7972 77.14 53.9779 77.5774 53.9871Z" fill="#F8BF1E"/>
<path d="M112.828 56.1547C115.925 56.1547 118.164 55.3093 119.852 53.7116C121.39 52.2651 122.331 50.2952 122.489 48.1896H117.06C116.815 50.2718 115.22 51.781 112.797 51.781C109.545 51.781 107.521 48.9139 107.521 44.9606C107.521 41.0368 109.208 38.1097 112.766 38.1097C115.097 38.1097 116.631 39.5883 116.907 41.5199H122.336C122.231 40.3554 121.885 39.2255 121.32 38.2019C120.755 37.1784 119.983 36.2836 119.054 35.5744C117.23 34.2778 115.034 33.6093 112.797 33.6698C106.263 33.6698 102 38.5291 102 44.9575C102 51.416 106.386 56.1552 112.828 56.1552M132.088 52.6534C129.91 52.6534 128.775 50.7824 128.775 47.9758C128.775 45.1693 129.91 43.2672 132.088 43.2672C134.266 43.2672 135.431 45.1688 135.431 47.9758C135.431 50.7829 134.265 52.6534 132.088 52.6534ZM132.118 56.1547C137.179 56.1547 140.492 52.6234 140.492 47.9758C140.492 43.3283 137.177 39.7964 132.118 39.7964C127.088 39.7964 123.714 43.3278 123.714 47.9758C123.714 52.6239 127.088 56.1547 132.118 56.1547ZM172.767 51.1748V38.5591H176.018C179.423 38.5591 181.355 41.0943 181.355 45.0181C181.355 48.9714 179.514 51.1768 175.956 51.1768L172.767 51.1748ZM167.79 55.6717H176.808C179.568 55.6717 181.777 54.9774 183.495 53.71C185.948 51.869 187.298 48.8207 187.298 45.0181C187.298 38.4084 183.218 34.0922 177.145 34.0922H167.79V55.6717ZM196.779 56.1241C198.522 56.1721 200.237 55.6759 201.686 54.7046C202.986 53.8548 203.925 52.5541 204.324 51.0531H199.447C199.226 51.5487 198.857 51.9631 198.389 52.2389C197.922 52.5147 197.381 52.6383 196.84 52.5923C194.785 52.5923 193.619 51.2944 193.312 49.2121H204.6C204.631 46.0732 203.711 43.3873 201.839 41.697C200.359 40.3989 198.442 39.7092 196.474 39.7664C191.69 39.7664 188.407 43.2977 188.407 47.9152C188.407 52.5933 191.598 56.1241 196.781 56.1241M192.893 46.2855C193.23 44.4445 194.212 43.2672 196.114 43.2672C197.74 43.2672 198.905 44.4445 199.089 46.2855H192.893ZM212.963 56.1547C217.073 56.1547 220.11 54.4043 220.11 51.0236C220.11 47.0703 216.858 46.3761 214.098 45.9231C212.104 45.5612 210.325 45.41 210.325 44.3238C210.325 43.3568 211.276 42.9053 212.503 42.9053C213.883 42.9053 214.834 43.3278 215.018 44.7163H219.619C219.374 41.668 216.982 39.7664 212.534 39.7664C208.822 39.7664 205.755 41.4567 205.755 44.7163C205.755 48.3377 208.669 49.062 211.399 49.515C213.486 49.8769 215.386 50.028 215.386 51.416C215.386 52.4121 214.435 52.9552 212.933 52.9552C211.276 52.9552 210.235 52.2009 210.049 50.6617H205.325C205.478 54.0719 208.362 56.1547 212.963 56.1547ZM221.73 55.6717H226.667V50.9335L228.171 49.3638L231.944 55.6717H237.741L231.576 46.0137L237.097 40.2194H231.331L226.668 45.4411V34.0907H221.731L221.73 55.6717Z" fill="white"/>
<path d="M155.445 55.6723H150.445V40.22H155.261V42.3323H155.353C155.868 41.5201 156.586 40.8562 157.436 40.4063C158.286 39.9564 159.238 39.7361 160.199 39.767C163.635 39.767 165.659 42.1817 165.659 45.6203V55.6723H160.66V46.618C160.66 44.9892 159.831 43.8694 158.206 43.8694C156.55 43.8694 155.445 45.2279 155.445 47.1269V55.6723Z" fill="white"/>
<path d="M140.891 43.6744L140.896 40.228H148.13V55.6742H143.373V43.6744H140.891Z" fill="white"/>
<path d="M145.396 33.5313C146.115 33.5256 146.807 33.8056 147.319 34.3096C147.831 34.8137 148.122 35.5006 148.129 36.2193C148.115 36.9348 147.821 37.6163 147.31 38.1174C146.799 38.6186 146.112 38.8993 145.396 38.8993C144.681 38.8993 143.994 38.6186 143.483 38.1174C142.972 37.6163 142.678 36.9348 142.664 36.2193C142.67 35.5006 142.961 34.8137 143.474 34.3096C143.986 33.8056 144.678 33.5256 145.396 33.5313Z" fill="white"/>
<path d="M103.336 62.4038H102.285V70.3328H103.336V62.4038Z" fill="white"/>
<path d="M119.839 62.4038V68.6292L115.671 62.4038H114.594V70.3312H115.601V64.1018L119.769 70.3312H120.846V62.4038H119.839Z" fill="white"/>
<path d="M132.035 70.3292V62.4017H134.768C135.242 62.3892 135.716 62.4273 136.181 62.5152C136.61 62.6072 137.009 62.8021 137.345 63.0833C137.77 63.4462 138.093 63.913 138.284 64.4382C138.501 65.042 138.606 65.68 138.595 66.3214C138.603 66.8626 138.532 67.4021 138.384 67.9227C138.269 68.3349 138.086 68.7251 137.843 69.0776C137.647 69.3586 137.402 69.6022 137.12 69.7968C136.83 69.9837 136.51 70.1182 136.173 70.1943C135.756 70.2895 135.329 70.335 134.901 70.3297L132.035 70.3292ZM133.085 69.3931H134.779C135.195 69.4071 135.61 69.3579 136.011 69.2471C136.277 69.1682 136.522 69.0274 136.723 68.8363C136.993 68.5521 137.192 68.2084 137.305 67.8331C137.455 67.3383 137.525 66.823 137.514 66.3061C137.553 65.6439 137.412 64.9834 137.107 64.3944C136.883 63.9934 136.533 63.6785 136.11 63.4996C135.669 63.37 135.21 63.3151 134.752 63.3372H133.085L133.085 69.3931Z" fill="white"/>
<path d="M149.14 66.4683C149.074 65.3386 149.455 64.2283 150.201 63.3772C150.553 63.0081 150.979 62.7177 151.451 62.5251C151.923 62.3325 152.431 62.2422 152.94 62.26C153.636 62.2503 154.321 62.4318 154.921 62.7848C155.504 63.1287 155.972 63.6378 156.266 64.2476C156.583 64.9117 156.742 65.6404 156.729 66.3762C156.742 67.1242 156.575 67.8644 156.242 68.5343C155.94 69.1448 155.458 69.648 154.862 69.9757C154.272 70.3009 153.608 70.4695 152.935 70.4654C152.23 70.4768 151.535 70.2894 150.932 69.9248C150.352 69.5733 149.887 69.0603 149.595 68.4488C149.293 67.8325 149.138 67.1553 149.14 66.4693M150.223 66.4856C150.177 67.3101 150.453 68.1201 150.994 68.744C151.246 69.0054 151.548 69.2132 151.883 69.3549C152.217 69.4966 152.576 69.5693 152.939 69.5685C153.302 69.5677 153.661 69.4936 153.995 69.3505C154.329 69.2074 154.63 68.9983 154.881 68.7358C155.428 68.0744 155.702 67.2289 155.647 66.3721C155.659 65.7915 155.548 65.215 155.319 64.6813C155.118 64.2207 154.785 63.8307 154.361 63.5615C153.937 63.2953 153.446 63.1573 152.945 63.164C152.591 63.1583 152.239 63.2228 151.91 63.3538C151.58 63.4849 151.28 63.6798 151.026 63.9275C150.491 64.4364 150.223 65.2883 150.223 66.4831" fill="white"/>
<path d="M167.496 70.3288V62.4014H168.573L172.741 68.6273V62.4014H173.747V70.3288H172.67L168.503 64.0978V70.3288H167.496Z" fill="white"/>
<path d="M184.953 70.3288V62.4014H190.69V63.3369H186.003V65.7658H190.393V66.6962H186.003V69.3938H190.874V70.3288H184.953Z" fill="white"/>
<path d="M201.395 67.7838L202.385 67.6972C202.415 68.0441 202.527 68.3787 202.712 68.6735C202.914 68.9513 203.191 69.1652 203.511 69.2899C203.896 69.4517 204.311 69.5318 204.729 69.525C205.09 69.5318 205.45 69.4714 205.79 69.3469C206.06 69.2536 206.298 69.0834 206.474 68.8572C206.62 68.661 206.699 68.4229 206.699 68.1782C206.703 67.9428 206.627 67.7129 206.482 67.5267C206.291 67.3095 206.045 67.1477 205.77 67.0585C205.306 66.9052 204.834 66.7762 204.357 66.6722C203.83 66.5647 203.316 66.3987 202.825 66.1774C202.483 66.0106 202.19 65.7557 201.978 65.4389C201.792 65.1437 201.695 64.801 201.699 64.452C201.699 64.0522 201.818 63.6614 202.04 63.3291C202.283 62.969 202.631 62.6923 203.037 62.5367C203.499 62.3517 203.994 62.26 204.493 62.2669C205.025 62.2564 205.554 62.3528 206.049 62.5504C206.471 62.7175 206.832 63.009 207.085 63.3862C207.328 63.7586 207.463 64.1911 207.475 64.6357L206.468 64.7115C206.457 64.4951 206.403 64.2831 206.308 64.088C206.214 63.8929 206.082 63.7187 205.919 63.5755C205.516 63.2923 205.027 63.1568 204.536 63.1917C204.047 63.1515 203.559 63.2741 203.147 63.5404C203.014 63.6363 202.905 63.7625 202.829 63.9086C202.753 64.0547 202.713 64.2167 202.712 64.3812C202.708 64.514 202.733 64.6461 202.786 64.768C202.839 64.8899 202.918 64.9985 203.018 65.0862C203.502 65.3798 204.041 65.5722 204.602 65.6516C205.201 65.7686 205.789 65.9377 206.358 66.1571C206.767 66.3273 207.121 66.6072 207.381 66.9658C207.603 67.2993 207.718 67.6926 207.711 68.0932C207.71 68.518 207.584 68.933 207.348 69.2863C207.093 69.6713 206.731 69.9737 206.306 70.1567C205.826 70.37 205.305 70.4763 204.779 70.4682C204.162 70.4865 203.548 70.3797 202.974 70.1541C202.507 69.9608 202.11 69.6321 201.832 69.2105C201.554 68.7863 201.403 68.292 201.396 67.7853" fill="white"/>
<path d="M219.793 62.4014H218.742V70.3308H219.793V62.4014Z" fill="white"/>
<path d="M230.195 70.3289L233.243 62.3994H234.374L237.621 70.3289H236.425L235.499 67.9275H232.182L231.31 70.3289H230.195ZM232.486 67.0714H235.175L234.348 64.8756C234.095 64.2082 233.907 63.66 233.784 63.2311C233.682 63.7463 233.539 64.2526 233.357 64.7453L232.486 67.0714Z" fill="white"/>
</g>
<defs>
<clipPath id="clip0_1284_1651">
<rect width="178.489" height="36.937" fill="white" transform="translate(59.2539 33.5312)"/>
</clipPath>
</defs>
</svg>
