<svg width="297" height="104" fill="none" xmlns="http://www.w3.org/2000/svg"><path d="M160.636 78.408v-8.46h-5.812v8.46h5.812Z" fill="url(#a)"/><path d="M160.636 55.982h-5.812v13.965h5.812V55.982Z" fill="#fff"/><path d="M149.541 60.837a8.048 8.048 0 0 0-.905-1.692 7.881 7.881 0 0 0-4.12-2.975c-1.008-.341-2.239-.495-3.658-.495-1.846 0-3.418.308-4.751.906a7.126 7.126 0 0 0-3.077 2.512 6.436 6.436 0 0 0-1.077 3.556h5.709v-.154c0-.342.103-.684.291-.974a2.27 2.27 0 0 1 .974-.821c.461-.222 1.06-.342 1.829-.342.82 0 1.453.103 1.931.342.411.188.769.461 1.077.786.257.342.462.735.564 1.146h5.726a16.143 16.143 0 0 0-.513-1.795Z" fill="url(#b)"/><path d="M150.653 71.485a6.596 6.596 0 0 1-1.094 3.727c-.735 1.093-1.778 1.948-3.145 2.563-1.368.616-3.043.923-5.026.923-1.555 0-2.888-.188-3.982-.546a8.51 8.51 0 0 1-2.718-1.385 7.79 7.79 0 0 1-1.709-1.812 8.786 8.786 0 0 1-.94-1.829 12.468 12.468 0 0 1-.496-1.948h5.88c.137.513.359.991.649 1.418.342.428.77.752 1.248.975.564.29 1.333.427 2.308.427 1.196 0 2.034-.24 2.495-.684.462-.444.718-.94.718-1.47a1.394 1.394 0 0 0-.53-1.162c-.359-.29-.974-.513-1.846-.65l-2.991-.478a16.147 16.147 0 0 1-3.675-1.06 6.912 6.912 0 0 1-2.803-2.085c-.718-.906-1.077-2.103-1.077-3.573v-.188h5.709c.034.496.359.94.82 1.129.65.307 1.334.512 2.052.615l3.145.513c1.196.188 2.375.547 3.469 1.076a6.707 6.707 0 0 1 2.564 2.12c.65.906.975 2.034.975 3.384Z" fill="#fff"/><path d="m114.331 56-7.452 22.425h6.051l1.179-3.76 1.556-4.957 1.726-5.504.872-2.786 1.692-5.419h-5.624Z" fill="url(#c)"/><path d="M129.628 78.425h-6.051l-1.179-3.76h-8.273l1.555-4.957h5.162l-2.581-8.29 1.71-5.419h2.205l7.452 22.426Z" fill="#fff"/><path d="m171.745 56-7.452 22.425h6.051l1.179-3.76 1.556-4.957 1.726-5.504.872-2.786 1.692-5.419h-5.624Z" fill="url(#d)"/><path d="M187.042 78.425h-6.051l-1.196-3.76h-8.256l1.555-4.957h5.162l-2.581-8.29 1.693-5.419h2.222l7.452 22.426Z" fill="#fff"/><path d="M104.392 26.02a13.088 13.088 0 0 0-4.154.614v6.478a6.041 6.041 0 0 1 1.06-1.025c.82-.615 1.863-.923 3.094-.923 1.248 0 2.29.308 3.111.923.495.359.923.803 1.265 1.299V26.72a12.693 12.693 0 0 0-4.376-.7Z" fill="url(#e)"/><path d="M116.049 37.506c0 1.435-.239 2.871-.735 4.222a10.846 10.846 0 0 1-2.188 3.709 10.697 10.697 0 0 1-3.657 2.632c-1.453.65-3.145.974-5.094.974-1.949 0-3.641-.325-5.094-.974a10.7 10.7 0 0 1-3.64-2.632 11.487 11.487 0 0 1-2.205-3.71 12.281 12.281 0 0 1-.752-4.221c0-1.436.256-2.855.752-4.188a11.114 11.114 0 0 1 2.205-3.692 10.526 10.526 0 0 1 3.623-2.615c.308-.137.616-.257.94-.36v6.462a6.01 6.01 0 0 0-.803 1.35 7.683 7.683 0 0 0 0 6.085 5.709 5.709 0 0 0 1.863 2.393c.821.615 1.863.923 3.094.923 1.231 0 2.29-.307 3.111-.923a5.708 5.708 0 0 0 1.863-2.393 7.833 7.833 0 0 0 0-6.085 5.116 5.116 0 0 0-.598-1.077V26.72c.239.086.478.171.7.29a10.875 10.875 0 0 1 3.658 2.616 10.788 10.788 0 0 1 2.188 3.692c.53 1.35.769 2.752.769 4.188Z" fill="#fff"/><path d="M124.597 48.752v-8.46h-5.812v8.46h5.812Z" fill="url(#f)"/><path d="M124.597 26.327h-5.812V40.29h5.812V26.327Z" fill="#fff"/><path d="M141.978 26.327v12.46l-.017-.017v9.486l.359.513h5.418V26.327h-5.76Z" fill="url(#g)"/><path d="M141.963 38.753v9.486L134.1 36.924v11.828h-5.76V26.327h5.367l8.256 12.426Z" fill="#fff"/><path d="M151.258 26.327v9.862h5.811v-4.837h10.427v-5.025h-16.238Z" fill="url(#h)"/><path d="M166.128 36.206v4.82h-9.059v7.727h-5.811V36.19h5.811v.017h9.059Z" fill="#fff"/><path d="M170.984 26.327v22.425h5.812V26.327h-5.812Z" fill="url(#i)"/><path d="M187.393 43.71h-10.581v5.025h10.581V43.71ZM185.872 34.993h-9.06v4.786h9.06v-4.786ZM187.239 26.327h-10.427v5.025h10.427v-5.025Z" fill="#fff"/><path d="M207.956 31.198a6.933 6.933 0 0 0-.906-1.675 7.921 7.921 0 0 0-4.103-2.991c-1.008-.342-2.239-.496-3.675-.496-1.846 0-3.418.308-4.751.906-1.334.598-2.359 1.453-3.077 2.513a6.338 6.338 0 0 0-1.077 3.538h5.709v-.154c0-.342.103-.684.291-.974a2.27 2.27 0 0 1 .974-.82c.461-.223 1.06-.343 1.829-.343.82 0 1.453.12 1.931.342.411.188.77.462 1.077.787.257.341.462.717.581 1.128h5.726a12.235 12.235 0 0 0-.529-1.76Z" fill="url(#j)"/><path d="M209.084 41.847a6.596 6.596 0 0 1-1.094 3.726c-.735 1.094-1.778 1.932-3.145 2.564-1.368.616-3.043.923-5.043.923-1.555 0-2.888-.188-3.982-.547a8.521 8.521 0 0 1-2.718-1.384 7.79 7.79 0 0 1-1.709-1.812 8.789 8.789 0 0 1-.94-1.829 12.58 12.58 0 0 1-.496-1.949h5.88c.137.513.359.992.649 1.42.342.426.77.751 1.248.973.564.291 1.333.428 2.308.428 1.196 0 2.034-.222 2.495-.684.479-.461.718-.94.718-1.47a1.394 1.394 0 0 0-.53-1.162c-.359-.29-.974-.513-1.846-.65l-2.991-.478a16.147 16.147 0 0 1-3.675-1.06 6.912 6.912 0 0 1-2.803-2.085c-.718-.906-1.077-2.103-1.077-3.573v-.17h5.743c.034.495.359.94.821 1.128a7.11 7.11 0 0 0 2.051.615l3.145.513a12.4 12.4 0 0 1 3.47 1.076 6.722 6.722 0 0 1 2.564 2.12c.632.889.957 2.017.957 3.367Z" fill="#fff"/><path d="M217.102 26.327v5.025h.017v17.383h5.811V26.327h-5.828Z" fill="url(#k)"/><path d="M229.715 26.327h-6.785v5.025h6.785v-5.025ZM217.085 26.327h-6.769v5.025h6.769v-5.025Z" fill="#fff"/><path d="M84 40.462a6.01 6.01 0 0 1-.787 1.676 3.963 3.963 0 0 1-1.436 1.162c-.65.342-1.521.513-2.58.513-1.266 0-2.325-.325-3.163-.975a5.866 5.866 0 0 1-1.897-2.478c-.052-.137-.12-.274-.154-.41h-6.444c.12.547.273 1.094.462 1.64a11.846 11.846 0 0 0 2.239 3.863 10.638 10.638 0 0 0 3.709 2.735c1.487.684 3.23 1.026 5.196 1.026 1.692 0 3.128-.205 4.324-.633a9.419 9.419 0 0 0 2.992-1.623 8.618 8.618 0 0 0 1.897-2.12c.427-.666.786-1.367 1.06-2.102.239-.684.427-1.368.564-2.085 0-.069.017-.12.034-.171l-6.017-.017Z" fill="url(#l)"/><path d="M89.982 33.984H84a6.01 6.01 0 0 0-.787-1.675 4.01 4.01 0 0 0-1.435-1.18c-.65-.341-1.522-.512-2.581-.512-1.265 0-2.325.325-3.163.957a5.664 5.664 0 0 0-1.897 2.479 8.164 8.164 0 0 0-.154 5.897h-6.46a12.92 12.92 0 0 1 .46-7.11 11.694 11.694 0 0 1 2.24-3.83 10.854 10.854 0 0 1 3.71-2.734c1.486-.684 3.23-1.026 5.195-1.026 1.692 0 3.128.222 4.325.632a9.422 9.422 0 0 1 2.991 1.624 9.245 9.245 0 0 1 1.897 2.103c.428.666.787 1.367 1.06 2.12.256.717.444 1.47.581 2.255Z" fill="#fff"/><defs><linearGradient id="g" x1="144.849" y1="26.326" x2="144.849" y2="48.76" gradientUnits="userSpaceOnUse"><stop stop-color="#fff"/><stop offset=".08" stop-color="#fff" stop-opacity=".96"/><stop offset=".2" stop-color="#fff" stop-opacity=".85"/><stop offset=".35" stop-color="#fff" stop-opacity=".68"/><stop offset=".54" stop-color="#fff" stop-opacity=".44"/><stop offset=".75" stop-color="#fff" stop-opacity=".14"/><stop offset=".84" stop-color="#fff" stop-opacity="0"/></linearGradient><linearGradient id="a" x1="160.631" y1="74.174" x2="154.819" y2="74.174" gradientUnits="userSpaceOnUse"><stop stop-color="#fff"/><stop offset=".08" stop-color="#fff" stop-opacity=".96"/><stop offset=".2" stop-color="#fff" stop-opacity=".85"/><stop offset=".35" stop-color="#fff" stop-opacity=".68"/><stop offset=".54" stop-color="#fff" stop-opacity=".44"/><stop offset=".75" stop-color="#fff" stop-opacity=".14"/><stop offset=".84" stop-color="#fff" stop-opacity="0"/></linearGradient><linearGradient id="c" x1="108.685" y1="79.169" x2="118.527" y2="55.407" gradientUnits="userSpaceOnUse"><stop stop-color="#fff"/><stop offset=".08" stop-color="#fff" stop-opacity=".96"/><stop offset=".2" stop-color="#fff" stop-opacity=".85"/><stop offset=".35" stop-color="#fff" stop-opacity=".68"/><stop offset=".54" stop-color="#fff" stop-opacity=".44"/><stop offset=".75" stop-color="#fff" stop-opacity=".14"/><stop offset=".84" stop-color="#fff" stop-opacity="0"/></linearGradient><linearGradient id="d" x1="166.096" y1="79.168" x2="175.939" y2="55.407" gradientUnits="userSpaceOnUse"><stop stop-color="#fff"/><stop offset=".08" stop-color="#fff" stop-opacity=".96"/><stop offset=".2" stop-color="#fff" stop-opacity=".85"/><stop offset=".35" stop-color="#fff" stop-opacity=".68"/><stop offset=".54" stop-color="#fff" stop-opacity=".44"/><stop offset=".75" stop-color="#fff" stop-opacity=".14"/><stop offset=".84" stop-color="#fff" stop-opacity="0"/></linearGradient><linearGradient id="e" x1="104.502" y1="33.392" x2="104.502" y2="26.029" gradientUnits="userSpaceOnUse"><stop stop-color="#fff"/><stop offset=".08" stop-color="#fff" stop-opacity=".96"/><stop offset=".2" stop-color="#fff" stop-opacity=".85"/><stop offset=".35" stop-color="#fff" stop-opacity=".68"/><stop offset=".54" stop-color="#fff" stop-opacity=".44"/><stop offset=".75" stop-color="#fff" stop-opacity=".14"/><stop offset=".84" stop-color="#fff" stop-opacity="0"/></linearGradient><linearGradient id="f" x1="124.6" y1="44.518" x2="118.789" y2="44.518" gradientUnits="userSpaceOnUse"><stop stop-color="#fff"/><stop offset=".08" stop-color="#fff" stop-opacity=".96"/><stop offset=".2" stop-color="#fff" stop-opacity=".85"/><stop offset=".35" stop-color="#fff" stop-opacity=".68"/><stop offset=".54" stop-color="#fff" stop-opacity=".44"/><stop offset=".75" stop-color="#fff" stop-opacity=".14"/><stop offset=".84" stop-color="#fff" stop-opacity="0"/></linearGradient><linearGradient id="b" x1="131.934" y1="59.157" x2="150.025" y2="59.157" gradientUnits="userSpaceOnUse"><stop stop-color="#fff" stop-opacity="0"/><stop offset=".3" stop-color="#fff" stop-opacity=".36"/><stop offset=".59" stop-color="#fff" stop-opacity=".68"/><stop offset=".8" stop-color="#fff" stop-opacity=".89"/><stop offset=".9" stop-color="#fff" stop-opacity=".97"/><stop offset="1" stop-color="#fff"/></linearGradient><linearGradient id="h" x1="151.263" y1="31.26" x2="167.501" y2="31.26" gradientUnits="userSpaceOnUse"><stop stop-color="#fff" stop-opacity="0"/><stop offset=".3" stop-color="#fff" stop-opacity=".36"/><stop offset=".59" stop-color="#fff" stop-opacity=".68"/><stop offset=".8" stop-color="#fff" stop-opacity=".89"/><stop offset=".9" stop-color="#fff" stop-opacity=".97"/><stop offset="1" stop-color="#fff"/></linearGradient><linearGradient id="i" x1="173.897" y1="26.326" x2="173.897" y2="48.748" gradientUnits="userSpaceOnUse"><stop stop-color="#fff" stop-opacity="0"/><stop offset=".3" stop-color="#fff" stop-opacity=".36"/><stop offset=".59" stop-color="#fff" stop-opacity=".68"/><stop offset=".8" stop-color="#fff" stop-opacity=".89"/><stop offset=".9" stop-color="#fff" stop-opacity=".97"/><stop offset="1" stop-color="#fff"/></linearGradient><linearGradient id="j" x1="190.359" y1="29.508" x2="208.455" y2="29.508" gradientUnits="userSpaceOnUse"><stop stop-color="#fff" stop-opacity="0"/><stop offset=".3" stop-color="#fff" stop-opacity=".36"/><stop offset=".59" stop-color="#fff" stop-opacity=".68"/><stop offset=".8" stop-color="#fff" stop-opacity=".89"/><stop offset=".9" stop-color="#fff" stop-opacity=".97"/><stop offset="1" stop-color="#fff"/></linearGradient><linearGradient id="k" x1="220.016" y1="26.326" x2="220.016" y2="48.748" gradientUnits="userSpaceOnUse"><stop stop-color="#fff" stop-opacity="0"/><stop offset=".3" stop-color="#fff" stop-opacity=".36"/><stop offset=".59" stop-color="#fff" stop-opacity=".68"/><stop offset=".8" stop-color="#fff" stop-opacity=".89"/><stop offset=".9" stop-color="#fff" stop-opacity=".97"/><stop offset="1" stop-color="#fff"/></linearGradient><linearGradient id="l" x1="89.985" y1="44.57" x2="67.495" y2="44.57" gradientUnits="userSpaceOnUse"><stop stop-color="#fff"/><stop offset=".08" stop-color="#fff" stop-opacity=".96"/><stop offset=".2" stop-color="#fff" stop-opacity=".85"/><stop offset=".35" stop-color="#fff" stop-opacity=".68"/><stop offset=".54" stop-color="#fff" stop-opacity=".44"/><stop offset=".75" stop-color="#fff" stop-opacity=".14"/><stop offset=".84" stop-color="#fff" stop-opacity="0"/></linearGradient></defs></svg>