<svg xmlns="http://www.w3.org/2000/svg" width="297" height="104" fill="none"><g clip-path="url(#a)"><path fill="#fff" d="M182.562 38.489a18.865 18.865 0 0 0-13.424-5.56h-60.259v38.143h79.243v-19.16a18.857 18.857 0 0 0-5.56-13.424Zm2.29 29.276h-9.458V51.97a6.33 6.33 0 0 0-12.659 0v15.797h-25.266a15.808 15.808 0 0 1-15.794-15.792v15.792h-9.463V36.181h9.463v15.794a15.808 15.808 0 0 1 15.792-15.794h15.794v9.463h-15.792a6.33 6.33 0 1 0 0 12.659h15.792V51.97a15.794 15.794 0 0 1 31.587 0l.004 15.795Z"/></g><defs><clipPath id="a"><path fill="#fff" d="M108.879 32.929h79.243v38.143h-79.243z"/></clipPath></defs></svg>