<svg width="32" height="32" viewBox="0 0 32 32" fill="none" xmlns="http://www.w3.org/2000/svg">
<path d="M4 24.5773C4 21.9077 5.9398 19.6339 8.57605 19.2131L8.81351 19.1752C10.9245 18.8383 13.0755 18.8383 15.1865 19.1752L15.424 19.2131C18.0601 19.6339 20 21.9077 20 24.5773C20 25.7312 19.0645 26.6667 17.9107 26.6667H6.08929C4.93541 26.6667 4 25.7312 4 24.5773Z" stroke="#12E582" stroke-width="3"/>
<path d="M16.6666 10C16.6666 12.5773 14.5773 14.6667 12 14.6667C9.42265 14.6667 7.33331 12.5773 7.33331 10C7.33331 7.42268 9.42265 5.33334 12 5.33334C14.5773 5.33334 16.6666 7.42268 16.6666 10Z" stroke="#12E582" stroke-width="3"/>
<path d="M20 14.6667C22.5773 14.6667 24.6667 12.5773 24.6667 10C24.6667 7.42268 22.5773 5.33334 20 5.33334M23.1865 26.6667H25.9107C27.0645 26.6667 28 25.7312 28 24.5773C28 21.9077 26.0601 19.6339 23.424 19.2131C23.2659 19.1879 23.1057 19.1752 22.9457 19.1752C22.5193 19.1752 22.3869 19.1752 21.6549 19.1752" stroke="#12E582" stroke-width="3" stroke-linecap="round"/>
</svg>
