<svg width="196" height="42" viewBox="0 0 196 42" fill="none" xmlns="http://www.w3.org/2000/svg">
<g clip-path="url(#clip0_2232_12720)">
<g clip-path="url(#clip1_2232_12720)">
<path d="M92.4721 16.243C92.1285 16.2339 91.785 16.2187 91.4202 16.2521C91.4506 16.4741 91.5053 16.6686 91.4992 16.8754C91.4931 17.0821 91.4566 17.2828 91.3776 17.4743C90.9793 18.4654 89.9426 18.5597 89.2707 18.1006C88.8694 17.83 88.7812 17.4044 88.9028 16.8267C88.9333 16.6899 89.0366 16.5714 89.0062 16.3981C88.6779 16.3798 88.4164 16.5197 88.1702 16.693C88.0516 16.775 87.9573 16.8906 87.8509 16.9879C87.7232 17.1004 87.6837 17.2402 87.6868 17.4105C87.6959 17.9668 87.6868 18.5262 87.6898 19.0826C87.6898 20.0889 87.6898 21.0952 87.6898 22.1015C87.6898 22.2323 87.6807 22.366 87.7263 22.4968C87.8296 22.7886 88.0455 22.9467 88.3343 23.0075C88.6414 23.0744 88.9485 23.12 89.2677 23.1747C89.3498 23.2629 89.2798 23.3754 89.3072 23.4605C89.2282 23.5426 84.3972 23.5548 83.9594 23.4879C83.8986 23.418 83.9594 23.3207 83.9321 23.2781C83.8743 23.2082 83.8439 23.2386 83.8196 23.2568C83.0078 23.8862 82.1262 23.877 81.2171 23.5183C80.8797 23.3845 80.6456 23.117 80.4419 22.8282C80.3993 22.7704 80.3628 22.7065 80.3142 22.6305C80.1075 22.8129 79.922 22.9984 79.7153 23.1565C78.8306 23.8284 77.8638 23.9834 76.8149 23.5882C76.6203 23.5152 76.4683 23.3693 76.295 23.2751C76.2524 23.2842 76.2099 23.2933 76.2099 23.3359C76.2068 23.4636 76.1673 23.5304 76.0153 23.5213C75.7599 23.5092 75.5046 23.5183 75.2492 23.5183C74.4222 23.5183 73.5953 23.5183 72.7714 23.5183C72.4613 23.5183 72.4674 23.5183 72.3853 23.2325C72.0995 22.2444 71.7316 21.2928 71.1722 20.4233C71.0537 20.2379 70.9016 20.0828 70.7466 19.9278C70.6584 19.8396 70.552 19.7788 70.4365 19.7423C70.1598 19.6541 69.8923 19.8457 69.8923 20.1345C69.8923 20.8611 69.8984 21.5908 69.8923 22.3174C69.8923 22.6822 70.0565 22.9102 70.4 23.0197C70.5824 23.0774 70.7648 23.1413 70.9533 23.1626C71.0202 23.272 70.9989 23.3754 70.9837 23.4696C70.9412 23.5244 70.8925 23.5213 70.8439 23.5213C69.4697 23.5213 68.0985 23.5213 66.7244 23.5213C66.5906 23.5213 66.4568 23.5092 66.3231 23.5244C66.1498 23.5456 66.1315 23.4301 66.1042 23.2659C65.5296 23.7585 64.8607 23.7919 64.1766 23.725C63.4592 23.6521 62.9636 23.2295 62.6018 22.6184C62.3464 22.8494 62.1458 23.0957 61.8782 23.269C60.9479 23.8649 59.969 24.0169 58.9596 23.5092C58.306 23.1778 57.9715 22.6032 57.9472 21.8644C57.929 21.2807 58.0384 20.7395 58.4306 20.2774C58.6829 19.9825 59.0022 19.794 59.3548 19.6633C60.0328 19.4109 60.7169 19.1829 61.3948 18.9367C61.6989 18.8272 61.9998 18.6965 62.3008 18.5749C62.4772 18.5049 62.5623 18.3925 62.5532 18.1888C62.5349 17.7783 62.541 17.3649 62.544 16.9514C62.544 16.7294 62.4984 16.5197 62.4316 16.3129C62.2795 15.8326 61.9786 15.6258 61.48 15.6532C61.1942 15.6684 60.9358 15.7535 60.7199 15.9785C60.7989 16.2521 60.878 16.5257 60.957 16.7994C60.9692 16.845 60.9874 16.8906 60.9966 16.9392C61.0847 17.4956 60.8932 17.8756 60.3794 18.1219C59.9234 18.3408 59.443 18.3803 58.9718 18.1766C58.3941 17.9273 58.0992 17.1125 58.5097 16.5166C58.8319 16.0454 59.3092 15.787 59.823 15.5894C60.7564 15.2306 61.7201 15.1455 62.7113 15.2762C63.0487 15.3188 63.3801 15.3644 63.7024 15.4738C64.5688 15.7718 64.9853 16.4102 65.0918 17.2888C65.1526 17.7814 65.1556 18.2739 65.11 18.7694C65.0705 19.2164 65.0978 19.6663 65.0857 20.1132C65.0705 20.6696 65.0462 21.2259 65.0218 21.7823C65.0127 22.0194 65.0766 22.2414 65.2042 22.4329C65.4931 22.8616 65.9613 22.74 66.1254 22.3691C66.2592 22.062 66.2774 21.7397 66.3291 21.4205C66.3383 21.3628 66.3383 21.302 66.3413 21.2411C66.472 21.156 66.6027 21.2199 66.7274 21.1955C66.8277 21.7245 66.7031 22.2353 66.2592 23.1443C66.5237 23.1504 66.7669 23.0866 66.9919 22.9741C67.229 22.8555 67.3142 22.6245 67.3446 22.3752C67.3537 22.29 67.3476 22.2049 67.3476 22.1198C67.3476 18.9184 67.3476 15.717 67.3476 12.5157C67.3476 12.2208 67.299 11.9441 67.1561 11.6796C67.0345 11.4546 66.8551 11.2996 66.6119 11.2327C66.3899 11.1719 66.168 11.1233 65.943 11.0807C65.7089 11.0351 65.7089 11.0381 65.715 10.7311C65.8883 10.7067 66.0616 10.6703 66.241 10.6611C66.8338 10.6277 67.4267 10.6034 68.0195 10.576C68.5272 10.5517 69.0349 10.5213 69.5457 10.5031C69.8406 10.4939 69.8771 10.5365 69.8892 10.8284C69.8892 10.9013 69.8892 10.9743 69.8892 11.0473C69.8892 13.7014 69.8892 16.3585 69.8892 19.0127C69.8892 19.1282 69.868 19.2498 69.9227 19.3957C70.4395 18.8789 70.9442 18.3894 71.4306 17.8817C71.7651 17.5321 72.0721 17.1551 72.3883 16.7872C72.443 16.7234 72.4886 16.6504 72.5312 16.5774C72.7015 16.2856 72.6498 16.1336 72.3397 16.0211C72.1481 15.9511 71.9536 15.8903 71.7438 15.866C71.4489 15.8326 71.4489 15.8235 71.458 15.5012C71.5006 15.4404 71.5644 15.4495 71.6222 15.4495C72.8018 15.4495 73.9784 15.4495 75.158 15.4495C75.2492 15.4495 75.3586 15.4161 75.4164 15.5286C75.4802 15.6562 75.4316 15.7991 75.2887 15.8478C75.0607 15.9238 74.8235 15.9785 74.5955 16.0576C73.954 16.2765 73.3946 16.6352 72.9052 17.0912C72.5981 17.3801 72.3123 17.6962 71.9992 18.0185C72.1603 18.1249 72.3184 18.2283 72.4734 18.3377C72.9751 18.6995 73.3308 19.186 73.65 19.7028C74.103 20.4355 74.4009 21.2381 74.7202 22.0316C74.7415 22.0863 74.7749 22.1411 74.7871 22.1988C74.9482 22.8586 75.4437 23.0774 76.0487 23.1504C76.067 23.1504 76.0883 23.1291 76.1248 23.1109C75.9484 22.8525 75.7539 22.6001 75.7052 22.2809C75.611 21.6364 75.6262 21.0071 76.0123 20.4355C76.2038 20.1558 76.4592 19.9612 76.7541 19.8092C77.3044 19.5295 77.8972 19.3623 78.4749 19.1556C78.9856 18.9762 79.4994 18.809 79.995 18.5809C80.1956 18.4897 80.2899 18.3742 80.2747 18.1432C80.2534 17.7692 80.2656 17.3922 80.2656 17.0152C80.2656 16.7477 80.2078 16.4862 80.1135 16.24C79.8825 15.6167 78.9795 15.4373 78.5053 15.9086C78.4201 15.9937 78.4384 16.0728 78.4688 16.1731C78.5478 16.4133 78.6177 16.6534 78.6877 16.8967C78.8184 17.3436 78.6755 17.7023 78.3168 17.9881C77.8546 18.356 76.9973 18.4107 76.5321 18.1036C76.0366 17.7783 75.8755 17.073 76.1825 16.5683C76.3619 16.2704 76.6203 16.0515 76.9183 15.8843C77.6479 15.4738 78.4323 15.258 79.2684 15.2306C79.9494 15.2093 80.6213 15.2549 81.281 15.4373C82.2478 15.7049 82.7373 16.4315 82.8011 17.377C82.8649 18.3316 82.8345 19.2924 82.7859 20.25C82.7585 20.7821 82.7585 21.3141 82.7342 21.8462C82.7251 22.0316 82.7707 22.2049 82.8589 22.366C82.9805 22.588 83.1568 22.7035 83.4213 22.6761C83.6615 22.6488 83.777 22.4998 83.85 22.29C83.9321 22.062 83.9898 21.831 83.9929 21.5847C83.9959 21.2594 83.9351 21.1439 84.4367 21.2138C84.531 21.7154 84.4185 22.1836 83.9655 23.1443C84.2513 23.1322 84.528 23.0987 84.7712 22.971C84.9323 22.8859 85.0539 22.7521 85.0843 22.5484C85.1056 22.4056 85.133 22.2657 85.133 22.1198C85.133 20.5085 85.133 18.8941 85.133 17.2828C85.133 17.149 85.1178 17.0213 85.0904 16.8875C84.9809 16.3464 84.6557 16.0454 84.1206 15.9451C84.0506 15.9329 83.9777 15.9238 83.9047 15.9086C83.7801 15.8843 83.7649 15.7931 83.774 15.6897C83.7801 15.5924 83.8257 15.5286 83.926 15.5225C83.999 15.5164 84.0719 15.5194 84.1449 15.5134C84.4215 15.4982 84.7012 15.4829 84.9779 15.4647C85.7988 15.4161 86.6227 15.3826 87.4435 15.3218C87.5773 15.3127 87.6746 15.4191 87.6807 15.5833C87.6898 15.8022 87.6807 16.0211 87.6807 16.2369C87.6807 16.3464 87.6807 16.4528 87.6807 16.6018C87.8874 16.3859 88.0638 16.1944 88.2431 16.012C88.684 15.5681 89.219 15.2914 89.8453 15.2549C90.1706 15.2367 90.4959 15.2945 90.7787 15.483C90.8638 15.5377 90.9459 15.6167 91.0462 15.483C91.1009 15.413 91.2073 15.4525 91.2894 15.4525C91.6786 15.4525 92.0647 15.4525 92.4386 15.4525C92.5359 15.3583 92.5025 15.2549 92.5025 15.1637C92.5025 14.5101 92.5025 13.8534 92.5025 13.1997C92.5025 12.9231 92.5086 12.914 92.7883 12.914C93.5027 12.914 94.2202 12.914 94.9103 12.914C95.0228 12.99 94.9894 13.0842 94.9894 13.1633C94.9894 13.8291 94.9894 14.4979 94.9894 15.1637C94.9894 15.4404 95.0046 15.4525 95.2752 15.4556C95.8346 15.4556 96.394 15.4556 96.9534 15.4556C97.2088 15.4556 97.224 15.4708 97.224 15.7201C97.224 16.3069 97.2756 16.2308 96.7284 16.2339C96.242 16.2339 95.7555 16.2339 95.2691 16.2339C95.0107 16.2339 94.9924 16.2491 94.9924 16.4953C94.9924 18.0003 94.9833 19.5021 94.9985 21.0071C94.9985 21.305 95.0168 21.609 95.1201 21.9009C95.3086 22.436 95.8559 22.6883 96.4183 22.4724C96.6798 22.3721 96.7953 22.1411 96.8683 21.8918C96.926 21.6941 96.9503 21.4904 96.9564 21.2837C96.9625 21.0891 97.2179 20.9766 97.379 21.0891C97.4337 21.1256 97.4459 21.1864 97.4429 21.2503C97.3486 22.4968 96.7467 23.6764 95.1505 23.7463C94.7279 23.7645 94.3084 23.7524 93.8949 23.6125C93.1622 23.3602 92.7427 22.8494 92.5663 22.1137C92.4964 21.8158 92.4842 21.5178 92.4842 21.2138C92.4842 19.6846 92.4842 18.1584 92.4842 16.6291C92.4842 16.5105 92.5086 16.3889 92.4508 16.2491L92.4721 16.243ZM80.2777 18.9853C79.8764 19.1647 79.5146 19.2984 79.1893 19.5113C78.785 19.7727 78.4992 20.1254 78.3928 20.5936C78.2924 21.0435 78.2529 21.5026 78.3776 21.9556C78.5569 22.6001 79.0008 22.8738 79.6818 22.5941C79.9615 22.4816 80.1652 22.2444 80.1987 21.9434C80.3051 20.9827 80.2504 20.0129 80.2777 18.9883V18.9853ZM62.5532 19.0096C62.1883 19.1373 61.8296 19.3015 61.4921 19.5082C61.0695 19.7666 60.7959 20.1406 60.6925 20.6209C60.5983 21.0618 60.6074 21.5117 60.6834 21.9526C60.7321 22.2323 60.8719 22.4846 61.1395 22.6153C61.7505 22.9133 62.5228 22.4147 62.538 21.7306C62.5592 20.8733 62.5136 20.0159 62.6018 19.1586C62.6079 19.1099 62.6048 19.0613 62.5532 19.0066V19.0096Z" fill="white"/>
<path d="M15.5973 13.1147C15.2355 13.0874 8.93921 13.0782 8.34332 13.1026C8.17915 13.3944 5.25445 22.0652 4.78929 23.6339C5.04771 23.7099 7.72616 23.7373 9.0517 23.6765C9.12466 23.3877 9.07602 23.0867 9.08514 22.7918C9.09426 22.4908 9.08514 22.1868 9.08514 21.8858C9.34356 21.825 11.0126 21.8098 11.4504 21.8675V27.869H9.1429V26.0813C9.10946 26.0448 9.10338 26.0327 9.09426 26.0266C9.08514 26.0205 9.07298 26.0144 9.06082 26.0144C6.55871 26.0144 4.0566 26.0144 1.5332 26.0144V10.7251H17.9322C18.0021 10.9835 18.0325 16.6688 17.9657 17.7541C17.9109 17.6507 17.8684 17.5778 17.8288 17.4987C17.3454 16.5319 16.6979 15.6898 15.8405 15.027C15.6399 14.872 15.5821 14.7108 15.5912 14.4767C15.6034 14.0298 15.5943 13.5829 15.5943 13.1147H15.5973ZM3.91979 18.8456C4.11436 18.5081 5.84729 13.4279 5.87769 13.1117H3.91979V18.8456Z" fill="white"/>
<path d="M12.0103 27.8934C12.0103 27.109 12.0103 26.3703 12.0103 25.6345C12.0103 25.4977 12.0772 25.4521 12.1988 25.4156C13.804 24.9444 14.8955 23.9046 15.391 22.3237C15.8562 20.8462 15.619 19.4324 14.6978 18.1647C13.9773 17.1736 12.9923 16.5503 11.7914 16.3375C10.2439 16.0608 8.86972 16.4743 7.71444 17.5566C7.59891 17.663 7.4925 17.7786 7.38001 17.8941C7.30401 17.8029 7.37393 17.736 7.39825 17.663C7.74484 16.6263 8.09751 15.5896 8.43193 14.5468C8.4897 14.3644 8.59306 14.2732 8.76332 14.2185C9.54466 13.9692 10.3412 13.881 11.159 13.8962C12.6761 13.9266 14.0229 14.4252 15.2177 15.3342C16.5554 16.3527 17.4158 17.6965 17.811 19.326C17.9235 19.7942 17.9904 20.2716 17.9904 20.758C17.9843 24.0445 17.9904 27.3279 17.9904 30.6144C17.9904 30.6843 18.0117 30.7573 17.957 30.8424H1.52148V26.6621H3.88678V28.4133C4.23945 28.4954 13.6307 28.5258 15.5309 28.4589C15.6008 28.2066 15.5947 26.6773 15.5126 26.3095C14.4881 27.1334 13.348 27.6776 12.0103 27.8904V27.8934Z" fill="white"/>
<path d="M105.984 23.0108C106.163 22.9804 106.34 22.95 106.51 22.8831C106.765 22.7797 106.93 22.6094 106.978 22.3297C107.003 22.1869 107.024 22.044 107.021 21.898C107.021 19.0372 107.021 16.1763 107.021 13.3124C107.021 13.2273 107.021 13.1422 107.015 13.057C106.978 12.6679 106.787 12.4156 106.397 12.297C105.993 12.1754 105.589 12.0659 105.175 11.993C105.133 11.8561 105.136 11.7406 105.166 11.6281C105.26 11.5582 105.361 11.5886 105.452 11.5886C107.48 11.5886 109.511 11.5886 111.539 11.5886C112.414 11.5886 113.284 11.6555 114.117 11.9565C114.685 12.1632 115.187 12.4703 115.53 12.9871C115.777 13.358 115.904 13.7685 115.938 14.2123C116.023 15.3433 115.707 16.3192 114.819 17.0701C114.418 17.4107 113.962 17.6569 113.469 17.8393C112.724 18.116 111.949 18.2498 111.155 18.2741C110.769 18.2862 110.38 18.2741 110.021 18.2741C109.918 18.3653 109.948 18.4565 109.948 18.5386C109.948 19.6543 109.955 20.7701 109.942 21.8859C109.936 22.424 110.146 22.801 110.778 22.9348C111.028 22.9864 111.274 23.0412 111.526 23.0868C111.754 23.1293 111.754 23.1263 111.76 23.3573C111.76 23.4029 111.776 23.4546 111.721 23.5063C111.618 23.5489 111.496 23.5246 111.377 23.5246C109.48 23.5246 107.586 23.5246 105.689 23.5246C105.555 23.5246 105.422 23.5306 105.288 23.5367C105.081 23.5154 105.136 23.3573 105.142 23.2388C105.148 23.1202 105.239 23.0837 105.346 23.0898C105.561 23.105 105.771 23.0442 105.981 23.0108H105.984ZM109.961 17.7268C110.253 17.7147 110.508 17.7147 110.76 17.6873C111.666 17.59 112.384 17.1005 112.663 16.149C112.812 15.6382 112.812 15.1244 112.8 14.6045C112.791 14.1789 112.724 13.7624 112.563 13.3641C112.335 12.7925 111.94 12.3973 111.332 12.2271C110.885 12.0994 110.432 12.0902 109.958 12.1176V17.7268H109.961Z" fill="white"/>
<path d="M36.8795 16.5958C36.9707 16.6079 37.0072 16.5319 37.0559 16.4863C37.22 16.3252 37.3781 16.1549 37.5514 16.0029C38.4149 15.249 39.406 15.0513 40.5005 15.3675C41.072 15.5317 41.452 15.9208 41.6953 16.4559C41.9081 16.9272 41.9841 17.4227 41.9841 17.9365C41.9841 19.2225 41.9841 20.5055 41.9841 21.7915C41.9841 21.8888 41.9841 21.9861 41.9841 22.0834C41.9841 22.7614 42.1391 22.9499 42.808 23.1019C42.9114 23.1262 43.0147 23.1566 43.112 23.184C43.1576 23.2873 43.1394 23.3816 43.1303 23.4728C43.0664 23.5366 39.3056 23.5609 38.5517 23.5032C38.5152 23.3025 38.5831 23.184 38.7554 23.1475C38.8374 23.1292 38.9226 23.114 39.0016 23.0897C39.2114 23.0228 39.3543 22.8982 39.3999 22.6641C39.4212 22.5425 39.4333 22.4239 39.4333 22.3053C39.4333 20.8612 39.4333 19.4202 39.4333 17.976C39.4333 17.6842 39.3847 17.3984 39.2965 17.1217C39.0533 16.3647 38.576 16.2279 37.8737 16.4316C37.4997 16.5411 37.22 16.7934 37.0072 17.1187C36.8978 17.2859 36.8461 17.4592 36.8461 17.6629C36.8522 19.1557 36.8491 20.6454 36.8491 22.1381C36.8491 22.1989 36.8522 22.2597 36.8491 22.3205C36.837 22.7188 37.0498 22.9499 37.4085 23.0715C37.5332 23.114 37.6609 23.1444 37.7916 23.1809C37.8311 23.2873 37.822 23.3907 37.8007 23.5062H33.1735C33.1157 23.4089 33.1492 23.3116 33.1492 23.2022C33.3529 23.108 33.5839 23.108 33.7998 23.0441C34.1464 22.9438 34.2893 22.7158 34.3166 22.3844C34.3227 22.2992 34.3227 22.2141 34.3227 22.129C34.3227 18.9155 34.3227 15.7019 34.3227 12.4915C34.3227 12.2969 34.3197 12.1054 34.2558 11.9169C34.1312 11.546 33.9062 11.2906 33.511 11.1994C33.2525 11.1416 33.0002 11.0686 32.7539 11.0443C32.6658 10.9379 32.7266 10.8406 32.6992 10.7464C32.7448 10.7281 32.7752 10.7068 32.8087 10.7038C33.0488 10.6825 33.2921 10.6612 33.5322 10.6491C34.4534 10.6004 35.3716 10.5518 36.2928 10.5062C36.3901 10.5001 36.4873 10.4971 36.5846 10.4971C36.8005 10.5001 36.837 10.5366 36.8491 10.7464C36.8522 10.8193 36.8491 10.8923 36.8491 10.9653C36.8491 12.7225 36.8491 14.4828 36.8491 16.2401C36.8491 16.3586 36.8218 16.4802 36.8735 16.5958H36.8795Z" fill="white"/>
<path d="M31.4493 23.117C31.4949 23.2569 31.4797 23.3724 31.4736 23.5031H24.7121C24.6878 23.3815 24.6908 23.263 24.7121 23.1353C25.0891 23.0745 25.4722 23.0258 25.8461 22.9529C26.3964 22.8464 26.6032 22.5911 26.6062 22.0225C26.6123 21.4054 26.6062 20.7852 26.6062 20.168C26.6062 17.6325 26.6062 15.0999 26.6062 12.5644C26.6062 12.4337 26.6062 12.3029 26.6062 12.1479C26.0225 12.1205 25.4661 12.1266 24.9219 12.236C24.6665 12.2877 24.4841 12.4853 24.3139 12.6738C23.7909 13.2454 23.4291 13.9112 23.1403 14.6196C23.113 14.6865 23.0826 14.7503 23.0491 14.8233H22.6113V11.6128H33.5501V14.8294H33.1305C33.0332 14.7442 33.0089 14.5953 32.9512 14.4676C32.6502 13.7896 32.2945 13.1481 31.7715 12.6069C31.5435 12.3698 31.2851 12.2117 30.9537 12.1874C30.4977 12.1509 30.0417 12.1236 29.5491 12.1509V12.534C29.5491 15.6016 29.5491 18.6692 29.5491 21.7368C29.5491 21.8097 29.5491 21.8827 29.5491 21.9557C29.5643 22.4816 29.7832 22.7613 30.291 22.886C30.6649 22.9772 31.0388 23.0714 31.4462 23.1231L31.4493 23.117Z" fill="white"/>
<path d="M49.2352 22.5092C49.144 22.1809 49.1075 21.8495 49.1166 21.5059C49.144 20.4449 50.053 19.8216 51.0684 19.9828C51.643 20.074 52.0565 20.3962 52.2359 20.9496C52.4152 21.5059 52.2724 22.0228 51.9014 22.4666C51.7008 22.7068 51.4697 22.9196 51.1292 23.0656C51.4819 23.2905 51.8224 23.2632 52.1447 23.2115C52.771 23.1112 53.1875 22.719 53.4216 22.1474C53.6101 21.6883 53.7195 21.2019 53.7195 20.7033C53.7286 18.1951 53.7256 15.6839 53.7286 13.1757C53.7286 12.7501 53.528 12.4704 53.1419 12.3062C52.8166 12.1694 52.473 12.1055 52.1355 12.0295C51.8406 11.9657 51.8376 11.9778 51.865 11.6069H58.3802C58.4227 11.7255 58.4075 11.8441 58.3893 11.9809C58.0883 12.0447 57.7843 12.1025 57.4803 12.1724C56.8114 12.3275 56.6442 12.5372 56.6412 13.2274C56.6412 15.4711 56.6412 17.7117 56.6412 19.9554C56.6412 20.6972 56.4648 21.3874 56.0635 22.0136C55.5072 22.8801 54.6924 23.3848 53.7195 23.6675C53.3091 23.7861 52.8865 23.8469 52.47 23.853C51.7342 23.8651 50.9955 23.8074 50.3084 23.4882C50.0895 23.3878 49.8797 23.2662 49.7034 23.096C49.6486 23.0443 49.597 22.9987 49.5179 23.0048C49.4875 22.8041 49.3629 22.6582 49.2412 22.5092H49.2352Z" fill="white"/>
<path d="M105.984 23.0109C105.774 23.0443 105.567 23.1051 105.348 23.0899C105.242 23.0838 105.151 23.1203 105.145 23.2389C105.139 23.3575 105.081 23.5155 105.291 23.5368C105.072 23.6736 104.829 23.7344 104.573 23.7375C104.257 23.7405 103.941 23.7679 103.631 23.701C103.084 23.5794 102.658 23.2906 102.357 22.8133C102.32 22.7555 102.308 22.6734 102.199 22.64C102.062 22.7707 101.922 22.9197 101.77 23.0504C100.937 23.774 99.9794 23.9837 98.9305 23.6584C97.8938 23.3362 97.4287 22.3815 97.5898 21.3418C97.7236 20.4784 98.2222 19.9311 99.0339 19.6453C99.7605 19.3869 100.484 19.1255 101.211 18.867C101.484 18.7697 101.752 18.6664 102.01 18.5326C102.141 18.4657 102.211 18.3897 102.211 18.2286C102.217 17.6965 102.193 17.1645 102.144 16.6355C102.132 16.5048 102.092 16.374 102.044 16.2524C101.849 15.7599 101.42 15.5501 100.901 15.69C100.867 15.6991 100.831 15.7113 100.797 15.7204C100.353 15.8663 100.326 15.9241 100.466 16.368C100.536 16.5869 100.575 16.8118 100.633 17.0307C100.73 17.4047 100.584 17.6783 100.335 17.9063C99.873 18.3259 99.3045 18.3867 98.7299 18.2316C98.0337 18.0401 97.6324 17.0672 98.2465 16.374C98.6113 15.9606 99.0765 15.7052 99.5842 15.5319C100.478 15.2279 101.396 15.1488 102.339 15.2704C102.664 15.313 102.989 15.3556 103.296 15.4559C104.096 15.7174 104.555 16.2889 104.692 17.1067C104.823 17.8881 104.771 18.6755 104.722 19.4599C104.71 19.6545 104.71 19.846 104.704 20.0406C104.686 20.6212 104.695 21.2019 104.655 21.7826C104.637 22.0471 104.695 22.3116 104.892 22.5184C105.163 22.8011 105.513 22.7677 105.713 22.4363C105.847 22.2143 105.905 21.9681 105.926 21.7157C105.938 21.5607 105.941 21.4026 105.95 21.2354C106.078 21.1685 106.209 21.205 106.361 21.1989C106.413 21.585 106.349 21.9468 106.251 22.3055C106.185 22.5518 106.057 22.7707 105.978 23.0109H105.984ZM102.199 19.0038C101.801 19.1437 101.439 19.2957 101.107 19.5085C100.67 19.7882 100.402 20.1743 100.299 20.6942C100.223 21.0803 100.22 21.4664 100.274 21.8434C100.314 22.1231 100.414 22.4089 100.691 22.5731C101.001 22.7585 101.329 22.7372 101.621 22.5731C101.919 22.4028 102.147 22.1687 102.15 21.7735C102.15 21.1959 102.138 20.6152 102.193 20.0375C102.223 19.7061 102.199 19.3656 102.199 19.0038Z" fill="white"/>
<path d="M115.117 19.4718C115.114 18.7847 115.239 18.1219 115.537 17.4987C115.987 16.5592 116.707 15.8934 117.683 15.5377C118.835 15.1182 120.012 15.0908 121.179 15.4891C122.584 15.9664 123.426 16.9514 123.739 18.3925C123.964 19.4262 123.882 20.4355 123.466 21.4084C123.004 22.4847 122.198 23.1961 121.085 23.5487C119.991 23.8953 118.887 23.9166 117.805 23.5122C116.345 22.965 115.482 21.904 115.193 20.3747C115.135 20.0768 115.12 19.7728 115.12 19.4718H115.117ZM117.966 19.4079C117.96 19.9856 117.972 20.5784 118.057 21.1682C118.136 21.7185 118.249 22.2597 118.531 22.7552C118.966 23.5123 120.024 23.5335 120.456 22.737C120.678 22.3266 120.812 21.8888 120.878 21.4358C121.076 20.0981 121.085 18.7573 120.882 17.4196C120.821 17.0122 120.708 16.617 120.498 16.2583C120.03 15.4617 119.033 15.4435 118.528 16.2157C118.367 16.462 118.267 16.7325 118.191 17.0122C117.984 17.7936 117.96 18.5901 117.963 19.4079H117.966Z" fill="white"/>
<path d="M49.2339 22.5093C49.3586 22.6582 49.4802 22.8042 49.5106 23.0048C48.6532 23.6737 47.6682 23.8743 46.6072 23.771C46.1359 23.7253 45.6768 23.625 45.239 23.4365C44.2358 23.0018 43.5669 22.2478 43.2295 21.2172C42.819 19.9555 42.819 18.6938 43.3723 17.4686C43.9226 16.2555 44.8803 15.541 46.1876 15.3039C46.9477 15.1671 47.7016 15.2036 48.4495 15.4255C49.5197 15.7447 50.1733 16.4562 50.4895 17.505C50.5747 17.7847 50.5959 18.0736 50.6263 18.3624C50.6446 18.5387 50.6294 18.7211 50.6294 18.9309H45.6829C45.6829 19.1042 45.6829 19.244 45.6829 19.3839C45.686 19.9311 45.768 20.4662 45.9079 20.9952C45.9961 21.3266 46.139 21.6306 46.3366 21.9103C46.7075 22.4272 47.2152 22.6947 47.8445 22.7342C48.3218 22.7646 48.787 22.7008 49.2278 22.5062L49.2339 22.5093ZM47.9357 18.4293C47.9449 17.8395 47.9205 17.2983 47.8415 16.7602C47.808 16.5413 47.7594 16.3315 47.653 16.14C47.349 15.5806 46.6801 15.5137 46.2575 15.9971C46.1602 16.1096 46.0903 16.2342 46.0325 16.368C45.7589 17.0247 45.7012 17.7148 45.686 18.4293H47.9357Z" fill="white"/>
<path d="M132.182 16.2311H130.738C130.71 16.1915 130.686 16.1733 130.686 16.155C130.692 15.9392 130.592 15.6747 130.729 15.5227C130.868 15.3646 131.142 15.474 131.355 15.4649C131.619 15.4528 131.887 15.4649 132.167 15.4649C132.24 15.1822 132.191 14.9025 132.2 14.6288C132.209 14.3491 132.2 14.0725 132.2 13.7928V12.9719C132.303 12.8898 132.404 12.9294 132.498 12.9263C133.155 12.9233 133.811 12.9233 134.468 12.9263C134.708 12.9263 134.714 12.9324 134.717 13.1695C134.717 13.7989 134.717 14.4312 134.717 15.0606C134.717 15.1791 134.717 15.2977 134.717 15.4406C135.097 15.4923 135.459 15.4588 135.818 15.4649C136.171 15.471 136.52 15.4649 136.891 15.4649C136.961 15.7081 136.897 15.9483 136.94 16.225C136.551 16.225 136.192 16.2311 135.833 16.2311C135.471 16.2311 135.11 16.2311 134.772 16.2311C134.696 16.3435 134.72 16.4317 134.72 16.5138C134.72 18.043 134.72 19.5692 134.72 21.0985C134.72 21.3538 134.73 21.6062 134.812 21.8524C135 22.3997 135.411 22.6368 135.976 22.5182C136.219 22.4666 136.39 22.3206 136.493 22.0987C136.596 21.8768 136.639 21.6396 136.654 21.3964C136.672 21.065 136.678 21.065 137.019 21.0711C137.052 21.0711 137.086 21.0833 137.119 21.0893C137.171 22.7402 136.183 23.6553 134.976 23.7435C134.578 23.7739 134.182 23.7678 133.793 23.6675C132.972 23.4607 132.486 22.9317 132.273 22.123C132.188 21.8008 132.185 21.4754 132.185 21.1501C132.185 19.6452 132.185 18.1434 132.185 16.6384C132.185 16.5199 132.185 16.3983 132.185 16.2311H132.182Z" fill="white"/>
<path d="M129.598 15.6714C129.747 15.5316 129.729 15.3279 129.859 15.2458C129.99 15.1607 130.166 15.2245 130.352 15.2123C130.373 15.4525 130.397 15.6866 130.413 15.9237C130.455 16.5288 130.41 17.1338 130.486 17.7357C130.498 17.8269 130.513 17.9455 130.379 17.9698C130.261 17.9911 130.136 17.9941 130.084 17.8361C129.984 17.5107 129.817 17.2158 129.628 16.9331C129.382 16.5683 129.087 16.2491 128.719 16.0028C128.364 15.7657 127.974 15.6623 127.546 15.7109C127.12 15.7596 126.795 15.9694 126.688 16.3828C126.5 17.1125 126.64 17.6111 127.309 17.9364C127.679 18.1188 128.072 18.2404 128.461 18.3742C129.035 18.5688 129.589 18.8059 130.054 19.2133C130.54 19.642 130.817 20.171 130.872 20.8155C130.999 22.3447 130.078 23.3146 128.719 23.652C127.543 23.9439 126.412 23.8162 125.354 23.2051C125.126 23.0744 125.107 23.0835 124.971 23.3267C124.946 23.3693 124.919 23.4088 124.904 23.4544C124.846 23.6186 124.733 23.6733 124.566 23.649C124.484 23.6368 124.399 23.649 124.317 23.649C124.25 23.3693 124.171 21.0465 124.217 20.6452C124.524 20.5996 124.524 20.5996 124.636 20.8611C124.955 21.6059 125.384 22.2748 126.019 22.7916C126.476 23.1656 126.992 23.3662 127.597 23.3146C128.169 23.2659 128.534 22.9558 128.664 22.3964C128.813 21.7458 128.628 21.2928 128.063 20.9401C127.698 20.7152 127.293 20.5875 126.892 20.4507C126.409 20.2834 125.937 20.098 125.512 19.8122C124.548 19.1646 124.241 18.0884 124.496 17.1094C124.721 16.2551 125.329 15.7353 126.138 15.4464C126.922 15.1667 127.728 15.1576 128.54 15.3279C128.911 15.4039 129.266 15.5133 129.613 15.6714H129.598Z" fill="white"/>
<path d="M47.9648 29.3831C47.8037 29.1825 47.6881 29.0305 47.6729 28.8268C47.6395 28.4102 47.8341 28.1032 48.2354 27.9664C48.5212 27.8691 48.8039 27.8569 49.0836 27.9846C49.1657 28.0241 49.2204 28.0393 49.3086 27.9816C49.4484 27.8873 49.6096 27.9573 49.6187 28.1153C49.6339 28.4163 49.6278 28.7204 49.6187 29.0213C49.6156 29.1125 49.5488 29.1794 49.4454 29.1673C49.3359 29.1581 49.2204 29.1369 49.2052 28.997C49.1961 28.8997 49.2113 28.8024 49.2052 28.7082C49.187 28.4954 49.0562 28.3525 48.8495 28.3099C48.7279 28.2856 48.6063 28.2856 48.4877 28.3099C48.2962 28.3494 48.1806 28.4741 48.1654 28.6504C48.1472 28.842 48.2202 28.9849 48.4147 29.0426C48.6458 29.1125 48.886 29.149 49.1201 29.2068C49.3907 29.2737 49.5974 29.4135 49.7129 29.6871C49.871 30.0641 49.6369 30.6175 49.1505 30.7816C48.8373 30.888 48.5303 30.8759 48.2323 30.7543C48.129 30.7117 48.0742 30.7147 47.98 30.7816C47.7672 30.9336 47.6152 30.8394 47.6182 30.5719C47.6212 30.3651 47.6547 30.1584 47.6182 29.9547C47.5726 29.6871 47.6182 29.4713 47.9709 29.3801L47.9648 29.3831ZM47.9344 29.3922C47.9739 29.5747 48.0317 29.7115 48.0378 29.8635C48.0651 30.3864 48.6215 30.6509 49.0684 30.3712C49.2143 30.28 49.2812 30.1462 49.2751 29.979C49.2691 29.7966 49.1505 29.678 48.9985 29.6355C48.661 29.5412 48.3144 29.4774 47.9314 29.3922H47.9344Z" fill="white"/>
<path d="M95.948 30.7176V31.052C96.024 31.1341 96.1 31.1007 96.1669 31.1007C96.2976 31.1007 96.331 31.201 96.3462 31.2922C96.3614 31.3712 96.2885 31.4199 96.2185 31.4442C96.1425 31.4746 96.0696 31.5172 95.9784 31.4837C95.7929 31.4138 95.5983 31.4138 95.4129 31.4776C95.3004 31.5172 95.2244 31.4776 95.1545 31.4077C95.0329 31.2922 95.0633 31.1584 95.2244 31.1007C95.2913 31.0763 95.3673 31.1219 95.4311 31.0703C95.4889 30.9973 95.4706 30.9091 95.4676 30.827C95.4402 30.3315 95.5132 29.842 95.5102 29.3464C95.5102 29.1032 95.5102 29.1002 95.2518 29.0394C95.1545 29.0181 95.0937 28.9695 95.0906 28.8752C95.0845 28.7566 95.1666 28.6958 95.273 28.6928C95.4555 28.6867 95.65 28.6563 95.8142 28.711C95.9358 28.7506 96.0057 28.7384 96.1121 28.6958C96.7263 28.4465 97.3404 28.8296 97.389 29.4893C97.4042 29.7052 97.4042 29.921 97.3313 30.1339C97.1397 30.6963 96.6807 30.9456 96.1152 30.7784C96.0696 30.7662 96.024 30.7449 95.954 30.7176H95.948ZM95.9449 29.7508C95.9449 29.8329 95.9449 29.8815 95.9449 29.9271C95.954 30.2494 96.0787 30.4136 96.3341 30.444C96.6259 30.4804 96.7992 30.3528 96.8996 30.0579C96.9817 29.8177 96.9604 29.5805 96.8935 29.3464C96.8296 29.1123 96.6715 28.9847 96.4557 28.9786C96.2489 28.9755 96.0787 29.1063 95.9905 29.3191C95.9267 29.4711 95.954 29.6292 95.9419 29.7508H95.9449Z" fill="white"/>
<path d="M83.3685 30.1824C83.5692 29.8115 83.6421 29.4437 83.7911 29.1335C83.7364 29.0119 83.6512 29.0575 83.5874 29.0454C83.4749 29.0241 83.4141 28.9542 83.4293 28.8417C83.4415 28.7505 83.5083 28.6958 83.6026 28.6836C83.6148 28.6836 83.6269 28.6836 83.6391 28.6836C83.9066 28.6836 84.1742 28.6836 84.4387 28.6866C84.5633 28.6866 84.6454 28.7505 84.6454 28.8873C84.6454 29.015 84.5633 29.0636 84.4569 29.0484C84.2866 29.0241 84.2562 29.1487 84.2106 29.2582C83.9948 29.8085 83.7881 30.3588 83.5388 30.8969C83.4141 31.1675 83.2378 31.3924 82.9672 31.5293C82.6054 31.7086 82.1281 31.5627 81.9882 31.2039C81.9122 31.0124 82.0278 30.8239 82.2436 30.7662C82.4199 30.7206 82.5507 30.8148 82.5932 31.0246C82.6024 31.0702 82.575 31.1219 82.6267 31.1553C83.0037 31.1127 83.1678 30.8908 83.0462 30.5594C82.8821 30.1064 82.6996 29.6626 82.5324 29.2126C82.4868 29.094 82.426 29.0302 82.2892 29.0515C82.2436 29.0575 82.1889 29.0515 82.1463 29.0332C82.0764 29.0028 82.0338 28.942 82.0369 28.8599C82.0399 28.793 82.0855 28.7505 82.1372 28.7201C82.1676 28.7018 82.2041 28.6927 82.2406 28.6927C82.5446 28.6927 82.8486 28.6866 83.1496 28.6927C83.2591 28.6927 83.3259 28.7626 83.329 28.8782C83.332 29.0028 83.2651 29.0515 83.1496 29.0545C83.1162 29.0545 83.0827 29.0697 83.028 29.0849C83.0888 29.4558 83.253 29.7842 83.3655 30.1885L83.3685 30.1824Z" fill="white"/>
<path d="M65.0688 28.699C65.1509 28.5896 65.1205 28.4832 65.1083 28.3798C65.0292 28.2886 64.9228 28.3433 64.8347 28.3251C64.7526 28.3068 64.707 28.2551 64.6918 28.1822C64.6796 28.1183 64.7283 28.0697 64.7708 28.0271C64.8377 27.9602 64.9228 27.9572 65.008 27.9602C65.5856 27.9937 65.619 27.8234 65.6038 28.5379C65.5947 29.0334 65.5978 29.532 65.6038 30.0276C65.6038 30.134 65.5826 30.2434 65.6282 30.3468C65.689 30.4137 65.7711 30.3651 65.8349 30.3863C65.9292 30.4198 66.0295 30.4684 66.0234 30.5809C66.0173 30.6995 65.9292 30.7877 65.8075 30.7846C65.6282 30.7846 65.4397 30.8272 65.2694 30.7542C65.1813 30.7177 65.1205 30.7208 65.0323 30.7481C64.3209 30.9731 63.8162 30.6752 63.6794 29.9516C63.576 29.4043 63.8618 28.7963 64.3026 28.6595C64.5702 28.5774 64.8225 28.6108 65.0748 28.699H65.0688ZM65.1205 29.7327C65.1144 29.6172 65.1083 29.4986 65.1052 29.377C65.0992 29.2128 65.011 29.1094 64.8681 29.0456C64.5884 28.9209 64.3391 29.0061 64.2175 29.2949C64.0989 29.5716 64.1111 29.8573 64.2175 30.137C64.2479 30.2191 64.3057 30.2799 64.3695 30.3377C64.5094 30.4715 64.6827 30.4623 64.8468 30.4137C65.008 30.3651 65.0992 30.2374 65.1113 30.061C65.1174 29.9516 65.1205 29.8452 65.1265 29.7297L65.1205 29.7327Z" fill="white"/>
<path d="M92.1516 30.3226C92.2489 30.429 92.3583 30.3652 92.4465 30.4138C92.5286 30.4594 92.5894 30.4989 92.5772 30.6023C92.565 30.6996 92.5103 30.7695 92.4191 30.7726C92.2276 30.7786 92.0269 30.7969 91.8445 30.7513C91.7411 30.727 91.6773 30.7361 91.583 30.7634C90.8473 30.9915 90.2788 30.578 90.2575 29.8058C90.2514 29.5869 90.2575 29.371 90.3578 29.1673C90.5828 28.6931 91.0419 28.5046 91.5374 28.687C91.5891 28.7052 91.6408 28.7295 91.7138 28.7569C91.7199 28.6748 91.7199 28.617 91.7259 28.5562C91.7411 28.389 91.6803 28.3039 91.4979 28.3221C91.3763 28.3343 91.2729 28.3009 91.2881 28.1488C91.3003 28.012 91.3976 27.9725 91.5192 27.9695C91.5922 27.9695 91.6651 27.9816 91.7381 27.9756C92.2306 27.933 92.1607 28.0759 92.1577 28.4255C92.1546 29.067 92.1577 29.7054 92.1577 30.3226H92.1516ZM91.7199 29.7815C91.7077 29.6142 91.7259 29.4805 91.6803 29.3497C91.6074 29.1278 91.4554 28.994 91.2395 28.9788C91.0388 28.9667 90.8503 29.0913 90.7652 29.3041C90.6527 29.5869 90.6649 29.8757 90.7774 30.1554C90.8656 30.3743 91.0662 30.4716 91.3094 30.4473C91.5192 30.4229 91.6317 30.3196 91.6864 30.0703C91.7107 29.9639 91.7107 29.8544 91.7199 29.7815Z" fill="white"/>
<path d="M104.351 28.7172C104.424 28.6291 104.412 28.5683 104.412 28.5075C104.412 28.3737 104.354 28.3038 104.211 28.322C104.187 28.3251 104.163 28.322 104.138 28.322C104.041 28.319 103.974 28.2795 103.971 28.173C103.968 28.0575 104.035 27.9815 104.141 27.9754C104.321 27.9633 104.503 27.9633 104.686 27.9754C104.801 27.9815 104.847 28.0666 104.847 28.1791C104.847 28.3615 104.841 28.5409 104.841 28.7233C104.841 29.2645 104.841 29.8087 104.841 30.3194C104.944 30.4289 105.05 30.3681 105.139 30.4137C105.224 30.4593 105.278 30.5019 105.269 30.6022C105.26 30.6964 105.202 30.7664 105.111 30.7724C104.944 30.7846 104.755 30.8241 104.61 30.7664C104.442 30.6995 104.315 30.742 104.172 30.7876C103.527 30.9944 102.998 30.5019 102.959 29.9151C102.943 29.6749 102.934 29.4347 103.032 29.2006C103.247 28.6716 103.764 28.5135 104.184 28.6656C104.239 28.6868 104.296 28.699 104.354 28.7142L104.351 28.7172ZM104.412 29.7175C104.403 29.6232 104.403 29.4895 104.375 29.3587C104.327 29.1398 104.157 28.9969 103.944 28.9787C103.758 28.9605 103.57 29.0699 103.479 29.2645C103.339 29.5685 103.348 29.8756 103.482 30.1766C103.579 30.3924 103.783 30.4806 104.026 30.4441C104.22 30.4137 104.354 30.2769 104.391 30.0489C104.406 29.9546 104.403 29.8573 104.412 29.7205V29.7175Z" fill="white"/>
<path d="M57.5252 28.3402C57.4036 28.3311 57.3185 28.3402 57.2394 28.3189C57.0935 28.2794 57.0661 28.1517 57.1695 28.0453C57.2333 27.9784 57.3093 27.9602 57.4006 27.9632C57.51 27.9693 57.6194 27.9693 57.7259 27.9693C58.0056 27.9693 58.0238 27.9906 58.0238 28.2824C58.0238 28.4132 57.9873 28.5439 58.042 28.702C58.2214 28.626 58.4069 28.5956 58.5984 28.6138C58.9055 28.6442 59.1517 28.7749 59.2946 29.0577C59.5561 29.5715 59.4831 30.061 59.17 30.52C58.9876 30.7876 58.5619 30.894 58.2245 30.8119C58.0846 30.7754 57.9569 30.6933 57.7867 30.7815C57.6499 30.8514 57.5404 30.745 57.5252 30.5778C57.5161 30.4592 57.5252 30.3376 57.5252 30.216C57.5252 29.6019 57.5252 28.9847 57.5252 28.3402ZM58.0177 29.7357C58.0177 29.8208 58.0116 29.9059 58.0177 29.988C58.036 30.2403 58.1606 30.4015 58.3552 30.4349C58.6014 30.4775 58.8082 30.365 58.8994 30.1248C59.0028 29.8573 59.0088 29.5836 58.9055 29.3131C58.8203 29.0942 58.6288 28.9604 58.4433 28.9847C58.2062 29.0151 58.0512 29.1671 58.0238 29.4104C58.0116 29.5168 58.0238 29.6262 58.0238 29.7357H58.0177Z" fill="white"/>
<path d="M108.209 30.3922C108.239 29.9635 108.239 29.5227 108.215 29.1001C108.115 28.9937 108.008 29.0606 107.92 29.0302C107.85 29.0028 107.792 28.9633 107.786 28.8781C107.777 28.7748 107.85 28.7079 107.932 28.7018C108.124 28.6866 108.334 28.6532 108.504 28.714C108.644 28.7657 108.729 28.7292 108.832 28.6805C109.03 28.5924 109.243 28.5772 109.434 28.6441C109.799 28.7717 109.972 28.9542 109.984 29.398C109.994 29.7112 109.984 30.0213 109.984 30.2949C110.066 30.4165 110.167 30.377 110.24 30.4165C110.325 30.4621 110.383 30.5047 110.37 30.605C110.358 30.7023 110.294 30.7509 110.206 30.7753C110.173 30.7844 110.133 30.7844 110.097 30.7813C109.866 30.7601 109.638 30.7449 109.41 30.7813C109.27 30.8057 109.194 30.6567 109.094 30.6628C109.002 30.6688 108.939 30.7996 108.808 30.7813C108.568 30.7449 108.324 30.7601 108.084 30.7753C107.92 30.7874 107.786 30.6901 107.783 30.5807C107.78 30.4712 107.911 30.4074 108.109 30.4226C108.13 30.4226 108.151 30.4074 108.206 30.3891L108.209 30.3922ZM108.698 30.4347C108.866 30.4043 109.008 30.4956 109.103 30.4834C109.227 30.4652 109.373 30.4317 109.534 30.4013C109.534 30.0395 109.544 29.6899 109.531 29.3433C109.522 29.1062 109.398 28.9876 109.176 28.9663C108.96 28.945 108.747 29.0727 108.707 29.2825C108.641 29.6504 108.619 30.0213 108.698 30.4347Z" fill="white"/>
<path d="M102.259 30.2949C102.325 30.3952 102.395 30.3709 102.447 30.3922C102.544 30.4317 102.672 30.459 102.642 30.608C102.611 30.7539 102.499 30.7874 102.365 30.7813C102.231 30.7722 102.097 30.7631 101.967 30.7631C101.857 30.7631 101.748 30.7752 101.641 30.7813C101.517 30.7874 101.426 30.7327 101.413 30.6019C101.401 30.453 101.502 30.4226 101.626 30.4256C101.672 30.4256 101.724 30.4378 101.79 30.3648C101.821 30.0395 101.818 29.6777 101.796 29.319C101.784 29.1122 101.651 28.9967 101.444 28.9724C101.246 28.948 101.03 29.0605 100.979 29.246C100.881 29.5987 100.9 29.9635 100.924 30.3253C100.93 30.3922 100.979 30.4286 101.049 30.4286C101.097 30.4286 101.146 30.4226 101.195 30.4286C101.277 30.4378 101.328 30.4803 101.334 30.5654C101.34 30.6475 101.31 30.7114 101.243 30.7479C101.204 30.7691 101.152 30.7843 101.106 30.7813C100.839 30.76 100.574 30.7661 100.307 30.7813C100.133 30.7904 100.042 30.7144 100.051 30.5989C100.064 30.459 100.161 30.4074 100.365 30.4286C100.386 30.4286 100.41 30.4226 100.471 30.4134C100.486 29.9756 100.495 29.5348 100.471 29.1061C100.398 28.9967 100.304 29.0545 100.228 29.0393C100.121 29.018 100.042 28.9693 100.054 28.8508C100.064 28.7565 100.137 28.6987 100.228 28.6957C100.41 28.6896 100.608 28.6531 100.766 28.7139C100.906 28.7687 100.988 28.7291 101.097 28.6835C101.319 28.5893 101.547 28.5832 101.766 28.6714C102.091 28.8021 102.256 29.0484 102.256 29.398C102.256 29.7111 102.256 30.0212 102.256 30.2918L102.259 30.2949Z" fill="white"/>
<path d="M89.5699 30.3439C89.6824 30.3803 89.7584 30.4047 89.8375 30.429C89.9165 30.4533 89.9561 30.505 89.953 30.5901C89.95 30.6904 89.8922 30.7512 89.804 30.7725C89.7341 30.7908 89.6611 30.7786 89.5882 30.7786C89.4058 30.7786 89.2264 30.7725 89.044 30.7786C88.9315 30.7816 88.8251 30.7938 88.746 30.6935C88.7096 30.6479 88.667 30.6327 88.6305 30.6813C88.5302 30.812 88.3964 30.7725 88.2626 30.7695C88.0681 30.7664 87.8765 30.7695 87.682 30.7756C87.4691 30.7786 87.3749 30.733 87.3658 30.6175C87.3567 30.4685 87.4631 30.4047 87.688 30.4229C87.7093 30.4229 87.7306 30.4077 87.7823 30.3895C87.8036 29.9577 87.8188 29.5169 87.7823 29.0974C87.7093 29.0001 87.6303 29.0426 87.5634 29.0366C87.4539 29.0274 87.3658 28.9818 87.3688 28.8663C87.3688 28.7356 87.4661 28.6839 87.5907 28.6839C87.7367 28.6839 87.8948 28.6474 88.0225 28.696C88.1866 28.7569 88.3082 28.7234 88.4572 28.6656C88.8038 28.5288 89.1838 28.6352 89.4119 28.9028C89.573 29.0943 89.5456 29.3315 89.5669 29.5534C89.5882 29.8057 89.573 30.0581 89.573 30.3378L89.5699 30.3439ZM88.2444 30.4138C88.4086 30.4351 88.5575 30.3773 88.6427 30.5232C88.6548 30.5445 88.6944 30.584 88.7156 30.5263C88.7886 30.3439 88.9923 30.4898 89.1048 30.3621C89.1048 30.0368 89.1139 29.6993 89.1048 29.3619C89.0957 29.0761 88.8555 28.9089 88.5819 28.9849C88.4025 29.0335 88.3022 29.1521 88.2657 29.3406C88.2018 29.6872 88.2231 30.0337 88.2444 30.4138Z" fill="white"/>
<path d="M93.3398 29.8267C93.3672 30.2463 93.5648 30.453 93.8841 30.45C94.0695 30.45 94.2124 30.374 94.2914 30.2007C94.3218 30.1368 94.3492 30.0669 94.3857 30.0061C94.4374 29.921 94.5195 29.9088 94.6076 29.9271C94.7019 29.9483 94.7566 30.0092 94.7596 30.1034C94.7627 30.1976 94.7596 30.2889 94.6958 30.377C94.3066 30.9182 93.4858 31.052 93.0358 30.4226C92.7592 30.0365 92.7896 29.5866 92.9902 29.164C93.2365 28.6502 93.8385 28.4647 94.3431 28.7353C94.6806 28.9147 94.7779 29.2309 94.8204 29.5683C94.8417 29.7477 94.7536 29.8237 94.5651 29.8237C94.1668 29.8267 93.7685 29.8237 93.3429 29.8237L93.3398 29.8267ZM93.3672 29.3981C93.8293 29.468 94.1273 29.4558 94.3401 29.3646C94.2671 29.1366 94.1121 28.9785 93.8749 28.9846C93.6348 28.9876 93.4523 29.1275 93.3672 29.3981Z" fill="white"/>
<path d="M98.2927 29.8239C98.3262 30.2374 98.5025 30.438 98.8035 30.4471C99.0041 30.4532 99.1592 30.3863 99.2474 30.1978C99.2778 30.134 99.3051 30.0641 99.3416 30.0033C99.3933 29.9181 99.4754 29.906 99.5666 29.9273C99.6608 29.9516 99.7156 30.0124 99.7095 30.1097C99.7064 30.1918 99.7247 30.2708 99.67 30.3529C99.2474 30.9579 98.4508 30.9853 98.0526 30.4988C97.7181 30.0914 97.7424 29.6354 97.937 29.1794C98.1042 28.7872 98.466 28.5926 98.9069 28.6139C99.2443 28.6291 99.6578 28.8693 99.7277 29.3435C99.7338 29.3922 99.7429 29.4378 99.752 29.4864C99.7976 29.7236 99.7277 29.8178 99.4815 29.8239C99.2869 29.83 99.0923 29.8239 98.8977 29.8239C98.7062 29.8239 98.5116 29.8239 98.2927 29.8239ZM99.3203 29.4347C99.22 29.1368 99.0619 28.9878 98.8065 28.9817C98.5937 28.9757 98.4265 29.1459 98.3505 29.4135C98.6576 29.4621 98.9616 29.4347 99.3203 29.4347Z" fill="white"/>
<path d="M73.5477 29.8606C73.794 30.1007 73.8031 30.274 73.569 30.5051C73.2772 30.7939 72.9367 30.9277 72.5141 30.7969C72.0884 30.6662 71.8969 30.3531 71.827 29.9518C71.7814 29.6873 71.8209 29.4197 71.9425 29.1765C72.1888 28.684 72.587 28.5411 73.0887 28.6323C73.4839 28.7053 73.7575 29.1066 73.7697 29.5444C73.7727 29.7146 73.7271 29.8271 73.5447 29.8606H73.5477ZM72.3225 29.8454C72.3529 30.1859 72.5019 30.3926 72.7238 30.4321C72.9914 30.4808 73.1191 30.4078 73.2832 30.0977C73.3319 30.0065 73.4049 29.9366 73.49 29.8454H72.3195H72.3225ZM73.2711 29.4288C73.2012 29.1279 73.0431 28.9789 72.8424 28.9819C72.6053 28.988 72.4472 29.1279 72.3773 29.4015C72.663 29.4532 72.9488 29.4167 73.2711 29.4288Z" fill="white"/>
<path d="M79.1108 29.8362C79.0439 30.046 79.123 30.1828 79.2324 30.2983C79.3358 30.4078 79.4756 30.4473 79.6276 30.4412C79.7888 30.4351 79.9043 30.3652 79.9834 30.2314C80.0016 30.201 80.0138 30.1676 80.032 30.1341C80.1445 29.9274 80.2539 29.8666 80.3847 29.9426C80.5032 30.0095 80.5276 30.198 80.4212 30.3652C80.2114 30.7027 79.8861 30.8547 79.503 30.8425C79.123 30.8334 78.8189 30.6388 78.6821 30.2861C78.5149 29.8544 78.5149 29.4136 78.7977 29.0092C79.0378 28.6627 79.4848 28.5137 79.8861 28.6505C80.2935 28.7873 80.5367 29.1278 80.5336 29.5565C80.5336 29.7663 80.4668 29.8362 80.2539 29.8392C80.0594 29.8423 79.8648 29.8392 79.6702 29.8392C79.4908 29.8392 79.3084 29.8392 79.1078 29.8392L79.1108 29.8362ZM80.035 29.4136C79.9469 29.1096 79.8009 28.9606 79.582 28.988C79.3479 29.0153 79.1655 29.1369 79.0895 29.4106C79.4179 29.441 79.7219 29.4349 80.035 29.4166V29.4136Z" fill="white"/>
<path d="M107.392 29.8391H106.036C106.079 30.2586 106.249 30.4502 106.568 30.4502C106.754 30.4502 106.9 30.3863 106.979 30.2069C107.003 30.1522 107.025 30.0944 107.052 30.0428C107.113 29.9303 107.216 29.8938 107.329 29.9364C107.45 29.982 107.474 30.0945 107.444 30.21C107.423 30.289 107.386 30.3681 107.338 30.438C107.122 30.7481 106.66 30.9032 106.28 30.7998C105.866 30.6873 105.611 30.3985 105.58 29.982C105.559 29.7083 105.544 29.4286 105.678 29.1672C105.89 28.7476 106.347 28.5196 106.8 28.6382C107.289 28.7659 107.505 29.1702 107.474 29.5837C107.468 29.6536 107.487 29.7296 107.392 29.8421V29.8391ZM107.034 29.4378C106.964 29.1368 106.803 28.9756 106.547 28.9878C106.313 29 106.128 29.1337 106.061 29.4195C106.383 29.459 106.69 29.4347 107.031 29.4378H107.034Z" fill="white"/>
<path d="M69.0335 30.4075V29.1428C69.0062 29.085 68.9241 29.1154 68.8541 29.1033C68.7265 29.082 68.6657 29.006 68.6717 28.8752C68.6778 28.7597 68.7477 28.6867 68.8541 28.6928C69.0335 28.705 69.073 28.5986 69.1065 28.4587C69.222 27.9693 69.7845 27.7443 70.204 28.0179C70.3043 28.0848 70.3955 28.1638 70.4107 28.3006C70.429 28.4405 70.3773 28.5347 70.2466 28.5864C70.1189 28.6351 69.9942 28.6199 69.9334 28.4922C69.8817 28.3827 69.8757 28.2459 69.6993 28.3098C69.526 28.3736 69.5139 28.5043 69.5443 28.6472C69.6385 28.7111 69.7267 28.6837 69.8088 28.6867C69.9273 28.6898 69.9851 28.7445 69.9912 28.8631C69.9973 28.9877 69.9517 29.0789 69.8209 29.1002C69.7389 29.1154 69.6537 29.1093 69.5504 29.1154V30.3315C69.5838 30.3923 69.6385 30.3741 69.6841 30.3771C69.824 30.3832 69.9213 30.4318 69.9152 30.5899C69.9091 30.7207 69.8392 30.7815 69.6659 30.7845C69.3983 30.7906 69.1338 30.7845 68.8663 30.7845C68.7477 30.7845 68.6474 30.7511 68.6231 30.6173C68.6048 30.517 68.7143 30.3984 68.8481 30.3771C68.9028 30.368 68.9606 30.3923 69.0366 30.4045L69.0335 30.4075Z" fill="white"/>
<path d="M61.8185 29.7113C61.8185 29.7965 61.8245 29.8816 61.8185 29.9637C61.7759 30.4136 61.4719 30.7298 60.9824 30.8301C60.6206 30.9061 60.1919 30.7116 60.0004 30.365C59.7663 29.9333 59.7785 29.4833 60.0065 29.0546C60.1919 28.702 60.654 28.5317 61.0766 28.6229C61.4597 28.705 61.7546 29.0242 61.8124 29.4225C61.8245 29.5168 61.8245 29.614 61.8276 29.7113C61.8245 29.7113 61.8215 29.7113 61.8154 29.7113H61.8185ZM61.3837 29.7205C61.3776 29.6232 61.3837 29.5259 61.3655 29.4316C61.3138 29.1641 61.1101 28.9878 60.8669 28.9847C60.6267 28.9847 60.4352 29.155 60.3531 29.4134C60.274 29.6566 60.3075 29.8907 60.3835 30.1187C60.4382 30.2799 60.5385 30.4167 60.7392 30.438C60.9459 30.4592 61.1222 30.4167 61.2499 30.2373C61.3624 30.0792 61.3867 29.9059 61.3837 29.7205Z" fill="white"/>
<path d="M77.5818 29.1001C77.4481 28.9329 77.2808 28.9876 77.1228 29.0423C76.9586 29.1001 76.8795 29.2491 76.8431 29.4011C76.7944 29.6139 76.8005 29.8358 76.84 30.0517C76.8826 30.2797 77.0468 30.4196 77.2596 30.4378C77.4815 30.456 77.6153 30.3648 77.7186 30.1125C77.7369 30.0669 77.746 30.0213 77.7673 29.9787C77.825 29.8632 77.9649 29.8054 78.0683 29.8662C78.1625 29.924 78.2112 30.0061 78.1808 30.1368C78.0227 30.8117 77.2504 31.061 76.6971 30.6202C76.2776 30.2888 76.2563 29.5622 76.4661 29.1214C76.7093 28.6106 77.4146 28.4586 77.8646 28.7596C78.1291 28.9329 78.2203 29.2369 78.0835 29.4801C77.9831 29.6595 77.819 29.7264 77.6639 29.6534C77.4937 29.5744 77.4541 29.4436 77.5393 29.2278C77.5545 29.1852 77.6001 29.1518 77.5879 29.0971L77.5818 29.1001Z" fill="white"/>
<path d="M111.317 28.6927C111.487 28.6927 111.617 28.6927 111.748 28.6927C111.876 28.6927 111.967 28.7475 111.967 28.8812C111.967 29.0059 111.876 29.0788 111.754 29.091C111.624 29.1062 111.49 29.0728 111.338 29.1184C111.298 29.471 111.323 29.8328 111.326 30.1916C111.326 30.2159 111.332 30.2402 111.341 30.2615C111.38 30.3527 111.417 30.4439 111.541 30.4348C111.66 30.4257 111.712 30.3497 111.724 30.2463C111.733 30.1733 111.733 30.1004 111.73 30.0274C111.724 29.9514 111.745 29.8875 111.773 29.8176C111.809 29.7173 111.885 29.7021 111.976 29.7021C112.077 29.7021 112.134 29.7507 112.159 29.845C112.229 30.1308 112.177 30.4165 111.998 30.6263C111.818 30.8331 111.538 30.8604 111.268 30.7753C111.079 30.7145 110.958 30.5868 110.924 30.3922C110.894 30.228 110.848 30.0669 110.86 29.8936C110.876 29.6899 110.864 29.4832 110.86 29.2765C110.86 29.1883 110.857 29.1001 110.736 29.094C110.596 29.088 110.541 28.9968 110.547 28.8782C110.55 28.7687 110.632 28.711 110.739 28.6927C110.772 28.6867 110.806 28.6714 110.836 28.6623C110.894 28.5103 110.821 28.3461 110.903 28.2002C110.955 28.109 111.016 28.033 111.128 28.0573C111.241 28.0816 111.332 28.1364 111.323 28.2762C111.317 28.3978 111.323 28.5164 111.323 28.6958L111.317 28.6927Z" fill="white"/>
<path d="M75.5958 29.1032C75.4924 29.009 75.386 28.9421 75.237 28.9968C75.085 29.0515 75.012 29.1579 74.9786 29.316C74.9087 29.6413 74.9421 29.9666 74.9512 30.2889C74.9512 30.374 74.9999 30.4348 75.1245 30.4044C75.2431 30.374 75.3677 30.4196 75.3708 30.5808C75.3738 30.7115 75.2948 30.7845 75.1336 30.7875C74.8539 30.7936 74.5773 30.7875 74.2976 30.7875C74.2733 30.7875 74.2489 30.7875 74.2246 30.7845C74.1212 30.751 74.0635 30.6872 74.0665 30.5716C74.0696 30.4622 74.1364 30.4348 74.2307 30.4196C74.4952 30.374 74.4982 30.371 74.4982 30.1217C74.4982 29.8329 74.4982 29.541 74.4982 29.2522C74.4982 29.1245 74.4587 29.0394 74.3097 29.0515C74.2854 29.0515 74.2611 29.0515 74.2368 29.0515C74.1243 29.0333 74.0604 28.9694 74.0696 28.8569C74.0817 28.7414 74.1608 28.6897 74.2702 28.6867C74.4283 28.6837 74.5864 28.6715 74.7414 28.6928C74.8783 28.711 74.9968 28.6989 75.1276 28.6533C75.3252 28.5864 75.5319 28.5894 75.7265 28.6897C76.0609 28.86 76.0944 29.1275 76.0123 29.4589C75.9849 29.5684 75.8967 29.6383 75.7842 29.6748C75.6535 29.7143 75.462 29.6444 75.4073 29.5288C75.3495 29.4042 75.4133 29.3221 75.5076 29.2522C75.5471 29.2248 75.5897 29.2005 75.5927 29.1093L75.5958 29.1032Z" fill="white"/>
<path d="M50.384 29.1673C50.3567 29.1278 50.3506 29.1126 50.3415 29.1095C50.1864 29.0943 50.0375 29.0457 50.0314 28.8694C50.0253 28.6565 50.2381 28.7204 50.3871 28.6505C50.3871 28.5319 50.384 28.4012 50.3871 28.2735C50.3932 28.1458 50.4935 28.0455 50.6121 28.0515C50.7428 28.0607 50.8036 28.1367 50.8036 28.2674C50.8036 28.2795 50.8036 28.2917 50.8036 28.3039C50.8279 28.6657 50.8279 28.6687 51.2019 28.69C51.3326 28.6991 51.4481 28.7143 51.4542 28.8785C51.4603 29.0214 51.3843 29.0791 51.1867 29.0882C51.0681 29.0943 50.9465 29.0639 50.8066 29.1247C50.8066 29.444 50.8066 29.7662 50.8066 30.0915C50.8066 30.1615 50.831 30.2314 50.8553 30.3013C50.8857 30.3925 50.9495 30.4351 51.0499 30.4351C51.138 30.4351 51.1745 30.3743 51.211 30.3074C51.2718 30.1949 51.2383 30.0702 51.2475 29.9517C51.2566 29.8149 51.2931 29.7115 51.4512 29.7024C51.5941 29.6933 51.664 29.7753 51.667 29.9669C51.667 30.1128 51.6609 30.2527 51.6093 30.3956C51.515 30.657 51.2444 30.8485 50.9799 30.8242C50.6242 30.7908 50.4114 30.5962 50.3932 30.2587C50.3749 29.9456 50.3871 29.6294 50.384 29.3163C50.384 29.2585 50.384 29.1977 50.384 29.1703V29.1673Z" fill="white"/>
<path d="M53.6606 28.3159C53.5329 28.3828 53.4448 28.3524 53.3566 28.3159C53.2715 28.2763 53.2198 28.2125 53.238 28.1183C53.2563 28.021 53.3292 27.9784 53.4204 27.9784C53.6485 27.9754 53.8734 27.9784 54.1258 27.9784V30.3376C54.1957 30.4592 54.2504 30.3954 54.3021 30.3893C54.442 30.3741 54.4997 30.4532 54.5088 30.5778C54.518 30.6933 54.4511 30.7724 54.3447 30.7754C54.0315 30.7845 53.7153 30.7785 53.4022 30.7754C53.3232 30.7754 53.2624 30.7268 53.2411 30.6538C53.2168 30.5626 53.2654 30.4927 53.3353 30.4349C53.4235 30.3589 53.5451 30.4136 53.6606 30.3559C53.6758 29.6901 53.6971 29.0303 53.6637 28.3189L53.6606 28.3159Z" fill="white"/>
<path d="M62.5389 30.3557V28.3795C62.4659 28.2913 62.3747 28.34 62.2957 28.3278C62.1832 28.3126 62.1133 28.2549 62.1163 28.1393C62.1163 28.042 62.1862 27.9752 62.2775 27.9691C62.4842 27.9569 62.6909 27.9569 62.8946 27.9691C62.9889 27.9752 63.0375 28.0542 63.0375 28.1485C63.0375 28.2579 63.0436 28.3674 63.0284 28.4738C62.9463 29.0149 63.0071 29.5622 62.9889 30.1033C62.9828 30.2675 63.0101 30.38 63.2199 30.3921C63.3263 30.3982 63.4236 30.4894 63.4023 30.6232C63.3811 30.7539 63.2777 30.7874 63.1591 30.7874C62.8916 30.7874 62.624 30.7874 62.3595 30.7874C62.3139 30.7874 62.2623 30.7783 62.2197 30.757C62.1528 30.7235 62.1133 30.6658 62.1133 30.5806C62.1133 30.4955 62.1528 30.453 62.2258 30.4165C62.317 30.3709 62.4173 30.3982 62.5389 30.3557Z" fill="white"/>
<path d="M55.5435 30.4135C55.8505 30.3953 55.9144 30.4287 55.9174 30.5838C55.9174 30.7358 55.8384 30.7935 55.6012 30.7783C55.3945 30.7662 55.1908 30.7631 54.9841 30.7783C54.9263 30.7844 54.8594 30.7844 54.8047 30.7662C54.7165 30.7358 54.6709 30.6689 54.674 30.5686C54.674 30.4804 54.7439 30.4591 54.8017 30.4135C54.8837 30.3466 54.9628 30.453 55.057 30.377C55.0722 29.7811 55.1391 29.1701 55.1087 28.5559C55.1026 28.4161 55.0662 28.2945 54.8746 28.3218C54.7682 28.337 54.677 28.2975 54.6831 28.1668C54.6861 28.033 54.7682 27.9722 54.8959 27.9722C54.9689 27.9722 55.0418 27.9752 55.1148 27.9874C55.2455 28.0087 55.3975 27.9053 55.5009 28.0087C55.6225 28.1303 55.5496 28.3097 55.5496 28.4617C55.5556 29.1032 55.5496 29.7447 55.5496 30.4166L55.5435 30.4135Z" fill="white"/>
<path d="M81.6864 30.3466C81.7533 30.4196 81.8475 30.3557 81.9235 30.4013C82.0026 30.4469 82.0725 30.5017 82.0603 30.5959C82.0482 30.6841 81.9874 30.7479 81.8992 30.7783C81.8779 30.7875 81.8536 30.7905 81.8293 30.7905C81.5526 30.7905 81.2729 30.7905 80.9962 30.7905C80.9172 30.7905 80.8564 30.7601 80.8108 30.6962C80.7439 30.602 80.7743 30.4773 80.8807 30.4257C80.9233 30.4044 80.9719 30.3922 81.0175 30.3831C81.0631 30.374 81.1118 30.377 81.1878 30.374V28.3644C81.1087 28.3005 81.0206 28.337 80.9415 28.3279C80.8442 28.3157 80.7865 28.2793 80.7804 28.1729C80.7774 28.0725 80.829 27.9874 80.9111 27.9813C81.1391 27.9661 81.3702 27.957 81.5952 27.9844C81.7229 28.0026 81.7198 28.1485 81.7016 28.258C81.6073 28.8934 81.6742 29.5349 81.656 30.1733C81.656 30.2341 81.6469 30.2949 81.6864 30.3466Z" fill="white"/>
<path d="M52.7394 30.3439C52.8519 30.3774 52.9309 30.3986 53.01 30.4199C53.089 30.4412 53.1316 30.4899 53.1346 30.575C53.1346 30.6753 53.0738 30.7331 52.9948 30.7665C52.9522 30.7848 52.9005 30.7817 52.8519 30.7787C52.6087 30.7543 52.3685 30.7604 52.1253 30.7787C51.9429 30.7908 51.8486 30.727 51.8517 30.6175C51.8547 30.4746 51.9429 30.4017 52.0797 30.3865C52.1374 30.3804 52.1982 30.3956 52.2682 30.3378C52.2682 29.9304 52.2682 29.5109 52.2682 29.0913C52.2074 28.9971 52.1131 29.0488 52.0341 29.0427C51.9216 29.0305 51.8486 28.9758 51.8517 28.8603C51.8517 28.7417 51.9429 28.6931 52.0462 28.69C52.2043 28.684 52.3594 28.687 52.5175 28.69C52.6938 28.6961 52.7394 28.7448 52.7424 28.9363C52.7424 29.2616 52.7424 29.5899 52.7394 29.9152C52.7394 30.049 52.7394 30.1797 52.7394 30.3409V30.3439Z" fill="white"/>
<path d="M86.3328 29.0515C86.2294 29.0454 86.1473 29.0454 86.0683 29.0333C85.9922 29.0211 85.9132 28.9755 85.9193 28.9025C85.9284 28.8144 85.9588 28.7019 86.0804 28.6958C86.2719 28.6867 86.4665 28.6867 86.6611 28.6958C86.7584 28.6988 86.807 28.7779 86.8131 28.8691C86.8192 28.9664 86.8101 29.0637 86.8101 29.1579C86.8101 29.5532 86.8101 29.9514 86.8101 30.371C86.9986 30.3831 87.1779 30.3801 87.2418 30.5808C87.1779 30.7328 87.0654 30.7996 86.9013 30.7784C86.6854 30.754 86.4665 30.748 86.2476 30.7784C86.0804 30.7996 85.9679 30.7358 85.9102 30.5838C85.974 30.3801 86.1564 30.3831 86.3328 30.371V29.0546V29.0515Z" fill="white"/>
<path d="M70.7257 29.0607C70.601 29.0516 70.5189 29.0546 70.4369 29.0394C70.3426 29.0212 70.294 28.9512 70.297 28.857C70.297 28.7749 70.3578 28.705 70.4247 28.6989C70.6406 28.6837 70.8625 28.6715 71.0784 28.6989C71.203 28.7141 71.2121 28.8479 71.2121 28.9634C71.206 29.3039 71.206 29.6414 71.203 29.9819C71.203 30.1004 71.203 30.222 71.203 30.3072C71.2881 30.4166 71.3854 30.3771 71.4614 30.4105C71.5526 30.4501 71.5982 30.4987 71.5921 30.599C71.5861 30.6994 71.5222 30.751 71.4401 30.7815C71.3976 30.7967 71.3429 30.7936 71.2972 30.7906C71.054 30.7693 70.8139 30.7784 70.5706 30.7906C70.4004 30.7967 70.3061 30.7267 70.3 30.6173C70.294 30.4896 70.3943 30.3893 70.5646 30.4136C70.7166 30.4349 70.7287 30.368 70.7287 30.2585C70.7287 29.8724 70.7287 29.4863 70.7287 29.0668L70.7257 29.0607Z" fill="white"/>
<path d="M66.6918 30.882C66.6493 30.8607 66.6097 30.8364 66.5672 30.8212C66.4091 30.7664 66.33 30.6631 66.3483 30.4928C66.3635 30.353 66.4517 30.2739 66.5672 30.2253C66.7101 30.1645 66.9016 30.2222 66.9989 30.3347C67.081 30.432 67.1235 30.5627 67.1114 30.6692C67.0779 30.9732 66.9624 31.2529 66.7162 31.4566C66.6675 31.4991 66.6067 31.5204 66.5489 31.49C66.4729 31.4505 66.4669 31.3684 66.4881 31.2985C66.5368 31.1525 66.6614 31.0401 66.6949 30.8759L66.6918 30.882Z" fill="white"/>
<path d="M71.2057 28.3129C71.2057 28.4619 71.0568 28.6078 70.9047 28.6017C70.7588 28.5956 70.6038 28.4497 70.5886 28.3129C70.5764 28.1761 70.7315 28.0362 70.8956 28.0332C71.0598 28.0332 71.2027 28.1579 71.2057 28.3129Z" fill="white"/>
<path d="M52.7456 28.3099C52.7517 28.4437 52.624 28.5744 52.472 28.5896C52.3352 28.6048 52.1619 28.4589 52.1437 28.3129C52.1284 28.1944 52.2774 28.0515 52.4264 28.0423C52.5936 28.0302 52.7395 28.1518 52.7456 28.3099Z" fill="white"/>
<path d="M86.2012 28.3341C86.3349 28.0848 86.4322 28.0058 86.5873 28.0453C86.715 28.0757 86.7971 28.1608 86.8123 28.2946C86.8305 28.4344 86.7363 28.5196 86.6268 28.5773C86.4991 28.6412 86.3897 28.5743 86.2012 28.3372V28.3341Z" fill="white"/>
</g>
</g>
<defs>
<clipPath id="clip0_2232_12720">
<rect width="195.2" height="40.406" fill="white" transform="translate(0.599609 0.9375)"/>
</clipPath>
<clipPath id="clip1_2232_12720">
<rect width="137" height="21" fill="white" transform="translate(0.599609 10.6401)"/>
</clipPath>
</defs>
</svg>
