<svg xmlns="http://www.w3.org/2000/svg" width="33" height="32" fill="none"><path fill="#D338BB" d="M4.501 12a1.334 1.334 0 0 0 1.334-1.333v-4a1.333 1.333 0 0 1 1.333-1.334h4a1.333 1.333 0 0 0 0-2.666h-4a4 4 0 0 0-4 4v4A1.333 1.333 0 0 0 4.501 12Zm6.667 14.667h-4a1.334 1.334 0 0 1-1.333-1.334v-4a1.333 1.333 0 1 0-2.667 0v4a4 4 0 0 0 4 4h4a1.334 1.334 0 0 0 0-2.666Zm12-9.334a1.334 1.334 0 0 0 0-2.666h-1.52a5.335 5.335 0 0 0-3.813-3.814v-1.52a1.334 1.334 0 0 0-2.667 0v1.52a5.334 5.334 0 0 0-3.813 3.814h-1.52a1.334 1.334 0 0 0 0 2.666h1.52a5.333 5.333 0 0 0 3.813 3.814v1.52a1.333 1.333 0 0 0 2.667 0v-1.52a5.334 5.334 0 0 0 3.813-3.814h1.52Zm-6.667 1.334a2.666 2.666 0 1 1 0-5.332 2.666 2.666 0 0 1 0 5.332Zm12 1.333a1.334 1.334 0 0 0-1.333 1.333v4a1.334 1.334 0 0 1-1.333 1.334h-4a1.333 1.333 0 0 0 0 2.666h4a4 4 0 0 0 4-4v-4A1.333 1.333 0 0 0 28.5 20ZM25.835 2.667h-4a1.333 1.333 0 1 0 0 2.666h4a1.333 1.333 0 0 1 1.333 1.334v4a1.334 1.334 0 0 0 2.667 0v-4a4 4 0 0 0-4-4Z"/></svg>