<svg width="33" height="32" fill="none" xmlns="http://www.w3.org/2000/svg"><path fill-rule="evenodd" clip-rule="evenodd" d="M24.57 5.21a1 1 0 0 1 1.224-.706 5 5 0 0 1 0 9.659 1 1 0 1 1-.518-1.932 3 3 0 0 0 0-5.795 1 1 0 0 1-.706-1.225ZM26.168 18.667a1 1 0 0 1 1-1h.41A4.333 4.333 0 0 1 31.6 20.39c1.139 2.846-.958 5.942-4.023 5.942h-.41a1 1 0 1 1 0-2h.41a2.333 2.333 0 0 0 0-4.666h-.41a1 1 0 0 1-1-1ZM8.43 5.21a1 1 0 0 0-1.224-.706 5 5 0 0 0 0 9.659 1 1 0 0 0 .518-1.932 3 3 0 0 1 0-5.795A1 1 0 0 0 8.43 5.21ZM6.833 18.667a1 1 0 0 0-1-1h-.41A4.333 4.333 0 0 0 1.4 20.39c-1.138 2.846.958 5.942 4.024 5.942h.41a1 1 0 0 0 0-2h-.41a2.333 2.333 0 1 1 0-4.666h.41a1 1 0 0 0 1-1ZM16.501 5a4.333 4.333 0 1 0 0 8.667 4.333 4.333 0 0 0 0-8.667Zm-6.333 4.333a6.333 6.333 0 1 1 12.667 0 6.333 6.333 0 0 1-12.667 0Z" fill="#D338BB"/><path fill-rule="evenodd" clip-rule="evenodd" d="M12.112 17.37h8.774a5 5 0 0 1 4.716 3.11l.015.035c.069.16.114.266.148.352 1.236 3.203-1.05 6.67-4.482 6.796-.092.004-.208.004-.382.004h-8.804c-.173 0-.29 0-.381-.004-3.432-.125-5.718-3.593-4.482-6.796.033-.086.079-.193.147-.352l.015-.035c.033-.076.055-.129.078-.178a5 5 0 0 1 4.444-2.93c.054-.002.111-.002.194-.002Zm.011 2-.162.001a3 3 0 0 0-2.731 1.907 11.88 11.88 0 0 0-.13.309 3 3 0 0 0 2.689 4.078c.05.002.126.002.334.002h8.752c.21 0 .285 0 .334-.002a3 3 0 0 0 2.69-4.078 10.76 10.76 0 0 0-.195-.458 3 3 0 0 0-2.666-1.758H12.123Z" fill="#D338BB"/></svg>