<svg width="32" height="32" viewBox="0 0 32 32" fill="none" xmlns="http://www.w3.org/2000/svg">
<path fill-rule="evenodd" clip-rule="evenodd" d="M6.39399 11.8815L10.5332 10.4214C9.67856 11.5718 8.94459 12.8071 8.34287 14.1076L6.39399 11.8815ZM3.51888 12.1218L7.35277 16.5021L6.79794 17.8903C6.7135 18.101 6.69268 18.3318 6.73807 18.5542C6.78345 18.7766 6.89305 18.9807 7.05329 19.1415L7.41892 19.506C5.44103 21.7345 4.34996 24.0662 3.29137 27.2396C3.22316 27.4441 3.21326 27.6635 3.26278 27.8733C3.3123 28.0832 3.41927 28.2751 3.57172 28.4275C3.72416 28.5799 3.91605 28.6869 4.12588 28.7364C4.3357 28.7859 4.55518 28.776 4.7597 28.7078C7.93312 27.6493 10.265 26.5582 12.4936 24.5805L12.8581 24.9449C13.0187 25.1053 13.2229 25.2151 13.4453 25.2608C13.6677 25.3064 13.8986 25.2857 14.1094 25.2014L15.4976 24.6466L19.8782 28.4803C20.0209 28.6053 20.1921 28.6934 20.3767 28.7369C20.5613 28.7803 20.7538 28.778 20.9373 28.7298C21.1208 28.6818 21.2897 28.5894 21.4292 28.4609C21.5687 28.3325 21.6747 28.1718 21.7377 27.9929L25.2036 18.1736C27.5057 15.4496 28.7686 11.9984 28.7682 8.432V4.39285C28.7682 4.08502 28.6459 3.7898 28.4283 3.57213C28.2106 3.35446 27.9153 3.23218 27.6075 3.23218H23.5682C20.0022 3.23168 16.5512 4.49407 13.8273 6.79545L4.00754 10.2624C3.82884 10.3255 3.6683 10.4314 3.53995 10.5708C3.41161 10.7103 3.31937 10.879 3.27128 11.0623C3.22319 11.2456 3.22072 11.4379 3.26408 11.6224C3.30744 11.8069 3.39532 11.9779 3.52004 12.1206L3.51888 12.1218ZM6.34873 25.6506C7.07766 23.891 7.89483 22.4913 9.06369 21.1506L10.8489 22.9358C9.50823 24.1046 8.10839 24.9217 6.34873 25.6506ZM13.9585 22.7629L13.3387 22.143L9.85646 18.661L9.23663 18.0412L10.0608 15.9811C10.8171 14.091 11.879 12.3382 13.204 10.7928L13.8726 10.0117C15.0714 8.6132 16.5586 7.49068 18.2323 6.72114C19.9058 5.95161 21.7261 5.55329 23.5682 5.55352H26.4468V8.432C26.447 10.2739 26.0487 12.0941 25.2791 13.7677C24.5095 15.4412 23.387 16.9283 21.9884 18.1271L21.2073 18.7956C19.6617 20.1206 17.9088 21.1824 16.0188 21.9387L13.9585 22.7629ZM20.1185 25.6054L17.8922 23.6577C19.1929 23.0561 20.4283 22.3221 21.5787 21.4675L20.1185 25.6054ZM19.4824 11.3569C19.4824 11.0491 19.6047 10.7538 19.8224 10.5362C20.04 10.3185 20.3353 10.1962 20.6431 10.1962C20.951 10.1962 21.2463 10.3185 21.4639 10.5362C21.6815 10.7538 21.8039 11.0491 21.8039 11.3569C21.8039 11.6647 21.6815 11.9599 21.4639 12.1776C21.2463 12.3953 20.951 12.5176 20.6431 12.5176C20.3353 12.5176 20.04 12.3953 19.8224 12.1776C19.6047 11.9599 19.4824 11.6647 19.4824 11.3569ZM20.6431 7.87487C19.7195 7.87487 18.8339 8.24173 18.1809 8.89473C17.5279 9.54774 17.1609 10.4334 17.1609 11.3569C17.1609 12.2804 17.5279 13.166 18.1809 13.8191C18.8339 14.4721 19.7195 14.8389 20.6431 14.8389C21.5666 14.8389 22.4524 14.4721 23.1054 13.8191C23.7584 13.166 24.1253 12.2804 24.1253 11.3569C24.1253 10.4334 23.7584 9.54774 23.1054 8.89473C22.4524 8.24173 21.5666 7.87487 20.6431 7.87487Z" fill="#12E582"/>
</svg>
