<svg width="160" height="70" fill="none" xmlns="http://www.w3.org/2000/svg"><path d="M17.333 49.843H.91V33.421h20.58v16.422h-4.157ZM.91 33.421V.576h16.423V33.42H.91ZM33.962 49.843h16.422V33.421h-20.58v16.422h4.158Zm16.43-16.422V.576h-16.43V33.42h16.43ZM29.806 16.998h-8.314v16.423h8.314V16.998ZM125.848 49.843h-16.422V33.421h20.579v16.422h-4.157Zm-16.422-16.422V.576h16.422V33.42h-16.422ZM142.477 49.843H158.9V33.421h-20.58v16.422h4.157Zm16.43-16.422V.576h-16.43V33.42h16.43ZM138.322 16.998h-8.314v16.423h8.314V16.998Z" fill="#fff"/><path d="M104.541 33.53v16.422H88.118v-20.58h16.423v4.157ZM88.118 49.951H55.273V33.53h32.845v16.422ZM55.273.472h16.423v16.422H55.273V.472Zm16.423 0h32.845v20.58H88.118v-4.158H71.696V.472Z" fill="#12E582"/><path d="M88.118 21.051H71.695v8.314h16.423v-8.314Z" fill="#12E582"/><path d="M20.777 56.57h-2.832l-2.818 8.51-2.412-8.51H9.112l-2.411 8.525-2.819-8.525H1.05l4.08 10.894h3l2.777-9.365 2.79 9.365h2.972l4.108-10.894Zm1.399 10.894h9.604v-1.542H24.67v-3.127h6.281v-1.528h-6.28v-3.169h6.687V56.57h-9.183v10.894ZM38.74 56.57h-5.132v10.894h5.412c3.73 0 5.412-1.108 5.412-3.183 0-2.075-2.075-2.44-2.271-2.467.182-.028 1.99-.379 1.99-2.201 0-2.075-1.682-3.043-5.411-3.043Zm.14 4.557h-2.776v-3.029h2.776c1.598 0 2.678.393 2.678 1.515 0 1.121-1.08 1.514-2.678 1.514Zm-2.776 4.795v-3.309h3.182c1.529 0 2.552.56 2.552 1.654 0 1.122-1.08 1.655-2.678 1.655h-3.056Zm47.45-9.352H80.72l-2.818 8.51-2.411-8.51h-3.603l-2.412 8.525-2.818-8.525h-2.832l4.08 10.894h3l2.776-9.365 2.79 9.365h2.973l4.108-10.894Zm1.398 10.894h9.604v-1.542h-7.108v-3.127h6.28v-1.528h-6.28v-3.169h6.688V56.57h-9.184v10.894Zm11.433 0h9.604v-1.542H98.88v-3.127h6.281v-1.528h-6.28v-3.169h6.687V56.57h-9.183v10.894Zm20.405 0h3.113l-6.141-6.197 5.72-4.697h-3.112l-6.057 5.132V56.57h-2.496v10.894h2.496v-3.337l1.837-1.528 4.64 4.865Zm3.815 0h9.604v-1.542h-7.108v-3.127h6.281v-1.528h-6.281v-3.169h6.688V56.57h-9.184v10.894Zm23.028-10.894h-2.496v8.51l-5.692-8.51h-3.407v10.894h2.496v-8.51l5.692 8.51h3.407V56.57Zm7.947 0h-5.426v10.894h5.426c3.715 0 6.491-2.075 6.491-5.44 0-3.379-2.776-5.454-6.491-5.454Zm-2.93 1.529h2.047c3.182 0 4.781 1.43 4.781 3.925 0 2.496-1.599 3.898-4.781 3.898h-2.047v-7.823Z" fill="#fff"/><path d="M51.608 62.613c1.529 0 2.58.449 2.58 1.626 0 1.024-.995 1.683-2.425 1.683-3.337 0-3.085-3-3.085-3l-2.607.672s.168 4.052 5.594 4.052c2.734 0 5.103-1.037 5.103-3.393 0-2.033-2.257-2.411-2.412-2.44.197-.041 2.132-.476 2.132-2.299 0-1.794-1.837-3.14-4.655-3.14-4.683 0-5.188 3.687-5.188 3.687l2.622.715s-.224-2.678 2.678-2.678c1.108 0 1.949.603 1.949 1.529 0 .911-.757 1.5-2.566 1.5h-1.037v1.486h1.318Z" fill="#12E582"/></svg>