<svg xmlns="http://www.w3.org/2000/svg" xmlns:xlink="http://www.w3.org/1999/xlink" viewBox="0 0 485.64 475.17"><defs><style>.cls-1{fill:#fff;fill-rule:evenodd;}.cls-12,.cls-2,.cls-23{fill:none;}.cls-2{stroke:#333;stroke-linecap:round;stroke-linejoin:round;}.cls-3,.cls-8{fill:#f1f2f2;}.cls-4{fill:url(#linear-gradient);}.cls-5,.cls-7{stroke:#f1f2f2;}.cls-10,.cls-11,.cls-12,.cls-13,.cls-14,.cls-15,.cls-16,.cls-17,.cls-18,.cls-19,.cls-20,.cls-21,.cls-22,.cls-23,.cls-5,.cls-7,.cls-8,.cls-9{stroke-miterlimit:10;}.cls-5{opacity:0.25;}.cls-6{fill:url(#linear-gradient-2);}.cls-10,.cls-11,.cls-12,.cls-13,.cls-14,.cls-15,.cls-17,.cls-18,.cls-19,.cls-20,.cls-21,.cls-22,.cls-23,.cls-8,.cls-9{stroke:#000;}.cls-16,.cls-9{fill:#7f3ff0;}.cls-10{fill:url(#linear-gradient-3);}.cls-11{fill:url(#linear-gradient-4);}.cls-12{stroke-width:0.25px;}.cls-13{fill:url(#linear-gradient-5);}.cls-14{fill:url(#linear-gradient-6);}.cls-15{fill:#12e582;}.cls-16{stroke:#fff;}.cls-17{fill:url(#linear-gradient-7);}.cls-18{fill:url(#linear-gradient-8);}.cls-19{fill:url(#linear-gradient-9);}.cls-20{fill:url(#linear-gradient-10);}.cls-21{fill:url(#linear-gradient-11);}.cls-22{fill:url(#linear-gradient-12);}</style><linearGradient id="linear-gradient" x1="223.71" y1="205.12" x2="398.43" y2="342.5" gradientUnits="userSpaceOnUse"><stop offset="0" stop-color="#12e582"/><stop offset="0.14" stop-color="#10cc74"/><stop offset="0.43" stop-color="#0b8a4f"/><stop offset="0.86" stop-color="#032314"/><stop offset="1"/></linearGradient><linearGradient id="linear-gradient-2" x1="310.81" y1="18.84" x2="310.81" y2="271.02" gradientUnits="userSpaceOnUse"><stop offset="0" stop-color="#fff" stop-opacity="0.8"/><stop offset="0.1" stop-color="#fff" stop-opacity="0.76"/><stop offset="0.27" stop-color="#fff" stop-opacity="0.66"/><stop offset="0.48" stop-color="#fff" stop-opacity="0.5"/><stop offset="0.73" stop-color="#fff" stop-opacity="0.27"/><stop offset="1" stop-color="#fff" stop-opacity="0"/></linearGradient><linearGradient id="linear-gradient-3" x1="348.85" y1="94.78" x2="431.09" y2="206.06" gradientUnits="userSpaceOnUse"><stop offset="0" stop-color="#fff"/><stop offset="0.19" stop-color="#f9f9f9"/><stop offset="0.44" stop-color="#e9e9e9"/><stop offset="0.72" stop-color="#cdcdcd"/><stop offset="1" stop-color="#ababab"/></linearGradient><linearGradient id="linear-gradient-4" x1="249.58" y1="101.16" x2="331.4" y2="211.88" gradientTransform="translate(90.64)" xlink:href="#linear-gradient-3"/><linearGradient id="linear-gradient-5" x1="340.98" y1="186.13" x2="423.81" y2="186.13" gradientUnits="userSpaceOnUse"><stop offset="0" stop-color="#ababab"/><stop offset="1" stop-color="#1a1a1a"/></linearGradient><linearGradient id="linear-gradient-6" x1="424.15" y1="205.71" x2="428.34" y2="211.38" xlink:href="#linear-gradient-5"/><linearGradient id="linear-gradient-7" x1="308.5" y1="203.26" x2="350.12" y2="203.26" xlink:href="#linear-gradient-3"/><linearGradient id="linear-gradient-8" x1="313.09" y1="208.06" x2="322.49" y2="209.44" gradientTransform="translate(12.4 -17.78) rotate(3.26)" xlink:href="#linear-gradient-3"/><linearGradient id="linear-gradient-9" x1="329.31" y1="208.65" x2="329.31" y2="208.65" xlink:href="#linear-gradient-5"/><linearGradient id="linear-gradient-10" x1="391.06" y1="252.5" x2="432.67" y2="252.5" xlink:href="#linear-gradient-3"/><linearGradient id="linear-gradient-11" x1="395.64" y1="257.3" x2="405.04" y2="258.68" gradientTransform="translate(15.33 -22.4) rotate(3.26)" xlink:href="#linear-gradient-3"/><linearGradient id="linear-gradient-12" x1="411.87" y1="257.89" x2="411.87" y2="257.89" xlink:href="#linear-gradient-5"/></defs><g id="Layer_2" data-name="Layer 2"><g id="Stage"><g id="HATCH"><path class="cls-1" d="M58.46,178.5l2.48,1,.64,3.9-.35,8.44,2.91,8.31,2.62,11.14-.5,7.73,1.35,5.75-.14,4.82-1.92,1.49-1.49-2.41.22-5.39.28-4.83-1.91-4.75-2-5.11,1,7.88,1.07,8.87L61.08,239.6,59,253.93l-.93,15,2.91,2.63,4.33,3.12.21,2-2.2.28-10.92-4.26.56-2.27-.14-5.89v-6.17L51,251.45l.5-6,1.2-4.76-1.63-10-.78-.57-2.56,5.39-3.33,14-2.41,7-.5,7.24-.43,9.93.15,3.76,2.76,8-.71,1.35-5.1.07-1.28-2.27-.21-8.3-1.07-11.64-.14-8.73,2.27-8,1.35-3.9-.85-14.9.21-5.18-.4-6.46-2.38-3.23-5-3.92-5.11-3.83-2.81-3.41,1.2-2.3,11.75-16,2.38-2,5.62-3.23,2-3.75-.17-2.81-1.7-.6-.68-.68.51-1.79-.86-1.27-.68-3.32.77-2.39-1.7-.85.76-2.47,2.39-1.87,3.49-.43,1.7.77-.42,1.7,1.44-.34,2.81.43,3.41,2.55,1.19,3.58-.94.85-.68,1.45-.51,4.25-1.44,4.26L52.61,178l.26,1.27ZM42.94,202.89l-1.36-4L40,194.72l-.21-1.26-3.87,3.13-3.66,3.92L29.75,204l1.95,2.55,3.67,3L39.88,214l2.38-5Z"/></g><g id="LWPOLYLINE"><polygon class="cls-2" points="52.87 179.28 52.61 178.01 54.31 176.9 55.76 172.64 56.27 168.39 56.95 166.94 57.89 166.09 56.7 162.51 53.29 159.96 50.48 159.53 49.04 159.87 49.46 158.17 47.76 157.4 44.27 157.83 41.88 159.7 41.12 162.17 42.82 163.02 42.05 165.41 42.73 168.73 43.59 170 43.08 171.79 43.76 172.47 45.46 173.07 45.63 175.88 43.67 179.63 38.05 182.86 35.67 184.91 23.92 200.91 22.73 203.21 25.54 206.62 30.64 210.45 35.67 214.37 38.05 217.6 38.45 224.06 38.24 229.24 39.09 244.14 37.74 248.04 35.47 256.06 35.61 264.79 36.67 276.43 36.89 284.73 38.16 287 43.27 286.93 43.98 285.58 41.22 277.56 41.07 273.8 41.5 263.87 42 256.63 44.41 249.6 47.74 235.55 50.3 230.16 51.08 230.73 52.71 240.73 51.51 245.49 51.01 251.45 52.78 258.33 52.78 264.5 52.92 270.39 52.36 272.67 63.28 276.92 65.48 276.64 65.27 274.65 60.94 271.53 58.03 268.9 58.96 253.93 61.08 239.6 62.72 225.34 61.65 216.47 60.66 208.59 62.65 213.7 64.56 218.45 64.28 223.28 64.06 228.67 65.56 231.08 67.47 229.59 67.61 224.77 66.26 219.02 66.76 211.29 64.14 200.15 61.23 191.84 61.58 183.4 60.94 179.5 58.46 178.5 52.87 179.28"/></g><g id="LWPOLYLINE-2" data-name="LWPOLYLINE"><polygon class="cls-2" points="42.26 209.02 39.88 214.04 35.37 209.53 31.7 206.55 29.75 204 32.22 200.51 35.88 196.59 39.76 193.46 39.96 194.72 41.58 198.89 42.95 202.89 42.26 209.02"/></g><g id="LWPOLYLINE-3" data-name="LWPOLYLINE"><polyline class="cls-2" points="52.87 179.28 50.61 181.52 46.44 182.46 43.67 179.63"/></g><g id="LWPOLYLINE-4" data-name="LWPOLYLINE"><polyline class="cls-2" points="56.95 166.94 52.31 168.49 47.88 168.57 46.01 168.83 45.33 170.7 43.8 169.51"/></g><g id="LWPOLYLINE-5" data-name="LWPOLYLINE"><polyline class="cls-2" points="56.8 178.74 58.61 181.52 60.31 185.35 59.46 193.78 59.12 199.4 60.66 208.59"/></g><g id="LWPOLYLINE-6" data-name="LWPOLYLINE"><polyline class="cls-2" points="37.08 183.69 40.65 183.9 41.07 187.48 39.54 192.16 39.96 194.72 41.58 198.89 42.95 202.89 42.26 209.02 39.88 214.04 35.37 209.53 31.7 206.55 29.75 204 32.22 200.51 35.88 196.59 39.76 193.46"/></g><g id="LWPOLYLINE-7" data-name="LWPOLYLINE"><polyline class="cls-2" points="39.88 214.04 41.04 216.49 42.89 219.75 43.46 222.8 42.89 223.58 42.39 222.16 41.68 226.07 41.4 228.69 38.36 226.21"/></g><g id="LWPOLYLINE-8" data-name="LWPOLYLINE"><polyline class="cls-2" points="42.89 219.75 51.26 220.39 55.38 219.89 58.78 218.12 61.65 216.47"/></g><g id="LWPOLYLINE-9" data-name="LWPOLYLINE"><polyline class="cls-2" points="58.03 268.9 56.48 269.52 54.27 269.52 52.88 268.76"/></g><g id="LWPOLYLINE-10" data-name="LWPOLYLINE"><polyline class="cls-2" points="41.22 277.56 39.37 278.03 38.35 277.61 36.71 277.65"/></g><ellipse cx="310.81" cy="286.21" rx="147.5" ry="89.67"/><path class="cls-3" d="M310.81,198c80.64,0,146,39.47,146,88.17s-65.36,88.17-146,88.17-146-39.47-146-88.17S230.18,198,310.81,198m0-3c-39.53,0-76.75,9.32-104.79,26.25-28.51,17.22-44.21,40.28-44.21,64.92s15.7,47.7,44.21,64.92c28,16.93,65.26,26.25,104.79,26.25s76.75-9.32,104.79-26.25c28.51-17.22,44.21-40.28,44.21-64.92s-15.7-47.7-44.21-64.92c-28-16.93-65.25-26.25-104.79-26.25Z"/><ellipse class="cls-4" cx="310.81" cy="273.61" rx="147.5" ry="89.67"/><path class="cls-3" d="M310.81,185.43c80.64,0,146,39.48,146,88.18s-65.36,88.17-146,88.17-146-39.48-146-88.17,65.37-88.18,146-88.18m0-3c-39.53,0-76.75,9.33-104.79,26.26-28.51,17.22-44.21,40.27-44.21,64.92s15.7,47.69,44.21,64.91c28,16.93,65.26,26.26,104.79,26.26s76.75-9.33,104.79-26.26c28.51-17.22,44.21-40.27,44.21-64.91s-15.7-47.7-44.21-64.92c-28-16.93-65.25-26.26-104.79-26.26Z"/><ellipse class="cls-5" cx="310.81" cy="273.61" rx="108.94" ry="65.79"/><path class="cls-6" d="M386.32,178.5,310.81,17.75h0L235.31,178.5a622.34,622.34,0,0,1-31,57.17,45.11,45.11,0,0,0-6.84,23.48c0,37.81,50.76,68.47,113.38,68.47S424.2,297,424.2,259.15a45,45,0,0,0-6.85-23.48A619.85,619.85,0,0,1,386.32,178.5Z"/><ellipse class="cls-7" cx="310.81" cy="20.22" rx="28.57" ry="17.25"/><ellipse class="cls-7" cx="310.81" cy="17.75" rx="28.57" ry="17.25"/><path class="cls-8" d="M17.76,254.44S3.6,256.34.67,284.4s32,25.25,37.67,24.06c4.9-1,32.71-7.7,16.84-19.4-6.75-5-11.94-11.21-14.24-18.24C37.8,261.25,31.19,250.14,17.76,254.44Z"/><path class="cls-8" d="M24.44,258.78s-14.16,9.86-1.29,31.28"/><path class="cls-8" d="M43.56,285.12a18.87,18.87,0,0,0-19.81,6.49"/><path class="cls-9" d="M41.75,344.07s46.17-.82,29.35-23.49S-23.24,340.15,40,344.7"/><path class="cls-9" d="M53.79,320.33A124.2,124.2,0,0,0,46,304c-7.6-13.57-24.39-14.1-30.13-1C8.48,319.8,5.73,340.16,31.7,345.44c0,0,26.06,8.32,25.25-11.78"/><polygon class="cls-8" points="396.46 229.69 372.72 215.98 360.85 222.83 358.68 222.41 358.68 224.09 386.77 240.31 400.81 232.2 400.81 230.52 396.46 229.69"/><polygon class="cls-8" points="372.72 214.3 358.68 222.41 386.77 238.63 400.81 230.52 372.72 214.3"/><polygon class="cls-8" points="373.21 174.48 373.21 223.14 387.25 231.25 387.25 182.59 373.21 174.48"/><polygon class="cls-10" points="345.71 99.82 340.98 102.44 355.03 121.36 355.03 158.09 402.74 185.64 423.81 214.03 428.53 211.41 428.53 147.65 345.71 99.82"/><polygon class="cls-11" points="340.98 102.44 340.98 166.2 423.81 214.03 423.81 150.26 340.98 102.44"/><polygon class="cls-12" points="340.98 102.44 340.98 166.2 423.81 214.03 423.81 150.26 340.98 102.44"/><polygon class="cls-13" points="340.98 158.23 340.98 166.2 423.81 214.03 423.81 206.06 340.98 158.23"/><line class="cls-8" x1="428.53" y1="147.65" x2="423.81" y2="150.26"/><polygon class="cls-14" points="423.81 206.06 423.81 214.03 428.53 211.41 428.53 202.87 423.81 206.06"/><path class="cls-8" d="M124.82,227l-13.93,8,17.29,10,17.3-10-13.93-8A6.69,6.69,0,0,0,124.82,227Z"/><polygon class="cls-8" points="110.89 235 102.24 249.98 128.18 264.95 128.18 244.98 110.89 235"/><polygon class="cls-8" points="145.48 235 154.13 249.98 128.18 264.95 128.18 244.98 145.48 235"/><path class="cls-8" d="M128.18,265l-25.94-15v6.41a6.19,6.19,0,0,0,3.1,5.36l17,9.8a11.74,11.74,0,0,0,11.75,0l15.67-9.05a8.79,8.79,0,0,0,4.4-7.62V250Z"/><path class="cls-8" d="M114.72,234.87l8.63-5a9.71,9.71,0,0,1,9.67,0l8.63,5"/><path d="M129.55,238.85l.81-.25a1.56,1.56,0,0,1,.65,1.19,1.31,1.31,0,0,1-.79,1,3.9,3.9,0,0,1-1.6.51,5,5,0,0,1-1.77-.18,7.22,7.22,0,0,1-1.71-.7,3.66,3.66,0,0,1-1.21-1,1.08,1.08,0,0,1-.16-1,1.81,1.81,0,0,1,.82-.86,3.42,3.42,0,0,1,1.61-.44,5,5,0,0,1,1.84.28l-.44.46a4,4,0,0,0-1.35-.23,2.37,2.37,0,0,0-1.06.3,1.11,1.11,0,0,0-.61.7.89.89,0,0,0,.3.76,3.57,3.57,0,0,0,.9.69,6.47,6.47,0,0,0,1.39.61,3.6,3.6,0,0,0,1.32.13,2.65,2.65,0,0,0,1.06-.32.89.89,0,0,0,.54-.71A1.21,1.21,0,0,0,129.55,238.85Z"/><path d="M133.45,238.12l.68.29a2.4,2.4,0,0,1-.38.29,1.53,1.53,0,0,1-.61.21,1.45,1.45,0,0,1-.55,0,4.16,4.16,0,0,1-.86-.42l-2.27-1.31-.43.25-.52-.31.43-.24-1-.57.17-.56,1.38.8.59-.34.52.3-.59.34,2.32,1.33a2,2,0,0,0,.4.2.59.59,0,0,0,.23,0,.46.46,0,0,0,.24-.08Z"/><path d="M134.61,238.14l-4-2.29.52-.3.6.35a.88.88,0,0,1-.19-.53.5.5,0,0,1,.24-.3,2.25,2.25,0,0,1,.82-.22l.42.48a1.38,1.38,0,0,0-.57.16.35.35,0,0,0-.21.27.39.39,0,0,0,.15.34,3.64,3.64,0,0,0,.68.51l2.07,1.19Z"/><path d="M136.81,236.87l-5.46-3.15.58-.34,5.46,3.16Z"/><path class="cls-15" d="M380.35,424.4s-46.16-.82-29.34-23.49,94.33,19.57,31.14,24.12"/><path class="cls-15" d="M368.32,400.66a124.2,124.2,0,0,1,7.81-16.29c7.6-13.57,24.39-14.1,30.13-1,7.37,16.79,10.12,37.15-15.85,42.43,0,0-26.06,8.32-25.25-11.78"/><path class="cls-8" d="M88.23,350.48s46.17-.83,29.35-23.5S23.24,346.55,86.44,351.1"/><path class="cls-8" d="M100.27,326.74a123.64,123.64,0,0,0-7.81-16.3c-7.6-13.56-24.39-14.1-30.13-1C55,326.2,52.21,346.57,78.18,351.84c0,0,26.06,8.32,25.25-11.78"/><path class="cls-15" d="M147.19,390.13s46.17-.82,29.35-23.49S82.2,386.21,145.4,390.76"/><path class="cls-15" d="M159.23,366.4a122.59,122.59,0,0,0-7.82-16.3c-7.59-13.57-54.27-19.63-63.65-8.86-19.94,22.89-11.81,33.3,6.33,41.88,0,0,70.46,22.73,68.3-3.4"/><path class="cls-8" d="M462.24,335.19s11.4,2.24,14.44,30.29-25,24.4-29.63,23.07c-4-1.14-26.44-8.48-14-19.76A35.47,35.47,0,0,0,444,351C446.33,341.49,451.36,330.58,462.24,335.19Z"/><path class="cls-8" d="M457,339.36s11.6,10.17,1.8,31.21"/><path class="cls-8" d="M442.29,365.15s9.17-3.45,16,7"/><path class="cls-9" d="M215.59,380.46a47.32,47.32,0,0,0,4.7,1c6.34,1,22.68,5.67,25.11,28.19,3,28-38.21,26.24-42.82,24.92-4-1.16-27.05-8.69-13.45-20.22a32.23,32.23,0,0,0,10.4-17.17C201.64,388.32,206.14,378.09,215.59,380.46Z"/><path class="cls-16" d="M212.52,385.38s11.6,10.17,1.8,31.21"/><path class="cls-16" d="M197.82,411.17s9.18-3.45,16.05,7"/><path class="cls-15" d="M85.92,233.5s-14.16,1.91-17.08,30,32,25.25,37.66,24.06c4.9-1,32.72-7.71,16.84-19.41-6.75-5-11.94-11.21-14.24-18.23C106,240.31,99.35,229.2,85.92,233.5Z"/><path class="cls-15" d="M92.6,237.85s-14.16,9.85-1.29,31.27"/><path class="cls-15" d="M111.72,264.19a18.84,18.84,0,0,0-19.81,6.49"/><path class="cls-8" d="M131.59,369.34s-14.15,1.9-17.08,30,32,25.25,37.66,24.06c4.9-1,32.72-7.7,16.84-19.4-6.75-5-11.93-11.21-14.24-18.23C151.63,376.15,145,365,131.59,369.34Z"/><path class="cls-8" d="M138.28,373.68S124.11,383.54,137,405"/><path class="cls-8" d="M157.4,400a18.88,18.88,0,0,0-19.82,6.5"/><path class="cls-8" d="M308.5,179.92l20.81,12,20.81-12-14.52-8.38a12.57,12.57,0,0,0-12.58,0Z"/><path class="cls-17" d="M350.12,179.92l-16.82,9.71a7.94,7.94,0,0,1-8,0l-16.83-9.71v31.77a7.4,7.4,0,0,0,3.7,6.41l12.66,7.31a8.9,8.9,0,0,0,8.9,0l12.66-7.31a7.4,7.4,0,0,0,3.7-6.41Z"/><ellipse class="cls-18" cx="318.45" cy="208.85" rx="5.16" ry="9.11" transform="translate(-11.37 18.46) rotate(-3.26)"/><polygon class="cls-8" points="311.7 186.53 311.7 192.54 325.7 200.35 325.7 194.34 311.7 186.53"/><line class="cls-19" x1="329.31" y1="190.7" x2="329.31" y2="226.6"/><path class="cls-8" d="M391.06,229.16l20.81,12,20.8-12-14.52-8.38a12.55,12.55,0,0,0-12.57,0Z"/><path class="cls-20" d="M432.67,229.16l-16.82,9.71a7.94,7.94,0,0,1-8,0l-16.82-9.71v31.77a7.4,7.4,0,0,0,3.7,6.41l12.66,7.31a8.88,8.88,0,0,0,8.89,0L429,267.34a7.4,7.4,0,0,0,3.7-6.41Z"/><ellipse class="cls-21" cx="401.01" cy="258.09" rx="5.16" ry="9.11" transform="translate(-14.03 23.23) rotate(-3.26)"/><polygon class="cls-8" points="394.26 235.77 394.26 241.78 408.26 249.59 408.26 243.58 394.26 235.77"/><line class="cls-22" x1="411.87" y1="239.94" x2="411.87" y2="275.84"/><path class="cls-8" d="M339.46,389.77l13.93,8-17.29,10-17.3-10,13.93-8A6.74,6.74,0,0,1,339.46,389.77Z"/><polygon class="cls-8" points="353.39 397.81 362.04 412.79 336.1 427.77 336.1 407.8 353.39 397.81"/><polygon class="cls-8" points="318.8 397.81 310.15 412.79 336.1 427.77 336.1 407.8 318.8 397.81"/><path class="cls-8" d="M336.1,427.77l25.94-15v6.41a6.18,6.18,0,0,1-3.1,5.36l-17,9.8a11.74,11.74,0,0,1-11.75,0l-15.67-9a8.81,8.81,0,0,1-4.4-7.62v-4.91Z"/><path class="cls-8" d="M349.56,397.68l-8.63-5a9.66,9.66,0,0,0-9.67,0l-8.63,5"/><path d="M327.56,399.73l8-2.32.75.43-3.89,4.71-.79-.46,1.22-1.4-2.18-1.26-2.4.72Zm4-.56,1.76,1,1.13-1.28a12.13,12.13,0,0,1,.88-.93c-.46.18-.93.35-1.43.5Z"/><path d="M332.9,402.81l6-3.48.64.37-6,3.48Z"/><path d="M336.59,404.18l-.56.43a2.61,2.61,0,0,1-.55-.25.88.88,0,0,1-.42-.38.35.35,0,0,1,.07-.35,3.43,3.43,0,0,1,.79-.55l2.51-1.45-.47-.27.58-.33.47.27,1.08-.62,1.08.11-1.53.88.65.37-.58.33-.64-.37-2.55,1.47a1.34,1.34,0,0,0-.37.26.15.15,0,0,0,0,.14.33.33,0,0,0,.17.16Z"/><path class="cls-8" d="M263.94,435.36s46.17-.83,29.34-23.5S199,431.44,262.15,436"/><path class="cls-8" d="M276,411.62a124.47,124.47,0,0,0-7.82-16.3c-7.6-13.56-24.39-14.1-30.13-1-7.36,16.79-10.12,37.15,15.86,42.42,0,0,26.05,8.33,25.25-11.78"/><path class="cls-9" d="M150.35,462.61s46.17-.82,29.35-23.49-94.34,19.57-31.14,24.12"/><path class="cls-9" d="M162.39,438.88a122.59,122.59,0,0,0-7.82-16.3C147,409,100.3,403,90.92,413.72,71,436.61,79.11,447,97.25,455.6c0,0,70.46,22.73,68.3-3.4"/><path class="cls-8" d="M333.92,471.59s-46.17-.82-29.35-23.49,94.34,19.57,31.14,24.12"/><path class="cls-8" d="M321.88,447.86a122.59,122.59,0,0,1,7.82-16.3c7.59-13.57,24.39-14.1,30.12-1,7.37,16.78,10.12,37.15-15.85,42.42,0,0-26.06,8.32-25.25-11.78"/><g id="HATCH-2" data-name="HATCH"><polygon class="cls-1" points="317.42 173.21 321.45 175.54 326.76 177.66 328.67 181.69 329.09 189.54 329.09 199.51 327.6 201.84 328.24 211.18 325.27 222.63 324.21 233.24 324 240.66 321.24 246.81 319.76 252.54 320.82 259.54 322.94 265.9 323.15 284.15 322.51 291.36 319.76 291.78 319.54 298.15 312.33 298.57 311.06 297.08 313.82 291.36 314.03 281.6 311.69 263.15 306.6 240.66 304.42 249.47 304.42 257.75 304.2 271.53 302.51 288.5 299.32 294.65 292.11 299.53 288.51 296.99 294.02 290.84 294.45 284.26 293.39 236.53 292.96 228.05 290.2 226.35 291.26 215.32 294.66 191.99 294.02 189.44 292.11 192.63 286.17 200.47 281.3 199.2 275.36 176.93 272.39 171.41 268.78 166.11 270.93 162.12 273.01 163.69 273.3 160.96 275.36 159.96 278.35 162.12 279.28 170.22 281.66 166.74 282.52 167.66 281.58 171.16 280.59 175.21 285.32 189.02 294.12 171.16 297.87 169.88 302.54 169.12 305.75 169.41 303.08 166.08 302.08 161.87 302.51 154.87 299.96 149.99 302.86 148.02 307.39 145.75 313 144.87 319.05 147.66 321.17 154.44 319.13 159.49 320.11 161.17 318.42 163.56 315.66 163.99 314.39 168.02 315.07 170.72 317.42 173.21"/></g><g id="LWPOLYLINE-11" data-name="LWPOLYLINE"><polygon class="cls-2" points="317.42 173.21 321.45 175.54 326.76 177.66 328.67 181.69 329.09 189.54 329.09 199.51 327.6 201.84 328.24 211.18 325.27 222.63 324.21 233.24 324 240.66 321.24 246.81 319.76 252.54 320.82 259.54 322.94 265.9 323.15 284.15 322.51 291.36 319.76 291.78 319.54 298.15 312.33 298.57 311.06 297.08 313.82 291.36 314.03 281.6 311.69 263.15 306.6 240.66 304.42 249.47 304.42 257.75 304.2 271.53 302.51 288.5 299.32 294.65 292.11 299.53 288.51 296.99 294.02 290.84 294.45 284.26 293.39 236.53 292.96 228.05 290.2 226.35 291.26 215.32 294.66 191.99 294.02 189.44 292.11 192.63 286.17 200.47 281.3 199.2 275.36 176.93 272.39 171.41 268.78 166.11 270.93 162.12 273.01 163.69 273.3 160.96 275.36 159.96 278.35 162.12 279.28 170.22 281.66 166.74 282.52 167.66 281.58 171.16 280.59 175.21 285.32 189.02 294.12 171.16 297.87 169.88 302.54 169.12 305.75 169.41 303.08 166.08 302.08 161.87 302.51 154.87 299.96 149.99 302.86 148.02 307.39 145.75 313 144.87 319.05 147.66 321.17 154.44 319.13 159.49 320.11 161.17 318.42 163.56 315.66 163.99 314.39 168.02 315.07 170.72 317.42 173.21"/></g><g id="LWPOLYLINE-12" data-name="LWPOLYLINE"><polyline class="cls-2" points="303.77 169.23 303.59 172.73 305.78 174.45 308.68 175.04 312.53 174.21 315.73 173.44 316.4 172.12"/></g><g id="LWPOLYLINE-13" data-name="LWPOLYLINE"><polyline class="cls-2" points="286.16 187.32 287.75 187.61 289.03 189.82 290.71 194.47"/></g><g id="LWPOLYLINE-14" data-name="LWPOLYLINE"><polyline class="cls-2" points="305.75 169.41 308.7 170.92 311.55 170.21"/></g><g id="LWPOLYLINE-15" data-name="LWPOLYLINE"><polyline class="cls-2" points="302.51 154.87 308.63 155.43 312.4 155.79 316.24 158.13 315.74 160.41 314.18 163.32 315.88 162.32 317.94 160.26 319.13 159.49"/></g><g id="LWPOLYLINE-16" data-name="LWPOLYLINE"><polyline class="cls-2" points="292.96 228.05 302.11 228.98 310.3 228.98 316.43 228.06 318.99 227.65 320.73 220.49 320.83 215.07 320.83 210.36 321.14 203.3 319.2 203 319.91 212.41 320.8 217.02"/></g><g id="LWPOLYLINE-17" data-name="LWPOLYLINE"><polyline class="cls-2" points="321.14 203.3 325.44 202.59 327.6 201.84"/></g><g id="LWPOLYLINE-18" data-name="LWPOLYLINE"><line class="cls-2" x1="319.2" y1="203" x2="317.97" y2="194.51"/></g><g id="LWPOLYLINE-19" data-name="LWPOLYLINE"><polyline class="cls-2" points="318.99 227.65 319.34 231.53 317.25 234.48 314.43 239.64 314.92 240.87 317.37 238.9 315.9 244.55 316.27 248.97 318.72 249.34 321.24 246.81"/></g><g id="LWPOLYLINE-20" data-name="LWPOLYLINE"><polyline class="cls-2" points="294.06 290.2 298.02 290.63 300.33 290.58 301.63 290.19"/></g><g id="LWPOLYLINE-21" data-name="LWPOLYLINE"><polyline class="cls-2" points="313.82 291.36 317.5 291.66 319.76 291.78"/></g><path class="cls-23" d="M317.05,162.45s-.74,7.38-8.86,5.16"/><path d="M319.53,160.73c.28.77-.35,1.71-1.41,2.09s-2.86,0-2.43-.68a5.66,5.66,0,0,1,2.48-2.48C319.23,159.27,319.25,160,319.53,160.73Z"/><ellipse cx="308.19" cy="167.68" rx="1.22" ry="0.62"/><g id="HATCH-3" data-name="HATCH"><path class="cls-1" d="M112.13,211.48l-.78,2.18-.44,3.06-.87,2.1-.18,2.36.35,2.2,2.27,1.51.75,4.23-.45,5.44L114,246.64l2.56,6.79,2.72,9.06,2.11,2.42,4.84,3.92,6.49,6.19,5.74,4.53.75,3.48-2.11,3-4.08.75-.75,2.87-5,1.51-7.7-2-7.7-2-8.15-2.57-7-1.36-4.53-1.66-2.72-.76-6,1.66-.9-1.66,1-1.81,4.69-2,4.37-1.36,3.18-1.66L93.75,272l-1.81-3.77.6-3.78.46-2.71-5.14-3-.9-2.87.6-6.19V233.5l.45-3.78,3.33-3.47,2.56-5.74,1.36-4.83.76-3.32.45-3.32.15-3.78,2-2.26,3.63-1.51,5.13.9,3.93,1.21,2.56,3.93-1.2,2.26Zm-.47,47.78,2.41.53-2-3-.83-1.32Z"/></g><g id="LWPOLYLINE-22" data-name="LWPOLYLINE"><polygon class="cls-2" points="112.63 209.79 113.83 207.53 111.27 203.6 107.34 202.39 102.21 201.49 98.58 203 96.62 205.26 96.47 209.04 96.02 212.36 95.26 215.68 93.9 220.51 91.33 226.25 88.01 229.72 87.56 233.5 87.56 243.62 87.56 249.66 86.96 255.85 87.86 258.72 93 261.74 92.54 264.45 91.94 268.23 93.75 272 95.86 274.12 92.69 275.78 88.31 277.14 83.63 279.1 82.58 280.91 83.48 282.57 89.52 280.91 92.24 281.67 96.77 283.33 103.72 284.69 111.87 287.25 119.57 289.22 127.27 291.18 132.26 289.67 133.01 286.8 137.09 286.05 139.2 283.03 138.45 279.55 132.71 275.02 126.22 268.83 121.39 264.91 119.27 262.49 116.55 253.43 113.99 246.64 112.78 234.56 113.23 229.12 112.47 224.89 110.21 223.38 109.86 221.18 110.04 218.82 110.91 216.72 111.35 213.66 112.13 211.48 112.63 209.79"/></g><g id="LWPOLYLINE-23" data-name="LWPOLYLINE"><polygon class="cls-2" points="111.25 255.43 112.08 256.75 114.07 259.79 111.66 259.26 111.25 255.43"/></g><g id="LINE"><line class="cls-2" x1="119.94" y1="263.26" x2="116.69" y2="264.72"/></g><g id="LINE-2" data-name="LINE"><line class="cls-2" x1="115.96" y1="261.78" x2="116.69" y2="264.72"/></g><g id="LINE-3" data-name="LINE"><line class="cls-2" x1="115.96" y1="261.78" x2="114.07" y2="259.79"/></g><g id="LINE-4" data-name="LINE"><line class="cls-2" x1="114.07" y1="259.79" x2="112.08" y2="256.75"/></g><g id="LINE-5" data-name="LINE"><line class="cls-2" x1="112.08" y1="256.75" x2="110.82" y2="254.75"/></g><g id="LINE-6" data-name="LINE"><line class="cls-2" x1="131.27" y1="282.23" x2="127.81" y2="278.66"/></g><g id="LINE-7" data-name="LINE"><line class="cls-2" x1="127.81" y1="278.66" x2="122.56" y2="275.31"/></g><g id="LINE-8" data-name="LINE"><line class="cls-2" x1="122.56" y1="275.31" x2="121.31" y2="274.68"/></g><g id="LINE-9" data-name="LINE"><line class="cls-2" x1="121.31" y1="274.68" x2="117.01" y2="274.47"/></g><g id="LINE-10" data-name="LINE"><line class="cls-2" x1="117.01" y1="274.47" x2="113.55" y2="273.21"/></g><g id="LINE-11" data-name="LINE"><line class="cls-2" x1="113.55" y1="273.21" x2="110.19" y2="270.8"/></g><g id="LINE-12" data-name="LINE"><line class="cls-2" x1="110.19" y1="270.8" x2="104.95" y2="268.39"/></g><g id="LINE-13" data-name="LINE"><line class="cls-2" x1="104.95" y1="268.39" x2="97.29" y2="263.98"/></g><g id="LINE-14" data-name="LINE"><line class="cls-2" x1="97.29" y1="263.98" x2="93" y2="261.74"/></g><g id="LINE-15" data-name="LINE"><line class="cls-2" x1="105.37" y1="263.25" x2="111.03" y2="266.39"/></g><g id="LINE-16" data-name="LINE"><line class="cls-2" x1="111.03" y1="266.39" x2="114.8" y2="268.07"/></g><g id="LINE-17" data-name="LINE"><line class="cls-2" x1="114.8" y1="268.07" x2="115.64" y2="266.81"/></g><g id="LINE-18" data-name="LINE"><line class="cls-2" x1="115.64" y1="266.81" x2="116.69" y2="264.72"/></g><g id="LINE-19" data-name="LINE"><line class="cls-2" x1="114.07" y1="259.79" x2="111.66" y2="259.26"/></g><g id="LINE-20" data-name="LINE"><line class="cls-2" x1="111.66" y1="259.26" x2="110.19" y2="261.15"/></g><g id="LINE-21" data-name="LINE"><line class="cls-2" x1="110.19" y1="261.15" x2="106.13" y2="263.67"/></g><g id="LINE-22" data-name="LINE"><line class="cls-2" x1="106.13" y1="263.67" x2="105.37" y2="263.25"/></g><g id="LINE-23" data-name="LINE"><line class="cls-2" x1="111.66" y1="259.26" x2="111.25" y2="255.43"/></g><g id="LINE-24" data-name="LINE"><line class="cls-2" x1="111.25" y1="255.43" x2="110.82" y2="251.92"/></g><g id="LINE-25" data-name="LINE"><line class="cls-2" x1="110.82" y1="251.92" x2="110.93" y2="245.42"/></g><g id="LINE-26" data-name="LINE"><line class="cls-2" x1="104.11" y1="223.71" x2="104.42" y2="225.71"/></g><g id="LINE-27" data-name="LINE"><line class="cls-2" x1="104.42" y1="225.71" x2="101.91" y2="226.55"/></g><g id="LINE-28" data-name="LINE"><line class="cls-2" x1="101.91" y1="226.55" x2="98.66" y2="225.92"/></g><g id="LINE-29" data-name="LINE"><line class="cls-2" x1="98.66" y1="225.92" x2="96.24" y2="223.92"/></g><g id="LINE-30" data-name="LINE"><line class="cls-2" x1="96.24" y1="223.92" x2="95.82" y2="223.09"/></g><g id="LINE-31" data-name="LINE"><line class="cls-2" x1="95.82" y1="223.09" x2="91.34" y2="226.25"/></g><g id="LINE-32" data-name="LINE"><line class="cls-2" x1="95.82" y1="223.09" x2="97.92" y2="219.62"/></g><g id="LINE-33" data-name="LINE"><line class="cls-2" x1="97.92" y1="219.62" x2="98.24" y2="217.21"/></g><g id="LINE-34" data-name="LINE"><line class="cls-2" x1="98.24" y1="217.21" x2="97.61" y2="216.27"/></g><g id="LINE-35" data-name="LINE"><line class="cls-2" x1="97.61" y1="216.27" x2="96.24" y2="215.74"/></g><g id="LINE-36" data-name="LINE"><line class="cls-2" x1="96.24" y1="215.74" x2="95.9" y2="212.86"/></g><g id="LINE-37" data-name="LINE"><line class="cls-2" x1="95.9" y1="212.86" x2="97.08" y2="211.34"/></g><g id="LINE-38" data-name="LINE"><line class="cls-2" x1="97.08" y1="211.34" x2="97.92" y2="213.23"/></g><g id="LINE-39" data-name="LINE"><line class="cls-2" x1="97.92" y1="213.23" x2="101.59" y2="213.54"/></g><g id="LINE-40" data-name="LINE"><line class="cls-2" x1="101.59" y1="213.54" x2="105.05" y2="212.39"/></g><g id="LINE-41" data-name="LINE"><line class="cls-2" x1="105.05" y1="212.39" x2="108.09" y2="210.4"/></g><g id="LINE-42" data-name="LINE"><line class="cls-2" x1="108.09" y1="210.4" x2="109.88" y2="208.09"/></g><g id="LINE-43" data-name="LINE"><line class="cls-2" x1="109.88" y1="208.09" x2="110.93" y2="209.66"/></g><g id="LINE-44" data-name="LINE"><line class="cls-2" x1="110.93" y1="209.66" x2="112.13" y2="211.48"/></g><g id="LINE-45" data-name="LINE"><line class="cls-2" x1="110.04" y1="218.82" x2="107.78" y2="221.83"/></g><g id="LINE-46" data-name="LINE"><line class="cls-2" x1="107.78" y1="221.83" x2="105.37" y2="223.19"/></g><g id="LINE-47" data-name="LINE"><line class="cls-2" x1="105.37" y1="223.19" x2="104.11" y2="223.71"/></g><g id="LINE-48" data-name="LINE"><line class="cls-2" x1="110.21" y1="223.38" x2="107.87" y2="223.09"/></g><g id="LINE-49" data-name="LINE"><line class="cls-2" x1="107.87" y1="223.09" x2="106.23" y2="222.7"/></g><g id="LINE-50" data-name="LINE"><line class="cls-2" x1="123.73" y1="266.81" x2="125.32" y2="270.65"/></g><g id="LINE-51" data-name="LINE"><line class="cls-2" x1="125.32" y1="270.65" x2="125.66" y2="273.94"/></g><g id="LINE-52" data-name="LINE"><line class="cls-2" x1="125.66" y1="273.94" x2="124.6" y2="274.91"/></g><g id="LINE-53" data-name="LINE"><line class="cls-2" x1="124.6" y1="274.91" x2="123.8" y2="275.08"/></g><g id="LINE-54" data-name="LINE"><line class="cls-2" x1="123.8" y1="275.08" x2="122.37" y2="271.79"/></g><g id="LINE-55" data-name="LINE"><line class="cls-2" x1="122.37" y1="271.79" x2="121.02" y2="270.06"/></g><g id="LINE-56" data-name="LINE"><line class="cls-2" x1="121.02" y1="270.06" x2="119.13" y2="267.49"/></g><g id="LINE-57" data-name="LINE"><line class="cls-2" x1="119.13" y1="267.49" x2="118.12" y2="267.49"/></g><g id="LINE-58" data-name="LINE"><line class="cls-2" x1="118.12" y1="267.49" x2="117.86" y2="269.09"/></g><g id="LINE-59" data-name="LINE"><line class="cls-2" x1="117.86" y1="269.09" x2="119.89" y2="270.31"/></g><g id="LINE-60" data-name="LINE"><line class="cls-2" x1="119.89" y1="270.31" x2="121.82" y2="271.66"/></g><g id="LINE-61" data-name="LINE"><line class="cls-2" x1="121.82" y1="271.66" x2="122.46" y2="273.98"/></g><g id="LINE-62" data-name="LINE"><line class="cls-2" x1="122.46" y1="273.98" x2="121.28" y2="274.23"/></g><g id="LINE-63" data-name="LINE"><line class="cls-2" x1="121.28" y1="274.23" x2="120.73" y2="274.65"/></g><g id="LINE-64" data-name="LINE"><line class="cls-2" x1="117.86" y1="269.09" x2="114.8" y2="268.07"/></g><g id="LINE-65" data-name="LINE"><line class="cls-2" x1="111.03" y1="266.39" x2="109.21" y2="270.35"/></g><g id="LINE-66" data-name="LINE"><line class="cls-2" x1="105.37" y1="263.25" x2="99.3" y2="258.4"/></g><g id="LINE-67" data-name="LINE"><line class="cls-2" x1="99.3" y1="258.4" x2="93.96" y2="253.87"/></g><g id="LINE-68" data-name="LINE"><line class="cls-2" x1="93.96" y1="253.87" x2="94.77" y2="246.27"/></g><g id="HATCH-4" data-name="HATCH"><path class="cls-1" d="M45.19,329l.56-6.67L45.4,319l.57-2.7,4.68-1.56,2.7-.43.49-1.56-2.41-2.13-.35-2.76.21-8.94,2.06-3.69,4.54-1.71,3.9-.56,3.48,2.13,2.27,3.19.64,2.41-.78,1.7L67,304.41l-.07,2.34.07,2.77-1.21,1.42-2.91.14h-1v1.35l.29,3.48L64,317.47l3.34,1.77,2.55,2.13.85,6.46,3,11.21,1.78,4,3.83,8.52,3.62,5.82.92,2.13,2.48,3.26.92,3.69.29,4.75-1.92.07-2-.85-2.28-3.05-.63-6.24-1.35-1.56-6.6-8.52-.21,8.3-1.49,20.87-.86,9.43-1.84-.14-.64,10.79-.5,13.12.08,1.64,7.73-.71,1.06-.22.78,2.56-1.06,1.91-10.79,2.7-3.54-.78.21-3,.43-4.26-.5-5.25-.88-2.46L60,403.33l-.08-11.14.79-3.06-3.06-.56-.78-8.09-1.91,7.73-1.14-.49-.64,14.54.07,3.55,2.49-1.35,2.06-.57,1.7.71,1.32,1L58.38,408l-3.05,2.63-4,1.41H48.81L48,409.78l.64-1.42-.78-10.85-1.13-11.14,1-4.26-.14-1.63,3-5.68.14-7.87-.57-7.24L49.3,352l1.78-5,1.56-3.34L47.17,339l-2.34-3.62Zm6.52,7.46,1.77,1.21.22-1.57-1.14-3.4-1.49-4.76-.43,2.84-.35,3.48Z"/></g><g id="LWPOLYLINE-24" data-name="LWPOLYLINE"><polygon class="cls-2" points="45.19 328.96 45.75 322.29 45.4 318.96 45.97 316.26 50.65 314.7 53.35 314.27 53.84 312.71 51.43 310.58 51.08 307.82 51.29 298.88 53.35 295.19 57.89 293.48 61.79 292.92 65.27 295.05 67.54 298.24 68.18 300.65 67.4 302.35 66.97 304.41 66.9 306.75 66.97 309.52 65.76 310.94 62.85 311.08 61.86 311.08 61.86 312.43 62.15 315.91 63.99 317.47 67.33 319.24 69.88 321.37 70.73 327.83 73.71 339.04 75.48 343.08 79.32 351.6 82.94 357.42 83.86 359.55 86.34 362.81 87.26 366.5 87.55 371.25 85.63 371.32 83.64 370.47 81.38 367.42 80.74 361.18 79.39 359.62 72.79 351.1 72.58 359.4 71.09 380.26 70.23 389.7 68.39 389.56 67.75 400.35 67.25 413.47 67.33 415.11 75.06 414.4 76.12 414.18 76.9 416.74 75.84 418.65 65.05 421.35 61.51 420.57 61.72 417.59 62.15 413.33 61.65 408.08 60.77 405.62 59.95 403.33 59.87 392.19 60.66 389.13 57.6 388.57 56.82 380.48 54.91 388.21 53.77 387.72 53.13 402.26 53.2 405.81 55.69 404.46 57.75 403.89 59.45 404.6 60.77 405.62 58.38 408.01 55.33 410.63 51.29 412.05 48.8 412.05 48.02 409.78 48.66 408.36 47.88 397.51 46.75 386.37 47.74 382.11 47.6 380.48 50.65 374.8 50.79 366.93 50.22 359.69 49.3 351.95 51.08 346.99 52.64 343.65 47.17 339.04 44.83 335.42 45.19 328.96"/></g><g id="LWPOLYLINE-25" data-name="LWPOLYLINE"><polygon class="cls-2" points="51.71 336.42 53.48 337.63 53.7 336.06 52.56 332.66 51.07 327.9 50.65 330.74 50.29 334.22 51.71 336.42"/></g><g id="LWPOLYLINE-26" data-name="LWPOLYLINE"><polyline class="cls-2" points="53.84 312.71 57.74 313.36 60.37 312.93 61.15 311.73 61.36 309.03 62.28 306.12 60.65 305.69 60.51 303.28 62.78 302.64 65.05 303.21 67.88 301.29"/></g><g id="LWPOLYLINE-27" data-name="LWPOLYLINE"><polyline class="cls-2" points="53.35 314.27 55.61 316.48 58.66 316.91 62.15 315.91"/></g><g id="LWPOLYLINE-28" data-name="LWPOLYLINE"><polygon class="cls-2" points="50.29 334.22 50.65 330.74 51.07 327.9 52.56 332.66 53.7 336.06 53.48 337.63 51.71 336.42 50.29 334.22"/></g><g id="LWPOLYLINE-29" data-name="LWPOLYLINE"><polyline class="cls-2" points="52.64 343.65 53.2 339.4 53.48 337.63"/></g><g id="LWPOLYLINE-30" data-name="LWPOLYLINE"><polyline class="cls-2" points="44.92 333.87 48.16 334.93 50.29 334.22"/></g><g id="LWPOLYLINE-31" data-name="LWPOLYLINE"><polyline class="cls-2" points="72.64 350.68 70.02 346.78 67.89 342.17 64.55 335 63.35 330.25"/></g><g id="LWPOLYLINE-32" data-name="LWPOLYLINE"><polyline class="cls-2" points="70.18 347.02 73.21 345.15 76.05 344.33"/></g><g id="LWPOLYLINE-33" data-name="LWPOLYLINE"><polyline class="cls-2" points="51.08 346.99 57.71 351.87 66.09 353.3 71.4 353.19 72.73 353.23"/></g><g id="LWPOLYLINE-34" data-name="LWPOLYLINE"><polyline class="cls-2" points="47.6 380.48 51.48 385.48 53.77 387.72"/></g><g id="LWPOLYLINE-35" data-name="LWPOLYLINE"><line class="cls-2" x1="60.66" y1="389.13" x2="68.39" y2="389.56"/></g><g id="LWPOLYLINE-36" data-name="LWPOLYLINE"><polyline class="cls-2" points="67.33 415.11 66.5 417.26 64.05 417.98 61.72 417.59"/></g><g id="LWPOLYLINE-37" data-name="LWPOLYLINE"><polyline class="cls-2" points="53.2 405.81 53.63 407.52 52.45 408.71 50.55 409 48.66 408.36"/></g><g id="HATCH-5" data-name="HATCH"><path class="cls-1" d="M443.43,332.06l.3-1.88,2.31-2.12,1.76-4.86-.92-5.88-3.15-2.55-5.64-.73-4.25,1.4-2.61,4.18-2.37,3.65,2.73,2.48.55,2.07-.24,3.58.82.52.31,1.58L431,335l-1.89,4-2.41,7.23-.94,1.26-8.18,11.43-6.08.63-6,.63-1.47,2.1-.31,3.14L406,368l4.09,2.73-.84,1.26,2.1,1.78,3.67.11,2.3,1.78,8.81,8.49,7.13,5.67,2.73,2.3,1.47,3.78,1.78-1.36.11-3.88,2-.42,3.25-2.42,8.39-7.34,4.61-8,2.31-1.36,5.77-3.77.73-3.05-2.41-6.5-2.62-4.93-3.67-8.17L454.53,339l-2.73-2-6.18-2.84ZM437,351.82l-2.33-3.56-.78-2.55-2.4,2.76-.76-.36-4,6.12-4.44,3.2-1,1.41,2.4-.46,5-.66L438,360l.14-4.08Zm5.75,18.65-10.92-.22-6.19.36,4,2.26,5.9,3.06,3-1.12Z"/></g><g id="LWPOLYLINE-38" data-name="LWPOLYLINE"><polygon class="cls-2" points="445.62 334.12 451.81 336.96 454.53 338.95 457.68 344.71 461.35 352.89 463.97 357.82 466.38 364.32 465.65 367.37 459.88 371.14 457.57 372.5 452.96 380.47 444.57 387.81 441.32 390.23 439.33 390.64 439.22 394.52 437.44 395.89 435.97 392.11 433.24 389.81 426.11 384.14 417.31 375.65 415 373.87 411.33 373.76 409.23 371.98 410.07 370.72 405.98 368 403.78 365.37 404.09 362.23 405.56 360.13 411.54 359.5 417.62 358.87 425.8 347.44 426.74 346.18 429.15 338.95 431.04 334.96 433.03 333.5 432.72 331.92 431.9 331.4 432.14 327.82 431.59 325.75 428.86 323.26 431.23 319.62 433.84 315.44 438.09 314.04 443.73 314.77 446.88 317.32 447.8 323.2 446.04 328.06 443.73 330.18 443.43 332.06 445.62 334.12"/></g><g id="LWPOLYLINE-39" data-name="LWPOLYLINE"><polygon class="cls-2" points="438.14 355.9 438 359.98 428.75 357.72 423.72 358.38 421.32 358.84 422.3 357.43 426.74 354.23 430.71 348.11 431.47 348.47 433.87 345.71 434.65 348.26 436.98 351.82 438.14 355.9"/></g><g id="LWPOLYLINE-40" data-name="LWPOLYLINE"><polygon class="cls-2" points="438.49 374.81 435.52 375.93 429.62 372.87 425.62 370.61 431.81 370.25 442.73 370.47 438.49 374.81"/></g><g id="LINE-69" data-name="LINE"><line class="cls-2" x1="443.73" y1="330.18" x2="443.44" y2="327.2"/></g><g id="LINE-70" data-name="LINE"><line class="cls-2" x1="443.44" y1="327.2" x2="441.8" y2="325.44"/></g><g id="LINE-71" data-name="LINE"><line class="cls-2" x1="441.8" y1="325.44" x2="440.46" y2="326.47"/></g><g id="LINE-72" data-name="LINE"><line class="cls-2" x1="440.46" y1="326.47" x2="439.25" y2="327.81"/></g><g id="LINE-73" data-name="LINE"><line class="cls-2" x1="439.25" y1="327.81" x2="435.06" y2="326.96"/></g><g id="LINE-74" data-name="LINE"><line class="cls-2" x1="435.06" y1="326.96" x2="431.59" y2="325.75"/></g><g id="LINE-75" data-name="LINE"><line class="cls-2" x1="445.62" y1="334.12" x2="443.68" y2="337.88"/></g><g id="LINE-76" data-name="LINE"><line class="cls-2" x1="443.68" y1="337.88" x2="441.25" y2="338.85"/></g><g id="LINE-77" data-name="LINE"><line class="cls-2" x1="441.25" y1="338.85" x2="438.89" y2="339.03"/></g><g id="LINE-78" data-name="LINE"><line class="cls-2" x1="438.89" y1="339.03" x2="438.52" y2="336.36"/></g><g id="LINE-79" data-name="LINE"><line class="cls-2" x1="438.52" y1="336.36" x2="436.94" y2="336.18"/></g><g id="LINE-80" data-name="LINE"><line class="cls-2" x1="436.94" y1="336.18" x2="434.64" y2="336.18"/></g><g id="LINE-81" data-name="LINE"><line class="cls-2" x1="434.64" y1="336.18" x2="433.03" y2="333.5"/></g><g id="LINE-82" data-name="LINE"><line class="cls-2" x1="433.87" y1="345.71" x2="431.47" y2="348.47"/></g><g id="LINE-83" data-name="LINE"><line class="cls-2" x1="431.47" y1="348.47" x2="426.74" y2="346.18"/></g><g id="LINE-84" data-name="LINE"><line class="cls-2" x1="430.71" y1="348.11" x2="426.74" y2="354.23"/></g><g id="LINE-85" data-name="LINE"><line class="cls-2" x1="426.74" y1="354.23" x2="422.3" y2="357.43"/></g><g id="LINE-86" data-name="LINE"><line class="cls-2" x1="422.3" y1="357.43" x2="420.84" y2="359.54"/></g><g id="LINE-87" data-name="LINE"><line class="cls-2" x1="420.84" y1="359.54" x2="420.69" y2="363.4"/></g><g id="LINE-88" data-name="LINE"><line class="cls-2" x1="420.69" y1="363.4" x2="419.02" y2="368.21"/></g><g id="LINE-89" data-name="LINE"><line class="cls-2" x1="419.02" y1="368.21" x2="418.95" y2="364.57"/></g><g id="LINE-90" data-name="LINE"><line class="cls-2" x1="418.95" y1="364.57" x2="416.76" y2="365.59"/></g><g id="LINE-91" data-name="LINE"><line class="cls-2" x1="416.76" y1="365.59" x2="415.38" y2="369.37"/></g><g id="LINE-92" data-name="LINE"><line class="cls-2" x1="415.38" y1="369.37" x2="413.48" y2="368.72"/></g><g id="LINE-93" data-name="LINE"><line class="cls-2" x1="413.48" y1="368.72" x2="412.03" y2="364.57"/></g><g id="LINE-94" data-name="LINE"><line class="cls-2" x1="412.03" y1="364.57" x2="414.43" y2="360.71"/></g><g id="LINE-95" data-name="LINE"><line class="cls-2" x1="414.43" y1="360.71" x2="417.62" y2="358.87"/></g><g id="LINE-96" data-name="LINE"><line class="cls-2" x1="463.97" y1="357.82" x2="459.7" y2="361.15"/></g><g id="LINE-97" data-name="LINE"><line class="cls-2" x1="459.7" y1="361.15" x2="457.66" y2="361.22"/></g><g id="LINE-98" data-name="LINE"><line class="cls-2" x1="457.66" y1="361.22" x2="456.06" y2="360.93"/></g><g id="LINE-99" data-name="LINE"><line class="cls-2" x1="456.06" y1="360.93" x2="454.53" y2="356.34"/></g><g id="LINE-100" data-name="LINE"><line class="cls-2" x1="454.53" y1="356.34" x2="452.92" y2="352.92"/></g><g id="LINE-101" data-name="LINE"><line class="cls-2" x1="434.21" y1="343.3" x2="433.87" y2="345.71"/></g><g id="LINE-102" data-name="LINE"><line class="cls-2" x1="433.87" y1="345.71" x2="434.65" y2="348.26"/></g><g id="LINE-103" data-name="LINE"><line class="cls-2" x1="434.65" y1="348.26" x2="436.98" y2="351.82"/></g><g id="LINE-104" data-name="LINE"><line class="cls-2" x1="436.98" y1="351.82" x2="438.14" y2="355.9"/></g><g id="LINE-105" data-name="LINE"><line class="cls-2" x1="438.14" y1="355.9" x2="438" y2="359.98"/></g><g id="LINE-106" data-name="LINE"><line class="cls-2" x1="438" y1="359.98" x2="428.75" y2="357.72"/></g><g id="LINE-107" data-name="LINE"><line class="cls-2" x1="428.75" y1="357.72" x2="423.72" y2="358.38"/></g><g id="LINE-108" data-name="LINE"><line class="cls-2" x1="423.72" y1="358.38" x2="421.32" y2="358.84"/></g><g id="LINE-109" data-name="LINE"><line class="cls-2" x1="438" y1="359.98" x2="439.45" y2="364.64"/></g><g id="LINE-110" data-name="LINE"><line class="cls-2" x1="439.45" y1="364.64" x2="444.55" y2="367.63"/></g><g id="LINE-111" data-name="LINE"><line class="cls-2" x1="444.55" y1="367.63" x2="447.54" y2="368.79"/></g><g id="LINE-112" data-name="LINE"><line class="cls-2" x1="447.54" y1="368.79" x2="450.16" y2="368.57"/></g><g id="LINE-113" data-name="LINE"><line class="cls-2" x1="450.16" y1="368.57" x2="457" y2="365.44"/></g><g id="LINE-114" data-name="LINE"><line class="cls-2" x1="457" y1="365.44" x2="459.19" y2="364.86"/></g><g id="LINE-115" data-name="LINE"><line class="cls-2" x1="459.19" y1="364.86" x2="457.66" y2="361.22"/></g><g id="LINE-116" data-name="LINE"><line class="cls-2" x1="450.74" y1="368.3" x2="444.26" y2="372.07"/></g><g id="LINE-117" data-name="LINE"><line class="cls-2" x1="444.26" y1="372.07" x2="439.96" y2="374.25"/></g><g id="LINE-118" data-name="LINE"><line class="cls-2" x1="439.96" y1="374.25" x2="435.52" y2="375.93"/></g><g id="LINE-119" data-name="LINE"><line class="cls-2" x1="435.52" y1="375.93" x2="431.37" y2="376.87"/></g><g id="LINE-120" data-name="LINE"><line class="cls-2" x1="431.37" y1="376.87" x2="431.3" y2="379.42"/></g><g id="LINE-121" data-name="LINE"><line class="cls-2" x1="431.3" y1="379.42" x2="434.5" y2="380.59"/></g><g id="LINE-122" data-name="LINE"><line class="cls-2" x1="434.5" y1="380.59" x2="440.25" y2="379.13"/></g><g id="LINE-123" data-name="LINE"><line class="cls-2" x1="440.25" y1="379.13" x2="445.06" y2="376.07"/></g><g id="LINE-124" data-name="LINE"><line class="cls-2" x1="445.06" y1="376.07" x2="448.7" y2="374.25"/></g><g id="LINE-125" data-name="LINE"><line class="cls-2" x1="448.7" y1="374.25" x2="456.64" y2="372.72"/></g><g id="LINE-126" data-name="LINE"><line class="cls-2" x1="456.64" y1="372.72" x2="457.57" y2="372.5"/></g><g id="LINE-127" data-name="LINE"><line class="cls-2" x1="442.73" y1="370.47" x2="438.49" y2="374.81"/></g><g id="LINE-128" data-name="LINE"><line class="cls-2" x1="442.73" y1="370.47" x2="431.81" y2="370.25"/></g><g id="LINE-129" data-name="LINE"><line class="cls-2" x1="431.81" y1="370.25" x2="425.62" y2="370.61"/></g><g id="LINE-130" data-name="LINE"><line class="cls-2" x1="425.62" y1="370.61" x2="429.62" y2="372.87"/></g><g id="LINE-131" data-name="LINE"><line class="cls-2" x1="429.62" y1="372.87" x2="435.52" y2="375.93"/></g><g id="LWPOLYLINE-41" data-name="LWPOLYLINE"><polyline class="cls-2" points="439.33 390.64 435.8 390.8 433.92 390.38"/></g><g id="LWPOLYLINE-42" data-name="LWPOLYLINE"><line class="cls-2" x1="410.07" y1="370.72" x2="414.24" y2="368.98"/></g><g id="LWPOLYLINE-43" data-name="LWPOLYLINE"><line class="cls-2" x1="425.62" y1="370.61" x2="420.39" y2="368.25"/></g><g id="LWPOLYLINE-44" data-name="LWPOLYLINE"><line class="cls-2" x1="415.79" y1="368.24" x2="417.97" y2="367.69"/></g><path class="cls-9" d="M454.14,423.71s-46.16-.82-29.34-23.49,94.34,19.57,31.14,24.12"/><path class="cls-9" d="M442.11,400a123.64,123.64,0,0,1,7.81-16.3c7.6-13.57,24.39-14.1,30.13-1,7.37,16.79,10.12,37.15-15.85,42.43,0,0-26.06,8.32-25.25-11.78"/></g></g></svg>