<svg xmlns="http://www.w3.org/2000/svg" xmlns:xlink="http://www.w3.org/1999/xlink" viewBox="0 0 639.12 362.6"><defs><style>.cls-1,.cls-25,.cls-32,.cls-49,.cls-5{fill:none;}.cls-1{clip-rule:evenodd;}.cls-2,.cls-3{fill:#f1f2f2;}.cls-10,.cls-11,.cls-12,.cls-13,.cls-14,.cls-15,.cls-16,.cls-17,.cls-18,.cls-19,.cls-2,.cls-20,.cls-22,.cls-26,.cls-27,.cls-28,.cls-29,.cls-30,.cls-31,.cls-32,.cls-33,.cls-34,.cls-35,.cls-36,.cls-37,.cls-38,.cls-39,.cls-40,.cls-41,.cls-42,.cls-43,.cls-44,.cls-45,.cls-46,.cls-47,.cls-49,.cls-51,.cls-52,.cls-53,.cls-54,.cls-55,.cls-56,.cls-57,.cls-58,.cls-59,.cls-6,.cls-60,.cls-61,.cls-62,.cls-63,.cls-64,.cls-65,.cls-66,.cls-67,.cls-68,.cls-69,.cls-7,.cls-70,.cls-71,.cls-72,.cls-73,.cls-74,.cls-75,.cls-76,.cls-77,.cls-78,.cls-79,.cls-8,.cls-80,.cls-81,.cls-82,.cls-83,.cls-84,.cls-85,.cls-86,.cls-87,.cls-9{stroke:#000;}.cls-10,.cls-11,.cls-12,.cls-13,.cls-14,.cls-15,.cls-16,.cls-17,.cls-18,.cls-19,.cls-2,.cls-20,.cls-21,.cls-22,.cls-26,.cls-27,.cls-28,.cls-29,.cls-30,.cls-31,.cls-32,.cls-33,.cls-34,.cls-35,.cls-36,.cls-37,.cls-38,.cls-39,.cls-40,.cls-41,.cls-42,.cls-43,.cls-44,.cls-45,.cls-46,.cls-47,.cls-49,.cls-5,.cls-51,.cls-52,.cls-53,.cls-54,.cls-55,.cls-56,.cls-57,.cls-58,.cls-59,.cls-6,.cls-60,.cls-61,.cls-62,.cls-63,.cls-64,.cls-65,.cls-66,.cls-67,.cls-68,.cls-69,.cls-7,.cls-70,.cls-71,.cls-72,.cls-73,.cls-74,.cls-75,.cls-76,.cls-77,.cls-78,.cls-79,.cls-8,.cls-80,.cls-81,.cls-82,.cls-83,.cls-84,.cls-85,.cls-86,.cls-87,.cls-9{stroke-miterlimit:10;}.cls-4{fill:url(#linear-gradient);}.cls-5{stroke:#f1f2f2;}.cls-6{fill:url(#linear-gradient-2);}.cls-7{fill:url(#linear-gradient-3);}.cls-8{fill:url(#linear-gradient-4);}.cls-9{fill:url(#linear-gradient-5);}.cls-10{fill:url(#linear-gradient-6);}.cls-11{fill:url(#linear-gradient-7);}.cls-12{fill:url(#linear-gradient-8);}.cls-13{fill:url(#linear-gradient-9);}.cls-14{fill:url(#linear-gradient-10);}.cls-15{fill:url(#linear-gradient-11);}.cls-16{fill:url(#linear-gradient-12);}.cls-17{fill:url(#linear-gradient-13);}.cls-18{fill:url(#linear-gradient-14);}.cls-19{fill:url(#linear-gradient-15);}.cls-20{fill:url(#linear-gradient-16);}.cls-21{fill:#231f20;stroke:#fff;}.cls-22{fill:#12e582;}.cls-23,.cls-24,.cls-51{fill:#fff;}.cls-24,.cls-49{fill-rule:evenodd;}.cls-25{stroke:#333;stroke-linecap:round;stroke-linejoin:round;}.cls-26{fill:url(#linear-gradient-17);}.cls-27{fill:url(#linear-gradient-18);}.cls-28{fill:url(#linear-gradient-19);}.cls-29{fill:url(#linear-gradient-20);}.cls-30{fill:url(#linear-gradient-21);}.cls-31{fill:url(#linear-gradient-22);}.cls-33{fill:url(#linear-gradient-23);}.cls-34{fill:url(#linear-gradient-24);}.cls-35{fill:url(#linear-gradient-25);}.cls-36{fill:url(#linear-gradient-26);}.cls-37{fill:url(#linear-gradient-27);}.cls-38{fill:url(#linear-gradient-28);}.cls-39{fill:url(#linear-gradient-29);}.cls-40{fill:url(#linear-gradient-30);}.cls-41{fill:url(#linear-gradient-31);}.cls-42{fill:url(#linear-gradient-32);}.cls-43{fill:url(#linear-gradient-33);}.cls-44{fill:url(#linear-gradient-34);}.cls-45{fill:url(#linear-gradient-35);}.cls-46{fill:url(#linear-gradient-36);}.cls-47{fill:url(#linear-gradient-37);}.cls-48{clip-path:url(#clip-path);}.cls-50{fill:url(#linear-gradient-38);}.cls-52{fill:url(#linear-gradient-39);}.cls-53{fill:url(#linear-gradient-40);}.cls-54{fill:url(#linear-gradient-41);}.cls-55{fill:url(#linear-gradient-42);}.cls-56{fill:url(#linear-gradient-43);}.cls-57{fill:url(#linear-gradient-44);}.cls-58{fill:url(#linear-gradient-45);}.cls-59{fill:url(#linear-gradient-46);}.cls-60{fill:url(#linear-gradient-47);}.cls-61{fill:url(#linear-gradient-48);}.cls-62{fill:url(#linear-gradient-49);}.cls-63{fill:url(#linear-gradient-50);}.cls-64{fill:url(#linear-gradient-51);}.cls-65{fill:url(#linear-gradient-52);}.cls-66{fill:url(#linear-gradient-53);}.cls-67{fill:url(#linear-gradient-54);}.cls-68{fill:url(#linear-gradient-55);}.cls-69{fill:url(#linear-gradient-56);}.cls-70{fill:url(#linear-gradient-57);}.cls-71{fill:url(#linear-gradient-58);}.cls-72{fill:url(#linear-gradient-59);}.cls-73{fill:url(#linear-gradient-60);}.cls-74{fill:url(#linear-gradient-61);}.cls-75{fill:url(#linear-gradient-62);}.cls-76{fill:url(#linear-gradient-63);}.cls-77{fill:url(#linear-gradient-64);}.cls-78{fill:url(#linear-gradient-65);}.cls-79{fill:url(#linear-gradient-66);}.cls-80{fill:url(#linear-gradient-67);}.cls-81{fill:url(#linear-gradient-68);}.cls-82{fill:url(#linear-gradient-69);}.cls-83{fill:url(#linear-gradient-70);}.cls-84{fill:url(#linear-gradient-71);}.cls-85{fill:url(#linear-gradient-72);}.cls-86{fill:url(#linear-gradient-73);}.cls-87{fill:url(#linear-gradient-74);}.cls-88{clip-path:url(#clip-path-2);}</style><linearGradient id="linear-gradient" x1="483.94" y1="352.49" x2="483.94" y2="136.73" gradientUnits="userSpaceOnUse"><stop offset="0" stop-color="#12e582"/><stop offset="0.14" stop-color="#2ce890" stop-opacity="0.89"/><stop offset="0.43" stop-color="#70efb3" stop-opacity="0.6"/><stop offset="0.86" stop-color="#dbfbec" stop-opacity="0.15"/><stop offset="1" stop-color="#fff" stop-opacity="0"/></linearGradient><linearGradient id="linear-gradient-2" x1="-1295.62" y1="222.48" x2="-1180.38" y2="222.48" gradientTransform="matrix(-1, 0, 0, 1, -803.54, 0)" gradientUnits="userSpaceOnUse"><stop offset="0" stop-color="#ababab"/><stop offset="1" stop-color="#1a1a1a"/></linearGradient><linearGradient id="linear-gradient-3" x1="-1298.05" y1="194.53" x2="-1177.87" y2="194.53" gradientTransform="matrix(-1, 0, 0, 1, -803.54, 0)" gradientUnits="userSpaceOnUse"><stop offset="0" stop-color="#fff"/><stop offset="1" stop-color="#ababab"/></linearGradient><linearGradient id="linear-gradient-4" x1="-1298.01" y1="189.51" x2="-1178.04" y2="189.51" xlink:href="#linear-gradient-3"/><linearGradient id="linear-gradient-5" x1="-1220.66" y1="244.04" x2="-1216.98" y2="244.04" xlink:href="#linear-gradient-3"/><linearGradient id="linear-gradient-6" x1="-1255.83" y1="190.26" x2="-1222.59" y2="190.26" xlink:href="#linear-gradient-3"/><linearGradient id="linear-gradient-7" x1="-1262.64" y1="177.92" x2="-1257.87" y2="177.92" xlink:href="#linear-gradient-3"/><linearGradient id="linear-gradient-8" x1="-1273.85" y1="176.59" x2="-1263.95" y2="176.59" xlink:href="#linear-gradient-3"/><linearGradient id="linear-gradient-9" x1="-1256.6" y1="178.27" x2="-1246.7" y2="178.27" xlink:href="#linear-gradient-3"/><linearGradient id="linear-gradient-10" x1="4034.49" y1="4441.05" x2="4042.37" y2="4441.05" gradientTransform="translate(-4750.62 3173.22) rotate(-77.59)" xlink:href="#linear-gradient-3"/><linearGradient id="linear-gradient-11" x1="4046.99" y1="4442.11" x2="4054.87" y2="4442.11" gradientTransform="translate(-4750.62 3173.22) rotate(-77.59)" xlink:href="#linear-gradient-3"/><linearGradient id="linear-gradient-12" x1="-1220.15" y1="200.03" x2="-1215.38" y2="200.03" xlink:href="#linear-gradient-3"/><linearGradient id="linear-gradient-13" x1="-1231.36" y1="198.71" x2="-1221.45" y2="198.71" xlink:href="#linear-gradient-3"/><linearGradient id="linear-gradient-14" x1="-1214.11" y1="200.38" x2="-1204.2" y2="200.38" xlink:href="#linear-gradient-3"/><linearGradient id="linear-gradient-15" x1="4003.76" y1="4404.31" x2="4011.64" y2="4404.31" gradientTransform="translate(-4750.62 3173.22) rotate(-77.59)" xlink:href="#linear-gradient-3"/><linearGradient id="linear-gradient-16" x1="4016.26" y1="4405.36" x2="4024.14" y2="4405.36" gradientTransform="translate(-4750.62 3173.22) rotate(-77.59)" xlink:href="#linear-gradient-3"/><linearGradient id="linear-gradient-17" x1="-1274.23" y1="245.23" x2="-1226.91" y2="245.23" xlink:href="#linear-gradient-3"/><linearGradient id="linear-gradient-18" x1="-1352.63" y1="236.65" x2="-1261.87" y2="236.65" xlink:href="#linear-gradient-3"/><linearGradient id="linear-gradient-19" x1="-1339.66" y1="258.36" x2="-1261.87" y2="258.36" xlink:href="#linear-gradient-2"/><linearGradient id="linear-gradient-20" x1="-1261.87" y1="273.34" x2="-1235.94" y2="273.34" xlink:href="#linear-gradient-2"/><linearGradient id="linear-gradient-21" x1="-1359.6" y1="206.61" x2="-1225.6" y2="206.61" xlink:href="#linear-gradient-2"/><linearGradient id="linear-gradient-22" x1="-1359.6" y1="201.14" x2="-1225.6" y2="201.14" xlink:href="#linear-gradient-3"/><linearGradient id="linear-gradient-23" x1="-1397.39" y1="283.73" x2="-1282.14" y2="283.73" xlink:href="#linear-gradient-2"/><linearGradient id="linear-gradient-24" x1="-1399.82" y1="255.79" x2="-1279.63" y2="255.79" xlink:href="#linear-gradient-3"/><linearGradient id="linear-gradient-25" x1="-1399.77" y1="250.76" x2="-1279.8" y2="250.76" xlink:href="#linear-gradient-3"/><linearGradient id="linear-gradient-26" x1="-1322.43" y1="305.29" x2="-1318.75" y2="305.29" xlink:href="#linear-gradient-3"/><linearGradient id="linear-gradient-27" x1="-1357.6" y1="251.51" x2="-1324.35" y2="251.51" xlink:href="#linear-gradient-3"/><linearGradient id="linear-gradient-28" x1="-1364.41" y1="239.17" x2="-1359.64" y2="239.17" xlink:href="#linear-gradient-3"/><linearGradient id="linear-gradient-29" x1="-1375.62" y1="237.85" x2="-1365.71" y2="237.85" xlink:href="#linear-gradient-3"/><linearGradient id="linear-gradient-30" x1="-1358.37" y1="239.52" x2="-1348.46" y2="239.52" xlink:href="#linear-gradient-3"/><linearGradient id="linear-gradient-31" x1="3996.55" y1="4553.61" x2="4004.43" y2="4553.61" gradientTransform="translate(-4750.62 3173.22) rotate(-77.59)" xlink:href="#linear-gradient-3"/><linearGradient id="linear-gradient-32" x1="4009.04" y1="4554.66" x2="4016.92" y2="4554.66" gradientTransform="translate(-4750.62 3173.22) rotate(-77.59)" xlink:href="#linear-gradient-3"/><linearGradient id="linear-gradient-33" x1="-1321.92" y1="261.28" x2="-1317.14" y2="261.28" xlink:href="#linear-gradient-3"/><linearGradient id="linear-gradient-34" x1="-1333.12" y1="259.96" x2="-1323.22" y2="259.96" xlink:href="#linear-gradient-3"/><linearGradient id="linear-gradient-35" x1="-1315.87" y1="261.64" x2="-1305.97" y2="261.64" xlink:href="#linear-gradient-3"/><linearGradient id="linear-gradient-36" x1="3965.81" y1="4516.86" x2="3973.7" y2="4516.86" gradientTransform="translate(-4750.62 3173.22) rotate(-77.59)" xlink:href="#linear-gradient-3"/><linearGradient id="linear-gradient-37" x1="3978.31" y1="4517.92" x2="3986.19" y2="4517.92" gradientTransform="translate(-4750.62 3173.22) rotate(-77.59)" xlink:href="#linear-gradient-3"/><clipPath id="clip-path"><polygon class="cls-1" points="506.42 244.09 516.11 238.28 546.42 247 574.34 190.8 554.83 148.86 507.38 177.78 493.49 213.86 506.42 244.09"/></clipPath><linearGradient id="linear-gradient-38" x1="155.15" y1="352.49" x2="155.15" y2="136.73" gradientUnits="userSpaceOnUse"><stop offset="0" stop-color="#7f3ff0"/><stop offset="0.09" stop-color="#7b3ee8" stop-opacity="0.96"/><stop offset="0.24" stop-color="#723ad2" stop-opacity="0.85"/><stop offset="0.43" stop-color="#6235ae" stop-opacity="0.68"/><stop offset="0.65" stop-color="#4b2d7b" stop-opacity="0.44"/><stop offset="0.9" stop-color="#30233c" stop-opacity="0.14"/><stop offset="1" stop-color="#231f20" stop-opacity="0"/></linearGradient><linearGradient id="linear-gradient-39" x1="-966.83" y1="222.48" x2="-851.58" y2="222.48" gradientTransform="translate(1116.56)" xlink:href="#linear-gradient-2"/><linearGradient id="linear-gradient-40" x1="-969.26" y1="194.53" x2="-849.08" y2="194.53" gradientTransform="translate(1116.56)" xlink:href="#linear-gradient-3"/><linearGradient id="linear-gradient-41" x1="-969.22" y1="189.51" x2="-849.24" y2="189.51" gradientTransform="translate(1116.56)" xlink:href="#linear-gradient-3"/><linearGradient id="linear-gradient-42" x1="-891.87" y1="244.04" x2="-888.19" y2="244.04" gradientTransform="translate(1116.56)" xlink:href="#linear-gradient-3"/><linearGradient id="linear-gradient-43" x1="-927.04" y1="190.26" x2="-893.8" y2="190.26" gradientTransform="translate(1116.56)" xlink:href="#linear-gradient-3"/><linearGradient id="linear-gradient-44" x1="-933.85" y1="177.92" x2="-929.08" y2="177.92" gradientTransform="translate(1116.56)" xlink:href="#linear-gradient-3"/><linearGradient id="linear-gradient-45" x1="-945.06" y1="176.59" x2="-935.16" y2="176.59" gradientTransform="translate(1116.56)" xlink:href="#linear-gradient-3"/><linearGradient id="linear-gradient-46" x1="-927.81" y1="178.27" x2="-917.91" y2="178.27" gradientTransform="translate(1116.56)" xlink:href="#linear-gradient-3"/><linearGradient id="linear-gradient-47" x1="3963.81" y1="4119.95" x2="3971.7" y2="4119.95" gradientTransform="matrix(-0.21, -0.98, -0.98, 0.21, 5063.65, 3173.22)" xlink:href="#linear-gradient-3"/><linearGradient id="linear-gradient-48" x1="3976.31" y1="4121" x2="3984.19" y2="4121" gradientTransform="matrix(-0.21, -0.98, -0.98, 0.21, 5063.65, 3173.22)" xlink:href="#linear-gradient-3"/><linearGradient id="linear-gradient-49" x1="-891.36" y1="200.03" x2="-886.59" y2="200.03" gradientTransform="translate(1116.56)" xlink:href="#linear-gradient-3"/><linearGradient id="linear-gradient-50" x1="-902.57" y1="198.71" x2="-892.66" y2="198.71" gradientTransform="translate(1116.56)" xlink:href="#linear-gradient-3"/><linearGradient id="linear-gradient-51" x1="-885.32" y1="200.38" x2="-875.41" y2="200.38" gradientTransform="translate(1116.56)" xlink:href="#linear-gradient-3"/><linearGradient id="linear-gradient-52" x1="3933.08" y1="4083.2" x2="3940.96" y2="4083.2" gradientTransform="matrix(-0.21, -0.98, -0.98, 0.21, 5063.65, 3173.22)" xlink:href="#linear-gradient-3"/><linearGradient id="linear-gradient-53" x1="3945.58" y1="4084.26" x2="3953.46" y2="4084.26" gradientTransform="matrix(-0.21, -0.98, -0.98, 0.21, 5063.65, 3173.22)" xlink:href="#linear-gradient-3"/><linearGradient id="linear-gradient-54" x1="-945.44" y1="245.23" x2="-898.12" y2="245.23" gradientTransform="translate(1116.56)" xlink:href="#linear-gradient-3"/><linearGradient id="linear-gradient-55" x1="-1023.84" y1="236.65" x2="-933.08" y2="236.65" gradientTransform="translate(1116.56)" xlink:href="#linear-gradient-3"/><linearGradient id="linear-gradient-56" x1="-1010.87" y1="258.36" x2="-933.08" y2="258.36" gradientTransform="translate(1116.56)" xlink:href="#linear-gradient-2"/><linearGradient id="linear-gradient-57" x1="-933.08" y1="273.34" x2="-907.15" y2="273.34" gradientTransform="translate(1116.56)" xlink:href="#linear-gradient-2"/><linearGradient id="linear-gradient-58" x1="-1030.81" y1="206.61" x2="-896.81" y2="206.61" gradientTransform="translate(1116.56)" xlink:href="#linear-gradient-2"/><linearGradient id="linear-gradient-59" x1="-1030.81" y1="201.14" x2="-896.81" y2="201.14" gradientTransform="translate(1116.56)" xlink:href="#linear-gradient-3"/><linearGradient id="linear-gradient-60" x1="-1068.6" y1="283.73" x2="-953.35" y2="283.73" gradientTransform="translate(1116.56)" xlink:href="#linear-gradient-2"/><linearGradient id="linear-gradient-61" x1="-1071.03" y1="255.79" x2="-950.84" y2="255.79" gradientTransform="translate(1116.56)" xlink:href="#linear-gradient-3"/><linearGradient id="linear-gradient-62" x1="-1070.98" y1="250.76" x2="-951.01" y2="250.76" gradientTransform="translate(1116.56)" xlink:href="#linear-gradient-3"/><linearGradient id="linear-gradient-63" x1="-993.64" y1="305.29" x2="-989.96" y2="305.29" gradientTransform="translate(1116.56)" xlink:href="#linear-gradient-3"/><linearGradient id="linear-gradient-64" x1="-1028.81" y1="251.51" x2="-995.56" y2="251.51" gradientTransform="translate(1116.56)" xlink:href="#linear-gradient-3"/><linearGradient id="linear-gradient-65" x1="-1035.62" y1="239.17" x2="-1030.84" y2="239.17" gradientTransform="translate(1116.56)" xlink:href="#linear-gradient-3"/><linearGradient id="linear-gradient-66" x1="-1046.83" y1="237.85" x2="-1036.92" y2="237.85" gradientTransform="translate(1116.56)" xlink:href="#linear-gradient-3"/><linearGradient id="linear-gradient-67" x1="-1029.58" y1="239.52" x2="-1019.67" y2="239.52" gradientTransform="translate(1116.56)" xlink:href="#linear-gradient-3"/><linearGradient id="linear-gradient-68" x1="3925.87" y1="4232.5" x2="3933.75" y2="4232.5" gradientTransform="matrix(-0.21, -0.98, -0.98, 0.21, 5063.65, 3173.22)" xlink:href="#linear-gradient-3"/><linearGradient id="linear-gradient-69" x1="3938.36" y1="4233.56" x2="3946.24" y2="4233.56" gradientTransform="matrix(-0.21, -0.98, -0.98, 0.21, 5063.65, 3173.22)" xlink:href="#linear-gradient-3"/><linearGradient id="linear-gradient-70" x1="-993.13" y1="261.28" x2="-988.35" y2="261.28" gradientTransform="translate(1116.56)" xlink:href="#linear-gradient-3"/><linearGradient id="linear-gradient-71" x1="-1004.33" y1="259.96" x2="-994.43" y2="259.96" gradientTransform="translate(1116.56)" xlink:href="#linear-gradient-3"/><linearGradient id="linear-gradient-72" x1="-987.08" y1="261.64" x2="-977.18" y2="261.64" gradientTransform="translate(1116.56)" xlink:href="#linear-gradient-3"/><linearGradient id="linear-gradient-73" x1="3895.14" y1="4195.76" x2="3903.02" y2="4195.76" gradientTransform="matrix(-0.21, -0.98, -0.98, 0.21, 5063.65, 3173.22)" xlink:href="#linear-gradient-3"/><linearGradient id="linear-gradient-74" x1="3907.63" y1="4196.81" x2="3915.51" y2="4196.81" gradientTransform="matrix(-0.21, -0.98, -0.98, 0.21, 5063.65, 3173.22)" xlink:href="#linear-gradient-3"/><clipPath id="clip-path-2"><polygon class="cls-1" points="135.4 244.09 125.7 238.28 95.4 247 67.48 190.8 86.99 148.86 134.43 177.78 148.32 213.86 135.4 244.09"/></clipPath></defs><g id="Layer_2" data-name="Layer 2"><g id="Mentoring"><ellipse class="cls-2" cx="399.94" cy="90.04" rx="0.67" ry="1.18" transform="translate(-3.32 163.79) rotate(-23.05)"/><ellipse class="cls-2" cx="433.27" cy="108.55" rx="0.67" ry="1.18" transform="translate(-7.91 178.31) rotate(-23.05)"/><ellipse class="cls-2" cx="433.27" cy="64.65" rx="0.67" ry="1.18" transform="translate(9.28 174.81) rotate(-23.05)"/><path d="M483.63,361.1a14.66,14.66,0,0,1-7.29-2L337.55,278.77c-1.67-1-5.72-3.64-7.16-7.47l-.1-.25V88.29L483.94,1.73,637.58,89.94v179.9h-.09a14.4,14.4,0,0,1-7.18,11L490.88,359.16A14.5,14.5,0,0,1,483.63,361.1Z"/><path class="cls-3" d="M483.94,3.45,636.08,90.81V268.2h0v.08h0a12.91,12.91,0,0,1-6.52,11.2L490.15,357.85a13.06,13.06,0,0,1-13.06,0L338.3,277.47c-2.78-1.61-5.51-4-6.51-6.69V89.16L483.94,3.45M484,0l-1.49.84L330.32,86.55l-1.53.86V271.32l.19.51c1.62,4.28,6,7.19,7.82,8.23l138.79,80.38a16,16,0,0,0,16.06,0L631,282.11a15.9,15.9,0,0,0,7.7-10.53l.35,0v-3l0-.15,0-.41v-179l-1.5-.86L485.43.85,484,0Z"/><path class="cls-4" d="M483.63,350.45a14.56,14.56,0,0,1-7.29-2L337.55,268.11a14.53,14.53,0,0,1,0-25.17L477,164.57a14.56,14.56,0,0,1,14.54,0L630.33,245a14.55,14.55,0,0,1,0,25.18L490.88,348.51A14.6,14.6,0,0,1,483.63,350.45Z"/><path class="cls-3" d="M484.25,164.13a13,13,0,0,1,6.53,1.75l138.79,80.38a13,13,0,0,1,0,22.58L490.15,347.2a13,13,0,0,1-13.06,0L338.3,266.82a13,13,0,0,1,0-22.59l139.42-78.36a13.06,13.06,0,0,1,6.52-1.74m0-3h0a16,16,0,0,0-8,2.15L336.84,241.62a16,16,0,0,0,0,27.79l138.79,80.38a16,16,0,0,0,16.06,0L631,271.46a16.05,16.05,0,0,0,.05-27.8l-138.8-80.38a16,16,0,0,0-8-2.15Z"/><line class="cls-5" x1="483.94" y1="3.45" x2="483.94" y2="164.19"/><line class="cls-5" x1="351.14" y1="193.81" x2="466.74" y2="126.87"/><line class="cls-5" x1="351.14" y1="141.32" x2="466.74" y2="74.38"/><line class="cls-5" x1="619.21" y1="196.74" x2="503.61" y2="129.8"/><line class="cls-5" x1="619.21" y1="144.25" x2="503.61" y2="77.31"/><ellipse class="cls-2" cx="552.09" cy="177.45" rx="0.67" ry="1.18" transform="translate(-25.4 230.34) rotate(-23.05)"/><ellipse class="cls-2" cx="552.09" cy="133.54" rx="0.67" ry="1.18" transform="translate(-8.21 226.83) rotate(-23.05)"/><ellipse class="cls-2" cx="552.09" cy="79.06" rx="0.67" ry="1.18" transform="translate(13.12 222.48) rotate(-23.05)"/><ellipse class="cls-2" cx="520.35" cy="159.99" rx="0.67" ry="1.18" transform="translate(-21.1 216.52) rotate(-23.05)"/><ellipse class="cls-2" cx="520.35" cy="116.09" rx="0.67" ry="1.18" transform="translate(-3.91 213.01) rotate(-23.05)"/><ellipse class="cls-2" cx="585.41" cy="195.96" rx="0.67" ry="1.18" transform="translate(-29.99 244.87) rotate(-23.05)"/><ellipse class="cls-2" cx="585.41" cy="152.06" rx="0.67" ry="1.18" transform="translate(-12.8 241.36) rotate(-23.05)"/><ellipse class="cls-2" cx="585.41" cy="97.58" rx="0.67" ry="1.18" transform="translate(8.54 237.01) rotate(-23.05)"/><polygon class="cls-6" points="492.09 187.21 485.2 218.74 417.12 257.74 383.88 238.24 376.84 212.12 492.09 187.21"/><path class="cls-7" d="M374.45,202.63l.05.74,5.33-1.16,73.51-42.84a4.74,4.74,0,0,1,4.75,0L490.33,178l4-.89.11.72a57.56,57.56,0,0,1-.11,6.16v.13h0a4.64,4.64,0,0,1-2.25,3.11l-71.45,40.93a16.59,16.59,0,0,1-16.63-.08l-27.17-15.94a4.64,4.64,0,0,1-1.9-2.14h0v-.08A23.7,23.7,0,0,1,374.45,202.63Z"/><path class="cls-8" d="M492.1,174l-34-19.63a4.72,4.72,0,0,0-4.75,0l-76.49,44.56a4.74,4.74,0,0,0,0,8.18L404,223a16.59,16.59,0,0,0,16.63.09l71.45-40.94A4.74,4.74,0,0,0,492.1,174Z"/><line class="cls-9" x1="417.12" y1="257.74" x2="413.44" y2="230.34"/><line class="cls-10" x1="452.29" y1="200.01" x2="419.05" y2="180.5"/><ellipse class="cls-11" cx="456.72" cy="177.92" rx="2.39" ry="0.84"/><path class="cls-12" d="M470.31,176.36a22.69,22.69,0,0,0-9.9.72"/><path class="cls-13" d="M453.06,178a22.69,22.69,0,0,0-9.9.72"/><path class="cls-14" d="M453.69,187.67a18.18,18.18,0,0,1,2.25-7.58"/><path class="cls-15" d="M457.4,175.69a18,18,0,0,1,2.26-7.57"/><ellipse class="cls-16" cx="414.23" cy="200.03" rx="2.39" ry="0.84"/><path class="cls-17" d="M427.82,198.47a22.69,22.69,0,0,0-9.9.72"/><path class="cls-18" d="M410.57,200.15a22.69,22.69,0,0,0-9.9.72"/><path class="cls-19" d="M411.2,209.78a18,18,0,0,1,2.25-7.57"/><path class="cls-20" d="M414.91,197.8a18.12,18.12,0,0,1,2.25-7.57"/><polygon class="cls-21" points="451.56 45.09 458.02 49.36 431.12 103.73 431.12 111.28 451.56 99.47 458.02 103.73 377.31 189.18 370.84 184.91 404.2 135.39 397.74 131.12 397.74 115.01 377.31 127.04 370.84 122.77 451.56 45.09"/><polygon class="cls-21" points="424.66 115.01 424.66 99.47 397.74 115.01 397.74 131.12 424.66 115.01"/><polygon class="cls-21" points="424.66 91.7 424.66 99.47 451.56 83.92 451.56 45.09 370.84 91.7 370.84 122.77 424.66 91.7"/><polygon class="cls-21" points="451.56 99.47 424.66 115.01 424.66 122.77 370.84 153.84 370.84 184.91 451.56 138.32 451.56 99.47"/><polygon class="cls-22" points="431.12 119.28 431.12 103.73 404.2 119.28 404.2 135.39 431.12 119.28"/><polygon class="cls-22" points="431.12 95.97 431.12 103.73 458.02 88.19 458.02 49.36 377.31 95.97 377.31 127.04 431.12 95.97"/><polygon class="cls-22" points="458.02 103.73 431.12 119.28 431.12 127.04 377.31 158.11 377.31 189.18 458.02 142.59 458.02 103.73"/><ellipse class="cls-2" cx="520.35" cy="62.14" rx="0.67" ry="1.18" transform="translate(17.22 208.71) rotate(-23.05)"/><path class="cls-23" d="M547,76.69V61.35l2.29,1.32,2.73,12.43c.25,1.16.43,2,.54,2.59.13-.48.34-1.18.62-2.1L556,66.51l2,1.18V83l-1.47-.84V69.34L553.2,80.25l-1.37-.79-3.33-15v13Z"/><path class="cls-23" d="M566,84.05l1.46,1.09a2.51,2.51,0,0,1-1.28,1.91,2.73,2.73,0,0,1-2.39-.44,7.41,7.41,0,0,1-2.9-3.17,10.66,10.66,0,0,1-1.07-4.83c0-1.87.36-3.12,1.09-3.73s1.65-.59,2.8.07a7,7,0,0,1,2.73,3.1,10.75,10.75,0,0,1,1.06,4.88v.49l-6.22-3.58a7.74,7.74,0,0,0,.78,3.25,4.68,4.68,0,0,0,1.74,2,1.5,1.5,0,0,0,1.33.22A1.85,1.85,0,0,0,566,84.05Zm-4.64-5.72L566,81a6.83,6.83,0,0,0-.53-2.41,4.39,4.39,0,0,0-1.75-2.1,1.44,1.44,0,0,0-1.64-.08A2.42,2.42,0,0,0,561.35,78.33Z"/><path class="cls-23" d="M569.22,89.5V78.39l1.27.73V80.7c.61-.87,1.5-1,2.65-.3a5.4,5.4,0,0,1,1.39,1.16,5.52,5.52,0,0,1,.94,1.49,6.79,6.79,0,0,1,.44,1.65,15.94,15.94,0,0,1,.08,1.88v6.83l-1.41-.82V85.83a7.8,7.8,0,0,0-.17-1.81,3.56,3.56,0,0,0-.58-1.25,3.16,3.16,0,0,0-1-.91,1.46,1.46,0,0,0-1.55-.13q-.66.38-.66,2.52v6.06Z"/><path class="cls-23" d="M581.24,94.75l.2,1.79a5.12,5.12,0,0,1-1.06-.45,4,4,0,0,1-1.2-1,3.49,3.49,0,0,1-.59-1.19,10.12,10.12,0,0,1-.17-2.33V85.16l-1-.6V83.1l1,.6V81l1.4-.32v3.88l1.42.82v1.46L579.82,86v6.5a5.81,5.81,0,0,0,.07,1.08,1.57,1.57,0,0,0,.25.5,1.43,1.43,0,0,0,.48.42A4.77,4.77,0,0,0,581.24,94.75Z"/><path class="cls-23" d="M582.1,91.38c0-2.06.42-3.34,1.28-3.83a2.54,2.54,0,0,1,2.62.28A7.3,7.3,0,0,1,588.81,91a10.29,10.29,0,0,1,1.09,4.78,7.28,7.28,0,0,1-.48,3.09,1.86,1.86,0,0,1-1.4,1.1,3.06,3.06,0,0,1-2-.48,7.35,7.35,0,0,1-2.83-3.13A10.85,10.85,0,0,1,582.1,91.38Zm1.45.83a8.22,8.22,0,0,0,.7,3.6A4.55,4.55,0,0,0,586,97.89a1.33,1.33,0,0,0,1.75-.06c.47-.44.7-1.39.7-2.85a8,8,0,0,0-.7-3.52A4.53,4.53,0,0,0,586,89.39a1.35,1.35,0,0,0-1.75,0C583.78,89.86,583.55,90.79,583.55,92.21Z"/><path class="cls-23" d="M591.54,102.39V91.28l1.27.73v1.68a2.18,2.18,0,0,1,.9-1,1.1,1.1,0,0,1,.91.15,5.07,5.07,0,0,1,1.45,1.45l-.49,1.46a3.42,3.42,0,0,0-1-1,.88.88,0,0,0-.83-.11,1,1,0,0,0-.53.72,7.82,7.82,0,0,0-.24,2.06v5.82Z"/><path class="cls-23" d="M596.92,92.32V90.15l1.41.82v2.16Zm0,13.17V94.38l1.41.81V106.3Z"/><path class="cls-23" d="M600.48,107.55V96.44l1.27.73v1.58c.61-.87,1.5-1,2.65-.3a5.58,5.58,0,0,1,1.39,1.16,5.37,5.37,0,0,1,.94,1.49,6.67,6.67,0,0,1,.44,1.65,15.86,15.86,0,0,1,.08,1.87v6.83l-1.41-.81v-6.76a7.74,7.74,0,0,0-.17-1.81,3.56,3.56,0,0,0-.58-1.25,3.16,3.16,0,0,0-1-.91,1.48,1.48,0,0,0-1.55-.14q-.66.39-.66,2.52v6.07Z"/><path class="cls-23" d="M609.16,113.48l1.37,1.06a3.41,3.41,0,0,0,.48,1.51,4.12,4.12,0,0,0,1.43,1.35,1.83,1.83,0,0,0,1.52.35,1.35,1.35,0,0,0,.72-1,14.59,14.59,0,0,0,.1-2.36,1.74,1.74,0,0,1-2.3.12,6.37,6.37,0,0,1-2.66-3.19,11.27,11.27,0,0,1-1-4.51,7.26,7.26,0,0,1,.44-2.68,2,2,0,0,1,1.25-1.35,2.35,2.35,0,0,1,1.92.38,6.15,6.15,0,0,1,2.44,3v-1.34l1.3.75v9.61a9.4,9.4,0,0,1-.4,3.44,1.6,1.6,0,0,1-1.25,1,3.4,3.4,0,0,1-2.12-.59,7.14,7.14,0,0,1-2.41-2.29A5.62,5.62,0,0,1,609.16,113.48Zm1.17-6A8.3,8.3,0,0,0,611,111a4.25,4.25,0,0,0,1.63,1.95,1.26,1.26,0,0,0,1.63-.06c.44-.41.66-1.33.66-2.75a8.07,8.07,0,0,0-.68-3.47,4.38,4.38,0,0,0-1.63-2,1.22,1.22,0,0,0-1.6.1A3.8,3.8,0,0,0,610.33,107.48Z"/><path class="cls-23" d="M576.48,113.23V97.9l4.31,2.49a8.27,8.27,0,0,1,2.12,1.68,7.2,7.2,0,0,1,1.25,2.16,6.67,6.67,0,0,1,.45,2.28,3,3,0,0,1-.4,1.62,1.5,1.5,0,0,1-1.21.71,7,7,0,0,1,1.6,2.32,6.53,6.53,0,0,1,.56,2.64,4.24,4.24,0,0,1-.34,1.81,1.76,1.76,0,0,1-.84.94,2,2,0,0,1-1.26,0,7.41,7.41,0,0,1-1.86-.81Zm1.52-8,2.49,1.44a5.64,5.64,0,0,0,1.45.66.84.84,0,0,0,.87-.26,1.86,1.86,0,0,0,.3-1.17,4.11,4.11,0,0,0-.28-1.5,3.32,3.32,0,0,0-.78-1.25,8.89,8.89,0,0,0-1.75-1.23l-2.3-1.32Zm0,7.08,2.86,1.66a8,8,0,0,0,1,.52,1.57,1.57,0,0,0,.88.09.94.94,0,0,0,.58-.52,2.48,2.48,0,0,0,.23-1.16,4.49,4.49,0,0,0-.33-1.68,4.3,4.3,0,0,0-.92-1.42,8.13,8.13,0,0,0-1.68-1.22L578,107Z"/><path class="cls-23" d="M586.55,113.49c0-2,.43-3.33,1.29-3.82a2.55,2.55,0,0,1,2.62.27,7.38,7.38,0,0,1,2.81,3.13,10.28,10.28,0,0,1,1.09,4.77,7.33,7.33,0,0,1-.48,3.1,1.88,1.88,0,0,1-1.41,1.1,3,3,0,0,1-2-.48,7.35,7.35,0,0,1-2.83-3.13A10.73,10.73,0,0,1,586.55,113.49Zm1.45.84a8.4,8.4,0,0,0,.7,3.6,4.57,4.57,0,0,0,1.76,2.08,1.36,1.36,0,0,0,1.75-.06,4.09,4.09,0,0,0,.7-2.85,8.26,8.26,0,0,0-.7-3.53,4.53,4.53,0,0,0-1.75-2.07,1.37,1.37,0,0,0-1.76,0A3.93,3.93,0,0,0,588,114.33Z"/><path class="cls-23" d="M595.49,118.65c0-2.05.43-3.33,1.29-3.82a2.55,2.55,0,0,1,2.62.27,7.45,7.45,0,0,1,2.81,3.13A10.4,10.4,0,0,1,603.3,123a7.15,7.15,0,0,1-.49,3.1,1.88,1.88,0,0,1-1.4,1.1,3,3,0,0,1-2-.48,7.35,7.35,0,0,1-2.83-3.13A10.76,10.76,0,0,1,595.49,118.65Zm1.45.84a8.25,8.25,0,0,0,.7,3.6,4.51,4.51,0,0,0,1.76,2.08,1.36,1.36,0,0,0,1.75-.06q.69-.66.69-2.85a8.11,8.11,0,0,0-.7-3.53,4.57,4.57,0,0,0-1.74-2.07,1.37,1.37,0,0,0-1.76,0A3.93,3.93,0,0,0,596.94,119.49Z"/><path class="cls-23" d="M608,129.77l.2,1.78a5.21,5.21,0,0,1-1.07-.45,3.9,3.9,0,0,1-1.19-1,3.76,3.76,0,0,1-.6-1.2,10.63,10.63,0,0,1-.17-2.32v-6.39l-1-.6v-1.47l1,.6V116l1.41-.32v3.88l1.42.82v1.47l-1.42-.82v6.49a5,5,0,0,0,.07,1.08,1.4,1.4,0,0,0,.73.92A4.11,4.11,0,0,0,608,129.77Z"/><path class="cls-23" d="M609.42,132.25V116.91l1.41.82v5.5a1.9,1.9,0,0,1,2.49-.09,5.44,5.44,0,0,1,1.61,1.42,5.6,5.6,0,0,1,1,1.91,10.15,10.15,0,0,1,.29,2.66v7l-1.41-.82v-7a5.1,5.1,0,0,0-.46-2.32,3.24,3.24,0,0,0-1.3-1.39,1.65,1.65,0,0,0-1.18-.25,1.08,1.08,0,0,0-.79.72,6,6,0,0,0-.23,1.92v6.08Z"/><g id="HATCH"><path class="cls-24" d="M437.1,149.26l-9.21,3.48L423.65,161l-5.47,18.17.74,9.46,4.24,6.22,11.94,9.71,7.47,5.72.25,12.95,1.74,13.69.75,11,2,1.74-1.49,6,2.49,5,5.22.25.25-4.24-1-7.22.74-2.48-.74-35.6-.75-5.73-6.47-7.46,12.69,1.74,3.74,2.49,1.49,2.49v15.68l.95,12.56-.32,1.42.4,4,13.66.22,5-.26.18-2.48L480.32,234l-6.18-.74.29-13.83L476.92,199l-1.49-7.71-8.71-4.24-3.24-2-4-9.7-3-8.22-3-14.68-1.88-.38,1.95-3.82.43-3.89,2.31-2.16,1.29-4.61-1.72-3.89-3.75-3.6-4.32-.14-4.47-.43-3.6,1.44-2.59,2.88-.87,3.31,1.88,6-1,3,2.59,2.16-.57,1.15Zm8.77,27.28,4.61,2,4,.81-1.4-2.68-2.59-5.48-3.6-5.33L446.3,164l-1.87,5.47Z"/></g><g id="LWPOLYLINE"><polygon class="cls-25" points="437.1 149.26 427.88 152.74 423.65 160.96 418.18 179.13 418.92 188.59 423.16 194.81 435.1 204.52 442.57 210.24 442.82 223.19 444.56 236.88 445.31 247.83 447.3 249.57 445.81 255.55 448.3 260.53 453.52 260.77 453.77 256.54 452.78 249.32 453.52 246.84 452.78 211.24 452.03 205.51 445.56 198.05 458.25 199.79 461.99 202.28 463.48 204.77 463.48 220.45 464.43 233.01 464.11 234.43 464.51 238.4 478.17 238.62 483.21 238.36 483.39 235.88 480.32 234.02 474.13 233.28 474.43 219.45 476.92 199.04 475.43 191.33 466.72 187.09 463.48 185.1 459.5 175.4 456.51 167.18 453.52 152.5 451.64 152.13 453.59 148.3 454.02 144.41 456.33 142.25 457.62 137.64 455.9 133.75 452.15 130.15 447.83 130.01 443.36 129.58 439.76 131.02 437.17 133.9 436.31 137.21 438.18 143.26 437.17 146.29 439.76 148.45 439.19 149.6 437.1 149.26"/></g><g id="LWPOLYLINE-2" data-name="LWPOLYLINE"><polygon class="cls-25" points="445.87 176.54 450.48 178.56 454.47 179.37 453.07 176.69 450.48 171.21 446.88 165.88 446.3 164.01 444.43 169.48 445.87 176.54"/></g><g id="LINE"><line class="cls-25" x1="426.42" y1="180.72" x2="430.46" y2="181.15"/></g><g id="LINE-2" data-name="LINE"><line class="cls-25" x1="430.46" y1="181.15" x2="434.63" y2="180.29"/></g><g id="LINE-3" data-name="LINE"><line class="cls-25" x1="426.42" y1="180.72" x2="427" y2="190.95"/></g><g id="LINE-4" data-name="LINE"><line class="cls-25" x1="427" y1="190.95" x2="429.01" y2="193.83"/></g><g id="LINE-5" data-name="LINE"><line class="cls-25" x1="429.01" y1="193.83" x2="436.94" y2="195.56"/></g><g id="LINE-6" data-name="LINE"><line class="cls-25" x1="436.94" y1="195.56" x2="445.56" y2="198.05"/></g><g id="LINE-7" data-name="LINE"><line class="cls-25" x1="435.06" y1="188.35" x2="449.61" y2="192.39"/></g><g id="LINE-8" data-name="LINE"><line class="cls-25" x1="449.61" y1="192.39" x2="457.1" y2="194.84"/></g><g id="LINE-9" data-name="LINE"><line class="cls-25" x1="457.1" y1="194.84" x2="459.99" y2="193.11"/></g><g id="LINE-10" data-name="LINE"><line class="cls-25" x1="459.99" y1="193.11" x2="459.55" y2="188.5"/></g><g id="LINE-11" data-name="LINE"><line class="cls-25" x1="459.55" y1="188.5" x2="456.53" y2="183.31"/></g><g id="LINE-12" data-name="LINE"><line class="cls-25" x1="456.53" y1="183.31" x2="453.07" y2="176.69"/></g><g id="LINE-13" data-name="LINE"><line class="cls-25" x1="453.07" y1="176.69" x2="450.48" y2="171.21"/></g><g id="LINE-14" data-name="LINE"><line class="cls-25" x1="450.48" y1="171.21" x2="446.88" y2="165.88"/></g><g id="LINE-15" data-name="LINE"><line class="cls-25" x1="446.88" y1="165.88" x2="446.3" y2="164.01"/></g><g id="LINE-16" data-name="LINE"><line class="cls-25" x1="446.3" y1="164.01" x2="444.43" y2="169.48"/></g><g id="LINE-17" data-name="LINE"><line class="cls-25" x1="444.43" y1="169.48" x2="445.87" y2="176.54"/></g><g id="LINE-18" data-name="LINE"><line class="cls-25" x1="445.87" y1="176.54" x2="445.44" y2="180.29"/></g><g id="LINE-19" data-name="LINE"><line class="cls-25" x1="445.44" y1="180.29" x2="442.84" y2="183.89"/></g><g id="LINE-20" data-name="LINE"><line class="cls-25" x1="442.84" y1="183.89" x2="437.23" y2="186.62"/></g><g id="LINE-21" data-name="LINE"><line class="cls-25" x1="437.23" y1="186.62" x2="435.06" y2="188.35"/></g><g id="LINE-22" data-name="LINE"><line class="cls-25" x1="445.87" y1="176.54" x2="450.48" y2="178.56"/></g><g id="LINE-23" data-name="LINE"><line class="cls-25" x1="450.48" y1="178.56" x2="454.47" y2="179.37"/></g><g id="LINE-24" data-name="LINE"><line class="cls-25" x1="451.11" y1="172.55" x2="455.81" y2="171.07"/></g><g id="LINE-25" data-name="LINE"><line class="cls-25" x1="455.81" y1="171.07" x2="457.16" y2="168.98"/></g><g id="LINE-26" data-name="LINE"><line class="cls-25" x1="426.42" y1="180.72" x2="426.57" y2="172.8"/></g><g id="LINE-27" data-name="LINE"><line class="cls-25" x1="426.57" y1="172.8" x2="426.71" y2="169.91"/></g><g id="LINE-28" data-name="LINE"><line class="cls-25" x1="434.63" y1="180.29" x2="435.5" y2="173.52"/></g><g id="LINE-29" data-name="LINE"><line class="cls-25" x1="435.5" y1="173.52" x2="435.78" y2="169.05"/></g><g id="LINE-30" data-name="LINE"><line class="cls-25" x1="435.78" y1="169.05" x2="435.64" y2="168.04"/></g><g id="LINE-31" data-name="LINE"><line class="cls-25" x1="434.63" y1="180.29" x2="435.06" y2="188.35"/></g><g id="LINE-32" data-name="LINE"><line class="cls-25" x1="419.96" y1="190.11" x2="427" y2="190.95"/></g><g id="LINE-33" data-name="LINE"><line class="cls-25" x1="447.3" y1="249.57" x2="449.45" y2="249.93"/></g><g id="LINE-34" data-name="LINE"><line class="cls-25" x1="449.45" y1="249.93" x2="452.78" y2="249.32"/></g><g id="LINE-35" data-name="LINE"><line class="cls-25" x1="464.43" y1="233.01" x2="467.76" y2="233.82"/></g><g id="LINE-36" data-name="LINE"><line class="cls-25" x1="467.76" y1="233.82" x2="471.26" y2="233.82"/></g><g id="LINE-37" data-name="LINE"><line class="cls-25" x1="471.26" y1="233.82" x2="474.14" y2="233.28"/></g><g id="LWPOLYLINE-3" data-name="LWPOLYLINE"><polyline class="cls-25" points="454.34 144.12 449.99 143.86 444.15 143.3 441.79 142.05 442.62 144.41 442.69 147.26 441.51 147.75 440.05 145.66 438.18 143.26"/></g><g id="LWPOLYLINE-4" data-name="LWPOLYLINE"><polyline class="cls-25" points="444.59 153.2 448.77 155.22 451.07 154.36 451.64 152.13"/></g><g id="LWPOLYLINE-5" data-name="LWPOLYLINE"><polyline class="cls-25" points="439.19 149.6 438.26 152.39 438.35 154.73 440.18 157.15 442.85 157.48 444.93 155.39 445.73 153.75"/></g><g id="LWPOLYLINE-6" data-name="LWPOLYLINE"><polyline class="cls-25" points="457.1 194.84 460.05 195.93 462.27 195.37 463.66 196.34 465.54 197.94 468.53 198.99 470.89 199.96 470.47 201.42 468.11 202.04 464.64 202.11 461.99 202.28"/></g><g id="LWPOLYLINE-7" data-name="LWPOLYLINE"><polyline class="cls-25" points="463.48 185.1 465.68 191.69 467.07 194.61 469.36 197.46 470.26 198.57 469.87 199.54"/></g><polygon class="cls-26" points="470.69 240.4 458.34 277.83 432.41 262.86 423.37 212.64 470.69 240.4"/><polygon class="cls-2" points="549.09 195.48 536.13 232.91 510.19 217.76 510.19 172.82 549.09 195.48"/><polygon class="cls-27" points="549.09 195.48 536.13 232.91 458.34 277.83 470.69 240.4 549.09 195.48"/><polygon class="cls-28" points="536.13 232.91 536.13 238.9 458.34 283.82 458.34 277.83 536.13 232.91"/><polygon class="cls-29" points="432.41 262.86 458.34 277.83 458.34 283.82 432.41 268.84 432.41 262.86"/><polygon class="cls-30" points="436.95 212.59 512.13 168.78 550.23 190.78 556.06 189.66 556.06 194.15 468.29 244.44 422.06 217.33 422.06 212.84 436.95 212.59"/><polygon class="cls-31" points="556.06 189.66 508.75 162.33 422.06 212.84 468.29 239.94 556.06 189.66"/><line class="cls-2" x1="468.29" y1="239.94" x2="468.29" y2="244.44"/><polygon class="cls-2" points="487.7 188.32 507.91 176.65 533.33 191.27 513.12 202.94 487.7 188.32"/><polygon class="cls-2" points="507.91 176.65 512.81 152.27 538.23 167.25 533.33 191.27 507.91 176.65"/><polygon class="cls-2" points="498.25 185.72 508.86 179.69 528.05 190.72 517.44 196.75 498.25 185.72"/><polygon class="cls-2" points="511.02 175.65 514.91 156.27 535.12 168.18 531.23 187.27 511.02 175.65"/><polygon class="cls-32" points="498.9 192.66 502.84 190.42 509.98 194.53 506.03 196.77 498.9 192.66"/><polygon class="cls-33" points="593.85 248.46 586.97 279.99 518.89 319 485.64 299.5 478.6 273.37 593.85 248.46"/><path class="cls-34" d="M476.22,263.88l0,.75,5.33-1.17,73.52-42.83a4.72,4.72,0,0,1,4.75,0l32.24,18.61,4-.88.1.72a60.1,60.1,0,0,1-.1,6.15v.13h0a4.64,4.64,0,0,1-2.26,3.1l-71.44,40.93a16.56,16.56,0,0,1-16.63-.08L478.6,273.37a4.63,4.63,0,0,1-1.89-2.14h0v-.07A23.47,23.47,0,0,1,476.22,263.88Z"/><path class="cls-35" d="M593.87,235.23l-34-19.64a4.74,4.74,0,0,0-4.75,0l-76.49,44.57a4.73,4.73,0,0,0,0,8.17l27.18,15.94a16.59,16.59,0,0,0,16.63.09l71.44-40.93A4.74,4.74,0,0,0,593.87,235.23Z"/><line class="cls-36" x1="518.89" y1="319" x2="515.21" y2="291.59"/><line class="cls-37" x1="554.06" y1="261.26" x2="520.82" y2="241.76"/><ellipse class="cls-38" cx="558.48" cy="239.17" rx="2.39" ry="0.84"/><path class="cls-39" d="M572.08,237.61a22.74,22.74,0,0,0-9.91.72"/><path class="cls-40" d="M554.83,239.29a22.74,22.74,0,0,0-9.91.72"/><path class="cls-41" d="M555.45,248.92a18,18,0,0,1,2.26-7.57"/><path class="cls-42" d="M559.17,236.94a18.12,18.12,0,0,1,2.25-7.57"/><ellipse class="cls-43" cx="515.99" cy="261.28" rx="2.39" ry="0.84"/><path class="cls-44" d="M529.59,259.73a22.74,22.74,0,0,0-9.91.72"/><path class="cls-45" d="M512.34,261.4a22.74,22.74,0,0,0-9.91.72"/><path class="cls-46" d="M513,271a18,18,0,0,1,2.26-7.57"/><path class="cls-47" d="M516.68,259.06a18.12,18.12,0,0,1,2.25-7.57"/><g class="cls-48"><g id="HATCH-2" data-name="HATCH"><polygon class="cls-24" points="559.44 200.92 557.07 190.25 555.19 187.59 551.63 187.39 550.92 186.17 549.74 183.32 551.87 181.9 551.99 180.12 553.53 177.16 555.07 173.84 554.72 170.63 553.29 167.55 549.86 164.47 545.59 162.57 538.12 162.1 534.44 164 532.66 168.86 533.73 172.41 533.85 174.19 533.85 177.39 535.27 181.42 537.29 186.64 539.3 187.12 541.55 187.94 541.2 190.55 538.59 193.28 535.15 195.41 532.54 195.65 530.88 194.11 528.04 191.26 524.25 189.72 521.64 190.79 525.08 194.47 525.04 195.02 523.12 195.37 522.99 196.26 525.8 197.84 529.37 198.93 532.11 199.48 531.84 201.2 527.03 213.41 524.84 212.24 522.92 209.64 519.62 206.75 517.5 205.45 515.3 203.8 513.52 201.68 511.25 200.03 509.19 199.69 508.71 201.75 508.99 203.74 509.26 205.45 512.9 207.85 514.82 208.75 519.21 215.54 522.3 218.28 525.87 220.89 528.68 222.47 530.47 222.75 534.18 217.72 535.79 214.69 537.73 211.89 537.73 217.49 537.61 222.23 534.85 221.69 532.79 222.1 529.77 224.16 528.32 225.03 527.37 226.4 525.85 226.41 518.34 226.12 513.2 226.31 509.54 227.5 508.75 233.13 505.69 247.66 502.13 256.65 498.77 262.87 496.7 264.55 488.2 264.65 488.1 266.23 491.07 268.6 495.12 270.87 501.34 271.86 503.12 268.4 505.59 267.32 507.27 264.75 510.43 256.15 511.42 253.68 516.36 255.26 522.19 256.15 523.87 253.98 524.46 251.81 527.23 250.32 529.21 245.38 531.18 242.52 535.92 243.01 540.17 244.1 546.4 240.64 555.39 227.3 557.96 212.48 559.44 200.92"/></g><g id="LWPOLYLINE-8" data-name="LWPOLYLINE"><polygon class="cls-25" points="559.44 200.92 557.07 190.25 555.19 187.59 551.63 187.39 550.92 186.17 549.74 183.32 551.87 181.9 551.99 180.12 553.53 177.16 555.07 173.84 554.72 170.63 553.29 167.55 549.86 164.47 545.59 162.57 538.12 162.1 534.44 164 532.66 168.86 533.73 172.41 533.85 174.19 533.85 177.39 535.27 181.42 537.29 186.64 539.3 187.12 541.55 187.94 541.2 190.55 538.59 193.28 535.15 195.41 532.54 195.65 530.88 194.11 528.04 191.26 524.25 189.72 521.64 190.79 525.08 194.47 525.04 195.02 523.12 195.37 522.99 196.26 525.8 197.84 529.37 198.93 532.11 199.48 531.84 201.2 527.03 213.41 524.84 212.24 522.92 209.64 519.62 206.75 517.5 205.45 515.3 203.8 513.52 201.68 511.25 200.03 509.19 199.69 508.71 201.75 508.99 203.74 509.26 205.45 512.9 207.85 514.82 208.75 519.21 215.54 522.3 218.28 525.87 220.89 528.68 222.47 530.47 222.75 534.18 217.72 535.79 214.69 537.73 211.89 537.73 217.49 537.61 222.23 534.85 221.69 532.79 222.1 529.77 224.16 528.32 225.03 527.37 226.4 525.85 226.41 518.34 226.12 513.2 226.31 509.54 227.5 508.75 233.13 505.69 247.66 502.13 256.65 498.77 262.87 496.7 264.55 488.2 264.65 488.1 266.23 491.07 268.6 495.12 270.87 501.34 271.86 503.12 268.4 505.59 267.32 507.27 264.75 510.43 256.15 511.42 253.68 516.36 255.26 522.19 256.15 523.87 253.98 524.46 251.81 527.23 250.32 529.21 245.38 531.18 242.52 535.92 243.01 540.17 244.1 546.4 240.64 555.39 227.3 557.96 212.48 559.44 200.92"/></g><g id="LWPOLYLINE-9" data-name="LWPOLYLINE"><polyline class="cls-25" points="551.63 187.39 548.65 188.73 545.56 189.62 541.2 190.55"/></g><g id="LWPOLYLINE-10" data-name="LWPOLYLINE"><polyline class="cls-25" points="535.15 195.41 533.35 198.06 532.11 199.48"/></g><g id="LWPOLYLINE-11" data-name="LWPOLYLINE"><polyline class="cls-25" points="532.54 195.65 530.26 196.28 529.37 198.93"/></g><g id="LWPOLYLINE-12" data-name="LWPOLYLINE"><polyline class="cls-25" points="517.5 205.45 515.44 206.02 514.82 208.75"/></g><g id="LWPOLYLINE-13" data-name="LWPOLYLINE"><polyline class="cls-25" points="525.85 226.41 531.1 226.35 534.87 226.18 537.5 226.07"/></g><g id="LWPOLYLINE-14" data-name="LWPOLYLINE"><polyline class="cls-25" points="528.68 222.47 530.47 222.75 534.18 217.72 535.79 214.69 537.73 211.89 537.73 217.49 537.56 224.35 537.5 226.07 537.73 231.84 539.33 235.62 541.96 236.82 546.65 236.93 548.8 237.07"/></g><g id="LWPOLYLINE-15" data-name="LWPOLYLINE"><polyline class="cls-25" points="531.18 242.52 524.91 241.14 520.56 239.46 516.11 238.28 515.32 242.23 514.43 246.68 511.42 253.68"/></g><g id="LWPOLYLINE-16" data-name="LWPOLYLINE"><polyline class="cls-25" points="522.68 240.28 520.56 244.6 519.57 247.76 518.29 248.85 513.7 248.39"/></g><g id="LWPOLYLINE-17" data-name="LWPOLYLINE"><polyline class="cls-25" points="519.57 247.76 520.66 250.03 524.46 251.81"/></g><g id="LWPOLYLINE-18" data-name="LWPOLYLINE"><polyline class="cls-25" points="503.12 268.4 500.08 267.61 498.6 265.88 497.76 263.69"/></g><g id="LWPOLYLINE-19" data-name="LWPOLYLINE"><polyline class="cls-25" points="537.61 222.23 534.85 221.69 532.79 222.1 529.77 224.16 528.32 225.03 527.37 226.4"/></g><g id="LWPOLYLINE-20" data-name="LWPOLYLINE"><polyline class="cls-25" points="549.74 183.32 548.02 182.46 546.79 184.02 544.4 182.54 543.58 180.48 544.07 178.59 543.74 175.87 542.01 175.21 539.96 176.86 539.05 177.76 538.39 175.46 538.39 172.5 536.17 171.51 533.32 171.05"/></g></g><polyline class="cls-49" points="504.25 245.23 516.11 238.28 531.79 242.81"/><path d="M154.83,361.1a14.65,14.65,0,0,1-7.28-2L8.76,278.77c-1.68-1-5.72-3.64-7.16-7.46l-.1-.26V88.29L155.15,1.73,308.79,89.94v179.9h-.09a14.4,14.4,0,0,1-7.18,11L162.09,359.16A14.51,14.51,0,0,1,154.83,361.1Z"/><path class="cls-3" d="M155.15,3.45,307.29,90.81V268.2h0v.08h0a12.91,12.91,0,0,1-6.52,11.2L161.36,357.85a13.06,13.06,0,0,1-13.06,0L9.51,277.47c-2.78-1.61-5.51-4-6.51-6.69V89.16L155.15,3.45m0-3.45-1.49.84L1.53,86.55,0,87.41V271.32l.19.51c1.62,4.29,6,7.19,7.82,8.23L146.8,360.44a16,16,0,0,0,16.06,0l139.38-78.34a15.94,15.94,0,0,0,7.7-10.54l.35,0v-2.87h0V89.07l-1.51-.86L156.64.85,155.16,0Z"/><path class="cls-50" d="M154.83,350.45a14.55,14.55,0,0,1-7.28-2L8.76,268.11a14.53,14.53,0,0,1,0-25.17L148.2,164.57a14.56,14.56,0,0,1,14.54,0L301.53,245a14.54,14.54,0,0,1,0,25.18L162.09,348.51A14.61,14.61,0,0,1,154.83,350.45Z"/><path class="cls-3" d="M155.46,164.13a13,13,0,0,1,6.53,1.75l138.79,80.38a13,13,0,0,1,0,22.58L161.36,347.2a13,13,0,0,1-13.06,0L9.51,266.82a13,13,0,0,1,0-22.59l139.42-78.36a13.06,13.06,0,0,1,6.52-1.74m0-3h0a16,16,0,0,0-8,2.15L8.05,241.62a16,16,0,0,0,0,27.79L146.8,349.79a16,16,0,0,0,16.06,0l139.38-78.34a16.05,16.05,0,0,0,.05-27.8l-138.8-80.38a16.08,16.08,0,0,0-8-2.15Z"/><line class="cls-5" x1="155.15" y1="3.45" x2="155.15" y2="164.19"/><line class="cls-5" x1="22.35" y1="193.81" x2="137.95" y2="126.87"/><line class="cls-5" x1="22.35" y1="141.32" x2="137.95" y2="74.38"/><line class="cls-5" x1="290.42" y1="196.74" x2="174.81" y2="129.8"/><line class="cls-5" x1="290.42" y1="144.25" x2="174.81" y2="77.31"/><ellipse class="cls-2" cx="256.62" cy="97.58" rx="0.67" ry="1.18" transform="translate(-17.72 108.27) rotate(-23.05)"/><polygon class="cls-21" points="179.46 48.87 187.12 43.81 217.81 107.86 225.47 102.8 244.46 113.76 243.26 85.71 250.92 80.65 282.82 209.59 275.16 214.65 236.8 155.41 231.14 140.24 220.97 141.18 225.47 176.73 217.81 181.79 179.46 48.87"/><polygon class="cls-21" points="219.02 62.23 187.12 43.81 187.12 154.33 219.02 172.75 225.47 176.73 225.47 139.89 219.02 135.91 219.02 62.23"/><polygon class="cls-21" points="225.47 102.8 225.47 139.89 244.46 150.35 244.46 113.76 225.47 102.8"/><polygon class="cls-21" points="250.92 80.65 250.92 154.33 244.46 150.35 244.46 187.18 250.92 191.17 282.82 209.59 282.82 99.07 250.92 80.65"/><polygon class="cls-51" points="211.36 67.29 179.46 48.87 179.46 159.39 211.36 177.81 217.81 181.79 217.81 144.95 211.36 140.97 211.36 67.29"/><polygon class="cls-51" points="217.81 107.86 217.81 144.95 236.8 155.41 236.8 118.82 217.81 107.86"/><polygon class="cls-51" points="243.26 85.71 243.26 159.39 236.8 155.41 236.8 192.25 243.26 196.23 275.16 214.65 275.16 104.13 243.26 85.71"/><ellipse class="cls-2" cx="241.87" cy="90.04" rx="1.18" ry="0.67" transform="translate(64.31 277.35) rotate(-66.95)"/><ellipse class="cls-2" cx="208.55" cy="64.65" rx="1.18" ry="0.67" transform="translate(67.4 231.24) rotate(-66.95)"/><ellipse class="cls-2" cx="89.73" cy="177.45" rx="1.18" ry="0.67" transform="translate(-108.68 190.53) rotate(-66.95)"/><ellipse class="cls-2" cx="89.73" cy="133.54" rx="1.18" ry="0.67" transform="translate(-68.29 163.82) rotate(-66.95)"/><ellipse class="cls-2" cx="89.73" cy="79.06" rx="1.18" ry="0.67" transform="translate(-18.16 130.67) rotate(-66.95)"/><ellipse class="cls-2" cx="121.46" cy="159.99" rx="1.18" ry="0.67" transform="translate(-73.31 209.11) rotate(-66.95)"/><ellipse class="cls-2" cx="121.46" cy="116.09" rx="1.18" ry="0.67" transform="translate(-32.92 182.4) rotate(-66.95)"/><ellipse class="cls-2" cx="56.4" cy="195.96" rx="1.18" ry="0.67" transform="translate(-145.99 171.13) rotate(-66.95)"/><ellipse class="cls-2" cx="56.4" cy="152.06" rx="1.18" ry="0.67" transform="translate(-105.6 144.42) rotate(-66.95)"/><polygon class="cls-52" points="149.73 187.21 156.61 218.74 224.69 257.74 257.94 238.24 264.98 212.12 149.73 187.21"/><path class="cls-53" d="M267.37,202.63l-.05.74L262,202.21l-73.52-42.84a4.74,4.74,0,0,0-4.75,0L151.49,178l-4-.89-.11.72a57.56,57.56,0,0,0,.11,6.16v.13h0a4.69,4.69,0,0,0,2.26,3.11l71.45,40.93a16.59,16.59,0,0,0,16.63-.08L265,212.12a4.67,4.67,0,0,0,1.89-2.14h0v-.08A23.7,23.7,0,0,0,267.37,202.63Z"/><path class="cls-54" d="M149.72,174l34-19.63a4.72,4.72,0,0,1,4.75,0L265,198.91a4.74,4.74,0,0,1,0,8.18L237.81,223a16.59,16.59,0,0,1-16.63.09l-71.45-40.94A4.73,4.73,0,0,1,149.72,174Z"/><line class="cls-55" x1="224.69" y1="257.74" x2="228.37" y2="230.34"/><line class="cls-56" x1="189.52" y1="200.01" x2="222.77" y2="180.5"/><ellipse class="cls-57" cx="185.1" cy="177.92" rx="2.39" ry="0.84"/><path class="cls-58" d="M171.51,176.36a22.69,22.69,0,0,1,9.9.72"/><path class="cls-59" d="M188.75,178a22.74,22.74,0,0,1,9.91.72"/><path class="cls-60" d="M188.13,187.67a18.1,18.1,0,0,0-2.26-7.58"/><path class="cls-61" d="M184.41,175.69a18.12,18.12,0,0,0-2.25-7.57"/><ellipse class="cls-62" cx="227.59" cy="200.03" rx="2.39" ry="0.84"/><path class="cls-63" d="M214,198.47a22.69,22.69,0,0,1,9.9.72"/><path class="cls-64" d="M231.25,200.15a22.69,22.69,0,0,1,9.9.72"/><path class="cls-65" d="M230.62,209.78a18.12,18.12,0,0,0-2.25-7.57"/><path class="cls-66" d="M226.91,197.8a18,18,0,0,0-2.26-7.57"/><ellipse class="cls-2" cx="121.46" cy="62.14" rx="1.18" ry="0.67" transform="translate(16.73 149.57) rotate(-66.95)"/><g id="HATCH-3" data-name="HATCH"><path class="cls-24" d="M202.63,149.6l-.58-1.15,2.6-2.16-1-3,1.87-6-.86-3.31-2.6-2.88-3.6-1.44L194,130l-4.32.14-3.75,3.6-1.73,3.89,1.3,4.61,2.3,2.16.44,3.89,1.94,3.82-1.88.38-3,14.68-3,8.22-4,9.7-3.24,2-8.71,4.24-1.5,7.71,2.49,20.41.3,13.83-6.18.74-3.08,1.86.19,2.48,5,.26,13.66-.22.4-4-.33-1.42,1-12.56V204.77l1.49-2.49,3.73-2.49,12.7-1.74-6.47,7.46-.75,5.73-.75,35.6.75,2.48-1,7.22.25,4.24,5.23-.25,2.49-5-1.49-6,2-1.74.74-11L199,223.19l.25-12.95,7.46-5.72,11.95-9.71,4.23-6.22.75-9.46L218.16,161l-4.23-8.22-9.21-3.48Zm-5.24,19.88L195.52,164l-.58,1.87-3.6,5.33-2.59,5.48-1.4,2.68,4-.81,4.61-2Z"/></g><g id="LWPOLYLINE-21" data-name="LWPOLYLINE"><polygon class="cls-25" points="204.72 149.26 213.93 152.74 218.16 160.96 223.64 179.13 222.89 188.59 218.66 194.81 206.71 204.52 199.25 210.24 199 223.19 197.25 236.88 196.51 247.83 194.52 249.57 196.01 255.55 193.52 260.53 188.29 260.77 188.04 256.54 189.04 249.32 188.29 246.84 189.04 211.24 189.79 205.51 196.26 198.05 183.56 199.79 179.83 202.28 178.34 204.77 178.34 220.45 177.38 233.01 177.71 234.43 177.31 238.4 163.65 238.62 158.61 238.36 158.42 235.88 161.5 234.02 167.68 233.28 167.38 219.45 164.89 199.04 166.39 191.33 175.1 187.09 178.34 185.1 182.32 175.4 185.31 167.18 188.29 152.5 190.17 152.13 188.23 148.3 187.79 144.41 185.49 142.25 184.19 137.64 185.92 133.75 189.67 130.15 193.99 130.01 198.45 129.58 202.06 131.02 204.65 133.9 205.51 137.21 203.64 143.26 204.65 146.29 202.06 148.45 202.63 149.6 204.72 149.26"/></g><g id="LWPOLYLINE-22" data-name="LWPOLYLINE"><polygon class="cls-25" points="195.95 176.54 191.34 178.56 187.35 179.37 188.75 176.69 191.34 171.21 194.94 165.88 195.52 164.01 197.39 169.48 195.95 176.54"/></g><g id="LINE-38" data-name="LINE"><line class="cls-25" x1="215.4" y1="180.72" x2="211.36" y2="181.15"/></g><g id="LINE-39" data-name="LINE"><line class="cls-25" x1="211.36" y1="181.15" x2="207.18" y2="180.29"/></g><g id="LINE-40" data-name="LINE"><line class="cls-25" x1="215.4" y1="180.72" x2="214.82" y2="190.95"/></g><g id="LINE-41" data-name="LINE"><line class="cls-25" x1="214.82" y1="190.95" x2="212.8" y2="193.83"/></g><g id="LINE-42" data-name="LINE"><line class="cls-25" x1="212.8" y1="193.83" x2="204.88" y2="195.56"/></g><g id="LINE-43" data-name="LINE"><line class="cls-25" x1="204.88" y1="195.56" x2="196.26" y2="198.05"/></g><g id="LINE-44" data-name="LINE"><line class="cls-25" x1="206.75" y1="188.35" x2="192.2" y2="192.39"/></g><g id="LINE-45" data-name="LINE"><line class="cls-25" x1="192.2" y1="192.39" x2="184.71" y2="194.84"/></g><g id="LINE-46" data-name="LINE"><line class="cls-25" x1="184.71" y1="194.84" x2="181.83" y2="193.11"/></g><g id="LINE-47" data-name="LINE"><line class="cls-25" x1="181.83" y1="193.11" x2="182.26" y2="188.5"/></g><g id="LINE-48" data-name="LINE"><line class="cls-25" x1="182.26" y1="188.5" x2="185.29" y2="183.31"/></g><g id="LINE-49" data-name="LINE"><line class="cls-25" x1="185.29" y1="183.31" x2="188.75" y2="176.69"/></g><g id="LINE-50" data-name="LINE"><line class="cls-25" x1="188.75" y1="176.69" x2="191.34" y2="171.21"/></g><g id="LINE-51" data-name="LINE"><line class="cls-25" x1="191.34" y1="171.21" x2="194.94" y2="165.88"/></g><g id="LINE-52" data-name="LINE"><line class="cls-25" x1="194.94" y1="165.88" x2="195.52" y2="164.01"/></g><g id="LINE-53" data-name="LINE"><line class="cls-25" x1="195.52" y1="164.01" x2="197.39" y2="169.48"/></g><g id="LINE-54" data-name="LINE"><line class="cls-25" x1="197.39" y1="169.48" x2="195.95" y2="176.54"/></g><g id="LINE-55" data-name="LINE"><line class="cls-25" x1="195.95" y1="176.54" x2="196.38" y2="180.29"/></g><g id="LINE-56" data-name="LINE"><line class="cls-25" x1="196.38" y1="180.29" x2="198.97" y2="183.89"/></g><g id="LINE-57" data-name="LINE"><line class="cls-25" x1="198.97" y1="183.89" x2="204.59" y2="186.62"/></g><g id="LINE-58" data-name="LINE"><line class="cls-25" x1="204.59" y1="186.62" x2="206.75" y2="188.35"/></g><g id="LINE-59" data-name="LINE"><line class="cls-25" x1="195.95" y1="176.54" x2="191.34" y2="178.56"/></g><g id="LINE-60" data-name="LINE"><line class="cls-25" x1="191.34" y1="178.56" x2="187.35" y2="179.37"/></g><g id="LINE-61" data-name="LINE"><line class="cls-25" x1="190.71" y1="172.55" x2="186.01" y2="171.07"/></g><g id="LINE-62" data-name="LINE"><line class="cls-25" x1="186.01" y1="171.07" x2="184.65" y2="168.98"/></g><g id="LINE-63" data-name="LINE"><line class="cls-25" x1="215.4" y1="180.72" x2="215.25" y2="172.8"/></g><g id="LINE-64" data-name="LINE"><line class="cls-25" x1="215.25" y1="172.8" x2="215.11" y2="169.91"/></g><g id="LINE-65" data-name="LINE"><line class="cls-25" x1="207.18" y1="180.29" x2="206.32" y2="173.52"/></g><g id="LINE-66" data-name="LINE"><line class="cls-25" x1="206.32" y1="173.52" x2="206.03" y2="169.05"/></g><g id="LINE-67" data-name="LINE"><line class="cls-25" x1="206.03" y1="169.05" x2="206.18" y2="168.04"/></g><g id="LINE-68" data-name="LINE"><line class="cls-25" x1="207.18" y1="180.29" x2="206.75" y2="188.35"/></g><g id="LINE-69" data-name="LINE"><line class="cls-25" x1="221.86" y1="190.11" x2="214.82" y2="190.95"/></g><g id="LINE-70" data-name="LINE"><line class="cls-25" x1="194.52" y1="249.57" x2="192.37" y2="249.93"/></g><g id="LINE-71" data-name="LINE"><line class="cls-25" x1="192.37" y1="249.93" x2="189.04" y2="249.32"/></g><g id="LINE-72" data-name="LINE"><line class="cls-25" x1="177.38" y1="233.01" x2="174.06" y2="233.82"/></g><g id="LINE-73" data-name="LINE"><line class="cls-25" x1="174.06" y1="233.82" x2="170.56" y2="233.82"/></g><g id="LINE-74" data-name="LINE"><line class="cls-25" x1="170.56" y1="233.82" x2="167.68" y2="233.28"/></g><g id="LWPOLYLINE-23" data-name="LWPOLYLINE"><polyline class="cls-25" points="187.48 144.12 191.83 143.86 197.67 143.3 200.03 142.05 199.19 144.41 199.13 147.26 200.31 147.75 201.76 145.66 203.64 143.26"/></g><g id="LWPOLYLINE-24" data-name="LWPOLYLINE"><polyline class="cls-25" points="197.23 153.2 193.05 155.22 190.74 154.36 190.17 152.13"/></g><g id="LWPOLYLINE-25" data-name="LWPOLYLINE"><polyline class="cls-25" points="202.63 149.6 203.55 152.39 203.47 154.73 201.64 157.15 198.97 157.48 196.88 155.39 196.09 153.75"/></g><g id="LWPOLYLINE-26" data-name="LWPOLYLINE"><polyline class="cls-25" points="184.71 194.84 181.76 195.93 179.54 195.37 178.15 196.34 176.28 197.94 173.29 198.99 170.93 199.96 171.34 201.42 173.71 202.04 177.18 202.11 179.83 202.28"/></g><g id="LWPOLYLINE-27" data-name="LWPOLYLINE"><polyline class="cls-25" points="178.34 185.1 176.14 191.69 174.75 194.61 172.46 197.46 171.55 198.57 171.95 199.54"/></g><polygon class="cls-67" points="171.13 240.4 183.48 277.83 209.41 262.86 218.45 212.64 171.13 240.4"/><polygon class="cls-2" points="92.73 195.48 105.69 232.91 131.62 217.76 131.62 172.82 92.73 195.48"/><polygon class="cls-68" points="92.73 195.48 105.69 232.91 183.48 277.83 171.13 240.4 92.73 195.48"/><polygon class="cls-69" points="105.69 232.91 105.69 238.9 183.48 283.82 183.48 277.83 105.69 232.91"/><polygon class="cls-70" points="209.41 262.86 183.48 277.83 183.48 283.82 209.41 268.84 209.41 262.86"/><polygon class="cls-71" points="204.87 212.59 129.69 168.78 91.59 190.78 85.76 189.66 85.76 194.15 173.52 244.44 219.76 217.33 219.76 212.84 204.87 212.59"/><polygon class="cls-72" points="85.76 189.66 133.07 162.33 219.76 212.84 173.52 239.94 85.76 189.66"/><line class="cls-2" x1="173.52" y1="239.94" x2="173.52" y2="244.44"/><polygon class="cls-2" points="154.12 188.32 133.91 176.65 108.49 191.27 128.7 202.94 154.12 188.32"/><polygon class="cls-2" points="133.91 176.65 129.01 152.27 103.59 167.25 108.49 191.27 133.91 176.65"/><polygon class="cls-2" points="143.57 185.72 132.96 179.69 113.77 190.72 124.38 196.75 143.57 185.72"/><polygon class="cls-2" points="130.8 175.65 126.91 156.27 106.7 168.18 110.59 187.27 130.8 175.65"/><polygon class="cls-32" points="142.92 192.66 138.97 190.42 131.84 194.53 135.79 196.77 142.92 192.66"/><polygon class="cls-73" points="47.96 248.46 54.85 279.99 122.93 319 156.17 299.5 163.21 273.37 47.96 248.46"/><path class="cls-74" d="M165.6,263.88l0,.75-5.33-1.17L86.71,220.63a4.72,4.72,0,0,0-4.75,0L49.72,239.23l-4-.88-.11.72a57.38,57.38,0,0,0,.11,6.15v.13h0a4.62,4.62,0,0,0,2.25,3.1l71.45,40.93a16.56,16.56,0,0,0,16.63-.08l27.17-15.94a4.59,4.59,0,0,0,1.9-2.14h0v-.07A23.78,23.78,0,0,0,165.6,263.88Z"/><path class="cls-75" d="M48,235.23l34-19.64a4.74,4.74,0,0,1,4.75,0l76.49,44.57a4.73,4.73,0,0,1,0,8.17L136,284.28a16.59,16.59,0,0,1-16.63.09L48,243.44A4.74,4.74,0,0,1,48,235.23Z"/><line class="cls-76" x1="122.93" y1="319" x2="126.61" y2="291.59"/><line class="cls-77" x1="87.76" y1="261.26" x2="121" y2="241.76"/><ellipse class="cls-78" cx="83.33" cy="239.17" rx="2.39" ry="0.84"/><path class="cls-79" d="M69.74,237.61a22.69,22.69,0,0,1,9.9.72"/><path class="cls-80" d="M87,239.29a22.69,22.69,0,0,1,9.9.72"/><path class="cls-81" d="M86.36,248.92a18.12,18.12,0,0,0-2.25-7.57"/><path class="cls-82" d="M82.65,236.94a18,18,0,0,0-2.26-7.57"/><ellipse class="cls-83" cx="125.82" cy="261.28" rx="2.39" ry="0.84"/><path class="cls-84" d="M112.23,259.73a22.69,22.69,0,0,1,9.9.72"/><path class="cls-85" d="M129.48,261.4a22.69,22.69,0,0,1,9.9.72"/><path class="cls-86" d="M128.85,271a18,18,0,0,0-2.25-7.57"/><path class="cls-87" d="M125.14,259.06a18.12,18.12,0,0,0-2.25-7.57"/><g class="cls-88"><g id="HATCH-4" data-name="HATCH"><polygon class="cls-24" points="82.38 200.92 84.75 190.25 86.63 187.59 90.18 187.39 90.89 186.17 92.08 183.32 89.95 181.9 89.83 180.12 88.29 177.16 86.75 173.84 87.1 170.63 88.52 167.55 91.96 164.47 96.23 162.57 103.7 162.1 107.38 164 109.15 168.86 108.09 172.41 107.97 174.19 107.97 177.39 106.55 181.42 104.53 186.64 102.51 187.12 100.26 187.94 100.62 190.55 103.22 193.28 106.66 195.41 109.27 195.65 110.93 194.11 113.78 191.26 117.57 189.72 120.18 190.79 116.74 194.47 116.77 195.02 118.69 195.37 118.83 196.26 116.02 197.84 112.45 198.93 109.71 199.48 109.98 201.2 114.78 213.41 116.98 212.24 118.9 209.64 122.19 206.75 124.32 205.45 126.52 203.8 128.3 201.68 130.56 200.03 132.62 199.69 133.1 201.75 132.83 203.74 132.55 205.45 128.92 207.85 127 208.75 122.61 215.54 119.52 218.28 115.95 220.89 113.14 222.47 111.35 222.75 107.63 217.72 106.03 214.69 104.09 211.89 104.09 217.49 104.2 222.23 106.97 221.69 109.03 222.1 112.05 224.16 113.5 225.03 114.44 226.4 115.97 226.41 123.48 226.12 128.62 226.31 132.27 227.5 133.06 233.13 136.13 247.66 139.68 256.65 143.04 262.87 145.12 264.55 153.62 264.65 153.71 266.23 150.75 268.6 146.7 270.87 140.47 271.86 138.7 268.4 136.23 267.32 134.55 264.75 131.38 256.15 130.4 253.68 125.46 255.26 119.63 256.15 117.95 253.98 117.35 251.81 114.59 250.32 112.61 245.38 110.64 242.52 105.89 243.01 101.64 244.1 95.42 240.64 86.43 227.3 83.86 212.48 82.38 200.92"/></g><g id="LWPOLYLINE-28" data-name="LWPOLYLINE"><polygon class="cls-25" points="82.38 200.92 84.75 190.25 86.63 187.59 90.18 187.39 90.89 186.17 92.08 183.32 89.95 181.9 89.83 180.12 88.29 177.16 86.75 173.84 87.1 170.63 88.52 167.55 91.96 164.47 96.23 162.57 103.7 162.1 107.38 164 109.15 168.86 108.09 172.41 107.97 174.19 107.97 177.39 106.55 181.42 104.53 186.64 102.51 187.12 100.26 187.94 100.62 190.55 103.22 193.28 106.66 195.41 109.27 195.65 110.93 194.11 113.78 191.26 117.57 189.72 120.18 190.79 116.74 194.47 116.77 195.02 118.69 195.37 118.83 196.26 116.02 197.84 112.45 198.93 109.71 199.48 109.98 201.2 114.78 213.41 116.98 212.24 118.9 209.64 122.19 206.75 124.32 205.45 126.52 203.8 128.3 201.68 130.56 200.03 132.62 199.69 133.1 201.75 132.83 203.74 132.55 205.45 128.92 207.85 127 208.75 122.61 215.54 119.52 218.28 115.95 220.89 113.14 222.47 111.35 222.75 107.63 217.72 106.03 214.69 104.09 211.89 104.09 217.49 104.2 222.23 106.97 221.69 109.03 222.1 112.05 224.16 113.5 225.03 114.44 226.4 115.97 226.41 123.48 226.12 128.62 226.31 132.27 227.5 133.06 233.13 136.13 247.66 139.68 256.65 143.04 262.87 145.12 264.55 153.62 264.65 153.71 266.23 150.75 268.6 146.7 270.87 140.47 271.86 138.7 268.4 136.23 267.32 134.55 264.75 131.38 256.15 130.4 253.68 125.46 255.26 119.63 256.15 117.95 253.98 117.35 251.81 114.59 250.32 112.61 245.38 110.64 242.52 105.89 243.01 101.64 244.1 95.42 240.64 86.43 227.3 83.86 212.48 82.38 200.92"/></g><g id="LWPOLYLINE-29" data-name="LWPOLYLINE"><polyline class="cls-25" points="90.18 187.39 93.17 188.73 96.25 189.62 100.62 190.55"/></g><g id="LWPOLYLINE-30" data-name="LWPOLYLINE"><polyline class="cls-25" points="106.66 195.41 108.47 198.06 109.71 199.48"/></g><g id="LWPOLYLINE-31" data-name="LWPOLYLINE"><polyline class="cls-25" points="109.27 195.65 111.55 196.28 112.45 198.93"/></g><g id="LWPOLYLINE-32" data-name="LWPOLYLINE"><polyline class="cls-25" points="124.32 205.45 126.37 206.02 127 208.75"/></g><g id="LWPOLYLINE-33" data-name="LWPOLYLINE"><polyline class="cls-25" points="115.97 226.41 110.72 226.35 106.94 226.18 104.31 226.07"/></g><g id="LWPOLYLINE-34" data-name="LWPOLYLINE"><polyline class="cls-25" points="113.14 222.47 111.35 222.75 107.63 217.72 106.03 214.69 104.09 211.89 104.09 217.49 104.26 224.35 104.31 226.07 104.09 231.84 102.48 235.62 99.86 236.82 95.17 236.93 93.02 237.07"/></g><g id="LWPOLYLINE-35" data-name="LWPOLYLINE"><polyline class="cls-25" points="110.64 242.52 116.91 241.14 121.26 239.46 125.7 238.28 126.49 242.23 127.38 246.68 130.4 253.68"/></g><g id="LWPOLYLINE-36" data-name="LWPOLYLINE"><polyline class="cls-25" points="119.13 240.28 121.26 244.6 122.25 247.76 123.53 248.85 128.12 248.39"/></g><g id="LWPOLYLINE-37" data-name="LWPOLYLINE"><polyline class="cls-25" points="122.25 247.76 121.16 250.03 117.35 251.81"/></g><g id="LWPOLYLINE-38" data-name="LWPOLYLINE"><polyline class="cls-25" points="138.7 268.4 141.73 267.61 143.22 265.88 144.06 263.69"/></g><g id="LWPOLYLINE-39" data-name="LWPOLYLINE"><polyline class="cls-25" points="104.2 222.23 106.97 221.69 109.03 222.1 112.05 224.16 113.5 225.03 114.44 226.4"/></g><g id="LWPOLYLINE-40" data-name="LWPOLYLINE"><polyline class="cls-25" points="92.08 183.32 93.79 182.46 95.03 184.02 97.42 182.54 98.24 180.48 97.75 178.59 98.07 175.87 99.8 175.21 101.86 176.86 102.77 177.76 103.43 175.46 103.43 172.5 105.65 171.51 108.5 171.05"/></g></g><polyline class="cls-49" points="137.57 245.23 125.7 238.28 110.03 242.81"/></g></g></svg>