<svg xmlns="http://www.w3.org/2000/svg" xmlns:xlink="http://www.w3.org/1999/xlink" viewBox="0 0 504.33 388.63"><defs><style>.cls-1,.cls-18,.cls-21{fill:none;}.cls-2{fill:#12e582;}.cls-10,.cls-11,.cls-12,.cls-13,.cls-14,.cls-15,.cls-16,.cls-17,.cls-18,.cls-19,.cls-2,.cls-3,.cls-4,.cls-5,.cls-6,.cls-7,.cls-8,.cls-9{stroke:#000;stroke-miterlimit:10;}.cls-3{fill:#f1f2f2;}.cls-4{fill:#7f3ff0;}.cls-5{fill:url(#linear-gradient);}.cls-6{fill:url(#linear-gradient-2);}.cls-7{fill:url(#linear-gradient-3);}.cls-8{fill:url(#linear-gradient-4);}.cls-9{fill:url(#linear-gradient-5);}.cls-10{fill:url(#linear-gradient-6);}.cls-11{fill:url(#linear-gradient-7);}.cls-12{fill:url(#linear-gradient-8);}.cls-13{fill:url(#linear-gradient-9);}.cls-14{fill:url(#linear-gradient-10);}.cls-15{fill:url(#linear-gradient-11);}.cls-16{fill:url(#linear-gradient-12);}.cls-17{fill:url(#linear-gradient-13);}.cls-19{fill:url(#linear-gradient-14);}.cls-20{fill:#fff;fill-rule:evenodd;}.cls-21{stroke:#333;stroke-linecap:round;stroke-linejoin:round;}.cls-22{clip-path:url(#clip-path);}</style><linearGradient id="linear-gradient" x1="275.63" y1="222.76" x2="313.56" y2="222.76" gradientUnits="userSpaceOnUse"><stop offset="0" stop-color="#fff"/><stop offset="1" stop-color="#ababab"/></linearGradient><linearGradient id="linear-gradient-2" x1="197.97" y1="211.64" x2="287.87" y2="211.64" xlink:href="#linear-gradient"/><linearGradient id="linear-gradient-3" x1="210.81" y1="233.15" x2="287.87" y2="233.15" gradientUnits="userSpaceOnUse"><stop offset="0" stop-color="#ababab"/><stop offset="1" stop-color="#1a1a1a"/></linearGradient><linearGradient id="linear-gradient-4" x1="287.87" y1="247.98" x2="313.56" y2="247.98" xlink:href="#linear-gradient-3"/><linearGradient id="linear-gradient-5" x1="191.06" y1="181.88" x2="320.47" y2="181.88" xlink:href="#linear-gradient-3"/><linearGradient id="linear-gradient-6" x1="191.06" y1="177.43" x2="320.47" y2="177.43" xlink:href="#linear-gradient"/><linearGradient id="linear-gradient-7" x1="212.88" y1="176.87" x2="304.07" y2="176.87" xlink:href="#linear-gradient"/><linearGradient id="linear-gradient-8" x1="212.88" y1="167.01" x2="304.07" y2="167.01" xlink:href="#linear-gradient-3"/><linearGradient id="linear-gradient-9" x1="228.08" y1="141.23" x2="304.07" y2="141.23" xlink:href="#linear-gradient-3"/><linearGradient id="linear-gradient-10" x1="293.91" y1="176.64" x2="299.03" y2="176.64" xlink:href="#linear-gradient-3"/><linearGradient id="linear-gradient-11" x1="215.1" y1="133.43" x2="304.07" y2="133.43" xlink:href="#linear-gradient"/><linearGradient id="linear-gradient-12" x1="219.93" y1="122.17" x2="304.07" y2="122.17" xlink:href="#linear-gradient"/><linearGradient id="linear-gradient-13" x1="251.7" y1="117.69" x2="286.88" y2="117.69" xlink:href="#linear-gradient-3"/><linearGradient id="linear-gradient-14" x1="273.68" y1="198.27" x2="273.68" y2="198.27" xlink:href="#linear-gradient"/><clipPath id="clip-path"><path class="cls-1" d="M84.12,333.47l5.38.08,9.29-2.45L92.56,345l.06,15.39L92.56,345a4.69,4.69,0,0,0-5.86-3.86l-1.71.45-1.18,35.7,47.45,5.61,2-80.28L79.74,228.92,42.93,247.11l4.82,78.3,20.82,11.06Z"/></clipPath></defs><g id="Layer_2" data-name="Layer 2"><g id="Seating"><polygon class="cls-2" points="75.41 68.46 75.49 23 64.4 16.63 64.2 62.03 75.41 68.46"/><path class="cls-2" d="M57,56.47l.27,33.83-4,2.29V72.28a4.26,4.26,0,0,0-6.39-3.68l-4.47,2.58a11.89,11.89,0,0,0-6,10.3V102.3l-5,2.88V71.8L56.6,56.27A.24.24,0,0,1,57,56.47Z"/><path class="cls-2" d="M82.47,71.68l.26,34.94-4,2.29V88.6a4.26,4.26,0,0,0-6.38-3.69L67.9,87.49A11.92,11.92,0,0,0,62,97.8v20.81l-5,2.88V88.12Z"/><path class="cls-2" d="M81,69.36,58.61,56.45a3,3,0,0,0-3,0L33,69.37a3,3,0,0,0,0,5.2L55.43,87.71a3,3,0,0,0,3,0L81,74.56A3,3,0,0,0,81,69.36Z"/><path class="cls-2" d="M53.56,14.66a5,5,0,0,1,4.36.35L80.64,28.13a14.56,14.56,0,0,1,7.28,12.69l-.09,23.07a8.15,8.15,0,0,1-1.07,4,8.8,8.8,0,0,0,.9-.6,7.91,7.91,0,0,0,1.71-4.95l.09-23.08a14.56,14.56,0,0,0-7.28-12.68L59.46,13.47a5,5,0,0,0-5.38.17A4.09,4.09,0,0,0,53.56,14.66Z"/><path class="cls-2" d="M51.81,17.88V50a7.81,7.81,0,0,0,3.87,6.74L77.19,69.31a8,8,0,0,0,9-.58,8,8,0,0,0,.56-.83,8,8,0,0,1-8.15,0L57.09,55.34a7.77,7.77,0,0,1-3.86-6.74V16.47a4.89,4.89,0,0,1,.33-1.81,4.31,4.31,0,0,0-.94.46A4.92,4.92,0,0,0,51.81,17.88Z"/><polygon class="cls-2" points="362.61 246.13 362.53 200.66 373.62 194.29 373.82 239.7 362.61 246.13"/><path class="cls-2" d="M381.05,234.14,380.79,268l4,2.29V250a4.26,4.26,0,0,1,6.39-3.68l4.46,2.58a11.87,11.87,0,0,1,5.95,10.3V280l5,2.88V249.47l-25.14-15.53A.25.25,0,0,0,381.05,234.14Z"/><path class="cls-2" d="M355.55,249.35l-.26,34.93,4,2.3V266.27a4.26,4.26,0,0,1,6.39-3.69l4.47,2.58a11.92,11.92,0,0,1,5.95,10.31v20.81l5,2.88V265.79Z"/><path class="cls-2" d="M357.05,247l22.36-12.91a3,3,0,0,1,3,0L405.05,247a3,3,0,0,1,0,5.2l-22.48,13.14a3.05,3.05,0,0,1-3,0L357,252.23A3,3,0,0,1,357.05,247Z"/><path class="cls-2" d="M384.46,192.33a5,5,0,0,0-4.36.35L357.38,205.8a14.56,14.56,0,0,0-7.28,12.68l.09,23.08a8,8,0,0,0,1.07,4,7.82,7.82,0,0,1-.9-.6,8,8,0,0,1-1.72-4.95l-.08-23.08a14.56,14.56,0,0,1,7.28-12.69l22.72-13.11a5,5,0,0,1,5.38.17A4.09,4.09,0,0,1,384.46,192.33Z"/><path class="cls-2" d="M386.21,195.55v32.13a7.81,7.81,0,0,1-3.87,6.74L360.83,247a8,8,0,0,1-9-.58,6.7,6.7,0,0,1-.56-.83,8,8,0,0,0,8.15,0L380.93,233a7.79,7.79,0,0,0,3.86-6.74V194.13a4.88,4.88,0,0,0-.33-1.8,4.31,4.31,0,0,1,.94.46A4.9,4.9,0,0,1,386.21,195.55Z"/><path class="cls-3" d="M473.62,276h12.1a0,0,0,0,1,0,0v52.91a5.51,5.51,0,0,1-5.51,5.51h-1.07a5.51,5.51,0,0,1-5.51-5.51V276a0,0,0,0,1,0,0Z"/><rect class="cls-3" x="411.43" y="245.32" width="12.1" height="72.92"/><path class="cls-3" d="M392.29,303.7H403a.7.7,0,0,1,.7.7v66.7a5.51,5.51,0,0,1-5.51,5.51H397.1a5.51,5.51,0,0,1-5.51-5.51V304.4A.7.7,0,0,1,392.29,303.7Z"/><path class="cls-3" d="M329.39,284.88h12.1a0,0,0,0,1,0,0v49.28a5.51,5.51,0,0,1-5.51,5.51H334.9a5.51,5.51,0,0,1-5.51-5.51V284.88A0,0,0,0,1,329.39,284.88Z"/><path class="cls-3" d="M470,271.18l-53-30.59-66.34,38.52L322.17,281v14.63L391,335.35a13.32,13.32,0,0,0,13.36,0l87.82-51,.3,0V269.68Z"/><path class="cls-3" d="M322.17,281l85.94-49.91a17.7,17.7,0,0,1,17.72,0l66.6,38.46-88.12,51.18a13.34,13.34,0,0,1-13.36,0Z"/><line class="cls-3" x1="397.63" y1="337.14" x2="397.63" y2="322.99"/><path class="cls-4" d="M476,315.89l-.26,33.83,4,2.29V331.7a4.26,4.26,0,0,1,6.39-3.68l4.47,2.58a11.89,11.89,0,0,1,6,10.3v20.82l5,2.88V331.22l-25.15-15.53A.24.24,0,0,0,476,315.89Z"/><path class="cls-4" d="M450.46,331.1,450.19,366l4,2.3V348a4.26,4.26,0,0,1,6.39-3.69l4.46,2.58a11.9,11.9,0,0,1,6,10.31V378l5,2.88V347.54Z"/><path class="cls-4" d="M452,328.78l22.36-12.91a3,3,0,0,1,3,0L500,328.79a3,3,0,0,1,0,5.2l-22.49,13.14a3,3,0,0,1-3,0L452,334A3,3,0,0,1,452,328.78Z"/><path class="cls-4" d="M468,344.61a8.9,8.9,0,0,0,.9.61,7.89,7.89,0,0,0,.56.82A7.32,7.32,0,0,1,468,344.61Z"/><path class="cls-4" d="M502.08,292a5,5,0,0,0-4.36.34L475,305.44a14.58,14.58,0,0,0-7.28,12.69l.09,23.08a8.18,8.18,0,0,0,1.07,4,8.9,8.9,0,0,1-.9-.61,7.91,7.91,0,0,1-1.71-4.95l-.09-23.07a14.56,14.56,0,0,1,7.28-12.69l22.72-13.12a5,5,0,0,1,5.38.17A4.15,4.15,0,0,1,502.08,292Z"/><path class="cls-4" d="M503.83,295.2v32.12a7.8,7.8,0,0,1-3.87,6.74l-21.51,12.56a8,8,0,0,1-9-.58,7.89,7.89,0,0,1-.56-.82,8,8,0,0,0,8.15,0l21.52-12.56a7.77,7.77,0,0,0,3.86-6.73V293.78a4.84,4.84,0,0,0-.33-1.8,4.77,4.77,0,0,1,.94.45A4.93,4.93,0,0,1,503.83,295.2Z"/><polygon class="cls-4" points="483.68 343.4 483.6 297.94 494.69 291.57 494.89 336.97 483.68 343.4"/><path class="cls-4" d="M346.83,322.74l.27,33.83-4,2.29V338.55a4.26,4.26,0,0,0-6.39-3.69l-4.47,2.58a11.92,11.92,0,0,0-5.95,10.31v20.81l-5,2.89V338.07l25.14-15.53A.23.23,0,0,1,346.83,322.74Z"/><path class="cls-4" d="M372.34,338l.26,34.93-4,2.3V354.87a4.25,4.25,0,0,0-6.38-3.69l-4.47,2.58a11.92,11.92,0,0,0-5.95,10.31v20.81l-5,2.88V354.39Z"/><path class="cls-4" d="M370.83,335.63l-22.35-12.91a3,3,0,0,0-3,0l-22.64,12.93a3,3,0,0,0,0,5.2L345.3,354a3,3,0,0,0,3,0l22.52-13.15A3,3,0,0,0,370.83,335.63Z"/><path class="cls-4" d="M354.81,351.46a9.46,9.46,0,0,1-.9.61,7.43,7.43,0,0,1-.56.82A7.33,7.33,0,0,0,354.81,351.46Z"/><path class="cls-4" d="M320.71,298.82a5,5,0,0,1,4.36.35l22.72,13.12A14.57,14.57,0,0,1,355.07,325L355,348.05a8.08,8.08,0,0,1-1.07,4,9.46,9.46,0,0,0,.9-.61,8,8,0,0,0,1.72-4.95l.08-23.08a14.54,14.54,0,0,0-7.28-12.68l-22.72-13.12a5,5,0,0,0-5.38.17A4.09,4.09,0,0,0,320.71,298.82Z"/><path class="cls-4" d="M319,302.05v32.12a7.81,7.81,0,0,0,3.87,6.74l21.52,12.56a8,8,0,0,0,9-.58,7.43,7.43,0,0,0,.56-.82,8,8,0,0,1-8.15,0L324.24,339.5a7.79,7.79,0,0,1-3.86-6.74V300.63a4.89,4.89,0,0,1,.33-1.81,5.45,5.45,0,0,0-.94.46A5,5,0,0,0,319,302.05Z"/><polygon class="cls-4" points="339.11 350.25 339.19 304.79 328.11 298.42 327.9 343.82 339.11 350.25"/><polygon class="cls-5" points="275.63 215.35 287.87 252.43 313.56 237.6 313.56 193.1 275.63 215.35"/><polygon class="cls-3" points="197.97 170.85 210.81 207.93 236.5 192.93 236.5 148.41 197.97 170.85"/><polygon class="cls-6" points="197.97 170.85 210.81 207.93 287.87 252.43 275.63 215.35 197.97 170.85"/><polygon class="cls-7" points="210.81 207.93 210.81 213.87 287.87 258.36 287.87 252.43 210.81 207.93"/><polygon class="cls-8" points="313.56 237.6 287.87 252.43 287.87 258.36 313.56 243.53 313.56 237.6"/><polygon class="cls-9" points="309.06 187.8 234.59 144.41 196.84 166.2 191.06 165.09 191.06 169.54 278.01 219.35 320.47 194.44 320.47 189.99 309.06 187.8"/><polygon class="cls-10" points="191.06 165.09 234.59 139.96 320.47 189.99 278.01 214.9 191.06 165.09"/><line class="cls-3" x1="278.01" y1="214.9" x2="278.01" y2="219.35"/><polygon class="cls-11" points="278.46 170.86 243.28 150.54 225.69 160.7 212.88 158.24 212.88 168.09 273.68 203.2 304.07 185.65 304.07 175.79 278.46 170.86"/><polygon class="cls-12" points="243.28 140.68 212.88 158.24 273.68 193.34 304.07 175.79 243.28 140.68"/><polygon class="cls-13" points="243.28 98.09 228.08 106.68 228.08 149.28 288.88 184.38 304.07 175.79 304.07 133.19 243.28 98.09"/><line class="cls-3" x1="288.88" y1="184.38" x2="288.88" y2="146.73"/><polygon class="cls-3" points="228.48 151.88 217.84 158.03 273.24 189.94 283.88 183.79 228.48 151.88"/><line class="cls-3" x1="220.7" y1="156.37" x2="276.1" y2="188.29"/><line class="cls-3" x1="223.16" y1="154.95" x2="278.56" y2="186.87"/><line class="cls-3" x1="225.62" y1="153.53" x2="281.02" y2="185.45"/><polygon class="cls-14" points="299.03 171.64 299.03 178.74 293.91 181.63 293.91 174.36 299.03 171.64"/><path class="cls-2" d="M253.85,164.42v11.63c0,1.9,2.7,3.44,6,3.44s6-1.54,6-3.44V164.42Z"/><ellipse class="cls-3" cx="259.88" cy="164.42" rx="6.03" ry="3.44"/><path class="cls-2" d="M270.16,170.92a3.62,3.62,0,0,1-3.63,3.63h-.62v-1.63h.35a2,2,0,0,0,1.41-.59,2,2,0,0,0-1.41-3.42h-.35v-1.62h.62A3.62,3.62,0,0,1,270.16,170.92Z"/><path class="cls-3" d="M232.2,133.14V136c0,1.36,1.93,2.47,4.32,2.47s4.32-1.11,4.32-2.47v-2.83Z"/><ellipse class="cls-3" cx="236.52" cy="133.14" rx="4.32" ry="2.47"/><path class="cls-3" d="M233.78,136.86l-1.54-.89-7.42,4.28-7,2.64v1.84h0a.79.79,0,0,0,.39.71,3.68,3.68,0,0,0,3.65,0l13.54-7.64v-1.58Z"/><path class="cls-3" d="M232.24,134.39l-14,8.08a.81.81,0,0,0,0,1.39h0a3.68,3.68,0,0,0,3.65,0l13.54-7.64Z"/><path class="cls-3" d="M254.56,145.38v2.83c0,1.36,1.93,2.47,4.32,2.47s4.32-1.11,4.32-2.47v-2.83Z"/><ellipse class="cls-3" cx="258.88" cy="145.38" rx="4.32" ry="2.47"/><path class="cls-3" d="M256.14,149.1l-1.54-.89-7.42,4.28-7,2.64V157h0a.79.79,0,0,0,.39.71,3.68,3.68,0,0,0,3.65,0l13.54-7.64v-1.58Z"/><path class="cls-3" d="M254.6,146.63l-14,8.09a.8.8,0,0,0,0,1.38h0a3.68,3.68,0,0,0,3.65,0l13.54-7.64Z"/><path class="cls-15" d="M219.93,111.15,216,116.4a4.68,4.68,0,0,0,1.41,6.84l56.25,32.47,30.39-17.55v-5Z"/><polygon class="cls-16" points="243.28 98.09 219.94 111.15 280.73 146.25 304.07 133.19 243.28 98.09"/><path class="cls-17" d="M259.73,107.63l-6.83,3.82a2.34,2.34,0,0,0,0,4.07l19.08,11a9.18,9.18,0,0,0,9.05.06l5.88-3.3Z"/><path class="cls-18" d="M280.73,146.26s-7.05,3.21-7.05,9.45"/><line class="cls-19" x1="273.68" y1="193.34" x2="273.68" y2="203.2"/><g id="HATCH"><polygon class="cls-20" points="238.13 125.11 236.03 123.22 233.37 118.9 228.5 117.02 223.29 116.8 216.64 119.79 215.2 123 215.2 128.54 217.31 131.97 216.97 133.75 218.86 136.07 219.08 137.4 217.86 142.5 215.98 145.05 208.11 149.59 203.79 152.8 205.9 168.09 207.78 170.53 211.43 182.27 210.55 196.34 209.99 200.88 210.88 203.21 209.77 211.3 209.88 221.71 210.22 234.9 207.56 240.21 205.01 248.08 203.57 266.91 203.79 271.46 203.24 274.12 208.22 281.98 213.21 284.31 217.08 282.87 217.31 280.21 212.54 275.33 209.88 271.35 210.99 256.61 215.2 248.41 218.52 239.44 221.74 225.15 224.28 216.62 227.06 211.96 229.05 217.06 231.49 227.47 234.03 234.34 232.37 240.66 233.15 252.73 235.36 257.39 236.25 267.58 235.47 271.12 235.59 274.34 243.78 279.99 248.66 281.54 252.09 280.43 251.76 277.77 244.23 271.24 242.68 267.91 243.45 241.21 243.67 216.28 243.56 206.65 245.45 205.98 246.11 202.32 243.9 195.68 240.13 187.26 239.69 181.61 243.45 180.17 250.87 180.39 256.63 179.06 260.85 176.51 263.73 174.96 265.39 168.98 253.87 173.08 253.87 172.19 251.87 172.3 245.78 175.29 242.12 176.29 239.65 176.88 240.79 169.09 240.9 163.77 238.69 147.49 236.25 143.83 232.26 143.83 231.19 143.72 233.38 140.04 234.87 135.12 235.19 130.74 235.67 128.55 235.89 125.35 237.65 126.04 238.13 125.11"/></g><g id="LWPOLYLINE"><polygon class="cls-21" points="238.13 125.11 236.03 123.22 233.37 118.9 228.5 117.02 223.29 116.8 216.64 119.79 215.2 123 215.2 128.54 217.31 131.97 216.97 133.75 218.86 136.07 219.08 137.4 217.86 142.5 215.98 145.05 208.11 149.59 203.79 152.8 205.9 168.09 207.78 170.53 211.43 182.27 210.55 196.34 209.99 200.88 210.88 203.21 209.77 211.3 209.88 221.71 210.22 234.9 207.56 240.21 205.01 248.08 203.57 266.91 203.79 271.46 203.24 274.12 208.22 281.98 213.21 284.31 217.08 282.87 217.31 280.21 212.54 275.33 209.88 271.35 210.99 256.61 215.2 248.41 218.52 239.44 221.74 225.15 224.28 216.62 227.06 211.96 229.05 217.06 231.49 227.47 234.03 234.34 232.37 240.66 233.15 252.73 235.36 257.39 236.25 267.58 235.47 271.12 235.59 274.34 243.78 279.99 248.66 281.54 252.09 280.43 251.76 277.77 244.23 271.24 242.68 267.91 243.45 241.21 243.67 216.28 243.56 206.65 245.45 205.98 246.11 202.32 243.9 195.68 240.13 187.26 239.69 181.61 243.45 180.17 250.87 180.39 256.63 179.06 260.85 176.51 263.73 174.96 265.39 168.98 253.87 173.08 253.87 172.19 251.87 172.3 245.78 175.29 242.12 176.29 239.65 176.88 240.79 169.09 240.9 163.77 238.69 147.49 236.25 143.83 232.26 143.83 231.19 143.72 233.38 140.04 234.87 135.12 235.19 130.74 235.67 128.55 235.89 125.35 237.65 126.04 238.13 125.11"/></g><g id="LWPOLYLINE-2" data-name="LWPOLYLINE"><polyline class="cls-21" points="242.68 267.91 239.54 268.45 238 268.38 236.25 267.58"/></g><g id="LWPOLYLINE-3" data-name="LWPOLYLINE"><polyline class="cls-21" points="209.88 271.35 206.76 271.91 205 271.38 203.74 270.45"/></g><g id="LWPOLYLINE-4" data-name="LWPOLYLINE"><polyline class="cls-21" points="243.56 206.65 243.41 203.24 243.48 200.32 243.9 195.68 243.24 194.2"/></g><g id="LWPOLYLINE-5" data-name="LWPOLYLINE"><polyline class="cls-21" points="243.41 203.24 236.1 204.32 228.33 204.47 219.71 204.47 214.63 203.93 210.88 203.21"/></g><g id="LWPOLYLINE-6" data-name="LWPOLYLINE"><polyline class="cls-21" points="207.78 170.53 213.44 169.29 216.65 167.51 215.77 163.64 215.66 160.76"/></g><g id="LWPOLYLINE-7" data-name="LWPOLYLINE"><polyline class="cls-21" points="216.65 167.51 218.2 174.72 218.65 178.48 219.98 179.81 227.62 178.37 233.05 177.93 238.48 177.15 242.12 176.29"/></g><g id="LWPOLYLINE-8" data-name="LWPOLYLINE"><polyline class="cls-21" points="239.69 181.61 230.17 185.57 222.19 187.01 218.76 187.46 215.54 187.35 211.43 182.27"/></g><g id="LWPOLYLINE-9" data-name="LWPOLYLINE"><polyline class="cls-21" points="237.73 154.64 238.25 162.97 238.95 170.09 239.11 177"/></g><g id="LWPOLYLINE-10" data-name="LWPOLYLINE"><polyline class="cls-21" points="240.88 164.7 239.59 165.41 238.5 165.52"/></g><g id="LWPOLYLINE-11" data-name="LWPOLYLINE"><polyline class="cls-21" points="231.19 143.72 228.62 144.52 225.76 143.96 221.32 141.75"/></g><g id="LWPOLYLINE-12" data-name="LWPOLYLINE"><polyline class="cls-21" points="217.31 131.97 220.03 133.35 220.77 132.24 222.52 129.1 224.46 126.88 228.25 126.61 230.93 127.9 232.13 126.14 233.88 127.25 235.67 128.55"/></g><g id="LWPOLYLINE-13" data-name="LWPOLYLINE"><polyline class="cls-21" points="227.44 144.29 227.42 146.92 224.83 148.4 221.6 148.3 218.74 146.46 216.81 143.92"/></g><path class="cls-3" d="M198.64,270.43h12.1a0,0,0,0,1,0,0v52.91a5.51,5.51,0,0,1-5.51,5.51h-1.07a5.51,5.51,0,0,1-5.51-5.51V270.43A0,0,0,0,1,198.64,270.43Z"/><rect class="cls-3" x="136.44" y="239.73" width="12.1" height="72.92"/><path class="cls-3" d="M117.3,298.11H128a.7.7,0,0,1,.7.7v66.7a5.51,5.51,0,0,1-5.51,5.51h-1.07a5.51,5.51,0,0,1-5.51-5.51v-66.7A.7.7,0,0,1,117.3,298.11Z"/><path class="cls-3" d="M54.41,279.29h12.1a0,0,0,0,1,0,0v49.28A5.51,5.51,0,0,1,61,334.08H59.92a5.51,5.51,0,0,1-5.51-5.51V279.29A0,0,0,0,1,54.41,279.29Z"/><path class="cls-3" d="M195,265.59,142,235,75.63,273.53l-28.44,1.89v14.63L116,329.76a13.32,13.32,0,0,0,13.35,0l87.83-51,.29,0V264.09Z"/><path class="cls-3" d="M47.19,275.42l85.94-49.91a17.65,17.65,0,0,1,17.71,0l66.6,38.45-88.12,51.18a13.32,13.32,0,0,1-13.35,0Z"/><line class="cls-3" x1="122.65" y1="331.55" x2="122.65" y2="317.4"/><path class="cls-2" d="M164.79,316.33l-.26,33.83,4,2.29V332.14a4.25,4.25,0,0,1,6.38-3.68l4.47,2.58a11.89,11.89,0,0,1,5.95,10.3v20.82l5,2.88V331.66l-25.15-15.53A.24.24,0,0,0,164.79,316.33Z"/><path class="cls-2" d="M139.29,331.54,139,366.47l4,2.3V348.46a4.26,4.26,0,0,1,6.39-3.69l4.46,2.58a11.9,11.9,0,0,1,6,10.31v20.81l5,2.88V348Z"/><path class="cls-2" d="M140.79,329.22l22.36-12.91a3,3,0,0,1,3,0l22.64,12.92a3,3,0,0,1,0,5.2l-22.49,13.14a3,3,0,0,1-3,0l-22.51-13.15A3,3,0,0,1,140.79,329.22Z"/><path class="cls-2" d="M156.81,345.05a10.18,10.18,0,0,0,.9.61,7.89,7.89,0,0,0,.56.82A7.32,7.32,0,0,1,156.81,345.05Z"/><path class="cls-2" d="M190.91,292.42a5,5,0,0,0-4.35.34l-22.72,13.12a14.59,14.59,0,0,0-7.29,12.69l.09,23.08a8.18,8.18,0,0,0,1.07,4,10.18,10.18,0,0,1-.9-.61,7.91,7.91,0,0,1-1.71-4.95L155,317a14.56,14.56,0,0,1,7.28-12.69L185,291.22a5,5,0,0,1,5.38.17A4.15,4.15,0,0,1,190.91,292.42Z"/><path class="cls-2" d="M192.66,295.64v32.12a7.8,7.8,0,0,1-3.87,6.74l-21.51,12.56a8,8,0,0,1-9-.58,7.89,7.89,0,0,1-.56-.82,8,8,0,0,0,8.15,0l21.52-12.56a7.78,7.78,0,0,0,3.87-6.73V294.22a4.84,4.84,0,0,0-.34-1.8,4.52,4.52,0,0,1,.94.45A4.93,4.93,0,0,1,192.66,295.64Z"/><polygon class="cls-2" points="172.51 343.84 172.43 298.38 183.52 292.01 183.72 337.41 172.51 343.84"/><path class="cls-4" d="M228.31,304.87l-.26,33.82,4,2.3V320.68a4.26,4.26,0,0,1,6.39-3.69l4.47,2.58a11.92,11.92,0,0,1,6,10.31v20.81l5,2.88V320.2l-25.15-15.53A.23.23,0,0,0,228.31,304.87Z"/><path class="cls-4" d="M202.81,320.08,202.54,355l4,2.3V337a4.26,4.26,0,0,1,6.39-3.69l4.46,2.58a11.87,11.87,0,0,1,5.95,10.31V367l5,2.88V336.51Z"/><path class="cls-4" d="M204.31,317.76l22.36-12.91a3,3,0,0,1,3,0l22.64,12.93a3,3,0,0,1,0,5.2L229.84,336.1a3,3,0,0,1-3,0L204.3,323A3,3,0,0,1,204.31,317.76Z"/><path class="cls-4" d="M220.33,333.59a8.8,8.8,0,0,0,.9.6,8,8,0,0,0,.56.83A7.91,7.91,0,0,1,220.33,333.59Z"/><path class="cls-4" d="M254.43,281a5,5,0,0,0-4.35.35l-22.73,13.12a14.58,14.58,0,0,0-7.28,12.68l.09,23.08a8.15,8.15,0,0,0,1.07,4,8.8,8.8,0,0,1-.9-.6,7.93,7.93,0,0,1-1.71-4.95l-.09-23.08a14.58,14.58,0,0,1,7.28-12.69l22.72-13.12a5,5,0,0,1,5.38.18A4.09,4.09,0,0,1,254.43,281Z"/><path class="cls-4" d="M256.18,284.17V316.3a7.83,7.83,0,0,1-3.87,6.74L230.8,335.6a6.11,6.11,0,0,1-9.57-1.41,8,8,0,0,0,8.15,0l21.52-12.55a7.79,7.79,0,0,0,3.87-6.74V282.75a4.88,4.88,0,0,0-.34-1.8,4.1,4.1,0,0,1,.94.46A4.9,4.9,0,0,1,256.18,284.17Z"/><polygon class="cls-4" points="236.03 332.38 235.95 286.92 247.04 280.55 247.24 325.95 236.03 332.38"/><path class="cls-2" d="M71.85,317.15,72.11,351l-4,2.29V333a4.26,4.26,0,0,0-6.39-3.68l-4.47,2.58a11.89,11.89,0,0,0-6,10.3V363l-5,2.88V332.48L71.49,317A.24.24,0,0,1,71.85,317.15Z"/><path class="cls-2" d="M97.35,332.36l.27,34.93-4,2.3V349.28a4.26,4.26,0,0,0-6.39-3.69l-4.46,2.58a11.9,11.9,0,0,0-6,10.31v20.81l-5,2.88V348.8Z"/><path class="cls-2" d="M95.85,330,73.49,317.13a3,3,0,0,0-3,0L47.86,330.05a3,3,0,0,0,0,5.2l22.49,13.14a3,3,0,0,0,3,0l22.51-13.15A3,3,0,0,0,95.85,330Z"/><path class="cls-2" d="M79.83,345.87c-.29.22-.6.42-.9.61a7.89,7.89,0,0,1-.56.82A7.32,7.32,0,0,0,79.83,345.87Z"/><g class="cls-22"><g id="HATCH-2" data-name="HATCH"><path class="cls-20" d="M96,309.62l-4.28-2.2L89,295.11l-.39-12.31-3.75-6.48-4.8-3.24-2.72-1L77,267.38l2.2-2.46,2.08.26,2.59-4.67.39-9.46-.78-7.12-4.53-3.5-10.5.26L63.64,247,62.35,256l1.16,7.51,3.63,1.17v2.72l-3.5,1.68L59,270.49l-4,1.94-1.55,6.22,2.2,14.13.26,9.07,5.31,4.92L60,312.22l-3.37,7.9,2.07,7.39,7.13,4.4,13.6,1.56h4.67l.65,7.13,2.72,11.79.78,10.88-.13,4.67,1.42,1.81,7.13-2.2,4.14-3.11,1.56-2.2-1.3-.78H95.91l-2.07-1.56-.78-4.79-.13-8.68.65-6.87,2.07-6,.13-1.56,10.37-3.24L109,328l-2.07,3.37-1.82,4.14-.39,6.74.91,8.81,1.68,8.81-1,10.11-1.3,4.67,2,2,4.21-1.1h6.61l3-1.55,2.07-2.07v-3l-2.59-1h-3.88l-3.24,1.29-.26-4,.39-6.35,1.94-12.44,1-7.39.77-10.88.65-6-2.85-3-3.63-4.53-6.48-.65-3.24-.13Zm-12.71,2.29.2,2.2,5,1.3,1.69.78,3,0-5.83-2.7-1.73-2.7-2.39-7.17-.54,6.05Z"/></g><g id="LWPOLYLINE-14" data-name="LWPOLYLINE"><polygon class="cls-21" points="96.04 309.63 91.76 307.42 89.04 295.11 88.65 282.8 84.9 276.32 80.1 273.08 77.38 272.05 76.99 267.38 79.19 264.92 81.27 265.18 83.86 260.51 84.25 251.05 83.47 243.93 78.94 240.43 68.44 240.69 63.64 247.03 62.35 255.98 63.52 263.49 67.14 264.66 67.14 267.38 63.64 269.06 58.98 270.49 54.96 272.43 53.41 278.65 55.61 292.78 55.87 301.85 61.18 306.77 60.02 312.22 56.65 320.12 58.72 327.51 65.85 331.91 79.45 333.47 84.12 333.47 84.77 340.6 87.49 352.39 88.27 363.27 88.14 367.94 89.56 369.75 96.69 367.55 100.83 364.44 102.39 362.24 101.09 361.46 95.91 361.46 93.84 359.9 93.06 355.11 92.93 346.43 93.58 339.56 95.65 333.6 95.78 332.04 106.15 328.8 109 328.03 106.92 331.39 105.11 335.54 104.72 342.28 105.63 351.09 107.31 359.9 106.28 370.01 104.98 374.68 106.99 376.69 111.2 375.58 117.81 375.58 120.79 374.03 122.86 371.95 122.86 368.98 120.27 367.94 116.39 367.94 113.15 369.23 112.89 365.22 113.28 358.87 115.22 346.43 116.26 339.04 117.03 328.15 117.68 322.19 114.83 319.21 111.2 314.68 104.72 314.03 101.48 313.9 96.04 309.63"/></g><g id="LWPOLYLINE-15" data-name="LWPOLYLINE"><polygon class="cls-21" points="83.33 311.9 83.53 314.11 88.48 315.41 90.17 316.19 93.17 316.16 87.34 313.46 85.61 310.76 83.22 303.59 82.68 309.64 83.33 311.9"/></g><g id="LWPOLYLINE-16" data-name="LWPOLYLINE"><polyline class="cls-21" points="63.64 269.06 66.7 272.06 71.45 272.38 75.13 272.06 77.38 272.05"/></g><g id="LWPOLYLINE-17" data-name="LWPOLYLINE"><polyline class="cls-21" points="54.96 272.43 55.36 283.5 57.85 289.23 60.01 296.14 61.2 303.48 61.18 306.77"/></g><g id="LWPOLYLINE-18" data-name="LWPOLYLINE"><polyline class="cls-21" points="57.63 317.81 62.27 320.11 68.43 321.19 76.64 323.14 84.2 322.38 83.87 318.06 83.33 311.9 82.68 309.64 83.22 303.59 82.25 298.41 80.42 290.31 78.69 281.99 79.44 277.35 81.6 276.05 83.7 275.51"/></g><g id="LWPOLYLINE-19" data-name="LWPOLYLINE"><polyline class="cls-21" points="67.14 264.66 71.45 265.58 75.45 265.36 79.19 264.92 78.47 260.39 78.69 255.54 80.2 251.86 83.33 251.43 84.25 251.05"/></g><g id="LWPOLYLINE-20" data-name="LWPOLYLINE"><polyline class="cls-21" points="83.22 303.59 85.61 310.76 87.34 313.46 93.17 316.16 99.54 317.78 105.05 319.18 110.88 321.02 116 320.44"/></g><g id="LWPOLYLINE-21" data-name="LWPOLYLINE"><polyline class="cls-21" points="84.12 333.47 89.5 333.55 95.78 332.04"/></g><g id="LWPOLYLINE-22" data-name="LWPOLYLINE"><polyline class="cls-21" points="88.19 365.82 91.66 366 94.09 364.47 95.17 361.95 95.91 361.46"/></g><g id="LWPOLYLINE-23" data-name="LWPOLYLINE"><polyline class="cls-21" points="106.28 370.01 110.23 371.31 112.03 370.56 113.15 369.23"/></g><g id="LWPOLYLINE-24" data-name="LWPOLYLINE"><polyline class="cls-21" points="83.81 317.39 88.75 316.21 93.17 316.16"/></g><g id="LWPOLYLINE-25" data-name="LWPOLYLINE"><polyline class="cls-21" points="83.53 314.11 88.48 315.41 90.17 316.19"/></g></g><path class="cls-2" d="M45.73,293.24a5,5,0,0,1,4.35.34L72.8,306.7a14.59,14.59,0,0,1,7.29,12.69L80,342.47a8.18,8.18,0,0,1-1.07,4c.3-.19.61-.39.9-.61a7.91,7.91,0,0,0,1.71-4.95l.09-23.07a14.56,14.56,0,0,0-7.28-12.69L51.63,292a5,5,0,0,0-5.38.17A4.15,4.15,0,0,0,45.73,293.24Z"/><path class="cls-2" d="M44,296.46v32.12a7.8,7.8,0,0,0,3.87,6.74l21.51,12.56a8,8,0,0,0,9-.58,7.89,7.89,0,0,0,.56-.82,8,8,0,0,1-8.15,0L49.26,333.91a7.78,7.78,0,0,1-3.87-6.73V295a4.84,4.84,0,0,1,.34-1.8,4.52,4.52,0,0,0-.94.45A4.93,4.93,0,0,0,44,296.46Z"/><polygon class="cls-2" points="64.13 344.66 64.21 299.2 53.12 292.83 52.92 338.23 64.13 344.66"/><path class="cls-2" d="M97.62,334.57v32.72l-4,2.3V349.28a4.26,4.26,0,0,0-6.39-3.69l-4.46,2.58a11.9,11.9,0,0,0-6,10.31v20.81l-5,2.88V348.8Z"/><g id="HATCH-3" data-name="HATCH"><polygon class="cls-20" points="6.8 122.31 8.8 124.52 11.61 124.52 15.82 122.91 18.22 120.31 22.83 119.91 25.83 119.31 25.63 114.9 27.04 113.7 27.44 82.84 33.85 79.84 45.87 86.05 41.46 92.66 41.46 124.92 40.26 135.33 35.25 142.34 35.85 147.55 39.46 147.75 44.67 144.55 46.67 137.54 50.68 135.73 51.48 98.27 65.7 84.85 74.52 75.03 74.32 71.02 75.32 58.8 77.92 51.59 82.13 42.97 83.33 36.76 80.33 32.16 75.12 28.15 72.72 26.34 70.91 20.73 72.31 18.93 72.51 16.33 73.52 11.92 72.11 5.11 66.1 0.5 60.49 2.3 56.29 6.31 52.28 9.52 49.07 11.12 52.58 12.15 49.88 14.18 53.84 13.98 51.91 15.63 55.38 15.05 55.97 21.23 57.22 23.84 55.67 25.39 52.87 30.22 51.04 34.18 49.98 37.27 49.98 39.01 44.66 45.48 40.41 47.22 38.19 48.57 36.55 49.35 33.74 48.67 31.33 49.25 32.49 50.31 28.62 53.11 26.88 54.47 27.85 55.43 30.84 54.37 28.72 56.79 29.59 57.37 32.2 55.63 31.91 57.85 32.97 58.52 34.42 57.27 34.23 58.43 34.52 59.4 40.22 53.6 45.34 51.95 51.23 46.35 53.55 41.91 55.29 41.62 54.03 53.79 52.68 59.59 46.21 61.81 37.8 64.23 14.42 52.15 20.02 70.02 18.77 71.38 19.93 73.79 16.16 78.23 16.74 93.4 17.7 112.92 16.45 115.05 6.8 122.31"/></g><g id="LWPOLYLINE-26" data-name="LWPOLYLINE"><polygon class="cls-21" points="6.8 122.31 8.8 124.52 11.61 124.52 15.82 122.91 18.22 120.31 22.83 119.91 25.83 119.31 25.63 114.9 27.04 113.7 27.44 82.84 33.85 79.84 45.87 86.05 41.46 92.66 41.46 124.92 40.26 135.33 35.25 142.34 35.85 147.55 39.46 147.75 44.67 144.55 46.67 137.54 50.68 135.73 51.48 98.27 65.7 84.85 74.52 75.03 74.32 71.02 75.32 58.8 77.92 51.59 82.13 42.97 83.33 36.76 80.33 32.16 75.12 28.15 72.72 26.34 70.91 20.73 72.31 18.93 72.51 16.33 73.52 11.92 72.11 5.11 66.1 0.5 60.49 2.3 56.29 6.31 52.28 9.52 49.07 11.12 52.58 12.15 49.88 14.18 53.84 13.98 51.91 15.63 55.38 15.05 55.97 21.23 57.22 23.84 55.67 25.39 52.87 30.22 51.04 34.18 49.98 37.27 49.98 39.01 44.66 45.48 40.41 47.22 38.19 48.57 36.55 49.35 33.74 48.67 31.33 49.25 32.49 50.31 28.62 53.11 26.88 54.47 27.85 55.43 30.84 54.37 28.72 56.79 29.59 57.37 32.2 55.63 31.91 57.85 32.97 58.52 34.42 57.27 34.23 58.43 34.52 59.4 40.22 53.6 45.34 51.95 51.23 46.35 53.55 41.91 55.29 41.62 54.03 53.79 52.68 59.59 46.21 61.81 37.8 64.23 14.42 52.15 20.02 70.02 18.77 71.38 19.93 73.79 16.16 78.23 16.74 93.4 17.7 112.92 16.45 115.05 6.8 122.31"/></g><g id="LWPOLYLINE-27" data-name="LWPOLYLINE"><line class="cls-21" x1="19.93" y1="73.79" x2="33.85" y2="79.84"/></g><g id="LWPOLYLINE-28" data-name="LWPOLYLINE"><polyline class="cls-21" points="16.45 115.05 21.52 116.31 25.63 114.9"/></g><g id="LWPOLYLINE-29" data-name="LWPOLYLINE"><line class="cls-21" x1="39.89" y1="135.85" x2="46.67" y2="137.54"/></g><g id="LWPOLYLINE-30" data-name="LWPOLYLINE"><polyline class="cls-21" points="46.93 82.4 48.57 83.85 51.09 81.92 50.51 84.81 47.32 88.78 47.41 90.52 51.47 89.07 56.01 84.04 58.62 80.37 62 77.57 68.77 70.42 71.86 66.07 75.27 59.43"/></g><g id="LWPOLYLINE-31" data-name="LWPOLYLINE"><polyline class="cls-21" points="78.39 50.64 74.56 50.32 72.05 48.78 71.86 47.52 72.92 42.98"/></g><g id="LWPOLYLINE-32" data-name="LWPOLYLINE"><polyline class="cls-21" points="71.86 47.52 68.57 58.44 65.67 63.85 62.29 67.52 58.04 72.16 56.78 75.93 54.18 76.99 50.99 78.15 48.57 80.47 46.93 82.4"/></g><g id="LWPOLYLINE-33" data-name="LWPOLYLINE"><polyline class="cls-21" points="37.8 64.23 41.13 65.78 45.09 82.79"/></g><g id="LWPOLYLINE-34" data-name="LWPOLYLINE"><line class="cls-21" x1="41.66" y1="68.04" x2="56.79" y2="75.93"/></g><g id="LWPOLYLINE-35" data-name="LWPOLYLINE"><line class="cls-21" x1="20.02" y1="70.02" x2="40.75" y2="80.56"/></g><g id="LWPOLYLINE-36" data-name="LWPOLYLINE"><line class="cls-21" x1="40.75" y1="80.56" x2="45.09" y2="82.79"/></g><g id="LWPOLYLINE-37" data-name="LWPOLYLINE"><line class="cls-21" x1="45.46" y1="86.67" x2="50.12" y2="84.14"/></g><g id="LWPOLYLINE-38" data-name="LWPOLYLINE"><polyline class="cls-21" points="57.44 82.04 61.33 79.6 60.6 78.73"/></g><g id="LWPOLYLINE-39" data-name="LWPOLYLINE"><line class="cls-21" x1="49.97" y1="39.01" x2="53.55" y2="41.91"/></g><g id="LWPOLYLINE-40" data-name="LWPOLYLINE"><polyline class="cls-21" points="63.74 27.13 64.32 31.48 68.96 32.35 72.24 30.23 74.28 27.52"/></g><g id="LWPOLYLINE-41" data-name="LWPOLYLINE"><polyline class="cls-21" points="66.74 25.39 63.74 27.13 61.62 27.71 57.95 25.3 57.22 23.84"/></g><g id="LWPOLYLINE-42" data-name="LWPOLYLINE"><polyline class="cls-21" points="55.38 15.05 61.33 14.28 65.58 14.57 67.12 17.38 67.32 20.08 68.77 19.69 68.77 16.41 70.99 15.64 72.51 16.33"/></g><g id="LWPOLYLINE-43" data-name="LWPOLYLINE"><polyline class="cls-21" points="52.68 59.59 55.16 64.8 61.08 67.92"/></g><g id="LWPOLYLINE-44" data-name="LWPOLYLINE"><line class="cls-21" x1="61.08" y1="67.93" x2="61.54" y2="68.35"/></g><g id="LWPOLYLINE-45" data-name="LWPOLYLINE"><polyline class="cls-21" points="68.43 70.78 70.75 71.03 72.87 70.86 74.35 70.63"/></g><path class="cls-3" d="M155.16,108.88h12.1a0,0,0,0,1,0,0v52.91a5.51,5.51,0,0,1-5.51,5.51h-1.07a5.51,5.51,0,0,1-5.51-5.51V108.88A0,0,0,0,1,155.16,108.88Z"/><rect class="cls-3" x="92.97" y="78.18" width="12.1" height="72.92"/><path class="cls-3" d="M73.83,136.56H84.52a.7.7,0,0,1,.7.7V204a5.51,5.51,0,0,1-5.51,5.51H78.64A5.51,5.51,0,0,1,73.12,204v-66.7a.7.7,0,0,1,.7-.7Z"/><path class="cls-3" d="M10.93,117.74H23a0,0,0,0,1,0,0V167a5.51,5.51,0,0,1-5.51,5.51H16.45A5.51,5.51,0,0,1,10.93,167V117.74A0,0,0,0,1,10.93,117.74Z"/><path class="cls-3" d="M151.49,104l-53-30.59L32.16,112,3.71,113.87V128.5l68.78,39.71a13.34,13.34,0,0,0,13.36,0l87.82-51,.3,0V102.54Z"/><path class="cls-3" d="M3.71,113.87,89.65,64a17.7,17.7,0,0,1,17.72,0L174,102.39,85.85,153.57a13.34,13.34,0,0,1-13.36,0Z"/><line class="cls-3" x1="79.17" y1="170" x2="79.17" y2="155.85"/><path class="cls-2" d="M121.31,154.78l-.26,33.83,4,2.29V170.59a4.26,4.26,0,0,1,6.39-3.68l4.46,2.58a11.87,11.87,0,0,1,6,10.3v20.82l5,2.88V170.11l-25.14-15.53A.25.25,0,0,0,121.31,154.78Z"/><path class="cls-2" d="M95.81,170l-.26,34.93,4,2.3V186.91a4.26,4.26,0,0,1,6.39-3.69l4.47,2.58a11.92,11.92,0,0,1,6,10.31v20.81l5,2.88V186.43Z"/><path class="cls-2" d="M97.31,167.67l22.36-12.91a3,3,0,0,1,3,0l22.64,12.93a3,3,0,0,1,0,5.2L122.85,186a3,3,0,0,1-3,0L97.3,172.87A3,3,0,0,1,97.31,167.67Z"/><path class="cls-2" d="M113.34,183.5a9.46,9.46,0,0,0,.9.61,7.33,7.33,0,0,0,.55.82A7.55,7.55,0,0,1,113.34,183.5Z"/><path class="cls-2" d="M147.44,130.87a4.94,4.94,0,0,0-4.36.34l-22.72,13.12A14.55,14.55,0,0,0,113.08,157l.08,23.08a8.19,8.19,0,0,0,1.08,4,9.46,9.46,0,0,1-.9-.61,7.92,7.92,0,0,1-1.72-4.95l-.08-23.08a14.54,14.54,0,0,1,7.28-12.68l22.72-13.12a5,5,0,0,1,5.38.17A4.53,4.53,0,0,1,147.44,130.87Z"/><path class="cls-2" d="M149.19,134.09v32.12a7.79,7.79,0,0,1-3.88,6.74L123.8,185.51a8,8,0,0,1-9-.58,7.33,7.33,0,0,1-.55-.82,8,8,0,0,0,8.14,0l21.53-12.55a7.79,7.79,0,0,0,3.86-6.74V132.67a4.84,4.84,0,0,0-.33-1.8,4.77,4.77,0,0,1,.94.45A5,5,0,0,1,149.19,134.09Z"/><polygon class="cls-2" points="129.03 182.29 128.96 136.83 140.04 130.46 140.24 175.86 129.03 182.29"/><path class="cls-4" d="M28.37,155.6l.27,33.83-4,2.29V171.41a4.26,4.26,0,0,0-6.39-3.68l-4.47,2.58a11.89,11.89,0,0,0-6,10.3v20.82l-5,2.88V170.93L28,155.4A.24.24,0,0,1,28.37,155.6Z"/><path class="cls-4" d="M53.88,170.81l.26,34.93-4,2.3V187.73A4.26,4.26,0,0,0,43.78,184l-4.47,2.58a11.92,11.92,0,0,0-6,10.31v20.81l-5,2.88V187.25Z"/><path class="cls-4" d="M52.37,168.49,30,155.58a3,3,0,0,0-3,0L4.38,168.5a3,3,0,0,0,0,5.2l22.48,13.14a3,3,0,0,0,3,0l22.52-13.15A3,3,0,0,0,52.37,168.49Z"/><path class="cls-4" d="M36.35,184.32a9.46,9.46,0,0,1-.9.61,7.33,7.33,0,0,1-.55.82A7.55,7.55,0,0,0,36.35,184.32Z"/><path class="cls-4" d="M2.25,131.69a4.94,4.94,0,0,1,4.36.34l22.72,13.12a14.55,14.55,0,0,1,7.28,12.69l-.09,23.08a8.07,8.07,0,0,1-1.07,4,9.46,9.46,0,0,0,.9-.61,7.92,7.92,0,0,0,1.72-4.95l.08-23.08a14.54,14.54,0,0,0-7.28-12.68L8.15,130.49a5,5,0,0,0-5.38.17A4.33,4.33,0,0,0,2.25,131.69Z"/><path class="cls-4" d="M.5,134.91V167a7.8,7.8,0,0,0,3.88,6.74l21.51,12.56a8,8,0,0,0,9-.58,7.33,7.33,0,0,0,.55-.82,8,8,0,0,1-8.14,0L5.78,172.36a7.79,7.79,0,0,1-3.86-6.74V133.49a4.84,4.84,0,0,1,.33-1.8,4.77,4.77,0,0,0-.94.45A5,5,0,0,0,.5,134.91Z"/><polygon class="cls-4" points="20.66 183.11 20.73 137.65 9.65 131.28 9.45 176.68 20.66 183.11"/></g></g></svg>