<svg width="84" height="50" viewBox="0 0 84 50" fill="none" xmlns="http://www.w3.org/2000/svg">
<g style="mix-blend-mode:luminosity" clip-path="url(#clip0_738_1690)">
<path d="M24.0212 18.2595C24.0212 19.2734 24.1308 20.0955 24.3226 20.6984C24.5418 21.3013 24.8159 21.959 25.1995 22.6715C25.3366 22.8907 25.3914 23.1099 25.3914 23.3018C25.3914 23.5758 25.2269 23.8498 24.8707 24.1239L23.1442 25.2748C22.8976 25.4393 22.651 25.5215 22.4317 25.5215C22.1577 25.5215 21.8837 25.3845 21.6096 25.1378C21.226 24.7268 20.8971 24.2883 20.6231 23.8498C20.3491 23.384 20.075 22.8633 19.7736 22.233C17.6361 24.7542 14.9505 26.0147 11.7168 26.0147C9.41492 26.0147 7.57886 25.3571 6.23608 24.0417C4.89329 22.7263 4.20819 20.9724 4.20819 18.7801C4.20819 16.4508 5.03031 14.5599 6.70194 13.1349C8.37358 11.7099 10.5933 10.9974 13.4159 10.9974C14.3476 10.9974 15.3067 11.0797 16.3207 11.2167C17.3346 11.3537 18.376 11.5729 19.4721 11.8196V9.81907C19.4721 7.73638 19.0337 6.28398 18.1842 5.43446C17.3072 4.58494 15.8274 4.17388 13.7173 4.17388C12.7582 4.17388 11.7717 4.2835 10.7577 4.53013C9.74377 4.77676 8.75723 5.07821 7.79809 5.46186C7.35963 5.65369 7.03079 5.7633 6.83896 5.81811C6.64713 5.87292 6.51011 5.90032 6.4005 5.90032C6.01684 5.90032 5.82502 5.62628 5.82502 5.0508V3.70802C5.82502 3.26955 5.87983 2.94071 6.01684 2.74888C6.15386 2.55705 6.4005 2.36523 6.78415 2.1734C7.74329 1.68013 8.89425 1.26907 10.237 0.940227C11.5798 0.583977 13.0048 0.419554 14.512 0.419554C17.7731 0.419554 20.1572 1.15946 21.6918 2.63927C23.1991 4.11907 23.9664 6.36619 23.9664 9.38061V18.2595H24.0212ZM12.8952 22.4248C13.7995 22.4248 14.7313 22.2604 15.7178 21.9316C16.7043 21.6027 17.5813 20.9998 18.3212 20.1777C18.7596 19.6571 19.0885 19.0816 19.2529 18.4239C19.4173 17.7662 19.5269 16.9715 19.5269 16.0397V14.8888C18.7322 14.697 17.8827 14.5325 17.0058 14.4229C16.1289 14.3133 15.2793 14.2585 14.4298 14.2585C12.5938 14.2585 11.251 14.6147 10.3467 15.3547C9.44233 16.0946 9.00386 17.1359 9.00386 18.5061C9.00386 19.7941 9.33271 20.7532 10.0178 21.4109C10.6755 22.096 11.6346 22.4248 12.8952 22.4248ZM34.9005 25.3845C34.4072 25.3845 34.0784 25.3022 33.8592 25.1104C33.6399 24.946 33.4481 24.5623 33.2837 24.0417L26.8438 2.8585C26.6793 2.31042 26.5971 1.95417 26.5971 1.76234C26.5971 1.32388 26.8164 1.07725 27.2548 1.07725H29.9404C30.4611 1.07725 30.8173 1.15946 31.0092 1.35128C31.2284 1.51571 31.3928 1.89936 31.5572 2.42003L36.1611 20.5614L40.4361 2.42003C40.5731 1.87196 40.7375 1.51571 40.9567 1.35128C41.176 1.18686 41.5596 1.07725 42.0529 1.07725H44.2452C44.7659 1.07725 45.1221 1.15946 45.3414 1.35128C45.5606 1.51571 45.7524 1.89936 45.862 2.42003L50.1918 20.7806L54.9327 2.42003C55.0971 1.87196 55.289 1.51571 55.4808 1.35128C55.7 1.18686 56.0563 1.07725 56.5495 1.07725H59.0981C59.5366 1.07725 59.7832 1.29648 59.7832 1.76234C59.7832 1.89936 59.7558 2.03638 59.7284 2.2008C59.701 2.36523 59.6462 2.58446 59.5366 2.8859L52.9322 24.0691C52.7678 24.6171 52.576 24.9734 52.3567 25.1378C52.1375 25.3022 51.7813 25.4119 51.3154 25.4119H48.9587C48.438 25.4119 48.0817 25.3297 47.8625 25.1378C47.6433 24.946 47.4515 24.5897 47.3418 24.0417L43.0942 6.36619L38.8741 24.0143C38.737 24.5623 38.5726 24.9186 38.3534 25.1104C38.1342 25.3022 37.7505 25.3845 37.2572 25.3845H34.9005ZM70.1144 26.1244C68.6894 26.1244 67.2644 25.9599 65.8942 25.6311C64.5241 25.3022 63.4553 24.946 62.7428 24.5349C62.3043 24.2883 62.0029 24.0143 61.8933 23.7676C61.7837 23.521 61.7289 23.247 61.7289 23.0003V21.6027C61.7289 21.0272 61.9481 20.7532 62.3592 20.7532C62.5236 20.7532 62.688 20.7806 62.8524 20.8354C63.0168 20.8902 63.2635 20.9998 63.5375 21.1095C64.4692 21.5205 65.4832 21.8494 66.5519 22.0686C67.6481 22.2878 68.7168 22.3974 69.813 22.3974C71.5394 22.3974 72.8822 22.096 73.814 21.4931C74.7457 20.8902 75.239 20.0133 75.239 18.8897C75.239 18.1224 74.9923 17.4922 74.4991 16.9715C74.0058 16.4508 73.0741 15.9849 71.7313 15.5465L67.7577 14.3133C65.7572 13.683 64.2774 12.7513 63.3731 11.5181C62.4688 10.3123 62.0029 8.96955 62.0029 7.54455C62.0029 6.39359 62.2495 5.37965 62.7428 4.50273C63.2361 3.6258 63.8938 2.8585 64.7159 2.25561C65.538 1.62532 66.4697 1.15946 67.5659 0.830611C68.662 0.501765 69.813 0.364746 71.0188 0.364746C71.6217 0.364746 72.2519 0.39215 72.8548 0.474361C73.4851 0.556573 74.0606 0.666188 74.6361 0.775804C75.1842 0.912823 75.7048 1.04984 76.1981 1.21427C76.6914 1.37869 77.075 1.54311 77.3491 1.70753C77.7327 1.92677 78.0067 2.146 78.1712 2.39263C78.3356 2.61186 78.4178 2.9133 78.4178 3.29696V4.58494C78.4178 5.16042 78.1986 5.46186 77.7875 5.46186C77.5683 5.46186 77.212 5.35225 76.7462 5.13302C75.1842 4.42052 73.4303 4.06427 71.4846 4.06427C69.9226 4.06427 68.6894 4.3109 67.8399 4.83157C66.9904 5.35225 66.5519 6.14696 66.5519 7.27051C66.5519 8.03782 66.826 8.69552 67.3741 9.21619C67.9221 9.73686 68.9361 10.2575 70.3885 10.7234L74.2798 11.9566C76.2529 12.5869 77.6779 13.4638 78.5274 14.5873C79.3769 15.7109 79.788 16.9989 79.788 18.4239C79.788 19.6022 79.5414 20.671 79.0755 21.6027C78.5822 22.5345 77.9245 23.3566 77.075 24.0143C76.2255 24.6994 75.2116 25.1926 74.0332 25.5489C72.8 25.9325 71.512 26.1244 70.1144 26.1244Z" fill="white"/>
<path fill-rule="evenodd" clip-rule="evenodd" d="M75.2912 39.442C66.2753 46.1011 53.1763 49.6362 41.9133 49.6362C26.1287 49.6362 11.9061 43.7992 1.16379 34.0982C0.314272 33.3309 1.08158 32.2896 2.09552 32.8925C13.7148 39.6338 28.047 43.717 42.8724 43.717C52.8748 43.717 63.8638 41.6343 73.9758 37.3593C75.483 36.6742 76.771 38.3458 75.2912 39.442Z" fill="#FF9900"/>
<path fill-rule="evenodd" clip-rule="evenodd" d="M79.0482 35.1673C77.8972 33.6875 71.4299 34.4548 68.4977 34.8111C67.6208 34.9207 67.4838 34.1534 68.2785 33.5779C73.4304 29.9606 81.8982 31.0019 82.8847 32.2077C83.8713 33.4409 82.6107 41.9087 77.7876 45.9644C77.0477 46.5947 76.3352 46.2659 76.6641 45.4438C77.7602 42.7308 80.1992 36.6197 79.0482 35.1673Z" fill="#FF9900"/>
</g>
<defs>
<clipPath id="clip0_738_1690">
<rect width="83.3077" height="49.875" fill="white" transform="translate(0.34613 0.0625)"/>
</clipPath>
</defs>
</svg>
