<svg width="242" height="44" viewBox="0 0 242 44" fill="none" xmlns="http://www.w3.org/2000/svg">
<g style="mix-blend-mode:luminosity" clip-path="url(#clip0_738_1651)">
<path d="M7.36164 7.3336L18.5832 0.856445L29.8048 7.3336L25.6792 9.72643L18.5832 5.64211L11.4872 9.72643L7.36164 7.3336ZM29.8048 15.5022L25.6792 13.1094L18.5832 17.1937L11.4872 13.1094L7.36164 15.5022V20.2879L14.4576 24.3721V32.5408L18.5832 34.9337L22.7088 32.5408V24.3721L29.8048 20.2879V15.5022ZM29.8048 28.4565V23.6709L25.6792 26.0636V30.8493L29.8048 28.4565ZM32.7339 30.148L25.6379 34.2323V39.0179L36.8595 32.5408V19.5865L32.7339 21.9794V30.148ZM28.6084 11.4179L32.7339 13.8107V18.5964L36.8595 16.2036V11.4179L32.7339 9.02508L28.6084 11.4179ZM14.4576 35.9651V40.7508L18.5832 43.1436L22.7088 40.7508V35.9651L18.5832 38.3579L14.4576 35.9651ZM7.36164 28.4565L11.4872 30.8493V26.0636L7.36164 23.6709V28.4565ZM14.4576 11.4179L18.5832 13.8107L22.7088 11.4179L18.5832 9.02508L14.4576 11.4179ZM4.43245 13.8107L8.55803 11.4179L4.43245 9.02508L0.306885 11.4179V16.2036L4.43245 18.5964V13.8107ZM4.43245 21.9794L0.306885 19.5865V32.5408L11.5284 39.0179V34.2323L4.43245 30.148V21.9794Z" fill="white"/>
<path d="M69.3876 27.3878V27.3205C69.3876 24.1602 67.7065 22.5801 64.9834 21.5379C66.6643 20.5966 68.0763 19.1173 68.0763 16.4613V16.3941C68.0763 12.6959 65.1178 10.3088 60.3101 10.3088H49.3837V33.8429H60.5792C65.8911 33.8429 69.3876 31.6912 69.3876 27.3878ZM62.9325 17.3354C62.9325 19.0836 61.4869 19.8233 59.2008 19.8233H54.4268V14.8475H59.537C61.7222 14.8475 62.9325 15.7217 62.9325 17.2682V17.3354ZM64.2437 26.7491C64.2437 28.4973 62.8653 29.3041 60.5792 29.3041H54.4268V24.1267H60.4111C63.0671 24.1267 64.2437 25.1016 64.2437 26.6818V26.7491Z" fill="white"/>
<path d="M94.8865 33.8429V10.3088H89.7761V24.7991L78.7489 10.3088H73.9749V33.8429H79.0851V18.8819L90.4822 33.8429H94.8865Z" fill="white"/>
<path d="M120.882 27.3878V27.3205C120.882 24.1602 119.201 22.5801 116.478 21.5379C118.159 20.5966 119.571 19.1173 119.571 16.4613V16.3941C119.571 12.6959 116.613 10.3088 111.805 10.3088H100.878V33.8429H112.074C117.386 33.8429 120.882 31.6912 120.882 27.3878ZM114.427 17.3354C114.427 19.0836 112.982 19.8233 110.696 19.8233H105.922V14.8475H111.032C113.217 14.8475 114.427 15.7217 114.427 17.2682V17.3354ZM115.738 26.7491C115.738 28.4973 114.36 29.3041 112.074 29.3041H105.922V24.1267H111.906C114.562 24.1267 115.738 25.1016 115.738 26.6818V26.7491Z" fill="white"/>
<path d="M152.098 29.7037L149.442 27.0142C147.425 28.8969 145.576 30.0735 142.684 30.0735C138.179 30.0735 134.918 26.3082 134.918 21.6686C134.918 17.029 138.179 13.3308 142.684 13.3308C145.374 13.3308 147.391 14.5075 149.274 16.2557L151.93 13.1963C149.677 11.0446 147.055 9.53174 142.718 9.53174C135.59 9.53174 130.581 15.0118 130.581 21.7359C130.581 28.527 135.691 33.8726 142.55 33.8726C146.954 33.8726 149.644 32.2589 152.098 29.7037Z" fill="white"/>
<path d="M172.138 23.5272V33.4451H176.273V9.91113H172.138V19.6946H160.909V9.91113H156.774V33.4451H160.909V23.5272H172.138Z" fill="white"/>
<path d="M194.818 9.74951H190.985L180.63 33.4516H184.866L187.287 27.7698H198.416L200.803 33.4516H205.173L194.818 9.74951ZM196.902 24.1052H188.801L192.834 14.6917L196.902 24.1052Z" fill="white"/>
<path d="M209.782 9.91113V33.4451H213.917V9.91113H209.782Z" fill="white"/>
<path d="M236.997 26.1832L224.388 9.91113H220.556V33.4451H224.624V16.7024L237.601 33.4451H241.065V9.91113H236.997V26.1832Z" fill="white"/>
</g>
<defs>
<clipPath id="clip0_738_1651">
<rect width="241.389" height="42.2871" fill="white" transform="translate(0.305542 0.856445)"/>
</clipPath>
</defs>
</svg>
