<svg width="182" height="56" viewBox="0 0 182 56" fill="none" xmlns="http://www.w3.org/2000/svg">
<g style="mix-blend-mode:luminosity" clip-path="url(#clip0_738_1662)">
<path d="M17.6987 40.1549V0.0693359L0.200623 29.6984L17.6987 40.1549Z" fill="#FFE644"/>
<path d="M17.6926 0.0693359L35.1907 29.6984L17.6926 40.1549V0.0693359Z" fill="#EC7463"/>
<path d="M0.200684 31.948L17.6988 42.4045V55.9304" fill="#009ECB"/>
<path d="M35.1907 31.948L17.6926 42.4045V55.9304" fill="#4D68AE"/>
<path d="M17.6988 19.2424L0.200684 29.6981L17.6988 40.1546V19.2424Z" fill="#57A759"/>
<path d="M17.6926 19.2424L35.1907 29.6989L17.6926 40.1554V19.2424Z" fill="#8E5298"/>
<path d="M47.0217 20.6672C47.0009 19.6312 47.2374 18.6062 47.7102 17.6841C48.1467 16.8428 48.816 16.1449 49.6382 15.6736C50.5131 15.1894 51.5007 14.9456 52.5004 14.9671C53.4796 14.9506 54.4445 15.2028 55.2904 15.6964C56.1091 16.186 56.7732 16.8963 57.2066 17.7461C57.6785 18.6759 57.9157 19.7071 57.8974 20.7496V21.6029H49.9224C49.932 21.915 50.0054 22.2218 50.138 22.5045C50.2705 22.7872 50.4595 23.0398 50.6933 23.2467C51.2149 23.6825 51.8811 23.9067 52.5601 23.8748C53.082 23.88 53.5974 23.7582 54.0618 23.5199C54.6281 23.1991 55.1359 22.7844 55.5636 22.2937L57.3691 24.1401C56.7668 24.8152 56.0358 25.3634 55.2189 25.7525C54.3872 26.1432 53.4781 26.3413 52.5593 26.3319C51.546 26.354 50.5446 26.1104 49.6547 25.6254C48.8255 25.1618 48.1486 24.4675 47.7063 23.6267C47.2345 22.7128 46.9992 21.6954 47.0217 20.6672ZM54.9756 19.4896C54.9523 19.2023 54.8707 18.9228 54.7358 18.6681C54.6008 18.4134 54.4153 18.1889 54.1906 18.0083C53.7056 17.6303 53.1093 17.4233 52.4945 17.4196C51.8796 17.4159 51.2808 17.6157 50.7914 17.9879C50.3433 18.3721 50.0494 18.9056 49.964 19.4896H54.9756Z" fill="white"/>
<path d="M66.9679 17.8611V22.1834C66.9547 22.3255 66.9703 22.4687 67.0139 22.6046C67.0575 22.7405 67.1281 22.8661 67.2215 22.9739C67.461 23.1596 67.7621 23.2471 68.0638 23.2189H70.5194V26.019H67.8001C66.8083 26.0827 65.8272 25.7833 65.0399 25.1767C64.7083 24.8741 64.4487 24.501 64.2801 24.0849C64.1115 23.6688 64.0383 23.2203 64.0657 22.7722V17.8611H61.428V15.2635H64.0665V12.5229H66.9711V15.2635H71.1898V17.8611H66.9679Z" fill="white"/>
<path d="M75.131 11.2046H78.0356V16.2578H78.0764C78.7379 15.5758 79.6078 15.1337 80.5487 15.0013C81.4895 14.869 82.4477 15.0539 83.2717 15.5269C83.8885 15.9155 84.3815 16.4722 84.6926 17.1315C85.0434 17.88 85.217 18.6993 85.1997 19.5258V26.0195H82.2951V19.912C82.3304 19.3011 82.1342 18.6993 81.7456 18.2266C81.5547 18.0218 81.3215 17.8612 81.0621 17.756C80.8027 17.6508 80.5234 17.6035 80.2438 17.6174C79.9466 17.6009 79.6491 17.6455 79.3698 17.7487C79.0906 17.8519 78.8355 18.0113 78.6204 18.2172C78.4168 18.4396 78.2598 18.7005 78.1587 18.9846C78.0575 19.2687 78.0144 19.5702 78.0317 19.8712V26.0203H75.1271L75.131 11.2046Z" fill="white"/>
<path d="M88.4182 20.6672C88.3973 19.631 88.6344 18.6059 89.1083 17.6841C89.5444 16.8426 90.2138 16.1446 91.0363 15.6737C91.9108 15.1893 92.8982 14.9455 93.8977 14.9672C94.8769 14.9505 95.8419 15.2027 96.6876 15.6964C97.5066 16.1862 98.1712 16.8965 98.6054 17.7461C99.0765 18.6762 99.3134 19.7072 99.2955 20.7496V21.6029H91.3228C91.332 21.9151 91.4051 22.2221 91.5377 22.5048C91.6703 22.7876 91.8596 23.0401 92.0937 23.2468C92.615 23.6827 93.281 23.9068 93.9597 23.8748C94.4816 23.88 94.997 23.7583 95.4614 23.52C96.0282 23.1994 96.5363 22.7848 96.964 22.2938L98.7695 24.1401C98.1669 24.8153 97.4356 25.3634 96.6186 25.7526C95.7869 26.1435 94.8778 26.3415 93.9589 26.3319C92.9456 26.3544 91.9441 26.1108 91.0543 25.6254C90.2248 25.1621 89.5479 24.4677 89.1059 23.6267C88.6326 22.7133 88.3961 21.6957 88.4182 20.6672ZM96.3729 19.4897C96.3496 19.2023 96.268 18.9228 96.133 18.6681C95.998 18.4134 95.8125 18.1889 95.5878 18.0083C95.1029 17.6303 94.5066 17.4234 93.8917 17.4197C93.2769 17.416 92.6781 17.6158 92.1887 17.9879C91.7389 18.3714 91.4432 18.9049 91.3566 19.4897H96.3729Z" fill="white"/>
<path d="M103.527 15.2688H106.307V16.2619H106.348C106.745 15.8339 107.23 15.4965 107.769 15.2725C108.308 15.0486 108.89 14.9435 109.473 14.9642C110.35 14.9447 111.205 15.2358 111.888 15.7862C112.585 16.3658 113.082 17.1502 113.309 18.0282L110.589 18.9207C110.467 18.5135 110.209 18.1603 109.859 17.9201C109.508 17.6798 109.085 17.567 108.661 17.6003C108.354 17.5791 108.046 17.6255 107.759 17.7362C107.472 17.8468 107.212 18.0191 106.999 18.2409C106.596 18.7339 106.393 19.36 106.43 19.9954V26.0236H103.525L103.527 15.2688Z" fill="white"/>
<path d="M116.015 20.6672C115.994 19.631 116.231 18.606 116.705 17.6841C117.141 16.8428 117.81 16.1449 118.633 15.6736C119.507 15.1895 120.495 14.9457 121.494 14.9671C122.473 14.9503 123.438 15.2026 124.284 15.6964C125.103 16.1858 125.768 16.8962 126.203 17.7461C126.673 18.6763 126.909 19.7073 126.891 20.7496V21.6029H118.918C118.927 21.915 119 22.222 119.132 22.5047C119.264 22.7875 119.454 23.0401 119.688 23.2467C120.209 23.6827 120.875 23.9069 121.554 23.8748C122.076 23.88 122.592 23.7582 123.056 23.5199C123.623 23.199 124.13 22.7844 124.558 22.2937L126.364 24.1401C125.761 24.8157 125.03 25.364 124.213 25.7525C123.381 26.1433 122.473 26.3413 121.554 26.3319C120.541 26.3541 119.54 26.1105 118.65 25.6254C117.821 25.1618 117.144 24.4675 116.701 23.6267C116.229 22.713 115.993 21.6956 116.015 20.6672ZM123.969 19.4896C123.946 19.2023 123.864 18.9227 123.729 18.668C123.594 18.4133 123.409 18.1888 123.184 18.0083C122.699 17.6303 122.103 17.4233 121.488 17.4196C120.873 17.4159 120.274 17.6157 119.785 17.9879C119.336 18.372 119.041 18.9052 118.953 19.4896H123.969Z" fill="white"/>
<path d="M130.428 22.3641V15.2612H133.332V21.6984C133.292 21.9644 133.315 22.236 133.398 22.4918C133.481 22.7475 133.623 22.9802 133.813 23.1713C134.002 23.3625 134.233 23.5068 134.488 23.5927C134.743 23.6787 135.014 23.7039 135.281 23.6665C135.537 23.6787 135.794 23.6372 136.033 23.5446C136.273 23.452 136.49 23.3103 136.672 23.1287C136.848 22.9361 136.984 22.7106 137.073 22.4652C137.162 22.2197 137.201 21.9591 137.189 21.6984V15.2612H140.094V26.016H137.313V25.063H137.272C136.946 25.4648 136.523 25.7787 136.045 25.976C135.292 26.2931 134.466 26.3956 133.658 26.272C132.851 26.1484 132.093 25.8035 131.469 25.2757C131.109 24.8854 130.831 24.4264 130.652 23.9261C130.473 23.4258 130.397 22.8945 130.428 22.3641Z" fill="white"/>
<path d="M143.306 15.2663H145.864V16.1997H145.905C146.121 15.847 146.424 15.5567 146.786 15.3573C147.151 15.1592 147.56 15.0576 147.975 15.0622C148.392 15.0615 148.802 15.1721 149.162 15.3825C149.522 15.5929 149.819 15.8956 150.023 16.2593H150.064C150.3 15.8831 150.631 15.5749 151.022 15.365C151.414 15.1551 151.853 15.0507 152.297 15.0622C152.657 15.0501 153.015 15.1186 153.345 15.2627C153.674 15.4068 153.968 15.6229 154.203 15.8951C154.71 16.5018 154.971 17.2761 154.935 18.0656V26.0218H152.26V18.5743C152.268 18.4463 152.251 18.3178 152.209 18.1965C152.168 18.0752 152.102 17.9634 152.016 17.8678C151.924 17.7828 151.815 17.7173 151.696 17.6752C151.578 17.6331 151.452 17.6153 151.326 17.6229C151.2 17.6175 151.074 17.6392 150.956 17.6866C150.839 17.734 150.733 17.8059 150.646 17.8977C150.469 18.1029 150.378 18.3683 150.393 18.6387V26.025H147.856V18.5743C147.87 18.3194 147.786 18.0689 147.621 17.8741C147.536 17.7868 147.433 17.7189 147.319 17.6749C147.205 17.6309 147.083 17.6118 146.962 17.619C146.831 17.6133 146.701 17.6348 146.579 17.6821C146.458 17.7294 146.347 17.8015 146.255 17.8937C146.164 17.9936 146.094 18.1105 146.048 18.2377C146.003 18.3649 145.983 18.4999 145.99 18.6348V26.0211H143.312L143.306 15.2663Z" fill="white"/>
<path d="M50.2705 40.4791H47.4295V37.8814H50.2705V36.298C50.2502 35.8777 50.3243 35.4582 50.4873 35.0702C50.6503 34.6823 50.8981 34.3357 51.2125 34.056C51.9516 33.4716 52.8797 33.1791 53.8204 33.2341H56.9455V35.8113H54.1666C54.0488 35.8032 53.9305 35.8186 53.8188 35.8568C53.707 35.8949 53.604 35.955 53.5158 36.0335C53.4385 36.1179 53.3789 36.217 53.3406 36.3249C53.3023 36.4328 53.2861 36.5472 53.2928 36.6615V37.8791H57.5987V40.4791H53.2928V47.4398H50.2705V40.4791Z" fill="white"/>
<path d="M60.826 42.0628C60.8064 41.0366 61.0436 40.0216 61.516 39.1104C61.958 38.2701 62.6303 37.5732 63.4542 37.1015C64.3339 36.6288 65.317 36.3813 66.3156 36.3813C67.3143 36.3813 68.2974 36.6288 69.1771 37.1015C70.001 37.5732 70.6733 38.2701 71.1153 39.1104C71.5691 40.0284 71.8052 41.0387 71.8052 42.0628C71.8052 43.0869 71.5691 44.0973 71.1153 45.0153C70.6736 45.8556 70.0012 46.5523 69.1771 47.0234C68.2974 47.4961 67.3143 47.7436 66.3156 47.7436C65.317 47.7436 64.3339 47.4961 63.4542 47.0234C62.6289 46.5528 61.9554 45.856 61.5129 45.0153C61.0416 44.1037 60.8055 43.0888 60.826 42.0628ZM68.9023 42.0628C68.9496 41.2642 68.7083 40.4752 68.2225 39.8397C67.9839 39.5693 67.687 39.3566 67.3542 39.2178C67.0215 39.079 66.6615 39.0175 66.3015 39.0382C65.9452 39.0193 65.5892 39.0816 65.2606 39.2205C64.9319 39.3593 64.639 39.5711 64.4041 39.8397C63.9182 40.4752 63.677 41.2642 63.7243 42.0628C63.6767 42.8612 63.918 43.6501 64.4041 44.2852C64.6516 44.5397 64.9478 44.7418 65.275 44.8795C65.6022 45.0172 65.9538 45.0876 66.3088 45.0867C66.6638 45.0857 67.015 45.0134 67.3414 44.874C67.6679 44.7345 67.963 44.5308 68.2091 44.275C68.6998 43.6456 68.9461 42.8598 68.9023 42.0628Z" fill="white"/>
<path d="M75.2242 43.785V36.6829H78.1287V43.12C78.0895 43.3857 78.1128 43.6568 78.1966 43.9118C78.2805 44.1669 78.4227 44.3989 78.6119 44.5894C78.8011 44.7799 79.0321 44.9237 79.2866 45.0093C79.5411 45.0949 79.8121 45.12 80.078 45.0826C80.3344 45.0949 80.5906 45.0535 80.83 44.9609C81.0694 44.8683 81.2868 44.7265 81.4682 44.5449C81.6446 44.3524 81.7812 44.1269 81.87 43.8814C81.9588 43.636 81.998 43.3753 81.9856 43.1145V36.6829H84.8901V47.4377H82.1072V46.4854H82.0664C81.7389 46.8864 81.3171 47.1998 80.8386 47.3976C80.2399 47.729 79.5625 47.892 78.8785 47.8693C78.1946 47.8466 77.5295 47.639 76.954 47.2687C76.3785 46.8983 75.9141 46.379 75.6101 45.7659C75.3061 45.1528 75.1738 44.4688 75.2273 43.7865L75.2242 43.785Z" fill="white"/>
<path d="M88.9228 36.6866H91.8274V37.7016H91.8666C92.2694 37.2903 92.7444 36.9566 93.2679 36.7172C93.8059 36.4861 94.3868 36.3718 94.9722 36.382C95.6593 36.3783 96.3362 36.549 96.9395 36.8781C97.5697 37.2323 98.0842 37.7612 98.4208 38.401C98.8242 39.1876 99.0201 40.0642 98.9899 40.9477V47.4413H96.0853V41.3331C96.1141 40.7331 95.927 40.1427 95.5578 39.6689C95.3685 39.4554 95.133 39.2878 94.8693 39.179C94.6055 39.0702 94.3204 39.0229 94.0357 39.0408C93.7384 39.0241 93.4408 39.0687 93.1616 39.1718C92.8823 39.275 92.6272 39.4346 92.4122 39.6406C92.2086 39.863 92.0516 40.124 91.9505 40.408C91.8494 40.6921 91.8062 40.9936 91.8235 41.2946V47.4437H88.9189L88.9228 36.6866Z" fill="white"/>
<path d="M101.991 42.0591C101.974 41.05 102.189 40.0505 102.619 39.1372C103.005 38.3087 103.617 37.6056 104.384 37.1079C105.153 36.6174 106.049 36.3633 106.961 36.3771C108.006 36.316 109.033 36.6656 109.823 37.3513H109.864V32.6223H112.768V47.4372H110.09V46.5038H110.049C109.643 46.9164 109.155 47.2395 108.617 47.4525C108.079 47.6654 107.502 47.7634 106.924 47.7403C106.025 47.7546 105.14 47.5093 104.377 47.0337C103.615 46.5475 103.006 45.8546 102.622 45.0359C102.186 44.1052 101.97 43.0866 101.991 42.0591ZM109.864 42.7475V41.3494C109.865 40.9472 109.753 40.5529 109.539 40.2119C109.317 39.8553 109.006 39.5622 108.637 39.3609C108.243 39.1418 107.798 39.0295 107.348 39.0352C107.005 39.0212 106.663 39.0884 106.351 39.2314C106.039 39.3743 105.765 39.589 105.551 39.8579C105.119 40.5097 104.889 41.2751 104.891 42.0575C104.893 42.8398 105.126 43.6041 105.562 44.254C105.77 44.5221 106.038 44.7372 106.345 44.882C106.651 45.0267 106.988 45.0969 107.327 45.0869C107.999 45.109 108.652 44.8646 109.145 44.4071C109.375 44.1977 109.559 43.9416 109.683 43.6557C109.807 43.3698 109.869 43.0607 109.864 42.7491V42.7475Z" fill="white"/>
<path d="M116.681 44.5571C116.658 44.1151 116.739 43.6739 116.917 43.2686C117.095 42.8634 117.365 42.5054 117.706 42.2232C118.727 41.5402 119.903 41.1218 121.126 41.0056C121.717 40.9403 122.295 40.7863 122.84 40.5488C122.973 40.4908 123.087 40.396 123.168 40.2756C123.248 40.1551 123.293 40.014 123.297 39.8689C123.298 39.7122 123.257 39.558 123.179 39.4225C123.1 39.2869 122.987 39.1748 122.85 39.098C122.479 38.8903 122.057 38.7918 121.632 38.8139C121.081 38.8024 120.545 38.9897 120.12 39.3414C119.691 39.6979 119.401 40.1934 119.299 40.7419L116.6 40.1327C116.729 39.4147 117.044 38.743 117.513 38.1843C117.996 37.6084 118.608 37.1533 119.299 36.8552C120.034 36.5336 120.83 36.3712 121.632 36.3787C122.843 36.3176 124.03 36.7314 124.94 37.5319C125.355 37.9284 125.68 38.4089 125.893 38.9411C126.107 39.4733 126.204 40.045 126.178 40.6178V47.4365H123.582V46.2409H123.542C123.218 46.725 122.764 47.1082 122.233 47.347C121.637 47.617 120.989 47.7511 120.336 47.7396C119.685 47.751 119.04 47.6124 118.451 47.3345C117.92 47.0851 117.47 46.6912 117.151 46.1978C116.839 45.7081 116.675 45.138 116.681 44.5571ZM123.418 43.4408V42.2232H123.379C123.233 42.4454 123.02 42.6157 122.771 42.7099C122.336 42.8737 121.887 42.996 121.43 43.075C120.885 43.163 120.358 43.3374 119.868 43.5915C119.735 43.6692 119.626 43.7808 119.551 43.9148C119.476 44.0487 119.438 44.2003 119.441 44.3538C119.436 44.4942 119.468 44.6336 119.534 44.7577C119.6 44.8818 119.697 44.9862 119.817 45.0603C120.148 45.2424 120.525 45.3268 120.902 45.3036C121.328 45.3052 121.75 45.2183 122.14 45.0485C122.504 44.9014 122.825 44.6652 123.074 44.3616C123.291 44.1036 123.413 43.7783 123.419 43.4408H123.418Z" fill="white"/>
<path d="M135.964 39.2822V43.6045C135.951 43.7465 135.966 43.8898 136.01 44.0257C136.053 44.1616 136.124 44.2872 136.217 44.395C136.456 44.581 136.758 44.6686 137.059 44.64H139.515V47.4401H136.796C135.804 47.5039 134.824 47.2044 134.037 46.5978C133.705 46.2952 133.446 45.9222 133.277 45.5061C133.108 45.09 133.035 44.6414 133.062 44.1933V39.2822H130.425V36.6845H133.062V33.9448H135.967V36.6845H140.186V39.2822H135.964Z" fill="white"/>
<path d="M154.388 44.778V47.4361H143.816V44.778H147.652V39.3394H144.016V36.6805H150.552V44.778H154.388ZM147.59 32.1392H150.573V34.999H147.59V32.1392Z" fill="white"/>
<path d="M157.411 42.0628C157.391 41.0368 157.628 40.022 158.099 39.1104C158.542 38.2703 159.214 37.5736 160.038 37.1015C160.918 36.6288 161.901 36.3813 162.9 36.3813C163.898 36.3813 164.881 36.6288 165.761 37.1015C166.585 37.5732 167.257 38.2701 167.699 39.1104C168.152 40.0286 168.388 41.0389 168.388 42.0628C168.388 43.0868 168.152 44.097 167.699 45.0153C167.258 45.8556 166.585 46.5523 165.761 47.0234C164.881 47.4961 163.898 47.7436 162.9 47.7436C161.901 47.7436 160.918 47.4961 160.038 47.0234C159.214 46.552 158.542 45.8554 158.099 45.0153C157.628 44.1037 157.391 43.0889 157.411 42.0628ZM165.487 42.0628C165.534 41.2642 165.293 40.4752 164.807 39.8397C164.569 39.5697 164.272 39.3574 163.94 39.2186C163.608 39.0797 163.248 39.0181 162.889 39.0382C162.533 39.0194 162.177 39.0818 161.848 39.2207C161.52 39.3595 161.227 39.5712 160.992 39.8397C160.506 40.475 160.264 41.2642 160.312 42.0628C160.264 42.8613 160.506 43.6503 160.992 44.2852C161.24 44.5397 161.536 44.7418 161.863 44.8795C162.19 45.0172 162.542 45.0876 162.897 45.0867C163.252 45.0857 163.603 45.0134 163.929 44.874C164.256 44.7345 164.551 44.5308 164.797 44.275C165.287 43.6452 165.532 42.8594 165.487 42.0628Z" fill="white"/>
<path d="M171.724 36.6865H174.628V37.7016H174.669C175.071 37.29 175.546 36.9563 176.069 36.7172C176.607 36.4862 177.188 36.3719 177.774 36.382C178.461 36.3782 179.138 36.5489 179.742 36.8781C180.372 37.2323 180.887 37.7612 181.223 38.401C181.626 39.1877 181.822 40.0642 181.792 40.9476V47.4413H178.887V41.3331C178.916 40.733 178.729 40.1423 178.359 39.6688C178.17 39.4553 177.935 39.2877 177.671 39.1788C177.407 39.07 177.122 39.0228 176.837 39.0408C176.54 39.0242 176.242 39.0689 175.963 39.1721C175.684 39.2753 175.429 39.4347 175.214 39.6406C175.01 39.863 174.853 40.1239 174.752 40.408C174.651 40.6921 174.608 40.9936 174.625 41.2946V47.4437H171.72L171.724 36.6865Z" fill="white"/>
</g>
<defs>
<clipPath id="clip0_738_1662">
<rect width="181.583" height="55.8613" fill="white" transform="translate(0.208374 0.0693359)"/>
</clipPath>
</defs>
</svg>
