<svg width="406" height="104" viewBox="0 0 406 104" fill="none" xmlns="http://www.w3.org/2000/svg">
<g clip-path="url(#clip0_1947_871)">
<path d="M68.1451 39.0554H70.1094L75.7076 33.4572L75.9826 31.0804C72.7756 28.2498 68.8999 26.2835 64.7216 25.3672C60.5434 24.4509 56.2005 24.6149 52.1033 25.8436C48.006 27.0724 44.2897 29.3254 41.3052 32.3898C38.3208 35.4543 36.1669 39.2289 35.0469 43.3572C35.6705 43.1016 36.3614 43.0601 37.0112 43.2394L48.2076 41.3929C48.2076 41.3929 48.7772 40.4501 49.0719 40.509C51.4709 37.8742 54.7863 36.2561 58.3394 35.9859C61.8925 35.7157 65.4145 36.8138 68.1844 39.0554H68.1451Z" fill="#EA4335"/>
<path d="M83.6891 43.3571C82.4023 38.6185 79.7603 34.3586 76.0873 31.1L68.2301 38.9571C69.8676 40.2951 71.1799 41.9875 72.068 43.9066C72.9561 45.8257 73.3968 47.9214 73.3569 50.0357V51.4303C74.2752 51.4303 75.1846 51.6112 76.033 51.9626C76.8814 52.3141 77.6523 52.8291 78.3016 53.4785C78.951 54.1278 79.4661 54.8987 79.8175 55.7471C80.1689 56.5956 80.3498 57.5049 80.3498 58.4232C80.3498 59.3415 80.1689 60.2508 79.8175 61.0992C79.4661 61.9477 78.951 62.7185 78.3016 63.3679C77.6523 64.0172 76.8814 64.5323 76.033 64.8837C75.1846 65.2352 74.2752 65.416 73.3569 65.416H59.3712L57.9766 66.8303V75.2178L59.3712 76.6125H73.3569C77.2624 76.6429 81.0739 75.4154 84.2277 73.1117C87.3815 70.8079 89.71 67.5502 90.8688 63.8205C92.0276 60.0908 91.9551 56.0872 90.6621 52.4018C89.369 48.7165 86.9242 45.5452 83.6891 43.3571Z" fill="#4285F4"/>
<path d="M45.3632 76.5339H59.3489V65.3374H45.3632C44.3668 65.3372 43.382 65.1228 42.4757 64.7089L40.5114 65.3178L34.8739 70.916L34.3828 72.8803C37.5442 75.2675 41.4018 76.5511 45.3632 76.5339Z" fill="#34A853"/>
<path d="M45.3658 40.2142C41.5763 40.2369 37.8886 41.4425 34.8176 43.6627C31.7466 45.883 29.4457 49.0069 28.2363 52.5983C27.0269 56.1897 26.9694 60.0691 28.0719 63.6947C29.1743 67.3203 31.3816 70.5111 34.3854 72.8214L42.4979 64.7089C41.467 64.2431 40.5645 63.5342 39.8678 62.6429C39.171 61.7516 38.701 60.7046 38.4979 59.5918C38.2947 58.4789 38.3647 57.3333 38.7016 56.2534C39.0385 55.1735 39.6325 54.1915 40.4324 53.3915C41.2323 52.5916 42.2144 51.9977 43.2943 51.6607C44.3742 51.3238 45.5197 51.2539 46.6326 51.457C47.7455 51.6601 48.7925 52.1302 49.6837 52.8269C50.575 53.5236 51.2839 54.4262 51.7497 55.4571L59.8622 47.3446C58.1595 45.1186 55.9649 43.3166 53.4501 42.0797C50.9352 40.8427 48.1683 40.2042 45.3658 40.2142Z" fill="#FBBC05"/>
<path d="M128.918 68.7161C126.51 68.7467 124.121 68.2911 121.893 67.3764C119.666 66.4617 117.646 65.1068 115.954 63.3928C114.209 61.7516 112.825 59.7657 111.888 57.561C110.951 55.3563 110.483 52.9809 110.513 50.5857C110.484 48.1906 110.953 45.8157 111.89 43.6112C112.826 41.4066 114.21 39.4205 115.954 37.7786C117.637 36.0468 119.654 34.6738 121.882 33.742C124.11 32.8103 126.503 32.3392 128.918 32.3571C131.219 32.3265 133.504 32.7535 135.638 33.6134C137.773 34.4733 139.715 35.7489 141.352 37.3661L137.856 40.9214C135.462 38.6074 132.248 37.3361 128.918 37.3857C127.191 37.3645 125.479 37.7028 123.889 38.3791C122.3 39.0555 120.869 40.055 119.686 41.3143C118.458 42.5333 117.488 43.9883 116.837 45.5918C116.185 47.1953 115.865 48.9141 115.895 50.6446C115.881 52.3554 116.209 54.0518 116.86 55.634C117.511 57.2161 118.472 58.652 119.686 59.8571C122.119 62.2813 125.401 63.6603 128.835 63.7006C132.269 63.741 135.583 62.4395 138.072 60.0732C139.613 58.3859 140.558 56.24 140.763 53.9643H128.977V48.9357H145.654C145.818 49.9484 145.884 50.9746 145.851 52C145.954 54.1222 145.627 56.2434 144.887 58.2354C144.148 60.2274 143.012 62.0487 141.549 63.5893C139.922 65.2832 137.956 66.6152 135.78 67.4986C133.604 68.3819 131.266 68.7968 128.918 68.7161ZM167.693 65.3768C165.455 67.5221 162.475 68.7199 159.375 68.7199C156.274 68.7199 153.294 67.5221 151.056 65.3768C149.942 64.2967 149.065 62.9968 148.48 61.5597C147.895 60.1226 147.615 58.5796 147.658 57.0286C147.616 55.4777 147.896 53.935 148.481 52.4981C149.066 51.0611 149.943 49.7612 151.056 48.6803C153.296 46.5395 156.276 45.3448 159.375 45.3448C162.474 45.3448 165.453 46.5395 167.693 48.6803C168.806 49.7612 169.683 51.0611 170.268 52.4981C170.853 53.935 171.133 55.4777 171.092 57.0286C171.132 58.581 170.849 60.1249 170.261 61.5621C169.672 62.9993 168.791 64.2984 167.674 65.3768H167.693ZM154.729 62.0964C155.324 62.7322 156.044 63.2389 156.843 63.5854C157.642 63.9319 158.504 64.1106 159.375 64.1106C160.246 64.1106 161.107 63.9319 161.906 63.5854C162.705 63.2389 163.425 62.7322 164.02 62.0964C164.669 61.4256 165.178 60.6315 165.515 59.7611C165.852 58.8908 166.012 57.9616 165.985 57.0286C166.013 56.0924 165.855 55.1598 165.517 54.286C165.18 53.4122 164.671 52.6149 164.02 51.9411C163.417 51.3118 162.693 50.8111 161.891 50.4691C161.089 50.127 160.227 49.9507 159.355 49.9507C158.483 49.9507 157.621 50.127 156.819 50.4691C156.017 50.8111 155.293 51.3118 154.69 51.9411C154.039 52.6149 153.53 53.4122 153.193 54.286C152.856 55.1598 152.697 56.0924 152.726 57.0286C152.701 57.963 152.864 58.893 153.204 59.7634C153.545 60.6339 154.057 61.4272 154.71 62.0964H154.729ZM193.268 65.3768C191.03 67.5221 188.05 68.7199 184.95 68.7199C181.849 68.7199 178.869 67.5221 176.631 65.3768C175.517 64.2967 174.64 62.9968 174.055 61.5597C173.47 60.1226 173.19 58.5796 173.233 57.0286C173.191 55.4777 173.471 53.935 174.056 52.4981C174.641 51.0611 175.518 49.7612 176.631 48.6803C178.869 46.535 181.849 45.3372 184.95 45.3372C188.05 45.3372 191.03 46.535 193.268 48.6803C194.381 49.7612 195.258 51.0611 195.843 52.4981C196.428 53.935 196.708 55.4777 196.667 57.0286C196.71 58.5796 196.43 60.1226 195.845 61.5597C195.26 62.9968 194.382 64.2967 193.268 65.3768ZM180.304 62.0964C180.899 62.7322 181.619 63.2389 182.418 63.5854C183.217 63.9319 184.079 64.1106 184.95 64.1106C185.821 64.1106 186.682 63.9319 187.481 63.5854C188.28 63.2389 189 62.7322 189.595 62.0964C190.244 61.4256 190.753 60.6315 191.09 59.7611C191.427 58.8908 191.587 57.9616 191.56 57.0286C191.588 56.0924 191.43 55.1598 191.092 54.286C190.755 53.4122 190.246 52.6149 189.595 51.9411C188.992 51.3118 188.268 50.8111 187.466 50.4691C186.664 50.127 185.802 49.9507 184.93 49.9507C184.058 49.9507 183.196 50.127 182.394 50.4691C181.592 50.8111 180.868 51.3118 180.265 51.9411C179.614 52.6149 179.105 53.4122 178.768 54.286C178.431 55.1598 178.272 56.0924 178.301 57.0286C178.276 57.963 178.439 58.893 178.779 59.7634C179.12 60.6339 179.632 61.4272 180.285 62.0964H180.304ZM210.083 79.2053C207.728 79.2802 205.42 78.5453 203.542 77.1232C201.874 75.8698 200.561 74.2047 199.731 72.2911L204.21 70.425C204.697 71.5686 205.459 72.574 206.429 73.3518C207.467 74.1885 208.77 74.6273 210.102 74.5893C210.947 74.6407 211.794 74.5094 212.583 74.2043C213.373 73.8993 214.088 73.4276 214.679 72.8214C215.863 71.3939 216.447 69.5634 216.309 67.7143V66.025H216.133C215.384 66.914 214.439 67.6165 213.372 68.0768C212.305 68.5371 211.145 68.7425 209.984 68.6768C208.51 68.6812 207.05 68.3798 205.698 67.7915C204.345 67.2032 203.13 66.3409 202.127 65.2589C201.04 64.1856 200.182 62.9028 199.604 61.4881C199.027 60.0734 198.742 58.5563 198.768 57.0286C198.741 55.4919 199.025 53.9656 199.602 52.5412C200.179 51.1168 201.038 49.8236 202.127 48.7393C203.127 47.6528 204.342 46.7862 205.694 46.1944C207.047 45.6026 208.508 45.2986 209.984 45.3018C211.234 45.2996 212.468 45.5746 213.599 46.1071C214.577 46.5342 215.448 47.1713 216.152 47.9732H216.329V46.1071H221.201V67.0268C221.329 68.6816 221.118 70.3453 220.581 71.9158C220.044 73.4864 219.192 74.9308 218.077 76.1607C217.016 77.1764 215.761 77.9691 214.388 78.4921C213.015 79.015 211.551 79.2575 210.083 79.2053ZM210.436 64.1196C211.275 64.1381 212.108 63.9716 212.875 63.6322C213.642 63.2927 214.325 62.7885 214.876 62.1553C216.088 60.7665 216.726 58.969 216.663 57.1268C216.736 55.2535 216.097 53.422 214.876 52C214.326 51.3658 213.643 50.8609 212.876 50.5213C212.108 50.1817 211.275 50.0159 210.436 50.0357C209.575 50.018 208.719 50.184 207.926 50.5227C207.134 50.8614 206.423 51.365 205.84 52C204.541 53.3709 203.835 55.1991 203.876 57.0875C203.856 58.0137 204.019 58.9348 204.356 59.7978C204.693 60.6607 205.197 61.4486 205.84 62.1161C206.42 62.7572 207.13 63.2674 207.922 63.6129C208.715 63.9584 209.572 64.1311 210.436 64.1196ZM229.863 33.6732V68.0089H224.736V33.6732H229.863ZM243.927 68.7161C242.392 68.7555 240.865 68.4776 239.442 67.8996C238.019 67.3216 236.731 66.4561 235.658 65.3571C234.569 64.2663 233.713 62.9655 233.143 61.5338C232.572 60.1021 232.298 58.5693 232.338 57.0286C232.28 55.484 232.534 53.9437 233.084 52.4992C233.634 51.0548 234.469 49.736 235.54 48.6214C236.549 47.5577 237.769 46.7164 239.122 46.1516C240.475 45.5867 241.931 45.3106 243.397 45.3411C244.745 45.3268 246.082 45.5875 247.326 46.1071C248.446 46.5594 249.467 47.2267 250.331 48.0714C251.073 48.7875 251.732 49.5848 252.295 50.4482C252.751 51.1772 253.139 51.9465 253.454 52.7464L253.984 54.0821L238.27 60.5446C238.745 61.6366 239.54 62.5589 240.55 63.1901C241.56 63.8213 242.738 64.1317 243.927 64.0803C245.085 64.0835 246.224 63.7866 247.232 63.2186C248.241 62.6505 249.085 61.8308 249.683 60.8393L253.611 63.4911C252.609 64.9254 251.326 66.1416 249.84 67.0661C248.073 68.1825 246.017 68.7562 243.927 68.7161ZM237.367 56.675L247.817 52.3339C247.495 51.5685 246.919 50.9373 246.186 50.5464C245.366 50.0831 244.437 49.8459 243.495 49.8589C241.897 49.9003 240.379 50.5709 239.272 51.725C238.61 52.3589 238.095 53.1313 237.766 53.987C237.437 54.8427 237.3 55.7605 237.367 56.675Z" fill="white"/>
<path d="M280.836 68.7161C278.656 68.7537 276.49 68.3504 274.47 67.5303C272.449 66.7102 270.615 65.4903 269.078 63.9437C267.54 62.3972 266.331 60.5559 265.523 58.5305C264.715 56.5051 264.325 54.3372 264.375 52.1572C264.325 49.9771 264.715 47.8092 265.523 45.7838C266.331 43.7584 267.54 41.9171 269.078 40.3706C270.615 38.824 272.449 37.6041 274.47 36.784C276.49 35.9639 278.656 35.5606 280.836 35.5982C283.043 35.5292 285.237 35.9598 287.254 36.8578C289.271 37.7557 291.059 39.0979 292.484 40.7839L289.656 43.5339C288.609 42.2177 287.267 41.1669 285.738 40.4672C284.209 39.7675 282.536 39.4386 280.856 39.5072C279.238 39.4707 277.63 39.7617 276.128 40.3625C274.626 40.9634 273.261 41.8617 272.115 43.0036C270.923 44.2018 269.992 45.6335 269.38 47.2088C268.768 48.784 268.489 50.4687 268.559 52.1572C268.489 53.8456 268.768 55.5303 269.38 57.1055C269.992 58.6808 270.923 60.1125 272.115 61.3107C273.261 62.4526 274.626 63.3509 276.128 63.9518C277.63 64.5526 279.238 64.8436 280.856 64.8072C282.733 64.8282 284.591 64.4259 286.291 63.6301C287.992 62.8343 289.491 61.6656 290.677 60.2107L293.506 63.0393C292.025 64.8103 290.165 66.2266 288.065 67.1839C285.8 68.2294 283.33 68.753 280.836 68.7161Z" fill="white"/>
<path d="M301.109 68.0089H297.043V36.2857H301.109V68.0089Z" fill="white"/>
<path d="M307.75 48.9161C309.88 46.8001 312.761 45.6126 315.764 45.6126C318.767 45.6126 321.648 46.8001 323.778 48.9161C324.82 50.0161 325.634 51.3113 326.174 52.7272C326.713 54.1431 326.967 55.6516 326.921 57.1661C326.967 58.6805 326.713 60.189 326.174 61.6049C325.634 63.0208 324.82 64.316 323.778 65.4161C321.648 67.532 318.767 68.7195 315.764 68.7195C312.761 68.7195 309.88 67.532 307.75 65.4161C306.708 64.316 305.894 63.0208 305.354 61.6049C304.815 60.189 304.561 58.6805 304.607 57.1661C304.561 55.6516 304.815 54.1431 305.354 52.7272C305.894 51.3113 306.708 50.0161 307.75 48.9161ZM310.775 62.8625C311.415 63.5395 312.187 64.0788 313.044 64.4474C313.9 64.816 314.822 65.0061 315.754 65.0061C316.686 65.0061 317.609 64.816 318.465 64.4474C319.321 64.0788 320.093 63.5395 320.734 62.8625C321.444 62.0999 321.996 61.2035 322.357 60.2255C322.718 59.2475 322.88 58.2075 322.835 57.1661C322.88 56.1246 322.718 55.0846 322.357 54.1066C321.996 53.1286 321.444 52.2322 320.734 51.4696C320.093 50.7926 319.321 50.2533 318.465 49.8847C317.609 49.5161 316.686 49.326 315.754 49.326C314.822 49.326 313.9 49.5161 313.044 49.8847C312.187 50.2533 311.415 50.7926 310.775 51.4696C310.064 52.2322 309.512 53.1286 309.151 54.1066C308.79 55.0846 308.628 56.1246 308.673 57.1661C308.633 58.2056 308.8 59.2427 309.164 60.2172C309.528 61.1917 310.083 62.0842 310.794 62.8428L310.775 62.8625Z" fill="white"/>
<path d="M349.456 68.0089H345.528V65.0035H345.41C344.711 66.145 343.721 67.0804 342.542 67.7143C341.319 68.4233 339.93 68.796 338.515 68.7946C337.367 68.8731 336.216 68.6914 335.148 68.2628C334.08 67.8342 333.123 67.17 332.348 66.3196C330.86 64.4375 330.112 62.0759 330.246 59.6803V46.3232H334.312V58.9339C334.312 62.9803 336.099 65.0035 339.674 65.0035C340.469 65.0283 341.257 64.863 341.975 64.5213C342.692 64.1796 343.318 63.6715 343.799 63.0393C344.853 61.7036 345.415 60.0458 345.39 58.3446V46.3232H349.456V68.0089Z" fill="white"/>
<path d="M363.258 68.7161C361.879 68.7206 360.515 68.4263 359.26 67.8532C358.006 67.2801 356.89 66.442 355.99 65.3964C353.954 63.1472 352.863 60.1991 352.946 57.1661C352.863 54.133 353.954 51.185 355.99 48.9357C356.89 47.8902 358.006 47.052 359.26 46.4789C360.515 45.9059 361.879 45.6115 363.258 45.6161C364.804 45.5917 366.33 45.9564 367.698 46.6768C368.899 47.2814 369.917 48.1971 370.644 49.3286H370.821L370.644 46.3232V36.2857H374.71V68.0089H370.781V65.0036H370.605C369.877 66.135 368.86 67.0507 367.658 67.6553C366.303 68.3693 364.79 68.7339 363.258 68.7161ZM363.926 65.0036C364.845 65.0169 365.757 64.8347 366.6 64.469C367.443 64.1032 368.199 63.5623 368.817 62.8821C370.198 61.3094 370.904 59.2556 370.781 57.1661C370.904 55.0765 370.198 53.0227 368.817 51.45C368.195 50.7661 367.437 50.2198 366.591 49.8459C365.745 49.472 364.831 49.2789 363.906 49.2789C362.982 49.2789 362.067 49.472 361.222 49.8459C360.376 50.2198 359.618 50.7661 358.996 51.45C358.31 52.2235 357.783 53.1249 357.446 54.1024C357.109 55.0799 356.968 56.1144 357.031 57.1464C356.968 58.1785 357.109 59.2129 357.446 60.1904C357.783 61.1679 358.31 62.0693 358.996 62.8428C359.615 63.5352 360.375 64.0864 361.226 64.4592C362.077 64.832 362.997 65.0176 363.926 65.0036Z" fill="white"/>
</g>
<defs>
<clipPath id="clip0_1947_871">
<rect width="355.536" height="55" fill="white" transform="translate(25.2305 24.5)"/>
</clipPath>
</defs>
</svg>
