<svg width="106" height="42" viewBox="0 0 106 42" fill="none" xmlns="http://www.w3.org/2000/svg">
<g style="mix-blend-mode:luminosity">
<path d="M9.57825 1.84644H2.17981V9.24488H9.57825V1.84644Z" fill="#00C7FD"/>
<path d="M9.39532 40.393V13.7217H2.36548V40.3666H9.39532V40.393ZM55.945 40.6562V34.1267C54.9181 34.1267 54.0493 34.074 53.4174 33.9687C52.6802 33.8634 52.1273 33.6001 51.7586 33.2315C51.39 32.8629 51.1531 32.3363 51.0214 31.6254C50.9161 30.9672 50.8635 30.0983 50.8635 29.0452V19.751H55.945V13.7217H50.8635V3.34809H43.8336V29.1242C43.8336 31.3095 44.0179 33.1525 44.3865 34.6269C44.7551 36.075 45.387 37.2598 46.2559 38.155C47.1247 39.0502 48.2832 39.6821 49.6787 40.077C51.1004 40.4719 52.8908 40.6562 55.0234 40.6562H55.945ZM96.1756 40.393V1.29443H89.1458V40.393H96.1756ZM37.0671 16.3546C35.1187 14.2483 32.3805 13.1951 28.9051 13.1951C27.22 13.1951 25.6666 13.5374 24.2975 14.222C22.9021 14.9065 21.7436 15.8544 20.7958 17.0655L20.4272 17.5657V17.1181V13.7217H13.5026V40.3666H20.4798V26.1753V27.1495C20.4798 26.9915 20.4798 26.8335 20.4798 26.6756C20.5588 24.1743 21.1644 22.3313 22.3228 21.1465C23.5603 19.8827 25.0611 19.2508 26.7724 19.2508C28.7998 19.2508 30.3532 19.8827 31.38 21.0938C32.3805 22.305 32.9071 24.0163 32.9071 26.2016V26.2806V40.3666H39.9896V25.2538C40.0159 21.4624 39.0154 18.4609 37.0671 16.3546ZM85.5124 27.0178C85.5124 25.0958 85.1701 23.3055 84.5119 21.6204C83.8273 19.9617 82.8795 18.4873 81.6947 17.2235C80.4836 15.9597 79.0355 14.9855 77.3504 14.2746C75.6654 13.5637 73.796 13.2215 71.7687 13.2215C69.8467 13.2215 68.03 13.5901 66.3449 14.3009C64.6598 15.0382 63.1854 16.0123 61.948 17.2498C60.7105 18.4873 59.71 19.9617 58.9991 21.6467C58.2619 23.3318 57.9196 25.1485 57.9196 27.0705C57.9196 28.9925 58.2619 30.8092 58.9465 32.4943C59.631 34.1793 60.6052 35.6537 61.8163 36.8912C63.0275 38.1287 64.5282 39.1292 66.2659 39.84C68.0036 40.5773 69.9256 40.9459 71.9793 40.9459C77.9296 40.9459 81.6157 38.234 83.8273 35.7064L78.7722 31.8624C77.719 33.1262 75.1914 34.8375 72.032 34.8375C70.0573 34.8375 68.4249 34.39 67.1874 33.4684C65.95 32.5733 65.1074 31.3095 64.6598 29.7561L64.5809 29.5191H85.5124V27.0178ZM64.6335 24.5692C64.6335 22.6209 66.8715 19.2245 71.6897 19.1981C76.5079 19.1981 78.7722 22.5946 78.7722 24.5429L64.6335 24.5692ZM104.18 37.0229C104.048 36.7069 103.864 36.4436 103.627 36.2067C103.39 35.9697 103.126 35.7854 102.811 35.6537C102.495 35.5221 102.152 35.4431 101.81 35.4431C101.441 35.4431 101.125 35.5221 100.81 35.6537C100.494 35.7854 100.23 35.9697 99.9933 36.2067C99.7564 36.4436 99.5721 36.7069 99.4404 37.0229C99.3088 37.3388 99.2298 37.6811 99.2298 38.0234C99.2298 38.392 99.3088 38.7079 99.4404 39.0239C99.5721 39.3398 99.7564 39.6031 99.9933 39.84C100.23 40.077 100.494 40.2613 100.81 40.393C101.125 40.5246 101.468 40.6036 101.81 40.6036C102.179 40.6036 102.495 40.5246 102.811 40.393C103.126 40.2613 103.39 40.077 103.627 39.84C103.864 39.6031 104.048 39.3398 104.18 39.0239C104.311 38.7079 104.39 38.3656 104.39 38.0234C104.39 37.6811 104.311 37.3388 104.18 37.0229ZM103.758 38.8659C103.653 39.1292 103.495 39.3661 103.311 39.5504C103.126 39.7347 102.89 39.8927 102.626 39.998C102.363 40.1033 102.1 40.156 101.784 40.156C101.494 40.156 101.204 40.1033 100.941 39.998C100.678 39.8927 100.441 39.7347 100.257 39.5504C100.072 39.3661 99.9144 39.1292 99.809 38.8659C99.7037 38.6026 99.6511 38.3393 99.6511 38.0234C99.6511 37.7337 99.7037 37.4441 99.809 37.1808C99.9144 36.9175 100.072 36.6806 100.257 36.4963C100.441 36.312 100.678 36.154 100.941 36.0487C101.204 35.9434 101.468 35.8907 101.784 35.8907C102.073 35.8907 102.363 35.9434 102.626 36.0487C102.89 36.154 103.126 36.312 103.311 36.4963C103.495 36.6806 103.653 36.9175 103.758 37.1808C103.864 37.4441 103.916 37.7074 103.916 38.0234C103.916 38.3393 103.864 38.6026 103.758 38.8659ZM102.284 38.2603C102.495 38.234 102.653 38.155 102.784 38.0234C102.916 37.8917 102.995 37.7074 102.995 37.4441C102.995 37.1545 102.916 36.9439 102.732 36.7859C102.574 36.6279 102.284 36.5489 101.942 36.5489H100.783V39.5241H101.336V38.313H101.731L102.468 39.5241H103.048L102.284 38.2603ZM101.994 37.8127C101.915 37.8127 101.836 37.8127 101.731 37.8127H101.336V36.9702H101.731C101.81 36.9702 101.889 36.9702 101.994 36.9702C102.073 36.9702 102.152 36.9965 102.231 37.0229C102.31 37.0492 102.363 37.1018 102.389 37.1545C102.442 37.2072 102.442 37.2861 102.442 37.3915C102.442 37.4968 102.416 37.5758 102.389 37.6284C102.337 37.6811 102.284 37.7337 102.231 37.7601C102.152 37.7864 102.073 37.8127 101.994 37.8127Z" fill="white"/>
</g>
</svg>
