<svg xmlns="http://www.w3.org/2000/svg" width="217" height="72" fill="none"><g fill="#fff" clip-path="url(#a)" style="mix-blend-mode:luminosity"><path d="m51.725 36.541.252.093c.834.303 1.58.745 2.201 1.386a4.954 4.954 0 0 1 1.333 2.623c.109.6.13 1.204.074 1.809-.138 1.5-.8 2.71-2.022 3.604-.65.476-1.371.805-2.137 1.043-.688.214-1.392.35-2.106.436-.765.092-1.532.126-2.301.126-3.581-.002-7.162-.001-10.743-.002-.084 0-.168-.01-.253-.016-.043-.08-.022-.167-.022-.25V26.549c0-.301-.039-.266.256-.266H46.4c.52 0 1.04.01 1.557.057 1.096.099 2.17.297 3.192.721.764.318 1.453.75 2.037 1.34a4.512 4.512 0 0 1 1.302 2.651c.116.888.06 1.763-.24 2.611-.403 1.144-1.137 2.024-2.163 2.665-.108.067-.22.13-.361.214Zm-7.385 7.394c.69 0 1.38.004 2.07-.001a26.3 26.3 0 0 0 1.088-.034 5.484 5.484 0 0 0 1.136-.181c.38-.1.742-.244 1.068-.469.428-.294.71-.694.84-1.196.118-.461.124-.927.02-1.395a2.087 2.087 0 0 0-.86-1.302 3.387 3.387 0 0 0-.423-.247 3.71 3.71 0 0 0-.887-.297 8.017 8.017 0 0 0-1.696-.163c-1.615-.002-3.23 0-4.846 0h-.769c-.035 0-.072-.003-.106.004-.016.003-.037.026-.04.042a.715.715 0 0 0-.008.127v4.931c0 .199-.002.18.19.18h3.223v.001Zm-.494-8.888c.683 0 1.366.002 2.05 0a7.005 7.005 0 0 0 1.566-.166c.426-.099.83-.249 1.19-.503.438-.308.723-.718.842-1.242.076-.336.09-.674.043-1.017-.09-.662-.414-1.17-.982-1.523a3.302 3.302 0 0 0-.88-.372 6.683 6.683 0 0 0-1.774-.213H41.14l-.15.001c-.044.001-.06.028-.062.069v.106l-.001 4.676c0 .201.001.184.186.184h2.733ZM105.292 38.197l7.412 9.418c-.025.07-.076.043-.113.043-.605.002-1.21.002-1.815.002l-3.61-.001c-.239 0-.175.036-.335-.161l-4.93-6.12-.081-.1c-.038-.042-.057-.042-.105.002a2903.375 2903.375 0 0 0-2.085 2.054c-.025.024-.048.052-.075.075a.188.188 0 0 0-.072.168c.004.05 0 .1 0 .15v3.695c0 .064 0 .128-.006.192-.002.015-.024.038-.04.041-.034.007-.07.005-.106.005h-4.464l-.085-.002c-.044-.002-.061-.028-.062-.068V25.269c0-.072-.003-.143.004-.214.001-.019.032-.046.052-.05.05-.007.1-.004.15-.004h4.357l.128.001c.055 0 .073.032.072.081v.193l.001 12.26c0 .076.01.152.016.228.095-.006.136-.088.194-.143 2.203-2.084 4.405-4.17 6.607-6.257.026-.024.053-.047.077-.073a.199.199 0 0 1 .172-.067c.042.003.085 0 .128 0h5.169c.064 0 .128 0 .192.004.012 0 .028.01.033.021.005.01.004.03-.003.038a4.053 4.053 0 0 1-.132.14l-3.967 4.037-2.56 2.605-.118.128ZM176.195 33.48v-7.868c0-.287-.032-.25.248-.25 1.232-.002 2.463-.001 3.695-.001h.107c.133.002.134.003.137.126v.128l-.001 21.954c0 .287.032.25-.248.25h-2.968c-.029 0-.058-.003-.086 0-.102.013-.167-.023-.22-.119-.14-.256-.293-.504-.44-.756a23.998 23.998 0 0 1-.183-.313c-.026-.044-.058-.057-.105-.03-.148.087-.296.171-.444.257-.505.291-1.011.581-1.514.877a.6.6 0 0 1-.321.086 766.501 766.501 0 0 0-3.652 0 .609.609 0 0 1-.321-.089c-1.077-.625-2.155-1.246-3.232-1.869-.019-.01-.036-.024-.056-.032-.086-.034-.116-.096-.104-.185.005-.043 0-.086 0-.128l.001-10.977c0-.32-.048-.232.226-.39 1.046-.607 2.094-1.21 3.139-1.818a.682.682 0 0 1 .36-.1c1.211.004 2.421.004 3.631 0 .126 0 .233.027.341.09.596.348 1.194.691 1.792 1.036l.218.121Zm0 6.55-.001-3.99c0-.253.033-.225-.228-.225h-5.059l-.17.001c-.043 0-.063.025-.064.066l-.001.107v8.068c0 .2-.01.183.186.183h5.144c.043 0 .085 0 .128-.002.042-.002.063-.026.064-.067l.001-.192V40.03ZM77.043 40.008l-.001 5.53c0 .277.04.208-.197.345-1.064.617-2.13 1.23-3.194 1.849a.65.65 0 0 1-.342.09c-2.043-.004-4.087-.004-6.13 0a.651.651 0 0 1-.34-.094c-1.071-.621-2.143-1.24-3.214-1.859-.031-.018-.061-.037-.093-.052-.057-.028-.086-.07-.081-.135.004-.05 0-.1 0-.15l.001-11.019c0-.28-.043-.206.196-.345 1.058-.614 2.118-1.224 3.176-1.837a.687.687 0 0 1 .362-.098c2.043.003 4.086.003 6.129 0a.65.65 0 0 1 .342.09c1.07.622 2.141 1.24 3.213 1.86l.111.062c.04.023.063.055.062.103-.002.057 0 .114 0 .171v5.488Zm-4.187.023v-3.993c0-.255.033-.223-.23-.223h-4.868c-.08.001-.12.04-.121.118v8.093c0 .05 0 .1.002.15.001.043.027.061.068.062l.085.001h4.911c.036 0 .072.002.107-.005.016-.003.038-.025.04-.04.006-.063.006-.127.006-.191V40.03ZM90.851 41.745c.058.027.109.05.157.076l3.372 1.839c.183.1.175.08.082.27a6.497 6.497 0 0 1-2.428 2.69c-.839.53-1.75.88-2.72 1.08a10.68 10.68 0 0 1-2.548.202c-1.248-.046-2.459-.273-3.614-.758-1.198-.504-2.253-1.213-3.116-2.192a7.838 7.838 0 0 1-1.85-3.742 9.318 9.318 0 0 1-.13-2.593 8.021 8.021 0 0 1 .763-2.847c.757-1.562 1.91-2.746 3.424-3.584a9.501 9.501 0 0 1 2.924-1.029 11.533 11.533 0 0 1 2.701-.154c1.198.065 2.35.323 3.437.848 1.065.515 1.958 1.234 2.631 2.215.206.3.385.615.538.945l.043.097c.018.038.01.068-.026.09a3.279 3.279 0 0 1-.111.062l-3.384 1.817-.143.074c-.04-.062-.078-.121-.114-.18a4.762 4.762 0 0 0-1.037-1.212c-.614-.5-1.32-.77-2.106-.842-.647-.06-1.285-.012-1.897.199-1.388.477-2.282 1.433-2.67 2.847-.187.679-.217 1.375-.153 2.076.046.513.146 1.015.358 1.486.575 1.285 1.558 2.075 2.933 2.37.662.143 1.33.138 1.992-.008.826-.183 1.51-.61 2.063-1.249.197-.226.368-.47.524-.726.032-.054.067-.107.105-.168ZM61.202 36.335l-.001 11.063c0 .082.024.169-.025.247-.077.005-.154.014-.23.014H56.63c-.213 0-.192.018-.194-.195v-.107l.001-22.085c0-.083.01-.167.017-.25.083-.008.166-.02.249-.02C58.114 25 59.523 25 60.933 25h.106c.17-.001.164-.003.163.163v11.172ZM159.86 36.974V26.423c-.002-.137 0-.14.142-.14H163.996c.093.002.14.05.141.144v20.954c0 .084-.01.168-.015.252-.086.052-.179.025-.269.026-1.267.002-2.534 0-3.802 0-.213 0-.191.019-.191-.197V36.975Z"/><path d="M126.59 35.982c.002-.125.004-.2.004-.275 0-3.467 0-6.934.002-10.4 0-.097-.025-.197.021-.29.092-.006.183-.014.275-.015.185-.002.37-.002.555 0 .049 0 .097.007.161.013v3.654c0 6.236 0 12.472-.002 18.708 0 .09.026.184-.025.27-.085.004-.169.011-.254.012-.207.002-.413 0-.619 0-.051 0-.081-.017-.08-.073.001-.064-.001-.128-.001-.192v-3.737l-.002-.192c0-.005-.008-.013-.012-.013-.012 0-.032 0-.036.006-.039.075-.076.152-.113.228-.866 1.765-2.227 2.978-4.076 3.644-.55.198-1.12.315-1.703.378a8.623 8.623 0 0 1-1.535.025c-2.604-.186-4.865-1.604-6.113-3.877a8.054 8.054 0 0 1-.892-2.61 9.658 9.658 0 0 1-.113-1.936c.061-1.44.418-2.796 1.184-4.027 1.155-1.858 2.813-2.999 4.952-3.44a8.113 8.113 0 0 1 2.272-.131 7.39 7.39 0 0 1 2.705.717 6.998 6.998 0 0 1 3.313 3.32c.025.05.048.102.074.153.006.012.016.023.058.08Zm-6.712 10.857a7.575 7.575 0 0 0 1.48-.163c1.348-.294 2.498-.937 3.425-1.96 1.044-1.15 1.601-2.52 1.763-4.057a8.878 8.878 0 0 0 .012-1.748 7.661 7.661 0 0 0-.307-1.589c-.779-2.509-2.877-4.38-5.697-4.652a7.32 7.32 0 0 0-2.23.115c-1.526.322-2.787 1.082-3.763 2.299-.949 1.182-1.414 2.551-1.506 4.053a9.118 9.118 0 0 0 .029 1.514c.072.69.222 1.362.483 2.005.592 1.462 1.554 2.605 2.945 3.37 1.027.564 2.135.805 3.366.812ZM130.927 39.89c-.003.034-.009.06-.008.087.036 1.057.239 2.076.703 3.033.874 1.799 2.289 2.962 4.196 3.53.888.265 1.799.34 2.725.275a7.422 7.422 0 0 0 2.278-.516 5.623 5.623 0 0 0 2.314-1.7c.026-.033.054-.064.091-.106.227.213.427.44.645.662-.06.069-.11.128-.162.186-.942 1.03-2.096 1.715-3.431 2.1a8.288 8.288 0 0 1-2.34.312c-.946-.004-1.875-.122-2.77-.434-2.447-.853-4.052-2.532-4.852-4.987-.208-.639-.309-1.299-.355-1.969a9.89 9.89 0 0 1 .058-1.939c.188-1.476.698-2.827 1.621-4.004 1.024-1.308 2.354-2.147 3.969-2.532a7.759 7.759 0 0 1 2.395-.178c1.468.11 2.784.61 3.941 1.52 1.025.805 1.757 1.832 2.252 3.033.303.734.483 1.5.565 2.29.04.383.051.767.054 1.151a.678.678 0 0 1-.007.127c-.003.016-.025.033-.042.04-.019.008-.042.006-.063.006H131.186c-.085 0-.17-.009-.259.014Zm6.478-.843H143.747c.09 0 .122.003.109-.126a19.207 19.207 0 0 0-.036-.34 7.217 7.217 0 0 0-.606-2.19c-.471-1.027-1.136-1.902-2.049-2.578a6.005 6.005 0 0 0-2.963-1.16 6.812 6.812 0 0 0-2.062.064c-1.735.338-3.095 1.246-4.063 2.727-.673 1.029-1.018 2.169-1.115 3.388-.018.235-.033.215.209.216h6.235-.001ZM144.004 31.814h1.079c2.214 4.892 4.426 9.787 6.653 14.707l.112-.241c2.148-4.747 4.295-9.495 6.444-14.242.128-.282.05-.225.353-.23.262-.003.525 0 .789 0 .015.088-.034.145-.063.208l-.955 2.096-6.096 13.345c-.108.238-.054.2-.309.202-.249.002-.498 0-.747-.002-.014 0-.028-.006-.056-.013l-7.194-15.762c-.008-.018-.006-.04-.01-.068Z"/></g><defs><clipPath id="a"><path fill="#fff" d="M36 25h144.388v22.91H36z"/></clipPath></defs></svg>