<svg width="297" height="104" fill="none" xmlns="http://www.w3.org/2000/svg"><g clip-path="url(#a)" fill="#fff" style="mix-blend-mode:color-dodge"><path d="m92.03 52.086.251.093c.835.302 1.58.745 2.202 1.386a4.954 4.954 0 0 1 1.333 2.623c.109.6.13 1.204.074 1.808-.138 1.5-.8 2.71-2.022 3.605-.65.476-1.371.805-2.137 1.043-.688.214-1.392.35-2.107.436-.764.092-1.531.126-2.3.126-3.581-.002-7.162-.001-10.743-.002-.084 0-.168-.01-.253-.016-.044-.08-.022-.167-.022-.25V42.094c0-.301-.04-.266.255-.266h10.145c.52 0 1.039.01 1.557.057 1.096.099 2.17.297 3.192.721.763.318 1.453.75 2.037 1.34a4.512 4.512 0 0 1 1.301 2.651c.117.888.06 1.763-.24 2.611-.402 1.144-1.137 2.024-2.162 2.665-.109.067-.22.13-.362.214Zm-7.385 7.394c.69 0 1.38.004 2.07-.001.363-.003.726-.017 1.088-.034a5.477 5.477 0 0 0 1.135-.182c.38-.1.743-.243 1.069-.468.428-.294.71-.694.839-1.196.119-.461.125-.927.022-1.395a2.087 2.087 0 0 0-.862-1.302 3.406 3.406 0 0 0-.422-.247c-.281-.141-.581-.23-.887-.297A8.01 8.01 0 0 0 87 54.195c-1.616-.002-3.23 0-4.846 0h-.769c-.035 0-.072-.003-.106.004-.016.003-.037.026-.04.042a.715.715 0 0 0-.008.127V59.3c0 .199-.002.18.189.18h3.223v.001Zm-.494-8.888c.683 0 1.366.002 2.05 0a6.999 6.999 0 0 0 1.566-.166c.426-.099.83-.249 1.19-.503.438-.308.723-.718.842-1.242.076-.336.089-.674.042-1.017-.09-.662-.413-1.17-.981-1.523a3.3 3.3 0 0 0-.88-.372 6.679 6.679 0 0 0-1.774-.213h-4.761l-.15.001c-.044.001-.06.028-.062.068l-.001.107v4.676c0 .201 0 .184.186.184h2.733ZM145.596 53.741l7.413 9.419c-.025.07-.077.043-.113.043-.605.002-1.211.001-1.816.001h-3.61c-.238 0-.175.036-.334-.162l-4.931-6.12a2.59 2.59 0 0 0-.081-.099c-.037-.042-.057-.042-.105.001l-.077.074-2.007 1.98c-.025.025-.049.053-.076.075a.191.191 0 0 0-.072.17c.004.049.001.099.001.149v3.695c0 .064-.001.128-.007.192-.001.015-.023.038-.039.041-.034.007-.07.004-.106.004h-4.464l-.086-.001c-.043-.002-.061-.028-.061-.069l-.001-.064V40.813c0-.07-.003-.142.004-.213.002-.019.033-.046.053-.05.049-.008.099-.004.149-.004H139.716c.054 0 .072.033.072.082v.192l.001 12.261c0 .076.01.152.016.228.095-.006.136-.088.194-.143 2.203-2.085 4.405-4.17 6.606-6.257.026-.024.054-.047.078-.073a.197.197 0 0 1 .172-.067c.042.003.085 0 .128 0h5.169c.064 0 .128 0 .192.003.011 0 .027.011.033.022.005.01.003.03-.004.038a3.334 3.334 0 0 1-.132.14l-3.967 4.037-2.559 2.605-.119.127ZM216.5 49.025v-7.868c0-.287-.033-.25.248-.25 1.232-.002 2.463-.001 3.694-.001h.107c.134.002.134.003.137.126v22.081c0 .288.032.25-.248.25-.99.002-1.979.001-2.968.001-.029 0-.058-.003-.086 0-.102.013-.167-.023-.22-.12-.14-.255-.293-.503-.441-.755l-.183-.313c-.025-.044-.058-.057-.105-.03-.147.087-.295.171-.443.256-.505.292-1.011.582-1.514.878a.6.6 0 0 1-.322.085 766.501 766.501 0 0 0-3.652 0 .613.613 0 0 1-.321-.088c-1.076-.625-2.154-1.246-3.232-1.87-.018-.01-.035-.023-.055-.031-.086-.034-.116-.096-.105-.185.006-.043.001-.086.001-.129l.001-10.976c0-.321-.049-.232.226-.39 1.045-.607 2.093-1.21 3.139-1.818a.682.682 0 0 1 .36-.1c1.21.004 2.42.003 3.63 0 .127 0 .234.027.342.09.596.348 1.194.691 1.792 1.036.06.035.122.068.218.121Zm0 6.55-.001-3.991c0-.252.033-.224-.228-.224h-5.059l-.171.001c-.043 0-.062.025-.063.066l-.001.107v8.068c0 .2-.01.182.185.182h5.144l.128-.001c.043-.002.064-.026.065-.067l.001-.192v-3.949ZM117.347 55.553v5.53c0 .277.039.208-.197.345-1.064.617-2.131 1.23-3.194 1.849a.652.652 0 0 1-.343.09c-2.043-.004-4.086-.004-6.129 0a.65.65 0 0 1-.341-.094c-1.07-.621-2.142-1.24-3.214-1.859-.03-.017-.061-.037-.093-.052-.057-.028-.085-.07-.08-.135.003-.05 0-.1 0-.15l.001-11.019c0-.28-.043-.206.196-.345 1.058-.614 2.118-1.224 3.176-1.837a.69.69 0 0 1 .361-.098c2.043.003 4.086.003 6.129 0 .126 0 .234.027.342.09 1.07.622 2.142 1.24 3.213 1.86l.112.062c.04.023.063.055.061.103V55.552Zm-4.187.023v-3.993c0-.255.033-.223-.229-.223h-4.869c-.078.001-.119.04-.121.118v8.093l.002.15c.002.043.028.061.068.062l.086.001h4.911c.036 0 .072.002.106-.005.016-.003.039-.024.041-.04a2.45 2.45 0 0 0 .006-.191v-3.972h-.001ZM131.156 57.29c.057.027.109.05.157.075l3.371 1.84c.184.1.176.08.083.27a6.492 6.492 0 0 1-2.428 2.69 8.09 8.09 0 0 1-2.721 1.08 10.68 10.68 0 0 1-2.548.202c-1.247-.046-2.458-.273-3.613-.758-1.198-.504-2.253-1.213-3.116-2.192a7.83 7.83 0 0 1-1.849-3.742 9.315 9.315 0 0 1-.132-2.593 8.033 8.033 0 0 1 .764-2.847c.756-1.562 1.909-2.746 3.424-3.584a9.488 9.488 0 0 1 2.924-1.029 11.527 11.527 0 0 1 2.701-.154c1.197.065 2.351.323 3.436.848 1.066.515 1.959 1.234 2.632 2.215.205.3.385.615.537.945l.044.097c.018.038.01.068-.026.09a3.212 3.212 0 0 1-.112.062l-3.383 1.816-.143.075-.115-.18a4.762 4.762 0 0 0-1.036-1.212c-.615-.5-1.32-.77-2.107-.842-.646-.06-1.284-.012-1.897.199-1.387.477-2.281 1.433-2.67 2.847-.186.679-.216 1.375-.153 2.076.047.513.147 1.015.358 1.486.576 1.285 1.559 2.075 2.933 2.37a4.642 4.642 0 0 0 1.993-.008c.826-.183 1.509-.61 2.063-1.249.196-.226.368-.47.523-.726l.106-.168ZM101.507 51.88c0 3.687 0 7.375-.002 11.063 0 .082.025.169-.024.247-.077.005-.154.014-.231.014h-4.314c-.213 0-.192.018-.194-.195V40.817c0-.083.012-.167.017-.25.083-.008.166-.02.25-.02 1.409-.002 2.819-.002 4.228-.002h.107c.169-.001.164-.003.163.163V51.88ZM200.165 52.52V41.967c-.002-.138 0-.14.141-.14H204.3c.093.002.14.05.142.144v.128l-.001 20.826c0 .084-.009.168-.015.252-.085.052-.179.025-.268.025-1.268.002-2.535.002-3.802.002-.213 0-.191.017-.191-.198V52.52Z"/><path d="M166.895 51.528c.002-.126.004-.2.004-.276l.001-10.4c0-.097-.024-.197.022-.29.091-.006.183-.014.275-.015.185-.002.37-.002.555 0 .048 0 .097.007.16.013v3.654l-.001 18.708c0 .09.026.184-.025.27-.085.004-.17.011-.254.012-.207.002-.413 0-.62 0-.05 0-.08-.017-.08-.073V59.202l-.003-.192c0-.005-.007-.013-.011-.013-.013 0-.032 0-.036.006-.039.075-.076.152-.113.228-.867 1.765-2.228 2.978-4.076 3.644a7.287 7.287 0 0 1-1.703.378 8.634 8.634 0 0 1-1.535.025c-2.605-.186-4.865-1.604-6.113-3.877a8.055 8.055 0 0 1-.892-2.61 9.512 9.512 0 0 1-.113-1.936c.061-1.44.418-2.795 1.184-4.027 1.155-1.858 2.812-2.999 4.951-3.44a8.118 8.118 0 0 1 2.273-.131c.947.073 1.851.3 2.705.717a6.996 6.996 0 0 1 3.312 3.32l.074.153c.007.012.016.023.058.08h.001Zm-6.713 10.856c.455-.007.972-.051 1.481-.163 1.347-.294 2.498-.937 3.425-1.96 1.044-1.15 1.601-2.52 1.763-4.057a8.878 8.878 0 0 0 .011-1.748 7.726 7.726 0 0 0-.306-1.589c-.779-2.509-2.878-4.38-5.697-4.652a7.324 7.324 0 0 0-2.23.115c-1.526.322-2.788 1.082-3.764 2.299-.948 1.182-1.414 2.551-1.505 4.053a9.119 9.119 0 0 0 .029 1.514c.072.69.221 1.362.482 2.005.593 1.462 1.554 2.605 2.945 3.37 1.027.564 2.135.805 3.366.813ZM171.231 55.436c-.003.033-.008.06-.007.086.035 1.057.238 2.076.703 3.033.874 1.799 2.289 2.962 4.196 3.53.888.265 1.799.34 2.725.275a7.429 7.429 0 0 0 2.278-.516 5.612 5.612 0 0 0 2.313-1.7c.027-.033.055-.064.092-.106.227.213.426.44.645.662-.06.069-.11.128-.163.186-.942 1.03-2.095 1.715-3.431 2.1a8.278 8.278 0 0 1-2.34.312c-.946-.004-1.874-.122-2.77-.434-2.446-.853-4.052-2.532-4.852-4.987-.208-.639-.308-1.299-.355-1.969a9.891 9.891 0 0 1 .059-1.939c.188-1.476.698-2.827 1.62-4.004 1.025-1.308 2.355-2.147 3.97-2.532a7.754 7.754 0 0 1 2.395-.178 7.09 7.09 0 0 1 3.94 1.52c1.026.805 1.758 1.832 2.253 3.032.303.735.483 1.5.565 2.291.039.383.05.767.054 1.151a.678.678 0 0 1-.007.127c-.003.016-.025.033-.042.04-.019.008-.042.006-.063.006H171.49c-.084 0-.169-.009-.259.014Zm6.479-.844H184.052c.09 0 .121.003.109-.126-.011-.114-.024-.227-.036-.34a7.19 7.19 0 0 0-.607-2.19c-.47-1.027-1.135-1.902-2.048-2.578a6.005 6.005 0 0 0-2.963-1.16 6.818 6.818 0 0 0-2.062.064c-1.736.338-3.096 1.246-4.064 2.727-.672 1.029-1.017 2.169-1.114 3.388-.019.235-.034.215.209.216h6.235-.001ZM184.309 47.36h1.079c2.214 4.891 4.425 9.786 6.652 14.706.047-.1.081-.17.113-.241l6.443-14.242c.128-.282.051-.225.353-.23.263-.003.526 0 .789 0 .016.088-.034.145-.062.208l-.955 2.096-6.096 13.345c-.109.238-.055.2-.309.202-.249.002-.498 0-.747-.002-.014 0-.028-.006-.057-.013l-7.193-15.762c-.009-.018-.007-.04-.01-.068Z"/></g><defs><clipPath id="a"><path fill="#fff" transform="translate(76.305 40.545)" d="M0 0h144.388v22.91H0z"/></clipPath></defs></svg>