<svg width="153" height="30" viewBox="0 0 153 30" fill="none" xmlns="http://www.w3.org/2000/svg">
<g clip-path="url(#clip0_738_2120)">
<path d="M42.7581 21.0528C39.9473 21.0528 38.2055 18.5005 38.2055 14.9692C38.2055 11.4728 39.6713 8.86798 42.7408 8.86798C44.7583 8.86798 46.0862 10.1791 46.3279 11.9098H51.0185C50.7768 9.75955 49.8284 7.87154 48.173 6.61284C46.8278 5.56391 44.9654 4.91711 42.7581 4.91711C37.1018 4.91711 33.4286 9.25259 33.4286 14.9692C33.4286 20.7207 37.2225 24.9338 42.7927 24.9338C45.4654 24.9338 47.414 24.1821 48.8627 22.7486C50.1559 21.4899 51.0185 19.7417 51.1389 17.8362H46.4484C46.2417 19.7068 44.8619 21.0528 42.7581 21.0528Z" fill="white"/>
<path d="M59.7985 10.3906C55.4528 10.3906 52.5385 13.5374 52.5385 17.6806C52.5385 21.8238 55.4528 24.9705 59.7985 24.9705C64.1785 24.9705 67.0413 21.8238 67.0413 17.6806C67.0413 13.5374 64.1785 10.3906 59.7985 10.3906ZM59.7812 21.8412C57.9014 21.8412 56.9184 20.1805 56.9184 17.6806C56.9184 15.1806 57.9014 13.4849 59.7812 13.4849C61.661 13.4849 62.6782 15.1806 62.6782 17.6806C62.6613 20.1805 61.661 21.8412 59.7812 21.8412Z" fill="white"/>
<path d="M73.1752 8.92638C74.0978 7.99108 74.0978 6.47467 73.1752 5.53937C72.2522 4.60407 70.7566 4.60407 69.834 5.53937C68.9114 6.47467 68.9114 7.99108 69.834 8.92638C70.7566 9.86168 72.2522 9.86168 73.1752 8.92638Z" fill="white"/>
<path d="M67.7411 13.8527H69.5516V24.5341H73.8631V10.7584H67.7411V13.8527Z" fill="white"/>
<path d="M84.4736 10.3572C82.5942 10.3572 81.2833 11.1613 80.2834 12.6473H80.1972V10.7593H76.0412V24.5175H80.3696V16.9129C80.3696 15.2171 81.318 14.0109 82.7493 14.0109C84.1634 14.0109 84.8704 15.0073 84.8704 16.4584V24.5175H89.1988V15.5668C89.1988 12.5074 87.4399 10.3572 84.4736 10.3572Z" fill="white"/>
<path d="M99.3385 5.30432H91.251V24.5169H99.0457C101.425 24.5169 103.339 23.905 104.823 22.7687C106.944 21.1254 108.116 18.4157 108.116 15.0242C108.116 9.15032 104.581 5.30432 99.3385 5.30432ZM98.7008 20.531H95.9416V9.29019H98.7524C101.701 9.29019 103.374 11.5453 103.374 15.0417C103.357 18.5556 101.77 20.531 98.7008 20.531Z" fill="white"/>
<path d="M120.928 12.1743C119.756 11.1079 118.221 10.4611 116.29 10.4611C112.151 10.4611 109.322 13.6078 109.322 17.716C109.322 21.8767 112.082 25.0235 116.566 25.0235C118.29 25.0235 119.669 24.5689 120.808 23.7648C121.997 22.9256 122.791 21.7543 123.084 20.5131H118.876C118.497 21.3697 117.755 21.8767 116.617 21.8767C114.841 21.8767 113.841 20.7229 113.565 18.8698H123.325C123.343 16.0552 122.549 13.6777 120.928 12.1743ZM113.582 16.2476C113.875 14.6042 114.72 13.5554 116.358 13.5554C117.755 13.5554 118.773 14.6042 118.928 16.2476H113.582Z" fill="white"/>
<path d="M131.845 15.9135C130.12 15.5988 128.586 15.4589 128.586 14.4974C128.586 13.6408 129.413 13.2387 130.465 13.2387C131.655 13.2387 132.483 13.6233 132.638 14.8471H136.622C136.415 12.1374 134.346 10.4417 130.5 10.4417C127.292 10.4417 124.637 11.9451 124.637 14.8471C124.637 18.0812 127.155 18.7105 129.517 19.1126C131.328 19.4273 132.966 19.5672 132.966 20.8084C132.966 21.6999 132.138 22.172 130.845 22.172C129.413 22.172 128.517 21.5076 128.344 20.1266H124.258C124.395 23.1684 126.879 25.0215 130.862 25.0215C134.415 25.0215 137.036 23.4656 137.036 20.4588C137.053 16.9449 134.242 16.3155 131.845 15.9135Z" fill="white"/>
<path d="M147.209 15.9333L151.986 10.7587H147.002L142.967 15.4089V5.30432H138.707V24.5343H142.967V20.3037L144.277 18.9052L147.536 24.5343H152.537L147.209 15.9333Z" fill="white"/>
<path d="M14.4291 16.2457C15.1529 16.2457 15.7397 15.6509 15.7397 14.9171C15.7397 14.1833 15.1529 13.5885 14.4291 13.5885C13.7053 13.5885 13.1185 14.1833 13.1185 14.9171C13.1185 15.6509 13.7053 16.2457 14.4291 16.2457Z" fill="#F8BF1E"/>
<path d="M24.8798 16.2457C25.6036 16.2457 26.1904 15.6509 26.1904 14.9171C26.1904 14.1833 25.6036 13.5885 24.8798 13.5885C24.156 13.5885 23.5692 14.1833 23.5692 14.9171C23.5692 15.6509 24.156 16.2457 24.8798 16.2457Z" fill="#F8BF1E"/>
<path d="M24.8798 26.8567C25.6036 26.8567 26.1904 26.2618 26.1904 25.5281C26.1904 24.7943 25.6036 24.1995 24.8798 24.1995C24.156 24.1995 23.5692 24.7943 23.5692 25.5281C23.5692 26.2618 24.156 26.8567 24.8798 26.8567Z" fill="#F8BF1E"/>
<path d="M28.7223 4.06152C28.5844 2.12104 27.0496 0.54767 25.1354 0.407815C23.911 0.320406 22.8073 0.792415 22.0313 1.59658C21.445 2.20844 20.6517 2.57556 19.8067 2.57556H19.4963C18.6341 2.57556 17.8236 2.20844 17.22 1.5791C16.513 0.844859 15.53 0.407815 14.4436 0.407815C13.3572 0.407815 12.3742 0.862344 11.6672 1.5791C11.0636 2.20844 10.2531 2.57556 9.39085 2.57556H9.09768C8.25271 2.57556 7.44218 2.24341 6.85585 1.63155C6.73515 1.50917 6.61441 1.3868 6.49371 1.28191C5.02792 0.07566 2.8723 0.110624 1.45823 1.3868C-0.249015 2.90772 -0.317994 5.56497 1.26853 7.17327C1.28578 7.19076 1.30302 7.20824 1.32027 7.22572C1.94108 7.82011 2.26873 8.65927 2.26873 9.51587V9.81306C2.26873 10.6872 1.90659 11.5088 1.28577 12.1207C0.561493 12.8374 0.130373 13.8339 0.130373 14.9352C0.130373 16.0366 0.578739 17.0331 1.28577 17.7498C1.90659 18.3617 2.26873 19.1833 2.26873 20.0574V20.4595C2.26873 21.3161 1.90659 22.1203 1.30302 22.7147C0.54425 23.4664 0.0786382 24.5328 0.130373 25.7041C0.216597 27.7669 1.8721 29.4277 3.88975 29.4976C5.06241 29.5326 6.11434 29.0606 6.85585 28.2739C7.44218 27.662 8.23543 27.2774 9.08044 27.2774H9.40809C10.2531 27.2774 11.0464 27.6446 11.6327 28.2739C12.4087 29.0955 13.5296 29.5675 14.754 29.4802C16.6682 29.3403 18.2202 27.7669 18.3582 25.809C18.5134 23.4839 16.7199 21.5609 14.4608 21.5609C13.3916 21.5609 12.4087 21.9979 11.7017 22.7147C11.0981 23.3265 10.2876 23.6937 9.44258 23.6937H9.08044C8.23543 23.6937 7.4077 23.3615 6.80412 22.7321C6.78688 22.7147 6.78688 22.7147 6.76964 22.6972C6.14882 22.0853 5.78668 21.2637 5.78668 20.3896V20.0399C5.78668 19.1659 6.14882 18.3442 6.76964 17.7323C7.49391 17.0156 7.92506 16.0191 7.92506 14.9178C7.92506 13.8164 7.47667 12.8199 6.76964 12.1032C6.14882 11.4913 5.78668 10.6697 5.78668 9.79558V9.4809C5.78668 8.60681 6.14882 7.78514 6.7524 7.17327C6.76964 7.15583 6.76964 7.15583 6.78688 7.13834C6.80412 7.12086 6.80412 7.12086 6.82137 7.10338C7.42494 6.49151 8.23543 6.12438 9.09768 6.12438H9.40809C10.2703 6.12438 11.0808 6.49151 11.6844 7.12086C12.3914 7.85508 13.3744 8.29214 14.4608 8.29214C15.5473 8.29214 16.5302 7.83759 17.2372 7.12086C17.8408 6.49151 18.6514 6.12438 19.5136 6.12438H19.7895C20.6517 6.12438 21.4622 6.49151 22.0658 7.12086C22.7728 7.85508 23.7558 8.29214 24.8422 8.29214C27.0841 8.30962 28.8775 6.3866 28.7223 4.06152Z" fill="#F8BF1E"/>
</g>
<defs>
<clipPath id="clip0_738_2120">
<rect width="152.414" height="29.2051" fill="white" transform="translate(0.126343 0.397461)"/>
</clipPath>
</defs>
</svg>
