<svg width="297" height="104" fill="none" xmlns="http://www.w3.org/2000/svg"><path d="M72.076 37.235h-3.442c-2.808 0-5.435 1.54-7.337 4.439-1.902 2.717-2.899 6.431-2.899 10.326 0 4.076 1.087 7.79 3.08 10.598 1.902 2.717 4.439 4.167 7.065 4.167h3.442c2.537-.181 4.892-1.721 6.613-4.439C80.5 59.518 81.496 55.895 81.496 52c0-3.714-.996-7.428-2.807-10.145-1.63-2.717-4.077-4.257-6.613-4.62Z" fill="#875F27"/><path d="M78.048 52.083c0-3.895-1.087-7.156-2.718-9.783-1.177-1.721-2.536-3.08-4.166-3.714v-.725h-2.808c-5.254 0-9.602 6.341-9.602 14.13 0 4.077 1.178 7.7 2.99 10.327 1.72 2.355 4.075 3.895 6.612 3.895h2.808v-.634c4.076-1.902 6.884-7.156 6.884-13.496Z" fill="#F8B828"/><path d="M71.345 66.305h-2.989c-2.536 0-4.891-1.45-6.703-4.076-1.902-2.718-2.989-6.34-2.989-10.326 0-7.881 4.438-14.312 9.783-14.312h2.989v.634c1.54.815 2.99 1.993 4.076 3.714 1.721 2.717 2.718 6.16 2.718 9.873 0 6.25-2.718 11.685-6.704 13.587l-.18.906Zm-2.898-28.352c-5.163 0-9.42 6.25-9.42 14.04 0 3.895 1.086 7.518 2.898 10.145 1.721 2.536 4.076 3.895 6.522 3.895h2.717V65.4h.09c1.903-.906 3.533-2.627 4.802-4.982 1.268-2.355 1.902-5.435 1.902-8.424 0-3.623-.997-7.065-2.627-9.692-1.268-1.721-2.718-2.99-4.167-3.623h-.09v-.725h-2.627Z" fill="#B28445"/><path d="M78.314 42.208c-1.72-2.718-4.166-4.439-6.884-4.439-5.344.09-9.692 6.431-9.692 14.13 0 4.077 1.178 7.7 2.99 10.327 1.72 2.355 4.076 3.895 6.612 3.895 5.254 0 9.601-6.34 9.601-14.13-.09-3.715-.996-7.157-2.627-9.783Zm-6.43 20.47h-.454c-1.902 0-3.623-1.177-4.982-2.898-1.358-1.812-2.264-4.438-2.264-7.337v-.453c0-5.797 3.26-10.688 7.156-10.688h.453c3.713.362 6.703 4.982 6.703 10.688v.453c-.09 5.526-2.99 9.873-6.613 10.236Z" fill="#F6E245"/><path d="M71.344 66.305c-2.536 0-4.89-1.449-6.703-4.076-1.902-2.717-2.989-6.34-2.989-10.326 0-7.88 4.348-14.312 9.692-14.312 2.718 0 5.164 1.54 6.975 4.439 1.721 2.717 2.718 6.16 2.718 9.873-.091 7.971-4.439 14.402-9.693 14.402Zm0-28.351c-5.163 0-9.42 6.25-9.42 14.04 0 3.895 1.087 7.518 2.899 10.145 1.72 2.536 4.076 3.895 6.522 3.895 5.163 0 9.42-6.25 9.42-14.04 0-3.624-.996-7.066-2.627-9.693-1.812-2.808-4.167-4.347-6.794-4.347Zm0 24.91c-1.902 0-3.713-1.088-5.072-2.99-1.45-1.902-2.265-4.62-2.265-7.428v-.452c0-5.979 3.261-10.87 7.428-10.87h.453c3.895.362 6.884 5.072 6.884 10.87v.453c-.181 5.525-3.08 10.054-6.884 10.326-.272.09-.362.09-.544.09Zm0-21.378c-3.894 0-7.065 4.71-7.065 10.598v.453c.09 2.808.906 5.435 2.265 7.156 1.358 1.812 3.08 2.899 4.8 2.899h.453c3.624-.363 6.432-4.71 6.613-10.055v-.453c0-5.525-2.899-10.145-6.613-10.598h-.453Z" fill="#B28445"/><path d="M71.882 41.397H71.066h.091c3.714.362 6.703 4.982 6.703 10.689v.452c-.181 5.526-3.08 9.874-6.703 10.145h-.09.815c3.623-.362 6.612-4.8 6.703-10.145v-.452c0-5.707-2.99-10.327-6.703-10.689Z" fill="#F8B218"/><path d="M71.339 62.868h-.362v-.272h.09c3.623-.362 6.431-4.71 6.613-10.054v-.453c0-5.526-2.899-10.145-6.613-10.598h-.09v-.272h.996c3.895.363 6.884 5.073 6.884 10.87v.453c-.181 5.525-3.08 10.054-6.884 10.326h-.634Zm1.45-21.105c2.988 1.449 5.072 5.525 5.072 10.326v.453c-.09 4.62-2.265 8.424-5.073 9.873 3.08-.996 5.526-4.982 5.526-9.873v-.453c.09-4.982-2.265-9.33-5.526-10.326Z" fill="#B28445"/><path d="M75.436 37.235h-3.443c-2.808 0-5.434 1.54-7.337 4.439-1.902 2.717-2.898 6.431-2.898 10.326 0 4.076 1.087 7.79 3.08 10.598 1.902 2.717 4.438 4.167 7.065 4.167h3.442c2.536-.181 4.891-1.721 6.612-4.439 1.903-2.808 2.899-6.431 2.899-10.326 0-3.714-.996-7.428-2.808-10.145-1.63-2.717-3.986-4.257-6.612-4.62Z" fill="#875F27"/><path d="M81.41 52.083c0-3.895-1.086-7.156-2.716-9.783-1.178-1.721-2.537-3.08-4.167-3.714v-.725h-2.808c-5.254 0-9.602 6.341-9.602 14.13 0 4.077 1.178 7.7 2.99 10.327 1.72 2.355 4.076 3.895 6.612 3.895h2.808v-.634c4.076-1.902 6.884-7.156 6.884-13.496Z" fill="#F8B828"/><path d="M74.888 66.305H71.9c-2.536 0-4.891-1.45-6.703-4.076-1.902-2.718-2.989-6.431-2.989-10.326 0-7.881 4.348-14.312 9.692-14.312h2.99v.634c1.54.815 2.989 1.993 4.076 3.714 1.72 2.717 2.717 6.16 2.717 9.873 0 3.08-.634 6.069-1.902 8.515-1.268 2.355-2.899 4.166-4.801 5.072l-.09.906ZM71.9 37.953c-5.163 0-9.42 6.25-9.42 14.04 0 3.895 1.087 7.518 2.898 10.145 1.721 2.536 4.077 3.895 6.522 3.895h2.718V65.4h.09c1.902-.906 3.533-2.627 4.8-4.982 1.27-2.355 1.903-5.435 1.903-8.424 0-3.623-.996-7.065-2.627-9.692-1.268-1.721-2.717-2.99-4.166-3.623h-.091v-.725h-2.627Z" fill="#B28445"/><path d="M81.607 42.208c-1.721-2.718-4.167-4.439-6.884-4.439-5.254 0-9.602 6.34-9.602 14.13 0 4.077 1.178 7.7 2.99 10.327 1.72 2.355 4.075 3.895 6.612 3.895 5.253 0 9.601-6.34 9.601-14.13.09-3.715-1.087-7.157-2.717-9.783Zm-6.34 20.47h-.454c-1.902 0-3.623-1.177-4.982-2.898-1.358-1.812-2.264-4.438-2.264-7.337v-.453c0-5.797 3.26-10.688 7.156-10.688h.453c3.713.362 6.703 4.982 6.703 10.688v.453c0 5.526-2.99 9.873-6.613 10.236Z" fill="#F6E245"/><path d="M74.723 66.305c-2.536 0-4.891-1.449-6.703-4.076-1.902-2.717-2.989-6.431-2.989-10.326 0-7.88 4.348-14.312 9.692-14.312 2.718 0 5.163 1.54 6.975 4.439 1.721 2.717 2.718 6.16 2.718 9.873 0 7.971-4.348 14.402-9.693 14.402Zm0-28.351c-5.163 0-9.42 6.25-9.42 14.04 0 3.895 1.087 7.518 2.899 10.145 1.72 2.536 4.076 3.895 6.521 3.895 5.163 0 9.42-6.25 9.42-14.04 0-3.624-.996-7.066-2.626-9.693-1.812-2.808-4.167-4.347-6.794-4.347Zm0 24.91c-1.902 0-3.713-1.088-5.072-2.99-1.45-1.902-2.265-4.62-2.265-7.428v-.452c0-5.979 3.261-10.87 7.428-10.87h.453c3.895.362 6.884 5.072 6.884 10.87v.453c-.181 5.525-3.08 10.054-6.884 10.326-.09.09-.362.09-.544.09Zm0-21.378c-3.895 0-7.065 4.71-7.065 10.598v.453c.09 2.808.906 5.435 2.265 7.156 1.358 1.812 3.08 2.899 4.8 2.899h.453c3.623-.363 6.431-4.71 6.613-10.055v-.453c0-5.525-2.899-10.145-6.613-10.598h-.453Z" fill="#B28445"/><path d="M75.257 41.397H74.44h.091c3.714.362 6.703 4.982 6.703 10.689v.452c-.181 5.526-3.08 9.874-6.703 10.145h-.09.815c3.623-.362 6.612-4.8 6.703-10.145v-.452c0-5.707-2.99-10.327-6.703-10.689Z" fill="#F8B218"/><path d="M74.715 62.868h-.363v-.272h.09c3.534-.362 6.432-4.71 6.523-10.054v-.453c0-5.526-2.899-10.145-6.613-10.598h-.09v-.272h.996c3.895.363 6.884 5.073 6.884 10.87v.453c-.18 5.525-3.08 10.054-6.884 10.326h-.543Zm1.449-21.105c2.99 1.449 5.072 5.525 5.072 10.326v.453c-.09 4.62-2.264 8.424-5.072 9.873 3.08-.996 5.525-4.982 5.525-9.873v-.453c.182-4.982-2.264-9.33-5.525-10.326Z" fill="#B28445"/><path d="M78.588 37.235h-3.442c-2.808 0-5.435 1.54-7.337 4.439C65.906 44.482 64.91 48.105 64.91 52c0 4.076 1.087 7.79 3.08 10.598 1.902 2.717 4.438 4.167 7.065 4.167h3.442c2.537-.181 4.892-1.721 6.613-4.439 1.902-2.808 2.898-6.431 2.898-10.326 0-3.714-.996-7.428-2.808-10.145-1.54-2.717-3.985-4.257-6.612-4.62Z" fill="#875F27"/><path d="M84.677 52.088c0-3.895-1.088-7.156-2.718-9.783-1.178-1.72-2.536-3.08-4.167-3.714v-.724h-2.808c-5.253 0-9.601 6.34-9.601 14.13 0 4.076 1.177 7.7 2.989 10.327 1.721 2.355 4.076 3.894 6.612 3.894h2.899v-.634c3.986-1.902 6.794-7.156 6.794-13.496Z" fill="#F8B828"/><path d="M78.064 66.31h-2.99c-2.535 0-4.89-1.449-6.702-4.076-1.902-2.717-2.99-6.431-2.99-10.326 0-7.88 4.44-14.312 9.693-14.312h2.99v.634c1.539.816 2.988 1.993 4.075 3.714 1.721 2.717 2.718 6.16 2.718 9.873 0 6.25-2.718 11.685-6.703 13.587l-.09.906Zm-2.898-28.352c-5.164 0-9.42 6.25-9.42 14.04 0 3.896 1.086 7.519 2.898 10.146 1.72 2.536 4.076 3.895 6.521 3.895h2.718v-.635h.09c1.903-.905 3.533-2.626 4.801-4.981 1.268-2.356 1.903-5.435 1.903-8.425 0-3.623-.997-7.065-2.627-9.692-1.178-1.72-2.627-2.989-4.167-3.623h-.09v-.724h-2.628Z" fill="#B28445"/><path d="M84.86 42.218c-1.72-2.718-4.166-4.439-6.883-4.439-5.254 0-9.602 6.34-9.602 14.13 0 4.077 1.177 7.7 2.99 10.327 1.72 2.355 4.075 3.895 6.612 3.895 5.253 0 9.601-6.34 9.601-14.13 0-3.714-.996-7.156-2.717-9.783Zm-6.43 20.471h-.454c-1.902 0-3.623-1.178-4.981-2.899-1.36-1.811-2.265-4.438-2.265-7.337V52c0-5.797 3.261-10.688 7.156-10.688h.453c3.714.362 6.703 4.982 6.703 10.689v.452c0 5.526-2.899 9.874-6.612 10.236Z" fill="#F6E245"/><path d="M78.067 66.31c-2.536 0-4.891-1.449-6.703-4.076-1.902-2.717-2.989-6.43-2.989-10.326 0-7.79 4.257-14.221 9.692-14.221 2.718 0 5.163 1.54 6.975 4.439 1.72 2.717 2.717 6.159 2.717 9.873-.09 7.88-4.348 14.312-9.692 14.312Zm0-28.351c-5.163 0-9.42 6.25-9.42 14.04 0 3.895 1.087 7.518 2.898 10.145 1.721 2.536 4.076 3.895 6.522 3.895 5.163 0 9.42-6.25 9.42-14.04 0-3.623-.996-7.066-2.626-9.692-1.903-2.808-4.348-4.348-6.794-4.348Zm0 24.91c-1.902 0-3.714-1.087-5.072-2.99-1.45-1.902-2.265-4.62-2.265-7.427v-.453c0-5.979 3.261-10.87 7.428-10.87h.453c3.895.362 6.884 5.073 6.884 10.87v.453c-.181 5.525-3.08 10.054-6.884 10.326-.272.09-.544.09-.544.09Zm0-21.378c-3.895 0-7.065 4.71-7.065 10.598v.453c.09 2.808.906 5.435 2.264 7.156 1.36 1.812 3.08 2.899 4.801 2.899h.453c3.623-.363 6.431-4.71 6.612-10.055v-.453c0-5.525-2.898-10.145-6.612-10.598h-.453Z" fill="#B28445"/><path d="M78.432 41.39h-.815.09c3.715.362 6.704 4.982 6.704 10.688v.453c-.181 5.526-3.08 9.873-6.703 10.145h-.09H78.431c3.624-.362 6.613-4.8 6.703-10.145v-.453c.091-5.706-2.898-10.326-6.703-10.688Z" fill="#F8B218"/><path d="M78.07 62.86h-.363v-.271h.09c3.624-.362 6.432-4.71 6.613-10.054v-.453c0-5.526-2.899-10.145-6.612-10.598h-.091v-.272h.996c3.895.362 6.885 5.072 6.885 10.87v.453c-.272 5.525-3.17 9.963-6.975 10.326h-.544Zm1.358-21.105c2.99 1.45 5.073 5.526 5.073 10.327v.453c-.091 4.62-2.265 8.424-5.073 9.873 3.08-.997 5.526-4.982 5.526-9.873v-.453c.09-4.982-2.265-9.33-5.526-10.327Z" fill="#B28445"/><path d="M75.868 55.082v3.442h-.997v-1.45l.997-1.992ZM77.051 52.815l.453.815v4.891h-.996v-4.71l.543-.996ZM79.043 53.173v5.344h-.996v-3.26l.272-.182.634-1.45.09-.452ZM80.766 49.92v8.605h-.997v-6.613l.997-1.993Z" fill="#F6E245"/><path d="M78.059 53.535h-.272l-.725-1.45h.453l.544 1.45ZM74.867 57.064h-.453v1.54h.453v-1.54Z" fill="#875F27"/><path d="M74.867 57.074h-.453l.996-1.992h.453l-.996 1.992ZM76.597 53.804h-.453v4.71h.453v-4.71Z" fill="#875F27"/><path d="M76.507 53.81h-.363l.453-.995h.453l-.543.996ZM78.962 53.628h-.544l.272-.453h.362l-.09.453ZM78.325 55.08h-.544l.634-1.45h.544l-.634 1.45ZM78.053 55.263h-.272v-.181h.544l-.272.18Z" fill="#875F27"/><path d="M78.234 55.259h-.453V58.7h.453v-3.442ZM79.863 51.906h-.453v6.613h.453v-6.613Z" fill="#875F27"/><path d="M79.772 51.908h-.362l.996-1.993h.363l-.997 1.993ZM81.415 47.916h-.453l-.18-.724h.452l.181.724ZM80.498 45.749h-.453l-.272-.543h.453l.272.543ZM78.053 50.552h-.272l2.265-4.8h.453l-2.446 4.8ZM77.515 52.092h-.453l-.453-.906h.544l.362.906ZM76.422 49.73h-.453l.634-1.36h.543l-.724 1.36ZM74.07 54.809h-.543l2.446-5.073h.453L74.07 54.81Z" fill="#875F27"/><path d="M74.705 56.075h-.453l-.725-1.268h.544l.634 1.268Z" fill="#875F27"/><path d="M80.222 45.206H81.4v2.717l-.182-.724-2.355 4.891-.815 1.45-.543-1.45-.363-.906-2.445 4.892-.635-1.268 2.356-5.073.724-1.359.634 1.36.272.814 2.446-4.8-.272-.544Z" fill="#F6E245"/><path d="M92.61 52.927c0-1.697.378-3.213 1.136-4.548.775-1.351 1.821-2.397 3.14-3.139 1.334-.758 2.825-1.137 4.473-1.137 1.928 0 3.617.495 5.067 1.483 1.45.989 2.463 2.357 3.04 4.103h-3.98c-.395-.824-.955-1.442-1.68-1.854-.709-.412-1.533-.617-2.472-.617-1.005 0-1.903.238-2.694.716-.774.462-1.384 1.12-1.829 1.978-.428.856-.643 1.861-.643 3.015 0 1.137.215 2.142.643 3.015.445.857 1.055 1.524 1.83 2.002.79.462 1.688.692 2.693.692.939 0 1.763-.206 2.472-.618.725-.428 1.285-1.054 1.68-1.878h3.98c-.577 1.763-1.59 3.139-3.04 4.127-1.434.973-3.123 1.459-5.067 1.459-1.648 0-3.14-.371-4.474-1.112a8.439 8.439 0 0 1-3.139-3.14c-.758-1.334-1.137-2.85-1.137-4.547ZM118.501 61.8c-1.318 0-2.504-.288-3.559-.865a6.495 6.495 0 0 1-2.496-2.496c-.593-1.072-.89-2.307-.89-3.708 0-1.4.305-2.636.915-3.707a6.437 6.437 0 0 1 2.545-2.472c1.071-.593 2.266-.89 3.584-.89s2.513.297 3.584.89a6.275 6.275 0 0 1 2.521 2.472c.626 1.07.939 2.307.939 3.707s-.321 2.636-.964 3.708a6.57 6.57 0 0 1-2.57 2.496c-1.071.577-2.274.865-3.609.865Zm0-3.015a3.61 3.61 0 0 0 1.755-.445c.56-.313 1.005-.775 1.335-1.384.329-.61.494-1.352.494-2.225 0-1.302-.346-2.298-1.038-2.99-.676-.709-1.508-1.063-2.496-1.063-.989 0-1.821.354-2.497 1.063-.659.692-.988 1.688-.988 2.99 0 1.302.321 2.307.964 3.015.659.693 1.483 1.039 2.471 1.039ZM129.937 46.254c-.609 0-1.12-.19-1.532-.569a1.98 1.98 0 0 1-.593-1.458c0-.577.197-1.055.593-1.434.412-.395.923-.593 1.532-.593.61 0 1.112.198 1.508.593.412.38.618.857.618 1.434s-.206 1.063-.618 1.458c-.396.38-.898.569-1.508.569Zm1.706 1.63v13.694h-3.461V47.885h3.461ZM142.649 47.687c1.631 0 2.95.52 3.955 1.557 1.005 1.022 1.507 2.455 1.507 4.3v8.034h-3.46v-7.564c0-1.087-.272-1.92-.816-2.496-.543-.593-1.285-.89-2.224-.89-.956 0-1.714.297-2.274.89-.544.577-.815 1.409-.815 2.496v7.563h-3.461V47.886h3.461v1.705a4.69 4.69 0 0 1 1.754-1.384 5.437 5.437 0 0 1 2.373-.519ZM157.111 58.39l3.46-10.505h3.683l-5.067 13.693h-4.201l-5.042-13.693h3.707l3.46 10.504ZM178.926 54.435c0 .494-.033.939-.099 1.334h-10.01c.083.989.429 1.763 1.039 2.324.609.56 1.359.84 2.249.84 1.285 0 2.199-.552 2.743-1.656h3.732c-.395 1.318-1.153 2.406-2.274 3.262-1.12.84-2.496 1.26-4.127 1.26-1.318 0-2.505-.287-3.559-.864a6.367 6.367 0 0 1-2.447-2.496c-.577-1.072-.865-2.307-.865-3.708 0-1.417.288-2.66.865-3.732a6.037 6.037 0 0 1 2.422-2.471c1.038-.577 2.233-.866 3.584-.866 1.302 0 2.463.28 3.485.84a5.795 5.795 0 0 1 2.397 2.398c.577 1.022.865 2.2.865 3.535Zm-3.584-.99c-.016-.889-.337-1.597-.963-2.125-.627-.543-1.393-.815-2.299-.815-.857 0-1.582.263-2.175.79-.577.511-.931 1.228-1.063 2.15h6.5ZM186.692 61.8c-1.121 0-2.126-.198-3.016-.593-.889-.412-1.598-.964-2.125-1.656a4.218 4.218 0 0 1-.841-2.299h3.485c.066.527.322.964.767 1.31.461.346 1.029.52 1.705.52.659 0 1.17-.133 1.532-.396.379-.264.569-.602.569-1.014 0-.444-.231-.774-.692-.988-.445-.231-1.162-.478-2.15-.742-1.022-.247-1.862-.502-2.521-.766a4.481 4.481 0 0 1-1.681-1.211c-.462-.544-.692-1.277-.692-2.2a3.6 3.6 0 0 1 .642-2.076c.445-.626 1.071-1.12 1.879-1.483.824-.362 1.788-.544 2.892-.544 1.631 0 2.933.412 3.905 1.236.972.808 1.507 1.903 1.606 3.287h-3.312c-.049-.543-.28-.972-.692-1.285-.395-.33-.931-.494-1.606-.494-.626 0-1.113.115-1.459.346-.329.23-.494.552-.494.964 0 .461.231.816.692 1.063.462.23 1.178.47 2.15.716.989.248 1.805.503 2.447.767a4.17 4.17 0 0 1 1.656 1.235c.478.544.725 1.27.742 2.175 0 .791-.223 1.5-.668 2.126-.428.626-1.054 1.12-1.878 1.483-.807.346-1.755.519-2.842.519ZM198.949 50.727v6.624c0 .461.107.8.321 1.013.231.198.61.297 1.137.297h1.607v2.916h-2.175c-2.917 0-4.375-1.417-4.375-4.25v-6.6h-1.631v-2.842h1.631v-3.386h3.485v3.386h3.065v2.842h-3.065ZM203.613 54.682c0-1.384.272-2.612.815-3.683.561-1.071 1.31-1.895 2.249-2.471.956-.577 2.019-.866 3.189-.866 1.021 0 1.911.206 2.669.618.775.412 1.392.931 1.854 1.557v-1.952h3.485v13.693h-3.485v-2.003c-.445.643-1.063 1.179-1.854 1.607-.774.412-1.672.618-2.694.618a5.885 5.885 0 0 1-3.164-.89c-.939-.593-1.688-1.425-2.249-2.496-.543-1.088-.815-2.332-.815-3.732Zm10.776.05c0-.841-.165-1.558-.494-2.151-.33-.61-.775-1.071-1.335-1.384a3.498 3.498 0 0 0-1.804-.495c-.643 0-1.236.157-1.78.47-.544.313-.989.775-1.335 1.384-.329.593-.494 1.302-.494 2.126 0 .824.165 1.549.494 2.175.346.61.791 1.079 1.335 1.409.56.33 1.153.494 1.78.494a3.64 3.64 0 0 0 1.804-.47c.56-.33 1.005-.79 1.335-1.384.329-.61.494-1.334.494-2.175ZM226.493 61.8c-1.12 0-2.126-.198-3.015-.593-.89-.412-1.599-.964-2.126-1.656a4.209 4.209 0 0 1-.84-2.299h3.485c.066.527.321.964.766 1.31.461.346 1.03.52 1.705.52.659 0 1.17-.133 1.533-.396.379-.264.568-.602.568-1.014 0-.444-.23-.774-.692-.988-.445-.231-1.161-.478-2.15-.742-1.022-.247-1.862-.502-2.521-.766a4.481 4.481 0 0 1-1.681-1.211c-.461-.544-.692-1.277-.692-2.2 0-.758.214-1.45.643-2.076.445-.626 1.071-1.12 1.878-1.483.824-.362 1.788-.544 2.892-.544 1.631 0 2.933.412 3.905 1.236.972.808 1.508 1.903 1.607 3.287h-3.312c-.05-.543-.28-.972-.692-1.285-.396-.33-.931-.494-1.607-.494-.626 0-1.112.115-1.458.346a1.11 1.11 0 0 0-.495.964c0 .461.231.816.693 1.063.461.23 1.178.47 2.15.716.988.248 1.804.503 2.447.767a4.184 4.184 0 0 1 1.656 1.235c.478.544.725 1.27.741 2.175 0 .791-.222 1.5-.667 2.126-.429.626-1.055 1.12-1.879 1.483-.807.346-1.754.519-2.842.519ZM236.476 46.254c-.609 0-1.12-.19-1.532-.569a1.984 1.984 0 0 1-.593-1.458c0-.577.198-1.055.593-1.434.412-.395.923-.593 1.532-.593.61 0 1.113.198 1.508.593.412.38.618.857.618 1.434s-.206 1.063-.618 1.458c-.395.38-.898.569-1.508.569Zm1.706 1.63v13.694h-3.46V47.885h3.46Z" fill="#fff"/></svg>