<svg width="182" height="30" viewBox="0 0 182 30" fill="none" xmlns="http://www.w3.org/2000/svg">
<path d="M14.5757 0.235352H11.1337C8.32569 0.235352 5.69885 1.77522 3.79665 4.6738C1.89446 7.39122 0.898071 11.105 0.898071 15C0.898071 19.0761 1.98504 22.7899 3.97781 25.5979C5.88001 28.3154 8.41627 29.7646 11.0431 29.7646H14.4852C17.0214 29.5835 19.3765 28.0436 21.0976 25.3262C22.9998 22.5182 23.9961 18.895 23.9961 15C23.9961 11.2862 22.9998 7.57239 21.1881 4.85497C19.5577 2.13755 17.112 0.597674 14.5757 0.235352Z" fill="#875F27"/>
<path d="M20.5488 15.0824C20.5488 11.1874 19.4618 7.9265 17.8314 5.29966C16.6538 3.57863 15.2951 2.21992 13.6647 1.58585V0.861206H10.8567C5.603 0.861206 1.25513 7.20185 1.25513 14.9918C1.25513 19.0679 2.43268 22.6911 4.24429 25.318C5.96532 27.6731 8.32042 29.213 10.8567 29.213H13.6647V28.5789C17.7408 26.6767 20.5488 21.423 20.5488 15.0824Z" fill="#F8B828"/>
<path d="M13.8457 29.3049H10.8566C8.3203 29.3049 5.96521 27.8556 4.15359 25.2288C2.2514 22.5113 1.16443 18.8881 1.16443 14.9026C1.16443 7.02205 5.60288 0.59082 10.9471 0.59082H13.9363V1.22488C15.4762 2.04011 16.9255 3.21766 18.0124 4.93869C19.7335 7.65611 20.7299 11.0982 20.7299 14.812C20.7299 21.0621 18.0124 26.4969 14.0269 28.3991L13.8457 29.3049ZM10.9471 0.953143C5.78404 0.953143 1.52675 7.20321 1.52675 14.9931C1.52675 18.8881 2.61372 22.5113 4.42533 25.1382C6.14637 27.6744 8.50146 29.0332 10.9471 29.0332H13.6646V28.3991H13.7551C15.6573 27.4933 17.2878 25.7723 18.5559 23.4172C19.824 21.0621 20.4581 17.9823 20.4581 14.9931C20.4581 11.3699 19.4617 7.92786 17.8313 5.30102C16.5631 3.57998 15.1139 2.31185 13.6646 1.67779H13.574V0.953143H10.9471Z" fill="#B28445"/>
<path d="M20.8181 5.20786C19.097 2.49044 16.6514 0.769409 13.934 0.769409C8.58969 0.85999 4.24182 7.20064 4.24182 14.9C4.24182 18.9761 5.41937 22.5994 7.23098 25.2262C8.95202 27.5813 11.3071 29.1212 13.8434 29.1212C19.097 29.1212 23.4449 22.7805 23.4449 14.9906C23.3543 11.2768 22.4485 7.8347 20.8181 5.20786ZM14.3869 25.6791C14.2057 25.6791 14.1151 25.6791 13.934 25.6791C12.0318 25.6791 10.3107 24.5016 8.95202 22.7805C7.59331 20.9689 6.6875 18.3421 6.6875 15.4435C6.6875 15.2623 6.6875 15.1717 6.6875 14.9906C6.6875 9.19341 9.9484 4.30206 13.8434 4.30206C14.0245 4.30206 14.1151 4.30206 14.2963 4.30206C18.0101 4.66438 20.9992 9.28399 20.9992 14.9906C20.9992 15.1717 20.9992 15.2623 20.9992 15.4435C20.9087 20.9689 18.0101 25.3168 14.3869 25.6791Z" fill="#F6E245"/>
<path d="M13.8467 29.3055C11.3105 29.3055 8.95538 27.8562 7.14376 25.2294C5.24157 22.512 4.1546 18.8887 4.1546 14.9032C4.1546 7.02266 8.50248 0.591431 13.8467 0.591431C16.5642 0.591431 19.0098 2.1313 20.8214 5.02988C22.5425 7.7473 23.5389 11.1894 23.5389 14.9032C23.4483 22.8743 19.1004 29.3055 13.8467 29.3055ZM13.8467 0.953753C8.68364 0.953753 4.42634 7.20382 4.42634 14.9938C4.42634 18.8887 5.51331 22.512 7.32493 25.1388C9.04596 27.6751 11.4011 29.0338 13.8467 29.0338C19.0098 29.0338 23.2671 22.7837 23.2671 14.9938C23.2671 11.3705 22.2707 7.92847 20.6403 5.30163C18.8287 2.49363 16.4736 0.953753 13.8467 0.953753ZM13.8467 25.8634C11.9445 25.8634 10.1329 24.7765 8.77422 22.8743C7.32493 20.9721 6.5097 18.2547 6.5097 15.4467C6.5097 15.2655 6.5097 15.1749 6.5097 14.9938C6.5097 9.01543 9.77061 4.12408 13.9373 4.12408C14.1185 4.12408 14.2091 4.12408 14.3902 4.12408C18.2852 4.4864 21.2744 9.1966 21.2744 14.9938C21.2744 15.1749 21.2744 15.2655 21.2744 15.4467C21.0932 20.9721 18.1946 25.5011 14.3902 25.7729C14.1185 25.8634 14.0279 25.8634 13.8467 25.8634ZM13.8467 4.4864C9.95177 4.4864 6.78144 9.1966 6.78144 15.0843C6.78144 15.2655 6.78144 15.3561 6.78144 15.5372C6.87202 18.3452 7.68725 20.9721 9.04596 22.6931C10.4047 24.5047 12.1257 25.5917 13.8467 25.5917C14.0279 25.5917 14.1185 25.5917 14.2996 25.5917C17.9229 25.2294 20.7309 20.8815 20.912 15.5372C20.912 15.3561 20.912 15.2655 20.912 15.0843C20.912 9.55892 18.0134 4.9393 14.2996 4.4864C14.1185 4.4864 13.8467 4.4864 13.8467 4.4864Z" fill="#B28445"/>
<path d="M14.3854 4.39734C14.2042 4.39734 14.1136 4.39734 13.9325 4.39734C13.8419 4.39734 13.6607 4.39734 13.5701 4.39734H13.6607C17.3745 4.75966 20.3637 9.37927 20.3637 15.0859C20.3637 15.267 20.3637 15.3576 20.3637 15.5388C20.1825 21.0642 17.2839 25.4121 13.6607 25.6838H13.5701C13.6607 25.6838 13.8419 25.6838 13.9325 25.6838C14.1136 25.6838 14.2042 25.6838 14.3854 25.6838C18.0086 25.3215 20.9977 20.883 21.0883 15.5388C21.0883 15.3576 21.0883 15.267 21.0883 15.0859C21.0883 9.37927 18.0992 4.75966 14.3854 4.39734Z" fill="#F8B218"/>
<path d="M13.8418 25.8681C13.7512 25.8681 13.57 25.8681 13.4794 25.8681V25.5964H13.57C17.1932 25.2341 20.0012 20.8862 20.1824 15.5419C20.1824 15.3608 20.1824 15.2702 20.1824 15.089C20.1824 9.56362 17.2838 4.94401 13.57 4.4911H13.4794V4.21936C13.7512 4.21936 14.0229 4.21936 14.4758 4.21936C18.3708 4.58168 21.36 9.29188 21.36 15.089C21.36 15.2702 21.36 15.3608 21.36 15.5419C21.1788 21.0674 18.2802 25.5964 14.4758 25.8681C14.1135 25.8681 14.0229 25.8681 13.8418 25.8681ZM15.291 4.76284C18.2802 6.21213 20.3636 10.2883 20.3636 15.089C20.3636 15.2702 20.3636 15.3608 20.3636 15.5419C20.273 20.1616 18.099 23.9659 15.291 25.4152C18.3708 24.4188 20.8165 20.4333 20.8165 15.5419C20.8165 15.3608 20.8165 15.2702 20.8165 15.089C20.907 10.1071 18.5519 5.75923 15.291 4.76284Z" fill="#B28445"/>
<path d="M17.9347 0.235352H14.4926C11.6846 0.235352 9.05779 1.77522 7.1556 4.6738C5.25341 7.39122 4.25702 11.105 4.25702 15C4.25702 19.0761 5.34399 22.7899 7.33676 25.5979C9.23895 28.3154 11.7752 29.7646 14.4021 29.7646H17.8441C20.3804 29.5835 22.7355 28.0436 24.4565 25.3262C26.3587 22.5182 27.3551 18.895 27.3551 15C27.3551 11.2862 26.3587 7.57239 24.5471 4.85497C22.9166 2.13755 20.5615 0.597674 17.9347 0.235352Z" fill="#875F27"/>
<path d="M23.9108 15.0824C23.9108 11.1874 22.8238 7.9265 21.1933 5.29966C20.0158 3.57863 18.6571 2.21992 17.0266 1.58585V0.861206H14.2186C8.96494 0.861206 4.61707 7.20185 4.61707 14.9918C4.61707 19.0679 5.79461 22.6911 7.60623 25.318C9.32726 27.6731 11.6824 29.213 14.2186 29.213H17.0266V28.5789C21.1028 26.6767 23.9108 21.423 23.9108 15.0824Z" fill="#F8B828"/>
<path d="M17.3891 29.3049H14.3999C11.8636 29.3049 9.50854 27.8556 7.69693 25.2288C5.79473 22.5113 4.70776 18.7975 4.70776 14.9026C4.70776 7.02205 9.05564 0.59082 14.3999 0.59082H17.3891V1.22488C18.9289 2.04011 20.3782 3.21766 21.4652 4.93869C23.1862 7.65611 24.1826 11.0982 24.1826 14.812C24.1826 17.8917 23.5485 20.8809 22.2804 23.3266C21.0123 25.6817 19.3818 27.4933 17.4796 28.3991L17.3891 29.3049ZM14.3999 0.953143C9.2368 0.953143 4.97951 7.20321 4.97951 14.9931C4.97951 18.8881 6.06647 22.5113 7.87809 25.1382C9.59912 27.6744 11.9542 29.0332 14.3999 29.0332H17.1173V28.3991H17.2079C19.1101 27.4933 20.7405 25.7723 22.0087 23.4172C23.2768 21.0621 23.9109 17.9823 23.9109 14.9931C23.9109 11.3699 22.9145 7.92786 21.284 5.30102C20.0159 3.57998 18.5666 2.31185 17.1173 1.67779H17.0267V0.953143H14.3999Z" fill="#B28445"/>
<path d="M24.1064 5.20786C22.3854 2.49044 19.9397 0.769409 17.2223 0.769409C11.9686 0.769409 7.62073 7.11006 7.62073 14.9C7.62073 18.9761 8.79828 22.5994 10.6099 25.2262C12.3309 27.5813 14.686 29.1212 17.2223 29.1212C22.476 29.1212 26.8238 22.7805 26.8238 14.9906C26.9144 11.2768 25.7369 7.8347 24.1064 5.20786ZM17.7658 25.6791C17.5846 25.6791 17.494 25.6791 17.3129 25.6791C15.4107 25.6791 13.6896 24.5016 12.3309 22.7805C10.9722 20.9689 10.0664 18.3421 10.0664 15.4435C10.0664 15.2623 10.0664 15.1717 10.0664 14.9906C10.0664 9.19341 13.3273 4.30206 17.2223 4.30206C17.4034 4.30206 17.494 4.30206 17.6752 4.30206C21.389 4.66438 24.3782 9.28399 24.3782 14.9906C24.3782 15.1717 24.3782 15.2623 24.3782 15.4435C24.3782 20.9689 21.389 25.3168 17.7658 25.6791Z" fill="#F6E245"/>
<path d="M17.2222 29.3055C14.6859 29.3055 12.3308 27.8562 10.5192 25.2294C8.617 22.512 7.53003 18.7981 7.53003 14.9032C7.53003 7.02266 11.8779 0.591431 17.2222 0.591431C19.9396 0.591431 22.3853 2.1313 24.1969 5.02988C25.9179 7.7473 26.9143 11.1894 26.9143 14.9032C26.9143 22.8743 22.5664 29.3055 17.2222 29.3055ZM17.2222 0.953753C12.0591 0.953753 7.80177 7.20382 7.80177 14.9938C7.80177 18.8887 8.88874 22.512 10.7004 25.1388C12.4214 27.6751 14.7765 29.0338 17.2222 29.0338C22.3853 29.0338 26.6426 22.7837 26.6426 14.9938C26.6426 11.3705 25.6462 7.92847 24.0157 5.30163C22.2041 2.49363 19.849 0.953753 17.2222 0.953753ZM17.2222 25.8634C15.32 25.8634 13.5084 24.7765 12.1496 22.8743C10.7004 20.9721 9.88513 18.2547 9.88513 15.4467C9.88513 15.2655 9.88513 15.1749 9.88513 14.9938C9.88513 9.01543 13.146 4.12408 17.3127 4.12408C17.4939 4.12408 17.5845 4.12408 17.7656 4.12408C21.6606 4.4864 24.6498 9.1966 24.6498 14.9938C24.6498 15.1749 24.6498 15.2655 24.6498 15.4467C24.4686 20.9721 21.57 25.5011 17.7656 25.7729C17.6751 25.8634 17.4033 25.8634 17.2222 25.8634ZM17.2222 4.4864C13.3272 4.4864 10.1569 9.1966 10.1569 15.0843C10.1569 15.2655 10.1569 15.3561 10.1569 15.5372C10.2474 18.3452 11.0627 20.9721 12.4214 22.6931C13.7801 24.5047 15.5011 25.5917 17.2222 25.5917C17.4033 25.5917 17.4939 25.5917 17.6751 25.5917C21.2983 25.2294 24.1063 20.8815 24.2875 15.5372C24.2875 15.3561 24.2875 15.2655 24.2875 15.0843C24.2875 9.55892 21.3889 4.9393 17.6751 4.4864C17.5845 4.4864 17.4033 4.4864 17.2222 4.4864Z" fill="#B28445"/>
<path d="M17.7555 4.39734C17.5743 4.39734 17.4837 4.39734 17.3026 4.39734C17.212 4.39734 17.0308 4.39734 16.9402 4.39734H17.0308C20.7446 4.75966 23.7338 9.37927 23.7338 15.0859C23.7338 15.267 23.7338 15.3576 23.7338 15.5388C23.5526 21.0642 20.6541 25.4121 17.0308 25.6838H16.9402C17.0308 25.6838 17.212 25.6838 17.3026 25.6838C17.4837 25.6838 17.5743 25.6838 17.7555 25.6838C21.3787 25.3215 24.3679 20.883 24.4584 15.5388C24.4584 15.3576 24.4584 15.267 24.4584 15.0859C24.4584 9.37927 21.4693 4.75966 17.7555 4.39734Z" fill="#F8B218"/>
<path d="M17.2117 25.8681C17.1211 25.8681 16.94 25.8681 16.8494 25.8681V25.5964H16.94C20.4726 25.2341 23.3712 20.8862 23.4618 15.5419C23.4618 15.3608 23.4618 15.2702 23.4618 15.089C23.4618 9.56362 20.5632 4.94401 16.8494 4.4911H16.7588V4.21936C17.0305 4.21936 17.3023 4.21936 17.7552 4.21936C21.6501 4.58168 24.6393 9.29188 24.6393 15.089C24.6393 15.2702 24.6393 15.3608 24.6393 15.5419C24.4581 21.0674 21.5596 25.5964 17.7552 25.8681C17.6646 25.8681 17.3929 25.8681 17.2117 25.8681ZM18.661 4.76284C21.6501 6.21213 23.7335 10.2883 23.7335 15.089C23.7335 15.2702 23.7335 15.3608 23.7335 15.5419C23.6429 20.1616 21.469 23.9659 18.661 25.4152C21.7407 24.4188 24.1864 20.4333 24.1864 15.5419C24.1864 15.3608 24.1864 15.2702 24.1864 15.089C24.3676 10.1071 21.9219 5.75923 18.661 4.76284Z" fill="#B28445"/>
<path d="M21.0877 0.235352H17.6456C14.8376 0.235352 12.2107 1.77522 10.3086 4.6738C8.40636 7.48181 7.40997 11.105 7.40997 15C7.40997 19.0761 8.49694 22.7899 10.4897 25.5979C12.3919 28.3154 14.9282 29.7646 17.555 29.7646H20.9971C23.5333 29.5835 25.8884 28.0436 27.6095 25.3262C29.5117 22.5182 30.508 18.895 30.508 15C30.508 11.2862 29.5117 7.57239 27.7 4.85497C26.1602 2.13755 23.7145 0.597674 21.0877 0.235352Z" fill="#875F27"/>
<path d="M27.1748 15.0876C27.1748 11.1927 26.0879 7.93175 24.4574 5.30491C23.2799 3.58388 21.9212 2.22517 20.2907 1.5911V0.866455H17.4827C12.229 0.866455 7.88116 7.2071 7.88116 14.997C7.88116 19.0732 9.05871 22.6964 10.8703 25.3232C12.5914 27.6783 14.9465 29.2182 17.4827 29.2182H20.3813V28.5841C24.3668 26.6819 27.1748 21.4283 27.1748 15.0876Z" fill="#F8B828"/>
<path d="M20.5625 29.3101H17.5733C15.037 29.3101 12.6819 27.8609 10.8703 25.234C8.96813 22.5166 7.88116 18.8028 7.88116 14.9078C7.88116 7.0273 12.3196 0.596069 17.5733 0.596069H20.5625V1.23013C22.1023 2.04536 23.5516 3.22291 24.6386 4.94394C26.3596 7.66136 27.356 11.1034 27.356 14.8172C27.356 21.0673 24.6386 26.5021 20.653 28.4043L20.5625 29.3101ZM17.6639 0.958392C12.5008 0.958392 8.24349 7.20846 8.24349 14.9984C8.24349 18.8934 9.33046 22.5166 11.1421 25.1434C12.8631 27.6797 15.2182 29.0384 17.6639 29.0384H20.3813V28.4043H20.4719C22.3741 27.4985 24.0045 25.7775 25.2727 23.4224C26.5408 21.0673 27.1749 17.9876 27.1749 14.9984C27.1749 11.3752 26.1785 7.9331 24.548 5.30627C23.3705 3.58523 21.9212 2.3171 20.3813 1.68304H20.2907V0.958392H17.6639Z" fill="#B28445"/>
<path d="M27.3595 5.21787C25.6384 2.50045 23.1927 0.779419 20.4753 0.779419C15.2217 0.779419 10.8738 7.12007 10.8738 14.91C10.8738 18.9861 12.0513 22.6094 13.8629 25.2362C15.584 27.5913 17.9391 29.1312 20.4753 29.1312C25.729 29.1312 30.0769 22.7905 30.0769 15.0006C30.0769 11.2868 29.0805 7.84471 27.3595 5.21787ZM20.9282 25.6891C20.7471 25.6891 20.6565 25.6891 20.4753 25.6891C18.5731 25.6891 16.8521 24.5116 15.4934 22.7905C14.1347 20.9789 13.2289 18.3521 13.2289 15.4535C13.2289 15.2723 13.2289 15.1817 13.2289 15.0006C13.2289 9.20342 16.4898 4.31207 20.3847 4.31207C20.5659 4.31207 20.6565 4.31207 20.8377 4.31207C24.5515 4.67439 27.5406 9.294 27.5406 15.0006C27.5406 15.1817 27.5406 15.2723 27.5406 15.4535C27.5406 20.9789 24.642 25.3268 20.9282 25.6891Z" fill="#F6E245"/>
<path d="M20.5659 29.3105C18.0297 29.3105 15.6746 27.8612 13.8629 25.2344C11.9607 22.517 10.8738 18.8031 10.8738 14.9082C10.8738 7.11824 15.1311 0.687012 20.5659 0.687012C23.2833 0.687012 25.729 2.22688 27.5406 5.12546C29.2617 7.84288 30.258 11.2849 30.258 14.9988C30.1675 22.8793 25.9102 29.3105 20.5659 29.3105ZM20.5659 0.958754C15.4028 0.958754 11.1455 7.20882 11.1455 14.9988C11.1455 18.8937 12.2325 22.517 14.0441 25.1438C15.7651 27.68 18.1202 29.0388 20.5659 29.0388C25.729 29.0388 29.9863 22.7887 29.9863 14.9988C29.9863 11.3755 28.9899 7.93347 27.3595 5.30663C25.4573 2.49863 23.0116 0.958754 20.5659 0.958754ZM20.5659 25.8684C18.6637 25.8684 16.8521 24.7815 15.4934 22.8793C14.0441 20.9771 13.2289 18.2597 13.2289 15.4517C13.2289 15.2705 13.2289 15.1799 13.2289 14.9988C13.2289 9.02043 16.4898 4.12908 20.6565 4.12908C20.8377 4.12908 20.9282 4.12908 21.1094 4.12908C25.0044 4.4914 27.9935 9.20159 27.9935 14.9988C27.9935 15.1799 27.9935 15.2705 27.9935 15.4517C27.8124 20.9771 24.9138 25.5061 21.1094 25.7779C20.8377 25.8684 20.5659 25.8684 20.5659 25.8684ZM20.5659 4.4914C16.6709 4.4914 13.5006 9.20159 13.5006 15.0893C13.5006 15.2705 13.5006 15.3611 13.5006 15.5422C13.5912 18.3502 14.4064 20.9771 15.7651 22.6981C17.1238 24.5097 18.8449 25.5967 20.5659 25.5967C20.7471 25.5967 20.8377 25.5967 21.0188 25.5967C24.642 25.2344 27.45 20.8865 27.6312 15.5422C27.6312 15.3611 27.6312 15.2705 27.6312 15.0893C27.6312 9.56392 24.7326 4.9443 21.0188 4.4914C20.8377 4.4914 20.5659 4.4914 20.5659 4.4914Z" fill="#B28445"/>
<path d="M20.9316 4.39014C20.7505 4.39014 20.6599 4.39014 20.4787 4.39014C20.3881 4.39014 20.207 4.39014 20.1164 4.39014H20.207C23.9208 4.75246 26.9099 9.37207 26.9099 15.0787C26.9099 15.2598 26.9099 15.3504 26.9099 15.5316C26.7288 21.057 23.8302 25.4048 20.207 25.6766H20.1164C20.207 25.6766 20.3881 25.6766 20.4787 25.6766C20.6599 25.6766 20.7505 25.6766 20.9316 25.6766C24.5548 25.3143 27.544 20.8758 27.6346 15.5316C27.6346 15.3504 27.6346 15.2598 27.6346 15.0787C27.7252 9.37207 24.736 4.75246 20.9316 4.39014Z" fill="#F8B218"/>
<path d="M20.5694 25.8609C20.4788 25.8609 20.2977 25.8609 20.2071 25.8609V25.5892H20.2977C23.9209 25.2269 26.7289 20.879 26.9101 15.5347C26.9101 15.3536 26.9101 15.263 26.9101 15.0818C26.9101 9.55642 24.0115 4.9368 20.2977 4.4839H20.2071V4.21216C20.4788 4.21216 20.7506 4.21216 21.2035 4.21216C25.0985 4.57448 28.0876 9.28468 28.0876 15.0818C28.0876 15.263 28.0876 15.3536 28.0876 15.5347C27.8159 21.0602 24.9173 25.4986 21.1129 25.8609C20.8412 25.8609 20.5694 25.8609 20.5694 25.8609ZM21.9281 4.75564C24.9173 6.20493 27.0006 10.2811 27.0006 15.0818C27.0006 15.263 27.0006 15.3536 27.0006 15.5347C26.9101 20.1544 24.7361 23.9587 21.9281 25.408C25.0079 24.4116 27.4535 20.4261 27.4535 15.5347C27.4535 15.3536 27.4535 15.263 27.4535 15.0818C27.5441 10.0999 25.189 5.75203 21.9281 4.75564Z" fill="#B28445"/>
<path d="M18.367 18.0822V21.5242H17.3706V20.0749L18.367 18.0822Z" fill="#F6E245"/>
<path d="M19.55 15.8147L20.0029 16.6299V16.7205V21.5213H19.0065V16.8111L19.55 15.8147Z" fill="#F6E245"/>
<path d="M21.5437 16.1727V21.517H20.5473V18.2561L20.819 18.0749L21.4531 16.6256L21.5437 16.1727Z" fill="#F6E245"/>
<path d="M23.2668 12.9194V21.5246H22.2704V14.9122L23.2668 12.9194Z" fill="#F6E245"/>
<path d="M20.5585 16.5346H20.2867L19.5621 15.0853H20.015L20.5585 16.5346Z" fill="#875F27"/>
<path d="M17.3688 20.0638H16.9159V21.6037H17.3688V20.0638Z" fill="#875F27"/>
<path d="M17.3688 20.0746H16.9159L17.9123 18.0818H18.3652L17.3688 20.0746Z" fill="#875F27"/>
<path d="M19.0998 16.804H18.6469V21.5142H19.0998V16.804Z" fill="#875F27"/>
<path d="M19.0092 16.8106H18.6469L19.0998 15.8142H19.5527L19.0092 16.8106Z" fill="#875F27"/>
<path d="M21.4605 16.6278H20.917L21.1887 16.1749H21.5511L21.4605 16.6278Z" fill="#875F27"/>
<path d="M20.8236 18.0802H20.2802L20.9142 16.6309H21.4577L20.8236 18.0802Z" fill="#875F27"/>
<path d="M20.5519 18.2629H20.2802V18.0818H20.8236L20.5519 18.2629Z" fill="#875F27"/>
<path d="M20.7331 18.2588H20.2802V21.7009H20.7331V18.2588Z" fill="#875F27"/>
<path d="M22.3637 14.9064H21.9108V21.5188H22.3637V14.9064Z" fill="#875F27"/>
<path d="M22.2731 14.9078H21.9108L22.9072 12.915H23.2695L22.2731 14.9078Z" fill="#875F27"/>
<path d="M23.9164 10.9163H23.4635L23.2823 10.1917H23.7353L23.9164 10.9163Z" fill="#875F27"/>
<path d="M23.0002 8.74905H22.5473L22.2755 8.20557H22.7284L23.0002 8.74905Z" fill="#875F27"/>
<path d="M20.5519 13.5521H20.2802L22.5447 8.75134H22.9976L20.5519 13.5521Z" fill="#875F27"/>
<path d="M20.0152 15.092H19.5623L19.1094 14.1862H19.6529L20.0152 15.092Z" fill="#875F27"/>
<path d="M18.9227 12.7291H18.4698L19.1039 11.3704H19.6473L18.9227 12.7291Z" fill="#875F27"/>
<path d="M16.5718 17.8088H16.0283L18.474 12.7363H18.9269L16.5718 17.8088Z" fill="#875F27"/>
<path d="M17.2054 19.075H16.7525L16.0279 17.8069H16.5714L17.2054 19.075Z" fill="#875F27"/>
<path d="M22.7214 8.20605H23.899V10.9235L23.7178 10.1988L21.3627 15.0902L20.5475 16.5395L20.004 15.0902L19.6417 14.1844L17.196 19.0757L16.562 17.8076L18.917 12.7351L19.6417 11.3764L20.2758 12.7351L20.5475 13.5503L22.9932 8.74954L22.7214 8.20605Z" fill="#F6E245"/>
<path d="M35.1094 15.9268C35.1094 14.2296 35.4884 12.7137 36.2463 11.3791C37.0207 10.0279 38.067 8.98161 39.3852 8.24013C40.7199 7.48218 42.2111 7.1032 43.8588 7.1032C45.7867 7.1032 47.4756 7.59752 48.9256 8.58616C50.3756 9.57479 51.3889 10.9424 51.9656 12.689H47.9864C47.5909 11.8651 47.0307 11.2472 46.3057 10.8353C45.5972 10.4234 44.7733 10.2174 43.8341 10.2174C42.829 10.2174 41.931 10.4563 41.1401 10.9342C40.3656 11.3955 39.756 12.0546 39.3111 12.9114C38.8827 13.7683 38.6685 14.7734 38.6685 15.9268C38.6685 17.0637 38.8827 18.0688 39.3111 18.9421C39.756 19.799 40.3656 20.4663 41.1401 20.9441C41.931 21.4055 42.829 21.6362 43.8341 21.6362C44.7733 21.6362 45.5972 21.4302 46.3057 21.0183C47.0307 20.5899 47.5909 19.9637 47.9864 19.1399H51.9656C51.3889 20.9029 50.3756 22.2788 48.9256 23.2674C47.4921 24.2396 45.8031 24.7257 43.8588 24.7257C42.2111 24.7257 40.7199 24.3549 39.3852 23.6134C38.067 22.8555 37.0207 21.8092 36.2463 20.4745C35.4884 19.1399 35.1094 17.6239 35.1094 15.9268Z" fill="white"/>
<path d="M61.0012 24.7998C59.6831 24.7998 58.4967 24.5115 57.4422 23.9348C56.3876 23.3416 55.5555 22.5095 54.9458 21.4384C54.3527 20.3674 54.0561 19.1316 54.0561 17.7311C54.0561 16.3305 54.3609 15.0947 54.9706 14.0237C55.5967 12.9526 56.4453 12.1288 57.5163 11.5521C58.5873 10.9589 59.7819 10.6623 61.1001 10.6623C62.4183 10.6623 63.6129 10.9589 64.6839 11.5521C65.7549 12.1288 66.5953 12.9526 67.2049 14.0237C67.8311 15.0947 68.1441 16.3305 68.1441 17.7311C68.1441 19.1316 67.8228 20.3674 67.1802 21.4384C66.5541 22.5095 65.6973 23.3416 64.6098 23.9348C63.5387 24.5115 62.3359 24.7998 61.0012 24.7998ZM61.0012 21.7845C61.6274 21.7845 62.2123 21.6362 62.7561 21.3396C63.3163 21.0265 63.7612 20.5651 64.0907 19.9555C64.4203 19.3458 64.5851 18.6043 64.5851 17.7311C64.5851 16.4293 64.239 15.4325 63.547 14.7404C62.8714 14.0319 62.0393 13.6776 61.0507 13.6776C60.062 13.6776 59.2299 14.0319 58.5544 14.7404C57.8953 15.4325 57.5657 16.4293 57.5657 17.7311C57.5657 19.0328 57.887 20.0379 58.5297 20.7464C59.1887 21.4384 60.0126 21.7845 61.0012 21.7845Z" fill="white"/>
<path d="M72.4372 9.25349C71.8275 9.25349 71.3167 9.064 70.9048 8.68502C70.5093 8.28956 70.3116 7.80348 70.3116 7.22678C70.3116 6.65007 70.5093 6.17223 70.9048 5.79326C71.3167 5.3978 71.8275 5.20007 72.4372 5.20007C73.0469 5.20007 73.5494 5.3978 73.9449 5.79326C74.3568 6.17223 74.5628 6.65007 74.5628 7.22678C74.5628 7.80348 74.3568 8.28956 73.9449 8.68502C73.5494 9.064 73.0469 9.25349 72.4372 9.25349ZM74.1426 10.8847V24.5774H70.6824V10.8847H74.1426Z" fill="white"/>
<path d="M85.1491 10.687C86.7803 10.687 88.0985 11.206 89.1036 12.2441C90.1088 13.2657 90.6113 14.6992 90.6113 16.5447V24.5774H87.1511V17.0143C87.1511 15.9268 86.8792 15.0947 86.3355 14.518C85.7917 13.9248 85.0502 13.6282 84.111 13.6282C83.1553 13.6282 82.3974 13.9248 81.8372 14.518C81.2934 15.0947 81.0215 15.9268 81.0215 17.0143V24.5774H77.5613V10.8847H81.0215V12.5901C81.4829 11.997 82.0678 11.5356 82.7764 11.206C83.5014 10.86 84.2923 10.687 85.1491 10.687Z" fill="white"/>
<path d="M99.6112 21.389L103.071 10.8847H106.754L101.687 24.5774H97.4856L92.4436 10.8847H96.151L99.6112 21.389Z" fill="white"/>
<path d="M121.426 17.4345C121.426 17.9288 121.393 18.3737 121.327 18.7691H111.317C111.4 19.7578 111.746 20.5322 112.356 21.0924C112.965 21.6526 113.715 21.9328 114.605 21.9328C115.89 21.9328 116.804 21.3808 117.348 20.2768H121.08C120.685 21.595 119.927 22.6825 118.806 23.5393C117.686 24.3796 116.31 24.7998 114.679 24.7998C113.361 24.7998 112.174 24.5115 111.12 23.9348C110.082 23.3416 109.266 22.5095 108.673 21.4384C108.096 20.3674 107.808 19.1316 107.808 17.7311C107.808 16.314 108.096 15.07 108.673 13.9989C109.25 12.9279 110.057 12.1041 111.095 11.5274C112.133 10.9506 113.328 10.6623 114.679 10.6623C115.981 10.6623 117.142 10.9424 118.164 11.5026C119.202 12.0629 120.001 12.862 120.561 13.9001C121.138 14.9217 121.426 16.0998 121.426 17.4345ZM117.842 16.4458C117.826 15.556 117.505 14.8475 116.879 14.3203C116.252 13.7765 115.486 13.5046 114.58 13.5046C113.723 13.5046 112.998 13.7683 112.405 14.2955C111.828 14.8063 111.474 15.5231 111.342 16.4458H117.842Z" fill="white"/>
<path d="M129.192 24.7998C128.071 24.7998 127.066 24.6021 126.176 24.2066C125.287 23.7947 124.578 23.2427 124.051 22.5507C123.54 21.8586 123.26 21.0924 123.21 20.2521H126.695C126.761 20.7793 127.017 21.216 127.462 21.562C127.923 21.908 128.491 22.0811 129.167 22.0811C129.826 22.0811 130.337 21.9492 130.699 21.6856C131.078 21.422 131.268 21.0842 131.268 20.6722C131.268 20.2274 131.037 19.8978 130.576 19.6836C130.131 19.4529 129.414 19.2058 128.426 18.9421C127.404 18.695 126.564 18.4396 125.905 18.1759C125.262 17.9123 124.702 17.5086 124.224 16.9649C123.762 16.4211 123.532 15.6879 123.532 14.7651C123.532 14.0072 123.746 13.3151 124.174 12.689C124.619 12.0629 125.245 11.5685 126.053 11.206C126.877 10.8435 127.841 10.6623 128.945 10.6623C130.576 10.6623 131.878 11.0742 132.85 11.8981C133.822 12.7055 134.357 13.8012 134.456 15.1853H131.144C131.095 14.6416 130.864 14.2132 130.452 13.9001C130.057 13.5705 129.521 13.4058 128.846 13.4058C128.22 13.4058 127.733 13.5211 127.387 13.7518C127.058 13.9825 126.893 14.3038 126.893 14.7157C126.893 15.1771 127.124 15.5313 127.585 15.7785C128.047 16.0092 128.763 16.2481 129.735 16.4953C130.724 16.7424 131.54 16.9978 132.182 17.2614C132.825 17.5251 133.377 17.937 133.838 18.4972C134.316 19.041 134.563 19.766 134.58 20.6722C134.58 21.4632 134.357 22.1717 133.912 22.7978C133.484 23.424 132.858 23.9183 132.034 24.2808C131.227 24.6268 130.279 24.7998 129.192 24.7998Z" fill="white"/>
<path d="M141.449 13.7271V20.3509C141.449 20.8123 141.556 21.1501 141.77 21.3643C142.001 21.562 142.38 21.6609 142.907 21.6609H144.514V24.5774H142.339C139.422 24.5774 137.964 23.1603 137.964 20.3262V13.7271H136.333V10.8847H137.964V7.49865H141.449V10.8847H144.514V13.7271H141.449Z" fill="white"/>
<path d="M146.113 17.6816C146.113 16.2975 146.385 15.07 146.928 13.9989C147.489 12.9279 148.238 12.1041 149.177 11.5274C150.133 10.9506 151.196 10.6623 152.366 10.6623C153.387 10.6623 154.277 10.8683 155.035 11.2802C155.81 11.6921 156.427 12.2112 156.889 12.8373V10.8847H160.374V24.5774H156.889V22.5754C156.444 23.218 155.826 23.7535 155.035 24.1819C154.261 24.5938 153.363 24.7998 152.341 24.7998C151.188 24.7998 150.133 24.5032 149.177 23.91C148.238 23.3169 147.489 22.4847 146.928 21.4137C146.385 20.3262 146.113 19.0822 146.113 17.6816ZM156.889 17.7311C156.889 16.8907 156.724 16.1739 156.395 15.5808C156.065 14.9711 155.62 14.5097 155.06 14.1967C154.5 13.8671 153.898 13.7024 153.256 13.7024C152.613 13.7024 152.02 13.8589 151.476 14.172C150.932 14.485 150.487 14.9464 150.141 15.556C149.812 16.1492 149.647 16.8578 149.647 17.6816C149.647 18.5055 149.812 19.2305 150.141 19.8566C150.487 20.4663 150.932 20.9359 151.476 21.2654C152.036 21.595 152.629 21.7597 153.256 21.7597C153.898 21.7597 154.5 21.6032 155.06 21.2901C155.62 20.9606 156.065 20.4992 156.395 19.9061C156.724 19.2964 156.889 18.5714 156.889 17.7311Z" fill="white"/>
<path d="M168.993 24.7998C167.873 24.7998 166.867 24.6021 165.978 24.2066C165.088 23.7947 164.379 23.2427 163.852 22.5507C163.341 21.8586 163.061 21.0924 163.012 20.2521H166.497C166.563 20.7793 166.818 21.216 167.263 21.562C167.724 21.908 168.293 22.0811 168.968 22.0811C169.627 22.0811 170.138 21.9492 170.501 21.6856C170.88 21.422 171.069 21.0842 171.069 20.6722C171.069 20.2274 170.839 19.8978 170.377 19.6836C169.932 19.4529 169.216 19.2058 168.227 18.9421C167.205 18.695 166.365 18.4396 165.706 18.1759C165.063 17.9123 164.503 17.5086 164.025 16.9649C163.564 16.4211 163.333 15.6879 163.333 14.7651C163.333 14.0072 163.547 13.3151 163.976 12.689C164.421 12.0629 165.047 11.5685 165.854 11.206C166.678 10.8435 167.642 10.6623 168.746 10.6623C170.377 10.6623 171.679 11.0742 172.651 11.8981C173.623 12.7055 174.159 13.8012 174.258 15.1853H170.946C170.896 14.6416 170.666 14.2132 170.254 13.9001C169.858 13.5705 169.323 13.4058 168.647 13.4058C168.021 13.4058 167.535 13.5211 167.189 13.7518C166.859 13.9825 166.694 14.3038 166.694 14.7157C166.694 15.1771 166.925 15.5313 167.387 15.7785C167.848 16.0092 168.565 16.2481 169.537 16.4953C170.525 16.7424 171.341 16.9978 171.984 17.2614C172.626 17.5251 173.178 17.937 173.64 18.4972C174.118 19.041 174.365 19.766 174.381 20.6722C174.381 21.4632 174.159 22.1717 173.714 22.7978C173.285 23.424 172.659 23.9183 171.835 24.2808C171.028 24.6268 170.081 24.7998 168.993 24.7998Z" fill="white"/>
<path d="M178.976 9.25349C178.367 9.25349 177.856 9.064 177.444 8.68502C177.049 8.28956 176.851 7.80348 176.851 7.22678C176.851 6.65007 177.049 6.17223 177.444 5.79326C177.856 5.3978 178.367 5.20007 178.976 5.20007C179.586 5.20007 180.089 5.3978 180.484 5.79326C180.896 6.17223 181.102 6.65007 181.102 7.22678C181.102 7.80348 180.896 8.28956 180.484 8.68502C180.089 9.064 179.586 9.25349 178.976 9.25349ZM180.682 10.8847V24.5774H177.222V10.8847H180.682Z" fill="white"/>
</svg>
