<svg width="195" height="30" viewBox="0 0 195 30" fill="none" xmlns="http://www.w3.org/2000/svg">
<g clip-path="url(#clip0_738_2097)">
<path d="M105.204 6.1976V12.4676C106.258 11.0996 107.781 10.4156 109.771 10.4156C110.708 10.4156 111.528 10.5296 112.23 10.8716C113.05 11.0996 113.753 11.5556 114.338 12.1256C115.041 12.6956 115.509 13.3796 115.86 14.1776C116.212 14.9756 116.329 16.0016 116.329 17.1416C116.329 18.3956 116.095 19.5356 115.626 20.6756C115.158 21.7016 114.455 22.6136 113.401 23.2976C112.347 23.9816 111.176 24.3236 109.654 24.3236C107.546 24.3236 106.024 23.6396 105.087 22.3856V23.9816H100.989V6.1976H105.204ZM89.6301 10.0736C97.5928 10.0736 96.8902 18.3956 96.8902 18.3956H86.1171C86.5855 19.9916 87.9907 21.1316 89.9814 21.1316C92.4405 21.1316 93.7285 19.7636 93.7285 19.7636L96.0705 22.0436C94.8995 23.1836 93.2602 24.2096 89.9814 24.2096C84.9461 24.2096 82.2528 20.9036 82.2528 17.4836C82.2528 14.0636 84.1264 10.0736 89.6301 10.0736ZM188.111 9.9596C191.507 9.9596 193.732 11.2136 193.732 11.2136L192.209 14.1776C187.642 11.8976 185.652 13.4936 185.652 14.2916C185.652 15.0896 186.471 15.2036 189.633 15.7736C192.795 16.3436 194.2 17.5976 194.2 19.6496C194.2 21.7016 192.326 23.9816 187.877 23.9816C183.427 23.9816 181.436 22.6136 181.436 22.6136L182.841 19.7636C186.354 21.9296 190.336 21.2456 190.336 19.9916C190.336 19.0796 189.048 18.8516 187.643 18.6236L187.057 18.5096C186.823 18.5096 186.471 18.3956 186.237 18.3956C184.481 18.1676 181.788 17.1416 181.788 14.5196C181.67 11.7836 184.715 9.9596 188.111 9.9596ZM168.204 5.1716V15.8876L174.176 10.4156H178.977L173.122 15.8876L179.563 24.0956H174.762L170.312 18.5096L168.204 20.4476V24.0956H164.223V5.1716H168.204ZM154.035 9.9596C156.845 9.9596 159.304 11.3276 160.71 13.3796L157.314 15.3176C156.728 14.1776 155.44 13.3796 154.035 13.3796C151.927 13.3796 150.288 14.9756 150.288 17.0276C150.288 19.0796 151.927 20.6756 154.035 20.6756C155.44 20.6756 156.611 19.9916 157.197 18.8516L160.592 20.6756C159.187 22.6136 156.845 23.9816 154.035 23.9816C149.702 23.9816 146.306 20.7896 146.306 16.9136C146.189 13.0376 149.702 9.9596 154.035 9.9596ZM135.65 9.9596C139.983 9.9596 143.379 13.1516 143.379 17.0276C143.379 20.9036 139.866 24.0956 135.65 24.0956C131.318 24.0956 127.922 20.9036 127.922 17.0276C127.805 13.0376 131.318 9.9596 135.65 9.9596ZM65.2733 10.3016V23.8676H60.9406V10.3016H65.2733ZM57.1935 6.1976V9.6176H47.5913V14.1776H56.0225V17.4836H47.5913V23.8676H43.2586V6.1976H57.1935ZM74.5242 12.0116C74.5242 12.0116 76.0465 9.7316 79.2082 10.0736V13.8356C79.2082 13.8356 75.8123 13.0376 74.5242 16.4576V23.9816H70.4257V10.3016H74.29L74.5242 12.0116ZM123.706 5.1716V23.8676H119.373V5.1716H123.706ZM108.6 13.3796C106.258 13.3796 105.087 14.7476 105.087 17.5976C105.087 18.6236 105.439 19.5356 106.024 20.3336C106.61 21.0176 107.546 21.3596 108.834 21.3596C109.654 21.3596 110.357 21.1316 110.825 20.7896C111.294 20.3336 111.645 19.8776 111.879 19.3076C112.113 18.7376 112.23 18.0536 112.23 17.4836C112.23 16.3436 111.996 15.3176 111.411 14.6336C110.708 13.7216 109.771 13.3796 108.6 13.3796ZM135.65 13.2656C133.542 13.2656 131.903 14.8616 131.903 16.9136C131.903 18.9656 133.542 20.5616 135.65 20.5616C137.758 20.5616 139.397 18.9656 139.397 16.9136C139.28 14.9756 137.641 13.2656 135.65 13.2656ZM89.6301 12.9236C87.5223 12.9236 86.3513 14.1776 86 15.7736H93.026C93.026 15.4316 92.3234 12.9236 89.6301 12.9236ZM63.1655 3.9176C64.5707 3.9176 65.7417 4.9436 65.7417 6.1976C65.7417 7.4516 64.5707 8.4776 63.1655 8.4776C61.7603 8.4776 60.5893 7.4516 60.5893 6.1976C60.5893 4.9436 61.7603 3.9176 63.1655 3.9176Z" fill="white"/>
<path d="M28.8839 0.75C29.5865 0.75 30.0549 1.206 30.0549 1.89V28.11C30.0549 28.794 29.5865 29.25 28.8839 29.25H1.59969C0.897094 29.25 0.428696 28.794 0.428696 28.11V1.89C0.428696 1.206 0.897094 0.75 1.59969 0.75H28.8839ZM15.3004 8.616L7.10338 21.27H23.6144L15.3004 8.616Z" fill="white"/>
</g>
<defs>
<clipPath id="clip0_738_2097">
<rect width="193.8" height="28.5" fill="white" transform="translate(0.43335 0.75)"/>
</clipPath>
</defs>
</svg>
