<svg width="223" height="223" fill="none" xmlns="http://www.w3.org/2000/svg"><g clip-path="url(#a)"><path d="M197.311 183.123c-.047-.146-.094-.296-.155-.442l-3.534-10.868a.512.512 0 0 0-.409-.334l-14.001-1.947a.503.503 0 0 1-.183-.062L95.32 121.14c-6.774-3.909-18.611-3.42-26.435 1.096l-31.088 17.831a.49.49 0 0 1-.324.061l-7.608-1.059a.507.507 0 0 0-.545.33l-3.35 10.157c-.593.988-.955 1.99-1.078 2.987-.329 2.753 1.153 5.425 4.526 7.377l97.752 56.436c6.775 3.91 18.611 3.421 26.435-1.096l37.562-21.57c5.217-3.011 7.315-7.053 6.134-10.572l.01.005Z" fill="#494949"/><path d="M136.528 146.361 95.32 121.183c-6.774-3.91-18.611-3.421-26.435 1.096l-31.088 17.83a.485.485 0 0 1-.324.061l-7.608-1.058a.505.505 0 0 0-.545.329l-2.917 8.605c-.593.988-1.388 3.542-1.51 4.54-.33 2.752 1.152 5.424 4.525 7.376l97.752 56.437c2.559 1.477 5.839 2.324 9.348 2.564v-72.606l.01.004Z" fill="#535555"/><path d="m126.778 201.871-93.49-53.976c-6.478-3.74-5.668-10.275 1.817-14.593l35.34-20.287c7.48-4.318 18.8-4.789 25.283-1.049l93.489 53.976c6.478 3.74 5.669 10.275-1.816 14.594l-35.341 20.286c-7.48 4.319-18.799 4.789-25.282 1.049Z" fill="#5E5E5E"/><path d="m184.749 88.142-32.165-23.97c-2.244-1.674-4.187-4.422-5.189-7.353l-14.387-41.96c-2.121-6.182-7.588-10.124-10.792-8.623l-.075.037a2.978 2.978 0 0 0-.442.259l-21.486 12.481 3.406 15.826c-.772.09-1.633-.037-2.545-.414L68.908 21.253c-1.712-.701-3.11-.565-4.116.15L42.93 34.06s21.43 8.934 30.387 12.575l15.05 25.63c1.623 2.767 2.366 5.83 1.98 8.191l-5.495 33.821c-.964 5.947 4.945 14.316 10.002 14.166l28.769-.856c2.009-.062 4.408 1.326 6.417 3.702l8.04 9.522-.169.09.771 30.17 5.829 10.505 22.267-12.9s.009-.004.014-.009l.085-.047c1.505-.847 2.357-2.851 1.943-5.876l-5.495-40.163c-.386-2.804.357-5.01 1.98-5.9l23.274-12.758c4.093-2.245 1.835-11.57-3.82-15.784l-.01.004Z" fill="#D338BB"/><path d="m147.387 56.923-14.161-41.306-29.982 17.623.367 1.703c-.772.09-1.633-.038-2.545-.414h-.01l-2.794 1.637v50.109l49.873-27.612a16.555 16.555 0 0 1-.748-1.745v.005ZM166.78 168.619l.084-.047c1.506-.847 2.357-2.851 1.943-5.876l-4.859-35.534-26.003 15.116.734 28.74 5.829 10.506 22.267-12.9s.009-.005.014-.01l-.009.005Z" fill="#D372C4"/><path d="m110.683 27.792 14.387 41.96c1.002 2.931 2.945 5.678 5.189 7.353l32.165 23.97c5.655 4.215 7.913 13.54 3.82 15.784l-23.273 12.759c-1.624.889-2.367 3.095-1.981 5.899l5.495 40.163c.964 7.062-4.945 8.605-10.002 2.616l-28.769-34.075c-2.008-2.381-4.408-3.764-6.417-3.703l-28.768.857c-5.058.15-10.967-8.224-10.002-14.166l5.495-33.821c.386-2.362-.358-5.425-1.98-8.19L42.757 45.56c-4.093-6.967-1.835-13.686 3.82-11.37l32.166 13.172c2.244.917 4.187.414 5.189-1.36L98.319 20.65c2.531-4.455 9.838-.24 12.364 7.137v.005Z" fill="#7BE3B2"/><path d="m108.868 45.82 10.162 29.643c.71 2.07 2.079 4.013 3.664 5.194l22.724 16.932c3.994 2.978 5.589 9.564 2.7 11.15l-16.442 9.014c-1.148.63-1.671 2.187-1.402 4.168l3.881 28.373c.682 4.987-3.496 6.079-7.066 1.849l-20.324-24.073c-1.421-1.68-3.115-2.658-4.531-2.616l-20.323.602c-3.571.109-7.749-5.81-7.067-10.006l3.882-23.89c.272-1.665-.255-3.83-1.403-5.787L60.881 58.372c-2.889-4.921-1.294-9.668 2.7-8.036l22.724 9.306c1.585.65 2.959.291 3.664-.96l10.162-17.91c1.788-3.148 6.949-.17 8.737 5.043v.005Z" fill="#0FBA6A"/><path d="m133.746 147.274-18.866-22.347c-1.421-1.679-3.114-2.658-4.53-2.615l-20.324.602c-3.57.108-7.749-5.81-7.066-10.007l3.88-23.89c.274-1.665-.253-3.83-1.401-5.786L68.996 55.229c-.644-1.1-1.058-2.188-1.28-3.2l-4.135-1.693c-3.994-1.637-5.589 3.11-2.7 8.036l16.442 28.001c1.148 1.953 1.67 4.117 1.403 5.787l-3.882 23.89c-.682 4.201 3.496 10.115 7.067 10.006l20.323-.602c1.421-.042 3.115.937 4.531 2.616l20.324 24.073c3.57 4.23 7.748 3.138 7.066-1.849l-.414-3.02h.005Z" fill="#D338BB"/><path d="M106.106 41.407c-2.174-2.112-4.799-2.7-5.97-.63l-8.318 14.66-1.844 3.25a2.39 2.39 0 0 1-1.402 1.139l-.01.018s6.512.89 9.32-4.008c.038-.07.07-.122.104-.179.028-.042.07-.065.094-.112l8.021-14.138h.005Z" fill="#12E582"/><path d="M114.135 70.293v42.859l-6.243 3.453-1.585-39.74-.344-.197c-.399.48-1.246.701-2.535.659-1.294-.043-9.212-4.404-11.268-5.594l6.243-3.453c.696.404 1.36.706 1.981.908l6.069-3.331 7.682 4.436Z" fill="#535555"/><path d="M107.891 73.746v42.859l-7.828-4.521V80.319l-.343-.198c-.4.48-1.247.701-2.536.659-1.294-.043-2.964-.654-5.02-1.844v-7.203c1.595.922 2.992 1.317 4.187 1.195 1.195-.127 2.131-.55 2.809-1.27.677-.716 1.03-1.501 1.054-2.348l7.682 4.436h-.005Z" fill="#D8D8D8"/><path d="m97.62 175.049-14.165-8.176c-1.533-.885-1.858-5.711-.084-6.732l3.359 1.632c1.773-1.021 4.45-1.134 5.989-.249l14.668 4.921c1.534.884.838 5.692-.936 6.713l-2.846 1.642c-1.774 1.026-4.455 1.134-5.989.249h.005Z" fill="#494949"/><path d="m97.623 171.422-14.166-8.176c-1.533-.885-1.34-2.432.428-3.458l2.847-1.642c1.773-1.026 4.45-1.134 5.989-.249l14.165 8.176c1.534.885 1.341 2.433-.428 3.458l-2.846 1.642c-1.774 1.021-4.456 1.134-5.99.249Z" fill="#BDBDBD"/></g><defs><clipPath id="a"><path fill="#fff" transform="translate(24.852 5.92)" d="M0 0h172.776v213.08H0z"/></clipPath></defs></svg>