<svg width="113" height="113" fill="none" xmlns="http://www.w3.org/2000/svg"><g clip-path="url(#a)"><path d="M83.614 97.134c-.02-.063-.04-.128-.067-.191l-1.525-4.691a.22.22 0 0 0-.177-.144l-6.043-.841a.214.214 0 0 1-.08-.027l-15.824-9.218c-2.925-1.687-8.034-1.476-11.412.473l-13.42 7.697a.211.211 0 0 1-.14.027l-3.284-.457a.218.218 0 0 0-.235.142l-1.446 4.385c-.256.426-.412.859-.465 1.29-.142 1.187.498 2.34 1.954 3.184l21.886 12.719c2.925 1.69 8.034 1.476 11.412-.473l16.214-9.312c2.252-1.3 3.158-3.044 2.648-4.563h.004Z" fill="#494949"/><path d="m57.424 96.75 2.474-14.713c-2.925-1.688-8.034-1.477-11.412.473l-13.42 7.697a.211.211 0 0 1-.14.026l-3.284-.457a.218.218 0 0 0-.235.142l-1.26 3.715c-.255.426-.598 1.53-.651 1.96-.142 1.188.498 2.341 1.954 3.184l21.886 12.719c1.105.638 2.52 1.004 4.035 1.109l.051-15.853.002-.002Z" fill="#535555"/><path d="M53.163 105.225 33.12 93.57c-2.797-1.615-2.447-4.436.784-6.3l15.255-8.757c3.23-1.864 8.116-2.067 10.914-.453l20.045 11.657c2.796 1.615 2.447 4.436-.784 6.3l-15.256 8.757c-3.229 1.864-8.115 2.067-10.914.453v-.002Z" fill="#5E5E5E"/><path d="M70.433 90.684c-.01-.028-.018-.055-.029-.083l-.664-3.635a.099.099 0 0 0-.077-.063l-2.63-.366a.071.071 0 0 1-.034-.012l-6.885-4.011c-1.271-.735-3.495-.642-4.963.205l-5.839 3.349a.106.106 0 0 1-.06.012l-1.43-.199a.097.097 0 0 0-.104.063l-.63 3.503a1.41 1.41 0 0 0-.2.56c-.062.517.214 1.02.85 1.386l9.52 5.534c1.274.735 3.496.642 4.964-.205l7.053-4.05c.981-.566 1.373-1.324 1.152-1.986l.006-.002Z" fill="#D338BB"/><path d="m59.042 88.924 1.076-6.402c-1.271-.735-3.495-.641-4.963.206l-5.84 3.348a.106.106 0 0 1-.06.013l-1.43-.2a.097.097 0 0 0-.103.064l-.632 2.9c-.112.184-.177.974-.199 1.161-.06.516.215 1.02.851 1.385l9.52 5.534c.48.278 1.097.437 1.755.482l.023-8.491h.002Z" fill="#D372C4"/><path d="m57.186 92.61-8.72-5.072c-1.217-.702-1.064-1.929.341-2.741l6.637-3.81c1.405-.81 3.53-.9 4.748-.197l8.72 5.07c1.217.704 1.065 1.93-.34 2.743l-6.638 3.81c-1.405.81-3.53.9-4.748.197Z" fill="#12E582"/><path d="M65.092 85.3h.004l-.014-.04a3.018 3.018 0 0 0-.06-.175c-.48-1.387-3.08-9.419-3.08-20.517l-2.95.333-2.951-.333c0 11.102-2.602 19.136-3.081 20.52a2.987 2.987 0 0 0-.061.172l-.014.04h.004c-.307 1.095.266 2.255 1.726 3.098 2.417 1.395 6.334 1.395 8.751 0 1.46-.843 2.033-2.005 1.726-3.097Z" fill="#D372C4"/><path d="M59.828 68.26s-.975 11.447.203 21.129c1.22-.12 2.395-.445 3.337-.99 1.46-.842 2.033-2.004 1.726-3.097h.004l-.014-.04a3.018 3.018 0 0 0-.061-.175c-.457-1.322-2.833-8.678-3.056-18.966h-.005l-2.132 2.137-.002.002Z" fill="#D338BB"/><path d="M82.737 36.643H35.245s-.617 15.987 16.915 29.57c.339.34.753.666 1.259.958 3.077 1.777 8.065 1.777 11.141 0 .506-.292.92-.615 1.26-.958 17.534-13.585 16.914-29.57 16.914-29.57h.003Z" fill="#D372C4"/><path d="M40.3 39.229h42.274c.199-1.631.163-2.586.163-2.586H35.245s-.617 15.987 16.915 29.57c.339.34.753.666 1.259.958.906.522 1.984.873 3.123 1.089C39.712 54.795 40.3 39.229 40.3 39.229Z" fill="#12E582"/><path d="M82.735 36.65H67.987c.231 7.103-.555 21.472-9.3 31.853 2.344.34 4.257-.391 5.874-1.326.505-.292.92-.615 1.259-.958 17.534-13.585 16.915-29.57 16.915-29.57Z" fill="#D338BB"/><path d="M75.78 26.948c9.272 5.353 9.272 14.035 0 19.389-9.274 5.353-24.31 5.353-33.583 0-9.273-5.354-9.273-14.036 0-19.39 9.273-5.352 24.31-5.352 33.582 0Z" fill="#7BE3B2"/><path d="M58.99 47.435c10.325 0 18.695-4.832 18.695-10.792s-8.37-10.792-18.694-10.792c-10.325 0-18.694 4.832-18.694 10.792s8.37 10.792 18.694 10.792Z" fill="#D372C4"/><path d="M58.819 31.648c3.332-1.926 7.52-3.045 11.858-3.388-7.34-3.404-18.095-3.144-24.904.788-7.301 4.214-7.301 11.048 0 15.264 3.145 1.816 7.134 2.845 11.236 3.095-6.242-4.701-5.641-11.458 1.81-15.762v.003Z" fill="#D338BB"/><path d="m48.69 101.125-6.115-3.53c-.662-.381-.802-2.465-.036-2.906l1.45.705c.765-.44 1.92-.49 2.585-.108l6.332 2.125c.662.381.362 2.457-.404 2.898l-1.229.708c-.765.443-1.92.49-2.585.108h.002Z" fill="#494949"/><path d="m48.687 99.557-6.115-3.53c-.662-.381-.579-1.05.185-1.492l1.228-.71c.766-.442 1.922-.489 2.586-.107l6.115 3.53c.662.382.578 1.05-.185 1.493l-1.229.708c-.765.441-1.921.49-2.585.108Z" fill="#BDBDBD"/><path d="M57.66 20.163a6.576 6.576 0 0 1 2.008-6.381c1.178-1.067 1.312-2.87.366-4.145l-1.926-2.594a6.599 6.599 0 0 1-1.277-4.525c.105-1.175 1.397-1.858 2.465-1.352h.007c.666.317 1.025 1.013.978 1.748a3.127 3.127 0 0 0 .612 2.06l1.884 2.54c1.997 2.69 1.842 6.607-.709 8.776a3.118 3.118 0 0 0-1.047 2.997c.146.725-.11 1.47-.73 1.877h-.003c-.99.65-2.36.15-2.628-1.001Z" fill="#D338BB"/><path d="M58.458 7.606c.085-.039.172-.071.256-.126h.004c.62-.408.875-1.154.729-1.879a3.113 3.113 0 0 1 .822-2.778c-.02-.662-.357-1.273-.966-1.562h-.006c-1.069-.507-2.36.175-2.466 1.35a6.591 6.591 0 0 0 1.277 4.526l.348.469h.002Z" fill="#D372C4"/><path d="M53.265 30.038h-.004c-.62-.408-.876-1.153-.73-1.88a3.118 3.118 0 0 0-1.043-2.994c-2.553-2.177-2.703-6.098-.703-8.793l1.877-2.524a3.128 3.128 0 0 0 .611-2.06c-.047-.735.315-1.432.98-1.746h.005c1.068-.506 2.36.174 2.465 1.35a6.585 6.585 0 0 1-1.277 4.523l-1.925 2.593c-.947 1.276-.81 3.08.367 4.145a6.57 6.57 0 0 1 2.007 6.381c-.268 1.15-1.641 1.65-2.628 1.003l-.002.002Z" fill="#D338BB"/><path d="M53.26 30.049h.004c.989.65 2.36.15 2.628-1.001a6.563 6.563 0 0 0-.027-3.039 1.754 1.754 0 0 0-2.116-.495h-.004c-.666.317-1.026 1.013-.98 1.748.03.498-.068.994-.269 1.455.04.534.3 1.03.764 1.334v-.002Z" fill="#D372C4"/><path d="M63.345 25.004a1.732 1.732 0 0 1-.357-2.427l.891-1.2a3.116 3.116 0 0 0 .612-2.06c-.047-.734.314-1.431.98-1.746h.005c1.068-.506 2.36.175 2.465 1.35a6.588 6.588 0 0 1-1.277 4.526l-.892 1.2c-.57.77-1.657.93-2.427.357Z" fill="#D338BB"/><path d="M65.692 22.884c-.087-.975-.99-1.598-1.906-1.499l-.878 1.182c-.57.77-.41 1.856.358 2.427.727.54 1.734.418 2.325-.246.12-.613.156-1.239.102-1.862v-.002Z" fill="#D372C4"/></g><defs><clipPath id="a"><path fill="#fff" transform="translate(29.484 1)" d="M0 0h54.273v111.62H0z"/></clipPath></defs></svg>