<svg width="113" height="114" fill="none" xmlns="http://www.w3.org/2000/svg"><g clip-path="url(#a)"><path d="M81.79 98.352c-.019-.06-.038-.123-.064-.184l-1.47-4.516a.21.21 0 0 0-.168-.138l-5.817-.81a.242.242 0 0 1-.075-.025l-15.234-8.875c-2.816-1.625-7.734-1.422-10.985.455l-12.919 7.41a.21.21 0 0 1-.134.026l-3.16-.44a.209.209 0 0 0-.227.138l-1.392 4.22c-.246.41-.397.829-.447 1.241-.136 1.144.48 2.255 1.882 3.064l21.07 12.246c2.816 1.624 7.734 1.422 10.986-.456l15.609-8.963c2.168-1.252 3.04-2.93 2.55-4.393h-.004Z" fill="#494949"/><path d="m56.577 97.983 2.383-14.164c-2.816-1.624-7.734-1.422-10.986.456l-12.918 7.41a.208.208 0 0 1-.134.025l-3.161-.44a.209.209 0 0 0-.227.138l-1.21 3.576c-.246.41-.576 1.471-.626 1.886-.136 1.143.48 2.254 1.882 3.064l21.07 12.245c1.064.613 2.426.967 3.884 1.066l.048-15.262h-.005Z" fill="#535555"/><path d="M52.478 106.141 33.18 94.921c-2.693-1.556-2.354-4.27.755-6.066l14.686-8.43c3.11-1.795 7.813-1.99 10.506-.436l19.297 11.22c2.693 1.554 2.354 4.27-.755 6.066l-14.686 8.43c-3.11 1.796-7.813 1.99-10.506.436Z" fill="#5E5E5E"/><path d="m49.216 102.069-6.497-3.75c-.703-.406-.852-2.62-.038-3.088l1.54.75c.814-.471 2.044-.52 2.747-.115l6.728 2.257c.703.405.384 2.611-.43 3.079l-1.305.753c-.813.468-2.041.52-2.747.114h.002Z" fill="#494949"/><path d="m49.218 100.404-6.497-3.75c-.703-.406-.615-1.116.196-1.587l1.306-.753c.813-.468 2.043-.52 2.747-.114l6.497 3.75c.703.406.615 1.116-.197 1.586l-1.305.753c-.814.471-2.041.52-2.747.115Z" fill="#BDBDBD"/><path d="m67.87 91.91-.023-.069-.557-3.053a.08.08 0 0 0-.065-.052l-2.207-.306s-.02-.004-.028-.01l-5.781-3.37c-1.068-.616-2.935-.539-4.169.173l-4.902 2.812a.083.083 0 0 1-.052.01l-1.2-.165a.083.083 0 0 0-.086.051l-.529 2.942a1.22 1.22 0 0 0-.17.47c-.052.434.181.856.714 1.163l7.995 4.646c1.068.617 2.934.539 4.168-.173l5.923-3.4c.823-.475 1.155-1.112.967-1.669h.002Z" fill="#D338BB"/><path d="m58.303 90.432.904-5.375c-1.068-.617-2.935-.539-4.169.173l-4.902 2.812a.084.084 0 0 1-.052.01l-1.2-.166a.083.083 0 0 0-.086.052l-.531 2.436c-.093.156-.147.82-.166.976-.052.433.181.856.714 1.163l7.995 4.645c.403.233.92.367 1.473.406l.018-7.132h.002Z" fill="#D372C4"/><path d="m56.748 93.529-7.324-4.257c-1.022-.59-.893-1.621.287-2.303l5.574-3.2c1.18-.682 2.965-.755 3.988-.166l7.323 4.257c1.023.59.893 1.62-.287 2.303l-5.574 3.2c-1.18.681-2.964.755-3.987.166Z" fill="#12E582"/><path d="M63.391 87.39h.005l-.014-.032a1.945 1.945 0 0 0-.051-.147c-.404-1.165-2.587-15.536-2.587-24.858l-2.48.279-2.479-.279c0 9.324-2.184 23.695-2.587 24.858a1.9 1.9 0 0 0-.065.18h.004c-.256.918.223 1.891 1.45 2.601 2.029 1.172 5.32 1.172 7.35 0 1.228-.707 1.707-1.683 1.45-2.602h.004Z" fill="#D372C4"/><path d="M58.97 65.454s-.818 17.238.17 25.369c1.026-.102 2.012-.373 2.801-.83 1.228-.709 1.707-1.684 1.45-2.603h.005l-.013-.033a2.038 2.038 0 0 0-.052-.146c-.384-1.11-2.378-14.913-2.568-23.552h-.004l-1.791 1.795h.002Z" fill="#D338BB"/><path d="M70.507 33.314H46.131s-.304 18.943 6.329 34.21h.02c.094.785.655 1.555 1.695 2.155 2.287 1.32 5.999 1.32 8.286 0 1.04-.6 1.603-1.372 1.696-2.158h.02c6.632-15.266 6.328-34.207 6.328-34.207h.002Z" fill="#D372C4"/><path d="m48.924 34.46 12.09 1.703h9.397c.067-1.884.05-2.991.05-2.991H46.084s-.304 18.943 6.329 34.21h.02c.094.784.655 1.555 1.695 2.155.264.153.55.282.846.399-6.406-15.223-6.05-35.478-6.05-35.478v.002Z" fill="#12E582"/><path d="M70.505 33.336h-9.6c-.212 8.474-.697 22.85-1.757 37.31 1.21-.1 2.378-.408 3.31-.945 1.04-.6 1.604-1.372 1.697-2.158h.019c6.633-15.266 6.329-34.207 6.329-34.207h.002Z" fill="#D338BB"/><path d="M58.318 40.35c6.732 0 12.19-3.15 12.19-7.036 0-3.886-5.458-7.036-12.19-7.036-6.732 0-12.19 3.15-12.19 7.036 0 3.886 5.458 7.037 12.19 7.037Z" fill="#7BE3B2"/><path d="M64.293 29.862c3.302 1.905 3.302 4.995 0 6.9-3.301 1.906-8.652 1.906-11.954 0-3.301-1.905-3.301-4.995 0-6.9 3.302-1.905 8.653-1.905 11.954 0Z" fill="#D372C4"/><path d="M56.9 32.188c2.391-1.38 5.854-1.746 8.839-1.126-.389-.432-.896-.837-1.524-1.2-3.301-1.905-8.652-1.905-11.954 0-3.301 1.905-3.301 4.995 0 6.9.909.525 1.981.892 3.116 1.127-1.657-1.838-1.15-4.158 1.523-5.703v.002Z" fill="#D338BB"/><path d="M63.674 21.36a6.987 6.987 0 0 0-2.134-6.78c-1.251-1.132-1.394-3.048-.388-4.403l2.045-2.756a7.01 7.01 0 0 0 1.358-4.807c-.113-1.25-1.485-1.975-2.62-1.438h-.006c-.708.337-1.09 1.077-1.04 1.858a3.323 3.323 0 0 1-.65 2.188l-2.002 2.7c-2.121 2.856-1.957 7.019.753 9.323a3.313 3.313 0 0 1 1.113 3.185c-.155.77.117 1.562.775 1.994h.004c1.05.69 2.507.16 2.792-1.064Z" fill="#12E582"/><path d="M62.827 8.019c-.09-.041-.183-.076-.272-.134h-.004c-.658-.434-.93-1.226-.775-1.996a3.307 3.307 0 0 0-.874-2.952c.022-.703.38-1.353 1.027-1.659h.007c1.135-.54 2.507.186 2.62 1.435a7.002 7.002 0 0 1-1.358 4.807l-.369.499h-.002Z" fill="#D372C4"/><path d="M57.63 26.504c.817-.606.988-1.76.382-2.578l-.948-1.275a3.312 3.312 0 0 1-.65-2.188c.05-.782-.334-1.522-1.041-1.856h-.007c-1.135-.537-2.507.186-2.62 1.435a7 7 0 0 0 1.358 4.807l.947 1.276a1.84 1.84 0 0 0 2.579.38Z" fill="#12E582"/><path d="M55.128 24.252c.093-1.036 1.053-1.698 2.026-1.592l.932 1.255a1.845 1.845 0 0 1-.38 2.579 1.84 1.84 0 0 1-2.47-.261 7.079 7.079 0 0 1-.108-1.979v-.002Z" fill="#D372C4"/></g><defs><clipPath id="a"><path fill="#fff" transform="translate(29.672 1)" d="M0 0h52.246v112.26H0z"/></clipPath></defs></svg>