<svg xmlns="http://www.w3.org/2000/svg" width="72" height="73" fill="none"><g clip-path="url(#a)"><path fill="#494949" d="M71.88 56.238c-.02-.06-.04-.123-.065-.184l-1.472-4.527a.212.212 0 0 0-.17-.14l-5.833-.81a.207.207 0 0 1-.077-.026L29.391 30.417c-2.822-1.629-7.753-1.425-11.012.456l-12.95 7.428a.203.203 0 0 1-.134.026l-3.17-.441a.21.21 0 0 0-.227.137L.503 42.254c-.247.412-.398.83-.45 1.245-.136 1.146.481 2.26 1.886 3.073l40.723 23.51c2.822 1.63 7.753 1.426 11.012-.456l15.648-8.986c2.173-1.254 3.047-2.938 2.555-4.404l.002.002Z"/><path fill="#535555" d="M46.558 40.921 29.39 30.432c-2.822-1.628-7.753-1.425-11.012.457l-12.95 7.428a.204.204 0 0 1-.134.025l-3.17-.44a.21.21 0 0 0-.227.136L.683 41.623c-.247.412-.578 1.476-.63 1.891-.136 1.147.481 2.26 1.886 3.073l40.723 23.511c1.066.615 2.432.968 3.894 1.068V40.921h.002Z"/><path fill="#5E5E5E" d="M42.488 64.046 3.54 41.56c-2.699-1.558-2.362-4.28.757-6.08l14.722-8.45c3.116-1.8 7.832-1.995 10.533-.437l38.946 22.485c2.7 1.558 2.362 4.28-.756 6.08l-14.723 8.45c-3.116 1.8-7.832 1.996-10.532.438Z"/><path fill="#0FBA6A" d="m31.521 20.282-20.986.192v16.012h.014c.04.47.33.916.913 1.255l7.062 4.076c1.383.8 3.8.698 5.397-.223l6.287-3.63c.83-.478 1.267-1.086 1.31-1.67h.005V20.282h-.002Z"/><path fill="#12E582" d="M21.023 42.355v-21.97l-10.488.095v16.012h.014c.04.47.33.916.913 1.255l7.062 4.076c.662.383 1.564.553 2.496.532h.003Z"/><path fill="#7BE3B2" d="m18.526 25.999-7.061-4.077c-1.384-.8-1.21-2.193.388-3.116l6.287-3.63c1.598-.923 4.014-1.023 5.398-.223l7.061 4.077c1.384.8 1.21 2.193-.388 3.116l-6.287 3.63c-1.597.923-4.014 1.023-5.398.223Z"/><path fill="#0FBA6A" d="m46.525 15.33-20.986.191v29.62h.014c.039.47.329.915.913 1.254l7.062 4.077c1.383.8 3.8.698 5.397-.224l6.287-3.63c.83-.477 1.266-1.085 1.31-1.669h.005v-29.62h-.002Z"/><path fill="#12E582" d="M36.026 51.01V15.431l-10.487.096v29.62h.014c.039.47.329.915.913 1.254l7.062 4.076c.662.382 1.564.553 2.496.531h.002Z"/><path fill="#7BE3B2" d="m33.53 21.045-7.061-4.077c-1.384-.8-1.21-2.193.388-3.116l6.287-3.63C34.742 9.3 37.158 9.2 38.542 10l7.061 4.076c1.384.8 1.21 2.193-.388 3.117l-6.287 3.63c-1.597.922-4.014 1.022-5.398.223Z"/><path fill="#0FBA6A" d="m61.518 6.87-20.987.192V53.44h.014c.04.47.33.915.913 1.254l7.062 4.077c1.383.8 3.8.697 5.397-.224l6.288-3.63c.828-.48 1.266-1.085 1.309-1.67h.006V6.87h-.002Z"/><path fill="#12E582" d="M51.019 59.309V6.972l-10.488.096v46.377h.014c.04.47.33.915.913 1.254l7.062 4.077c.662.382 1.564.553 2.497.531l.002.002Z"/><path fill="#7BE3B2" d="M48.523 12.587 41.46 8.511c-1.384-.8-1.21-2.193.388-3.116l6.286-3.632C49.732.84 52.148.74 53.532 1.54l7.062 4.076c1.383.8 1.209 2.193-.389 3.116l-6.287 3.63c-1.597.923-4.014 1.023-5.397.223l.002.002Z"/><path fill="#494949" d="m28.73 55.19-5.9-3.407c-.64-.369-.775-2.38-.036-2.805l1.4.68c.738-.425 1.853-.472 2.494-.104l6.111 2.05c.64.369.349 2.372-.39 2.797l-1.186.684c-.738.425-1.854.473-2.494.104h.001Z"/><path fill="#BDBDBD" d="m28.735 53.678-5.901-3.406c-.64-.368-.559-1.013.178-1.44l1.186-.684c.739-.428 1.854-.473 2.495-.104l5.9 3.406c.64.368.56 1.013-.178 1.44l-1.185.684c-.74.428-1.854.473-2.495.104Z"/></g><defs><clipPath id="a"><path fill="#fff" d="M.023 1H72v70.183H.023z"/></clipPath></defs></svg>